<svg xmlns="http://www.w3.org/2000/svg" xmlns:xlink="http://www.w3.org/1999/xlink" width="500" zoomAndPan="magnify" viewBox="0 0 375 374.999991" height="500" preserveAspectRatio="xMidYMid meet" version="1.0"><path fill="#7887ab" d="M 187.488281 374.988281 C 84.105469 374.988281 -0.0078125 290.875 -0.0078125 187.488281 C -0.0078125 84.105469 84.105469 -0.0078125 187.488281 -0.0078125 C 290.875 -0.0078125 374.988281 84.105469 374.988281 187.488281 C 374.988281 290.875 290.875 374.988281 187.488281 374.988281 " fill-opacity="1" fill-rule="nonzero"/><path fill="#ddecff" d="M 187.488281 363.183594 C 90.613281 363.183594 11.792969 284.367188 11.792969 187.488281 C 11.792969 90.609375 90.613281 11.792969 187.488281 11.792969 C 284.367188 11.792969 363.1875 90.609375 363.1875 187.488281 C 363.1875 284.367188 284.367188 363.183594 187.488281 363.183594 " fill-opacity="1" fill-rule="nonzero"/><path fill="#7887ab" d="M 230.394531 323.484375 L 175.558594 212.21875 L 51.535156 211.871094 L 266.175781 66.976562 L 230.394531 323.484375 " fill-opacity="1" fill-rule="nonzero"/></svg>