<svg xmlns="http://www.w3.org/2000/svg" xmlns:xlink="http://www.w3.org/1999/xlink" width="500" zoomAndPan="magnify" viewBox="0 0 375 374.999991" height="500" preserveAspectRatio="xMidYMid meet" version="1.0"><path fill="#ffffff" d="M 162.664062 -0.121094 C 158.34375 -0.03125 154.882812 3.523438 154.941406 7.84375 L 154.941406 54.917969 C 154.910156 57.734375 156.382812 60.371094 158.835938 61.8125 C 161.285156 63.222656 164.289062 63.222656 166.742188 61.8125 C 169.191406 60.371094 170.664062 57.734375 170.632812 54.917969 L 170.632812 7.84375 C 170.664062 5.730469 169.835938 3.675781 168.335938 2.175781 C 166.832031 0.675781 164.78125 -0.152344 162.664062 -0.121094 Z M 92.089844 23.472656 C 88.902344 23.472656 86.050781 25.40625 84.824219 28.347656 C 83.632812 31.320312 84.335938 34.691406 86.632812 36.925781 L 118.015625 68.308594 C 119.976562 70.363281 122.917969 71.1875 125.644531 70.453125 C 128.402344 69.75 130.550781 67.601562 131.253906 64.84375 C 131.988281 62.117188 131.160156 59.175781 129.109375 57.214844 L 97.726562 25.832031 C 96.257812 24.300781 94.234375 23.472656 92.089844 23.472656 Z M 233.242188 23.472656 C 231.1875 23.503906 229.257812 24.363281 227.847656 25.832031 L 196.46875 57.214844 C 194.414062 59.175781 193.585938 62.117188 194.320312 64.84375 C 195.027344 67.601562 197.171875 69.75 199.929688 70.453125 C 202.65625 71.1875 205.597656 70.363281 207.558594 68.308594 L 238.941406 36.925781 C 241.269531 34.660156 241.945312 31.226562 240.6875 28.253906 C 239.429688 25.25 236.488281 23.351562 233.242188 23.472656 Z M 313.195312 31.441406 C 305.503906 31.441406 297.78125 34.351562 291.957031 40.175781 L 148.875 183.257812 C 146.515625 178.9375 145.351562 176.640625 140.96875 169.132812 C 133.675781 156.71875 125.554688 143.265625 118.167969 135.851562 C 106.828125 124.511719 91.140625 116.667969 76.429688 112.652344 C 69.105469 110.660156 61.996094 109.617188 55.5 109.863281 C 49 110.109375 42.71875 111.488281 37.9375 116.238281 L 23.871094 130.304688 C 20.808594 133.367188 20.808594 138.363281 23.871094 141.429688 L 66.929688 184.484375 L 100.425781 284.910156 C 100.824219 286.074219 101.464844 287.117188 102.324219 287.972656 L 163.921875 349.570312 C 189.234375 374.882812 230.484375 374.882812 255.796875 349.570312 L 269.371094 335.996094 L 266.125 335.996094 C 268.207031 335.996094 270.199219 335.167969 271.671875 333.695312 L 342.277344 263.089844 C 353.921875 251.414062 353.921875 232.292969 342.277344 220.617188 C 337.589844 215.925781 331.644531 213.660156 325.542969 212.738281 C 329.285156 202.136719 327.167969 189.816406 318.742188 181.390625 C 314.050781 176.699219 308.109375 174.433594 302.007812 173.511719 C 305.746094 162.910156 303.632812 150.589844 295.207031 142.164062 C 291.46875 138.425781 286.871094 136.339844 282.089844 134.992188 L 334.433594 82.648438 C 346.109375 70.972656 346.109375 51.851562 334.433594 40.175781 C 328.609375 34.351562 320.886719 31.441406 313.195312 31.441406 Z M 313.195312 47.011719 C 316.839844 47.011719 320.488281 48.417969 323.339844 51.269531 C 329.007812 56.9375 329.007812 65.886719 323.339844 71.558594 L 252.730469 142.164062 C 249.757812 145.257812 249.820312 150.132812 252.855469 153.132812 C 255.855469 156.167969 260.730469 156.230469 263.824219 153.257812 C 269.496094 147.585938 278.441406 147.585938 284.113281 153.257812 C 289.78125 158.925781 289.78125 167.875 284.113281 173.542969 L 276.265625 181.390625 C 273.292969 184.484375 273.355469 189.355469 276.390625 192.359375 C 279.394531 195.394531 284.265625 195.457031 287.359375 192.484375 C 293.03125 186.8125 301.976562 186.8125 307.648438 192.484375 C 313.316406 198.152344 313.316406 207.101562 307.648438 212.769531 L 299.800781 220.617188 C 296.828125 223.710938 296.890625 228.582031 299.925781 231.585938 C 302.929688 234.621094 307.800781 234.679688 310.894531 231.707031 C 316.566406 226.039062 325.515625 226.039062 331.183594 231.707031 C 336.851562 237.378906 336.851562 246.328125 331.183594 252.027344 L 260.578125 322.601562 L 244.703125 338.476562 C 225.394531 357.785156 194.320312 357.785156 175.015625 338.476562 L 114.734375 278.167969 L 81.242188 177.742188 C 80.84375 176.609375 80.199219 175.566406 79.339844 174.679688 L 40.511719 135.851562 L 49.03125 127.332031 C 49.398438 126.964844 51.820312 125.707031 56.113281 125.554688 C 60.402344 125.402344 66.164062 126.136719 72.324219 127.820312 C 84.613281 131.160156 98.402344 138.269531 107.105469 146.976562 C 111.210938 151.113281 120.34375 164.964844 127.421875 177.039062 C 134.503906 189.144531 140.171875 199.808594 140.171875 199.808594 C 141.335938 202.011719 143.480469 203.515625 145.933594 203.882812 C 148.382812 204.25 150.898438 203.421875 152.644531 201.675781 L 303.050781 51.269531 C 305.902344 48.417969 309.546875 47.011719 313.195312 47.011719 Z M 313.195312 47.011719 " fill-opacity="1" fill-rule="nonzero"/></svg>