<svg xmlns="http://www.w3.org/2000/svg" xmlns:xlink="http://www.w3.org/1999/xlink" width="500" zoomAndPan="magnify" viewBox="0 0 375 374.999991" height="500" preserveAspectRatio="xMidYMid meet" version="1.0"><path fill="#ffffff" d="M 364.832031 208.363281 C 369.597656 208.402344 374.363281 205.511719 374.363281 199.578125 L 374.363281 21.609375 C 374.363281 9.34375 364.382812 -0.636719 352.117188 -0.636719 L 97.882812 -0.636719 C 85.617188 -0.636719 75.636719 9.34375 75.636719 21.609375 L 75.636719 275.847656 C 75.636719 288.113281 85.617188 298.09375 97.882812 298.09375 L 151.90625 298.09375 L 151.90625 352.117188 C 151.90625 353.84375 150.453125 355.296875 148.730469 355.296875 L 21.609375 355.296875 C 19.882812 355.296875 18.433594 353.84375 18.433594 352.117188 L 18.433594 225 C 18.433594 223.273438 19.882812 221.820312 21.609375 221.820312 C 21.609375 221.820312 46.957031 221.820312 47.035156 221.820312 C 59.296875 221.820312 59.394531 202.753906 47.035156 202.753906 L 21.609375 202.753906 C 9.34375 202.753906 -0.636719 212.734375 -0.636719 225 L -0.636719 352.117188 C -0.636719 364.382812 9.34375 374.363281 21.609375 374.363281 L 148.730469 374.363281 C 160.992188 374.363281 170.972656 364.382812 170.972656 352.117188 L 170.972656 298.09375 L 352.117188 298.09375 C 364.382812 298.09375 374.363281 288.113281 374.363281 275.847656 C 374.363281 275.847656 374.363281 237.871094 374.363281 237.710938 C 374.363281 225.449219 355.296875 225.398438 355.296875 237.710938 L 355.296875 275.847656 C 355.296875 277.574219 353.84375 279.023438 352.117188 279.023438 L 97.882812 279.023438 C 96.15625 279.023438 94.703125 277.574219 94.703125 275.847656 L 94.703125 21.609375 C 94.703125 19.882812 96.15625 18.433594 97.882812 18.433594 L 352.117188 18.433594 C 353.84375 18.433594 355.296875 19.882812 355.296875 21.609375 C 355.296875 21.609375 355.296875 198.65625 355.296875 199.570312 C 355.296875 205.355469 360.0625 208.324219 364.832031 208.363281 Z M 364.832031 208.363281 " fill-opacity="1" fill-rule="nonzero"/><path fill="#ffffff" d="M 313.984375 50.210938 C 313.984375 50.210938 275.996094 50.210938 275.847656 50.210938 C 263.636719 50.210938 263.472656 69.28125 275.847656 69.28125 L 290.96875 69.28125 L 145.550781 214.695312 C 145.550781 214.695312 145.550781 199.632812 145.550781 199.578125 C 145.550781 187.375 126.484375 187.199219 126.484375 199.578125 L 126.484375 237.710938 C 126.484375 242.976562 130.753906 247.246094 136.015625 247.246094 C 136.015625 247.246094 174.027344 247.246094 174.152344 247.246094 C 186.425781 247.246094 186.492188 228.179688 174.152344 228.179688 L 159.03125 228.179688 L 304.449219 82.761719 C 304.449219 82.761719 304.449219 97.777344 304.449219 97.878906 C 304.449219 109.101562 323.515625 109.921875 323.515625 97.882812 L 323.515625 59.746094 C 323.515625 54.480469 319.246094 50.210938 313.984375 50.210938 Z M 313.984375 50.210938 " fill-opacity="1" fill-rule="nonzero"/></svg>