<svg xmlns="http://www.w3.org/2000/svg" xmlns:xlink="http://www.w3.org/1999/xlink" width="500" zoomAndPan="magnify" viewBox="0 0 375 374.999991" height="500" preserveAspectRatio="xMidYMid meet" version="1.0"><defs><clipPath id="586fc5d0fd"><path d="M 0 0 L 156 0 L 156 170.25 L 0 170.25 Z M 0 0 " clip-rule="nonzero"/></clipPath><clipPath id="ba61dcee8a"><path d="M 159 204.375 L 304 204.375 L 304 275 L 159 275 Z M 159 204.375 " clip-rule="nonzero"/></clipPath><clipPath id="668a0b4e17"><path d="M 0 204.375 L 156 204.375 L 156 375 L 0 375 Z M 0 204.375 " clip-rule="nonzero"/></clipPath></defs><path fill="#ffffff" d="M 167.617188 0 L 295.234375 0 C 295.777344 0 296.3125 0.0507812 296.84375 0.15625 C 297.371094 0.261719 297.886719 0.417969 298.386719 0.625 C 298.886719 0.832031 299.359375 1.085938 299.808594 1.386719 C 300.257812 1.6875 300.675781 2.027344 301.058594 2.410156 C 301.441406 2.792969 301.78125 3.210938 302.082031 3.660156 C 302.382812 4.109375 302.636719 4.582031 302.84375 5.082031 C 303.050781 5.582031 303.207031 6.097656 303.3125 6.628906 C 303.417969 7.15625 303.46875 7.691406 303.46875 8.234375 L 303.46875 61.75 C 303.46875 62.289062 303.417969 62.828125 303.3125 63.355469 C 303.207031 63.886719 303.050781 64.402344 302.84375 64.902344 C 302.636719 65.402344 302.382812 65.875 302.082031 66.324219 C 301.78125 66.773438 301.441406 67.191406 301.058594 67.570312 C 300.675781 67.953125 300.257812 68.296875 299.808594 68.597656 C 299.359375 68.894531 298.886719 69.148438 298.386719 69.355469 C 297.886719 69.5625 297.371094 69.71875 296.84375 69.824219 C 296.3125 69.929688 295.777344 69.984375 295.234375 69.984375 L 167.617188 69.984375 C 167.078125 69.984375 166.542969 69.929688 166.011719 69.824219 C 165.480469 69.71875 164.96875 69.5625 164.46875 69.355469 C 163.96875 69.148438 163.492188 68.894531 163.042969 68.597656 C 162.59375 68.296875 162.179688 67.953125 161.796875 67.570312 C 161.414062 67.191406 161.074219 66.773438 160.773438 66.324219 C 160.472656 65.875 160.21875 65.402344 160.011719 64.902344 C 159.804688 64.402344 159.648438 63.886719 159.542969 63.355469 C 159.4375 62.828125 159.386719 62.289062 159.386719 61.75 L 159.386719 8.234375 C 159.386719 7.691406 159.4375 7.15625 159.542969 6.628906 C 159.648438 6.097656 159.804688 5.582031 160.011719 5.082031 C 160.21875 4.582031 160.472656 4.109375 160.773438 3.660156 C 161.074219 3.210938 161.414062 2.792969 161.796875 2.410156 C 162.179688 2.027344 162.59375 1.6875 163.042969 1.386719 C 163.492188 1.085938 163.96875 0.832031 164.46875 0.625 C 164.96875 0.417969 165.480469 0.261719 166.011719 0.15625 C 166.542969 0.0507812 167.078125 0 167.617188 0 Z M 167.617188 0 " fill-opacity="1" fill-rule="nonzero"/><path fill="#68789b" d="M 199.027344 21.304688 L 192.371094 21.304688 L 191.144531 24.699219 L 189.039062 24.699219 L 194.558594 9.519531 L 196.859375 9.519531 L 202.359375 24.699219 L 200.253906 24.699219 Z M 198.457031 19.683594 L 195.699219 11.972656 L 192.941406 19.683594 Z M 210.613281 12.476562 C 212.070312 12.476562 213.253906 12.921875 214.160156 13.8125 C 215.066406 14.691406 215.519531 15.960938 215.519531 17.625 L 215.519531 24.699219 L 213.546875 24.699219 L 213.546875 17.910156 C 213.546875 16.710938 213.246094 15.800781 212.648438 15.171875 C 212.050781 14.53125 211.230469 14.207031 210.195312 14.207031 C 209.144531 14.207031 208.304688 14.535156 207.675781 15.195312 C 207.0625 15.851562 206.757812 16.808594 206.757812 18.0625 L 206.757812 24.699219 L 204.761719 24.699219 L 204.761719 12.695312 L 206.757812 12.695312 L 206.757812 14.40625 C 207.152344 13.792969 207.683594 13.316406 208.355469 12.980469 C 209.042969 12.644531 209.792969 12.476562 210.613281 12.476562 Z M 218.027344 18.65625 C 218.027344 17.429688 218.277344 16.355469 218.773438 15.433594 C 219.269531 14.5 219.949219 13.777344 220.8125 13.265625 C 221.6875 12.753906 222.664062 12.5 223.746094 12.5 C 224.679688 12.5 225.550781 12.71875 226.351562 13.15625 C 227.15625 13.582031 227.769531 14.144531 228.191406 14.84375 L 228.191406 8.492188 L 230.207031 8.492188 L 230.207031 24.699219 L 228.191406 24.699219 L 228.191406 22.445312 C 227.796875 23.160156 227.214844 23.75 226.441406 24.21875 C 225.667969 24.671875 224.761719 24.898438 223.722656 24.898438 C 222.65625 24.898438 221.6875 24.632812 220.8125 24.109375 C 219.949219 23.582031 219.269531 22.84375 218.773438 21.898438 C 218.277344 20.949219 218.027344 19.867188 218.027344 18.65625 Z M 228.191406 18.675781 C 228.191406 17.769531 228.007812 16.984375 227.644531 16.3125 C 227.28125 15.640625 226.78125 15.128906 226.15625 14.777344 C 225.542969 14.414062 224.863281 14.230469 224.117188 14.230469 C 223.375 14.230469 222.695312 14.40625 222.082031 14.757812 C 221.46875 15.105469 220.980469 15.617188 220.613281 16.289062 C 220.25 16.960938 220.066406 17.75 220.066406 18.65625 C 220.066406 19.574219 220.25 20.378906 220.613281 21.0625 C 220.980469 21.734375 221.46875 22.253906 222.082031 22.621094 C 222.695312 22.96875 223.375 23.144531 224.117188 23.144531 C 224.863281 23.144531 225.542969 22.96875 226.15625 22.621094 C 226.78125 22.253906 227.28125 21.734375 227.644531 21.0625 C 228.007812 20.378906 228.191406 19.582031 228.191406 18.675781 Z M 235.570312 14.648438 C 235.917969 13.960938 236.414062 13.425781 237.058594 13.046875 C 237.714844 12.667969 238.511719 12.476562 239.445312 12.476562 L 239.445312 14.535156 L 238.917969 14.535156 C 236.6875 14.535156 235.570312 15.75 235.570312 18.171875 L 235.570312 24.699219 L 233.574219 24.699219 L 233.574219 12.695312 L 235.570312 12.695312 Z M 246.980469 24.898438 C 245.855469 24.898438 244.835938 24.640625 243.914062 24.128906 C 243.007812 23.621094 242.292969 22.898438 241.769531 21.960938 C 241.257812 21.011719 241 19.917969 241 18.675781 C 241 17.449219 241.265625 16.371094 241.789062 15.433594 C 242.332031 14.484375 243.0625 13.761719 243.980469 13.265625 C 244.902344 12.753906 245.929688 12.5 247.070312 12.5 C 248.207031 12.5 249.238281 12.753906 250.15625 13.265625 C 251.078125 13.761719 251.800781 14.480469 252.324219 15.414062 C 252.867188 16.347656 253.136719 17.433594 253.136719 18.675781 C 253.136719 19.917969 252.859375 21.011719 252.304688 21.960938 C 251.761719 22.898438 251.027344 23.621094 250.089844 24.128906 C 249.15625 24.640625 248.121094 24.898438 246.980469 24.898438 Z M 246.980469 23.144531 C 247.695312 23.144531 248.367188 22.976562 248.996094 22.640625 C 249.625 22.304688 250.128906 21.800781 250.507812 21.128906 C 250.902344 20.457031 251.097656 19.640625 251.097656 18.675781 C 251.097656 17.714844 250.910156 16.894531 250.53125 16.222656 C 250.148438 15.550781 249.652344 15.054688 249.039062 14.734375 C 248.425781 14.398438 247.761719 14.230469 247.046875 14.230469 C 246.316406 14.230469 245.644531 14.398438 245.03125 14.734375 C 244.433594 15.054688 243.953125 15.550781 243.585938 16.222656 C 243.222656 16.894531 243.039062 17.714844 243.039062 18.675781 C 243.039062 19.65625 243.214844 20.480469 243.5625 21.152344 C 243.929688 21.824219 244.410156 22.328125 245.011719 22.664062 C 245.609375 22.984375 246.265625 23.144531 246.980469 23.144531 Z M 256.785156 10.746094 C 256.40625 10.746094 256.085938 10.617188 255.824219 10.351562 C 255.558594 10.089844 255.429688 9.769531 255.429688 9.390625 C 255.429688 9.011719 255.558594 8.6875 255.824219 8.425781 C 256.085938 8.164062 256.40625 8.03125 256.785156 8.03125 C 257.152344 8.03125 257.457031 8.164062 257.707031 8.425781 C 257.96875 8.6875 258.101562 9.011719 258.101562 9.390625 C 258.101562 9.769531 257.96875 10.089844 257.707031 10.351562 C 257.457031 10.617188 257.152344 10.746094 256.785156 10.746094 Z M 257.75 12.695312 L 257.75 24.699219 L 255.757812 24.699219 L 255.757812 12.695312 Z M 260.402344 18.65625 C 260.402344 17.429688 260.652344 16.355469 261.148438 15.433594 C 261.644531 14.5 262.324219 13.777344 263.183594 13.265625 C 264.058594 12.753906 265.039062 12.5 266.117188 12.5 C 267.054688 12.5 267.921875 12.71875 268.726562 13.15625 C 269.527344 13.582031 270.140625 14.144531 270.566406 14.84375 L 270.566406 8.492188 L 272.582031 8.492188 L 272.582031 24.699219 L 270.566406 24.699219 L 270.566406 22.445312 C 270.171875 23.160156 269.585938 23.75 268.8125 24.21875 C 268.039062 24.671875 267.132812 24.898438 266.097656 24.898438 C 265.03125 24.898438 264.058594 24.632812 263.183594 24.109375 C 262.324219 23.582031 261.644531 22.84375 261.148438 21.898438 C 260.652344 20.949219 260.402344 19.867188 260.402344 18.65625 Z M 270.566406 18.675781 C 270.566406 17.769531 270.382812 16.984375 270.019531 16.3125 C 269.652344 15.640625 269.15625 15.128906 268.527344 14.777344 C 267.914062 14.414062 267.234375 14.230469 266.492188 14.230469 C 265.746094 14.230469 265.066406 14.40625 264.453125 14.757812 C 263.839844 15.105469 263.351562 15.617188 262.988281 16.289062 C 262.621094 16.960938 262.4375 17.75 262.4375 18.65625 C 262.4375 19.574219 262.621094 20.378906 262.988281 21.0625 C 263.351562 21.734375 263.839844 22.253906 264.453125 22.621094 C 265.066406 22.96875 265.746094 23.144531 266.492188 23.144531 C 267.234375 23.144531 267.914062 22.96875 268.527344 22.621094 C 269.15625 22.253906 269.652344 21.734375 270.019531 21.0625 C 270.382812 20.378906 270.566406 19.582031 270.566406 18.675781 Z M 270.566406 18.675781 " fill-opacity="1" fill-rule="nonzero"/><g clip-path="url(#586fc5d0fd)"><path stroke-linecap="butt" transform="matrix(0.274446, 0, 0, 0.274446, 0.369303, 0)" fill="none" stroke-linejoin="miter" d="M 500.945477 511.955482 C 463.939048 554.683674 414.905529 585.285145 360.24988 599.774585 C 305.594231 614.264025 247.849968 611.944007 194.532243 593.141894 C 141.214519 574.354015 94.785683 539.923802 61.294865 494.377428 C 27.81828 448.81682 8.816902 394.232337 6.795781 337.726366 C 4.774661 281.220396 19.804965 225.411854 49.936738 177.573927 C 80.082744 129.736001 123.92113 92.089076 175.758597 69.515154 C 227.610298 46.955465 285.041429 40.507807 340.593773 51.040406 C 396.131883 61.573005 447.229222 88.587698 487.210399 128.568875 " stroke="#000000" stroke-width="11.375" stroke-opacity="1" stroke-miterlimit="4"/></g><path fill="#68789b" d="M 75.390625 30.917969 L 315.960938 30.917969 C 348.523438 30.917969 374.921875 57.316406 374.921875 89.882812 C 374.921875 122.445312 348.523438 148.84375 315.960938 148.84375 L 75.390625 148.84375 Z M 75.390625 30.917969 " fill-opacity="1" fill-rule="nonzero"/><path fill="#68789b" d="M 149.84375 89.917969 C 149.84375 91.070312 149.816406 92.222656 149.757812 93.375 C 149.703125 94.523438 149.617188 95.671875 149.503906 96.820312 C 149.390625 97.964844 149.25 99.109375 149.082031 100.25 C 148.914062 101.386719 148.714844 102.523438 148.492188 103.652344 C 148.265625 104.785156 148.015625 105.90625 147.734375 107.023438 C 147.453125 108.140625 147.148438 109.253906 146.8125 110.355469 C 146.476562 111.457031 146.117188 112.550781 145.730469 113.636719 C 145.339844 114.71875 144.925781 115.792969 144.484375 116.859375 C 144.042969 117.921875 143.578125 118.976562 143.085938 120.019531 C 142.59375 121.058594 142.074219 122.089844 141.53125 123.105469 C 140.988281 124.121094 140.421875 125.121094 139.828125 126.109375 C 139.234375 127.097656 138.621094 128.070312 137.980469 129.03125 C 137.339844 129.988281 136.675781 130.929688 135.992188 131.855469 C 135.304688 132.78125 134.59375 133.6875 133.863281 134.578125 C 133.132812 135.46875 132.382812 136.339844 131.609375 137.195312 C 130.835938 138.046875 130.039062 138.882812 129.226562 139.695312 C 128.410156 140.511719 127.578125 141.304688 126.722656 142.078125 C 125.871094 142.851562 124.996094 143.605469 124.105469 144.335938 C 123.214844 145.066406 122.308594 145.777344 121.382812 146.460938 C 120.457031 147.148438 119.515625 147.8125 118.558594 148.453125 C 117.601562 149.089844 116.625 149.707031 115.636719 150.300781 C 114.652344 150.890625 113.648438 151.460938 112.632812 152.003906 C 111.617188 152.546875 110.585938 153.0625 109.546875 153.558594 C 108.503906 154.050781 107.453125 154.515625 106.386719 154.957031 C 105.324219 155.398438 104.25 155.8125 103.164062 156.199219 C 102.078125 156.589844 100.984375 156.949219 99.882812 157.285156 C 98.78125 157.617188 97.671875 157.925781 96.554688 158.207031 C 95.433594 158.484375 94.3125 158.738281 93.179688 158.960938 C 92.050781 159.1875 90.917969 159.382812 89.777344 159.554688 C 88.636719 159.722656 87.496094 159.863281 86.347656 159.976562 C 85.203125 160.089844 84.054688 160.175781 82.902344 160.230469 C 81.75 160.289062 80.601562 160.316406 79.449219 160.316406 C 78.296875 160.316406 77.144531 160.289062 75.992188 160.230469 C 74.84375 160.175781 73.695312 160.089844 72.546875 159.976562 C 71.402344 159.863281 70.257812 159.722656 69.117188 159.554688 C 67.980469 159.382812 66.84375 159.1875 65.714844 158.960938 C 64.585938 158.738281 63.460938 158.484375 62.34375 158.207031 C 61.226562 157.925781 60.117188 157.617188 59.011719 157.285156 C 57.910156 156.949219 56.816406 156.589844 55.734375 156.199219 C 54.648438 155.8125 53.574219 155.398438 52.507812 154.957031 C 51.445312 154.515625 50.390625 154.050781 49.351562 153.558594 C 48.308594 153.0625 47.28125 152.546875 46.265625 152.003906 C 45.246094 151.460938 44.246094 150.890625 43.257812 150.300781 C 42.269531 149.707031 41.296875 149.089844 40.339844 148.453125 C 39.378906 147.8125 38.4375 147.148438 37.511719 146.460938 C 36.589844 145.777344 35.679688 145.066406 34.789062 144.335938 C 33.898438 143.605469 33.027344 142.851562 32.171875 142.078125 C 31.320312 141.304688 30.484375 140.511719 29.671875 139.695312 C 28.855469 138.882812 28.0625 138.046875 27.289062 137.195312 C 26.515625 136.339844 25.761719 135.46875 25.03125 134.578125 C 24.300781 133.6875 23.59375 132.78125 22.90625 131.855469 C 22.21875 130.929688 21.554688 129.988281 20.917969 129.03125 C 20.277344 128.070312 19.660156 127.097656 19.066406 126.109375 C 18.476562 125.121094 17.90625 124.121094 17.363281 123.105469 C 16.820312 122.089844 16.304688 121.058594 15.8125 120.019531 C 15.320312 118.976562 14.851562 117.921875 14.410156 116.859375 C 13.96875 115.792969 13.554688 114.71875 13.167969 113.636719 C 12.78125 112.550781 12.417969 111.457031 12.082031 110.355469 C 11.75 109.253906 11.441406 108.140625 11.164062 107.023438 C 10.882812 105.90625 10.628906 104.785156 10.40625 103.652344 C 10.179688 102.523438 9.984375 101.386719 9.8125 100.25 C 9.644531 99.109375 9.503906 97.964844 9.390625 96.820312 C 9.277344 95.671875 9.195312 94.523438 9.136719 93.375 C 9.082031 92.222656 9.050781 91.070312 9.050781 89.917969 C 9.050781 88.769531 9.082031 87.617188 9.136719 86.464844 C 9.195312 85.316406 9.277344 84.167969 9.390625 83.019531 C 9.503906 81.875 9.644531 80.730469 9.8125 79.589844 C 9.984375 78.449219 10.179688 77.316406 10.40625 76.1875 C 10.628906 75.054688 10.882812 73.933594 11.164062 72.816406 C 11.441406 71.699219 11.75 70.585938 12.082031 69.484375 C 12.417969 68.382812 12.78125 67.289062 13.167969 66.203125 C 13.554688 65.121094 13.96875 64.046875 14.410156 62.980469 C 14.851562 61.917969 15.320312 60.863281 15.8125 59.820312 C 16.304688 58.78125 16.820312 57.75 17.363281 56.734375 C 17.90625 55.71875 18.476562 54.71875 19.066406 53.730469 C 19.660156 52.742188 20.277344 51.769531 20.917969 50.808594 C 21.554688 49.851562 22.21875 48.910156 22.90625 47.984375 C 23.59375 47.058594 24.300781 46.152344 25.03125 45.261719 C 25.761719 44.371094 26.515625 43.5 27.289062 42.644531 C 28.0625 41.792969 28.855469 40.957031 29.671875 40.144531 C 30.484375 39.328125 31.320312 38.535156 32.171875 37.761719 C 33.027344 36.988281 33.898438 36.234375 34.789062 35.503906 C 35.679688 34.773438 36.589844 34.0625 37.511719 33.378906 C 38.4375 32.691406 39.378906 32.027344 40.339844 31.386719 C 41.296875 30.75 42.269531 30.132812 43.257812 29.539062 C 44.246094 28.949219 45.246094 28.378906 46.265625 27.835938 C 47.28125 27.292969 48.308594 26.777344 49.351562 26.28125 C 50.390625 25.789062 51.445312 25.324219 52.507812 24.882812 C 53.574219 24.441406 54.648438 24.027344 55.734375 23.640625 C 56.816406 23.25 57.910156 22.890625 59.011719 22.554688 C 60.117188 22.222656 61.226562 21.914062 62.34375 21.632812 C 63.460938 21.355469 64.585938 21.101562 65.714844 20.878906 C 66.84375 20.652344 67.980469 20.457031 69.117188 20.285156 C 70.257812 20.117188 71.402344 19.976562 72.546875 19.863281 C 73.695312 19.75 74.84375 19.664062 75.992188 19.609375 C 77.144531 19.550781 78.296875 19.523438 79.449219 19.523438 C 80.601562 19.523438 81.75 19.550781 82.902344 19.609375 C 84.054688 19.664062 85.203125 19.75 86.347656 19.863281 C 87.496094 19.976562 88.636719 20.117188 89.777344 20.285156 C 90.917969 20.457031 92.050781 20.652344 93.179688 20.878906 C 94.3125 21.101562 95.433594 21.355469 96.554688 21.632812 C 97.671875 21.914062 98.78125 22.222656 99.882812 22.554688 C 100.984375 22.890625 102.078125 23.25 103.164062 23.640625 C 104.25 24.027344 105.324219 24.441406 106.386719 24.882812 C 107.453125 25.324219 108.503906 25.789062 109.546875 26.28125 C 110.585938 26.777344 111.617188 27.292969 112.632812 27.835938 C 113.648438 28.378906 114.652344 28.949219 115.636719 29.539062 C 116.625 30.132812 117.601562 30.75 118.558594 31.386719 C 119.515625 32.027344 120.457031 32.691406 121.382812 33.378906 C 122.308594 34.0625 123.214844 34.773438 124.105469 35.503906 C 124.996094 36.234375 125.871094 36.988281 126.722656 37.761719 C 127.578125 38.535156 128.410156 39.328125 129.226562 40.144531 C 130.039062 40.957031 130.835938 41.792969 131.609375 42.644531 C 132.382812 43.5 133.132812 44.371094 133.863281 45.261719 C 134.59375 46.152344 135.304688 47.058594 135.992188 47.984375 C 136.675781 48.910156 137.339844 49.851562 137.980469 50.808594 C 138.621094 51.769531 139.234375 52.742188 139.828125 53.730469 C 140.421875 54.71875 140.988281 55.71875 141.53125 56.734375 C 142.074219 57.75 142.59375 58.78125 143.085938 59.820312 C 143.578125 60.863281 144.042969 61.917969 144.484375 62.980469 C 144.925781 64.046875 145.339844 65.121094 145.730469 66.203125 C 146.117188 67.289062 146.476562 68.382812 146.8125 69.484375 C 147.148438 70.585938 147.453125 71.699219 147.734375 72.816406 C 148.015625 73.933594 148.265625 75.054688 148.492188 76.1875 C 148.714844 77.316406 148.914062 78.449219 149.082031 79.589844 C 149.25 80.730469 149.390625 81.875 149.503906 83.019531 C 149.617188 84.167969 149.703125 85.316406 149.757812 86.464844 C 149.816406 87.617188 149.84375 88.769531 149.84375 89.917969 Z M 149.84375 89.917969 " fill-opacity="1" fill-rule="nonzero"/><path fill="#ffffff" d="M 63.328125 47.753906 L 95.4375 47.753906 C 95.800781 47.753906 96.15625 47.789062 96.511719 47.859375 C 96.863281 47.929688 97.207031 48.035156 97.539062 48.171875 C 97.871094 48.308594 98.1875 48.476562 98.488281 48.679688 C 98.789062 48.878906 99.066406 49.105469 99.320312 49.359375 C 99.574219 49.617188 99.804688 49.894531 100.003906 50.191406 C 100.203125 50.492188 100.371094 50.808594 100.511719 51.140625 C 100.648438 51.476562 100.753906 51.816406 100.824219 52.171875 C 100.894531 52.523438 100.929688 52.882812 100.929688 53.242188 L 100.929688 126.792969 C 100.929688 127.152344 100.894531 127.511719 100.824219 127.863281 C 100.753906 128.21875 100.648438 128.5625 100.511719 128.894531 C 100.371094 129.226562 100.203125 129.542969 100.003906 129.84375 C 99.804688 130.144531 99.574219 130.421875 99.320312 130.675781 C 99.066406 130.929688 98.789062 131.15625 98.488281 131.359375 C 98.1875 131.558594 97.871094 131.726562 97.539062 131.863281 C 97.207031 132.003906 96.863281 132.105469 96.511719 132.175781 C 96.15625 132.246094 95.800781 132.28125 95.4375 132.28125 L 63.328125 132.28125 C 62.96875 132.28125 62.613281 132.246094 62.257812 132.175781 C 61.90625 132.105469 61.5625 132.003906 61.230469 131.863281 C 60.894531 131.726562 60.578125 131.558594 60.28125 131.359375 C 59.980469 131.15625 59.703125 130.929688 59.449219 130.675781 C 59.191406 130.421875 58.964844 130.144531 58.765625 129.84375 C 58.566406 129.542969 58.394531 129.226562 58.257812 128.894531 C 58.121094 128.5625 58.015625 128.21875 57.945312 127.863281 C 57.875 127.511719 57.839844 127.152344 57.839844 126.792969 L 57.839844 53.242188 C 57.839844 52.882812 57.875 52.523438 57.945312 52.171875 C 58.015625 51.816406 58.121094 51.476562 58.257812 51.140625 C 58.394531 50.808594 58.566406 50.492188 58.765625 50.191406 C 58.964844 49.894531 59.191406 49.617188 59.449219 49.359375 C 59.703125 49.105469 59.980469 48.878906 60.28125 48.679688 C 60.578125 48.476562 60.894531 48.308594 61.230469 48.171875 C 61.5625 48.035156 61.90625 47.929688 62.257812 47.859375 C 62.613281 47.789062 62.96875 47.753906 63.328125 47.753906 Z M 63.328125 47.753906 " fill-opacity="1" fill-rule="nonzero"/><path fill="#68789b" d="M 65.800781 51.046875 L 92.96875 51.046875 C 93.328125 51.046875 93.6875 51.082031 94.039062 51.152344 C 94.394531 51.222656 94.738281 51.328125 95.070312 51.464844 C 95.402344 51.601562 95.71875 51.773438 96.019531 51.972656 C 96.320312 52.171875 96.597656 52.398438 96.851562 52.65625 C 97.105469 52.910156 97.332031 53.1875 97.535156 53.484375 C 97.734375 53.785156 97.902344 54.101562 98.039062 54.433594 C 98.179688 54.769531 98.28125 55.113281 98.351562 55.464844 C 98.421875 55.820312 98.457031 56.175781 98.457031 56.535156 L 98.457031 123.773438 C 98.457031 124.136719 98.421875 124.492188 98.351562 124.847656 C 98.28125 125.199219 98.179688 125.542969 98.039062 125.875 C 97.902344 126.207031 97.734375 126.523438 97.535156 126.824219 C 97.332031 127.125 97.105469 127.402344 96.851562 127.65625 C 96.597656 127.910156 96.320312 128.136719 96.019531 128.339844 C 95.71875 128.539062 95.402344 128.707031 95.070312 128.847656 C 94.738281 128.984375 94.394531 129.089844 94.039062 129.160156 C 93.6875 129.230469 93.328125 129.265625 92.96875 129.265625 L 65.800781 129.265625 C 65.4375 129.265625 65.082031 129.230469 64.726562 129.160156 C 64.375 129.089844 64.03125 128.984375 63.699219 128.847656 C 63.367188 128.707031 63.050781 128.539062 62.75 128.339844 C 62.449219 128.136719 62.171875 127.910156 61.917969 127.65625 C 61.664062 127.402344 61.4375 127.125 61.234375 126.824219 C 61.035156 126.523438 60.867188 126.207031 60.726562 125.875 C 60.589844 125.542969 60.484375 125.199219 60.414062 124.847656 C 60.34375 124.492188 60.308594 124.136719 60.308594 123.773438 L 60.308594 56.535156 C 60.308594 56.175781 60.34375 55.820312 60.414062 55.464844 C 60.484375 55.113281 60.589844 54.769531 60.726562 54.433594 C 60.867188 54.101562 61.035156 53.785156 61.234375 53.484375 C 61.4375 53.1875 61.664062 52.910156 61.917969 52.65625 C 62.171875 52.398438 62.449219 52.171875 62.75 51.972656 C 63.050781 51.773438 63.367188 51.601562 63.699219 51.464844 C 64.03125 51.328125 64.375 51.222656 64.726562 51.152344 C 65.082031 51.082031 65.4375 51.046875 65.800781 51.046875 Z M 65.800781 51.046875 " fill-opacity="1" fill-rule="nonzero"/><path fill="#ffffff" d="M 150.730469 61.027344 C 152.394531 61.027344 153.832031 61.34375 155.046875 61.972656 C 156.273438 62.585938 157.207031 63.46875 157.847656 64.621094 C 158.507812 65.773438 158.835938 67.132812 158.835938 68.695312 C 158.835938 70.257812 158.507812 71.617188 157.847656 72.769531 C 157.207031 73.910156 156.273438 74.785156 155.046875 75.398438 C 153.832031 75.996094 152.394531 76.296875 150.730469 76.296875 L 145.976562 76.296875 L 145.976562 61.027344 Z M 150.730469 74.652344 C 152.703125 74.652344 154.207031 74.136719 155.242188 73.097656 C 156.277344 72.046875 156.796875 70.578125 156.796875 68.695312 C 156.796875 66.796875 156.273438 65.316406 155.21875 64.25 C 154.183594 63.183594 152.6875 62.648438 150.730469 62.648438 L 147.96875 62.648438 L 147.96875 74.652344 Z M 166.699219 76.492188 C 165.574219 76.492188 164.550781 76.238281 163.632812 75.726562 C 162.726562 75.214844 162.011719 74.492188 161.484375 73.558594 C 160.972656 72.609375 160.71875 71.511719 160.71875 70.273438 C 160.71875 69.046875 160.980469 67.964844 161.507812 67.03125 C 162.046875 66.082031 162.777344 65.359375 163.699219 64.863281 C 164.617188 64.351562 165.648438 64.09375 166.785156 64.09375 C 167.925781 64.09375 168.953125 64.351562 169.875 64.863281 C 170.792969 65.359375 171.515625 66.074219 172.042969 67.007812 C 172.582031 67.945312 172.851562 69.03125 172.851562 70.273438 C 172.851562 71.511719 172.574219 72.609375 172.019531 73.558594 C 171.480469 74.492188 170.742188 75.214844 169.808594 75.726562 C 168.875 76.238281 167.835938 76.492188 166.699219 76.492188 Z M 166.699219 74.742188 C 167.414062 74.742188 168.085938 74.574219 168.714844 74.238281 C 169.339844 73.902344 169.84375 73.398438 170.226562 72.726562 C 170.617188 72.054688 170.816406 71.234375 170.816406 70.273438 C 170.816406 69.308594 170.625 68.492188 170.246094 67.820312 C 169.867188 67.148438 169.371094 66.652344 168.757812 66.328125 C 168.144531 65.992188 167.480469 65.824219 166.765625 65.824219 C 166.035156 65.824219 165.363281 65.992188 164.75 66.328125 C 164.152344 66.652344 163.667969 67.148438 163.304688 67.820312 C 162.9375 68.492188 162.757812 69.308594 162.757812 70.273438 C 162.757812 71.25 162.929688 72.074219 163.28125 72.746094 C 163.648438 73.417969 164.128906 73.921875 164.726562 74.257812 C 165.324219 74.578125 165.984375 74.742188 166.699219 74.742188 Z M 191.464844 64.292969 L 187.71875 76.296875 L 185.660156 76.296875 L 182.769531 66.769531 L 179.875 76.296875 L 177.816406 76.296875 L 174.050781 64.292969 L 176.085938 64.292969 L 178.847656 74.367188 L 181.824219 64.292969 L 183.863281 64.292969 L 186.777344 74.390625 L 189.492188 64.292969 Z M 199.289062 64.074219 C 200.75 64.074219 201.933594 64.519531 202.839844 65.410156 C 203.742188 66.285156 204.195312 67.554688 204.195312 69.222656 L 204.195312 76.296875 L 202.222656 76.296875 L 202.222656 69.503906 C 202.222656 68.308594 201.925781 67.394531 201.328125 66.769531 C 200.726562 66.125 199.910156 65.804688 198.875 65.804688 C 197.820312 65.804688 196.980469 66.132812 196.355469 66.789062 C 195.742188 67.445312 195.433594 68.402344 195.433594 69.660156 L 195.433594 76.296875 L 193.441406 76.296875 L 193.441406 64.292969 L 195.433594 64.292969 L 195.433594 66 C 195.828125 65.386719 196.363281 64.914062 197.035156 64.578125 C 197.71875 64.242188 198.472656 64.074219 199.289062 64.074219 Z M 209.445312 60.085938 L 209.445312 76.296875 L 207.453125 76.296875 L 207.453125 60.085938 Z M 218.078125 76.492188 C 216.953125 76.492188 215.929688 76.238281 215.011719 75.726562 C 214.105469 75.214844 213.390625 74.492188 212.863281 73.558594 C 212.351562 72.609375 212.097656 71.511719 212.097656 70.273438 C 212.097656 69.046875 212.359375 67.964844 212.886719 67.03125 C 213.425781 66.082031 214.15625 65.359375 215.074219 64.863281 C 215.996094 64.351562 217.027344 64.09375 218.164062 64.09375 C 219.304688 64.09375 220.332031 64.351562 221.253906 64.863281 C 222.171875 65.359375 222.894531 66.074219 223.421875 67.007812 C 223.960938 67.945312 224.230469 69.03125 224.230469 70.273438 C 224.230469 71.511719 223.953125 72.609375 223.398438 73.558594 C 222.859375 74.492188 222.121094 75.214844 221.1875 75.726562 C 220.253906 76.238281 219.214844 76.492188 218.078125 76.492188 Z M 218.078125 74.742188 C 218.792969 74.742188 219.464844 74.574219 220.09375 74.238281 C 220.71875 73.902344 221.222656 73.398438 221.601562 72.726562 C 221.996094 72.054688 222.195312 71.234375 222.195312 70.273438 C 222.195312 69.308594 222.003906 68.492188 221.625 67.820312 C 221.246094 67.148438 220.75 66.652344 220.136719 66.328125 C 219.523438 65.992188 218.859375 65.824219 218.144531 65.824219 C 217.414062 65.824219 216.742188 65.992188 216.128906 66.328125 C 215.527344 66.652344 215.046875 67.148438 214.683594 67.820312 C 214.316406 68.492188 214.132812 69.308594 214.132812 70.273438 C 214.132812 71.25 214.308594 72.074219 214.660156 72.746094 C 215.023438 73.417969 215.507812 73.921875 216.105469 74.257812 C 216.703125 74.578125 217.363281 74.742188 218.078125 74.742188 Z M 226.109375 70.25 C 226.109375 69.023438 226.355469 67.949219 226.851562 67.03125 C 227.347656 66.097656 228.027344 65.375 228.890625 64.863281 C 229.765625 64.351562 230.738281 64.09375 231.800781 64.09375 C 232.855469 64.09375 233.765625 64.320312 234.539062 64.773438 C 235.3125 65.226562 235.890625 65.796875 236.269531 66.484375 L 236.269531 64.292969 L 238.285156 64.292969 L 238.285156 76.296875 L 236.269531 76.296875 L 236.269531 74.0625 C 235.875 74.761719 235.285156 75.347656 234.496094 75.8125 C 233.722656 76.265625 232.816406 76.492188 231.78125 76.492188 C 230.714844 76.492188 229.75 76.230469 228.890625 75.703125 C 228.027344 75.179688 227.347656 74.441406 226.851562 73.492188 C 226.355469 72.542969 226.109375 71.460938 226.109375 70.25 Z M 236.269531 70.273438 C 236.269531 69.367188 236.089844 68.578125 235.722656 67.90625 C 235.359375 67.234375 234.863281 66.722656 234.234375 66.375 C 233.621094 66.007812 232.941406 65.824219 232.195312 65.824219 C 231.453125 65.824219 230.773438 66 230.160156 66.351562 C 229.546875 66.703125 229.058594 67.214844 228.691406 67.886719 C 228.328125 68.558594 228.144531 69.34375 228.144531 70.25 C 228.144531 71.171875 228.328125 71.972656 228.691406 72.660156 C 229.058594 73.332031 229.546875 73.851562 230.160156 74.214844 C 230.773438 74.566406 231.453125 74.742188 232.195312 74.742188 C 232.941406 74.742188 233.621094 74.566406 234.234375 74.214844 C 234.863281 73.851562 235.359375 73.332031 235.722656 72.660156 C 236.089844 71.972656 236.269531 71.175781 236.269531 70.273438 Z M 240.910156 70.25 C 240.910156 69.023438 241.15625 67.949219 241.652344 67.03125 C 242.152344 66.097656 242.828125 65.375 243.691406 64.863281 C 244.566406 64.351562 245.546875 64.09375 246.625 64.09375 C 247.5625 64.09375 248.429688 64.316406 249.234375 64.753906 C 250.035156 65.175781 250.648438 65.738281 251.074219 66.4375 L 251.074219 60.085938 L 253.085938 60.085938 L 253.085938 76.296875 L 251.074219 76.296875 L 251.074219 74.039062 C 250.679688 74.753906 250.09375 75.347656 249.320312 75.8125 C 248.546875 76.265625 247.640625 76.492188 246.605469 76.492188 C 245.539062 76.492188 244.566406 76.230469 243.691406 75.703125 C 242.828125 75.179688 242.152344 74.441406 241.652344 73.492188 C 241.15625 72.542969 240.910156 71.460938 240.910156 70.25 Z M 251.074219 70.273438 C 251.074219 69.367188 250.890625 68.578125 250.523438 67.90625 C 250.160156 67.234375 249.664062 66.722656 249.035156 66.375 C 248.421875 66.007812 247.742188 65.824219 247 65.824219 C 246.253906 65.824219 245.574219 66 244.960938 66.351562 C 244.347656 66.703125 243.859375 67.214844 243.492188 67.886719 C 243.128906 68.558594 242.945312 69.34375 242.945312 70.25 C 242.945312 71.171875 243.128906 71.972656 243.492188 72.660156 C 243.859375 73.332031 244.347656 73.851562 244.960938 74.214844 C 245.574219 74.566406 246.253906 74.742188 247 74.742188 C 247.742188 74.742188 248.421875 74.566406 249.035156 74.214844 C 249.664062 73.851562 250.160156 73.332031 250.523438 72.660156 C 250.890625 71.972656 251.074219 71.175781 251.074219 70.273438 Z M 264.726562 65.933594 L 264.726562 73.011719 C 264.726562 73.59375 264.851562 74.011719 265.097656 74.257812 C 265.347656 74.492188 265.777344 74.609375 266.390625 74.609375 L 267.859375 74.609375 L 267.859375 76.296875 L 266.0625 76.296875 C 264.953125 76.296875 264.121094 76.039062 263.566406 75.53125 C 263.011719 75.019531 262.734375 74.179688 262.734375 73.011719 L 262.734375 65.933594 L 261.179688 65.933594 L 261.179688 64.292969 L 262.734375 64.292969 L 262.734375 61.269531 L 264.726562 61.269531 L 264.726562 64.292969 L 267.859375 64.292969 L 267.859375 65.933594 Z M 276.230469 64.074219 C 277.136719 64.074219 277.953125 64.269531 278.683594 64.664062 C 279.414062 65.046875 279.984375 65.621094 280.394531 66.394531 C 280.816406 67.167969 281.027344 68.113281 281.027344 69.222656 L 281.027344 76.296875 L 279.058594 76.296875 L 279.058594 69.503906 C 279.058594 68.308594 278.757812 67.394531 278.15625 66.769531 C 277.558594 66.125 276.742188 65.804688 275.707031 65.804688 C 274.65625 65.804688 273.816406 66.132812 273.1875 66.789062 C 272.574219 67.445312 272.265625 68.402344 272.265625 69.660156 L 272.265625 76.296875 L 270.273438 76.296875 L 270.273438 60.085938 L 272.265625 60.085938 L 272.265625 66 C 272.660156 65.386719 273.203125 64.914062 273.886719 64.578125 C 274.589844 64.242188 275.371094 64.074219 276.230469 64.074219 Z M 295.238281 69.835938 C 295.238281 70.214844 295.214844 70.617188 295.171875 71.039062 L 285.574219 71.039062 C 285.648438 72.222656 286.050781 73.148438 286.78125 73.820312 C 287.523438 74.476562 288.425781 74.804688 289.476562 74.804688 C 290.335938 74.804688 291.050781 74.609375 291.621094 74.214844 C 292.207031 73.804688 292.617188 73.265625 292.847656 72.59375 L 294.996094 72.59375 C 294.671875 73.746094 294.03125 74.691406 293.066406 75.417969 C 292.101562 76.136719 290.90625 76.492188 289.476562 76.492188 C 288.335938 76.492188 287.3125 76.238281 286.40625 75.726562 C 285.519531 75.214844 284.820312 74.492188 284.304688 73.558594 C 283.792969 72.609375 283.539062 71.511719 283.539062 70.273438 C 283.539062 69.03125 283.785156 67.945312 284.285156 67.007812 C 284.78125 66.074219 285.472656 65.359375 286.367188 64.863281 C 287.269531 64.351562 288.304688 64.09375 289.476562 64.09375 C 290.613281 64.09375 291.621094 64.34375 292.496094 64.839844 C 293.371094 65.335938 294.046875 66.023438 294.511719 66.898438 C 294.996094 67.761719 295.238281 68.738281 295.238281 69.835938 Z M 293.179688 69.417969 C 293.179688 68.660156 293.007812 68.007812 292.671875 67.46875 C 292.339844 66.914062 291.878906 66.496094 291.292969 66.21875 C 290.722656 65.929688 290.085938 65.78125 289.386719 65.78125 C 288.378906 65.78125 287.519531 66.101562 286.800781 66.746094 C 286.101562 67.386719 285.699219 68.28125 285.597656 69.417969 Z M 293.179688 69.417969 " fill-opacity="1" fill-rule="nonzero"/><path fill="#ffffff" d="M 162.292969 109.921875 L 151.761719 109.921875 L 150.019531 114.957031 L 144.453125 114.957031 L 153.960938 88.480469 L 160.132812 88.480469 L 169.644531 114.957031 L 164.035156 114.957031 Z M 160.855469 105.675781 L 157.027344 94.617188 L 153.203125 105.675781 Z M 178.5 97.003906 C 179.183594 96.042969 180.117188 95.246094 181.304688 94.617188 C 182.515625 93.960938 183.890625 93.632812 185.433594 93.632812 C 187.226562 93.632812 188.839844 94.074219 190.28125 94.957031 C 191.746094 95.839844 192.894531 97.105469 193.726562 98.746094 C 194.585938 100.363281 195.015625 102.242188 195.015625 104.390625 C 195.015625 106.535156 194.585938 108.441406 193.726562 110.109375 C 192.894531 111.75 191.746094 113.027344 190.28125 113.933594 C 188.839844 114.84375 187.226562 115.300781 185.433594 115.300781 C 183.890625 115.300781 182.527344 114.984375 181.339844 114.351562 C 180.179688 113.722656 179.230469 112.925781 178.5 111.964844 L 178.5 124.957031 L 173.195312 124.957031 L 173.195312 93.972656 L 178.5 93.972656 Z M 189.597656 104.390625 C 189.597656 103.128906 189.332031 102.042969 188.804688 101.132812 C 188.296875 100.199219 187.617188 99.492188 186.757812 99.011719 C 185.925781 98.53125 185.015625 98.292969 184.03125 98.292969 C 183.070312 98.292969 182.160156 98.542969 181.304688 99.046875 C 180.46875 99.527344 179.789062 100.234375 179.257812 101.171875 C 178.753906 102.105469 178.5 103.203125 178.5 104.464844 C 178.5 105.726562 178.753906 106.828125 179.257812 107.761719 C 179.789062 108.695312 180.46875 109.414062 181.304688 109.921875 C 182.160156 110.398438 183.070312 110.640625 184.03125 110.640625 C 185.015625 110.640625 185.925781 110.386719 186.757812 109.882812 C 187.617188 109.378906 188.296875 108.65625 188.804688 107.722656 C 189.332031 106.789062 189.597656 105.675781 189.597656 104.390625 Z M 204.171875 97.003906 C 204.855469 96.042969 205.789062 95.246094 206.976562 94.617188 C 208.1875 93.960938 209.566406 93.632812 211.105469 93.632812 C 212.898438 93.632812 214.515625 94.074219 215.953125 94.957031 C 217.417969 95.839844 218.566406 97.105469 219.402344 98.746094 C 220.257812 100.363281 220.6875 102.242188 220.6875 104.390625 C 220.6875 106.535156 220.257812 108.441406 219.402344 110.109375 C 218.566406 111.75 217.417969 113.027344 215.953125 113.933594 C 214.515625 114.84375 212.898438 115.300781 211.105469 115.300781 C 209.566406 115.300781 208.199219 114.984375 207.015625 114.351562 C 205.851562 113.722656 204.90625 112.925781 204.171875 111.964844 L 204.171875 124.957031 L 198.871094 124.957031 L 198.871094 93.972656 L 204.171875 93.972656 Z M 215.273438 104.390625 C 215.273438 103.128906 215.007812 102.042969 214.476562 101.132812 C 213.972656 100.199219 213.289062 99.492188 212.429688 99.011719 C 211.597656 98.53125 210.6875 98.292969 209.703125 98.292969 C 208.742188 98.292969 207.835938 98.542969 206.976562 99.046875 C 206.144531 99.527344 205.460938 100.234375 204.929688 101.171875 C 204.425781 102.105469 204.171875 103.203125 204.171875 104.464844 C 204.171875 105.726562 204.425781 106.828125 204.929688 107.761719 C 205.460938 108.695312 206.144531 109.414062 206.976562 109.921875 C 207.835938 110.398438 208.742188 110.640625 209.703125 110.640625 C 210.6875 110.640625 211.597656 110.386719 212.429688 109.882812 C 213.289062 109.378906 213.972656 108.65625 214.476562 107.722656 C 215.007812 106.789062 215.273438 105.675781 215.273438 104.390625 Z M 256.183594 114.957031 L 250.878906 114.957031 L 238.871094 96.8125 L 238.871094 114.957031 L 233.570312 114.957031 L 233.570312 88.480469 L 238.871094 88.480469 L 250.878906 106.664062 L 250.878906 88.480469 L 256.183594 88.480469 Z M 270.742188 115.300781 C 268.722656 115.300781 266.902344 114.855469 265.289062 113.972656 C 263.671875 113.0625 262.394531 111.789062 261.460938 110.148438 C 260.554688 108.507812 260.097656 106.613281 260.097656 104.464844 C 260.097656 102.320312 260.566406 100.425781 261.5 98.785156 C 262.460938 97.140625 263.761719 95.878906 265.402344 94.996094 C 267.042969 94.085938 268.875 93.632812 270.894531 93.632812 C 272.914062 93.632812 274.746094 94.085938 276.386719 94.996094 C 278.027344 95.878906 279.316406 97.140625 280.25 98.785156 C 281.210938 100.425781 281.691406 102.320312 281.691406 104.464844 C 281.691406 106.613281 281.199219 108.507812 280.214844 110.148438 C 279.253906 111.789062 277.941406 113.0625 276.273438 113.972656 C 274.632812 114.855469 272.789062 115.300781 270.742188 115.300781 Z M 270.742188 110.679688 C 271.703125 110.679688 272.597656 110.449219 273.433594 109.996094 C 274.289062 109.515625 274.972656 108.808594 275.480469 107.875 C 275.984375 106.941406 276.238281 105.804688 276.238281 104.464844 C 276.238281 102.46875 275.703125 100.941406 274.644531 99.882812 C 273.609375 98.796875 272.332031 98.253906 270.820312 98.253906 C 269.304688 98.253906 268.027344 98.796875 266.992188 99.882812 C 265.980469 100.941406 265.476562 102.46875 265.476562 104.464844 C 265.476562 106.460938 265.96875 108 266.953125 109.085938 C 267.964844 110.148438 269.226562 110.679688 270.742188 110.679688 Z M 314.671875 93.972656 L 308.535156 114.957031 L 302.816406 114.957031 L 298.992188 100.296875 L 295.164062 114.957031 L 289.40625 114.957031 L 283.230469 93.972656 L 288.609375 93.972656 L 292.320312 109.957031 L 296.339844 93.972656 L 301.945312 93.972656 L 305.886719 109.921875 L 309.59375 93.972656 Z M 314.671875 93.972656 " fill-opacity="1" fill-rule="nonzero"/><g clip-path="url(#ba61dcee8a)"><path fill="#ffffff" d="M 167.601562 204.375 L 295.15625 204.375 C 295.699219 204.375 296.234375 204.425781 296.761719 204.53125 C 297.292969 204.636719 297.808594 204.792969 298.308594 205 C 298.804688 205.207031 299.28125 205.460938 299.730469 205.761719 C 300.179688 206.0625 300.59375 206.402344 300.976562 206.785156 C 301.359375 207.167969 301.699219 207.582031 302 208.03125 C 302.300781 208.480469 302.554688 208.957031 302.761719 209.457031 C 302.96875 209.953125 303.125 210.46875 303.230469 211 C 303.335938 211.527344 303.386719 212.0625 303.386719 212.605469 L 303.386719 266.097656 C 303.386719 266.636719 303.335938 267.171875 303.230469 267.703125 C 303.125 268.230469 302.96875 268.746094 302.761719 269.246094 C 302.554688 269.746094 302.300781 270.21875 302 270.667969 C 301.699219 271.117188 301.359375 271.535156 300.976562 271.914062 C 300.59375 272.296875 300.179688 272.636719 299.730469 272.9375 C 299.28125 273.238281 298.804688 273.492188 298.308594 273.699219 C 297.808594 273.90625 297.292969 274.0625 296.761719 274.167969 C 296.234375 274.273438 295.699219 274.324219 295.15625 274.324219 L 167.601562 274.324219 C 167.058594 274.324219 166.523438 274.273438 165.996094 274.167969 C 165.464844 274.0625 164.949219 273.90625 164.453125 273.699219 C 163.953125 273.492188 163.476562 273.238281 163.027344 272.9375 C 162.578125 272.636719 162.164062 272.296875 161.78125 271.914062 C 161.398438 271.535156 161.058594 271.117188 160.757812 270.667969 C 160.457031 270.21875 160.203125 269.746094 159.996094 269.246094 C 159.789062 268.746094 159.632812 268.230469 159.527344 267.703125 C 159.421875 267.171875 159.371094 266.636719 159.371094 266.097656 L 159.371094 212.605469 C 159.371094 212.0625 159.421875 211.527344 159.527344 211 C 159.632812 210.46875 159.789062 209.953125 159.996094 209.457031 C 160.203125 208.957031 160.457031 208.480469 160.757812 208.03125 C 161.058594 207.582031 161.398438 207.167969 161.78125 206.785156 C 162.164062 206.402344 162.578125 206.0625 163.027344 205.761719 C 163.476562 205.460938 163.953125 205.207031 164.453125 205 C 164.949219 204.792969 165.464844 204.636719 165.996094 204.53125 C 166.523438 204.425781 167.058594 204.375 167.601562 204.375 Z M 167.601562 204.375 " fill-opacity="1" fill-rule="nonzero"/></g><g clip-path="url(#668a0b4e17)"><path stroke-linecap="butt" transform="matrix(0.274317, 0, 0, 0.274317, 0.704041, 204.374987)" fill="none" stroke-linejoin="miter" d="M 500.017498 513.947534 C 463.007925 556.695798 413.979852 587.297404 359.327008 601.779411 C 304.674164 616.261417 246.931256 613.954549 193.602725 595.143604 C 140.274194 576.346899 93.852029 541.928993 60.373958 496.375463 C 26.881647 450.807693 7.899823 396.226048 5.863513 339.722014 C 3.841443 283.217979 18.878807 227.411701 49.010495 179.579782 C 79.156423 131.747864 123.001162 94.083254 174.8345 71.512968 C 226.682078 48.942682 284.111708 42.506234 339.661668 53.043781 C 395.211627 63.581328 446.304489 90.594472 486.275967 130.58019 " stroke="#000000" stroke-width="11.375" stroke-opacity="1" stroke-miterlimit="4"/></g><path fill="#68789b" d="M 75.433594 235.828125 L 315.890625 235.828125 C 348.441406 235.828125 374.824219 262.214844 374.824219 294.761719 C 374.824219 327.3125 348.441406 353.695312 315.890625 353.695312 L 75.433594 353.695312 Z M 75.433594 235.828125 " fill-opacity="1" fill-rule="nonzero"/><path fill="#68789b" d="M 149.859375 294.761719 C 149.859375 295.914062 149.832031 297.066406 149.777344 298.214844 C 149.71875 299.367188 149.636719 300.511719 149.523438 301.660156 C 149.410156 302.804688 149.269531 303.949219 149.097656 305.085938 C 148.929688 306.226562 148.734375 307.359375 148.507812 308.488281 C 148.285156 309.617188 148.03125 310.742188 147.753906 311.859375 C 147.472656 312.976562 147.164062 314.085938 146.832031 315.1875 C 146.496094 316.289062 146.136719 317.382812 145.746094 318.46875 C 145.359375 319.550781 144.945312 320.625 144.503906 321.6875 C 144.0625 322.753906 143.597656 323.804688 143.105469 324.847656 C 142.613281 325.886719 142.09375 326.914062 141.550781 327.929688 C 141.011719 328.945312 140.441406 329.949219 139.851562 330.9375 C 139.257812 331.925781 138.640625 332.894531 138.003906 333.855469 C 137.363281 334.8125 136.699219 335.753906 136.015625 336.675781 C 135.328125 337.601562 134.621094 338.511719 133.890625 339.398438 C 133.160156 340.289062 132.40625 341.160156 131.632812 342.015625 C 130.859375 342.867188 130.066406 343.703125 129.253906 344.515625 C 128.4375 345.332031 127.605469 346.125 126.75 346.898438 C 125.898438 347.671875 125.027344 348.421875 124.136719 349.152344 C 123.246094 349.882812 122.339844 350.59375 121.414062 351.277344 C 120.488281 351.964844 119.546875 352.628906 118.589844 353.265625 C 117.632812 353.90625 116.660156 354.523438 115.671875 355.113281 C 114.683594 355.707031 113.683594 356.273438 112.667969 356.816406 C 111.652344 357.359375 110.625 357.878906 109.582031 358.371094 C 108.542969 358.863281 107.488281 359.328125 106.425781 359.769531 C 105.359375 360.210938 104.289062 360.625 103.203125 361.011719 C 102.117188 361.398438 101.027344 361.761719 99.921875 362.09375 C 98.820312 362.429688 97.710938 362.738281 96.59375 363.015625 C 95.476562 363.296875 94.355469 363.546875 93.226562 363.773438 C 92.097656 363.996094 90.960938 364.195312 89.824219 364.363281 C 88.683594 364.53125 87.542969 364.671875 86.394531 364.785156 C 85.25 364.898438 84.101562 364.984375 82.949219 365.039062 C 81.800781 365.097656 80.648438 365.125 79.5 365.125 C 78.347656 365.125 77.195312 365.097656 76.046875 365.039062 C 74.894531 364.984375 73.746094 364.898438 72.601562 364.785156 C 71.457031 364.671875 70.3125 364.53125 69.175781 364.363281 C 68.035156 364.195312 66.902344 363.996094 65.769531 363.773438 C 64.640625 363.546875 63.519531 363.296875 62.402344 363.015625 C 61.285156 362.738281 60.175781 362.429688 59.074219 362.09375 C 57.972656 361.761719 56.878906 361.398438 55.792969 361.011719 C 54.710938 360.625 53.636719 360.210938 52.570312 359.769531 C 51.507812 359.328125 50.457031 358.863281 49.414062 358.371094 C 48.375 357.878906 47.34375 357.359375 46.328125 356.816406 C 45.3125 356.273438 44.3125 355.707031 43.324219 355.113281 C 42.335938 354.523438 41.363281 353.90625 40.40625 353.265625 C 39.449219 352.628906 38.507812 351.964844 37.582031 351.277344 C 36.660156 350.59375 35.75 349.882812 34.859375 349.152344 C 33.972656 348.421875 33.097656 347.671875 32.246094 346.898438 C 31.394531 346.125 30.558594 345.332031 29.746094 344.515625 C 28.929688 343.703125 28.136719 342.867188 27.363281 342.015625 C 26.589844 341.160156 25.839844 340.289062 25.109375 339.398438 C 24.378906 338.511719 23.667969 337.601562 22.984375 336.675781 C 22.296875 335.753906 21.632812 334.8125 20.996094 333.855469 C 20.355469 332.894531 19.738281 331.925781 19.148438 330.9375 C 18.554688 329.949219 17.988281 328.945312 17.445312 327.929688 C 16.902344 326.914062 16.382812 325.886719 15.890625 324.847656 C 15.398438 323.804688 14.933594 322.753906 14.492188 321.6875 C 14.050781 320.625 13.636719 319.550781 13.25 318.46875 C 12.859375 317.382812 12.5 316.289062 12.164062 315.1875 C 11.832031 314.085938 11.523438 312.976562 11.246094 311.859375 C 10.964844 310.742188 10.710938 309.617188 10.488281 308.488281 C 10.261719 307.359375 10.066406 306.226562 9.898438 305.085938 C 9.730469 303.949219 9.585938 302.804688 9.476562 301.660156 C 9.363281 300.511719 9.277344 299.367188 9.222656 298.214844 C 9.164062 297.066406 9.136719 295.914062 9.136719 294.761719 C 9.136719 293.609375 9.164062 292.460938 9.222656 291.308594 C 9.277344 290.160156 9.363281 289.011719 9.476562 287.867188 C 9.585938 286.71875 9.730469 285.578125 9.898438 284.4375 C 10.066406 283.300781 10.261719 282.164062 10.488281 281.035156 C 10.710938 279.90625 10.964844 278.78125 11.246094 277.664062 C 11.523438 276.550781 11.832031 275.4375 12.164062 274.335938 C 12.5 273.234375 12.859375 272.140625 13.25 271.058594 C 13.636719 269.972656 14.050781 268.898438 14.492188 267.835938 C 14.933594 266.773438 15.398438 265.71875 15.890625 264.679688 C 16.382812 263.636719 16.902344 262.609375 17.445312 261.59375 C 17.988281 260.578125 18.554688 259.578125 19.148438 258.589844 C 19.738281 257.601562 20.355469 256.628906 20.996094 255.671875 C 21.632812 254.714844 22.296875 253.773438 22.984375 252.847656 C 23.667969 251.921875 24.378906 251.015625 25.109375 250.125 C 25.839844 249.234375 26.589844 248.363281 27.363281 247.511719 C 28.136719 246.65625 28.929688 245.824219 29.746094 245.007812 C 30.558594 244.195312 31.394531 243.402344 32.246094 242.628906 C 33.097656 241.855469 33.972656 241.101562 34.859375 240.371094 C 35.75 239.640625 36.660156 238.933594 37.582031 238.246094 C 38.507812 237.5625 39.449219 236.898438 40.40625 236.257812 C 41.363281 235.617188 42.335938 235.003906 43.324219 234.410156 C 44.3125 233.820312 45.3125 233.25 46.328125 232.707031 C 47.34375 232.164062 48.375 231.648438 49.414062 231.15625 C 50.457031 230.664062 51.507812 230.195312 52.570312 229.757812 C 53.636719 229.316406 54.710938 228.902344 55.792969 228.511719 C 56.878906 228.125 57.972656 227.765625 59.074219 227.429688 C 60.175781 227.09375 61.285156 226.789062 62.402344 226.507812 C 63.519531 226.230469 64.640625 225.976562 65.769531 225.753906 C 66.902344 225.527344 68.035156 225.332031 69.175781 225.160156 C 70.3125 224.992188 71.457031 224.851562 72.601562 224.738281 C 73.746094 224.625 74.894531 224.542969 76.046875 224.484375 C 77.195312 224.429688 78.347656 224.398438 79.5 224.398438 C 80.648438 224.398438 81.800781 224.429688 82.949219 224.484375 C 84.101562 224.542969 85.25 224.625 86.394531 224.738281 C 87.542969 224.851562 88.683594 224.992188 89.824219 225.160156 C 90.960938 225.332031 92.097656 225.527344 93.226562 225.753906 C 94.355469 225.976562 95.476562 226.230469 96.59375 226.507812 C 97.710938 226.789062 98.820312 227.09375 99.921875 227.429688 C 101.027344 227.765625 102.117188 228.125 103.203125 228.511719 C 104.289062 228.902344 105.359375 229.316406 106.425781 229.757812 C 107.488281 230.195312 108.542969 230.664062 109.582031 231.15625 C 110.625 231.648438 111.652344 232.164062 112.667969 232.707031 C 113.683594 233.25 114.683594 233.820312 115.671875 234.410156 C 116.660156 235.003906 117.632812 235.617188 118.589844 236.257812 C 119.546875 236.898438 120.488281 237.5625 121.414062 238.246094 C 122.339844 238.933594 123.246094 239.640625 124.136719 240.371094 C 125.027344 241.101562 125.898438 241.855469 126.75 242.628906 C 127.605469 243.402344 128.4375 244.195312 129.253906 245.007812 C 130.066406 245.824219 130.859375 246.65625 131.632812 247.511719 C 132.40625 248.363281 133.160156 249.234375 133.890625 250.125 C 134.621094 251.015625 135.328125 251.921875 136.015625 252.847656 C 136.699219 253.773438 137.363281 254.714844 138.003906 255.671875 C 138.640625 256.628906 139.257812 257.601562 139.851562 258.589844 C 140.441406 259.578125 141.011719 260.578125 141.550781 261.59375 C 142.09375 262.609375 142.613281 263.636719 143.105469 264.679688 C 143.597656 265.71875 144.0625 266.773438 144.503906 267.835938 C 144.945312 268.898438 145.359375 269.972656 145.746094 271.058594 C 146.136719 272.140625 146.496094 273.234375 146.832031 274.335938 C 147.164062 275.4375 147.472656 276.550781 147.753906 277.664062 C 148.03125 278.78125 148.285156 279.90625 148.507812 281.035156 C 148.734375 282.164062 148.929688 283.300781 149.097656 284.4375 C 149.269531 285.578125 149.410156 286.71875 149.523438 287.867188 C 149.636719 289.011719 149.71875 290.160156 149.777344 291.308594 C 149.832031 292.460938 149.859375 293.609375 149.859375 294.761719 Z M 149.859375 294.761719 " fill-opacity="1" fill-rule="nonzero"/><path fill="#ffffff" d="M 157.933594 265.859375 C 159.597656 265.859375 161.035156 266.171875 162.246094 266.800781 C 163.472656 267.414062 164.40625 268.296875 165.050781 269.449219 C 165.707031 270.601562 166.035156 271.960938 166.035156 273.523438 C 166.035156 275.082031 165.707031 276.441406 165.050781 277.59375 C 164.40625 278.730469 163.472656 279.609375 162.246094 280.222656 C 161.035156 280.820312 159.597656 281.117188 157.933594 281.117188 L 153.183594 281.117188 L 153.183594 265.859375 Z M 157.933594 279.476562 C 159.902344 279.476562 161.40625 278.957031 162.445312 277.921875 C 163.480469 276.871094 164 275.40625 164 273.523438 C 164 271.625 163.472656 270.144531 162.421875 269.078125 C 161.386719 268.011719 159.890625 267.480469 157.933594 267.480469 L 155.175781 267.480469 L 155.175781 279.476562 Z M 173.894531 281.316406 C 172.769531 281.316406 171.75 281.058594 170.828125 280.550781 C 169.925781 280.039062 169.210938 279.316406 168.683594 278.382812 C 168.171875 277.433594 167.917969 276.339844 167.917969 275.097656 C 167.917969 273.871094 168.179688 272.792969 168.707031 271.859375 C 169.246094 270.910156 169.976562 270.1875 170.894531 269.691406 C 171.816406 269.179688 172.84375 268.925781 173.980469 268.925781 C 175.121094 268.925781 176.148438 269.179688 177.070312 269.691406 C 177.988281 270.1875 178.710938 270.902344 179.234375 271.835938 C 179.777344 272.769531 180.046875 273.859375 180.046875 275.097656 C 180.046875 276.339844 179.769531 277.433594 179.214844 278.382812 C 178.675781 279.316406 177.9375 280.039062 177.003906 280.550781 C 176.070312 281.058594 175.03125 281.316406 173.894531 281.316406 Z M 173.894531 279.5625 C 174.609375 279.5625 175.28125 279.398438 175.910156 279.0625 C 176.535156 278.726562 177.039062 278.222656 177.417969 277.550781 C 177.8125 276.878906 178.011719 276.0625 178.011719 275.097656 C 178.011719 274.136719 177.820312 273.316406 177.441406 272.644531 C 177.0625 271.976562 176.566406 271.480469 175.953125 271.15625 C 175.339844 270.820312 174.675781 270.652344 173.960938 270.652344 C 173.230469 270.652344 172.558594 270.820312 171.945312 271.15625 C 171.347656 271.480469 170.867188 271.976562 170.5 272.644531 C 170.136719 273.316406 169.953125 274.136719 169.953125 275.097656 C 169.953125 276.074219 170.128906 276.902344 170.480469 277.570312 C 170.84375 278.242188 171.324219 278.746094 171.925781 279.082031 C 172.523438 279.402344 173.179688 279.5625 173.894531 279.5625 Z M 198.648438 269.121094 L 194.902344 281.117188 L 192.847656 281.117188 L 189.957031 271.59375 L 187.066406 281.117188 L 185.007812 281.117188 L 181.242188 269.121094 L 183.277344 269.121094 L 186.039062 279.191406 L 189.015625 269.121094 L 191.050781 269.121094 L 193.960938 279.214844 L 196.675781 269.121094 Z M 206.46875 268.902344 C 207.929688 268.902344 209.113281 269.347656 210.015625 270.238281 C 210.921875 271.113281 211.375 272.382812 211.375 274.046875 L 211.375 281.117188 L 209.402344 281.117188 L 209.402344 274.332031 C 209.402344 273.136719 209.105469 272.222656 208.507812 271.59375 C 207.90625 270.953125 207.089844 270.632812 206.054688 270.632812 C 205.003906 270.632812 204.164062 270.960938 203.535156 271.617188 C 202.921875 272.273438 202.617188 273.230469 202.617188 274.484375 L 202.617188 281.117188 L 200.625 281.117188 L 200.625 269.121094 L 202.617188 269.121094 L 202.617188 270.828125 C 203.011719 270.214844 203.542969 269.742188 204.214844 269.40625 C 204.902344 269.070312 205.652344 268.902344 206.46875 268.902344 Z M 216.621094 264.917969 L 216.621094 281.117188 L 214.628906 281.117188 L 214.628906 264.917969 Z M 225.25 281.316406 C 224.125 281.316406 223.101562 281.058594 222.183594 280.550781 C 221.277344 280.039062 220.5625 279.316406 220.039062 278.382812 C 219.527344 277.433594 219.273438 276.339844 219.273438 275.097656 C 219.273438 273.871094 219.535156 272.792969 220.058594 271.859375 C 220.601562 270.910156 221.328125 270.1875 222.25 269.691406 C 223.167969 269.179688 224.199219 268.925781 225.335938 268.925781 C 226.476562 268.925781 227.503906 269.179688 228.421875 269.691406 C 229.34375 270.1875 230.066406 270.902344 230.589844 271.835938 C 231.128906 272.769531 231.402344 273.859375 231.402344 275.097656 C 231.402344 276.339844 231.125 277.433594 230.570312 278.382812 C 230.027344 279.316406 229.292969 280.039062 228.359375 280.550781 C 227.421875 281.058594 226.386719 281.316406 225.25 281.316406 Z M 225.25 279.5625 C 225.964844 279.5625 226.636719 279.398438 227.261719 279.0625 C 227.890625 278.726562 228.394531 278.222656 228.773438 277.550781 C 229.167969 276.878906 229.363281 276.0625 229.363281 275.097656 C 229.363281 274.136719 229.175781 273.316406 228.796875 272.644531 C 228.414062 271.976562 227.917969 271.480469 227.304688 271.15625 C 226.695312 270.820312 226.03125 270.652344 225.316406 270.652344 C 224.585938 270.652344 223.914062 270.820312 223.300781 271.15625 C 222.703125 271.480469 222.21875 271.976562 221.855469 272.644531 C 221.492188 273.316406 221.308594 274.136719 221.308594 275.097656 C 221.308594 276.074219 221.484375 276.902344 221.832031 277.570312 C 222.199219 278.242188 222.679688 278.746094 223.277344 279.082031 C 223.875 279.402344 224.535156 279.5625 225.25 279.5625 Z M 233.277344 275.078125 C 233.277344 273.851562 233.523438 272.777344 234.019531 271.859375 C 234.515625 270.925781 235.195312 270.203125 236.054688 269.691406 C 236.933594 269.179688 237.902344 268.925781 238.96875 268.925781 C 240.019531 268.925781 240.929688 269.152344 241.703125 269.601562 C 242.476562 270.054688 243.054688 270.625 243.433594 271.3125 L 243.433594 269.121094 L 245.449219 269.121094 L 245.449219 281.117188 L 243.433594 281.117188 L 243.433594 278.886719 C 243.039062 279.585938 242.449219 280.171875 241.660156 280.636719 C 240.886719 281.089844 239.980469 281.316406 238.945312 281.316406 C 237.878906 281.316406 236.917969 281.054688 236.054688 280.527344 C 235.195312 280.003906 234.515625 279.265625 234.019531 278.316406 C 233.523438 277.367188 233.277344 276.289062 233.277344 275.078125 Z M 243.433594 275.097656 C 243.433594 274.191406 243.25 273.40625 242.886719 272.734375 C 242.523438 272.0625 242.027344 271.550781 241.398438 271.203125 C 240.785156 270.835938 240.105469 270.652344 239.363281 270.652344 C 238.617188 270.652344 237.9375 270.828125 237.324219 271.179688 C 236.714844 271.53125 236.222656 272.039062 235.859375 272.710938 C 235.496094 273.382812 235.3125 274.171875 235.3125 275.078125 C 235.3125 275.996094 235.496094 276.796875 235.859375 277.484375 C 236.222656 278.15625 236.714844 278.675781 237.324219 279.039062 C 237.9375 279.390625 238.617188 279.5625 239.363281 279.5625 C 240.105469 279.5625 240.785156 279.390625 241.398438 279.039062 C 242.027344 278.675781 242.523438 278.15625 242.886719 277.484375 C 243.25 276.796875 243.433594 276.003906 243.433594 275.097656 Z M 248.070312 275.078125 C 248.070312 273.851562 248.320312 272.777344 248.816406 271.859375 C 249.3125 270.925781 249.988281 270.203125 250.851562 269.691406 C 251.726562 269.179688 252.703125 268.925781 253.785156 268.925781 C 254.71875 268.925781 255.585938 269.144531 256.390625 269.582031 C 257.191406 270.003906 257.804688 270.566406 258.230469 271.265625 L 258.230469 264.917969 L 260.242188 264.917969 L 260.242188 281.117188 L 258.230469 281.117188 L 258.230469 278.863281 C 257.835938 279.578125 257.25 280.171875 256.476562 280.636719 C 255.703125 281.089844 254.800781 281.316406 253.761719 281.316406 C 252.699219 281.316406 251.726562 281.054688 250.851562 280.527344 C 249.988281 280.003906 249.3125 279.265625 248.816406 278.316406 C 248.320312 277.367188 248.070312 276.289062 248.070312 275.078125 Z M 258.230469 275.097656 C 258.230469 274.191406 258.046875 273.40625 257.679688 272.734375 C 257.316406 272.0625 256.820312 271.550781 256.191406 271.203125 C 255.578125 270.835938 254.902344 270.652344 254.15625 270.652344 C 253.414062 270.652344 252.734375 270.828125 252.121094 271.179688 C 251.507812 271.53125 251.019531 272.039062 250.652344 272.710938 C 250.289062 273.382812 250.105469 274.171875 250.105469 275.078125 C 250.105469 275.996094 250.289062 276.796875 250.652344 277.484375 C 251.019531 278.15625 251.507812 278.675781 252.121094 279.039062 C 252.734375 279.390625 253.414062 279.5625 254.15625 279.5625 C 254.902344 279.5625 255.578125 279.390625 256.191406 279.039062 C 256.820312 278.675781 257.316406 278.15625 257.679688 277.484375 C 258.046875 276.796875 258.230469 276.003906 258.230469 275.097656 Z M 271.875 270.761719 L 271.875 277.835938 C 271.875 278.417969 272 278.835938 272.25 279.082031 C 272.496094 279.316406 272.925781 279.433594 273.539062 279.433594 L 275.007812 279.433594 L 275.007812 281.117188 L 273.210938 281.117188 C 272.101562 281.117188 271.269531 280.863281 270.714844 280.351562 C 270.160156 279.839844 269.882812 279.003906 269.882812 277.835938 L 269.882812 270.761719 L 268.328125 270.761719 L 268.328125 269.121094 L 269.882812 269.121094 L 269.882812 266.101562 L 271.875 266.101562 L 271.875 269.121094 L 275.007812 269.121094 L 275.007812 270.761719 Z M 283.375 268.902344 C 284.28125 268.902344 285.097656 269.097656 285.828125 269.492188 C 286.558594 269.871094 287.125 270.449219 287.535156 271.222656 C 287.960938 271.996094 288.171875 272.9375 288.171875 274.046875 L 288.171875 281.117188 L 286.199219 281.117188 L 286.199219 274.332031 C 286.199219 273.136719 285.898438 272.222656 285.300781 271.59375 C 284.703125 270.953125 283.886719 270.632812 282.851562 270.632812 C 281.800781 270.632812 280.960938 270.960938 280.335938 271.617188 C 279.71875 272.273438 279.414062 273.230469 279.414062 274.484375 L 279.414062 281.117188 L 277.421875 281.117188 L 277.421875 264.917969 L 279.414062 264.917969 L 279.414062 270.828125 C 279.808594 270.214844 280.347656 269.742188 281.035156 269.40625 C 281.734375 269.070312 282.515625 268.902344 283.375 268.902344 Z M 302.371094 274.660156 C 302.371094 275.039062 302.347656 275.441406 302.308594 275.863281 L 292.71875 275.863281 C 292.789062 277.046875 293.191406 277.972656 293.921875 278.644531 C 294.664062 279.300781 295.5625 279.628906 296.613281 279.628906 C 297.472656 279.628906 298.191406 279.433594 298.761719 279.039062 C 299.339844 278.628906 299.75 278.089844 299.984375 277.417969 L 302.132812 277.417969 C 301.808594 278.570312 301.167969 279.511719 300.203125 280.242188 C 299.238281 280.957031 298.042969 281.316406 296.613281 281.316406 C 295.472656 281.316406 294.453125 281.058594 293.546875 280.550781 C 292.660156 280.039062 291.957031 279.316406 291.445312 278.382812 C 290.9375 277.433594 290.679688 276.339844 290.679688 275.097656 C 290.679688 273.859375 290.929688 272.769531 291.425781 271.835938 C 291.921875 270.902344 292.617188 270.1875 293.503906 269.691406 C 294.410156 269.179688 295.445312 268.925781 296.613281 268.925781 C 297.75 268.925781 298.761719 269.171875 299.636719 269.667969 C 300.511719 270.164062 301.183594 270.851562 301.648438 271.726562 C 302.132812 272.585938 302.371094 273.566406 302.371094 274.660156 Z M 300.3125 274.246094 C 300.3125 273.484375 300.144531 272.835938 299.8125 272.296875 C 299.472656 271.742188 299.015625 271.324219 298.429688 271.046875 C 297.859375 270.757812 297.226562 270.609375 296.527344 270.609375 C 295.519531 270.609375 294.660156 270.929688 293.941406 271.574219 C 293.242188 272.214844 292.839844 273.105469 292.738281 274.246094 Z M 300.3125 274.246094 " fill-opacity="1" fill-rule="nonzero"/><path fill="#68789b" d="M 216.234375 215.117188 C 215.851562 215.117188 215.53125 214.988281 215.269531 214.722656 C 215.007812 214.460938 214.875 214.140625 214.875 213.761719 C 214.875 213.378906 215.007812 213.058594 215.269531 212.796875 C 215.53125 212.535156 215.851562 212.402344 216.234375 212.402344 C 216.597656 212.402344 216.902344 212.535156 217.152344 212.796875 C 217.414062 213.058594 217.546875 213.378906 217.546875 213.761719 C 217.546875 214.140625 217.414062 214.460938 217.152344 214.722656 C 216.902344 214.988281 216.597656 215.117188 216.234375 215.117188 Z M 217.195312 217.066406 L 217.195312 229.0625 L 215.203125 229.0625 L 215.203125 217.066406 Z M 227.511719 229.214844 C 226.09375 229.214844 224.800781 228.886719 223.632812 228.230469 C 222.46875 227.558594 221.539062 226.632812 220.855469 225.449219 C 220.183594 224.253906 219.847656 222.910156 219.847656 221.421875 C 219.847656 219.933594 220.183594 218.597656 220.855469 217.417969 C 221.539062 216.21875 222.46875 215.292969 223.632812 214.636719 C 224.800781 213.964844 226.09375 213.628906 227.511719 213.628906 C 228.941406 213.628906 230.238281 213.964844 231.40625 214.636719 C 232.574219 215.292969 233.492188 216.210938 234.164062 217.394531 C 234.835938 218.578125 235.171875 219.917969 235.171875 221.421875 C 235.171875 222.925781 234.835938 224.269531 234.164062 225.449219 C 233.492188 226.632812 232.574219 227.558594 231.40625 228.230469 C 230.238281 228.886719 228.941406 229.214844 227.511719 229.214844 Z M 227.511719 227.488281 C 228.574219 227.488281 229.53125 227.238281 230.378906 226.742188 C 231.238281 226.246094 231.910156 225.539062 232.390625 224.621094 C 232.886719 223.699219 233.136719 222.632812 233.136719 221.421875 C 233.136719 220.195312 232.886719 219.132812 232.390625 218.226562 C 231.910156 217.308594 231.246094 216.597656 230.398438 216.101562 C 229.554688 215.605469 228.589844 215.359375 227.511719 215.359375 C 226.429688 215.359375 225.464844 215.605469 224.621094 216.101562 C 223.773438 216.597656 223.101562 217.308594 222.605469 218.226562 C 222.125 219.132812 221.882812 220.195312 221.882812 221.421875 C 221.882812 222.632812 222.125 223.699219 222.605469 224.621094 C 223.101562 225.539062 223.773438 226.246094 224.621094 226.742188 C 225.480469 227.238281 226.445312 227.488281 227.511719 227.488281 Z M 242.640625 229.214844 C 241.632812 229.214844 240.730469 229.042969 239.925781 228.691406 C 239.136719 228.328125 238.519531 227.832031 238.066406 227.203125 C 237.613281 226.558594 237.378906 225.824219 237.363281 224.992188 L 239.488281 224.992188 C 239.5625 225.707031 239.851562 226.3125 240.363281 226.808594 C 240.890625 227.289062 241.648438 227.53125 242.640625 227.53125 C 243.589844 227.53125 244.332031 227.296875 244.875 226.832031 C 245.429688 226.347656 245.707031 225.734375 245.707031 224.992188 C 245.707031 224.40625 245.546875 223.933594 245.222656 223.570312 C 244.902344 223.203125 244.5 222.925781 244.019531 222.738281 C 243.539062 222.546875 242.890625 222.34375 242.070312 222.125 C 241.0625 221.859375 240.253906 221.597656 239.640625 221.335938 C 239.042969 221.074219 238.523438 220.664062 238.085938 220.109375 C 237.664062 219.539062 237.453125 218.78125 237.453125 217.832031 C 237.453125 217 237.664062 216.261719 238.085938 215.621094 C 238.511719 214.980469 239.101562 214.484375 239.859375 214.132812 C 240.632812 213.78125 241.515625 213.605469 242.507812 213.605469 C 243.941406 213.605469 245.105469 213.964844 246.011719 214.679688 C 246.933594 215.394531 247.449219 216.34375 247.566406 217.527344 L 245.378906 217.527344 C 245.304688 216.941406 244.996094 216.429688 244.457031 215.992188 C 243.917969 215.539062 243.203125 215.316406 242.3125 215.316406 C 241.480469 215.316406 240.800781 215.535156 240.277344 215.972656 C 239.75 216.394531 239.488281 216.992188 239.488281 217.765625 C 239.488281 218.320312 239.640625 218.773438 239.949219 219.125 C 240.269531 219.472656 240.65625 219.746094 241.109375 219.933594 C 241.574219 220.109375 242.226562 220.3125 243.058594 220.546875 C 244.0625 220.824219 244.875 221.101562 245.488281 221.378906 C 246.101562 221.640625 246.625 222.058594 247.0625 222.628906 C 247.5 223.179688 247.71875 223.941406 247.71875 224.902344 C 247.71875 225.648438 247.523438 226.347656 247.128906 227.003906 C 246.734375 227.664062 246.152344 228.195312 245.378906 228.605469 C 244.605469 229.011719 243.691406 229.214844 242.640625 229.214844 Z M 242.640625 229.214844 " fill-opacity="1" fill-rule="nonzero"/><path fill="#ffffff" d="M 169.21875 314.726562 L 158.691406 314.726562 L 156.949219 319.761719 L 151.382812 319.761719 L 160.886719 293.296875 L 167.058594 293.296875 L 176.5625 319.761719 L 170.960938 319.761719 Z M 167.777344 310.488281 L 163.953125 299.429688 L 160.132812 310.488281 Z M 185.417969 301.816406 C 186.097656 300.855469 187.03125 300.0625 188.21875 299.429688 C 189.429688 298.773438 190.804688 298.445312 192.34375 298.445312 C 194.136719 298.445312 195.753906 298.886719 197.191406 299.773438 C 198.65625 300.65625 199.804688 301.917969 200.636719 303.558594 C 201.496094 305.171875 201.925781 307.054688 201.925781 309.199219 C 201.925781 311.34375 201.496094 313.25 200.636719 314.917969 C 199.804688 316.558594 198.65625 317.832031 197.191406 318.742188 C 195.753906 319.648438 194.136719 320.105469 192.34375 320.105469 C 190.804688 320.105469 189.441406 319.789062 188.257812 319.15625 C 187.09375 318.527344 186.148438 317.730469 185.417969 316.773438 L 185.417969 329.757812 L 180.117188 329.757812 L 180.117188 298.789062 L 185.417969 298.789062 Z M 196.511719 309.199219 C 196.511719 307.9375 196.246094 306.851562 195.714844 305.941406 C 195.210938 305.007812 194.527344 304.300781 193.671875 303.824219 C 192.835938 303.34375 191.929688 303.101562 190.945312 303.101562 C 189.984375 303.101562 189.078125 303.355469 188.21875 303.859375 C 187.386719 304.339844 186.703125 305.046875 186.171875 305.980469 C 185.667969 306.914062 185.417969 308.011719 185.417969 309.273438 C 185.417969 310.539062 185.667969 311.636719 186.171875 312.570312 C 186.703125 313.503906 187.386719 314.222656 188.21875 314.726562 C 189.078125 315.207031 189.984375 315.445312 190.945312 315.445312 C 191.929688 315.445312 192.835938 315.195312 193.671875 314.691406 C 194.527344 314.183594 195.210938 313.464844 195.714844 312.53125 C 196.246094 311.597656 196.511719 310.488281 196.511719 309.199219 Z M 211.078125 301.816406 C 211.757812 300.855469 212.691406 300.0625 213.878906 299.429688 C 215.089844 298.773438 216.464844 298.445312 218.007812 298.445312 C 219.796875 298.445312 221.414062 298.886719 222.851562 299.773438 C 224.316406 300.65625 225.464844 301.917969 226.296875 303.558594 C 227.15625 305.171875 227.585938 307.054688 227.585938 309.199219 C 227.585938 311.34375 227.15625 313.25 226.296875 314.917969 C 225.464844 316.558594 224.316406 317.832031 222.851562 318.742188 C 221.414062 319.648438 219.796875 320.105469 218.007812 320.105469 C 216.464844 320.105469 215.101562 319.789062 213.917969 319.15625 C 212.753906 318.527344 211.808594 317.730469 211.078125 316.773438 L 211.078125 329.757812 L 205.777344 329.757812 L 205.777344 298.789062 L 211.078125 298.789062 Z M 222.171875 309.199219 C 222.171875 307.9375 221.90625 306.851562 221.375 305.941406 C 220.871094 305.007812 220.1875 304.300781 219.332031 303.824219 C 218.5 303.34375 217.589844 303.101562 216.605469 303.101562 C 215.644531 303.101562 214.738281 303.355469 213.878906 303.859375 C 213.046875 304.339844 212.363281 305.046875 211.835938 305.980469 C 211.328125 306.914062 211.078125 308.011719 211.078125 309.273438 C 211.078125 310.539062 211.328125 311.636719 211.835938 312.570312 C 212.363281 313.503906 213.046875 314.222656 213.878906 314.726562 C 214.738281 315.207031 215.644531 315.445312 216.605469 315.445312 C 217.589844 315.445312 218.5 315.195312 219.332031 314.691406 C 220.1875 314.183594 220.871094 313.464844 221.375 312.53125 C 221.90625 311.597656 222.171875 310.488281 222.171875 309.199219 Z M 263.0625 319.761719 L 257.761719 319.761719 L 245.757812 301.625 L 245.757812 319.761719 L 240.460938 319.761719 L 240.460938 293.296875 L 245.757812 293.296875 L 257.761719 311.472656 L 257.761719 293.296875 L 263.0625 293.296875 Z M 277.617188 320.105469 C 275.597656 320.105469 273.777344 319.660156 272.164062 318.777344 C 270.546875 317.871094 269.273438 316.59375 268.339844 314.953125 C 267.429688 313.3125 266.976562 311.421875 266.976562 309.273438 C 266.976562 307.128906 267.441406 305.234375 268.378906 303.59375 C 269.335938 301.953125 270.636719 300.691406 272.277344 299.808594 C 273.917969 298.902344 275.746094 298.445312 277.765625 298.445312 C 279.785156 298.445312 281.617188 298.902344 283.253906 299.808594 C 284.898438 300.691406 286.183594 301.953125 287.117188 303.59375 C 288.078125 305.234375 288.558594 307.128906 288.558594 309.273438 C 288.558594 311.421875 288.066406 313.3125 287.082031 314.953125 C 286.121094 316.59375 284.808594 317.871094 283.144531 318.777344 C 281.503906 319.660156 279.660156 320.105469 277.617188 320.105469 Z M 277.617188 315.484375 C 278.574219 315.484375 279.46875 315.257812 280.304688 314.804688 C 281.164062 314.324219 281.84375 313.617188 282.347656 312.683594 C 282.851562 311.75 283.105469 310.613281 283.105469 309.273438 C 283.105469 307.28125 282.574219 305.753906 281.515625 304.695312 C 280.480469 303.609375 279.207031 303.066406 277.691406 303.066406 C 276.175781 303.066406 274.902344 303.609375 273.867188 304.695312 C 272.859375 305.753906 272.351562 307.28125 272.351562 309.273438 C 272.351562 311.269531 272.84375 312.808594 273.828125 313.894531 C 274.839844 314.953125 276.101562 315.484375 277.617188 315.484375 Z M 321.527344 298.789062 L 315.390625 319.761719 L 309.671875 319.761719 L 305.847656 305.109375 L 302.023438 319.761719 L 296.269531 319.761719 L 290.101562 298.789062 L 295.476562 298.789062 L 299.183594 314.765625 L 303.199219 298.789062 L 308.804688 298.789062 L 312.738281 314.726562 L 316.449219 298.789062 Z M 321.527344 298.789062 " fill-opacity="1" fill-rule="nonzero"/><path fill="#ffffff" d="M 63.449219 252.65625 L 95.546875 252.65625 C 95.90625 252.65625 96.261719 252.691406 96.617188 252.761719 C 96.96875 252.832031 97.3125 252.933594 97.644531 253.074219 C 97.976562 253.210938 98.292969 253.378906 98.59375 253.578125 C 98.894531 253.78125 99.171875 254.007812 99.425781 254.261719 C 99.679688 254.515625 99.90625 254.792969 100.109375 255.09375 C 100.308594 255.390625 100.476562 255.707031 100.613281 256.042969 C 100.753906 256.375 100.855469 256.71875 100.925781 257.070312 C 100.996094 257.425781 101.03125 257.78125 101.03125 258.140625 L 101.03125 331.65625 C 101.03125 332.019531 100.996094 332.375 100.925781 332.726562 C 100.855469 333.082031 100.753906 333.425781 100.613281 333.757812 C 100.476562 334.089844 100.308594 334.40625 100.109375 334.707031 C 99.90625 335.003906 99.679688 335.28125 99.425781 335.539062 C 99.171875 335.792969 98.894531 336.019531 98.59375 336.21875 C 98.292969 336.417969 97.976562 336.589844 97.644531 336.726562 C 97.3125 336.863281 96.96875 336.96875 96.617188 337.039062 C 96.261719 337.109375 95.90625 337.144531 95.546875 337.144531 L 63.449219 337.144531 C 63.089844 337.144531 62.734375 337.109375 62.378906 337.039062 C 62.027344 336.96875 61.683594 336.863281 61.351562 336.726562 C 61.019531 336.589844 60.703125 336.417969 60.402344 336.21875 C 60.101562 336.019531 59.824219 335.792969 59.570312 335.539062 C 59.316406 335.28125 59.089844 335.003906 58.890625 334.707031 C 58.6875 334.40625 58.519531 334.089844 58.382812 333.757812 C 58.242188 333.425781 58.140625 333.082031 58.070312 332.726562 C 58 332.375 57.964844 332.019531 57.964844 331.65625 L 57.964844 258.140625 C 57.964844 257.78125 58 257.425781 58.070312 257.070312 C 58.140625 256.71875 58.242188 256.375 58.382812 256.042969 C 58.519531 255.707031 58.6875 255.390625 58.890625 255.09375 C 59.089844 254.792969 59.316406 254.515625 59.570312 254.261719 C 59.824219 254.007812 60.101562 253.78125 60.402344 253.578125 C 60.703125 253.378906 61.019531 253.210938 61.351562 253.074219 C 61.683594 252.933594 62.027344 252.832031 62.378906 252.761719 C 62.734375 252.691406 63.089844 252.65625 63.449219 252.65625 Z M 63.449219 252.65625 " fill-opacity="1" fill-rule="nonzero"/><path fill="#68789b" d="M 65.917969 255.671875 L 93.078125 255.671875 C 93.4375 255.671875 93.792969 255.707031 94.148438 255.777344 C 94.5 255.847656 94.84375 255.953125 95.175781 256.089844 C 95.507812 256.226562 95.824219 256.398438 96.125 256.597656 C 96.425781 256.796875 96.703125 257.023438 96.957031 257.277344 C 97.210938 257.535156 97.4375 257.8125 97.636719 258.109375 C 97.839844 258.410156 98.007812 258.726562 98.144531 259.058594 C 98.285156 259.390625 98.386719 259.734375 98.457031 260.089844 C 98.527344 260.441406 98.5625 260.796875 98.5625 261.160156 L 98.5625 328.367188 C 98.5625 328.726562 98.527344 329.082031 98.457031 329.4375 C 98.386719 329.789062 98.285156 330.132812 98.144531 330.464844 C 98.007812 330.796875 97.839844 331.113281 97.636719 331.414062 C 97.4375 331.714844 97.210938 331.992188 96.957031 332.246094 C 96.703125 332.5 96.425781 332.726562 96.125 332.929688 C 95.824219 333.128906 95.507812 333.296875 95.175781 333.433594 C 94.84375 333.574219 94.5 333.675781 94.148438 333.746094 C 93.792969 333.816406 93.4375 333.851562 93.078125 333.851562 L 65.917969 333.851562 C 65.558594 333.851562 65.203125 333.816406 64.847656 333.746094 C 64.496094 333.675781 64.152344 333.574219 63.820312 333.433594 C 63.488281 333.296875 63.171875 333.128906 62.871094 332.929688 C 62.570312 332.726562 62.292969 332.5 62.039062 332.246094 C 61.785156 331.992188 61.558594 331.714844 61.359375 331.414062 C 61.15625 331.113281 60.988281 330.796875 60.851562 330.464844 C 60.714844 330.132812 60.609375 329.789062 60.539062 329.4375 C 60.46875 329.082031 60.433594 328.726562 60.433594 328.367188 L 60.433594 261.160156 C 60.433594 260.796875 60.46875 260.441406 60.539062 260.089844 C 60.609375 259.734375 60.714844 259.390625 60.851562 259.058594 C 60.988281 258.726562 61.15625 258.410156 61.359375 258.109375 C 61.558594 257.8125 61.785156 257.535156 62.039062 257.277344 C 62.292969 257.023438 62.570312 256.796875 62.871094 256.597656 C 63.171875 256.398438 63.488281 256.226562 63.820312 256.089844 C 64.152344 255.953125 64.496094 255.847656 64.847656 255.777344 C 65.203125 255.707031 65.558594 255.671875 65.917969 255.671875 Z M 65.917969 255.671875 " fill-opacity="1" fill-rule="nonzero"/><path fill="#ffffff" d="M 73.1875 253.476562 L 85.808594 253.476562 C 86.117188 253.476562 86.414062 253.535156 86.699219 253.65625 C 86.984375 253.773438 87.238281 253.941406 87.457031 254.160156 C 87.675781 254.378906 87.84375 254.632812 87.960938 254.917969 C 88.078125 255.203125 88.140625 255.5 88.140625 255.808594 C 88.140625 256.117188 88.078125 256.414062 87.960938 256.703125 C 87.84375 256.988281 87.675781 257.238281 87.457031 257.457031 C 87.238281 257.675781 86.984375 257.84375 86.699219 257.964844 C 86.414062 258.082031 86.117188 258.140625 85.808594 258.140625 L 73.1875 258.140625 C 72.878906 258.140625 72.582031 258.082031 72.296875 257.964844 C 72.011719 257.84375 71.757812 257.675781 71.539062 257.457031 C 71.320312 257.238281 71.152344 256.988281 71.035156 256.703125 C 70.917969 256.414062 70.855469 256.117188 70.855469 255.808594 C 70.855469 255.5 70.917969 255.203125 71.035156 254.917969 C 71.152344 254.632812 71.320312 254.378906 71.539062 254.160156 C 71.757812 253.941406 72.011719 253.773438 72.296875 253.65625 C 72.582031 253.535156 72.878906 253.476562 73.1875 253.476562 Z M 73.1875 253.476562 " fill-opacity="1" fill-rule="nonzero"/></svg>