<svg xmlns="http://www.w3.org/2000/svg" xmlns:xlink="http://www.w3.org/1999/xlink" width="500" zoomAndPan="magnify" viewBox="0 0 375 374.999991" height="500" preserveAspectRatio="xMidYMid meet" version="1.0"><path fill="#ffffff" d="M 117.871094 231.472656 C 85.128906 231.472656 58.496094 258.109375 58.496094 290.847656 C 58.496094 323.589844 85.128906 350.226562 117.871094 350.226562 C 150.609375 350.226562 177.246094 323.589844 177.246094 290.847656 C 177.246094 258.109375 150.609375 231.472656 117.871094 231.472656 Z M 117.871094 310.226562 C 107.167969 310.226562 98.492188 301.550781 98.492188 290.851562 C 98.492188 280.148438 107.167969 271.472656 117.871094 271.472656 C 128.574219 271.472656 137.25 280.148438 137.25 290.851562 C 137.25 301.550781 128.574219 310.226562 117.871094 310.226562 Z M 117.871094 310.226562 " fill-opacity="1" fill-rule="nonzero"/><path fill="#ffffff" d="M 243.578125 303.664062 L 206.136719 303.664062 C 205.117188 310.691406 203.285156 317.457031 200.726562 323.859375 L 243.578125 323.859375 C 244.859375 323.859375 245.902344 322.816406 245.902344 321.535156 L 245.902344 305.988281 C 245.902344 304.707031 244.859375 303.664062 243.578125 303.664062 Z M 243.578125 303.664062 " fill-opacity="1" fill-rule="nonzero"/><path fill="#ffffff" d="M 50.019531 109.914062 L 65.152344 218.957031 C 79.929688 208.089844 98.164062 201.660156 117.871094 201.660156 L 186.371094 201.660156 C 188.066406 201.660156 189.4375 203.03125 189.4375 204.726562 L 189.4375 237.683594 C 194.132812 243.988281 198.015625 250.929688 200.929688 258.355469 L 200.929688 198.441406 C 200.929688 193.878906 197.21875 190.167969 192.65625 190.167969 L 75.648438 190.167969 C 74.113281 190.167969 72.8125 189.027344 72.609375 187.503906 L 60.550781 96.484375 C 60.089844 93.003906 57.09375 90.378906 53.582031 90.378906 L 2.789062 90.378906 C 1.277344 90.378906 0.046875 91.609375 0.046875 93.121094 L 0.046875 104.527344 C 0.046875 106.039062 1.277344 107.269531 2.789062 107.269531 L 46.984375 107.269531 C 48.515625 107.269531 49.8125 108.398438 50.019531 109.914062 Z M 50.019531 109.914062 " fill-opacity="1" fill-rule="nonzero"/><path fill="#ffffff" d="M 117.871094 207.789062 C 72.070312 207.789062 34.8125 245.050781 34.8125 290.847656 C 34.8125 336.648438 72.070312 373.910156 117.871094 373.910156 C 163.667969 373.910156 200.929688 336.648438 200.929688 290.851562 C 200.929688 245.050781 163.667969 207.789062 117.871094 207.789062 Z M 117.871094 356.355469 C 81.75 356.355469 52.363281 326.96875 52.363281 290.847656 C 52.363281 254.730469 81.75 225.34375 117.871094 225.34375 C 153.988281 225.34375 183.375 254.730469 183.375 290.847656 C 183.375 326.96875 153.988281 356.355469 117.871094 356.355469 Z M 117.871094 356.355469 " fill-opacity="1" fill-rule="nonzero"/><path fill="#ffffff" d="M 373.449219 363.496094 C 372.535156 361.941406 370.761719 361.5 369.78125 361.375 C 367.832031 361.128906 365.582031 361.648438 363.613281 362.804688 C 361.644531 363.964844 360.09375 365.671875 359.359375 367.5 C 358.992188 368.414062 358.511719 370.175781 359.425781 371.730469 C 360.335938 373.285156 362.113281 373.726562 363.089844 373.851562 C 365.039062 374.097656 367.289062 373.578125 369.257812 372.417969 C 373.058594 370.1875 374.976562 366.097656 373.449219 363.496094 Z M 373.449219 363.496094 " fill-opacity="1" fill-rule="nonzero"/><path fill="#ffffff" d="M 289.882812 221.230469 L 228.398438 116.558594 C 226.867188 113.953125 222.363281 113.636719 218.5625 115.871094 C 216.59375 117.027344 215.042969 118.738281 214.308594 120.5625 C 213.941406 121.476562 213.460938 123.242188 214.375 124.796875 L 275.867188 229.484375 C 277.191406 227.175781 279.210938 225.082031 281.816406 223.550781 C 284.355469 222.058594 287.15625 221.269531 289.882812 221.230469 Z M 289.882812 221.230469 " fill-opacity="1" fill-rule="nonzero"/><path fill="#ffffff" d="M 211.339844 93.226562 C 209.683594 93.226562 207.839844 93.714844 206.136719 94.71875 C 202.335938 96.949219 200.417969 101.035156 201.949219 103.644531 L 209.503906 116.5 C 210.863281 114.140625 212.917969 112.078125 215.457031 110.585938 C 218.0625 109.054688 220.875 108.308594 223.535156 108.28125 L 215.972656 95.40625 C 215.128906 93.96875 213.378906 93.226562 211.339844 93.226562 Z M 211.339844 93.226562 " fill-opacity="1" fill-rule="nonzero"/><path fill="#ffffff" d="M 302.308594 242.386719 L 294.753906 229.527344 C 293.84375 227.972656 292.066406 227.53125 291.089844 227.40625 C 289.140625 227.160156 286.890625 227.679688 284.921875 228.835938 C 281.121094 231.070312 279.203125 235.15625 280.730469 237.761719 L 288.285156 250.621094 C 289.648438 248.257812 291.699219 246.195312 294.242188 244.707031 C 296.78125 243.214844 299.582031 242.425781 302.308594 242.386719 Z M 302.308594 242.386719 " fill-opacity="1" fill-rule="nonzero"/><path fill="#ffffff" d="M 368.574219 355.199219 L 307.179688 250.679688 C 306.265625 249.125 304.492188 248.683594 303.515625 248.558594 C 301.5625 248.3125 299.3125 248.832031 297.34375 249.992188 C 295.375 251.148438 293.824219 252.859375 293.089844 254.683594 C 292.722656 255.597656 292.242188 257.363281 293.15625 258.914062 L 354.554688 363.4375 C 355.914062 361.074219 357.96875 359.011719 360.507812 357.519531 C 363.046875 356.027344 365.847656 355.238281 368.574219 355.199219 Z M 368.574219 355.199219 " fill-opacity="1" fill-rule="nonzero"/><path fill="#ffffff" d="M 327.769531 60.503906 C 342.273438 52.355469 341.378906 24.90625 341.042969 14.574219 L 341.035156 14.335938 C 340.902344 10.191406 339.921875 5.664062 335.175781 2.828125 L 304.429688 66.785156 C 312.433594 66.453125 321.121094 64.234375 327.769531 60.503906 Z M 327.769531 60.503906 " fill-opacity="1" fill-rule="nonzero"/><path fill="#ffffff" d="M 292.230469 65.542969 C 293.921875 66.039062 295.773438 66.378906 297.722656 66.589844 L 329.398438 0.703125 C 327.230469 0.253906 324.667969 0 321.632812 0 C 320.5 0 319.382812 0.0117188 318.277344 0.0273438 L 287.726562 63.582031 C 289.175781 64.5 290.820312 65.128906 292.230469 65.542969 Z M 292.230469 65.542969 " fill-opacity="1" fill-rule="nonzero"/><path fill="#ffffff" d="M 196.558594 60.503906 C 198.511719 61.601562 200.644531 62.566406 202.882812 63.394531 L 232.027344 2.769531 C 229.207031 2.019531 225.621094 1.398438 221.464844 0.9375 L 193.773438 58.539062 C 194.636719 59.273438 195.558594 59.941406 196.558594 60.503906 Z M 196.558594 60.503906 " fill-opacity="1" fill-rule="nonzero"/><path fill="#ffffff" d="M 214.933594 0.375 C 211.132812 0.128906 207.019531 0 202.695312 0 C 185.910156 0 183.507812 7.660156 183.292969 14.335938 L 183.285156 14.574219 C 183.019531 22.789062 182.40625 41.820312 189.457031 53.371094 Z M 214.933594 0.375 " fill-opacity="1" fill-rule="nonzero"/><path fill="#ffffff" d="M 232.097656 65.542969 C 234.746094 64.761719 238.210938 63.246094 239.683594 60.457031 C 242.078125 55.921875 243.484375 52.035156 244.730469 48.605469 C 246.359375 44.109375 247.644531 40.554688 250.375 38.121094 C 254.183594 34.726562 261.296875 34.472656 262.097656 34.453125 C 262.140625 34.453125 262.1875 34.453125 262.234375 34.453125 C 263.03125 34.472656 270.144531 34.726562 273.953125 38.121094 C 276.683594 40.554688 277.972656 44.109375 279.601562 48.605469 C 280.632812 51.453125 281.785156 54.617188 283.511719 58.199219 L 311.367188 0.257812 C 299.527344 0.875 290.390625 2.566406 286.949219 4.90625 C 283.246094 7.425781 277.351562 15.59375 275.390625 18.53125 C 274.609375 19.703125 273.128906 20.191406 271.800781 19.714844 C 271.753906 19.699219 266.875 17.96875 262.164062 17.96875 C 257.453125 17.96875 252.574219 19.699219 252.523438 19.714844 C 251.199219 20.191406 249.71875 19.703125 248.9375 18.53125 C 247.03125 15.675781 241.402344 7.875 237.691406 5.136719 L 208.820312 65.191406 C 216.953125 67.183594 225.648438 67.441406 232.097656 65.542969 Z M 232.097656 65.542969 " fill-opacity="1" fill-rule="nonzero"/><path fill="#ffffff" d="M 167.839844 126.328125 C 168.59375 126.460938 169.324219 126.523438 170.03125 126.523438 C 177.105469 126.523438 182.007812 120.324219 186.378906 114.792969 C 189.425781 110.941406 192.578125 106.957031 195.953125 105.644531 C 197.53125 105.035156 198.3125 103.257812 197.703125 101.679688 C 197.089844 100.101562 195.3125 99.316406 193.734375 99.933594 C 188.800781 101.847656 185.125 106.496094 181.570312 110.992188 C 176.59375 117.285156 173.261719 121.050781 168.890625 120.289062 C 167.039062 119.96875 165.734375 118.679688 165.011719 116.460938 C 163.578125 112.054688 164.871094 104.757812 170.117188 99.335938 C 176.054688 93.203125 185.292969 91.554688 196.132812 94.699219 C 197.761719 95.167969 199.460938 94.234375 199.933594 92.609375 C 200.402344 90.984375 199.46875 89.28125 197.839844 88.8125 C 180.128906 83.675781 170.109375 90.53125 165.710938 95.074219 C 159.496094 101.496094 156.8125 111.070312 159.183594 118.359375 C 160.601562 122.714844 163.757812 125.621094 167.839844 126.328125 Z M 167.839844 126.328125 " fill-opacity="1" fill-rule="nonzero"/></svg>