<svg xmlns="http://www.w3.org/2000/svg" xmlns:xlink="http://www.w3.org/1999/xlink" width="500" zoomAndPan="magnify" viewBox="0 0 375 374.999991" height="500" preserveAspectRatio="xMidYMid meet" version="1.0"><path fill="#ffffff" d="M 36.804688 187.734375 C 36.804688 166.847656 41.007812 146.636719 49.296875 127.660156 L 37.828125 122.652344 C 28.84375 143.21875 24.289062 165.113281 24.289062 187.734375 C 24.289062 230.074219 40.46875 270.171875 69.847656 300.648438 L 78.855469 291.960938 C 51.738281 263.832031 36.804688 226.816406 36.804688 187.734375 " fill-opacity="1" fill-rule="nonzero"/><path fill="#ffffff" d="M 348.0625 114.671875 L 341.601562 108.214844 L 332.753906 117.066406 L 339.210938 123.523438 C 329.941406 131.113281 318.457031 136.105469 305.890625 137.355469 L 305.890625 125.15625 L 293.375 125.15625 L 293.375 137.355469 C 280.808594 136.105469 269.324219 131.113281 260.054688 123.523438 L 266.507812 117.066406 L 257.660156 108.214844 L 251.203125 114.671875 C 243.609375 105.402344 238.621094 93.917969 237.367188 81.351562 L 249.570312 81.351562 L 249.570312 68.835938 L 237.367188 68.835938 C 238.621094 56.269531 243.609375 44.785156 251.203125 35.515625 L 257.660156 41.972656 L 266.507812 33.121094 L 260.054688 26.664062 C 269.324219 19.074219 280.808594 14.082031 293.375 12.832031 L 293.375 25.03125 L 305.890625 25.03125 L 305.890625 12.832031 C 318.457031 14.082031 329.941406 19.074219 339.210938 26.664062 L 332.753906 33.121094 L 341.601562 41.972656 L 348.0625 35.515625 C 355.652344 44.785156 360.644531 56.269531 361.894531 68.835938 L 349.695312 68.835938 L 349.695312 81.351562 L 361.894531 81.351562 C 360.644531 93.917969 355.652344 105.402344 348.0625 114.671875 Z M 299.632812 0 C 258.226562 0 224.539062 33.6875 224.539062 75.09375 C 224.539062 116.5 258.226562 150.1875 299.632812 150.1875 C 341.039062 150.1875 374.726562 116.5 374.726562 75.09375 C 374.726562 33.6875 341.039062 0 299.632812 0 " fill-opacity="1" fill-rule="nonzero"/><path fill="#ffffff" d="M 293.375 72.503906 L 276.433594 89.441406 L 285.28125 98.292969 L 304.054688 79.519531 C 305.230469 78.34375 305.890625 76.753906 305.890625 75.09375 L 305.890625 37.546875 L 293.375 37.546875 L 293.375 72.503906 " fill-opacity="1" fill-rule="nonzero"/><path fill="#ffffff" d="M 16.757812 94.558594 L 13.277344 63.269531 C 13.082031 61.476562 13.632812 59.75 14.835938 58.402344 C 16.039062 57.058594 17.695312 56.320312 19.496094 56.320312 L 36.804688 56.320312 C 38.882812 56.320312 40.820312 55.289062 41.984375 53.570312 C 43.152344 51.851562 43.386719 49.664062 42.613281 47.738281 L 36.964844 33.613281 C 36.179688 31.652344 36.410156 29.527344 37.59375 27.78125 C 38.773438 26.035156 40.664062 25.03125 42.773438 25.03125 L 45.773438 25.03125 L 62.726562 53.28125 C 63.859375 55.164062 65.894531 56.320312 68.09375 56.320312 L 86.867188 56.320312 L 86.867188 87.609375 L 68.09375 87.609375 C 66.433594 87.609375 64.84375 88.269531 63.667969 89.441406 L 54.820312 98.292969 C 53.636719 99.472656 52.0625 100.125 50.390625 100.125 L 22.972656 100.125 C 19.78125 100.125 17.109375 97.734375 16.757812 94.558594 Z M 99.382812 50.0625 L 124.414062 50.0625 L 124.414062 100.125 L 99.382812 100.125 Z M 63.667969 107.140625 L 70.683594 100.125 L 86.867188 100.125 L 86.867188 106.382812 C 86.867188 109.839844 89.667969 112.640625 93.125 112.640625 L 130.671875 112.640625 C 134.128906 112.640625 136.929688 109.839844 136.929688 106.382812 L 136.929688 43.804688 C 136.929688 40.347656 134.128906 37.546875 130.671875 37.546875 L 93.125 37.546875 C 89.667969 37.546875 86.867188 40.347656 86.867188 43.804688 L 71.632812 43.804688 L 54.683594 15.554688 C 53.554688 13.671875 51.515625 12.515625 49.320312 12.515625 L 42.773438 12.515625 C 36.539062 12.515625 30.726562 15.597656 27.226562 20.765625 C 23.730469 25.929688 23.027344 32.472656 25.34375 38.261719 L 27.5625 43.804688 L 19.496094 43.804688 C 14.164062 43.804688 9.066406 46.085938 5.507812 50.054688 C 1.953125 54.03125 0.25 59.351562 0.839844 64.648438 L 4.316406 95.9375 C 5.375 105.460938 13.394531 112.640625 22.972656 112.640625 L 50.390625 112.640625 C 55.40625 112.640625 60.121094 110.6875 63.667969 107.140625 " fill-opacity="1" fill-rule="nonzero"/><path fill="#ffffff" d="M 161.960938 275.34375 C 158.503906 275.34375 155.703125 278.144531 155.703125 281.601562 C 155.703125 298.015625 168.40625 311.519531 184.5 312.792969 L 172.714844 324.574219 L 113.25 306.277344 C 108.265625 299.007812 105.640625 290.542969 105.640625 281.601562 C 105.640625 257.445312 125.289062 237.796875 149.445312 237.796875 C 171.472656 237.796875 189.746094 254.144531 192.792969 275.34375 Z M 210.1875 277.175781 C 209.015625 276.003906 207.425781 275.34375 205.765625 275.34375 L 205.410156 275.34375 C 202.285156 247.222656 178.382812 225.28125 149.445312 225.28125 C 118.390625 225.28125 93.125 250.546875 93.125 281.601562 C 93.125 288.835938 94.535156 295.984375 97.210938 302.632812 C 91.476562 303.003906 86.039062 305.980469 82.742188 310.925781 L 75.402344 321.933594 C 74.363281 323.496094 74.074219 325.441406 74.621094 327.234375 C 75.167969 329.027344 76.492188 330.476562 78.226562 331.195312 L 184.609375 375 C 185.375 375.3125 186.183594 375.46875 186.992188 375.46875 C 187.949219 375.46875 188.910156 375.25 189.789062 374.808594 L 226.015625 356.695312 L 287.117188 356.695312 L 287.117188 344.179688 L 224.539062 344.179688 C 223.566406 344.179688 222.605469 344.40625 221.738281 344.839844 L 186.742188 362.339844 L 90.050781 322.523438 L 93.15625 317.867188 C 94.679688 315.582031 97.578125 314.550781 100.203125 315.355469 L 172.636719 337.644531 C 174.851562 338.328125 177.261719 337.730469 178.898438 336.089844 L 203.929688 311.058594 C 205.722656 309.265625 206.257812 306.578125 205.289062 304.238281 C 204.320312 301.898438 202.039062 300.375 199.507812 300.375 L 186.992188 300.375 C 178.832031 300.375 171.871094 295.144531 169.289062 287.859375 L 203.175781 287.859375 L 220.113281 304.800781 C 221.289062 305.972656 222.878906 306.632812 224.539062 306.632812 L 287.117188 306.632812 L 287.117188 294.117188 L 227.128906 294.117188 L 210.1875 277.175781 " fill-opacity="1" fill-rule="nonzero"/><path fill="#ffffff" d="M 155.285156 155.503906 L 159.472656 145.390625 C 160.238281 143.539062 160.074219 141.433594 159.03125 139.726562 L 154.824219 132.867188 L 157.152344 130.535156 L 164.011719 134.742188 C 165.722656 135.785156 167.828125 135.953125 169.679688 135.183594 L 179.792969 130.996094 C 181.644531 130.226562 183.015625 128.621094 183.484375 126.671875 L 185.347656 118.898438 L 188.636719 118.898438 L 190.5 126.671875 C 190.96875 128.621094 192.339844 130.226562 194.191406 130.996094 L 204.304688 135.183594 C 206.15625 135.953125 208.261719 135.785156 209.96875 134.742188 L 216.828125 130.535156 L 219.15625 132.867188 L 214.953125 139.726562 C 213.90625 141.433594 213.742188 143.539062 214.511719 145.390625 L 218.699219 155.503906 C 219.464844 157.355469 221.074219 158.726562 223.023438 159.195312 L 230.796875 161.058594 L 230.796875 164.347656 L 223.023438 166.210938 C 221.074219 166.679688 219.464844 168.050781 218.699219 169.902344 L 214.511719 180.015625 C 213.742188 181.867188 213.90625 183.972656 214.953125 185.679688 L 219.15625 192.539062 L 216.828125 194.867188 L 209.96875 190.664062 C 208.261719 189.621094 206.15625 189.453125 204.304688 190.222656 L 194.191406 194.410156 C 192.339844 195.179688 190.96875 196.785156 190.5 198.734375 L 188.636719 206.507812 L 185.347656 206.507812 L 183.484375 198.734375 C 183.015625 196.785156 181.644531 195.179688 179.792969 194.410156 L 169.679688 190.222656 C 167.828125 189.453125 165.722656 189.621094 164.011719 190.664062 L 157.152344 194.867188 L 154.824219 192.539062 L 159.03125 185.679688 C 160.074219 183.972656 160.238281 181.867188 159.472656 180.015625 L 155.285156 169.902344 C 154.515625 168.050781 152.910156 166.679688 150.960938 166.210938 L 143.1875 164.347656 L 143.1875 161.058594 L 150.960938 159.195312 C 152.910156 158.726562 154.515625 157.355469 155.285156 155.503906 Z M 146.691406 143.542969 L 144.941406 147.765625 L 135.472656 150.039062 C 132.65625 150.714844 130.671875 153.230469 130.671875 156.125 L 130.671875 169.28125 C 130.671875 172.175781 132.65625 174.691406 135.472656 175.367188 L 144.941406 177.640625 L 146.691406 181.863281 L 141.578125 190.210938 C 140.0625 192.675781 140.441406 195.855469 142.488281 197.902344 L 151.792969 207.207031 C 153.839844 209.25 157.019531 209.628906 159.484375 208.117188 L 167.832031 203.003906 L 172.054688 204.753906 L 174.328125 214.222656 C 175 217.039062 177.519531 219.023438 180.414062 219.023438 L 193.570312 219.023438 C 196.464844 219.023438 198.980469 217.039062 199.65625 214.222656 L 201.925781 204.753906 L 206.148438 203.003906 L 214.496094 208.117188 C 216.964844 209.628906 220.144531 209.25 222.191406 207.207031 L 231.496094 197.902344 C 233.539062 195.855469 233.917969 192.675781 232.40625 190.210938 L 227.292969 181.863281 L 229.042969 177.640625 L 238.511719 175.367188 C 241.328125 174.691406 243.3125 172.175781 243.3125 169.28125 L 243.3125 156.125 C 243.3125 153.230469 241.328125 150.714844 238.511719 150.039062 L 229.042969 147.765625 L 227.292969 143.542969 L 232.40625 135.195312 C 233.917969 132.730469 233.542969 129.550781 231.496094 127.503906 L 222.191406 118.199219 C 220.144531 116.152344 216.964844 115.777344 214.496094 117.289062 L 206.148438 122.402344 L 201.925781 120.652344 L 199.65625 111.183594 C 198.980469 108.367188 196.464844 106.382812 193.570312 106.382812 L 180.414062 106.382812 C 177.519531 106.382812 175 108.367188 174.328125 111.183594 L 172.054688 120.652344 L 167.832031 122.402344 L 159.484375 117.289062 C 157.019531 115.777344 153.839844 116.152344 151.792969 118.199219 L 142.488281 127.503906 C 140.441406 129.550781 140.0625 132.730469 141.578125 135.195312 L 146.691406 143.542969 " fill-opacity="1" fill-rule="nonzero"/><path fill="#ffffff" d="M 186.992188 156.445312 C 190.441406 156.445312 193.25 159.253906 193.25 162.703125 C 193.25 166.152344 190.441406 168.960938 186.992188 168.960938 C 183.542969 168.960938 180.734375 166.152344 180.734375 162.703125 C 180.734375 159.253906 183.542969 156.445312 186.992188 156.445312 Z M 186.992188 181.476562 C 197.34375 181.476562 205.765625 173.054688 205.765625 162.703125 C 205.765625 152.351562 197.34375 143.929688 186.992188 143.929688 C 176.640625 143.929688 168.21875 152.351562 168.21875 162.703125 C 168.21875 173.054688 176.640625 181.476562 186.992188 181.476562 " fill-opacity="1" fill-rule="nonzero"/><path fill="#ffffff" d="M 334.175781 157.6875 C 336.167969 167.511719 337.179688 177.621094 337.179688 187.734375 C 337.179688 225.746094 322.949219 262.015625 297.109375 289.859375 L 306.289062 298.375 C 334.277344 268.207031 349.695312 228.914062 349.695312 187.734375 C 349.695312 176.785156 348.601562 165.839844 346.441406 155.203125 L 334.175781 157.6875 " fill-opacity="1" fill-rule="nonzero"/><path fill="#ffffff" d="M 186.992188 37.546875 C 197.105469 37.546875 207.214844 38.558594 217.035156 40.550781 L 219.523438 28.285156 C 208.882812 26.125 197.941406 25.03125 186.992188 25.03125 C 173.789062 25.03125 160.652344 26.617188 147.949219 29.75 L 150.941406 41.902344 C 162.667969 39.011719 174.796875 37.546875 186.992188 37.546875 " fill-opacity="1" fill-rule="nonzero"/><path fill="#ffffff" d="M 75.292969 118.46875 C 62.394531 139.226562 55.578125 163.179688 55.578125 187.734375 C 55.578125 212.289062 62.394531 236.242188 75.292969 257 L 85.921875 250.394531 C 74.257812 231.621094 68.09375 209.953125 68.09375 187.734375 C 68.09375 165.515625 74.257812 143.847656 85.921875 125.074219 L 75.292969 118.46875 " fill-opacity="1" fill-rule="nonzero"/><path fill="#ffffff" d="M 278.984375 281.582031 C 304.40625 256.660156 318.40625 223.332031 318.40625 187.734375 C 318.40625 178.890625 317.519531 170.046875 315.777344 161.457031 L 303.511719 163.949219 C 305.089844 171.722656 305.890625 179.726562 305.890625 187.734375 C 305.890625 219.941406 293.222656 250.09375 270.21875 272.644531 L 278.984375 281.582031 " fill-opacity="1" fill-rule="nonzero"/><path fill="#ffffff" d="M 186.992188 68.835938 C 195 68.835938 203.003906 69.636719 210.777344 71.214844 L 213.269531 58.949219 C 204.675781 57.207031 195.835938 56.320312 186.992188 56.320312 C 173.542969 56.320312 160.28125 58.347656 147.570312 62.335938 L 151.320312 74.277344 C 162.816406 70.667969 174.816406 68.835938 186.992188 68.835938 " fill-opacity="1" fill-rule="nonzero"/><path fill="#ffffff" d="M 118.15625 281.601562 C 118.15625 289.230469 120.933594 296.582031 125.976562 302.300781 L 135.363281 294.015625 C 132.335938 290.589844 130.671875 286.183594 130.671875 281.601562 C 130.671875 271.25 139.09375 262.828125 149.445312 262.828125 C 152.746094 262.828125 155.988281 263.695312 158.824219 265.335938 L 165.09375 254.5 C 160.355469 251.761719 154.945312 250.3125 149.445312 250.3125 C 132.191406 250.3125 118.15625 264.351562 118.15625 281.601562 " fill-opacity="1" fill-rule="nonzero"/></svg>