<svg xmlns="http://www.w3.org/2000/svg" xmlns:xlink="http://www.w3.org/1999/xlink" width="500" zoomAndPan="magnify" viewBox="0 0 375 374.999991" height="500" preserveAspectRatio="xMidYMid meet" version="1.0"><path fill="#ffffff" d="M 344.835938 245.328125 C 342.523438 246.667969 341.332031 249.34375 341.867188 251.949219 C 342.769531 256.449219 343.230469 261.144531 343.230469 265.914062 C 343.230469 290.441406 331.015625 313.632812 309.722656 329.570312 C 308.53125 330.46875 307.703125 331.761719 307.363281 333.21875 L 301.960938 357.554688 C 301.304688 360.449219 298.800781 362.46875 295.902344 362.46875 L 284.660156 362.46875 C 281.765625 362.46875 279.257812 360.449219 278.601562 357.554688 L 277.410156 352.273438 C 276.777344 349.378906 274.199219 347.40625 271.351562 347.40625 C 270.9375 347.40625 270.5 347.453125 270.0625 347.550781 C 254.5625 350.835938 238.792969 350.835938 223.292969 347.550781 C 219.9375 346.824219 216.675781 348.9375 215.945312 352.273438 L 214.753906 357.554688 C 214.097656 360.449219 211.589844 362.46875 208.695312 362.46875 L 197.453125 362.46875 C 194.554688 362.46875 192.050781 360.449219 191.417969 357.578125 L 185.992188 333.21875 C 185.675781 331.785156 184.847656 330.496094 183.65625 329.59375 C 173.070312 321.613281 164.554688 311.710938 158.957031 300.929688 C 158.179688 299.398438 156.792969 298.277344 155.136719 297.792969 L 129.710938 290.539062 C 127.058594 289.785156 125.207031 287.328125 125.207031 284.554688 L 125.207031 253.773438 C 125.207031 250.925781 127.128906 248.445312 129.878906 247.738281 L 151.097656 242.3125 C 153.042969 241.800781 154.625 240.414062 155.355469 238.566406 C 158.472656 230.730469 162.851562 223.40625 168.375 216.761719 C 169.566406 215.304688 170.078125 213.378906 169.6875 211.53125 L 162.582031 176.90625 C 162.558594 176.757812 162.460938 176.347656 162.921875 175.957031 C 163.144531 175.761719 163.582031 175.445312 164.261719 175.640625 C 177.183594 179.851562 188.863281 184.496094 200.007812 189.851562 C 201.589844 190.628906 203.4375 190.679688 205.09375 189.996094 C 218.136719 184.570312 232.125 181.820312 246.675781 181.820312 C 280.136719 181.820312 310.722656 196.589844 328.535156 221.335938 C 329.96875 223.355469 332.5 224.332031 334.910156 223.769531 C 350.457031 220.386719 357.101562 212.019531 361.164062 205.132812 C 361.601562 207.6875 361.917969 210.824219 361.917969 214.574219 C 361.917969 224.183594 357.441406 238.003906 344.835938 245.328125 Z M 110.242188 132.570312 C 113.769531 136.097656 115.71875 140.796875 115.71875 145.757812 C 115.71875 150.773438 113.769531 155.445312 110.242188 158.972656 C 102.433594 151.160156 97.03125 145.785156 97.03125 145.785156 Z M 59.582031 138.191406 L 13.082031 138.214844 L 13.082031 44.753906 L 69.144531 44.753906 C 70.945312 44.753906 72.601562 45.507812 73.792969 46.847656 C 75.007812 48.183594 75.542969 49.910156 75.324219 51.6875 L 65.8125 132.667969 C 65.421875 135.832031 62.769531 138.191406 59.582031 138.191406 Z M 163.117188 39.691406 C 168.15625 37.574219 173.75 38.476562 177.914062 42.175781 L 218.257812 76.289062 C 220.300781 78.089844 221.542969 80.816406 221.640625 83.757812 C 221.738281 86.726562 220.714844 89.550781 218.695312 91.617188 C 214.824219 95.4375 207.964844 95.585938 203.828125 91.765625 C 203.828125 91.765625 183.460938 74.171875 179.519531 70.667969 C 172.121094 64.023438 160.855469 64.367188 153.824219 71.398438 L 93.113281 132.085938 C 88.660156 129.433594 84.914062 126.65625 79.535156 122.496094 L 87.34375 56.117188 C 123.578125 53.097656 152.535156 44.167969 163.117188 39.691406 Z M 221.007812 104.808594 C 225.144531 114.003906 223.390625 125.148438 215.96875 132.570312 C 206.261719 142.28125 190.445312 142.28125 180.734375 132.570312 C 171.027344 122.863281 171.027344 107.046875 180.734375 97.335938 C 182.464844 95.609375 184.433594 94.320312 186.476562 93.222656 C 191.367188 97.457031 195.53125 101.035156 195.53125 101.035156 C 202.441406 107.484375 212.613281 108.699219 221.007812 104.808594 Z M 207.160156 35.652344 C 213.21875 41.734375 221.199219 44.777344 229.183594 44.777344 C 237.164062 44.777344 245.144531 41.734375 251.203125 35.652344 L 251.226562 35.652344 L 277.628906 62.078125 C 265.488281 74.21875 265.488281 93.980469 277.628906 106.121094 L 208.011719 175.738281 C 206.308594 176.296875 204.582031 176.785156 202.902344 177.441406 C 192.027344 172.355469 180.613281 167.878906 168.082031 163.789062 C 163.335938 162.28125 158.277344 163.375 154.601562 166.6875 C 151 169.921875 149.417969 174.667969 150.367188 179.386719 L 155.429688 204.0625 C 144.722656 193.378906 130.707031 179.386719 119.074219 167.78125 C 124.941406 161.890625 128.175781 154.082031 128.175781 145.757812 C 128.175781 137.460938 124.941406 129.625 119.074219 123.761719 L 162.632812 80.183594 C 164.992188 77.847656 168.738281 77.722656 171.222656 79.9375 C 172.195312 80.816406 174.164062 82.542969 176.574219 84.636719 C 174.945312 85.804688 173.386719 87.066406 171.925781 88.527344 C 157.351562 103.105469 157.351562 126.804688 171.925781 141.378906 C 179.203125 148.65625 188.789062 152.304688 198.351562 152.304688 C 207.914062 152.304688 217.503906 148.65625 224.777344 141.378906 C 236.796875 129.335938 238.914062 110.816406 230.640625 96.4375 C 233.003906 92.589844 234.269531 88.015625 234.074219 83.320312 C 233.855469 76.96875 231.105469 71.007812 226.410156 66.847656 L 199.058594 43.753906 Z M 229.207031 13.605469 L 242.417969 26.820312 L 242.394531 26.84375 C 235.121094 34.121094 223.246094 34.144531 215.96875 26.84375 Z M 286.4375 97.3125 C 279.164062 90.011719 279.164062 78.164062 286.4375 70.886719 L 299.652344 84.097656 Z M 362.820312 188.074219 C 359.121094 187.78125 355.617188 189.605469 353.765625 192.820312 C 353.230469 193.71875 352.746094 194.644531 352.210938 195.617188 C 349.046875 201.410156 345.808594 207.394531 336.027344 210.582031 C 315.613281 184.691406 282.542969 169.363281 246.675781 169.363281 C 241.347656 169.363281 236.070312 169.800781 230.886719 170.480469 L 308.460938 92.90625 C 313.300781 88.066406 313.300781 80.15625 308.460938 75.316406 L 237.992188 4.796875 C 233.148438 -0.0664062 225.242188 -0.0429688 220.398438 4.796875 L 189.519531 35.703125 L 186.089844 32.78125 C 178.449219 25.945312 167.789062 24.167969 158.25 28.207031 C 148.300781 32.441406 120.925781 40.835938 86.25 43.707031 C 85.472656 41.859375 84.472656 40.105469 83.113281 38.574219 C 79.558594 34.582031 74.472656 32.292969 69.144531 32.292969 L 13.082031 32.292969 C 6.21875 32.292969 0.621094 37.890625 0.621094 44.753906 L 0.621094 138.191406 C 0.621094 145.078125 6.21875 150.648438 13.082031 150.648438 L 59.582031 150.648438 C 68.195312 150.648438 75.519531 144.785156 77.636719 136.632812 C 80.191406 138.53125 82.648438 140.261719 85.253906 141.890625 C 83.839844 146.222656 84.789062 151.160156 88.222656 154.566406 C 88.222656 154.566406 131.097656 197.394531 152.023438 218.246094 C 149.371094 222.359375 146.960938 226.570312 145.015625 230.996094 L 126.789062 235.667969 C 118.515625 237.785156 112.75 245.230469 112.75 253.773438 L 112.75 284.554688 C 112.75 292.851562 118.320312 300.25 126.300781 302.511719 L 149.175781 309.058594 C 155.257812 319.910156 163.871094 329.886719 174.3125 338.136719 L 179.25 360.328125 C 181.222656 368.917969 188.714844 374.925781 197.453125 374.925781 L 208.695312 374.925781 C 217.257812 374.925781 224.609375 369.183594 226.75 360.863281 C 240.011719 363.003906 253.34375 363.003906 266.605469 360.863281 C 268.746094 369.183594 276.097656 374.925781 284.660156 374.925781 L 295.902344 374.925781 C 304.640625 374.925781 312.132812 368.917969 314.128906 360.277344 L 319.042969 338.136719 C 342.355469 319.863281 355.6875 293.679688 355.6875 265.914062 C 355.6875 261.777344 355.398438 257.691406 354.8125 253.699219 C 369.167969 243.335938 374.378906 226.519531 374.378906 214.574219 C 374.378906 206.664062 373.257812 199.777344 371.019531 194.109375 C 369.65625 190.679688 366.515625 188.367188 362.820312 188.074219 " fill-opacity="1" fill-rule="nonzero"/><path fill="#ffffff" d="M 270.402344 198.414062 C 264.5625 196.519531 255.195312 194.277344 243.5625 194.277344 C 231.933594 194.277344 222.5625 196.519531 216.722656 198.414062 C 213.464844 199.460938 211.664062 202.964844 212.707031 206.25 C 213.78125 209.511719 217.285156 211.335938 220.570312 210.242188 C 225.53125 208.636719 233.5625 206.738281 243.5625 206.738281 C 253.5625 206.738281 261.59375 208.636719 266.558594 210.242188 C 267.191406 210.460938 267.847656 210.558594 268.480469 210.558594 C 271.109375 210.558594 273.566406 208.878906 274.417969 206.25 C 275.464844 202.964844 273.664062 199.460938 270.402344 198.414062 " fill-opacity="1" fill-rule="nonzero"/></svg>