<svg xmlns="http://www.w3.org/2000/svg" xmlns:xlink="http://www.w3.org/1999/xlink" width="1920" zoomAndPan="magnify" viewBox="0 0 1440 815.249975" height="1087" preserveAspectRatio="xMidYMid meet" version="1.0"><defs><clipPath id="4e3924eeef"><path d="M 1 110 L 1439 110 L 1439 413.621094 L 1 413.621094 Z M 1 110 " clip-rule="nonzero"/></clipPath><clipPath id="ffb1ec7c65"><path d="M 1 436 L 1112 436 L 1112 814.085938 L 1 814.085938 Z M 1 436 " clip-rule="nonzero"/></clipPath><clipPath id="6d9421ba71"><path d="M 1 400.464844 L 1439 400.464844 L 1439 704 L 1 704 Z M 1 400.464844 " clip-rule="nonzero"/></clipPath></defs><path fill="#ddecff" d="M 535.160156 313.210938 L 328.648438 115.347656 C 328.648438 115.347656 663.925781 239.640625 1018.59375 239.640625 C 1373.261719 239.640625 1438.921875 0 1438.921875 0 L 1438.921875 347 L 1143.203125 377.671875 Z M 535.160156 313.210938 " fill-opacity="1" fill-rule="nonzero"/><g clip-path="url(#4e3924eeef)"><path fill="#1a2d4b" d="M 1.078125 195.546875 C 1.078125 195.546875 44.765625 162.367188 113.542969 137.027344 C 297.273438 69.324219 468.378906 144.667969 636.496094 220.675781 C 781.6875 286.335938 928.808594 329.746094 1089.527344 329.746094 C 1382.84375 329.746094 1438.921875 239.640625 1438.921875 239.640625 L 1438.921875 413.621094 L 1.078125 413.621094 Z M 1.078125 195.546875 " fill-opacity="1" fill-rule="nonzero"/></g><g clip-path="url(#ffb1ec7c65)"><path fill="#ddecff" d="M 904.839844 500.875 L 1111.351562 698.738281 C 1111.351562 698.738281 776.074219 574.445312 421.40625 574.445312 C 66.738281 574.445312 1.078125 814.085938 1.078125 814.085938 L 1.078125 467.085938 L 296.792969 436.414062 Z M 904.839844 500.875 " fill-opacity="1" fill-rule="nonzero"/></g><g clip-path="url(#6d9421ba71)"><path fill="#1a2d4b" d="M 1438.921875 618.539062 C 1438.921875 618.539062 1395.234375 651.71875 1326.457031 677.058594 C 1142.726562 744.761719 971.621094 669.417969 803.503906 593.410156 C 658.3125 527.75 511.191406 484.339844 350.472656 484.339844 C 57.15625 484.339844 1.078125 574.445312 1.078125 574.445312 L 1.078125 400.464844 L 1438.921875 400.464844 Z M 1438.921875 618.539062 " fill-opacity="1" fill-rule="nonzero"/></g></svg>