<svg xmlns="http://www.w3.org/2000/svg" xmlns:xlink="http://www.w3.org/1999/xlink" width="906" zoomAndPan="magnify" viewBox="0 0 679.5 203.999996" height="272" preserveAspectRatio="xMidYMid meet" version="1.0"><defs><clipPath id="286d65655d"><path d="M 410 141 L 582 141 L 582 146.21875 L 410 146.21875 Z M 410 141 " clip-rule="nonzero"/></clipPath></defs><path fill="#ddecff" d="M 100.550781 107.035156 L 511.3125 107.035156 C 511.644531 107.035156 511.96875 106.972656 512.277344 106.84375 C 512.585938 106.714844 512.855469 106.535156 513.09375 106.296875 C 513.328125 106.0625 513.511719 105.789062 513.636719 105.480469 C 513.765625 105.171875 513.828125 104.851562 513.828125 104.515625 C 513.828125 104.183594 513.765625 103.863281 513.636719 103.554688 C 513.511719 103.246094 513.328125 102.972656 513.09375 102.738281 C 512.855469 102.5 512.585938 102.320312 512.277344 102.191406 C 511.96875 102.0625 511.644531 102 511.3125 102 L 100.550781 102 C 100.214844 102 99.894531 102.0625 99.585938 102.191406 C 99.277344 102.320312 99.007812 102.5 98.769531 102.738281 C 98.535156 102.972656 98.351562 103.246094 98.222656 103.554688 C 98.097656 103.863281 98.03125 104.183594 98.03125 104.515625 C 98.03125 104.851562 98.097656 105.171875 98.222656 105.480469 C 98.351562 105.789062 98.535156 106.0625 98.769531 106.296875 C 99.007812 106.535156 99.277344 106.714844 99.585938 106.84375 C 99.894531 106.972656 100.214844 107.035156 100.550781 107.035156 Z M 100.550781 107.035156 " fill-opacity="1" fill-rule="nonzero"/><g clip-path="url(#286d65655d)"><path fill="#ddecff" d="M 412.800781 146.136719 L 578.484375 146.136719 C 578.820312 146.136719 579.140625 146.074219 579.449219 145.945312 C 579.757812 145.816406 580.027344 145.636719 580.265625 145.398438 C 580.5 145.164062 580.683594 144.890625 580.8125 144.582031 C 580.9375 144.273438 581.003906 143.953125 581.003906 143.621094 C 581.003906 143.285156 580.9375 142.964844 580.8125 142.65625 C 580.683594 142.347656 580.5 142.074219 580.265625 141.839844 C 580.027344 141.605469 579.757812 141.421875 579.449219 141.292969 C 579.140625 141.167969 578.820312 141.101562 578.484375 141.101562 L 412.800781 141.101562 C 412.464844 141.101562 412.144531 141.167969 411.835938 141.292969 C 411.527344 141.421875 411.253906 141.605469 411.019531 141.839844 C 410.78125 142.074219 410.601562 142.347656 410.472656 142.65625 C 410.34375 142.964844 410.28125 143.285156 410.28125 143.621094 C 410.28125 143.953125 410.34375 144.273438 410.472656 144.582031 C 410.601562 144.890625 410.78125 145.164062 411.019531 145.398438 C 411.253906 145.636719 411.527344 145.816406 411.835938 145.945312 C 412.144531 146.074219 412.464844 146.136719 412.800781 146.136719 Z M 412.800781 146.136719 " fill-opacity="1" fill-rule="nonzero"/></g></svg>