<svg xmlns="http://www.w3.org/2000/svg" xmlns:xlink="http://www.w3.org/1999/xlink" width="906" zoomAndPan="magnify" viewBox="0 0 679.5 203.999996" height="272" preserveAspectRatio="xMidYMid meet" version="1.0"><defs><clipPath id="b1cb1f533f"><path d="M 97 141 L 269 141 L 269 146.21875 L 97 146.21875 Z M 97 141 " clip-rule="nonzero"/></clipPath></defs><path fill="#ddecff" d="M 578.4375 107.035156 L 167.675781 107.035156 C 167.34375 107.035156 167.019531 106.972656 166.714844 106.84375 C 166.40625 106.714844 166.132812 106.535156 165.894531 106.296875 C 165.660156 106.0625 165.476562 105.789062 165.351562 105.480469 C 165.222656 105.171875 165.160156 104.851562 165.160156 104.515625 C 165.160156 104.183594 165.222656 103.863281 165.351562 103.554688 C 165.476562 103.246094 165.660156 102.972656 165.894531 102.738281 C 166.132812 102.5 166.40625 102.320312 166.714844 102.191406 C 167.019531 102.0625 167.34375 102 167.675781 102 L 578.4375 102 C 578.773438 102 579.09375 102.0625 579.402344 102.191406 C 579.710938 102.320312 579.984375 102.5 580.21875 102.738281 C 580.453125 102.972656 580.636719 103.246094 580.765625 103.554688 C 580.890625 103.863281 580.957031 104.183594 580.957031 104.515625 C 580.957031 104.851562 580.890625 105.171875 580.765625 105.480469 C 580.636719 105.789062 580.453125 106.0625 580.21875 106.296875 C 579.984375 106.535156 579.710938 106.714844 579.402344 106.84375 C 579.09375 106.972656 578.773438 107.035156 578.4375 107.035156 Z M 578.4375 107.035156 " fill-opacity="1" fill-rule="nonzero"/><g clip-path="url(#b1cb1f533f)"><path fill="#ddecff" d="M 266.191406 146.136719 L 100.503906 146.136719 C 100.171875 146.136719 99.847656 146.074219 99.539062 145.945312 C 99.230469 145.816406 98.960938 145.636719 98.722656 145.398438 C 98.488281 145.164062 98.304688 144.890625 98.179688 144.582031 C 98.050781 144.273438 97.988281 143.953125 97.988281 143.621094 C 97.988281 143.285156 98.050781 142.964844 98.179688 142.65625 C 98.304688 142.347656 98.488281 142.074219 98.722656 141.839844 C 98.960938 141.605469 99.230469 141.421875 99.539062 141.292969 C 99.847656 141.167969 100.171875 141.101562 100.503906 141.101562 L 266.191406 141.101562 C 266.523438 141.101562 266.84375 141.167969 267.152344 141.292969 C 267.460938 141.421875 267.734375 141.605469 267.96875 141.839844 C 268.207031 142.074219 268.386719 142.347656 268.515625 142.65625 C 268.644531 142.964844 268.707031 143.285156 268.707031 143.621094 C 268.707031 143.953125 268.644531 144.273438 268.515625 144.582031 C 268.386719 144.890625 268.207031 145.164062 267.96875 145.398438 C 267.734375 145.636719 267.460938 145.816406 267.152344 145.945312 C 266.84375 146.074219 266.523438 146.136719 266.191406 146.136719 Z M 266.191406 146.136719 " fill-opacity="1" fill-rule="nonzero"/></g></svg>