<svg xmlns="http://www.w3.org/2000/svg" xmlns:xlink="http://www.w3.org/1999/xlink" width="500" zoomAndPan="magnify" viewBox="0 0 375 374.999991" height="500" preserveAspectRatio="xMidYMid meet" version="1.0"><defs><clipPath id="8fff0a0f94"><path d="M 120 17.703125 L 274 17.703125 L 274 51 L 120 51 Z M 120 17.703125 " clip-rule="nonzero"/></clipPath><clipPath id="b294664b97"><path d="M 44 17.703125 L 185 17.703125 L 185 51 L 44 51 Z M 44 17.703125 " clip-rule="nonzero"/></clipPath></defs><rect x="-37.5" width="450" fill="#ffffff" y="-37.499999" height="449.999989" fill-opacity="1"/><rect x="-37.5" width="450" fill="#ffffff" y="-37.499999" height="449.999989" fill-opacity="1"/><path fill="#caddff" d="M 34.292969 133.816406 C 26.835938 149.769531 15.792969 180.3125 20.234375 218.300781 C 25.925781 267.039062 54.113281 305.464844 81.535156 327.054688 C 172.519531 398.703125 339.082031 352.417969 361.136719 284.925781 C 365.136719 272.679688 364.011719 260.871094 362.628906 246.339844 C 358.226562 200.121094 335.03125 186.382812 319.433594 137.308594 C 305.242188 92.652344 319.234375 87.625 305.960938 67.769531 C 277.167969 24.703125 194.054688 22.53125 136.863281 43.179688 C 114.894531 51.109375 61.589844 75.441406 34.292969 133.816406 " fill-opacity="1" fill-rule="nonzero"/><path fill="#ffffff" d="M 267.019531 69.84375 L 312.5625 69.84375 L 312.5625 154.683594 L 267.019531 154.683594 L 267.019531 69.84375 " fill-opacity="1" fill-rule="nonzero"/><path fill="#000000" d="M 312.5625 155.289062 C 312.246094 155.289062 311.984375 155.027344 311.984375 154.707031 L 311.984375 69.886719 C 311.984375 69.566406 312.246094 69.304688 312.5625 69.304688 C 312.882812 69.304688 313.144531 69.566406 313.144531 69.886719 L 313.144531 154.707031 C 313.144531 155.027344 312.882812 155.289062 312.5625 155.289062 " fill-opacity="1" fill-rule="nonzero"/><path fill="#caddff" d="M 52.023438 59.726562 L 175.433594 59.726562 L 175.433594 154.683594 L 52.023438 154.683594 L 52.023438 59.726562 " fill-opacity="1" fill-rule="nonzero"/><path fill="#99b9ff" d="M 20.070312 69.925781 L 51.867188 69.925781 C 52.023438 69.925781 52.152344 69.796875 52.152344 69.640625 L 52.152344 59.871094 C 52.152344 59.714844 52.023438 59.585938 51.867188 59.585938 L 42.238281 59.589844 C 42.199219 59.589844 42.160156 59.601562 42.121094 59.617188 L 19.953125 69.378906 C 19.671875 69.503906 19.761719 69.925781 20.070312 69.925781 " fill-opacity="1" fill-rule="nonzero"/><path fill="#99b9ff" d="M 266.75 69.84375 L 316.253906 69.84375 C 316.507812 69.84375 316.578125 69.496094 316.34375 69.394531 L 293.097656 59.507812 L 266.75 59.507812 L 266.75 69.84375 " fill-opacity="1" fill-rule="nonzero"/><path fill="#000000" d="M 316.207031 70.425781 L 294.007812 70.425781 C 293.691406 70.425781 293.429688 70.167969 293.429688 69.84375 C 293.429688 69.523438 293.691406 69.265625 294.007812 69.265625 L 314.558594 69.265625 L 292.980469 60.085938 L 271.042969 60.085938 C 270.726562 60.085938 270.464844 59.828125 270.464844 59.507812 C 270.464844 59.1875 270.726562 58.925781 271.042969 58.925781 L 293.097656 58.929688 C 293.175781 58.929688 293.253906 58.945312 293.324219 58.976562 L 316.527344 68.84375 C 316.890625 69 317.09375 69.378906 317.011719 69.765625 C 316.933594 70.15625 316.601562 70.425781 316.207031 70.425781 " fill-opacity="1" fill-rule="nonzero"/><path fill="#99b9ff" d="M 205.003906 18.34375 L 115.0625 18.34375 L 184.136719 49.6875 L 272.820312 49.6875 C 273.113281 49.6875 273.199219 49.289062 272.933594 49.167969 L 205.003906 18.34375 " fill-opacity="1" fill-rule="nonzero"/><g clip-path="url(#8fff0a0f94)"><path fill="#000000" d="M 273.03125 50.265625 L 269.144531 50.265625 C 268.824219 50.265625 268.566406 50.003906 268.566406 49.6875 C 268.566406 49.367188 268.824219 49.109375 269.144531 49.109375 L 271.398438 49.109375 L 204.878906 18.925781 L 121.417969 18.925781 C 121.097656 18.925781 120.835938 18.664062 120.835938 18.34375 C 120.835938 18.023438 121.097656 17.765625 121.417969 17.765625 L 205.003906 17.765625 C 205.085938 17.765625 205.167969 17.78125 205.242188 17.816406 L 273.363281 48.726562 C 273.710938 48.882812 273.898438 49.257812 273.816406 49.628906 C 273.738281 50.003906 273.414062 50.265625 273.03125 50.265625 " fill-opacity="1" fill-rule="nonzero"/></g><path fill="#ffffff" d="M 184.316406 49.710938 L 45.175781 49.710938 L 114.960938 18.34375 Z M 184.316406 49.710938 " fill-opacity="1" fill-rule="nonzero"/><g clip-path="url(#b294664b97)"><path fill="#000000" d="M 48.085938 49.085938 L 181.421875 49.085938 L 114.960938 19.03125 Z M 184.316406 50.335938 L 45.175781 50.335938 C 44.882812 50.335938 44.628906 50.128906 44.566406 49.839844 C 44.503906 49.554688 44.652344 49.261719 44.921875 49.140625 L 114.707031 17.777344 C 114.867188 17.703125 115.054688 17.703125 115.21875 17.777344 L 184.574219 49.140625 C 184.839844 49.261719 184.988281 49.554688 184.925781 49.84375 C 184.863281 50.128906 184.609375 50.335938 184.316406 50.335938 " fill-opacity="1" fill-rule="nonzero"/></g><path fill="#caddff" d="M 266.996094 59.625 L 175.472656 59.625 L 175.472656 154.511719 L 266.996094 154.511719 L 266.996094 59.625 " fill-opacity="1" fill-rule="nonzero"/><path fill="#ffffff" d="M 84.144531 154.683594 L 75.273438 154.683594 L 75.273438 59.726562 L 84.144531 59.726562 L 84.144531 154.683594 " fill-opacity="1" fill-rule="nonzero"/><path fill="#ffffff" d="M 107.039062 154.683594 L 98.167969 154.683594 L 98.167969 59.726562 L 107.039062 59.726562 L 107.039062 154.683594 " fill-opacity="1" fill-rule="nonzero"/><path fill="#ffffff" d="M 129.929688 154.683594 L 121.0625 154.683594 L 121.0625 59.726562 L 129.929688 59.726562 L 129.929688 154.683594 " fill-opacity="1" fill-rule="nonzero"/><path fill="#ffffff" d="M 152.824219 154.683594 L 143.957031 154.683594 L 143.957031 59.726562 L 152.824219 59.726562 L 152.824219 154.683594 " fill-opacity="1" fill-rule="nonzero"/><path fill="#ffffff" d="M 175.433594 154.683594 L 166.5625 154.683594 L 166.5625 59.726562 L 175.433594 59.726562 L 175.433594 154.683594 " fill-opacity="1" fill-rule="nonzero"/><path fill="#ffffff" d="M 61.25 154.683594 L 52.382812 154.683594 L 52.382812 59.726562 L 61.25 59.726562 L 61.25 154.683594 " fill-opacity="1" fill-rule="nonzero"/><path fill="#99b9ff" d="M 198.324219 154.683594 L 189.457031 154.683594 L 189.457031 59.726562 L 198.324219 59.726562 L 198.324219 154.683594 " fill-opacity="1" fill-rule="nonzero"/><path fill="#99b9ff" d="M 221.21875 154.683594 L 212.351562 154.683594 L 212.351562 59.726562 L 221.21875 59.726562 L 221.21875 154.683594 " fill-opacity="1" fill-rule="nonzero"/><path fill="#99b9ff" d="M 244.113281 154.683594 L 235.242188 154.683594 L 235.242188 59.726562 L 244.113281 59.726562 L 244.113281 154.683594 " fill-opacity="1" fill-rule="nonzero"/><path fill="#99b9ff" d="M 267.007812 154.683594 L 258.136719 154.683594 L 258.136719 59.726562 L 267.007812 59.726562 L 267.007812 154.683594 " fill-opacity="1" fill-rule="nonzero"/><path fill="#99b9ff" d="M 266.996094 49.753906 L 175.472656 49.753906 L 175.472656 59.742188 L 266.996094 59.742188 L 266.996094 49.753906 " fill-opacity="1" fill-rule="nonzero"/><path fill="#000000" d="M 176.097656 59.117188 L 266.371094 59.117188 L 266.371094 50.375 L 176.097656 50.375 Z M 266.996094 60.363281 L 175.472656 60.363281 C 175.128906 60.363281 174.847656 60.085938 174.847656 59.742188 L 174.847656 49.753906 C 174.847656 49.40625 175.128906 49.128906 175.472656 49.128906 L 266.996094 49.128906 C 267.339844 49.128906 267.621094 49.40625 267.621094 49.753906 L 267.621094 59.742188 C 267.621094 60.085938 267.339844 60.363281 266.996094 60.363281 " fill-opacity="1" fill-rule="nonzero"/><path fill="#ffffff" d="M 143.957031 154.683594 L 175.433594 154.683594 L 175.433594 176.195312 L 143.957031 176.195312 L 143.957031 154.683594 " fill-opacity="1" fill-rule="nonzero"/><path fill="#000000" d="M 144.578125 175.574219 L 174.808594 175.574219 L 174.808594 155.304688 L 144.578125 155.304688 Z M 175.433594 176.820312 L 143.957031 176.820312 C 143.609375 176.820312 143.332031 176.539062 143.332031 176.195312 L 143.332031 154.683594 C 143.332031 154.335938 143.609375 154.058594 143.957031 154.058594 L 175.433594 154.058594 C 175.777344 154.058594 176.054688 154.335938 176.054688 154.683594 L 176.054688 176.195312 C 176.054688 176.539062 175.777344 176.820312 175.433594 176.820312 " fill-opacity="1" fill-rule="nonzero"/><path fill="#ffffff" d="M 266.964844 176.121094 L 312.582031 176.121094 L 312.582031 154.683594 L 266.964844 154.683594 L 266.964844 176.121094 " fill-opacity="1" fill-rule="nonzero"/><path fill="#000000" d="M 267.589844 175.5 L 311.957031 175.5 L 311.957031 155.304688 L 267.589844 155.304688 Z M 312.582031 176.746094 L 266.964844 176.746094 C 266.621094 176.746094 266.34375 176.46875 266.34375 176.121094 L 266.34375 154.683594 C 266.34375 154.335938 266.621094 154.058594 266.964844 154.058594 L 312.582031 154.058594 C 312.925781 154.058594 313.203125 154.335938 313.203125 154.683594 L 313.203125 176.121094 C 313.203125 176.46875 312.925781 176.746094 312.582031 176.746094 " fill-opacity="1" fill-rule="nonzero"/><path fill="#ffffff" d="M 23.988281 69.84375 L 52.503906 69.84375 L 52.503906 154.601562 L 23.988281 154.601562 L 23.988281 69.84375 " fill-opacity="1" fill-rule="nonzero"/><path fill="#000000" d="M 23.988281 154.875 C 23.667969 154.875 23.40625 154.617188 23.40625 154.296875 L 23.40625 70.15625 C 23.40625 69.835938 23.667969 69.578125 23.988281 69.578125 C 24.304688 69.578125 24.566406 69.835938 24.566406 70.15625 L 24.566406 154.296875 C 24.566406 154.617188 24.304688 154.875 23.988281 154.875 " fill-opacity="1" fill-rule="nonzero"/><path fill="#ffffff" d="M 175.472656 49.753906 L 52.382812 49.753906 L 52.382812 59.742188 L 175.472656 59.742188 L 175.472656 49.753906 " fill-opacity="1" fill-rule="nonzero"/><path fill="#000000" d="M 53.003906 59.117188 L 174.847656 59.117188 L 174.847656 50.375 L 53.003906 50.375 Z M 175.472656 60.363281 L 52.382812 60.363281 C 52.035156 60.363281 51.757812 60.085938 51.757812 59.742188 L 51.757812 49.753906 C 51.757812 49.40625 52.035156 49.128906 52.382812 49.128906 L 175.472656 49.128906 C 175.816406 49.128906 176.097656 49.40625 176.097656 49.753906 L 176.097656 59.742188 C 176.097656 60.085938 175.816406 60.363281 175.472656 60.363281 " fill-opacity="1" fill-rule="nonzero"/><path fill="#ffffff" d="M 24.007812 176.179688 L 52.507812 176.179688 L 52.507812 154.726562 L 24.007812 154.726562 L 24.007812 176.179688 " fill-opacity="1" fill-rule="nonzero"/><path fill="#000000" d="M 24.632812 175.558594 L 51.886719 175.558594 L 51.886719 155.351562 L 24.632812 155.351562 Z M 52.507812 176.804688 L 24.007812 176.804688 C 23.664062 176.804688 23.382812 176.527344 23.382812 176.179688 L 23.382812 154.726562 C 23.382812 154.382812 23.664062 154.105469 24.007812 154.105469 L 52.507812 154.105469 C 52.855469 154.105469 53.132812 154.382812 53.132812 154.726562 L 53.132812 176.179688 C 53.132812 176.527344 52.855469 176.804688 52.507812 176.804688 " fill-opacity="1" fill-rule="nonzero"/><path fill="#ffffff" d="M 52.636719 154.683594 L 84.128906 154.683594 L 84.128906 176.195312 L 52.636719 176.195312 L 52.636719 154.683594 " fill-opacity="1" fill-rule="nonzero"/><path fill="#000000" d="M 53.257812 175.574219 L 83.503906 175.574219 L 83.503906 155.304688 L 53.257812 155.304688 Z M 84.128906 176.820312 L 52.636719 176.820312 C 52.292969 176.820312 52.011719 176.539062 52.011719 176.195312 L 52.011719 154.683594 C 52.011719 154.335938 52.292969 154.058594 52.636719 154.058594 L 84.128906 154.058594 C 84.472656 154.058594 84.753906 154.335938 84.753906 154.683594 L 84.753906 176.195312 C 84.753906 176.539062 84.472656 176.820312 84.128906 176.820312 " fill-opacity="1" fill-rule="nonzero"/><path fill="#ffffff" d="M 84.308594 154.683594 L 143.957031 154.683594 L 143.957031 176.195312 L 84.308594 176.195312 L 84.308594 154.683594 " fill-opacity="1" fill-rule="nonzero"/><path fill="#000000" d="M 84.929688 175.574219 L 143.332031 175.574219 L 143.332031 155.304688 L 84.929688 155.304688 Z M 143.957031 176.820312 L 84.308594 176.820312 C 83.964844 176.820312 83.683594 176.539062 83.683594 176.195312 L 83.683594 154.683594 C 83.683594 154.335938 83.964844 154.058594 84.308594 154.058594 L 143.957031 154.058594 C 144.300781 154.058594 144.578125 154.335938 144.578125 154.683594 L 144.578125 176.195312 C 144.578125 176.539062 144.300781 176.820312 143.957031 176.820312 " fill-opacity="1" fill-rule="nonzero"/><path fill="#000000" d="M 41.589844 70.503906 L 19.875 70.503906 C 19.484375 70.503906 19.152344 70.238281 19.070312 69.851562 C 18.988281 69.464844 19.183594 69.085938 19.546875 68.929688 L 41.945312 59.0625 C 42.015625 59.03125 42.097656 59.011719 42.175781 59.011719 L 47.875 59.007812 C 48.195312 59.007812 48.453125 59.265625 48.453125 59.585938 C 48.453125 59.90625 48.195312 60.167969 47.875 60.167969 L 42.300781 60.171875 L 21.46875 69.347656 L 41.589844 69.347656 C 41.910156 69.347656 42.167969 69.605469 42.167969 69.925781 C 42.167969 70.246094 41.910156 70.503906 41.589844 70.503906 " fill-opacity="1" fill-rule="nonzero"/><path fill="#caddff" d="M 284.46875 99.261719 L 275.597656 99.261719 L 275.597656 81.859375 L 284.46875 81.859375 L 284.46875 99.261719 " fill-opacity="1" fill-rule="nonzero"/><path fill="#caddff" d="M 284.46875 136.097656 L 275.597656 136.097656 L 275.597656 118.695312 L 284.46875 118.695312 L 284.46875 136.097656 " fill-opacity="1" fill-rule="nonzero"/><path fill="#caddff" d="M 42.003906 99.261719 L 33.136719 99.261719 L 33.136719 81.859375 L 42.003906 81.859375 L 42.003906 99.261719 " fill-opacity="1" fill-rule="nonzero"/><path fill="#caddff" d="M 42.003906 136.097656 L 33.136719 136.097656 L 33.136719 118.695312 L 42.003906 118.695312 L 42.003906 136.097656 " fill-opacity="1" fill-rule="nonzero"/><path fill="#caddff" d="M 303.140625 99.261719 L 294.269531 99.261719 L 294.269531 81.859375 L 303.140625 81.859375 L 303.140625 99.261719 " fill-opacity="1" fill-rule="nonzero"/><path fill="#caddff" d="M 303.140625 136.097656 L 294.269531 136.097656 L 294.269531 118.695312 L 303.140625 118.695312 L 303.140625 136.097656 " fill-opacity="1" fill-rule="nonzero"/><path fill="#99b9ff" d="M 175.5625 154.683594 L 267.070312 154.683594 L 267.070312 176.195312 L 175.5625 176.195312 L 175.5625 154.683594 " fill-opacity="1" fill-rule="nonzero"/><path fill="#000000" d="M 176.1875 175.574219 L 266.445312 175.574219 L 266.445312 155.304688 L 176.1875 155.304688 Z M 267.070312 176.820312 L 175.5625 176.820312 C 175.21875 176.820312 174.941406 176.539062 174.941406 176.195312 L 174.941406 154.683594 C 174.941406 154.335938 175.21875 154.058594 175.5625 154.058594 L 267.070312 154.058594 C 267.414062 154.058594 267.695312 154.335938 267.695312 154.683594 L 267.695312 176.195312 C 267.695312 176.539062 267.414062 176.820312 267.070312 176.820312 " fill-opacity="1" fill-rule="nonzero"/><path fill="#99b9ff" d="M 137.625 159.726562 L 122.914062 159.726562 C 122.570312 159.726562 122.289062 159.449219 122.289062 159.105469 C 122.289062 158.761719 122.570312 158.480469 122.914062 158.480469 L 137.625 158.480469 C 137.96875 158.480469 138.25 158.761719 138.25 159.105469 C 138.25 159.449219 137.96875 159.726562 137.625 159.726562 " fill-opacity="1" fill-rule="nonzero"/><path fill="#99b9ff" d="M 137.625 164.027344 L 115.789062 164.027344 C 115.441406 164.027344 115.164062 163.746094 115.164062 163.402344 C 115.164062 163.058594 115.441406 162.78125 115.789062 162.78125 L 137.625 162.78125 C 137.96875 162.78125 138.25 163.058594 138.25 163.402344 C 138.25 163.746094 137.96875 164.027344 137.625 164.027344 " fill-opacity="1" fill-rule="nonzero"/><path fill="#99b9ff" d="M 137.625 168.328125 L 108.546875 168.328125 C 108.203125 168.328125 107.921875 168.050781 107.921875 167.703125 C 107.921875 167.359375 108.203125 167.082031 108.546875 167.082031 L 137.625 167.082031 C 137.96875 167.082031 138.25 167.359375 138.25 167.703125 C 138.25 168.050781 137.96875 168.328125 137.625 168.328125 " fill-opacity="1" fill-rule="nonzero"/><path fill="#99b9ff" d="M 137.625 172.625 L 89.941406 172.625 C 89.597656 172.625 89.320312 172.347656 89.320312 172.003906 C 89.320312 171.660156 89.597656 171.378906 89.941406 171.378906 L 137.625 171.378906 C 137.96875 171.378906 138.25 171.660156 138.25 172.003906 C 138.25 172.347656 137.96875 172.625 137.625 172.625 " fill-opacity="1" fill-rule="nonzero"/><path fill="#000000" d="M 212.351562 80.578125 C 212.03125 80.578125 211.773438 80.316406 211.773438 79.996094 L 211.773438 65.925781 C 211.773438 65.605469 212.03125 65.34375 212.351562 65.34375 C 212.671875 65.34375 212.929688 65.605469 212.929688 65.925781 L 212.929688 79.996094 C 212.929688 80.316406 212.671875 80.578125 212.351562 80.578125 " fill-opacity="1" fill-rule="nonzero"/><path fill="#000000" d="M 235.242188 102.199219 C 234.925781 102.199219 234.664062 101.941406 234.664062 101.621094 L 234.664062 65.277344 C 234.664062 64.960938 234.925781 64.699219 235.242188 64.699219 C 235.566406 64.699219 235.824219 64.960938 235.824219 65.277344 L 235.824219 101.621094 C 235.824219 101.941406 235.566406 102.199219 235.242188 102.199219 " fill-opacity="1" fill-rule="nonzero"/><path fill="#000000" d="M 244.113281 144.039062 C 243.792969 144.039062 243.535156 143.78125 243.535156 143.457031 L 243.535156 75.140625 C 243.535156 74.820312 243.792969 74.5625 244.113281 74.5625 C 244.433594 74.5625 244.691406 74.820312 244.691406 75.140625 L 244.691406 143.457031 C 244.691406 143.78125 244.433594 144.039062 244.113281 144.039062 " fill-opacity="1" fill-rule="nonzero"/><path fill="#000000" d="M 175.433594 151.480469 C 175.113281 151.480469 174.855469 151.222656 174.855469 150.898438 L 174.855469 63.992188 C 174.855469 63.671875 175.113281 63.414062 175.433594 63.414062 C 175.753906 63.414062 176.011719 63.671875 176.011719 63.992188 L 176.011719 150.898438 C 176.011719 151.222656 175.753906 151.480469 175.433594 151.480469 " fill-opacity="1" fill-rule="nonzero"/><path fill="#000000" d="M 52.382812 151.742188 C 52.0625 151.742188 51.800781 151.484375 51.800781 151.164062 L 51.800781 63.367188 C 51.800781 63.046875 52.0625 62.789062 52.382812 62.789062 C 52.699219 62.789062 52.960938 63.046875 52.960938 63.367188 L 52.960938 151.164062 C 52.960938 151.484375 52.699219 151.742188 52.382812 151.742188 " fill-opacity="1" fill-rule="nonzero"/><path fill="#000000" d="M 267.007812 151.328125 C 266.6875 151.328125 266.425781 151.070312 266.425781 150.75 L 266.425781 63.804688 C 266.425781 63.488281 266.6875 63.226562 267.007812 63.226562 C 267.328125 63.226562 267.585938 63.488281 267.585938 63.804688 L 267.585938 150.75 C 267.585938 151.070312 267.328125 151.328125 267.007812 151.328125 " fill-opacity="1" fill-rule="nonzero"/><path fill="#99b9ff" d="M 202.140625 363.101562 C 202.082031 362.355469 202.027344 361.617188 201.96875 360.878906 C 201.867188 359.621094 201.769531 358.371094 201.671875 357.117188 C 201.636719 356.703125 201.605469 356.28125 201.566406 355.867188 C 201.511719 355.179688 201.453125 354.496094 201.398438 353.8125 C 201.355469 353.316406 201.3125 352.824219 201.273438 352.328125 C 201.199219 351.503906 201.128906 350.683594 201.054688 349.863281 C 200.929688 348.40625 200.800781 346.957031 200.667969 345.523438 C 200.4375 342.972656 200.199219 340.449219 199.957031 337.957031 C 199.914062 337.476562 199.863281 336.988281 199.816406 336.507812 C 199.765625 335.976562 199.710938 335.441406 199.65625 334.910156 C 199.570312 334 199.480469 333.097656 199.386719 332.199219 C 199.1875 330.179688 198.976562 328.183594 198.769531 326.222656 C 198.714844 325.722656 198.664062 325.222656 198.609375 324.726562 C 198.191406 320.757812 197.769531 316.914062 197.34375 313.234375 C 197.242188 312.316406 197.136719 311.40625 197.03125 310.507812 C 196.855469 308.949219 196.667969 307.417969 196.496094 305.921875 C 196.445312 305.527344 196.398438 305.132812 196.355469 304.742188 C 196.269531 304.066406 196.191406 303.394531 196.109375 302.730469 C 196.019531 301.941406 195.921875 301.171875 195.832031 300.414062 C 195.761719 299.832031 195.691406 299.257812 195.621094 298.691406 C 195.574219 298.296875 195.523438 297.910156 195.472656 297.523438 C 195.316406 296.257812 195.160156 295.03125 195.011719 293.84375 C 194.960938 293.457031 194.914062 293.070312 194.863281 292.691406 C 194.820312 292.335938 194.773438 291.976562 194.730469 291.628906 C 194.699219 291.386719 194.667969 291.152344 194.636719 290.914062 C 194.597656 290.578125 194.550781 290.246094 194.511719 289.925781 C 194.460938 289.554688 194.414062 289.1875 194.367188 288.828125 C 194.261719 287.992188 194.15625 287.1875 194.054688 286.40625 C 194.019531 286.171875 193.988281 285.945312 193.960938 285.714844 C 193.800781 284.496094 193.644531 283.34375 193.5 282.265625 C 193.496094 282.210938 193.488281 282.15625 193.472656 282.09375 C 193.464844 281.964844 193.441406 281.835938 193.425781 281.710938 C 193.394531 281.488281 193.367188 281.273438 193.332031 281.058594 C 193.292969 280.738281 193.25 280.421875 193.207031 280.113281 C 193.074219 279.132812 192.949219 278.226562 192.835938 277.402344 C 192.796875 277.136719 192.761719 276.871094 192.726562 276.617188 C 192.617188 275.851562 192.523438 275.171875 192.433594 274.574219 C 192.421875 274.472656 192.40625 274.371094 192.394531 274.28125 C 192.316406 273.707031 192.246094 273.21875 192.183594 272.820312 C 192.175781 272.730469 192.160156 272.644531 192.148438 272.566406 C 192.128906 272.410156 192.109375 272.277344 192.089844 272.15625 C 192.085938 272.109375 192.078125 272.0625 192.070312 272.019531 C 192.046875 271.84375 192.027344 271.714844 192.015625 271.628906 C 192.011719 271.601562 192.007812 271.578125 192.003906 271.5625 C 192 271.519531 191.996094 271.5 191.996094 271.5 L 146.269531 271.921875 L 143.433594 271.945312 L 143.054688 271.949219 L 141.59375 276.121094 L 138.011719 286.347656 C 137.976562 286.441406 137.945312 286.539062 137.910156 286.632812 C 137.699219 287.253906 137.472656 287.914062 137.242188 288.609375 C 137.15625 288.871094 137.0625 289.140625 136.976562 289.417969 C 136.589844 290.589844 136.183594 291.855469 135.765625 293.222656 C 135.644531 293.597656 135.53125 293.984375 135.414062 294.378906 C 134.464844 297.527344 133.46875 301.125 132.503906 305.089844 C 132.125 306.652344 131.691406 308.523438 131.234375 310.78125 C 131.191406 310.96875 131.152344 311.164062 131.117188 311.355469 C 130.828125 312.808594 130.535156 314.414062 130.238281 316.183594 C 130.1875 316.484375 130.140625 316.785156 130.089844 317.085938 C 130.015625 317.566406 129.9375 318.058594 129.859375 318.5625 C 129.777344 319.109375 129.695312 319.675781 129.613281 320.253906 C 129.460938 321.289062 129.316406 322.371094 129.175781 323.5 C 129.105469 324.070312 129.035156 324.648438 128.964844 325.242188 C 128.800781 326.597656 128.648438 328.03125 128.496094 329.527344 C 128.359375 330.890625 128.230469 332.308594 128.105469 333.792969 C 128.097656 333.894531 128.089844 333.996094 128.082031 334.101562 C 128.054688 334.4375 128.023438 334.777344 128 335.121094 C 127.988281 335.25 127.972656 335.382812 127.964844 335.523438 C 127.929688 336.019531 127.890625 336.519531 127.855469 337.03125 C 127.734375 338.667969 127.621094 340.378906 127.519531 342.160156 C 127.488281 342.753906 127.453125 343.359375 127.421875 343.96875 C 127.382812 344.671875 127.351562 345.386719 127.316406 346.113281 C 127.296875 346.558594 127.277344 347.019531 127.253906 347.480469 C 127.195312 348.859375 127.144531 350.277344 127.097656 351.742188 C 127.082031 352.230469 127.070312 352.71875 127.050781 353.214844 C 127.039062 353.707031 127.027344 354.207031 127.011719 354.714844 C 126.988281 355.472656 126.972656 356.238281 126.957031 357.015625 C 126.945312 357.792969 126.925781 358.578125 126.914062 359.375 C 126.898438 360.25 126.890625 361.136719 126.882812 362.035156 C 126.878906 362.390625 126.878906 362.742188 126.871094 363.101562 L 153.769531 363.101562 C 154.277344 360.464844 154.78125 357.859375 155.277344 355.308594 C 155.511719 354.121094 155.738281 352.941406 155.96875 351.769531 C 156.324219 349.972656 156.675781 348.203125 157.015625 346.472656 C 157.117188 345.957031 157.21875 345.445312 157.316406 344.941406 C 157.46875 344.199219 157.613281 343.46875 157.753906 342.753906 C 157.855469 342.246094 157.953125 341.742188 158.054688 341.246094 C 158.109375 340.980469 158.164062 340.71875 158.210938 340.457031 C 158.367188 339.675781 158.519531 338.902344 158.675781 338.144531 C 158.875 337.132812 159.078125 336.140625 159.277344 335.171875 C 159.339844 334.847656 159.40625 334.527344 159.464844 334.214844 C 159.574219 333.683594 159.679688 333.160156 159.78125 332.644531 C 159.808594 332.542969 159.828125 332.445312 159.84375 332.34375 C 159.964844 331.734375 160.089844 331.132812 160.210938 330.546875 C 160.332031 329.953125 160.449219 329.378906 160.566406 328.816406 C 160.648438 328.390625 160.734375 327.976562 160.820312 327.566406 C 160.984375 326.75 161.148438 325.964844 161.300781 325.210938 C 161.375 324.832031 161.449219 324.460938 161.527344 324.101562 C 161.554688 323.980469 161.578125 323.859375 161.597656 323.742188 C 161.636719 323.554688 161.675781 323.375 161.710938 323.195312 C 161.738281 323.078125 161.761719 322.960938 161.78125 322.847656 C 161.828125 322.617188 161.878906 322.390625 161.921875 322.171875 C 162.070312 321.464844 162.207031 320.796875 162.335938 320.171875 C 162.390625 319.878906 162.449219 319.597656 162.507812 319.324219 C 162.523438 319.257812 162.535156 319.199219 162.546875 319.140625 C 162.601562 318.871094 162.65625 318.609375 162.710938 318.359375 C 163.03125 316.808594 163.273438 315.636719 163.429688 314.902344 C 163.441406 314.839844 163.453125 314.777344 163.464844 314.71875 C 163.511719 314.503906 163.546875 314.339844 163.570312 314.222656 C 163.574219 314.195312 163.582031 314.171875 163.585938 314.152344 C 163.601562 314.070312 163.609375 314.027344 163.609375 314.027344 C 163.683594 314.269531 163.761719 314.515625 163.835938 314.757812 C 163.910156 315 163.988281 315.238281 164.0625 315.472656 C 164.683594 317.378906 165.34375 319.226562 166.117188 321.558594 C 166.203125 321.824219 166.292969 322.097656 166.386719 322.375 C 166.40625 322.4375 166.421875 322.5 166.445312 322.5625 C 166.523438 322.804688 166.601562 323.054688 166.6875 323.304688 C 166.734375 323.464844 166.789062 323.625 166.839844 323.792969 C 166.902344 323.996094 166.96875 324.203125 167.035156 324.417969 C 167.078125 324.546875 167.117188 324.671875 167.15625 324.808594 C 167.199219 324.933594 167.234375 325.066406 167.277344 325.195312 C 167.808594 326.921875 168.386719 328.921875 169.03125 331.289062 C 169.097656 331.535156 169.164062 331.789062 169.234375 332.046875 C 169.546875 333.203125 169.871094 334.445312 170.207031 335.789062 C 170.28125 336.082031 170.359375 336.386719 170.433594 336.695312 C 170.472656 336.851562 170.511719 337.007812 170.550781 337.164062 C 170.628906 337.476562 170.710938 337.796875 170.789062 338.117188 C 171.003906 338.984375 171.21875 339.894531 171.449219 340.84375 C 171.511719 341.097656 171.570312 341.355469 171.632812 341.617188 C 171.878906 342.660156 172.128906 343.75 172.390625 344.890625 C 172.652344 346.027344 172.925781 347.21875 173.199219 348.460938 C 173.65625 350.527344 174.136719 352.742188 174.644531 355.125 C 174.75 355.621094 174.863281 356.121094 174.964844 356.628906 C 175.195312 357.726562 175.429688 358.851562 175.671875 360.011719 C 175.765625 360.472656 175.867188 360.941406 175.957031 361.417969 C 176.070312 361.96875 176.1875 362.53125 176.304688 363.101562 L 202.140625 363.101562 " fill-opacity="1" fill-rule="nonzero"/><path fill="#000000" d="M 176.304688 363.722656 C 176.015625 363.722656 175.753906 363.519531 175.691406 363.226562 C 169.757812 334.082031 166.742188 325.269531 164.539062 318.835938 C 164.261719 318.03125 163.996094 317.253906 163.738281 316.472656 C 162.386719 322.972656 158.410156 342.242188 154.382812 363.21875 C 154.316406 363.554688 153.988281 363.777344 153.652344 363.714844 C 153.3125 363.648438 153.09375 363.320312 153.15625 362.984375 C 158.09375 337.273438 162.953125 314.125 163.003906 313.894531 C 163.0625 313.617188 163.300781 313.414062 163.585938 313.402344 C 163.875 313.386719 164.128906 313.570312 164.207031 313.84375 C 164.679688 315.402344 165.160156 316.804688 165.714844 318.429688 C 167.929688 324.894531 170.964844 333.753906 176.914062 362.976562 C 176.984375 363.3125 176.765625 363.644531 176.429688 363.710938 C 176.386719 363.71875 176.34375 363.722656 176.304688 363.722656 " fill-opacity="1" fill-rule="nonzero"/><path fill="#000000" d="M 202.140625 363.722656 C 201.816406 363.722656 201.542969 363.476562 201.519531 363.148438 C 198.167969 318.996094 192.210938 277.3125 191.457031 272.128906 L 143.5 272.566406 L 138.597656 286.550781 C 136.488281 292.648438 134.640625 298.9375 133.109375 305.238281 C 130.828125 314.621094 127.765625 330.824219 127.492188 363.105469 C 127.492188 363.449219 127.214844 363.714844 126.863281 363.722656 C 126.519531 363.71875 126.242188 363.4375 126.246094 363.09375 C 126.519531 330.6875 129.601562 314.386719 131.898438 304.945312 C 133.4375 298.605469 135.296875 292.277344 137.421875 286.140625 L 142.46875 271.742188 C 142.554688 271.492188 142.789062 271.328125 143.050781 271.324219 L 191.992188 270.878906 C 191.992188 270.878906 191.996094 270.878906 191.996094 270.878906 C 192.304688 270.878906 192.566406 271.105469 192.613281 271.410156 C 192.679688 271.851562 199.195312 316.0625 202.761719 363.054688 C 202.789062 363.398438 202.53125 363.695312 202.1875 363.722656 C 202.171875 363.722656 202.152344 363.722656 202.140625 363.722656 " fill-opacity="1" fill-rule="nonzero"/><path fill="#000000" d="M 163.078125 316.71875 C 163.035156 316.71875 162.996094 316.714844 162.957031 316.707031 C 162.617188 316.640625 162.398438 316.3125 162.464844 315.972656 L 164.65625 304.6875 C 164.664062 304.671875 164.664062 304.65625 164.667969 304.640625 C 165.332031 302.230469 167.261719 300.421875 169.710938 299.914062 L 171.78125 299.484375 C 172.121094 299.417969 172.449219 299.632812 172.519531 299.96875 C 172.589844 300.308594 172.371094 300.636719 172.035156 300.707031 L 169.960938 301.136719 C 167.984375 301.546875 166.421875 303.003906 165.878906 304.949219 L 163.6875 316.210938 C 163.628906 316.507812 163.367188 316.71875 163.078125 316.71875 " fill-opacity="1" fill-rule="nonzero"/><path fill="#000000" d="M 137.300781 299.609375 C 137 299.609375 136.738281 299.394531 136.6875 299.089844 C 136.628906 298.75 136.859375 298.429688 137.199219 298.371094 C 146.316406 296.847656 149.667969 290.929688 150.683594 288.453125 C 150.816406 288.136719 151.179688 287.984375 151.496094 288.117188 C 151.816406 288.246094 151.96875 288.613281 151.835938 288.929688 C 150.738281 291.597656 147.136719 297.976562 137.402344 299.601562 C 137.367188 299.605469 137.335938 299.609375 137.300781 299.609375 " fill-opacity="1" fill-rule="nonzero"/><path fill="#000000" d="M 191.847656 293.597656 C 191.765625 293.597656 191.679688 293.582031 191.601562 293.546875 C 184.417969 290.429688 183.589844 284.085938 183.554688 283.816406 C 183.515625 283.476562 183.761719 283.167969 184.101562 283.125 C 184.445312 283.082031 184.753906 283.328125 184.792969 283.671875 C 184.828125 283.925781 185.601562 289.582031 192.09375 292.402344 C 192.410156 292.539062 192.554688 292.90625 192.417969 293.226562 C 192.316406 293.460938 192.085938 293.597656 191.847656 293.597656 " fill-opacity="1" fill-rule="nonzero"/><path fill="#ffffff" d="M 180.015625 189.195312 C 171.148438 189.398438 152.265625 190.179688 139.605469 193.101562 C 135.78125 193.984375 130.515625 197.113281 127.917969 200.054688 C 120.269531 208.726562 106.15625 227.441406 106.121094 247.601562 C 106.117188 250.542969 108.378906 252.992188 111.308594 253.234375 L 126.878906 254.523438 C 126.878906 254.523438 124.09375 279.105469 125.136719 283.140625 C 126.183594 287.179688 139.621094 292.457031 154.453125 284.597656 C 166.023438 278.46875 180.808594 271.648438 192.277344 274.007812 C 192.382812 274.03125 193.523438 282.933594 193.636719 282.933594 C 197.21875 282.964844 203.589844 281.398438 202.832031 276.472656 L 197.667969 251.042969 L 217.335938 245.664062 L 219.046875 244.820312 C 224.210938 242.277344 226.195312 235.925781 223.382812 230.894531 C 217.042969 219.554688 207.300781 201.125 192.6875 192.203125 C 189.5625 190.296875 183.675781 189.109375 180.015625 189.195312 " fill-opacity="1" fill-rule="nonzero"/><path fill="#000000" d="M 180.015625 189.195312 L 180.019531 189.195312 Z M 180.03125 189.816406 C 170.300781 190.042969 152.125 190.851562 139.742188 193.707031 C 136.007812 194.570312 130.914062 197.601562 128.386719 200.464844 C 120.320312 209.609375 106.78125 227.890625 106.746094 247.601562 C 106.742188 250.199219 108.765625 252.402344 111.359375 252.613281 L 126.929688 253.902344 C 127.097656 253.917969 127.253906 253.996094 127.363281 254.128906 C 127.46875 254.257812 127.519531 254.425781 127.5 254.59375 C 126.539062 263.054688 124.9375 279.882812 125.742188 282.984375 C 126.023438 284.074219 127.527344 285.339844 129.671875 286.285156 C 135.019531 288.644531 144.257812 289.292969 154.160156 284.046875 C 165.882812 277.839844 180.824219 271.015625 192.402344 273.398438 C 192.886719 273.496094 192.886719 273.496094 193.566406 278.324219 C 193.765625 279.773438 194.007812 281.503906 194.140625 282.304688 C 196.671875 282.226562 199.863281 281.398438 201.367188 279.660156 C 202.121094 278.785156 202.398438 277.773438 202.214844 276.566406 L 197.054688 251.167969 C 196.992188 250.84375 197.1875 250.527344 197.503906 250.441406 L 217.113281 245.078125 L 218.769531 244.261719 C 221.113281 243.109375 222.835938 241.097656 223.613281 238.601562 C 224.386719 236.109375 224.113281 233.480469 222.839844 231.199219 L 221.851562 229.425781 C 215.578125 218.152344 206.097656 201.121094 192.363281 192.734375 C 189.339844 190.890625 183.542969 189.730469 180.03125 189.816406 Z M 138.871094 289.289062 C 135.027344 289.289062 131.6875 288.539062 129.167969 287.425781 C 126.609375 286.296875 124.921875 284.792969 124.535156 283.296875 C 123.554688 279.519531 125.75 259.074219 126.1875 255.09375 L 111.257812 253.859375 C 108.023438 253.589844 105.492188 250.839844 105.496094 247.601562 C 105.535156 227.476562 119.269531 208.914062 127.449219 199.640625 C 130.125 196.609375 135.511719 193.40625 139.464844 192.492188 C 151.953125 189.609375 170.222656 188.796875 180 188.570312 C 183.671875 188.492188 189.695312 189.644531 193.011719 191.671875 C 207.027344 200.226562 216.605469 217.433594 222.941406 228.820312 L 223.929688 230.589844 C 225.371094 233.171875 225.679688 236.148438 224.800781 238.972656 C 223.921875 241.800781 221.976562 244.074219 219.320312 245.382812 L 217.613281 246.222656 C 217.574219 246.238281 217.539062 246.253906 217.5 246.265625 L 198.394531 251.492188 L 203.441406 276.347656 C 203.6875 277.945312 203.304688 279.324219 202.308594 280.476562 C 200.199219 282.914062 195.976562 283.558594 193.734375 283.558594 C 193.699219 283.558594 193.664062 283.558594 193.632812 283.558594 C 193.0625 283.554688 193.027344 283.332031 192.773438 281.609375 C 192.648438 280.757812 192.488281 279.625 192.328125 278.5 C 192.125 277.035156 191.878906 275.28125 191.753906 274.542969 C 180.617188 272.472656 166.148438 279.109375 154.746094 285.148438 C 149.074219 288.15625 143.589844 289.289062 138.871094 289.289062 " fill-opacity="1" fill-rule="nonzero"/><path fill="#ffffff" d="M 181.675781 269.390625 L 212.976562 265.121094 C 214.339844 264.9375 215.394531 263.847656 215.542969 262.480469 L 220.417969 217.316406 C 220.625 215.386719 218.964844 213.773438 217.042969 214.039062 L 185.742188 218.308594 C 184.382812 218.492188 183.324219 219.582031 183.179688 220.949219 L 178.304688 266.113281 C 178.097656 268.042969 179.753906 269.65625 181.675781 269.390625 " fill-opacity="1" fill-rule="nonzero"/><path fill="#000000" d="M 217.453125 214.632812 C 217.347656 214.632812 217.238281 214.636719 217.128906 214.652344 L 185.828125 218.925781 C 184.75 219.074219 183.914062 219.933594 183.796875 221.015625 L 178.925781 266.179688 C 178.847656 266.90625 179.101562 267.617188 179.628906 268.128906 C 180.152344 268.636719 180.867188 268.875 181.59375 268.773438 L 212.894531 264.503906 C 213.972656 264.355469 214.808594 263.496094 214.921875 262.414062 L 219.796875 217.25 C 219.875 216.523438 219.621094 215.8125 219.09375 215.300781 C 218.648438 214.867188 218.066406 214.632812 217.453125 214.632812 Z M 181.265625 270.042969 C 180.332031 270.042969 179.4375 269.683594 178.757812 269.023438 C 177.957031 268.242188 177.566406 267.15625 177.683594 266.046875 L 182.558594 220.878906 C 182.734375 219.226562 184.011719 217.914062 185.660156 217.691406 L 216.960938 213.417969 C 218.070312 213.269531 219.164062 213.628906 219.964844 214.40625 C 220.765625 215.1875 221.15625 216.273438 221.035156 217.382812 L 216.160156 262.550781 C 215.984375 264.203125 214.707031 265.515625 213.0625 265.738281 L 181.761719 270.011719 L 181.675781 269.390625 L 181.761719 270.011719 C 181.59375 270.03125 181.429688 270.042969 181.265625 270.042969 " fill-opacity="1" fill-rule="nonzero"/><path fill="#5479f7" d="M 189.554688 238.277344 L 188.097656 247.589844 C 187.660156 250.390625 191.8125 252.066406 197.378906 251.328125 C 202.9375 250.589844 207.804688 247.71875 208.242188 244.914062 L 209.699219 235.601562 L 189.554688 238.277344 " fill-opacity="1" fill-rule="nonzero"/><path fill="#caddff" d="M 210.585938 233.449219 L 200.960938 230.289062 C 200.777344 230.242188 200.566406 230.273438 200.359375 230.367188 L 189.320312 236.273438 L 185.203125 236.820312 L 185.042969 237.855469 C 185.023438 237.984375 185.074219 238.101562 185.203125 238.136719 L 198.617188 241.503906 C 198.800781 241.550781 199.015625 241.519531 199.21875 241.425781 L 214.277344 234.273438 C 214.425781 234.203125 214.519531 234.066406 214.539062 233.9375 L 214.699219 232.902344 L 210.585938 233.449219 " fill-opacity="1" fill-rule="nonzero"/><path fill="#5479f7" d="M 214.539062 232.621094 L 201.125 229.253906 C 200.941406 229.207031 200.726562 229.234375 200.523438 229.332031 L 185.464844 236.480469 C 185.167969 236.625 185.101562 237.035156 185.367188 237.101562 L 198.777344 240.46875 C 198.964844 240.515625 199.175781 240.488281 199.382812 240.386719 L 214.441406 233.238281 C 214.738281 233.097656 214.804688 232.6875 214.539062 232.621094 " fill-opacity="1" fill-rule="nonzero"/><path fill="#000000" d="M 206.867188 241.871094 C 206.835938 241.871094 206.804688 241.863281 206.773438 241.859375 C 206.429688 241.804688 206.195312 241.488281 206.25 241.148438 L 206.84375 237.359375 L 199.789062 235.464844 C 199.457031 235.375 199.261719 235.03125 199.347656 234.699219 C 199.4375 234.367188 199.78125 234.167969 200.113281 234.257812 L 207.707031 236.300781 C 208.015625 236.382812 208.210938 236.683594 208.164062 237 L 207.484375 241.339844 C 207.433594 241.648438 207.171875 241.871094 206.867188 241.871094 " fill-opacity="1" fill-rule="nonzero"/><path fill="#caddff" d="M 206.851562 241.347656 C 206.570312 241.386719 206.300781 241.640625 206.234375 241.9375 L 204.402344 250.226562 L 206.566406 249.9375 L 207.304688 241.796875 C 207.332031 241.507812 207.132812 241.3125 206.851562 241.347656 " fill-opacity="1" fill-rule="nonzero"/><path fill="#ffffff" d="M 217.871094 236.667969 L 217.417969 241.21875 L 213.460938 240.476562 C 211.28125 240.066406 209.15625 239.414062 207.121094 238.53125 L 204.769531 237.507812 C 203.015625 236.746094 201.015625 237.800781 200.628906 239.679688 C 199.808594 243.660156 200.941406 249.992188 215.117188 252.132812 C 222.941406 253.3125 223.78125 243.378906 222.074219 238.152344 C 221.640625 236.820312 220.847656 236.035156 220.082031 235.578125 C 219.167969 235.027344 217.992188 235.609375 217.871094 236.667969 " fill-opacity="1" fill-rule="nonzero"/><path fill="#000000" d="M 203.574219 237.882812 C 203.203125 237.882812 202.828125 237.972656 202.484375 238.152344 C 201.839844 238.488281 201.386719 239.085938 201.238281 239.804688 C 200.785156 242.011719 201.148438 243.984375 202.324219 245.667969 C 204.339844 248.5625 208.675781 250.527344 215.210938 251.515625 C 217.347656 251.839844 219.039062 251.285156 220.238281 249.867188 C 222.5 247.199219 222.644531 241.914062 221.484375 238.347656 C 221.160156 237.355469 220.578125 236.601562 219.761719 236.113281 C 219.511719 235.960938 219.21875 235.949219 218.957031 236.078125 C 218.695312 236.207031 218.523438 236.445312 218.488281 236.734375 L 218.039062 241.28125 C 218.019531 241.457031 217.933594 241.617188 217.792969 241.71875 C 217.652344 241.824219 217.472656 241.863281 217.304688 241.835938 L 213.347656 241.089844 C 211.125 240.671875 208.945312 240.003906 206.875 239.101562 L 204.523438 238.082031 C 204.21875 237.949219 203.898438 237.882812 203.574219 237.882812 Z M 216.332031 252.851562 C 215.910156 252.851562 215.472656 252.816406 215.023438 252.75 C 208.140625 251.710938 203.523438 249.566406 201.300781 246.378906 C 199.941406 244.433594 199.5 242.070312 200.019531 239.550781 C 200.242188 238.46875 200.929688 237.550781 201.910156 237.046875 C 202.882812 236.539062 204.011719 236.5 205.019531 236.9375 L 207.367188 237.957031 C 209.355469 238.820312 211.445312 239.460938 213.578125 239.863281 L 216.863281 240.484375 L 217.25 236.605469 C 217.25 236.605469 217.25 236.601562 217.25 236.597656 C 217.332031 235.886719 217.761719 235.277344 218.402344 234.960938 C 219.042969 234.640625 219.792969 234.675781 220.402344 235.042969 C 221.484375 235.691406 222.246094 236.671875 222.667969 237.957031 C 223.917969 241.796875 223.828125 247.554688 221.1875 250.675781 C 219.972656 252.109375 218.3125 252.851562 216.332031 252.851562 " fill-opacity="1" fill-rule="nonzero"/><path fill="#ffffff" d="M 142.03125 221.257812 C 140.683594 223.074219 139.09375 224.695312 137.296875 226.070312 C 131.234375 230.710938 116.773438 241.914062 113.324219 245.785156 C 108.925781 250.71875 106.761719 252.628906 112.253906 263.023438 C 121.203125 279.96875 145.351562 230.039062 145.351562 230.039062 C 145.351562 230.039062 154.5 230.4375 155.4375 222.339844 C 155.4375 222.339844 160.207031 222.574219 162.03125 221.46875 C 163.433594 220.621094 163.023438 218.109375 161 218.101562 L 147.832031 217.457031 C 146.023438 217.382812 144.292969 218.210938 143.210938 219.664062 L 142.03125 221.257812 " fill-opacity="1" fill-rule="nonzero"/><path fill="#000000" d="M 142.03125 221.257812 L 142.035156 221.257812 Z M 147.601562 218.078125 C 146.074219 218.078125 144.628906 218.800781 143.710938 220.039062 L 142.535156 221.628906 C 141.152344 223.492188 139.515625 225.152344 137.675781 226.566406 C 131.628906 231.191406 117.203125 242.371094 113.789062 246.199219 L 113.398438 246.636719 C 109.355469 251.160156 107.679688 253.03125 112.804688 262.730469 C 113.949219 264.898438 115.359375 265.933594 117.0625 265.90625 C 127.277344 265.726562 144.617188 230.128906 144.789062 229.769531 C 144.898438 229.542969 145.125 229.402344 145.378906 229.417969 C 145.726562 229.429688 153.957031 229.683594 154.816406 222.265625 C 154.855469 221.9375 155.140625 221.703125 155.46875 221.714844 C 156.742188 221.777344 160.347656 221.761719 161.707031 220.9375 C 162.210938 220.632812 162.304688 220.023438 162.183594 219.578125 C 162.113281 219.324219 161.851562 218.726562 160.996094 218.726562 L 147.804688 218.082031 C 147.738281 218.078125 147.667969 218.078125 147.601562 218.078125 Z M 116.984375 267.15625 C 114.824219 267.15625 113.046875 265.863281 111.703125 263.316406 C 106.171875 252.847656 108.277344 250.496094 112.46875 245.804688 L 112.855469 245.371094 C 116.34375 241.460938 130.84375 230.222656 136.917969 225.574219 C 138.667969 224.234375 140.21875 222.65625 141.53125 220.886719 L 142.710938 219.296875 C 143.914062 217.671875 145.839844 216.757812 147.859375 216.835938 L 161.03125 217.476562 C 162.171875 217.480469 163.082031 218.160156 163.382812 219.246094 C 163.683594 220.324219 163.257812 221.457031 162.355469 222.003906 C 160.75 222.976562 157.367188 223.011719 155.972656 222.980469 C 154.796875 229.988281 147.566406 230.617188 145.742188 230.664062 C 143.789062 234.640625 127.609375 266.96875 117.082031 267.15625 C 117.050781 267.15625 117.019531 267.15625 116.984375 267.15625 " fill-opacity="1" fill-rule="nonzero"/><path fill="#ffffff" d="M 169.214844 189.171875 L 168.589844 183.179688 C 168.625 182.449219 169.121094 181.816406 169.820312 181.621094 L 175.085938 180.179688 C 175.753906 179.988281 176.21875 179.371094 176.21875 178.667969 L 176.207031 172.285156 L 178.339844 170.632812 C 178.507812 170.5 178.539062 170.261719 178.414062 170.089844 L 175.464844 166.027344 C 174.511719 164.503906 173.679688 160.945312 172.8125 161.128906 C 172.8125 161.128906 153.5625 157.125 152.113281 166.1875 C 151.902344 167.5 152.21875 168.839844 152.921875 169.96875 L 154.394531 172.324219 C 155.871094 174.691406 156.203125 185.308594 155.546875 187.734375 C 155.171875 189.113281 154.316406 190.304688 153.132812 191.097656 C 151.644531 192.101562 149.828125 193.378906 150.105469 193.484375 C 150.105469 193.484375 152.027344 195.078125 155.128906 196.578125 C 160.632812 199.242188 168.042969 196.925781 173.273438 193.738281 C 173.273438 193.738281 169.074219 190.726562 169.214844 189.171875 " fill-opacity="1" fill-rule="nonzero"/><path fill="#000000" d="M 151 193.382812 C 151.746094 193.933594 153.304688 195.003906 155.398438 196.015625 C 160.4375 198.457031 167.199219 196.480469 172.148438 193.675781 C 170.765625 192.597656 168.535156 190.632812 168.589844 189.1875 L 167.972656 183.246094 C 167.96875 183.214844 167.96875 183.183594 167.96875 183.152344 C 168.011719 182.148438 168.6875 181.292969 169.652344 181.019531 L 174.917969 179.578125 C 175.316406 179.464844 175.59375 179.089844 175.59375 178.667969 L 175.585938 172.285156 C 175.585938 172.09375 175.675781 171.910156 175.828125 171.792969 L 177.78125 170.277344 L 174.960938 166.394531 C 174.953125 166.382812 174.941406 166.371094 174.933594 166.359375 C 174.542969 165.734375 174.1875 164.832031 173.84375 163.964844 C 173.554688 163.230469 173.082031 162.03125 172.796875 161.753906 C 172.757812 161.753906 172.71875 161.746094 172.683594 161.738281 C 172.558594 161.714844 160.222656 159.207031 154.949219 162.847656 C 153.683594 163.71875 152.957031 164.84375 152.726562 166.285156 C 152.546875 167.410156 152.804688 168.601562 153.453125 169.636719 L 154.921875 171.992188 C 156.550781 174.601562 156.835938 185.363281 156.144531 187.898438 C 155.734375 189.417969 154.789062 190.738281 153.480469 191.617188 C 152.082031 192.554688 151.363281 193.089844 151 193.382812 Z M 160.578125 198.359375 C 158.574219 198.359375 156.625 197.996094 154.855469 197.140625 C 151.921875 195.71875 150.039062 194.230469 149.746094 193.992188 C 149.585938 193.886719 149.480469 193.714844 149.457031 193.519531 C 149.410156 193.097656 149.386719 192.863281 152.785156 190.582031 C 153.84375 189.871094 154.609375 188.800781 154.941406 187.570312 C 155.597656 185.160156 155.183594 174.765625 153.863281 172.65625 L 152.394531 170.296875 C 151.589844 169.007812 151.269531 167.511719 151.496094 166.089844 C 151.78125 164.316406 152.703125 162.878906 154.242188 161.820312 C 159.75 158.019531 171.515625 160.234375 172.832031 160.496094 C 173.792969 160.429688 174.332031 161.796875 175.003906 163.503906 C 175.324219 164.3125 175.652344 165.148438 175.980469 165.679688 L 178.921875 169.726562 C 179.246094 170.171875 179.15625 170.785156 178.722656 171.125 L 176.832031 172.589844 L 176.84375 178.667969 C 176.84375 179.644531 176.191406 180.515625 175.253906 180.78125 L 169.984375 182.222656 C 169.558594 182.339844 169.253906 182.71875 169.214844 183.167969 L 169.835938 189.105469 C 169.839844 189.144531 169.839844 189.1875 169.835938 189.226562 C 169.773438 189.945312 171.75 191.875 173.632812 193.230469 C 173.804688 193.351562 173.902344 193.550781 173.894531 193.757812 C 173.886719 193.96875 173.773438 194.160156 173.597656 194.269531 C 169.9375 196.5 165.117188 198.359375 160.578125 198.359375 " fill-opacity="1" fill-rule="nonzero"/><path fill="#000000" d="M 174.273438 147.292969 C 170.144531 146.828125 175.121094 151.394531 160.039062 146.058594 C 154.035156 143.933594 156.730469 151.257812 155.171875 150.710938 C 149.414062 148.691406 149.613281 148.753906 146.714844 149.351562 C 144.796875 149.746094 143.378906 153.179688 143.589844 155.816406 C 143.875 159.292969 147.425781 165.007812 150.554688 171.007812 C 152.171875 174.117188 155.351562 174.585938 159.488281 170.363281 C 159.933594 169.917969 158.003906 166.992188 159.171875 165.855469 C 162.21875 162.898438 163.191406 167.707031 165.585938 166.390625 C 167.882812 165.125 168.851562 164.273438 171.320312 162.296875 C 174.304688 159.90625 178.804688 164.195312 180.796875 158.519531 C 181.835938 155.558594 179.929688 147.9375 174.273438 147.292969 " fill-opacity="1" fill-rule="nonzero"/><path fill="#000000" d="M 325.671875 323.652344 C 324.128906 338.3125 323.289062 351.941406 322.839844 363.101562 L 296.003906 363.101562 L 300.53125 237.988281 L 303.601562 237.402344 L 319.007812 234.457031 L 319.949219 234.28125 L 319.953125 234.28125 L 325 233.308594 L 325.574219 233.203125 C 325.574219 233.203125 326.476562 247.171875 326.949219 265.371094 C 327.421875 283.835938 327.460938 306.65625 325.671875 323.652344 " fill-opacity="1" fill-rule="nonzero"/><path fill="#000000" d="M 319.644531 226.09375 C 319.644531 226.09375 319.445312 228.886719 319.070312 233.699219 C 319.046875 233.945312 319.027344 234.199219 319.007812 234.457031 C 318.449219 241.535156 317.535156 252.550781 316.324219 265.324219 C 313.144531 298.914062 307.921875 344.671875 301.726562 363.101562 L 289.003906 363.101562 C 278.730469 346.320312 263.515625 308.632812 262.308594 292.503906 L 275.921875 216.257812 L 276.714844 211.8125 L 302.546875 220.410156 L 319.644531 226.09375 " fill-opacity="1" fill-rule="nonzero"/><path fill="#caddff" d="M 294.839844 363.722656 C 294.5 363.722656 294.226562 363.457031 294.214844 363.117188 L 291.644531 260.964844 C 291.636719 260.621094 291.910156 260.335938 292.253906 260.324219 C 292.261719 260.324219 292.265625 260.324219 292.269531 260.324219 C 292.605469 260.324219 292.882812 260.59375 292.894531 260.933594 L 295.464844 363.085938 C 295.46875 363.429688 295.199219 363.714844 294.855469 363.722656 C 294.851562 363.722656 294.84375 363.722656 294.839844 363.722656 " fill-opacity="1" fill-rule="nonzero"/><path fill="#ffffff" d="M 234.851562 130.585938 C 235.1875 130.519531 235.433594 130.222656 235.425781 129.878906 C 235.386719 128.078125 235.011719 122.691406 231.992188 120.21875 C 228.335938 117.226562 225.230469 110.351562 223.015625 111.015625 C 220.796875 111.679688 225.671875 117.667969 225.121094 118.332031 C 224.566406 118.996094 220.6875 115.226562 219.46875 113.011719 C 218.246094 110.792969 216.773438 106.453125 215.003906 106.601562 C 212.574219 106.804688 212.042969 110.460938 215.257812 117.667969 C 218.3125 124.527344 228.597656 126.363281 229.394531 130.921875 C 229.464844 131.308594 229.839844 131.558594 230.226562 131.488281 L 234.851562 130.585938 " fill-opacity="1" fill-rule="nonzero"/><path fill="#000000" d="M 215.09375 107.222656 C 215.082031 107.222656 215.066406 107.222656 215.054688 107.222656 C 214.585938 107.261719 214.238281 107.472656 214.003906 107.871094 C 213.136719 109.339844 213.816406 112.910156 215.824219 117.414062 C 217.355469 120.839844 220.863281 123.003906 223.960938 124.910156 C 226.976562 126.769531 229.582031 128.371094 230.011719 130.8125 C 230.011719 130.820312 230.015625 130.839844 230.039062 130.859375 C 230.054688 130.871094 230.078125 130.878906 230.109375 130.875 L 234.730469 129.972656 C 234.773438 129.964844 234.804688 129.929688 234.800781 129.890625 C 234.769531 128.324219 234.4375 123.027344 231.597656 120.703125 C 229.992188 119.386719 228.5 117.367188 227.179688 115.582031 C 225.71875 113.601562 224.054688 111.351562 223.195312 111.613281 C 223.101562 111.640625 223.09375 111.667969 223.082031 111.691406 C 222.832031 112.3125 224.023438 114.457031 224.664062 115.605469 C 225.605469 117.300781 226.078125 118.15625 225.601562 118.730469 C 225.492188 118.859375 225.246094 119.070312 224.824219 119.027344 C 223.410156 118.890625 219.96875 115.210938 218.921875 113.3125 C 218.625 112.773438 218.320312 112.128906 218 111.441406 C 217.253906 109.859375 216.011719 107.222656 215.09375 107.222656 Z M 230.089844 132.125 C 229.820312 132.125 229.558594 132.042969 229.332031 131.886719 C 229.039062 131.683594 228.84375 131.378906 228.78125 131.027344 C 228.453125 129.140625 226.070312 127.671875 223.308594 125.972656 C 220.054688 123.96875 216.371094 121.699219 214.6875 117.921875 C 212.414062 112.832031 211.808594 109.132812 212.933594 107.238281 C 213.375 106.488281 214.074219 106.050781 214.953125 105.980469 C 216.730469 105.839844 217.949219 108.414062 219.128906 110.910156 C 219.441406 111.578125 219.738281 112.203125 220.015625 112.710938 C 220.867188 114.261719 222.976562 116.4375 224.195312 117.355469 C 224.003906 116.988281 223.769531 116.570312 223.574219 116.214844 C 222.332031 113.980469 221.484375 112.3125 221.929688 111.21875 C 222.089844 110.828125 222.402344 110.546875 222.835938 110.417969 C 224.535156 109.910156 226.144531 112.085938 228.183594 114.839844 C 229.457031 116.566406 230.902344 118.523438 232.386719 119.734375 C 235.550781 122.324219 236 127.683594 236.046875 129.863281 C 236.0625 130.511719 235.609375 131.074219 234.96875 131.199219 L 230.34375 132.097656 C 230.261719 132.113281 230.171875 132.125 230.089844 132.125 " fill-opacity="1" fill-rule="nonzero"/><path fill="#5479f7" d="M 229.5625 129.929688 L 234.707031 128.902344 C 235.84375 128.675781 236.957031 129.378906 237.234375 130.503906 C 238.851562 137.09375 244.226562 157.738281 248.335938 159.414062 C 253.234375 161.410156 257.226562 156.328125 265.570312 152.15625 C 270.023438 149.925781 276.824219 149.09375 282.199219 148.804688 C 286.902344 148.546875 291.613281 148.953125 296.207031 149.992188 L 310.863281 153.304688 C 312.644531 153.609375 318.632812 154.746094 325.167969 158.347656 C 324.757812 159.019531 324.375 159.710938 324.015625 160.394531 C 318.886719 170.199219 325.644531 186.324219 326.707031 197.355469 C 321.640625 204.746094 313.40625 207.746094 316.628906 212.734375 C 323.125 222.796875 325.101562 228.980469 325.304688 238 C 316.902344 231.824219 304.179688 224.0625 287.304688 219.050781 C 277.875 216.25 269.265625 214.933594 262.066406 214.367188 C 263.394531 212.113281 265.308594 208.386719 266.445312 203.480469 C 268.121094 196.234375 266.742188 192.285156 267.769531 183.9375 C 268.148438 180.855469 268.96875 176.238281 271.011719 170.667969 C 261.570312 179.363281 249.152344 183.207031 239.8125 179.378906 C 226.101562 173.757812 217.820312 151.128906 229.5625 129.929688 " fill-opacity="1" fill-rule="nonzero"/><path fill="#000000" d="M 288.332031 215.605469 C 288.101562 215.605469 287.882812 215.476562 287.773438 215.257812 L 275.195312 189.609375 C 275.042969 189.296875 275.171875 188.921875 275.480469 188.773438 C 275.789062 188.621094 276.164062 188.75 276.316406 189.058594 L 288.890625 214.707031 C 289.042969 215.015625 288.917969 215.390625 288.605469 215.542969 C 288.519531 215.585938 288.425781 215.605469 288.332031 215.605469 " fill-opacity="1" fill-rule="nonzero"/><path fill="#000000" d="M 277.328125 207.136719 C 277.082031 207.136719 276.851562 206.992188 276.75 206.75 L 273.304688 198.402344 C 273.171875 198.082031 273.324219 197.71875 273.644531 197.589844 C 273.960938 197.457031 274.324219 197.609375 274.457031 197.925781 L 277.902344 206.273438 C 278.035156 206.59375 277.882812 206.957031 277.5625 207.089844 C 277.488281 207.121094 277.40625 207.136719 277.328125 207.136719 " fill-opacity="1" fill-rule="nonzero"/><path fill="#ffffff" d="M 343.34375 193.128906 L 355.910156 249.625 C 356.609375 252.773438 355.226562 256.011719 352.476562 257.703125 C 337.554688 266.878906 320.042969 266.035156 311.109375 264.765625 C 307.691406 264.277344 305.085938 261.457031 304.871094 258.007812 L 301.125 197.355469 L 343.34375 193.128906 " fill-opacity="1" fill-rule="nonzero"/><path fill="#000000" d="M 301.785156 197.914062 L 305.492188 257.972656 C 305.6875 261.105469 308.085938 263.703125 311.199219 264.144531 C 320.179688 265.421875 337.441406 266.214844 352.152344 257.171875 C 354.675781 255.617188 355.945312 252.640625 355.304688 249.757812 L 342.855469 193.804688 Z M 322.058594 266.164062 C 317.753906 266.164062 313.953125 265.796875 311.023438 265.378906 C 307.328125 264.855469 304.480469 261.769531 304.25 258.046875 L 300.503906 197.394531 C 300.484375 197.058594 300.730469 196.765625 301.066406 196.734375 L 343.28125 192.507812 C 343.597656 192.472656 343.882812 192.6875 343.953125 192.996094 L 356.519531 249.488281 C 357.277344 252.886719 355.78125 256.402344 352.804688 258.234375 C 342.585938 264.519531 331.183594 266.164062 322.058594 266.164062 " fill-opacity="1" fill-rule="nonzero"/><path fill="#5479f7" d="M 325.167969 158.347656 C 325.167969 158.347656 375.121094 181.726562 360.976562 210.023438 C 349.917969 232.148438 321.988281 205.550781 321.988281 205.550781 L 328.269531 194.640625 C 328.269531 194.640625 340.226562 203.839844 341.355469 199.09375 C 342.46875 194.433594 336.886719 188.679688 321.234375 191.667969 L 317.789062 195.628906 C 317.789062 195.628906 312.386719 182.894531 324.015625 160.394531 L 325.167969 158.347656 " fill-opacity="1" fill-rule="nonzero"/><path fill="#ffffff" d="M 325.167969 158.347656 L 321.183594 156.398438 C 321.183594 156.398438 307.5 170.6875 311.144531 197.355469 L 318.28125 197.355469 C 318.28125 197.355469 311.046875 176.480469 325.167969 158.347656 " fill-opacity="1" fill-rule="nonzero"/><path fill="#000000" d="M 311.6875 196.730469 L 317.445312 196.730469 C 316.308594 192.683594 312.203125 174.582031 324.210938 158.574219 L 321.335938 157.171875 C 319.386719 159.453125 308.667969 173.226562 311.6875 196.730469 Z M 318.28125 197.976562 L 311.144531 197.976562 C 310.832031 197.976562 310.570312 197.746094 310.527344 197.4375 C 306.886719 170.78125 320.59375 156.117188 320.730469 155.96875 C 320.917969 155.773438 321.210938 155.722656 321.457031 155.839844 L 325.441406 157.785156 C 325.609375 157.867188 325.730469 158.023438 325.773438 158.207031 C 325.816406 158.390625 325.773438 158.582031 325.660156 158.730469 C 311.90625 176.394531 318.800781 196.941406 318.871094 197.148438 C 318.9375 197.339844 318.90625 197.550781 318.792969 197.714844 C 318.675781 197.878906 318.484375 197.976562 318.28125 197.976562 " fill-opacity="1" fill-rule="nonzero"/><path fill="#ffffff" d="M 326.707031 197.355469 L 319.753906 189.898438 L 306.589844 188.582031 C 306.589844 188.582031 303.941406 195.117188 311.144531 197.355469 C 318.34375 199.589844 323.0625 202.15625 323.0625 202.15625 L 326.707031 197.355469 " fill-opacity="1" fill-rule="nonzero"/><path fill="#000000" d="M 307.027344 189.25 C 306.792969 190.078125 306.429688 191.945312 307.242188 193.652344 C 307.925781 195.082031 309.296875 196.128906 311.328125 196.757812 C 317.210938 198.585938 321.5 200.660156 322.882812 201.363281 L 325.890625 197.394531 L 319.457031 190.496094 Z M 323.0625 202.78125 C 322.960938 202.78125 322.859375 202.753906 322.765625 202.703125 C 322.71875 202.679688 318.011719 200.140625 310.960938 197.949219 C 308.578125 197.210938 306.949219 195.941406 306.109375 194.175781 C 304.800781 191.40625 305.960938 188.472656 306.015625 188.347656 C 306.117188 188.089844 306.378906 187.929688 306.652344 187.960938 L 319.8125 189.28125 C 319.964844 189.296875 320.105469 189.363281 320.207031 189.476562 L 327.160156 196.929688 C 327.367188 197.148438 327.386719 197.488281 327.203125 197.730469 L 323.558594 202.535156 C 323.4375 202.695312 323.253906 202.78125 323.0625 202.78125 " fill-opacity="1" fill-rule="nonzero"/><path fill="#ffffff" d="M 297.261719 141.582031 C 297.261719 141.582031 298.875 143.359375 302.25 142.734375 L 297.261719 141.582031 " fill-opacity="1" fill-rule="nonzero"/><path fill="#000000" d="M 300.851562 143.492188 C 298.191406 143.492188 296.863281 142.070312 296.800781 142 C 296.570312 141.746094 296.589844 141.351562 296.84375 141.121094 C 297.097656 140.890625 297.488281 140.90625 297.722656 141.15625 C 297.785156 141.226562 299.1875 142.667969 302.136719 142.121094 C 302.46875 142.058594 302.800781 142.28125 302.863281 142.621094 C 302.925781 142.960938 302.703125 143.285156 302.363281 143.347656 C 301.820312 143.449219 301.316406 143.492188 300.851562 143.492188 " fill-opacity="1" fill-rule="nonzero"/><path fill="#000000" d="M 292.046875 117.191406 C 292.046875 132.996094 302.550781 151.035156 318.347656 151.035156 C 334.144531 151.035156 350.226562 137.414062 350.226562 121.609375 C 350.226562 105.804688 336.933594 90.582031 321.136719 90.582031 C 305.335938 90.582031 292.046875 101.386719 292.046875 117.191406 " fill-opacity="1" fill-rule="nonzero"/><path fill="#000000" d="M 343.660156 130.40625 C 343.660156 132.21875 345.132812 133.691406 346.945312 133.691406 C 348.757812 133.691406 350.226562 132.21875 350.226562 130.40625 C 350.226562 128.59375 348.757812 127.121094 346.945312 127.121094 C 345.132812 127.121094 343.660156 128.59375 343.660156 130.40625 " fill-opacity="1" fill-rule="nonzero"/><path fill="#000000" d="M 346.945312 136.65625 C 346.945312 139.414062 344.710938 141.644531 341.957031 141.644531 C 339.207031 141.644531 336.972656 139.414062 336.972656 136.65625 C 336.972656 133.902344 339.207031 131.671875 341.957031 131.671875 C 344.710938 131.671875 346.945312 133.902344 346.945312 136.65625 " fill-opacity="1" fill-rule="nonzero"/><path fill="#000000" d="M 339.933594 137.628906 C 342.269531 139.964844 342.269531 143.75 339.933594 146.085938 C 337.601562 148.417969 333.820312 148.417969 331.484375 146.085938 C 329.152344 143.75 329.152344 139.964844 331.484375 137.628906 C 333.820312 135.296875 337.601562 135.296875 339.933594 137.628906 " fill-opacity="1" fill-rule="nonzero"/><path fill="#000000" d="M 333.367188 145.1875 C 333.367188 148.9375 330.332031 151.972656 326.585938 151.972656 C 322.839844 151.972656 319.804688 148.9375 319.804688 145.1875 C 319.804688 141.441406 322.839844 138.40625 326.585938 138.40625 C 330.332031 138.40625 333.367188 141.441406 333.367188 145.1875 " fill-opacity="1" fill-rule="nonzero"/><path fill="#000000" d="M 324.390625 145.957031 C 323.964844 150.070312 320.289062 153.058594 316.179688 152.632812 C 312.070312 152.210938 309.082031 148.53125 309.507812 144.417969 C 309.933594 140.308594 313.609375 137.320312 317.71875 137.742188 C 321.828125 138.167969 324.816406 141.84375 324.390625 145.957031 " fill-opacity="1" fill-rule="nonzero"/><path fill="#000000" d="M 340.929688 119.082031 C 340.929688 122.453125 343.660156 125.1875 347.027344 125.1875 C 350.398438 125.1875 353.132812 122.453125 353.132812 119.082031 C 353.132812 115.710938 350.398438 112.976562 347.027344 112.976562 C 343.660156 112.976562 340.929688 115.710938 340.929688 119.082031 " fill-opacity="1" fill-rule="nonzero"/><path fill="#000000" d="M 338.914062 116.550781 C 341.5 119.140625 345.695312 119.140625 348.285156 116.550781 C 350.871094 113.960938 350.871094 109.765625 348.285156 107.175781 C 345.695312 104.585938 341.5 104.585938 338.914062 107.175781 C 336.324219 109.765625 336.324219 113.960938 338.914062 116.550781 " fill-opacity="1" fill-rule="nonzero"/><path fill="#000000" d="M 343.242188 125.742188 C 343.242188 127.835938 344.9375 129.535156 347.027344 129.535156 C 349.121094 129.535156 350.816406 127.835938 350.816406 125.742188 C 350.816406 123.652344 349.121094 121.957031 347.027344 121.957031 C 344.9375 121.957031 343.242188 123.652344 343.242188 125.742188 " fill-opacity="1" fill-rule="nonzero"/><path fill="#000000" d="M 290.351562 118.117188 C 290.351562 120.953125 292.648438 123.25 295.484375 123.25 C 298.320312 123.25 300.617188 120.953125 300.617188 118.117188 C 300.617188 115.277344 298.320312 112.976562 295.484375 112.976562 C 292.648438 112.976562 290.351562 115.277344 290.351562 118.117188 " fill-opacity="1" fill-rule="nonzero"/><path fill="#000000" d="M 289.746094 111.515625 C 289.746094 114.519531 292.179688 116.953125 295.179688 116.953125 C 298.183594 116.953125 300.617188 114.519531 300.617188 111.515625 C 300.617188 108.511719 298.183594 106.074219 295.179688 106.074219 C 292.179688 106.074219 289.746094 108.511719 289.746094 111.515625 " fill-opacity="1" fill-rule="nonzero"/><path fill="#000000" d="M 293.210938 105.015625 C 293.210938 108.195312 295.789062 110.773438 298.964844 110.773438 C 302.144531 110.773438 304.71875 108.195312 304.71875 105.015625 C 304.71875 101.839844 302.144531 99.261719 298.964844 99.261719 C 295.789062 99.261719 293.210938 101.839844 293.210938 105.015625 " fill-opacity="1" fill-rule="nonzero"/><path fill="#000000" d="M 308.4375 97.976562 C 308.4375 100.953125 306.027344 103.371094 303.046875 103.371094 C 300.070312 103.371094 297.65625 100.953125 297.65625 97.976562 C 297.65625 94.996094 300.070312 92.582031 303.046875 92.582031 C 306.027344 92.582031 308.4375 94.996094 308.4375 97.976562 " fill-opacity="1" fill-rule="nonzero"/><path fill="#000000" d="M 306.1875 94.277344 C 306.1875 96.320312 307.84375 97.976562 309.882812 97.976562 C 311.921875 97.976562 313.578125 96.320312 313.578125 94.277344 C 313.578125 92.238281 311.921875 90.582031 309.882812 90.582031 C 307.84375 90.582031 306.1875 92.238281 306.1875 94.277344 " fill-opacity="1" fill-rule="nonzero"/><path fill="#000000" d="M 311.804688 93.0625 C 311.804688 95.640625 313.894531 97.730469 316.46875 97.730469 C 319.046875 97.730469 321.136719 95.640625 321.136719 93.0625 C 321.136719 90.484375 319.046875 88.394531 316.46875 88.394531 C 313.894531 88.394531 311.804688 90.484375 311.804688 93.0625 " fill-opacity="1" fill-rule="nonzero"/><path fill="#000000" d="M 317.617188 95.886719 C 317.617188 99.375 320.441406 102.199219 323.929688 102.199219 C 327.414062 102.199219 330.238281 99.375 330.238281 95.886719 C 330.238281 92.398438 327.414062 89.574219 323.929688 89.574219 C 320.441406 89.574219 317.617188 92.398438 317.617188 95.886719 " fill-opacity="1" fill-rule="nonzero"/><path fill="#000000" d="M 331.332031 90.582031 C 328.21875 90.582031 325.695312 93.109375 325.695312 96.222656 C 325.695312 99.339844 328.21875 101.863281 331.332031 101.863281 C 334.449219 101.863281 336.972656 99.339844 336.972656 96.222656 C 336.972656 93.109375 334.449219 90.582031 331.332031 90.582031 " fill-opacity="1" fill-rule="nonzero"/><path fill="#000000" d="M 336.972656 93.125 C 333.585938 93.125 330.839844 95.871094 330.839844 99.261719 C 330.839844 102.648438 333.585938 105.398438 336.972656 105.398438 C 340.359375 105.398438 343.105469 102.648438 343.105469 99.261719 C 343.105469 95.871094 340.359375 93.125 336.972656 93.125 " fill-opacity="1" fill-rule="nonzero"/><path fill="#000000" d="M 340.929688 104.179688 C 340.929688 106.480469 342.792969 108.347656 345.09375 108.347656 C 347.394531 108.347656 349.257812 106.480469 349.257812 104.179688 C 349.257812 101.878906 347.394531 100.011719 345.09375 100.011719 C 342.792969 100.011719 340.929688 101.878906 340.929688 104.179688 " fill-opacity="1" fill-rule="nonzero"/><path fill="#ffffff" d="M 300.878906 117.695312 C 299.667969 118.363281 299.015625 118.488281 298.011719 119.148438 C 295.964844 120.492188 293.523438 125.144531 290.421875 125.609375 C 289.808594 127.164062 291.058594 127.59375 291.378906 128.589844 C 290.863281 129.3125 289.566406 132.894531 288.503906 135.035156 C 288.132812 135.785156 288.375 136.703125 289.078125 137.15625 C 290.261719 137.917969 291.644531 138.53125 293.238281 138.957031 C 293.238281 138.957031 299.59375 152.566406 289.933594 157.449219 L 310.417969 155.683594 L 304.914062 137.683594 C 305.179688 137.636719 308.644531 137.011719 309.496094 134.402344 C 309.808594 133.445312 309.890625 131.839844 309.070312 131.335938 C 308.269531 130.847656 306.65625 131.4375 305.390625 133.117188 C 305.273438 132.636719 305.210938 132.039062 305.15625 131.355469 C 305.078125 130.417969 305.089844 129.359375 305.441406 128.894531 C 297.792969 125.171875 306.535156 118.710938 300.878906 117.695312 " fill-opacity="1" fill-rule="nonzero"/><path fill="#000000" d="M 290.90625 126.148438 C 290.800781 126.640625 291.007812 126.90625 291.34375 127.335938 C 291.570312 127.628906 291.832031 127.960938 291.96875 128.398438 C 292.03125 128.585938 292 128.789062 291.886719 128.949219 C 291.65625 129.273438 291.144531 130.511719 290.644531 131.710938 C 290.144531 132.914062 289.574219 134.277344 289.0625 135.3125 C 288.828125 135.78125 288.984375 136.351562 289.417969 136.632812 C 290.578125 137.378906 291.917969 137.960938 293.398438 138.355469 C 293.578125 138.40625 293.726562 138.527344 293.804688 138.695312 C 293.863281 138.824219 299.308594 150.738281 292.335938 156.617188 L 309.597656 155.128906 L 304.316406 137.863281 C 304.265625 137.691406 304.289062 137.507812 304.382812 137.355469 C 304.476562 137.199219 304.632812 137.097656 304.8125 137.066406 C 304.949219 137.042969 308.164062 136.488281 308.90625 134.210938 C 309.1875 133.34375 309.179688 132.132812 308.746094 131.867188 C 308.347656 131.621094 307.046875 131.957031 305.890625 133.492188 C 305.746094 133.683594 305.503906 133.777344 305.265625 133.730469 C 305.03125 133.679688 304.84375 133.5 304.789062 133.265625 C 304.648438 132.699219 304.582031 132.007812 304.53125 131.40625 C 304.453125 130.453125 304.492188 129.71875 304.640625 129.179688 C 300.601562 126.9375 301.378906 123.820312 301.957031 121.523438 C 302.21875 120.476562 302.464844 119.484375 302.132812 118.96875 C 301.953125 118.6875 301.5625 118.484375 300.976562 118.351562 C 300.519531 118.59375 300.136719 118.765625 299.796875 118.917969 C 299.304688 119.136719 298.878906 119.324219 298.351562 119.671875 C 297.679688 120.113281 296.898438 121.023438 296.074219 121.984375 C 294.59375 123.707031 292.925781 125.648438 290.90625 126.148438 Z M 289.933594 158.074219 C 289.65625 158.074219 289.410156 157.890625 289.332031 157.621094 C 289.25 157.332031 289.382812 157.027344 289.648438 156.890625 C 297.960938 152.691406 293.574219 141.339844 292.785156 139.480469 C 291.292969 139.054688 289.933594 138.449219 288.742188 137.679688 C 287.773438 137.054688 287.429688 135.796875 287.949219 134.757812 C 288.441406 133.757812 289 132.417969 289.492188 131.234375 C 290.023438 129.957031 290.398438 129.066406 290.675781 128.546875 C 290.59375 128.402344 290.484375 128.261719 290.359375 128.105469 C 289.914062 127.53125 289.300781 126.75 289.84375 125.378906 C 289.925781 125.171875 290.109375 125.027344 290.332031 124.992188 C 292.070312 124.730469 293.695312 122.839844 295.128906 121.171875 C 296.011719 120.140625 296.851562 119.167969 297.667969 118.628906 C 298.277344 118.226562 298.769531 118.011719 299.285156 117.777344 C 299.675781 117.605469 300.074219 117.425781 300.578125 117.148438 C 300.703125 117.078125 300.847656 117.054688 300.988281 117.082031 C 302.0625 117.273438 302.777344 117.667969 303.179688 118.292969 C 303.808594 119.265625 303.496094 120.507812 303.164062 121.824219 C 302.585938 124.132812 301.992188 126.523438 305.714844 128.332031 C 305.882812 128.417969 306.007812 128.566406 306.050781 128.75 C 306.09375 128.929688 306.054688 129.121094 305.941406 129.269531 C 305.890625 129.335938 305.648438 129.742188 305.773438 131.304688 C 305.785156 131.445312 305.800781 131.589844 305.8125 131.738281 C 307.042969 130.632812 308.453125 130.230469 309.394531 130.804688 C 310.574219 131.527344 310.457031 133.46875 310.089844 134.59375 C 309.34375 136.886719 306.933594 137.8125 305.707031 138.144531 L 311.015625 155.503906 C 311.070312 155.683594 311.042969 155.875 310.9375 156.035156 C 310.832031 156.1875 310.660156 156.289062 310.472656 156.304688 L 289.984375 158.070312 C 289.96875 158.070312 289.949219 158.074219 289.933594 158.074219 " fill-opacity="1" fill-rule="nonzero"/><path fill="#ffffff" d="M 300.074219 139.242188 C 300.074219 139.242188 296.988281 140.425781 293.496094 139.039062 L 300.074219 139.242188 " fill-opacity="1" fill-rule="nonzero"/><path fill="#000000" d="M 297.066406 140.339844 C 295.957031 140.339844 294.644531 140.167969 293.265625 139.617188 C 292.945312 139.488281 292.789062 139.128906 292.914062 138.808594 C 293.042969 138.488281 293.40625 138.332031 293.726562 138.460938 C 296.933594 139.734375 299.820312 138.671875 299.847656 138.660156 C 300.171875 138.535156 300.53125 138.699219 300.652344 139.019531 C 300.777344 139.34375 300.617188 139.703125 300.296875 139.824219 C 300.210938 139.855469 298.921875 140.339844 297.066406 140.339844 " fill-opacity="1" fill-rule="nonzero"/><path fill="#caddff" d="M 292.269531 261.570312 C 292.078125 261.570312 291.886719 261.484375 291.765625 261.316406 L 285.742188 253.027344 C 285.539062 252.75 285.601562 252.359375 285.878906 252.160156 C 286.15625 251.953125 286.546875 252.015625 286.75 252.292969 L 292.773438 260.582031 C 292.976562 260.859375 292.914062 261.25 292.636719 261.453125 C 292.523438 261.53125 292.398438 261.570312 292.269531 261.570312 " fill-opacity="1" fill-rule="nonzero"/><path fill="#000000" d="M 101.855469 183.449219 C 96.464844 177.199219 88.476562 175.855469 82.484375 177.589844 C 74.902344 179.78125 71.101562 186.808594 68.417969 191.765625 C 63.679688 200.527344 65.996094 203.714844 62.261719 208.800781 C 55.652344 217.808594 39.515625 211.761719 31.695312 218.667969 C 12.902344 235.261719 23.28125 262.855469 40.042969 275.929688 C 51.21875 284.648438 66.359375 279.691406 70.480469 278.34375 C 82.984375 274.25 103.695312 266.21875 105.632812 246.84375 C 106.933594 233.820312 94.488281 223.324219 101.113281 212.488281 C 102.800781 209.726562 104.203125 208.984375 105.453125 205.527344 C 107.476562 199.917969 107.902344 190.460938 101.855469 183.449219 " fill-opacity="1" fill-rule="nonzero"/><path fill="#000000" d="M 80.546875 185.003906 C 83.605469 182.519531 81.667969 175.203125 79.710938 171.257812 C 78.980469 169.777344 75.699219 163.15625 71.382812 163.410156 C 66.949219 163.675781 62.703125 171.121094 64.285156 177.015625 C 66.265625 184.390625 76.964844 187.910156 80.546875 185.003906 " fill-opacity="1" fill-rule="nonzero"/><path fill="#5479f7" d="M 59.898438 229.9375 C 69.121094 226.929688 83.175781 224.765625 99.976562 230.121094 C 106.101562 232.070312 110.496094 237.46875 111.25 243.855469 L 124.9375 322.6875 C 125.613281 328.417969 117.957031 333.988281 112.5625 336.035156 C 106.929688 338.171875 98.410156 340.191406 86.351562 340.191406 C 73.421875 340.191406 57.804688 340.117188 52.5625 337.820312 C 52.40625 337.75 52.246094 337.679688 52.085938 337.605469 C 45.339844 334.460938 41.367188 327.335938 42.03125 319.917969 L 44.816406 308.328125 C 47.890625 295.550781 49.316406 282.433594 49.058594 269.292969 L 48.605469 246.34375 C 48.265625 238.960938 52.875 232.230469 59.898438 229.9375 " fill-opacity="1" fill-rule="nonzero"/><path fill="#5479f7" d="M 124.519531 263.8125 C 124.519531 263.8125 113.597656 233.539062 101.347656 230.628906 L 107.574219 273.523438 L 124.519531 263.8125 " fill-opacity="1" fill-rule="nonzero"/><path fill="#5479f7" d="M 32.777344 281.476562 C 28.09375 277.769531 26.128906 271.601562 27.792969 265.867188 C 29.292969 260.710938 31.1875 254.5 32.835938 250.007812 C 38.472656 234.640625 50.160156 231.203125 54.710938 230.113281 C 55.425781 229.945312 63.523438 228.867188 63.523438 228.867188 L 58.652344 275.890625 L 37.832031 284.421875 L 32.777344 281.476562 " fill-opacity="1" fill-rule="nonzero"/><path fill="#000000" d="M 47.542969 318.699219 C 47.445312 318.699219 47.34375 318.679688 47.253906 318.628906 C 46.949219 318.46875 46.832031 318.089844 46.992188 317.785156 C 51.324219 309.5625 60.046875 303.910156 72.226562 301.449219 C 82.367188 299.394531 92.65625 299.988281 98.382812 301.117188 C 106.417969 302.707031 114.449219 307.878906 114.789062 308.097656 C 115.078125 308.285156 115.160156 308.671875 114.972656 308.960938 C 114.785156 309.25 114.398438 309.332031 114.109375 309.144531 C 114.027344 309.09375 105.9375 303.882812 98.140625 302.34375 C 85.84375 299.914062 57.429688 300.632812 48.09375 318.367188 C 47.984375 318.578125 47.765625 318.699219 47.542969 318.699219 " fill-opacity="1" fill-rule="nonzero"/><path fill="#ffffff" d="M 142.90625 229.183594 L 143.570312 282.851562 C 143.585938 284.210938 142.675781 285.410156 141.359375 285.753906 L 103.636719 295.382812 C 101.777344 295.871094 99.953125 294.480469 99.929688 292.554688 L 99.269531 238.886719 C 99.253906 237.527344 100.164062 236.332031 101.480469 235.988281 L 139.203125 226.355469 C 141.0625 225.871094 142.882812 227.261719 142.90625 229.183594 " fill-opacity="1" fill-rule="nonzero"/><path fill="#000000" d="M 139.953125 226.882812 C 139.757812 226.882812 139.558594 226.90625 139.359375 226.960938 L 101.632812 236.59375 C 100.597656 236.863281 99.878906 237.804688 99.894531 238.878906 L 100.554688 292.546875 C 100.5625 293.273438 100.898438 293.9375 101.472656 294.375 C 102.050781 294.816406 102.78125 294.964844 103.480469 294.78125 L 141.203125 285.148438 C 142.242188 284.878906 142.960938 283.9375 142.945312 282.859375 L 142.285156 229.191406 C 142.273438 228.46875 141.941406 227.800781 141.367188 227.363281 C 140.953125 227.046875 140.460938 226.882812 139.953125 226.882812 Z M 102.882812 296.105469 C 102.109375 296.105469 101.351562 295.851562 100.71875 295.367188 C 99.835938 294.695312 99.320312 293.671875 99.308594 292.566406 L 98.644531 238.894531 C 98.625 237.246094 99.726562 235.800781 101.324219 235.382812 L 139.046875 225.753906 C 140.117188 225.472656 141.238281 225.699219 142.121094 226.371094 C 143.003906 227.042969 143.515625 228.066406 143.53125 229.175781 L 144.191406 282.84375 C 144.214844 284.496094 143.113281 285.9375 141.515625 286.355469 L 103.792969 295.988281 C 103.488281 296.066406 103.183594 296.105469 102.882812 296.105469 " fill-opacity="1" fill-rule="nonzero"/><path fill="#5479f7" d="M 108.746094 256.992188 L 107.722656 268.78125 C 107.414062 272.328125 112.761719 274.066406 119.664062 272.664062 C 126.570312 271.257812 132.417969 267.246094 132.722656 263.695312 L 133.746094 251.90625 L 108.746094 256.992188 " fill-opacity="1" fill-rule="nonzero"/><path fill="#caddff" d="M 134.671875 249.136719 L 122.347656 246.003906 C 122.113281 245.960938 121.851562 246.015625 121.601562 246.15625 L 108.28125 254.503906 L 103.175781 255.539062 L 103.0625 256.847656 C 103.046875 257.011719 103.121094 257.15625 103.289062 257.1875 L 120.375 260.253906 C 120.609375 260.292969 120.875 260.242188 121.125 260.101562 L 139.371094 249.847656 C 139.550781 249.75 139.648438 249.570312 139.664062 249.40625 L 139.777344 248.097656 L 134.671875 249.136719 " fill-opacity="1" fill-rule="nonzero"/><path fill="#5479f7" d="M 139.550781 247.757812 L 122.460938 244.695312 C 122.226562 244.652344 121.964844 244.707031 121.714844 244.84375 L 103.46875 255.097656 C 103.109375 255.296875 103.066406 255.820312 103.402344 255.878906 L 120.492188 258.941406 C 120.722656 258.984375 120.988281 258.929688 121.238281 258.792969 L 139.484375 248.539062 C 139.84375 248.339844 139.886719 247.820312 139.550781 247.757812 " fill-opacity="1" fill-rule="nonzero"/><path fill="#000000" d="M 130.6875 259.84375 C 130.667969 259.84375 130.648438 259.839844 130.632812 259.839844 C 130.289062 259.808594 130.035156 259.507812 130.0625 259.164062 L 130.492188 254.226562 L 121.355469 252.429688 C 121.019531 252.363281 120.796875 252.035156 120.863281 251.695312 C 120.929688 251.359375 121.257812 251.140625 121.597656 251.207031 L 131.28125 253.105469 C 131.59375 253.171875 131.8125 253.457031 131.785156 253.773438 L 131.304688 259.269531 C 131.277344 259.597656 131.003906 259.84375 130.6875 259.84375 " fill-opacity="1" fill-rule="nonzero"/><path fill="#caddff" d="M 130.675781 259.347656 C 130.324219 259.417969 130.007812 259.765625 129.953125 260.140625 L 128.371094 270.675781 L 131.054688 270.132812 L 131.28125 259.867188 C 131.289062 259.503906 131.023438 259.277344 130.675781 259.347656 " fill-opacity="1" fill-rule="nonzero"/><path fill="#ffffff" d="M 143.726562 262.753906 L 143.046875 265.472656 C 142.757812 266.625 141.488281 267.222656 140.421875 266.714844 L 131.347656 262.40625 C 130.140625 261.835938 128.699219 262.441406 128.28125 263.707031 C 127.429688 266.292969 128.144531 270.886719 139.699219 275.574219 C 146.761719 278.4375 147.011719 270.679688 145.859375 265.953125 C 145.351562 263.855469 143.726562 262.753906 143.726562 262.753906 " fill-opacity="1" fill-rule="nonzero"/><path fill="#000000" d="M 130.386719 262.816406 C 130.171875 262.816406 129.953125 262.859375 129.75 262.945312 C 129.328125 263.128906 129.015625 263.464844 128.871094 263.902344 C 127.632812 267.660156 131.5625 271.601562 139.933594 274.996094 C 141.863281 275.777344 143.328125 275.757812 144.28125 274.933594 C 146.054688 273.402344 146.027344 269.28125 145.253906 266.101562 C 145.015625 265.121094 144.507812 264.390625 144.078125 263.914062 L 143.648438 265.625 C 143.464844 266.355469 142.972656 266.960938 142.292969 267.28125 C 141.613281 267.601562 140.832031 267.601562 140.152344 267.277344 L 131.078125 262.972656 C 130.859375 262.867188 130.625 262.816406 130.386719 262.816406 Z M 142.429688 276.816406 C 141.550781 276.816406 140.5625 276.597656 139.46875 276.152344 C 127.84375 271.4375 126.644531 266.675781 127.6875 263.511719 C 127.941406 262.746094 128.515625 262.121094 129.261719 261.800781 C 130.015625 261.476562 130.871094 261.492188 131.613281 261.84375 L 140.6875 266.152344 C 141.027344 266.3125 141.417969 266.3125 141.757812 266.152344 C 142.101562 265.992188 142.347656 265.6875 142.441406 265.324219 L 143.121094 262.601562 C 143.171875 262.402344 143.316406 262.242188 143.503906 262.167969 C 143.695312 262.09375 143.910156 262.121094 144.078125 262.234375 C 144.152344 262.285156 145.90625 263.5 146.464844 265.804688 C 147.289062 269.191406 147.425781 273.863281 145.097656 275.875 C 144.371094 276.503906 143.480469 276.816406 142.429688 276.816406 " fill-opacity="1" fill-rule="nonzero"/><path fill="#ffffff" d="M 65.40625 251.144531 C 65.40625 251.144531 41.3125 264.722656 36.34375 268.984375 C 31.375 273.246094 25.984375 276.480469 33.011719 285.769531 C 38.984375 293.664062 49.5 286.605469 68.039062 260 C 68.910156 258.753906 70.328125 257.980469 71.8125 257.648438 C 73.671875 257.234375 76.371094 255.761719 77.613281 250.878906 C 77.613281 250.878906 86.402344 252.128906 87.179688 247.84375 L 73.980469 245.742188 C 72.210938 245.425781 70.402344 246.007812 69.148438 247.296875 L 65.40625 251.144531 " fill-opacity="1" fill-rule="nonzero"/><path fill="#000000" d="M 65.40625 251.144531 L 65.410156 251.144531 Z M 73.03125 246.28125 C 71.746094 246.28125 70.503906 246.796875 69.59375 247.730469 L 65.851562 251.578125 C 65.808594 251.621094 65.761719 251.65625 65.710938 251.6875 C 65.46875 251.820312 41.613281 265.289062 36.746094 269.457031 C 36.363281 269.789062 35.972656 270.113281 35.589844 270.4375 C 31.003906 274.269531 27.382812 277.296875 33.507812 285.390625 C 34.960938 287.316406 36.632812 288.210938 38.621094 288.191406 C 44.769531 288.070312 54.226562 278.734375 67.527344 259.644531 C 68.421875 258.363281 69.894531 257.4375 71.675781 257.039062 C 73.480469 256.636719 75.867188 255.214844 77.007812 250.726562 C 77.089844 250.417969 77.386719 250.21875 77.699219 250.265625 C 79.816406 250.5625 85.15625 250.730469 86.359375 248.34375 L 73.882812 246.355469 C 73.597656 246.304688 73.3125 246.28125 73.03125 246.28125 Z M 38.5 289.441406 C 36.183594 289.441406 34.167969 288.332031 32.511719 286.144531 C 25.671875 277.101562 30.308594 273.226562 34.789062 269.480469 C 35.167969 269.160156 35.554688 268.839844 35.9375 268.511719 C 40.800781 264.339844 63.25 251.640625 65.019531 250.644531 L 68.699219 246.863281 C 70.101562 245.425781 72.113281 244.773438 74.085938 245.125 L 87.277344 247.226562 C 87.441406 247.253906 87.589844 247.34375 87.6875 247.480469 C 87.785156 247.617188 87.820312 247.789062 87.792969 247.953125 C 87.03125 252.148438 80.109375 251.769531 78.074219 251.5625 C 76.722656 256.25 74.015625 257.792969 71.949219 258.257812 C 70.472656 258.589844 69.265625 259.332031 68.550781 260.355469 C 54.816406 280.066406 45.3125 289.308594 38.644531 289.4375 C 38.597656 289.4375 38.550781 289.441406 38.5 289.441406 " fill-opacity="1" fill-rule="nonzero"/><path fill="#ffffff" d="M 90.125 215.425781 C 91.421875 216.074219 92.988281 215.808594 94.011719 214.777344 C 95.167969 213.613281 96.101562 212.378906 96.863281 211.128906 L 98.335938 211.15625 C 98.804688 211.167969 99.195312 210.800781 99.21875 210.328125 L 99.472656 204.578125 C 100.605469 202.726562 101.058594 201.164062 101.164062 199.902344 C 101.339844 197.765625 99.4375 193.925781 97.507812 192.984375 C 94.898438 191.710938 90.1875 191.019531 87.726562 194.722656 C 86.667969 196.3125 84.953125 197.453125 83.914062 197.269531 C 82.933594 197.097656 82.535156 196.257812 82.050781 195.390625 C 81.152344 193.773438 78.917969 192.253906 76.769531 194.808594 C 74.59375 197.398438 76.101562 199.777344 77.453125 201.761719 C 77.996094 202.5625 77.410156 204.785156 77.1875 205.730469 L 74.003906 219.296875 C 73.1875 222.785156 70.695312 225.640625 67.351562 226.921875 L 63.945312 228.230469 C 63.945312 228.230469 67.703125 239.652344 82.777344 239.328125 C 94.28125 239.082031 93.398438 229.640625 93.398438 229.640625 L 91.886719 228.972656 C 87.933594 227.226562 85.769531 222.921875 86.722656 218.707031 L 87.738281 214.226562 L 90.125 215.425781 " fill-opacity="1" fill-rule="nonzero"/><path fill="#000000" d="M 64.75 228.585938 C 65.710938 230.835938 70.085938 238.972656 82.765625 238.703125 C 86.363281 238.625 89.054688 237.617188 90.761719 235.703125 C 92.628906 233.605469 92.796875 230.992188 92.792969 230.054688 L 91.636719 229.542969 C 87.417969 227.683594 85.097656 223.066406 86.117188 218.566406 L 87.128906 214.089844 C 87.171875 213.902344 87.296875 213.746094 87.46875 213.664062 C 87.644531 213.582031 87.84375 213.582031 88.015625 213.671875 L 90.402344 214.867188 C 91.457031 215.394531 92.730469 215.179688 93.570312 214.335938 C 94.613281 213.285156 95.542969 212.097656 96.328125 210.804688 C 96.445312 210.617188 96.652344 210.5 96.875 210.503906 L 98.347656 210.535156 C 98.472656 210.527344 98.589844 210.433594 98.59375 210.300781 L 98.847656 204.550781 C 98.851562 204.445312 98.886719 204.34375 98.941406 204.25 C 99.890625 202.699219 100.429688 201.21875 100.542969 199.851562 C 100.707031 197.871094 98.851562 194.335938 97.234375 193.542969 C 95.152344 192.527344 90.59375 191.535156 88.246094 195.066406 C 87.207031 196.628906 85.300781 198.152344 83.804688 197.882812 C 82.59375 197.667969 82.0625 196.707031 81.597656 195.855469 L 81.507812 195.695312 C 81.121094 195.003906 80.335938 194.167969 79.386719 194.074219 C 78.65625 194 77.9375 194.386719 77.246094 195.210938 C 75.457031 197.339844 76.464844 199.199219 77.96875 201.410156 C 78.578125 202.308594 78.242188 204 77.847656 205.652344 L 77.792969 205.871094 L 74.609375 219.4375 C 73.746094 223.132812 71.113281 226.148438 67.574219 227.503906 Z M 82.160156 239.957031 C 67.320312 239.960938 63.390625 228.542969 63.351562 228.421875 C 63.246094 228.109375 63.410156 227.765625 63.722656 227.648438 L 67.125 226.339844 C 70.28125 225.128906 72.625 222.445312 73.398438 219.152344 L 76.632812 205.363281 C 76.796875 204.6875 77.289062 202.628906 76.9375 202.113281 C 75.667969 200.25 73.753906 197.429688 76.292969 194.40625 C 77.503906 192.96875 78.707031 192.757812 79.503906 192.832031 C 80.9375 192.972656 82.039062 194.089844 82.59375 195.085938 L 82.6875 195.253906 C 83.140625 196.078125 83.429688 196.550781 84.019531 196.65625 C 84.722656 196.777344 86.238281 195.832031 87.207031 194.378906 C 89.660156 190.683594 94.410156 190.777344 97.785156 192.425781 C 100.03125 193.523438 101.976562 197.664062 101.785156 199.953125 C 101.660156 201.476562 101.089844 203.09375 100.085938 204.765625 L 99.839844 210.359375 C 99.804688 211.171875 99.148438 211.78125 98.320312 211.78125 L 97.203125 211.757812 C 96.410156 213.019531 95.484375 214.179688 94.453125 215.214844 C 93.234375 216.445312 91.378906 216.753906 89.84375 215.984375 L 88.167969 215.140625 L 87.332031 218.84375 C 86.445312 222.761719 88.464844 226.78125 92.140625 228.402344 L 93.652344 229.070312 C 93.859375 229.160156 94 229.355469 94.019531 229.582031 C 94.035156 229.742188 94.355469 233.542969 91.691406 236.53125 C 89.746094 238.714844 86.75 239.867188 82.792969 239.953125 C 82.578125 239.957031 82.367188 239.957031 82.160156 239.957031 " fill-opacity="1" fill-rule="nonzero"/><path fill="#000000" d="M 121.488281 363.101562 L 88.800781 363.101562 C 86.972656 353.863281 84.929688 347.476562 83.804688 344.328125 C 83.277344 342.84375 82.953125 342.078125 82.953125 342.078125 L 82.503906 363.101562 L 52.054688 363.101562 C 51.621094 352.96875 51.578125 344.28125 51.695312 337.414062 C 51.820312 329.886719 52.128906 324.542969 52.320312 321.851562 C 52.414062 320.578125 53.097656 319.429688 54.167969 318.746094 C 76.84375 304.195312 98.871094 309.417969 105.1875 311.402344 C 106.328125 311.757812 107.242188 312.609375 107.699219 313.714844 C 109.027344 316.960938 112.046875 324.667969 115.074219 334.90625 C 117.480469 343.035156 119.894531 352.757812 121.488281 363.101562 " fill-opacity="1" fill-rule="nonzero"/><path fill="#caddff" d="M 84.070312 353.890625 C 83.734375 353.890625 83.460938 353.621094 83.449219 353.285156 L 83.105469 341.691406 C 83.03125 339.183594 84.210938 336.824219 86.265625 335.378906 L 91.261719 331.863281 C 91.542969 331.667969 91.933594 331.734375 92.132812 332.015625 C 92.328125 332.296875 92.261719 332.6875 91.980469 332.886719 L 86.980469 336.402344 C 85.273438 337.601562 84.289062 339.566406 84.351562 341.65625 L 84.695312 353.246094 C 84.707031 353.589844 84.433594 353.878906 84.089844 353.886719 C 84.085938 353.890625 84.078125 353.890625 84.070312 353.890625 " fill-opacity="1" fill-rule="nonzero"/></svg>