<svg xmlns="http://www.w3.org/2000/svg" xmlns:xlink="http://www.w3.org/1999/xlink" width="802" zoomAndPan="magnify" viewBox="0 0 601.5 127.500001" height="170" preserveAspectRatio="xMidYMid meet" version="1.0"><path fill="#5f6368" d="M 355.261719 71.078125 L 375.277344 62.75 C 374.171875 59.949219 370.867188 57.992188 366.96875 57.992188 C 361.960938 57.992188 355.007812 62.410156 355.261719 71.078125 M 378.746094 79.144531 L 386.375 84.238281 C 383.917969 87.890625 377.984375 94.175781 367.722656 94.175781 C 355.007812 94.175781 345.824219 84.316406 345.824219 71.753906 C 345.824219 58.410156 355.097656 49.324219 366.621094 49.324219 C 378.242188 49.324219 383.917969 58.585938 385.785156 63.601562 L 386.800781 66.148438 L 356.867188 78.542969 C 359.15625 83.046875 362.714844 85.34375 367.722656 85.34375 C 372.722656 85.34375 376.203125 82.875 378.746094 79.144531 M 330.238281 92.820312 L 340.070312 92.820312 L 340.070312 26.90625 L 330.238281 26.90625 Z M 314.1875 71.832031 C 314.1875 63.941406 308.925781 58.160156 302.226562 58.160156 C 295.445312 58.160156 289.761719 63.941406 289.761719 71.832031 C 289.761719 79.648438 295.445312 85.34375 302.226562 85.34375 C 308.925781 85.34375 314.1875 79.648438 314.1875 71.832031 Z M 322.832031 50.691406 L 322.832031 90.949219 C 322.832031 107.511719 313.082031 114.308594 301.546875 114.308594 C 290.691406 114.308594 284.164062 107.007812 281.707031 101.0625 L 290.273438 97.488281 C 291.800781 101.140625 295.535156 105.46875 301.558594 105.46875 C 308.9375 105.46875 313.519531 100.886719 313.519531 92.304688 L 313.519531 89.082031 L 313.179688 89.082031 C 310.976562 91.804688 306.730469 94.175781 301.394531 94.175781 C 290.195312 94.175781 279.9375 84.402344 279.9375 71.832031 C 279.9375 59.175781 290.195312 49.324219 301.394531 49.324219 C 306.742188 49.324219 310.976562 51.699219 313.179688 54.332031 L 313.519531 54.332031 L 313.519531 50.683594 C 313.507812 50.691406 322.832031 50.691406 322.832031 50.691406 Z M 215.492188 71.753906 C 215.492188 63.679688 209.75 58.167969 203.085938 58.167969 C 196.425781 58.167969 190.683594 63.6875 190.683594 71.753906 C 190.683594 79.734375 196.425781 85.34375 203.085938 85.34375 C 209.738281 85.34375 215.492188 79.734375 215.492188 71.753906 M 225.144531 71.753906 C 225.144531 84.664062 215.230469 94.175781 203.078125 94.175781 C 190.921875 94.175781 181.011719 84.664062 181.011719 71.753906 C 181.011719 58.757812 190.921875 49.335938 203.078125 49.335938 C 215.242188 49.335938 225.144531 58.757812 225.144531 71.753906 M 264.949219 71.753906 C 264.949219 63.679688 259.207031 58.167969 252.546875 58.167969 C 245.882812 58.167969 240.140625 63.6875 240.140625 71.753906 C 240.140625 79.734375 245.882812 85.34375 252.546875 85.34375 C 259.207031 85.34375 264.949219 79.734375 264.949219 71.753906 M 274.609375 71.753906 C 274.609375 84.664062 264.699219 94.175781 252.546875 94.175781 C 240.390625 94.175781 230.480469 84.664062 230.480469 71.753906 C 230.480469 58.757812 240.390625 49.335938 252.546875 49.335938 C 264.699219 49.335938 274.609375 58.757812 274.609375 71.753906 M 143.214844 94.175781 C 124.050781 94.175781 107.941406 78.542969 107.941406 59.351562 C 107.941406 40.15625 124.0625 24.523438 143.226562 24.523438 C 153.832031 24.523438 161.375 28.6875 167.058594 34.132812 L 160.359375 40.84375 C 156.289062 37.015625 150.777344 34.042969 143.226562 34.042969 C 129.234375 34.042969 118.289062 45.347656 118.289062 59.359375 C 118.289062 73.371094 129.234375 84.664062 143.226562 84.664062 C 152.296875 84.664062 157.46875 81.015625 160.785156 77.703125 C 163.503906 74.992188 165.28125 71.078125 165.957031 65.730469 L 143.226562 65.730469 L 143.226562 56.222656 L 175.191406 56.222656 C 175.539062 57.917969 175.703125 59.960938 175.703125 62.167969 C 175.703125 69.304688 173.75 78.136719 167.484375 84.421875 C 161.367188 90.785156 153.5625 94.175781 143.214844 94.175781 " fill-opacity="1" fill-rule="evenodd"/><path fill="#63666a" d="M 410.03125 92.199219 L 410.03125 33.6875 L 417.539062 33.6875 L 437.855469 69.316406 L 438.179688 69.316406 L 458.496094 33.6875 L 466.003906 33.6875 L 466.003906 92.199219 L 458.496094 92.199219 L 458.496094 57.46875 L 458.824219 47.660156 L 458.496094 47.660156 L 440.222656 79.777344 L 435.816406 79.777344 L 417.539062 47.660156 L 417.210938 47.660156 L 417.539062 57.46875 L 417.539062 92.199219 Z M 410.03125 92.199219 " fill-opacity="1" fill-rule="nonzero"/><path fill="#63666a" d="M 489.09375 93.507812 C 484.851562 93.507812 481.300781 92.28125 478.445312 89.828125 C 475.589844 87.378906 474.164062 84.148438 474.164062 80.105469 C 474.164062 75.734375 475.835938 72.339844 479.222656 69.847656 C 482.605469 67.355469 486.769531 66.128906 491.703125 66.128906 C 496.109375 66.128906 499.742188 66.949219 502.554688 68.582031 L 502.554688 67.4375 C 502.554688 64.496094 501.535156 62.125 499.535156 60.367188 C 497.539062 58.613281 495.050781 57.714844 492.113281 57.714844 C 489.949219 57.714844 487.953125 58.246094 486.195312 59.265625 C 484.441406 60.289062 483.21875 61.71875 482.566406 63.515625 L 475.710938 60.574219 C 476.652344 58.164062 478.445312 55.957031 481.179688 53.914062 C 483.914062 51.871094 487.503906 50.847656 491.949219 50.847656 C 497.046875 50.847656 501.292969 52.359375 504.675781 55.34375 C 508.0625 58.324219 509.734375 62.574219 509.734375 68.011719 L 509.734375 92.199219 L 502.554688 92.199219 L 502.554688 86.640625 L 502.230469 86.640625 C 499.25 91.21875 494.84375 93.507812 489.09375 93.507812 Z M 490.316406 86.640625 C 493.417969 86.640625 496.234375 85.5 498.761719 83.167969 C 501.292969 80.839844 502.554688 78.101562 502.554688 74.957031 C 500.433594 73.199219 497.253906 72.339844 493.011719 72.339844 C 489.378906 72.339844 486.605469 73.117188 484.769531 74.710938 C 482.933594 76.304688 481.996094 78.144531 481.996094 80.269531 C 481.996094 82.230469 482.851562 83.78125 484.523438 84.925781 C 486.195312 86.070312 488.15625 86.640625 490.316406 86.640625 Z M 490.316406 86.640625 " fill-opacity="1" fill-rule="nonzero"/><path fill="#63666a" d="M 538.984375 93.507812 C 535.925781 93.507812 533.191406 92.851562 530.785156 91.546875 C 528.378906 90.238281 526.542969 88.601562 525.359375 86.640625 L 525.035156 86.640625 L 525.359375 92.199219 L 525.359375 109.851562 L 517.855469 109.851562 L 517.855469 52.15625 L 525.035156 52.15625 L 525.035156 57.714844 L 525.359375 57.714844 C 526.542969 55.75 528.378906 54.117188 530.785156 52.808594 C 533.191406 51.503906 535.925781 50.847656 538.984375 50.847656 C 544.167969 50.847656 548.613281 52.890625 552.367188 56.976562 C 556.121094 61.0625 557.996094 66.128906 557.996094 72.175781 C 557.996094 78.226562 556.121094 83.292969 552.367188 87.378906 C 548.613281 91.464844 544.167969 93.507812 538.984375 93.507812 Z M 537.761719 86.640625 C 541.230469 86.640625 544.25 85.335938 546.738281 82.679688 C 549.226562 80.023438 550.488281 76.550781 550.488281 72.175781 C 550.488281 67.804688 549.226562 64.332031 546.738281 61.675781 C 544.25 59.019531 541.230469 57.714844 537.761719 57.714844 C 534.214844 57.714844 531.234375 59.019531 528.746094 61.636719 C 526.257812 64.25 525.035156 67.765625 525.035156 72.175781 C 525.035156 76.589844 526.257812 80.105469 528.746094 82.71875 C 531.234375 85.335938 534.253906 86.640625 537.761719 86.640625 Z M 537.761719 86.640625 " fill-opacity="1" fill-rule="nonzero"/><path fill="#63666a" d="M 579.742188 93.507812 C 575.292969 93.507812 571.582031 92.402344 568.683594 90.238281 C 565.789062 88.074219 563.625 85.335938 562.28125 82.066406 L 568.96875 79.289062 C 571.089844 84.3125 574.722656 86.804688 579.820312 86.804688 C 582.148438 86.804688 584.066406 86.273438 585.574219 85.253906 C 587.082031 84.230469 587.816406 82.84375 587.816406 81.167969 C 587.816406 78.550781 585.980469 76.792969 582.351562 75.855469 L 574.273438 73.894531 C 571.703125 73.238281 569.296875 72.015625 567.011719 70.175781 C 564.726562 68.335938 563.585938 65.886719 563.585938 62.78125 C 563.585938 59.226562 565.136719 56.363281 568.277344 54.15625 C 571.417969 51.953125 575.128906 50.847656 579.414062 50.847656 C 582.964844 50.847656 586.105469 51.664062 588.878906 53.257812 C 591.652344 54.851562 593.652344 57.183594 594.835938 60.164062 L 588.308594 62.863281 C 586.839844 59.304688 583.777344 57.550781 579.167969 57.550781 C 576.925781 57.550781 575.046875 58 573.539062 58.9375 C 572.03125 59.878906 571.253906 61.105469 571.253906 62.699219 C 571.253906 64.984375 573.007812 66.539062 576.558594 67.355469 L 584.472656 69.234375 C 588.226562 70.09375 591 71.605469 592.792969 73.730469 C 594.589844 75.855469 595.488281 78.265625 595.488281 80.921875 C 595.488281 84.515625 594.019531 87.5 591.082031 89.910156 C 588.144531 92.28125 584.351562 93.507812 579.738281 93.507812 Z M 579.742188 93.507812 " fill-opacity="1" fill-rule="nonzero"/><path fill="#34a853" d="M 28.320312 86.535156 C 31.65625 90.707031 35.042969 95.9375 36.820312 99.105469 C 38.988281 103.21875 39.875 106 41.492188 110.957031 C 42.4375 113.6875 43.328125 114.523438 45.214844 114.523438 C 47.273438 114.523438 48.210938 113.128906 48.9375 110.957031 C 50.433594 106.28125 51.605469 102.726562 53.433594 99.328125 C 57.039062 92.820312 61.601562 87.027344 66.039062 81.46875 C 67.257812 79.910156 75.042969 70.730469 78.542969 63.445312 C 78.542969 63.445312 82.816406 55.484375 82.816406 44.355469 C 82.816406 33.957031 78.589844 26.722656 78.589844 26.722656 L 66.371094 30.003906 L 58.925781 49.585938 L 57.085938 52.261719 L 56.699219 52.761719 L 56.199219 53.375 L 55.367188 54.371094 L 54.148438 55.589844 L 47.535156 60.984375 L 31.039062 70.554688 Z M 28.320312 86.535156 " fill-opacity="1" fill-rule="nonzero"/><path fill="#fbbc04" d="M 11.265625 62.109375 C 15.316406 71.347656 23.042969 79.414062 28.320312 86.535156 L 56.265625 53.375 C 56.265625 53.375 52.320312 58.546875 45.214844 58.546875 C 37.265625 58.546875 30.824219 52.203125 30.824219 44.191406 C 30.824219 38.683594 34.101562 34.90625 34.101562 34.90625 L 15.152344 39.96875 Z M 11.265625 62.109375 " fill-opacity="1" fill-rule="nonzero"/><path fill="#4285f4" d="M 56.59375 8.195312 C 65.867188 11.199219 73.816406 17.484375 78.589844 26.78125 L 56.253906 53.433594 C 56.253906 53.433594 59.535156 49.597656 59.535156 44.144531 C 59.535156 35.960938 52.648438 29.792969 45.203125 29.792969 C 38.144531 29.792969 34.09375 34.914062 34.09375 34.914062 L 34.09375 18.101562 Z M 56.59375 8.195312 " fill-opacity="1" fill-rule="nonzero"/><path fill="#1a73e8" d="M 16.371094 19.933594 C 21.921875 13.308594 31.648438 6.472656 45.085938 6.472656 C 51.585938 6.472656 56.527344 8.195312 56.527344 8.195312 L 34.09375 34.90625 L 18.207031 34.90625 Z M 16.371094 19.933594 " fill-opacity="1" fill-rule="nonzero"/><path fill="#ea4335" d="M 11.265625 62.109375 C 11.265625 62.109375 7.601562 54.816406 7.601562 44.308594 C 7.601562 34.351562 11.488281 25.667969 16.429688 19.992188 L 34.152344 34.953125 Z M 11.265625 62.109375 " fill-opacity="1" fill-rule="nonzero"/></svg>