<svg xmlns="http://www.w3.org/2000/svg" xmlns:xlink="http://www.w3.org/1999/xlink" width="1920" zoomAndPan="magnify" viewBox="0 0 1440 329.999987" height="440" preserveAspectRatio="xMidYMid meet" version="1.0"><defs><g/><clipPath id="e666feee4a"><path d="M 480 2 L 960 2 L 960 328 L 480 328 Z M 480 2 " clip-rule="nonzero"/></clipPath><clipPath id="7b3b8c3161"><path d="M 477.933594 60.050781 L 926.988281 -0.136719 L 963.070312 269.089844 L 514.015625 329.273438 Z M 477.933594 60.050781 " clip-rule="nonzero"/></clipPath><clipPath id="b0dfffc2b7"><path d="M 495.03125 57.757812 L 908.886719 2.289062 C 918.328125 1.027344 927.011719 7.652344 928.277344 17.097656 L 959.777344 252.125 C 961.042969 261.566406 954.414062 270.25 944.96875 271.515625 L 531.113281 326.980469 C 521.671875 328.246094 512.988281 321.617188 511.722656 312.175781 L 480.222656 77.148438 C 478.957031 67.703125 485.585938 59.023438 495.03125 57.757812 Z M 495.03125 57.757812 " clip-rule="nonzero"/></clipPath></defs><g clip-path="url(#e666feee4a)"><g clip-path="url(#7b3b8c3161)"><g clip-path="url(#b0dfffc2b7)"><path fill="#1a2d4b" d="M 477.933594 60.050781 L 925.9375 0.0078125 L 962.019531 269.230469 L 514.015625 329.273438 Z M 477.933594 60.050781 " fill-opacity="1" fill-rule="nonzero"/></g></g></g><g fill="#ffffff" fill-opacity="1"><g transform="translate(537.84177, 197.842033)"><g><path d="M 25 -3.34375 C 22.445312 -6.707031 19.742188 -10.003906 16.890625 -13.234375 C 14.035156 -16.460938 11.050781 -19.46875 7.9375 -22.25 L 10.734375 -1.4375 L 3.671875 -0.484375 L -0.59375 -32.265625 L 5.234375 -33.046875 C 6.378906 -32.171875 7.660156 -31.082031 9.078125 -29.78125 C 10.503906 -28.476562 11.957031 -27.078125 13.4375 -25.578125 C 14.925781 -24.078125 16.414062 -22.519531 17.90625 -20.90625 C 19.40625 -19.289062 20.816406 -17.734375 22.140625 -16.234375 L 19.625 -34.984375 L 26.734375 -35.9375 L 31 -4.15625 Z M 25 -3.34375 "/></g></g></g><g fill="#ffffff" fill-opacity="1"><g transform="translate(572.508587, 193.195759)"><g><path d="M 0.46875 -12.15625 C 0.1875 -14.289062 0.265625 -16.207031 0.703125 -17.90625 C 1.148438 -19.601562 1.835938 -21.054688 2.765625 -22.265625 C 3.691406 -23.472656 4.8125 -24.445312 6.125 -25.1875 C 7.4375 -25.925781 8.828125 -26.394531 10.296875 -26.59375 C 13.722656 -27.050781 16.570312 -26.363281 18.84375 -24.53125 C 21.113281 -22.695312 22.519531 -19.75 23.0625 -15.6875 C 23.113281 -15.289062 23.15625 -14.851562 23.1875 -14.375 C 23.21875 -13.894531 23.242188 -13.472656 23.265625 -13.109375 L 7.765625 -11.03125 C 8.109375 -9.644531 8.914062 -8.617188 10.1875 -7.953125 C 11.457031 -7.285156 13.070312 -7.082031 15.03125 -7.34375 C 16.28125 -7.507812 17.492188 -7.785156 18.671875 -8.171875 C 19.847656 -8.566406 20.796875 -8.984375 21.515625 -9.421875 L 23.1875 -4 C 22.84375 -3.757812 22.375 -3.503906 21.78125 -3.234375 C 21.195312 -2.972656 20.535156 -2.722656 19.796875 -2.484375 C 19.066406 -2.242188 18.28125 -2.019531 17.4375 -1.8125 C 16.59375 -1.613281 15.742188 -1.457031 14.890625 -1.34375 C 12.710938 -1.050781 10.78125 -1.117188 9.09375 -1.546875 C 7.40625 -1.972656 5.957031 -2.671875 4.75 -3.640625 C 3.550781 -4.617188 2.597656 -5.835938 1.890625 -7.296875 C 1.179688 -8.765625 0.707031 -10.382812 0.46875 -12.15625 Z M 16.1875 -16.921875 C 16.070312 -17.492188 15.890625 -18.046875 15.640625 -18.578125 C 15.398438 -19.109375 15.078125 -19.5625 14.671875 -19.9375 C 14.265625 -20.320312 13.769531 -20.613281 13.1875 -20.8125 C 12.613281 -21.019531 11.929688 -21.070312 11.140625 -20.96875 C 10.378906 -20.863281 9.742188 -20.644531 9.234375 -20.3125 C 8.722656 -19.976562 8.3125 -19.566406 8 -19.078125 C 7.6875 -18.597656 7.46875 -18.0625 7.34375 -17.46875 C 7.21875 -16.882812 7.148438 -16.300781 7.140625 -15.71875 Z M 16.1875 -16.921875 "/></g></g></g><g fill="#ffffff" fill-opacity="1"><g transform="translate(599.288245, 189.606573)"><g><path d="M 9.765625 -1.3125 C 7.804688 -4.15625 5.75 -7.515625 3.59375 -11.390625 C 1.4375 -15.273438 -0.679688 -19.535156 -2.765625 -24.171875 L 4.46875 -25.140625 C 4.925781 -23.992188 5.457031 -22.753906 6.0625 -21.421875 C 6.664062 -20.097656 7.285156 -18.75 7.921875 -17.375 C 8.554688 -16.007812 9.179688 -14.679688 9.796875 -13.390625 C 10.421875 -12.109375 11.023438 -10.945312 11.609375 -9.90625 C 11.847656 -11.0625 12.109375 -12.34375 12.390625 -13.75 C 12.679688 -15.15625 12.945312 -16.597656 13.1875 -18.078125 C 13.4375 -19.566406 13.671875 -21.03125 13.890625 -22.46875 C 14.117188 -23.914062 14.3125 -25.253906 14.46875 -26.484375 L 21.53125 -27.421875 C 20.738281 -22.410156 19.816406 -17.75 18.765625 -13.4375 C 17.710938 -9.125 16.609375 -5.335938 15.453125 -2.078125 Z M 9.765625 -1.3125 "/></g></g></g><g fill="#ffffff" fill-opacity="1"><g transform="translate(624.508819, 186.226346)"><g><path d="M 0.46875 -12.15625 C 0.1875 -14.289062 0.265625 -16.207031 0.703125 -17.90625 C 1.148438 -19.601562 1.835938 -21.054688 2.765625 -22.265625 C 3.691406 -23.472656 4.8125 -24.445312 6.125 -25.1875 C 7.4375 -25.925781 8.828125 -26.394531 10.296875 -26.59375 C 13.722656 -27.050781 16.570312 -26.363281 18.84375 -24.53125 C 21.113281 -22.695312 22.519531 -19.75 23.0625 -15.6875 C 23.113281 -15.289062 23.15625 -14.851562 23.1875 -14.375 C 23.21875 -13.894531 23.242188 -13.472656 23.265625 -13.109375 L 7.765625 -11.03125 C 8.109375 -9.644531 8.914062 -8.617188 10.1875 -7.953125 C 11.457031 -7.285156 13.070312 -7.082031 15.03125 -7.34375 C 16.28125 -7.507812 17.492188 -7.785156 18.671875 -8.171875 C 19.847656 -8.566406 20.796875 -8.984375 21.515625 -9.421875 L 23.1875 -4 C 22.84375 -3.757812 22.375 -3.503906 21.78125 -3.234375 C 21.195312 -2.972656 20.535156 -2.722656 19.796875 -2.484375 C 19.066406 -2.242188 18.28125 -2.019531 17.4375 -1.8125 C 16.59375 -1.613281 15.742188 -1.457031 14.890625 -1.34375 C 12.710938 -1.050781 10.78125 -1.117188 9.09375 -1.546875 C 7.40625 -1.972656 5.957031 -2.671875 4.75 -3.640625 C 3.550781 -4.617188 2.597656 -5.835938 1.890625 -7.296875 C 1.179688 -8.765625 0.707031 -10.382812 0.46875 -12.15625 Z M 16.1875 -16.921875 C 16.070312 -17.492188 15.890625 -18.046875 15.640625 -18.578125 C 15.398438 -19.109375 15.078125 -19.5625 14.671875 -19.9375 C 14.265625 -20.320312 13.769531 -20.613281 13.1875 -20.8125 C 12.613281 -21.019531 11.929688 -21.070312 11.140625 -20.96875 C 10.378906 -20.863281 9.742188 -20.644531 9.234375 -20.3125 C 8.722656 -19.976562 8.3125 -19.566406 8 -19.078125 C 7.6875 -18.597656 7.46875 -18.0625 7.34375 -17.46875 C 7.21875 -16.882812 7.148438 -16.300781 7.140625 -15.71875 Z M 16.1875 -16.921875 "/></g></g></g><g fill="#ffffff" fill-opacity="1"><g transform="translate(651.288477, 182.637161)"><g><path d="M 15.328125 -20.453125 C 14.691406 -20.515625 13.953125 -20.570312 13.109375 -20.625 C 12.265625 -20.6875 11.367188 -20.65625 10.421875 -20.53125 C 9.992188 -20.46875 9.484375 -20.359375 8.890625 -20.203125 C 8.304688 -20.046875 7.863281 -19.898438 7.5625 -19.765625 L 10.03125 -1.34375 L 3.203125 -0.421875 L 0.140625 -23.265625 C 1.316406 -23.859375 2.707031 -24.457031 4.3125 -25.0625 C 5.925781 -25.664062 7.757812 -26.109375 9.8125 -26.390625 C 10.175781 -26.429688 10.617188 -26.460938 11.140625 -26.484375 C 11.671875 -26.515625 12.203125 -26.523438 12.734375 -26.515625 C 13.265625 -26.503906 13.796875 -26.476562 14.328125 -26.4375 C 14.867188 -26.40625 15.332031 -26.335938 15.71875 -26.234375 Z M 15.328125 -20.453125 "/></g></g></g><g fill="#ffffff" fill-opacity="1"><g transform="translate(670.639537, 180.043604)"><g><path d="M 24.078125 -9.484375 L 24.90625 -3.34375 L 3.671875 -0.484375 L -0.59375 -32.265625 L 6.5625 -33.234375 L 10 -7.59375 Z M 24.078125 -9.484375 "/></g></g></g><g fill="#ffffff" fill-opacity="1"><g transform="translate(696.456225, 176.583482)"><g><path d="M 24.140625 -15.5625 C 24.398438 -13.664062 24.359375 -11.890625 24.015625 -10.234375 C 23.671875 -8.585938 23.054688 -7.132812 22.171875 -5.875 C 21.285156 -4.625 20.15625 -3.597656 18.78125 -2.796875 C 17.40625 -1.992188 15.816406 -1.472656 14.015625 -1.234375 C 12.242188 -0.992188 10.59375 -1.078125 9.0625 -1.484375 C 7.53125 -1.898438 6.171875 -2.597656 4.984375 -3.578125 C 3.796875 -4.554688 2.804688 -5.796875 2.015625 -7.296875 C 1.222656 -8.796875 0.695312 -10.492188 0.4375 -12.390625 C 0.1875 -14.273438 0.253906 -16.035156 0.640625 -17.671875 C 1.035156 -19.316406 1.679688 -20.757812 2.578125 -22 C 3.484375 -23.238281 4.617188 -24.257812 5.984375 -25.0625 C 7.359375 -25.875 8.90625 -26.398438 10.625 -26.640625 C 12.375 -26.867188 14.007812 -26.769531 15.53125 -26.34375 C 17.0625 -25.925781 18.421875 -25.238281 19.609375 -24.28125 C 20.804688 -23.320312 21.796875 -22.097656 22.578125 -20.609375 C 23.367188 -19.128906 23.890625 -17.445312 24.140625 -15.5625 Z M 17.171875 -14.625 C 16.890625 -16.726562 16.25 -18.328125 15.25 -19.421875 C 14.25 -20.523438 12.96875 -20.972656 11.40625 -20.765625 C 9.84375 -20.546875 8.710938 -19.773438 8.015625 -18.453125 C 7.328125 -17.128906 7.125 -15.414062 7.40625 -13.3125 C 7.6875 -11.195312 8.335938 -9.578125 9.359375 -8.453125 C 10.378906 -7.335938 11.671875 -6.890625 13.234375 -7.109375 C 14.796875 -7.316406 15.910156 -8.09375 16.578125 -9.4375 C 17.253906 -10.78125 17.453125 -12.507812 17.171875 -14.625 Z M 17.171875 -14.625 "/></g></g></g><g fill="#ffffff" fill-opacity="1"><g transform="translate(724.290558, 172.852942)"><g><path d="M 9.46875 -6.265625 C 10.726562 -6.429688 11.597656 -6.671875 12.078125 -6.984375 C 12.566406 -7.296875 12.765625 -7.800781 12.671875 -8.5 C 12.585938 -9.0625 12.179688 -9.503906 11.453125 -9.828125 C 10.734375 -10.148438 9.65625 -10.476562 8.21875 -10.8125 C 7.082031 -11.0625 6.050781 -11.335938 5.125 -11.640625 C 4.207031 -11.953125 3.398438 -12.363281 2.703125 -12.875 C 2.015625 -13.394531 1.445312 -14.046875 1 -14.828125 C 0.550781 -15.617188 0.253906 -16.59375 0.109375 -17.75 C -0.203125 -20.007812 0.394531 -21.910156 1.90625 -23.453125 C 3.414062 -24.992188 5.632812 -25.960938 8.5625 -26.359375 C 10.03125 -26.554688 11.453125 -26.613281 12.828125 -26.53125 C 14.210938 -26.445312 15.320312 -26.3125 16.15625 -26.125 L 15.6875 -20.640625 C 14.84375 -20.796875 13.941406 -20.921875 12.984375 -21.015625 C 12.023438 -21.109375 10.960938 -21.078125 9.796875 -20.921875 C 7.660156 -20.640625 6.671875 -19.898438 6.828125 -18.703125 C 6.867188 -18.421875 6.945312 -18.179688 7.0625 -17.984375 C 7.1875 -17.785156 7.394531 -17.601562 7.6875 -17.4375 C 7.988281 -17.28125 8.390625 -17.113281 8.890625 -16.9375 C 9.398438 -16.769531 10.046875 -16.601562 10.828125 -16.4375 C 12.390625 -16.082031 13.695312 -15.703125 14.75 -15.296875 C 15.8125 -14.898438 16.664062 -14.425781 17.3125 -13.875 C 17.957031 -13.320312 18.441406 -12.675781 18.765625 -11.9375 C 19.097656 -11.207031 19.332031 -10.335938 19.46875 -9.328125 C 19.789062 -6.941406 19.132812 -5.019531 17.5 -3.5625 C 15.875 -2.101562 13.425781 -1.148438 10.15625 -0.703125 C 8.019531 -0.421875 6.21875 -0.367188 4.75 -0.546875 C 3.289062 -0.722656 2.265625 -0.894531 1.671875 -1.0625 L 2.078125 -6.765625 C 3.296875 -6.460938 4.535156 -6.265625 5.796875 -6.171875 C 7.054688 -6.078125 8.28125 -6.109375 9.46875 -6.265625 Z M 9.46875 -6.265625 "/></g></g></g><g fill="#ffffff" fill-opacity="1"><g transform="translate(746.530517, 169.872197)"><g><path d="M -1.0625 -30.53125 L 5.625 -32.53125 L 6.578125 -25.421875 L 14.796875 -26.53125 L 15.5625 -20.84375 L 7.34375 -19.734375 L 8.484375 -11.265625 C 8.671875 -9.828125 9.070312 -8.710938 9.6875 -7.921875 C 10.3125 -7.140625 11.382812 -6.851562 12.90625 -7.0625 C 13.644531 -7.15625 14.394531 -7.320312 15.15625 -7.5625 C 15.914062 -7.800781 16.601562 -8.09375 17.21875 -8.4375 L 18.890625 -3.234375 C 18.109375 -2.785156 17.226562 -2.367188 16.25 -1.984375 C 15.28125 -1.597656 14.0625 -1.304688 12.59375 -1.109375 C 10.726562 -0.859375 9.148438 -0.90625 7.859375 -1.25 C 6.578125 -1.59375 5.507812 -2.164062 4.65625 -2.96875 C 3.800781 -3.78125 3.132812 -4.8125 2.65625 -6.0625 C 2.1875 -7.3125 1.847656 -8.710938 1.640625 -10.265625 Z M -1.0625 -30.53125 "/></g></g></g><g fill="#ffffff" fill-opacity="1"><g transform="translate(766.890383, 167.143434)"><g/></g></g><g fill="#ffffff" fill-opacity="1"><g transform="translate(777.895722, 165.668426)"><g><path d="M -0.6875 -36.4375 L 5.828125 -37.3125 L 11.78125 7.0625 L 5.265625 7.9375 Z M -0.6875 -36.4375 "/></g></g></g><g fill="#ffffff" fill-opacity="1"><g transform="translate(792.661224, 163.689456)"><g/></g></g><g fill="#ffffff" fill-opacity="1"><g transform="translate(803.666563, 162.214449)"><g><path d="M 16.171875 -1.515625 C 13.941406 -1.210938 11.972656 -1.265625 10.265625 -1.671875 C 8.554688 -2.085938 7.101562 -2.78125 5.90625 -3.75 C 4.707031 -4.726562 3.75 -5.953125 3.03125 -7.421875 C 2.320312 -8.898438 1.84375 -10.570312 1.59375 -12.4375 L -1.0625 -32.203125 L 6.09375 -33.171875 L 8.671875 -14 C 8.835938 -12.71875 9.128906 -11.640625 9.546875 -10.765625 C 9.960938 -9.898438 10.457031 -9.21875 11.03125 -8.71875 C 11.613281 -8.226562 12.273438 -7.910156 13.015625 -7.765625 C 13.765625 -7.617188 14.570312 -7.601562 15.4375 -7.71875 C 17.175781 -7.945312 18.515625 -8.671875 19.453125 -9.890625 C 20.398438 -11.109375 20.703125 -13 20.359375 -15.5625 L 17.78125 -34.734375 L 24.9375 -35.703125 L 27.59375 -15.9375 C 27.84375 -14.070312 27.8125 -12.320312 27.5 -10.6875 C 27.1875 -9.050781 26.570312 -7.601562 25.65625 -6.34375 C 24.738281 -5.09375 23.492188 -4.050781 21.921875 -3.21875 C 20.347656 -2.382812 18.429688 -1.816406 16.171875 -1.515625 Z M 16.171875 -1.515625 "/></g></g></g><g fill="#ffffff" fill-opacity="1"><g transform="translate(836.086454, 157.869322)"><g><path d="M 9.46875 -6.265625 C 10.726562 -6.429688 11.597656 -6.671875 12.078125 -6.984375 C 12.566406 -7.296875 12.765625 -7.800781 12.671875 -8.5 C 12.585938 -9.0625 12.179688 -9.503906 11.453125 -9.828125 C 10.734375 -10.148438 9.65625 -10.476562 8.21875 -10.8125 C 7.082031 -11.0625 6.050781 -11.335938 5.125 -11.640625 C 4.207031 -11.953125 3.398438 -12.363281 2.703125 -12.875 C 2.015625 -13.394531 1.445312 -14.046875 1 -14.828125 C 0.550781 -15.617188 0.253906 -16.59375 0.109375 -17.75 C -0.203125 -20.007812 0.394531 -21.910156 1.90625 -23.453125 C 3.414062 -24.992188 5.632812 -25.960938 8.5625 -26.359375 C 10.03125 -26.554688 11.453125 -26.613281 12.828125 -26.53125 C 14.210938 -26.445312 15.320312 -26.3125 16.15625 -26.125 L 15.6875 -20.640625 C 14.84375 -20.796875 13.941406 -20.921875 12.984375 -21.015625 C 12.023438 -21.109375 10.960938 -21.078125 9.796875 -20.921875 C 7.660156 -20.640625 6.671875 -19.898438 6.828125 -18.703125 C 6.867188 -18.421875 6.945312 -18.179688 7.0625 -17.984375 C 7.1875 -17.785156 7.394531 -17.601562 7.6875 -17.4375 C 7.988281 -17.28125 8.390625 -17.113281 8.890625 -16.9375 C 9.398438 -16.769531 10.046875 -16.601562 10.828125 -16.4375 C 12.390625 -16.082031 13.695312 -15.703125 14.75 -15.296875 C 15.8125 -14.898438 16.664062 -14.425781 17.3125 -13.875 C 17.957031 -13.320312 18.441406 -12.675781 18.765625 -11.9375 C 19.097656 -11.207031 19.332031 -10.335938 19.46875 -9.328125 C 19.789062 -6.941406 19.132812 -5.019531 17.5 -3.5625 C 15.875 -2.101562 13.425781 -1.148438 10.15625 -0.703125 C 8.019531 -0.421875 6.21875 -0.367188 4.75 -0.546875 C 3.289062 -0.722656 2.265625 -0.894531 1.671875 -1.0625 L 2.078125 -6.765625 C 3.296875 -6.460938 4.535156 -6.265625 5.796875 -6.171875 C 7.054688 -6.078125 8.28125 -6.109375 9.46875 -6.265625 Z M 9.46875 -6.265625 "/></g></g></g><g fill="#ffffff" fill-opacity="1"><g transform="translate(858.326412, 154.888577)"><g><path d="M 0.46875 -12.15625 C 0.1875 -14.289062 0.265625 -16.207031 0.703125 -17.90625 C 1.148438 -19.601562 1.835938 -21.054688 2.765625 -22.265625 C 3.691406 -23.472656 4.8125 -24.445312 6.125 -25.1875 C 7.4375 -25.925781 8.828125 -26.394531 10.296875 -26.59375 C 13.722656 -27.050781 16.570312 -26.363281 18.84375 -24.53125 C 21.113281 -22.695312 22.519531 -19.75 23.0625 -15.6875 C 23.113281 -15.289062 23.15625 -14.851562 23.1875 -14.375 C 23.21875 -13.894531 23.242188 -13.472656 23.265625 -13.109375 L 7.765625 -11.03125 C 8.109375 -9.644531 8.914062 -8.617188 10.1875 -7.953125 C 11.457031 -7.285156 13.070312 -7.082031 15.03125 -7.34375 C 16.28125 -7.507812 17.492188 -7.785156 18.671875 -8.171875 C 19.847656 -8.566406 20.796875 -8.984375 21.515625 -9.421875 L 23.1875 -4 C 22.84375 -3.757812 22.375 -3.503906 21.78125 -3.234375 C 21.195312 -2.972656 20.535156 -2.722656 19.796875 -2.484375 C 19.066406 -2.242188 18.28125 -2.019531 17.4375 -1.8125 C 16.59375 -1.613281 15.742188 -1.457031 14.890625 -1.34375 C 12.710938 -1.050781 10.78125 -1.117188 9.09375 -1.546875 C 7.40625 -1.972656 5.957031 -2.671875 4.75 -3.640625 C 3.550781 -4.617188 2.597656 -5.835938 1.890625 -7.296875 C 1.179688 -8.765625 0.707031 -10.382812 0.46875 -12.15625 Z M 16.1875 -16.921875 C 16.070312 -17.492188 15.890625 -18.046875 15.640625 -18.578125 C 15.398438 -19.109375 15.078125 -19.5625 14.671875 -19.9375 C 14.265625 -20.320312 13.769531 -20.613281 13.1875 -20.8125 C 12.613281 -21.019531 11.929688 -21.070312 11.140625 -20.96875 C 10.378906 -20.863281 9.742188 -20.644531 9.234375 -20.3125 C 8.722656 -19.976562 8.3125 -19.566406 8 -19.078125 C 7.6875 -18.597656 7.46875 -18.0625 7.34375 -17.46875 C 7.21875 -16.882812 7.148438 -16.300781 7.140625 -15.71875 Z M 16.1875 -16.921875 "/></g></g></g><g fill="#ffffff" fill-opacity="1"><g transform="translate(885.10607, 151.299391)"><g><path d="M 15.328125 -20.453125 C 14.691406 -20.515625 13.953125 -20.570312 13.109375 -20.625 C 12.265625 -20.6875 11.367188 -20.65625 10.421875 -20.53125 C 9.992188 -20.46875 9.484375 -20.359375 8.890625 -20.203125 C 8.304688 -20.046875 7.863281 -19.898438 7.5625 -19.765625 L 10.03125 -1.34375 L 3.203125 -0.421875 L 0.140625 -23.265625 C 1.316406 -23.859375 2.707031 -24.457031 4.3125 -25.0625 C 5.925781 -25.664062 7.757812 -26.109375 9.8125 -26.390625 C 10.175781 -26.429688 10.617188 -26.460938 11.140625 -26.484375 C 11.671875 -26.515625 12.203125 -26.523438 12.734375 -26.515625 C 13.265625 -26.503906 13.796875 -26.476562 14.328125 -26.4375 C 14.867188 -26.40625 15.332031 -26.335938 15.71875 -26.234375 Z M 15.328125 -20.453125 "/></g></g></g><path stroke-linecap="butt" transform="matrix(0.75, 0, 0, 0.75, 0.0000283636, 159.011999)" fill="none" stroke-linejoin="miter" d="M -0.0000378182 7.499627 L 574.635425 7.499627 " stroke="#1a2d4b" stroke-width="15" stroke-opacity="1" stroke-miterlimit="4"/><path stroke-linecap="butt" transform="matrix(0.75, 0, 0, 0.75, 1009.023451, 159.011999)" fill="none" stroke-linejoin="miter" d="M -0.0000174288 7.499627 L 574.635446 7.499627 " stroke="#1a2d4b" stroke-width="15" stroke-opacity="1" stroke-miterlimit="4"/></svg>