<svg xmlns="http://www.w3.org/2000/svg" xmlns:xlink="http://www.w3.org/1999/xlink" width="1618" zoomAndPan="magnify" viewBox="0 0 1213.5 499.49999" height="666" preserveAspectRatio="xMidYMid meet" version="1.0"><defs><g/><clipPath id="d50bbf9fa3"><path d="M 12.394531 0 L 370.214844 0 L 370.214844 498.445312 L 12.394531 498.445312 Z M 12.394531 0 " clip-rule="nonzero"/></clipPath><clipPath id="be2a0d5357"><path d="M 85.066406 73.632812 L 297 73.632812 L 297 284 L 85.066406 284 Z M 85.066406 73.632812 " clip-rule="nonzero"/></clipPath><clipPath id="1208e9702f"><path d="M 182.425781 283.140625 C 175.785156 282.394531 167.96875 280.855469 167.578125 280.222656 C 167.34375 279.839844 168.421875 279.28125 169.980469 278.976562 C 173.703125 278.253906 173.769531 278.253906 179.464844 278.949219 C 182.703125 279.347656 184.570312 279.222656 184.964844 278.589844 C 185.382812 277.910156 186.582031 278.035156 189.023438 279.015625 C 192.132812 280.257812 194.5625 280.316406 198.59375 279.242188 C 199.359375 279.039062 199.796875 279.390625 199.648438 280.09375 C 199.46875 280.9375 199.859375 281.097656 200.960938 280.632812 C 201.820312 280.269531 203.703125 280.035156 205.148438 280.113281 L 207.769531 280.253906 L 205.664062 278.769531 L 203.554688 277.289062 L 205.554688 276.546875 C 206.832031 276.074219 207.996094 276.175781 208.773438 276.820312 C 210.339844 278.117188 221.089844 277.191406 225.410156 275.386719 C 227.121094 274.671875 229.75 274.074219 231.253906 274.054688 C 232.753906 274.039062 234.96875 273.464844 236.171875 272.777344 C 238.601562 271.386719 240.539062 271.109375 240.539062 272.144531 C 240.539062 272.933594 231.972656 276.75 224.375 279.347656 C 214.054688 282.875 195.171875 284.582031 182.425781 283.140625 Z M 205.765625 269.117188 C 202.628906 267.828125 200.875 264.707031 202.296875 262.945312 C 202.914062 262.175781 202.820312 261.847656 201.976562 261.839844 C 201.132812 261.828125 201.074219 261.636719 201.785156 261.183594 C 202.335938 260.832031 203.054688 258.574219 203.382812 256.171875 C 203.707031 253.769531 204.488281 250.03125 205.117188 247.871094 C 205.742188 245.707031 206.25 243.152344 206.246094 242.1875 C 206.230469 240.335938 206.996094 234.507812 207.890625 229.667969 C 208.605469 225.785156 206.878906 222.777344 202.730469 220.660156 C 200.886719 219.71875 199.167969 218.28125 198.90625 217.460938 C 197.605469 213.390625 194.585938 207.296875 192.175781 203.890625 C 189.824219 200.566406 191.429688 193.464844 195.316406 189.996094 C 197.660156 187.902344 198.0625 186.988281 197.828125 184.261719 C 197.671875 182.476562 197.230469 180.820312 196.84375 180.578125 C 196.453125 180.335938 196.097656 179.746094 196.054688 179.265625 C 196.007812 178.785156 195.476562 178.394531 194.878906 178.394531 C 194.277344 178.394531 193.878906 178.875 193.996094 179.460938 C 194.269531 180.847656 189.03125 179.878906 187.390625 178.242188 C 186.753906 177.605469 185.867188 177.082031 185.421875 177.082031 C 184.972656 177.082031 184.609375 176.5625 184.609375 175.925781 C 184.609375 174.050781 180.917969 171.203125 177.617188 170.527344 C 175.933594 170.183594 173.695312 169.109375 172.644531 168.144531 C 171.359375 166.964844 169.265625 166.308594 166.296875 166.148438 C 161.742188 165.902344 157.058594 163.671875 157.976562 162.1875 C 158.261719 161.726562 157.316406 161.351562 155.871094 161.351562 C 152.597656 161.351562 151.589844 159.886719 153.714844 158.222656 C 154.605469 157.527344 154.902344 157.0625 154.378906 157.1875 C 153.585938 157.378906 150.226562 153.96875 147.726562 150.429688 C 147.386719 149.945312 145.914062 148.175781 144.453125 146.496094 L 141.796875 143.4375 L 143.167969 146.277344 C 143.921875 147.839844 144.890625 149.117188 145.320312 149.117188 C 145.75 149.117188 145.890625 149.667969 145.632812 150.339844 C 145.375 151.011719 145.582031 151.820312 146.097656 152.140625 C 146.609375 152.457031 147.03125 153.34375 147.03125 154.109375 C 147.03125 155.324219 146.804688 155.300781 145.28125 153.921875 C 144.320312 153.054688 143.535156 151.800781 143.535156 151.140625 C 143.535156 150.476562 142.933594 149.707031 142.199219 149.421875 C 141.382812 149.109375 141.054688 148.296875 141.359375 147.339844 C 141.632812 146.476562 141.449219 145.515625 140.949219 145.207031 C 140.449219 144.898438 140.039062 143.9375 140.039062 143.074219 C 140.039062 142.214844 139.089844 140.484375 137.933594 139.234375 C 134.722656 135.769531 133.839844 130.171875 135.757812 125.441406 C 137.519531 121.101562 137.859375 117.65625 136.527344 117.65625 C 136.023438 117.65625 135.863281 116.746094 136.160156 115.566406 C 136.449219 114.417969 136.261719 113.214844 135.742188 112.894531 C 135.21875 112.570312 134.796875 112.917969 134.796875 113.671875 C 134.796875 114.421875 134.386719 115.035156 133.886719 115.035156 C 133.390625 115.035156 133.058594 114.148438 133.152344 113.066406 C 133.472656 109.335938 133.042969 108.042969 131.484375 108.042969 C 129.5 108.042969 123.335938 111.160156 122.433594 112.617188 C 122.058594 113.226562 121.441406 113.726562 121.0625 113.734375 C 120.683594 113.738281 118.558594 115.003906 116.335938 116.539062 C 114.113281 118.078125 112.066406 119.105469 111.78125 118.820312 C 111.5 118.539062 112.527344 117.460938 114.070312 116.421875 C 115.609375 115.386719 117.003906 113.761719 117.167969 112.820312 C 117.332031 111.875 118.90625 109.824219 120.667969 108.265625 C 122.429688 106.703125 123.128906 105.683594 122.222656 106 C 119.710938 106.875 120.898438 104.34375 123.625 103.015625 C 124.859375 102.414062 126.101562 101.035156 126.390625 99.957031 C 127.082031 97.359375 133.117188 93.195312 136.246094 93.15625 C 137.609375 93.140625 141.085938 92.625 143.972656 92.011719 C 146.855469 91.398438 150.664062 90.996094 152.433594 91.113281 C 155.078125 91.292969 155.632812 91.050781 155.53125 89.742188 C 155.4375 88.453125 155.125 88.332031 153.882812 89.105469 C 153.042969 89.632812 152.082031 89.792969 151.75 89.460938 C 150.917969 88.625 153.078125 86.195312 154.660156 86.195312 C 155.417969 86.195312 155.757812 85.683594 155.480469 84.957031 C 155.167969 84.140625 156.105469 83.234375 158.226562 82.296875 C 160 81.519531 160.664062 81.058594 159.703125 81.277344 C 157.394531 81.804688 152.222656 83.613281 150.320312 84.566406 C 149.484375 84.980469 148.011719 85.320312 147.042969 85.320312 C 146.074219 85.320312 145.28125 85.667969 145.28125 86.09375 C 145.28125 86.851562 139.054688 89.351562 134.796875 90.300781 C 132.902344 90.722656 133.019531 90.503906 135.667969 88.683594 C 145.132812 82.179688 153.542969 78.597656 166.511719 75.554688 C 173.15625 73.992188 177.296875 73.660156 190.289062 73.636719 C 205.964844 73.609375 217.726562 75.019531 215.144531 76.613281 C 214.5 77.011719 213.640625 77.136719 213.238281 76.886719 C 212.835938 76.640625 208.421875 76.316406 203.429688 76.171875 C 195.8125 75.953125 194.433594 76.113281 194.839844 77.171875 C 195.105469 77.863281 195.816406 78.242188 196.417969 78.011719 C 197.917969 77.433594 204.976562 81.117188 209.542969 84.859375 C 211.613281 86.554688 213.636719 87.941406 214.039062 87.941406 C 214.445312 87.941406 215.285156 88.761719 215.910156 89.757812 C 216.902344 91.351562 216.832031 91.632812 215.332031 92.023438 C 213.082031 92.613281 212.46875 96.164062 213.910156 100.25 C 214.542969 102.046875 214.871094 103.707031 214.640625 103.9375 C 213.839844 104.738281 208.675781 101.59375 205.308594 98.261719 C 203.457031 96.425781 201.519531 95.183594 201.003906 95.5 C 200.488281 95.820312 200.320312 95.671875 200.632812 95.167969 C 200.941406 94.667969 200.589844 93.757812 199.855469 93.144531 C 199.117188 92.535156 198.714844 91.503906 198.960938 90.863281 C 199.214844 90.203125 198.835938 89.691406 198.101562 89.691406 C 197.378906 89.691406 196.5625 89.101562 196.285156 88.378906 C 196.007812 87.660156 195.363281 87.070312 194.851562 87.070312 C 194.339844 87.070312 193.285156 86.492188 192.503906 85.785156 C 191.460938 84.839844 190.40625 84.707031 188.503906 85.273438 C 187.082031 85.699219 186.441406 86.078125 187.082031 86.121094 C 188.964844 86.242188 195.222656 93.089844 194.953125 94.734375 C 194.816406 95.566406 194.960938 96.65625 195.277344 97.160156 C 195.597656 97.664062 195.5 98.648438 195.0625 99.347656 C 194.390625 100.425781 193.710938 100.320312 190.535156 98.644531 C 188.476562 97.5625 186.128906 96.679688 185.316406 96.679688 C 183.335938 96.683594 182.417969 95.050781 184.050781 94.425781 C 184.765625 94.148438 185.574219 93.339844 185.847656 92.625 C 186.222656 91.648438 185.910156 91.460938 184.605469 91.878906 C 183.320312 92.285156 182.863281 92.03125 182.863281 90.914062 C 182.863281 90.082031 182.601562 89.660156 182.285156 89.976562 C 181.96875 90.292969 181.28125 90.195312 180.757812 89.757812 C 180.097656 89.210938 179.804688 89.910156 179.8125 92.019531 C 179.820312 94.011719 180.355469 95.367188 181.359375 95.929688 C 182.207031 96.402344 182.714844 97.085938 182.488281 97.453125 C 182.265625 97.816406 183.140625 97.960938 184.4375 97.773438 C 186.027344 97.539062 188.074219 98.292969 190.726562 100.085938 C 193.757812 102.132812 194.722656 102.449219 194.941406 101.460938 C 195.371094 99.507812 196.191406 99.871094 199.914062 103.683594 C 201.796875 105.613281 203.71875 107.0625 204.1875 106.90625 C 205.171875 106.578125 207.453125 108.707031 209.558594 111.917969 C 211.03125 114.164062 213.167969 115.125 212.121094 113.070312 C 211.816406 112.46875 212.382812 112.90625 213.382812 114.039062 C 214.378906 115.175781 215.191406 116.746094 215.183594 117.535156 C 215.171875 118.777344 215.058594 118.796875 214.320312 117.65625 C 213.570312 116.492188 213.464844 116.492188 213.394531 117.65625 C 213.335938 118.554688 213.171875 118.625 212.871094 117.875 C 212.164062 116.128906 208.378906 116.507812 208.519531 118.3125 C 208.597656 119.28125 207.921875 119.941406 206.675781 120.121094 C 205.59375 120.273438 204.710938 120.816406 204.710938 121.328125 C 204.710938 121.90625 203.390625 122.078125 201.214844 121.789062 C 198.359375 121.40625 197.714844 121.582031 197.699219 122.765625 C 197.6875 123.558594 196.910156 125.195312 195.96875 126.394531 C 195.03125 127.597656 194.253906 129.121094 194.242188 129.78125 C 194.226562 130.796875 193.992188 130.796875 192.707031 129.78125 C 191.304688 128.667969 191.304688 128.757812 192.742188 131.007812 C 194.453125 133.683594 194.15625 134.566406 190.546875 137.605469 C 188.082031 139.679688 187.277344 143.257812 189.03125 144.34375 C 190.316406 145.136719 191.726562 149.082031 191.09375 150.105469 C 190.335938 151.332031 188.035156 149.164062 186.695312 145.957031 C 185.867188 143.976562 184.800781 143.082031 182.789062 142.679688 C 178.496094 141.820312 176.742188 142.015625 176.742188 143.355469 C 176.742188 144.144531 176.132812 144.425781 175.03125 144.136719 C 173.050781 143.617188 167.734375 146.648438 165.820312 149.382812 C 164.136719 151.789062 164.15625 154.667969 165.886719 158.3125 C 167.496094 161.703125 168.800781 162.375 172.394531 161.652344 C 174.195312 161.292969 175.183594 160.476562 175.539062 159.054688 C 175.824219 157.914062 176.507812 156.953125 177.058594 156.914062 C 177.605469 156.878906 178.742188 156.71875 179.582031 156.558594 C 181.859375 156.121094 182.226562 157.484375 180.648438 160.535156 C 179.871094 162.035156 179.457031 163.484375 179.730469 163.757812 C 180.003906 164.027344 179.773438 164.792969 179.222656 165.457031 C 178.390625 166.460938 178.785156 166.605469 181.519531 166.304688 C 186.929688 165.707031 188 166.328125 187.949219 170.046875 C 187.859375 176.316406 189.898438 178.929688 193.410156 177.050781 C 194.570312 176.429688 195.625 176.429688 196.785156 177.050781 C 199.035156 178.253906 199.140625 178.234375 201.050781 176.183594 C 201.957031 175.207031 203.449219 174.257812 204.359375 174.074219 C 205.273438 173.890625 206.773438 173.441406 207.691406 173.078125 C 208.867188 172.613281 209.175781 172.722656 208.734375 173.4375 C 208.386719 174 208.519531 174.460938 209.027344 174.460938 C 209.535156 174.460938 209.953125 174.089844 209.953125 173.640625 C 209.953125 173.1875 211.003906 173.363281 212.292969 174.03125 C 213.582031 174.699219 215.019531 175.007812 215.488281 174.71875 C 215.957031 174.429688 216.085938 174.601562 215.777344 175.101562 C 215.46875 175.601562 216.097656 176.246094 217.171875 176.535156 C 219.921875 177.273438 220.621094 177.207031 220.039062 176.269531 C 219.761719 175.820312 219.996094 175.171875 220.558594 174.824219 C 221.199219 174.429688 221.347656 174.570312 220.960938 175.199219 C 220.378906 176.136719 221.597656 176.554688 224.589844 176.445312 C 225.191406 176.421875 225.691406 177.046875 225.699219 177.835938 C 225.722656 179.839844 231.675781 184.546875 235.03125 185.207031 C 238.414062 185.875 241.414062 188.285156 241.414062 190.335938 C 241.414062 191.160156 241.832031 192.09375 242.34375 192.410156 C 242.953125 192.789062 242.734375 193.636719 241.710938 194.867188 C 240.851562 195.898438 240.703125 196.257812 241.382812 195.664062 C 242.382812 194.785156 243.664062 195.15625 248.164062 197.628906 C 251.214844 199.308594 254.421875 200.679688 255.289062 200.679688 C 256.160156 200.679688 257.5625 201.4375 258.402344 202.367188 C 259.242188 203.296875 260.484375 203.84375 261.160156 203.585938 C 262.046875 203.242188 262.386719 203.84375 262.386719 205.757812 C 262.386719 207.621094 261.242188 209.746094 258.5 212.957031 C 256.359375 215.460938 254.34375 218.738281 254.019531 220.238281 C 253.121094 224.371094 249.199219 229.363281 246 230.441406 C 244.4375 230.96875 243.160156 231.953125 243.160156 232.625 C 243.160156 233.296875 242.078125 234.542969 240.757812 235.390625 C 239.4375 236.242188 237.644531 237.816406 236.777344 238.886719 C 232.488281 244.195312 227.8125 247.917969 225.867188 247.578125 C 224.355469 247.3125 223.925781 247.59375 224.117188 248.722656 C 224.390625 250.332031 222.507812 253.113281 221.148438 253.113281 C 220.695312 253.113281 218.183594 254.957031 215.574219 257.214844 C 212.417969 259.9375 211.175781 261.53125 211.871094 261.957031 C 212.605469 262.414062 212.28125 263.144531 210.777344 264.414062 C 208.773438 266.109375 208.738281 266.296875 210.171875 267.410156 C 211.011719 268.066406 211.699219 268.804688 211.699219 269.058594 C 211.699219 270.164062 208.398438 270.199219 205.765625 269.117188 Z M 202.25 118.808594 C 201.621094 118.554688 200.867188 118.585938 200.578125 118.875 C 200.285156 119.167969 200.800781 119.375 201.722656 119.335938 C 202.742188 119.292969 202.949219 119.085938 202.25 118.808594 Z M 208.175781 114.84375 C 208.191406 114.496094 207.613281 114.441406 206.894531 114.71875 C 206.128906 115.011719 205.578125 114.730469 205.570312 114.035156 C 205.558594 113.070312 205.410156 113.078125 204.777344 114.082031 C 204.304688 114.828125 204.375 116.136719 204.953125 117.40625 L 205.90625 119.5 L 207.023438 117.484375 C 207.640625 116.378906 208.15625 115.1875 208.175781 114.84375 Z M 180.238281 117.300781 C 180.238281 117.125 179.339844 116.394531 178.242188 115.675781 C 176.449219 114.5 176.058594 114.515625 174.441406 115.828125 C 172.6875 117.246094 172.742188 117.292969 176.4375 117.453125 C 178.527344 117.542969 180.238281 117.476562 180.238281 117.300781 Z M 178.136719 112.800781 C 176.550781 111.644531 176.546875 111.558594 178.054688 110.980469 C 178.921875 110.648438 181.109375 110.769531 182.914062 111.25 C 185.695312 111.992188 186.117188 111.925781 185.6875 110.816406 C 185.363281 109.964844 185.542969 109.726562 186.203125 110.132812 C 186.761719 110.476562 187.910156 110.355469 188.753906 109.863281 C 190.148438 109.050781 190.121094 108.96875 188.433594 108.945312 C 187.007812 108.921875 186.574219 108.371094 186.574219 106.582031 C 186.574219 105.296875 185.839844 103.707031 184.9375 103.046875 C 184.035156 102.390625 183.398438 101.671875 183.515625 101.449219 C 184.121094 100.34375 183.59375 99.304688 182.425781 99.304688 C 181.703125 99.304688 181.113281 98.878906 181.113281 98.355469 C 181.113281 97.835938 180.621094 97.585938 180.019531 97.800781 C 179.421875 98.019531 178.230469 97.835938 177.378906 97.394531 C 176.175781 96.777344 175.328125 97.195312 173.585938 99.265625 C 172.351562 100.730469 171.023438 101.734375 170.636719 101.496094 C 170.253906 101.257812 169.710938 101.644531 169.4375 102.355469 C 169.164062 103.070312 169.222656 103.566406 169.566406 103.457031 C 169.910156 103.351562 171.289062 104.375 172.632812 105.734375 C 174.160156 107.277344 175.597656 108 176.46875 107.664062 C 178.269531 106.972656 181.289062 107.925781 180.636719 108.980469 C 180.363281 109.425781 179.546875 109.792969 178.824219 109.792969 C 178.058594 109.792969 177.773438 109.375 178.136719 108.78125 C 178.527344 108.152344 178.378906 108.011719 177.738281 108.40625 C 177.175781 108.753906 176.941406 109.402344 177.21875 109.851562 C 177.496094 110.300781 177.304688 110.664062 176.796875 110.664062 C 176.285156 110.664062 175.871094 110.273438 175.871094 109.792969 C 175.871094 108.253906 172.59375 108.855469 172.171875 110.472656 C 171.691406 112.308594 173.726562 114.632812 174.589844 113.234375 C 174.980469 112.609375 175.488281 112.609375 176.246094 113.238281 C 176.847656 113.738281 177.601562 113.886719 177.917969 113.570312 C 178.234375 113.253906 178.492188 113.519531 178.492188 114.160156 C 178.492188 114.800781 178.785156 115.03125 179.144531 114.671875 C 179.503906 114.3125 179.050781 113.472656 178.136719 112.800781 Z M 184.609375 108.09375 C 184.609375 107.640625 184.996094 107.03125 185.472656 106.738281 C 185.96875 106.433594 186.113281 106.78125 185.816406 107.5625 C 185.234375 109.074219 184.609375 109.351562 184.609375 108.09375 Z M 173.632812 105.886719 C 172.699219 105.179688 172.398438 104.589844 172.957031 104.574219 C 174.617188 104.53125 176.742188 105.546875 176.742188 106.390625 C 176.742188 107.535156 175.558594 107.34375 173.632812 105.886719 Z M 202.960938 114.410156 C 202.960938 114.304688 202.214844 113.824219 201.304688 113.335938 C 200.125 112.703125 199.394531 112.757812 198.757812 113.523438 C 198.085938 114.332031 198.5 114.597656 200.414062 114.597656 C 201.816406 114.597656 202.960938 114.511719 202.960938 114.410156 Z M 189.851562 112.414062 C 189.851562 111.933594 189.238281 111.539062 188.488281 111.539062 C 187.742188 111.539062 187.371094 111.933594 187.667969 112.414062 C 187.964844 112.894531 188.578125 113.285156 189.03125 113.285156 C 189.484375 113.285156 189.851562 112.894531 189.851562 112.414062 Z M 192.910156 112.414062 C 192.613281 111.933594 192.199219 111.539062 191.984375 111.539062 C 191.773438 111.539062 191.601562 111.933594 191.601562 112.414062 C 191.601562 112.894531 192.015625 113.285156 192.527344 113.285156 C 193.035156 113.285156 193.207031 112.894531 192.910156 112.414062 Z M 164.507812 108.015625 C 163.402344 107.273438 163.570312 106.808594 165.601562 105.011719 C 166.921875 103.839844 168.003906 102.394531 168.003906 101.800781 C 168.003906 101.203125 167.445312 101.480469 166.765625 102.414062 C 166.082031 103.34375 165.230469 103.8125 164.871094 103.453125 C 164.511719 103.09375 164.675781 102.800781 165.238281 102.800781 C 165.796875 102.800781 166.257812 102.210938 166.257812 101.488281 C 166.257812 99.792969 164.601562 99.789062 163.953125 101.484375 C 163.675781 102.203125 163.09375 102.566406 162.65625 102.296875 C 162.21875 102.027344 162.085938 101.4375 162.363281 100.992188 C 162.636719 100.542969 162.472656 100.179688 161.992188 100.179688 C 161.511719 100.179688 160.871094 100.578125 160.566406 101.066406 C 160.265625 101.554688 159.609375 101.703125 159.113281 101.394531 C 158.527344 101.03125 158.625 100.566406 159.390625 100.082031 C 160.355469 99.46875 160.332031 99.335938 159.265625 99.347656 C 157.605469 99.371094 153.183594 101.851562 154.730469 101.894531 C 155.359375 101.910156 155.652344 102.28125 155.382812 102.71875 C 155.113281 103.152344 155.777344 103.324219 156.859375 103.101562 L 158.828125 102.691406 L 156.8125 103.894531 L 154.800781 105.097656 L 157.226562 106.203125 C 158.980469 107 159.746094 107.035156 159.984375 106.328125 C 160.21875 105.621094 160.660156 105.640625 161.578125 106.398438 C 162.597656 107.246094 162.625 107.589844 161.710938 108.171875 C 160.972656 108.640625 161.492188 108.890625 163.199219 108.890625 C 165.238281 108.890625 165.53125 108.695312 164.507812 108.015625 Z M 161.199219 104.894531 C 159.949219 103.542969 160.792969 103.28125 162.636719 104.453125 C 163.289062 104.863281 163.484375 105.40625 163.074219 105.65625 C 162.660156 105.90625 161.816406 105.5625 161.199219 104.894531 Z M 195.503906 104.679688 C 195.011719 104.160156 193.347656 105.472656 193.347656 106.382812 C 193.347656 106.851562 193.898438 106.730469 194.570312 106.109375 C 195.242188 105.492188 195.664062 104.847656 195.503906 104.679688 Z M 170.625 105.953125 C 170.625 105.761719 170.015625 105.375 169.269531 105.089844 C 168.492188 104.789062 168.140625 104.9375 168.449219 105.429688 C 168.960938 106.261719 170.625 106.660156 170.625 105.953125 Z M 157.332031 97.085938 C 158.085938 96.425781 157.652344 96.191406 155.765625 96.238281 C 154.328125 96.273438 152.464844 97.0625 151.621094 97.992188 C 150.121094 99.648438 150.128906 99.652344 151.96875 98.125 C 153.925781 96.507812 155.519531 97.40625 154.445312 99.523438 C 154.140625 100.125 154.429688 100.023438 155.089844 99.304688 C 155.75 98.582031 156.757812 97.585938 157.332031 97.085938 Z M 164.507812 98.378906 C 164.507812 97.871094 164.117188 97.695312 163.636719 97.992188 C 163.15625 98.289062 162.761719 98.707031 162.761719 98.917969 C 162.761719 99.128906 163.15625 99.304688 163.636719 99.304688 C 164.117188 99.304688 164.507812 98.886719 164.507812 98.378906 Z M 159.90625 91.707031 C 159.054688 91.484375 157.875 91.5 157.28125 91.738281 C 156.691406 91.980469 157.386719 92.160156 158.828125 92.140625 C 160.269531 92.125 160.753906 91.929688 159.90625 91.707031 Z M 166.71875 90.734375 C 166.449219 90.464844 165.742188 90.734375 165.148438 91.332031 C 164.292969 92.195312 164.394531 92.292969 165.640625 91.820312 C 166.5 91.492188 166.988281 91.003906 166.71875 90.734375 Z M 176.746094 89.640625 C 176.746094 89.1875 176.417969 88.816406 176.015625 88.816406 C 175.617188 88.816406 175.289062 89.390625 175.289062 90.089844 C 175.289062 90.789062 175.617188 91.160156 176.015625 90.910156 C 176.417969 90.664062 176.746094 90.089844 176.746094 89.640625 Z M 173.238281 87.925781 C 172.71875 86.953125 172.585938 85.675781 172.9375 85.085938 C 173.34375 84.410156 173.027344 84.460938 172.082031 85.226562 C 170.675781 86.371094 170.675781 86.546875 172.050781 88.070312 C 173.964844 90.183594 174.417969 90.128906 173.238281 87.925781 Z M 168.804688 88.503906 C 168.605469 88.332031 167.261719 87.925781 165.820312 87.601562 C 163.90625 87.175781 163.550781 87.253906 164.507812 87.902344 C 165.691406 88.703125 169.683594 89.257812 168.804688 88.503906 Z M 161.015625 86.117188 C 162.179688 85.292969 162.179688 85.230469 161.015625 85.574219 C 160.292969 85.785156 158.917969 85.554688 157.953125 85.058594 C 156.394531 84.257812 156.335938 84.316406 157.40625 85.617188 C 158.804688 87.308594 159.242188 87.367188 161.015625 86.117188 Z M 165.382812 84.910156 C 165.382812 84.101562 164.875 83.824219 164 84.160156 C 162.882812 84.585938 162.84375 84.835938 163.78125 85.429688 C 165.332031 86.414062 165.382812 86.398438 165.382812 84.910156 Z M 188.453125 84.449219 C 191.886719 84.449219 188.375 82.53125 184.585938 82.339844 C 182.300781 82.222656 180.480469 81.585938 179.8125 80.675781 C 178.257812 78.546875 177.617188 78.855469 177.617188 81.742188 C 177.617188 83.828125 177.921875 84.203125 179.3125 83.839844 C 180.242188 83.597656 181.898438 84.023438 182.988281 84.789062 C 184.300781 85.707031 185.269531 85.886719 185.839844 85.3125 C 186.316406 84.835938 187.492188 84.449219 188.453125 84.449219 Z M 168.878906 84.449219 C 168.878906 83.96875 168.460938 83.574219 167.953125 83.574219 C 167.445312 83.574219 167.269531 83.96875 167.566406 84.449219 C 167.867188 84.929688 168.28125 85.320312 168.492188 85.320312 C 168.707031 85.320312 168.878906 84.929688 168.878906 84.449219 Z M 192.640625 75.984375 C 192.007812 75.734375 191.253906 75.765625 190.964844 76.054688 C 190.671875 76.34375 191.191406 76.550781 192.109375 76.511719 C 193.128906 76.472656 193.335938 76.265625 192.640625 75.984375 Z M 215.804688 267.414062 C 214.871094 266.480469 216.0625 265.347656 217.976562 265.347656 C 219.480469 265.347656 219.601562 265.566406 218.691406 266.660156 C 217.519531 268.074219 216.683594 268.292969 215.804688 267.414062 Z M 122.125 246.152344 C 119.722656 243.351562 117.597656 241.210938 117.402344 241.394531 C 117.210938 241.578125 116.117188 240.464844 114.980469 238.921875 C 112.859375 236.046875 109.914062 233.972656 107.875 233.917969 C 107.242188 233.902344 106.960938 234.265625 107.246094 234.726562 C 107.558594 235.226562 106.710938 235.199219 105.140625 234.652344 C 103.09375 233.9375 101.914062 232.457031 99.765625 227.914062 C 95.339844 218.550781 95.285156 218.320312 97.316406 217.234375 C 98.335938 216.6875 98.898438 215.742188 98.625 215.03125 C 98.363281 214.347656 98.527344 213.789062 98.996094 213.789062 C 99.460938 213.789062 99.839844 213.171875 99.839844 212.421875 C 99.839844 211.507812 100.492188 211.148438 101.808594 211.332031 C 103.171875 211.519531 103.777344 211.152344 103.785156 210.136719 C 103.789062 209.328125 104.085938 208.378906 104.441406 208.023438 C 104.792969 207.667969 105.085938 207.808594 105.085938 208.328125 C 105.085938 208.851562 106.265625 209.539062 107.707031 209.855469 C 109.148438 210.171875 110.328125 210.925781 110.328125 211.53125 C 110.328125 212.136719 111.410156 213.175781 112.730469 213.839844 C 114.054688 214.5 115.351562 215.160156 115.617188 215.304688 C 115.882812 215.449219 115.9375 214.183594 115.738281 212.492188 C 115.300781 208.726562 116.949219 208.355469 117.757812 212.039062 C 118.074219 213.484375 118.664062 214.664062 119.070312 214.664062 C 119.472656 214.664062 120.289062 216.136719 120.875 217.941406 C 121.464844 219.742188 122.773438 222.066406 123.785156 223.101562 C 126.417969 225.800781 127.804688 227.601562 127.804688 228.320312 C 127.804688 228.664062 128.425781 229.628906 129.183594 230.464844 C 131.023438 232.5 131.457031 239.050781 129.902344 241.273438 C 129.230469 242.230469 128.679688 243.707031 128.679688 244.554688 C 128.679688 245.472656 127.785156 246.316406 126.453125 246.648438 C 124.25 247.203125 124.246094 247.222656 126.015625 248.464844 C 127.765625 249.6875 128.457031 251.425781 127.152344 251.308594 C 126.789062 251.273438 124.527344 248.957031 122.125 246.15625 Z M 128.980469 232.539062 C 128.695312 231.796875 128.277344 231.378906 128.046875 231.609375 C 127.820312 231.835938 127.890625 232.445312 128.207031 232.957031 C 129.070312 234.351562 129.574219 234.078125 128.980469 232.539062 Z M 137.03125 249.699219 C 136.511719 248.855469 143.214844 245.257812 145.34375 245.234375 C 146.390625 245.226562 146.382812 245.085938 145.285156 244.375 C 144.25 243.707031 144.230469 243.527344 145.175781 243.515625 C 146.042969 243.503906 146.230469 242.773438 145.851562 240.878906 C 145.558594 239.402344 145.699219 238.257812 146.179688 238.257812 C 146.648438 238.257812 147.03125 238.652344 147.03125 239.132812 C 147.03125 239.613281 147.855469 240.828125 148.859375 241.832031 L 150.6875 243.660156 L 148.640625 245.105469 C 147.515625 245.898438 146.398438 246.550781 146.160156 246.554688 C 145.917969 246.558594 144.480469 247.449219 142.964844 248.527344 C 140.066406 250.59375 137.855469 251.03125 137.03125 249.699219 Z M 145.460938 228.46875 C 144.882812 227.894531 144.410156 227.105469 144.410156 226.722656 C 144.410156 225.433594 145.726562 226.003906 146.828125 227.769531 C 148.023438 229.683594 147.128906 230.140625 145.460938 228.46875 Z M 282.921875 227.554688 C 283.273438 226.472656 283.917969 221.261719 284.355469 215.972656 C 284.828125 210.28125 285.710938 205.363281 286.519531 203.910156 C 287.667969 201.851562 287.722656 200.78125 286.851562 197.164062 C 286.28125 194.773438 286.085938 191.300781 286.417969 189.34375 C 286.953125 186.167969 286.832031 185.824219 285.1875 185.824219 C 284.148438 185.824219 283.363281 185.257812 283.363281 184.511719 C 283.363281 182.859375 281.683594 182.875 279.476562 184.542969 C 278.539062 185.253906 277.078125 185.609375 276.230469 185.34375 C 275.382812 185.074219 273.929688 185.257812 273 185.753906 C 270.808594 186.929688 267.046875 184.105469 265.332031 180 C 264.664062 178.398438 263.628906 177.1875 263.035156 177.304688 C 262.261719 177.460938 261.953125 175.863281 261.953125 171.707031 C 261.953125 168.507812 262.261719 166.082031 262.640625 166.316406 C 263.015625 166.550781 263.246094 165.429688 263.144531 163.828125 C 263.042969 162.226562 263.710938 159.539062 264.628906 157.859375 C 265.550781 156.175781 266.304688 154.210938 266.3125 153.488281 C 266.320312 152.765625 266.714844 152.230469 267.195312 152.300781 C 268.398438 152.46875 273.089844 149.042969 272.488281 148.4375 C 272.21875 148.167969 272.648438 147.230469 273.445312 146.347656 C 274.242188 145.46875 274.589844 144.75 274.214844 144.75 C 273.839844 144.75 274.074219 144.0625 274.734375 143.21875 C 275.820312 141.832031 275.792969 141.800781 274.40625 142.890625 C 273.5625 143.550781 272.828125 143.84375 272.765625 143.546875 C 272.707031 143.246094 272.597656 142.507812 272.527344 141.910156 C 272.457031 141.308594 271.664062 140.945312 270.765625 141.101562 C 269.316406 141.355469 269.203125 141.007812 269.769531 138.042969 C 270.121094 136.203125 270.375 133.773438 270.335938 132.644531 C 270.21875 129.445312 271.015625 128.917969 273.800781 130.355469 C 276.195312 131.59375 276.371094 131.574219 276.371094 130.085938 C 276.371094 129.203125 275.386719 127.152344 274.1875 125.523438 C 271.585938 121.996094 271.574219 121.949219 273.53125 122.5625 C 274.914062 122.996094 274.925781 122.933594 273.664062 121.878906 C 272.148438 120.617188 272.050781 120.378906 271.902344 117.4375 C 271.824219 115.960938 271.699219 115.851562 271.398438 117 C 271.179688 117.84375 270.484375 118.53125 269.855469 118.53125 C 268.25 118.53125 267.476562 115.039062 268.957031 114.472656 C 269.609375 114.222656 269.929688 113.457031 269.664062 112.769531 C 269.316406 111.863281 269.613281 111.683594 270.746094 112.117188 C 271.96875 112.589844 272.179688 112.390625 271.726562 111.210938 C 271.363281 110.257812 271.488281 109.914062 272.070312 110.273438 C 272.578125 110.585938 272.773438 111.417969 272.503906 112.125 C 272.234375 112.828125 272.980469 115.144531 274.167969 117.269531 C 275.355469 119.394531 276.125 121.824219 275.882812 122.671875 C 275.632812 123.546875 275.878906 123.386719 276.453125 122.304688 C 277.285156 120.726562 277.121094 119.847656 275.503906 117.234375 C 274.429688 115.492188 273.71875 113.898438 273.929688 113.691406 C 274.441406 113.175781 279.539062 120.492188 280.269531 122.796875 C 280.59375 123.816406 281.144531 124.648438 281.496094 124.648438 C 282.832031 124.648438 292.101562 145.28125 292.101562 148.257812 C 292.101562 149.023438 291.46875 148.765625 290.320312 147.535156 C 288.71875 145.816406 286.859375 144.996094 286.859375 146.007812 C 286.859375 146.609375 290.488281 152.613281 290.851562 152.613281 C 291.027344 152.613281 290.925781 151.96875 290.625 151.179688 C 290.171875 150.003906 290.363281 149.910156 291.679688 150.648438 C 292.5625 151.140625 293.363281 152.277344 293.457031 153.171875 C 293.550781 154.066406 293.878906 155.976562 294.183594 157.421875 C 294.488281 158.863281 295.3125 164.066406 296.019531 168.984375 C 297.402344 178.648438 296.722656 191.113281 294.207031 202.167969 C 293.53125 205.152344 292.972656 208.886719 292.972656 210.472656 C 292.964844 215.292969 291.257812 220.0625 289.371094 220.554688 C 288.421875 220.800781 286.675781 222.921875 285.492188 225.261719 C 283.25 229.6875 281.816406 230.964844 282.921875 227.550781 Z M 288.765625 143.6875 C 288.140625 143.058594 287.730469 143.007812 287.730469 143.554688 C 287.730469 144.722656 288.765625 145.753906 289.347656 145.171875 C 289.597656 144.921875 289.335938 144.253906 288.765625 143.6875 Z M 286.464844 143.65625 C 285.734375 140.324219 282.742188 135.152344 281.542969 135.144531 C 279.945312 135.136719 277.734375 138.785156 278.300781 140.492188 C 278.515625 141.132812 279.445312 141.691406 280.371094 141.742188 C 284.910156 141.976562 285.976562 142.179688 285.878906 142.78125 C 285.71875 143.792969 285.945312 144.75 286.34375 144.75 C 286.542969 144.75 286.59375 144.257812 286.464844 143.65625 Z M 163.636719 223.769531 C 163.636719 223.007812 164.101562 222.539062 164.671875 222.730469 C 166.292969 223.269531 166.5625 225.152344 165.019531 225.152344 C 164.257812 225.152344 163.636719 224.527344 163.636719 223.769531 Z M 166.703125 222.542969 C 166.402344 222.054688 166.765625 221.65625 167.515625 221.65625 C 169.050781 221.65625 169.277344 222.179688 168.066406 222.929688 C 167.617188 223.207031 167.003906 223.03125 166.703125 222.542969 Z M 148.414062 220.21875 C 147.683594 218.3125 148.652344 217.425781 149.6875 219.058594 C 150.71875 220.691406 150.742188 221.65625 149.746094 221.65625 C 149.316406 221.65625 148.71875 221.007812 148.414062 220.21875 Z M 140.914062 211.195312 C 140.914062 210.730469 140.324219 210.574219 139.601562 210.851562 C 138.007812 211.464844 137.867188 209.988281 139.394531 208.71875 C 140.210938 208.042969 140.753906 208.355469 141.496094 209.921875 C 142.046875 211.089844 142.140625 212.042969 141.703125 212.042969 C 141.269531 212.042969 140.914062 211.660156 140.914062 211.195312 Z M 123.851562 210.070312 C 122.902344 209.546875 121.609375 208.398438 120.980469 207.523438 C 119.765625 205.820312 117.316406 205.339844 117.316406 206.800781 C 117.316406 207.28125 116.53125 207.671875 115.570312 207.671875 C 114.609375 207.671875 113.820312 207.28125 113.820312 206.800781 C 113.820312 206.316406 113.035156 205.925781 112.074219 205.925781 C 111.113281 205.925781 110.324219 205.53125 110.324219 205.050781 C 110.324219 204.570312 110.722656 204.175781 111.207031 204.175781 C 112.933594 204.175781 110.003906 200.851562 107.027344 199.433594 C 105.039062 198.484375 104.207031 197.578125 104.535156 196.722656 C 104.828125 195.960938 104.519531 195.4375 103.769531 195.4375 C 103.015625 195.4375 102.714844 195.957031 103.019531 196.75 C 103.382812 197.703125 102.914062 198.058594 101.292969 198.058594 C 100.070312 198.058594 98.824219 197.667969 98.527344 197.1875 C 98.230469 196.703125 98.796875 196.3125 99.789062 196.3125 C 100.777344 196.3125 101.636719 195.917969 101.695312 195.4375 C 101.757812 194.957031 101.855469 194.203125 101.914062 193.761719 C 102.089844 192.464844 103.335938 191.550781 103.335938 192.722656 C 103.335938 193.3125 103.683594 193.578125 104.109375 193.3125 C 104.535156 193.050781 105.371094 193.421875 105.964844 194.136719 C 106.558594 194.851562 106.722656 195.4375 106.324219 195.4375 C 105.929688 195.4375 106.0625 195.894531 106.617188 196.449219 C 107.382812 197.214844 107.941406 197.203125 108.910156 196.398438 C 109.933594 195.546875 111.03125 195.765625 114.460938 197.503906 C 116.8125 198.695312 119.253906 200.292969 119.882812 201.050781 C 120.511719 201.808594 122.109375 202.429688 123.433594 202.429688 C 125.867188 202.429688 128.273438 200.570312 127.214844 199.507812 C 126.898438 199.191406 127.074219 198.933594 127.605469 198.933594 C 129.46875 198.933594 129.625 200.675781 127.925781 202.5 C 126.773438 203.734375 125.632812 204.160156 124.457031 203.789062 C 121.402344 202.816406 121.214844 205.164062 124.144531 207.78125 C 127.003906 210.335938 126.828125 211.710938 123.851562 210.070312 Z M 134.257812 207.511719 C 133.851562 206.855469 134.105469 206.683594 134.984375 207.019531 C 135.722656 207.304688 136.726562 207.140625 137.210938 206.65625 C 137.804688 206.0625 138.285156 206.082031 138.679688 206.722656 C 139.003906 207.246094 139.148438 207.703125 139 207.738281 C 136.226562 208.40625 134.769531 208.335938 134.257812 207.511719 Z M 94.914062 204.917969 C 94.5 204.246094 93.089844 203.019531 91.785156 202.191406 C 88.445312 200.066406 87.195312 197.53125 89.121094 196.789062 C 89.941406 196.476562 90.324219 196.503906 89.980469 196.851562 C 89.09375 197.734375 92.011719 200.761719 93.097656 200.089844 C 93.601562 199.777344 93.726562 199.964844 93.382812 200.519531 C 93.015625 201.117188 93.652344 201.722656 94.996094 202.0625 C 97.390625 202.664062 97.601562 203.085938 96.433594 204.9375 C 95.792969 205.949219 95.554688 205.945312 94.914062 204.917969 Z M 97.75 204.679688 C 98.011719 203.996094 98.828125 203.207031 99.566406 202.925781 C 100.527344 202.554688 100.757812 202.804688 100.371094 203.800781 C 100.078125 204.566406 99.839844 205.359375 99.839844 205.558594 C 99.839844 205.761719 99.261719 205.925781 98.554688 205.925781 C 97.804688 205.925781 97.46875 205.410156 97.75 204.679688 Z M 131.300781 204.175781 C 130.121094 201.976562 131.105469 201.976562 133.921875 204.175781 C 136.082031 205.867188 136.085938 205.886719 134.171875 205.90625 C 133.105469 205.917969 131.816406 205.136719 131.300781 204.175781 Z M 103.335938 203.792969 C 103.335938 203.578125 103.726562 203.164062 104.207031 202.867188 C 104.6875 202.570312 105.082031 202.742188 105.082031 203.25 C 105.082031 203.761719 104.6875 204.175781 104.207031 204.175781 C 103.726562 204.175781 103.335938 204.003906 103.335938 203.792969 Z M 106.464844 202.546875 C 106.089844 201.9375 106.015625 201.203125 106.304688 200.914062 C 107.085938 200.132812 107.941406 201.28125 107.519531 202.550781 C 107.222656 203.4375 107.015625 203.4375 106.464844 202.546875 Z M 94.316406 199.238281 C 93.988281 198.910156 93.675781 196.839844 93.617188 194.636719 C 93.53125 191.265625 93.425781 191.039062 92.960938 193.203125 C 92.660156 194.617188 92.117188 195.699219 91.753906 195.605469 C 91.394531 195.515625 90.75 195.4375 90.324219 195.4375 C 88.546875 195.4375 88.449219 189.46875 90.15625 185.261719 C 91.832031 181.128906 92.066406 181.195312 92.414062 185.914062 C 92.664062 189.269531 93.675781 190.40625 96.007812 189.960938 C 97.378906 189.699219 98.089844 189.96875 98.089844 190.753906 C 98.089844 191.40625 97.207031 191.96875 96.125 191.996094 L 94.160156 192.054688 L 96.125 192.84375 C 97.207031 193.277344 98.085938 194.136719 98.078125 194.753906 C 98.066406 195.617188 97.890625 195.601562 97.3125 194.6875 C 96.898438 194.039062 96.339844 193.859375 96.074219 194.292969 C 95.804688 194.730469 95.945312 195.65625 96.386719 196.355469 C 96.828125 197.050781 97.164062 198.210938 97.132812 198.933594 C 97.089844 199.960938 96.976562 199.988281 96.605469 199.054688 C 96.273438 198.214844 95.953125 198.152344 95.523438 198.847656 C 95.1875 199.390625 94.644531 199.566406 94.316406 199.238281 Z M 181.261719 196.3125 C 181.699219 194.992188 183.105469 194.855469 183.519531 196.09375 C 183.71875 196.695312 183.226562 197.1875 182.425781 197.1875 C 181.625 197.1875 181.101562 196.792969 181.261719 196.3125 Z M 107.773438 195.074219 C 107.738281 194.152344 107.945312 193.636719 108.234375 193.925781 C 108.523438 194.21875 108.554688 194.972656 108.304688 195.601562 C 108.023438 196.300781 107.816406 196.09375 107.773438 195.074219 Z M 86.238281 189.976562 C 85.234375 181.785156 85.222656 181.414062 85.890625 181 C 86.230469 180.789062 86.78125 183.066406 87.113281 186.058594 C 87.441406 189.054688 87.929688 192.390625 88.191406 193.472656 C 88.453125 194.554688 88.273438 195.4375 87.785156 195.4375 C 87.300781 195.4375 86.605469 192.980469 86.238281 189.976562 Z M 99.777344 195.21875 C 99.117188 193.007812 99.132812 190.628906 99.808594 189.46875 C 100.460938 188.355469 100.667969 188.886719 100.6875 191.722656 C 100.703125 193.765625 100.519531 195.4375 100.277344 195.4375 C 100.039062 195.4375 99.8125 195.339844 99.777344 195.21875 Z M 139.167969 187.992188 C 139.167969 187.257812 138.183594 186.214844 136.984375 185.664062 C 135.082031 184.800781 133.957031 183.203125 135.246094 183.203125 C 136.054688 183.203125 139.589844 185.367188 140.246094 186.261719 C 141.179688 187.53125 141.058594 189.320312 140.042969 189.320312 C 139.5625 189.320312 139.167969 188.722656 139.167969 187.992188 Z M 95.472656 182.328125 C 94.835938 181.144531 94.828125 180.582031 95.441406 180.582031 C 95.9375 180.582031 96.347656 179.96875 96.347656 179.21875 C 96.347656 178.46875 96.738281 178.101562 97.21875 178.398438 C 98.339844 179.089844 98.367188 184.078125 97.25 184.078125 C 96.785156 184.078125 95.988281 183.289062 95.472656 182.328125 Z M 91.117188 179.539062 C 91.125 178.910156 91.511719 177.808594 91.976562 177.085938 C 92.664062 176.019531 92.824219 176.132812 92.835938 177.691406 C 92.84375 178.742188 92.457031 179.847656 91.976562 180.144531 C 91.496094 180.441406 91.109375 180.167969 91.117188 179.539062 Z M 85.746094 176.867188 C 85.398438 168.148438 88.492188 148.15625 90.285156 147.519531 C 90.734375 147.359375 91.101562 146.34375 91.101562 145.265625 C 91.101562 142.898438 95.167969 132.542969 96.734375 130.917969 C 97.664062 129.957031 97.949219 130.003906 98.402344 131.183594 C 98.75 132.089844 98.601562 132.390625 97.992188 132.015625 C 97.355469 131.625 97.226562 132.027344 97.601562 133.210938 C 97.980469 134.410156 97.597656 135.53125 96.441406 136.609375 C 94.601562 138.324219 92.851562 142.191406 92.851562 144.539062 C 92.851562 145.726562 93.0625 145.679688 94.132812 144.261719 C 94.839844 143.328125 95.429688 141.484375 95.445312 140.164062 C 95.460938 138.839844 95.867188 137.757812 96.347656 137.757812 C 97.925781 137.757812 97.257812 143.75 95.253906 147.5625 C 93.570312 150.769531 93.246094 151.023438 93.007812 149.339844 C 92.855469 148.257812 92.410156 147.371094 92.019531 147.371094 C 90.3125 147.371094 89.476562 158.164062 91.101562 159.171875 C 92.554688 160.070312 92.171875 163.363281 90.679688 162.792969 C 88.753906 162.054688 87.859375 164.582031 87.78125 170.96875 C 87.683594 179.597656 87.667969 179.707031 86.734375 179.707031 C 86.253906 179.707031 85.808594 178.429688 85.746094 176.867188 Z M 93.921875 176.730469 C 94.191406 175.324219 93.972656 174.757812 93.269531 175.027344 C 91.886719 175.558594 90.679688 168.417969 91.941406 167.15625 C 92.570312 166.53125 92.851562 167.03125 92.851562 168.78125 C 92.851562 170.328125 93.75 172.25 95.167969 173.730469 C 97.105469 175.75 97.300781 176.371094 96.371094 177.492188 C 94.707031 179.496094 93.46875 179.113281 93.921875 176.730469 Z M 196.671875 162.054688 C 197.488281 161.238281 197.953125 161.238281 198.769531 162.054688 C 199.585938 162.871094 199.351562 163.101562 197.722656 163.101562 C 196.089844 163.101562 195.855469 162.871094 196.671875 162.054688 Z M 202.089844 162.179688 C 202.089844 161.621094 202.648438 161.382812 203.332031 161.644531 C 204.011719 161.90625 204.796875 161.527344 205.070312 160.808594 C 205.375 160.011719 206.007812 159.765625 206.671875 160.179688 C 207.277344 160.554688 208.621094 160.753906 209.65625 160.621094 C 210.691406 160.488281 211.796875 160.792969 212.109375 161.304688 C 212.429688 161.820312 211.984375 162.253906 211.101562 162.285156 C 210.230469 162.3125 207.847656 162.53125 205.804688 162.765625 C 203.332031 163.046875 202.089844 162.851562 202.089844 162.179688 Z M 214.152344 162.054688 C 214.96875 161.238281 215.433594 161.238281 216.25 162.054688 C 217.066406 162.871094 216.832031 163.101562 215.199219 163.101562 C 213.570312 163.101562 213.335938 162.871094 214.152344 162.054688 Z M 193.988281 157.347656 C 192.652344 156.625 191.117188 156.308594 190.574219 156.644531 C 189.96875 157.019531 189.828125 156.863281 190.210938 156.246094 C 190.605469 155.605469 190.160156 155.238281 188.984375 155.238281 C 187.964844 155.238281 187.324219 155.546875 187.554688 155.925781 C 187.789062 156.300781 187.222656 156.609375 186.296875 156.609375 C 183.972656 156.609375 184.1875 155.394531 186.714844 154.242188 C 188.414062 153.46875 189.847656 153.683594 194.144531 155.347656 C 199.378906 157.378906 200.953125 158.765625 197.941406 158.699219 C 197.097656 158.679688 195.320312 158.070312 193.988281 157.347656 Z M 272.007812 145.675781 C 272.007812 145.167969 272.402344 144.75 272.882812 144.75 C 273.363281 144.75 273.753906 144.925781 273.753906 145.136719 C 273.753906 145.347656 273.363281 145.765625 272.882812 146.0625 C 272.402344 146.359375 272.007812 146.183594 272.007812 145.675781 Z M 273.753906 129.507812 C 273.753906 129.296875 274.148438 128.878906 274.628906 128.582031 C 275.109375 128.285156 275.503906 128.460938 275.503906 128.96875 C 275.503906 129.476562 275.109375 129.894531 274.628906 129.894531 C 274.148438 129.894531 273.753906 129.722656 273.753906 129.507812 Z M 100.71875 125.191406 C 100.71875 124.46875 101.113281 123.636719 101.59375 123.339844 C 102.074219 123.042969 102.464844 123.390625 102.464844 124.109375 C 102.464844 124.832031 102.074219 125.664062 101.59375 125.960938 C 101.113281 126.257812 100.71875 125.910156 100.71875 125.191406 Z M 104.214844 125.140625 C 104.214844 124.925781 104.609375 124.511719 105.089844 124.214844 C 105.570312 123.917969 105.960938 124.089844 105.960938 124.597656 C 105.960938 125.109375 105.570312 125.523438 105.089844 125.523438 C 104.609375 125.523438 104.214844 125.351562 104.214844 125.140625 Z M 109.457031 120.332031 C 109.457031 119.824219 109.851562 119.40625 110.332031 119.40625 C 110.8125 119.40625 111.207031 119.582031 111.207031 119.792969 C 111.207031 120.003906 110.8125 120.421875 110.332031 120.71875 C 109.851562 121.015625 109.457031 120.839844 109.457031 120.332031 Z M 110.75 112.382812 C 110.453125 111.90625 109.746094 111.792969 109.179688 112.132812 C 108.589844 112.484375 108.664062 112.113281 109.347656 111.273438 C 110.59375 109.734375 113.40625 109.277344 114.15625 110.492188 C 114.394531 110.878906 113.84375 111.65625 112.9375 112.222656 C 111.871094 112.890625 111.097656 112.945312 110.75 112.382812 Z M 226.292969 100.082031 C 225.421875 99.574219 224.121094 99.386719 223.40625 99.660156 C 222.671875 99.941406 222.335938 99.785156 222.636719 99.296875 C 222.929688 98.820312 222.6875 98.433594 222.101562 98.433594 C 220.164062 98.433594 222.140625 97.277344 224.507812 97.023438 C 227.230469 96.734375 232.097656 99.007812 231.347656 100.21875 C 230.671875 101.308594 228.289062 101.242188 226.292969 100.082031 Z M 226.292969 100.082031 " clip-rule="nonzero"/></clipPath><radialGradient gradientTransform="matrix(1.003029, 0, 0, 0.996971, -100.272663, -27.41189)" gradientUnits="userSpaceOnUse" r="244.781581" cx="215.731857" id="dbf123b527" cy="144.855393" fx="215.731857" fy="144.855393"><stop stop-opacity="1" stop-color="rgb(100%, 100%, 100%)" offset="0"/><stop stop-opacity="1" stop-color="rgb(100%, 100%, 100%)" offset="1"/></radialGradient></defs><g clip-path="url(#d50bbf9fa3)"><path fill="#c5ddff" d="M 191.164062 0.00390625 C 92.507812 0.00390625 12.394531 80.117188 12.394531 178.933594 C 12.394531 210.257812 20.34375 239.5625 34.527344 265.277344 C 34.835938 265.746094 34.992188 266.214844 35.304688 266.835938 L 53.074219 292.710938 L 53.230469 292.867188 L 193.347656 498.757812 L 331.597656 289.90625 C 355.753906 259.355469 370.25 220.859375 370.25 178.933594 C 370.25 80.117188 289.980469 0.00390625 191.164062 0.00390625 Z M 84.867188 178.933594 C 84.867188 120.171875 132.5625 72.636719 191.164062 72.636719 C 249.925781 72.636719 297.617188 120.171875 297.617188 178.933594 C 297.617188 215.246094 279.382812 247.199219 251.640625 266.371094 C 234.496094 278.214844 213.765625 285.074219 191.320312 285.074219 C 168.566406 285.074219 147.214844 277.902344 130.066406 265.589844 C 102.792969 246.417969 84.867188 214.933594 84.867188 178.933594 Z M 84.867188 178.933594 " fill-opacity="1" fill-rule="nonzero"/></g><g clip-path="url(#be2a0d5357)"><g clip-path="url(#1208e9702f)"><path fill="url(#dbf123b527)" d="M 85.222656 73.632812 L 85.222656 284.566406 L 297.390625 284.566406 L 297.390625 73.632812 Z M 85.222656 73.632812 " fill-rule="nonzero"/></g></g><g fill="#ffffff" fill-opacity="1"><g transform="translate(354.809723, 437.568942)"><g><path d="M 28.46875 -16.421875 L 31.796875 -16.421875 L 31.796875 -3.890625 C 30.265625 -2.546875 28.453125 -1.515625 26.359375 -0.796875 C 24.265625 -0.078125 22.0625 0.28125 19.75 0.28125 C 16.46875 0.28125 13.507812 -0.4375 10.875 -1.875 C 8.25 -3.3125 6.1875 -5.300781 4.6875 -7.84375 C 3.1875 -10.394531 2.4375 -13.253906 2.4375 -16.421875 C 2.4375 -19.578125 3.1875 -22.425781 4.6875 -24.96875 C 6.1875 -27.519531 8.25 -29.515625 10.875 -30.953125 C 13.507812 -32.390625 16.484375 -33.109375 19.796875 -33.109375 C 22.296875 -33.109375 24.59375 -32.707031 26.6875 -31.90625 C 28.78125 -31.113281 30.546875 -29.9375 31.984375 -28.375 L 29.828125 -26.171875 C 27.234375 -28.734375 23.9375 -30.015625 19.9375 -30.015625 C 17.28125 -30.015625 14.878906 -29.425781 12.734375 -28.25 C 10.585938 -27.082031 8.90625 -25.457031 7.6875 -23.375 C 6.46875 -21.300781 5.859375 -18.984375 5.859375 -16.421875 C 5.859375 -13.859375 6.46875 -11.539062 7.6875 -9.46875 C 8.90625 -7.40625 10.578125 -5.78125 12.703125 -4.59375 C 14.835938 -3.40625 17.234375 -2.8125 19.890625 -2.8125 C 23.265625 -2.8125 26.125 -3.65625 28.46875 -5.34375 Z M 28.46875 -16.421875 "/></g></g></g><g fill="#ffffff" fill-opacity="1"><g transform="translate(403.25082, 437.568942)"><g><path d="M 28.5625 -3 L 28.5625 0 L 5.34375 0 L 5.34375 -32.828125 L 27.859375 -32.828125 L 27.859375 -29.828125 L 8.8125 -29.828125 L 8.8125 -18.15625 L 25.796875 -18.15625 L 25.796875 -15.203125 L 8.8125 -15.203125 L 8.8125 -3 Z M 28.5625 -3 "/></g></g></g><g fill="#ffffff" fill-opacity="1"><g transform="translate(446.815302, 437.568942)"><g><path d="M 19.703125 0.28125 C 16.453125 0.28125 13.503906 -0.441406 10.859375 -1.890625 C 8.210938 -3.347656 6.144531 -5.34375 4.65625 -7.875 C 3.175781 -10.40625 2.4375 -13.253906 2.4375 -16.421875 C 2.4375 -19.578125 3.175781 -22.421875 4.65625 -24.953125 C 6.144531 -27.484375 8.210938 -29.472656 10.859375 -30.921875 C 13.503906 -32.378906 16.453125 -33.109375 19.703125 -33.109375 C 22.953125 -33.109375 25.878906 -32.390625 28.484375 -30.953125 C 31.097656 -29.515625 33.15625 -27.519531 34.65625 -24.96875 C 36.164062 -22.425781 36.921875 -19.578125 36.921875 -16.421875 C 36.921875 -13.253906 36.164062 -10.394531 34.65625 -7.84375 C 33.15625 -5.300781 31.097656 -3.3125 28.484375 -1.875 C 25.878906 -0.4375 22.953125 0.28125 19.703125 0.28125 Z M 19.703125 -2.8125 C 22.296875 -2.8125 24.640625 -3.394531 26.734375 -4.5625 C 28.828125 -5.738281 30.46875 -7.367188 31.65625 -9.453125 C 32.84375 -11.535156 33.4375 -13.859375 33.4375 -16.421875 C 33.4375 -18.984375 32.84375 -21.300781 31.65625 -23.375 C 30.46875 -25.457031 28.828125 -27.082031 26.734375 -28.25 C 24.640625 -29.425781 22.296875 -30.015625 19.703125 -30.015625 C 17.109375 -30.015625 14.753906 -29.425781 12.640625 -28.25 C 10.523438 -27.082031 8.863281 -25.457031 7.65625 -23.375 C 6.457031 -21.300781 5.859375 -18.984375 5.859375 -16.421875 C 5.859375 -13.859375 6.457031 -11.535156 7.65625 -9.453125 C 8.863281 -7.367188 10.523438 -5.738281 12.640625 -4.5625 C 14.753906 -3.394531 17.109375 -2.8125 19.703125 -2.8125 Z M 19.703125 -2.8125 "/></g></g></g><g fill="#ffffff" fill-opacity="1"><g transform="translate(498.351199, 437.568942)"><g><path d="M 5.34375 -32.828125 L 8.8125 -32.828125 L 8.8125 -3 L 27.203125 -3 L 27.203125 0 L 5.34375 0 Z M 5.34375 -32.828125 "/></g></g></g><g fill="#ffffff" fill-opacity="1"><g transform="translate(538.164416, 437.568942)"><g><path d="M 19.703125 0.28125 C 16.453125 0.28125 13.503906 -0.441406 10.859375 -1.890625 C 8.210938 -3.347656 6.144531 -5.34375 4.65625 -7.875 C 3.175781 -10.40625 2.4375 -13.253906 2.4375 -16.421875 C 2.4375 -19.578125 3.175781 -22.421875 4.65625 -24.953125 C 6.144531 -27.484375 8.210938 -29.472656 10.859375 -30.921875 C 13.503906 -32.378906 16.453125 -33.109375 19.703125 -33.109375 C 22.953125 -33.109375 25.878906 -32.390625 28.484375 -30.953125 C 31.097656 -29.515625 33.15625 -27.519531 34.65625 -24.96875 C 36.164062 -22.425781 36.921875 -19.578125 36.921875 -16.421875 C 36.921875 -13.253906 36.164062 -10.394531 34.65625 -7.84375 C 33.15625 -5.300781 31.097656 -3.3125 28.484375 -1.875 C 25.878906 -0.4375 22.953125 0.28125 19.703125 0.28125 Z M 19.703125 -2.8125 C 22.296875 -2.8125 24.640625 -3.394531 26.734375 -4.5625 C 28.828125 -5.738281 30.46875 -7.367188 31.65625 -9.453125 C 32.84375 -11.535156 33.4375 -13.859375 33.4375 -16.421875 C 33.4375 -18.984375 32.84375 -21.300781 31.65625 -23.375 C 30.46875 -25.457031 28.828125 -27.082031 26.734375 -28.25 C 24.640625 -29.425781 22.296875 -30.015625 19.703125 -30.015625 C 17.109375 -30.015625 14.753906 -29.425781 12.640625 -28.25 C 10.523438 -27.082031 8.863281 -25.457031 7.65625 -23.375 C 6.457031 -21.300781 5.859375 -18.984375 5.859375 -16.421875 C 5.859375 -13.859375 6.457031 -11.535156 7.65625 -9.453125 C 8.863281 -7.367188 10.523438 -5.738281 12.640625 -4.5625 C 14.753906 -3.394531 17.109375 -2.8125 19.703125 -2.8125 Z M 19.703125 -2.8125 "/></g></g></g><g fill="#ffffff" fill-opacity="1"><g transform="translate(589.700301, 437.568942)"><g><path d="M 19.609375 0.28125 C 16.359375 0.28125 13.425781 -0.4375 10.8125 -1.875 C 8.195312 -3.3125 6.144531 -5.300781 4.65625 -7.84375 C 3.175781 -10.394531 2.4375 -13.253906 2.4375 -16.421875 C 2.4375 -19.578125 3.175781 -22.425781 4.65625 -24.96875 C 6.144531 -27.519531 8.203125 -29.515625 10.828125 -30.953125 C 13.460938 -32.390625 16.40625 -33.109375 19.65625 -33.109375 C 22.09375 -33.109375 24.34375 -32.703125 26.40625 -31.890625 C 28.46875 -31.078125 30.21875 -29.890625 31.65625 -28.328125 L 29.453125 -26.125 C 26.890625 -28.71875 23.65625 -30.015625 19.75 -30.015625 C 17.15625 -30.015625 14.789062 -29.421875 12.65625 -28.234375 C 10.53125 -27.046875 8.863281 -25.421875 7.65625 -23.359375 C 6.457031 -21.296875 5.859375 -18.984375 5.859375 -16.421875 C 5.859375 -13.859375 6.457031 -11.539062 7.65625 -9.46875 C 8.863281 -7.40625 10.53125 -5.78125 12.65625 -4.59375 C 14.789062 -3.40625 17.15625 -2.8125 19.75 -2.8125 C 23.6875 -2.8125 26.921875 -4.125 29.453125 -6.75 L 31.65625 -4.546875 C 30.21875 -2.984375 28.457031 -1.785156 26.375 -0.953125 C 24.300781 -0.128906 22.046875 0.28125 19.609375 0.28125 Z M 19.609375 0.28125 "/></g></g></g><g fill="#ffffff" fill-opacity="1"><g transform="translate(635.60932, 437.568942)"><g><path d="M 25.9375 -8.765625 L 7.640625 -8.765625 L 3.703125 0 L 0.09375 0 L 15.109375 -32.828125 L 18.53125 -32.828125 L 33.53125 0 L 29.875 0 Z M 24.671875 -11.578125 L 16.796875 -29.21875 L 8.90625 -11.578125 Z M 24.671875 -11.578125 "/></g></g></g><g fill="#ffffff" fill-opacity="1"><g transform="translate(681.424553, 437.568942)"><g><path d="M 11.71875 -29.828125 L 0.1875 -29.828125 L 0.1875 -32.828125 L 26.734375 -32.828125 L 26.734375 -29.828125 L 15.203125 -29.828125 L 15.203125 0 L 11.71875 0 Z M 11.71875 -29.828125 "/></g></g></g><g fill="#ffffff" fill-opacity="1"><g transform="translate(720.534388, 437.568942)"><g><path d="M 5.34375 -32.828125 L 8.8125 -32.828125 L 8.8125 0 L 5.34375 0 Z M 5.34375 -32.828125 "/></g></g></g><g fill="#ffffff" fill-opacity="1"><g transform="translate(746.88994, 437.568942)"><g><path d="M 19.703125 0.28125 C 16.453125 0.28125 13.503906 -0.441406 10.859375 -1.890625 C 8.210938 -3.347656 6.144531 -5.34375 4.65625 -7.875 C 3.175781 -10.40625 2.4375 -13.253906 2.4375 -16.421875 C 2.4375 -19.578125 3.175781 -22.421875 4.65625 -24.953125 C 6.144531 -27.484375 8.210938 -29.472656 10.859375 -30.921875 C 13.503906 -32.378906 16.453125 -33.109375 19.703125 -33.109375 C 22.953125 -33.109375 25.878906 -32.390625 28.484375 -30.953125 C 31.097656 -29.515625 33.15625 -27.519531 34.65625 -24.96875 C 36.164062 -22.425781 36.921875 -19.578125 36.921875 -16.421875 C 36.921875 -13.253906 36.164062 -10.394531 34.65625 -7.84375 C 33.15625 -5.300781 31.097656 -3.3125 28.484375 -1.875 C 25.878906 -0.4375 22.953125 0.28125 19.703125 0.28125 Z M 19.703125 -2.8125 C 22.296875 -2.8125 24.640625 -3.394531 26.734375 -4.5625 C 28.828125 -5.738281 30.46875 -7.367188 31.65625 -9.453125 C 32.84375 -11.535156 33.4375 -13.859375 33.4375 -16.421875 C 33.4375 -18.984375 32.84375 -21.300781 31.65625 -23.375 C 30.46875 -25.457031 28.828125 -27.082031 26.734375 -28.25 C 24.640625 -29.425781 22.296875 -30.015625 19.703125 -30.015625 C 17.109375 -30.015625 14.753906 -29.425781 12.640625 -28.25 C 10.523438 -27.082031 8.863281 -25.457031 7.65625 -23.375 C 6.457031 -21.300781 5.859375 -18.984375 5.859375 -16.421875 C 5.859375 -13.859375 6.457031 -11.535156 7.65625 -9.453125 C 8.863281 -7.367188 10.523438 -5.738281 12.640625 -4.5625 C 14.753906 -3.394531 17.109375 -2.8125 19.703125 -2.8125 Z M 19.703125 -2.8125 "/></g></g></g><g fill="#ffffff" fill-opacity="1"><g transform="translate(798.425849, 437.568942)"><g><path d="M 32.78125 -32.828125 L 32.78125 0 L 29.921875 0 L 8.8125 -26.640625 L 8.8125 0 L 5.34375 0 L 5.34375 -32.828125 L 8.203125 -32.828125 L 29.359375 -6.1875 L 29.359375 -32.828125 Z M 32.78125 -32.828125 "/></g></g></g><g fill="#ffffff" fill-opacity="1"><g transform="translate(848.742616, 437.568942)"><g/></g></g><g fill="#ffffff" fill-opacity="1"><g transform="translate(873.222583, 437.568942)"><g><path d="M 25.9375 -8.765625 L 7.640625 -8.765625 L 3.703125 0 L 0.09375 0 L 15.109375 -32.828125 L 18.53125 -32.828125 L 33.53125 0 L 29.875 0 Z M 24.671875 -11.578125 L 16.796875 -29.21875 L 8.90625 -11.578125 Z M 24.671875 -11.578125 "/></g></g></g><g fill="#ffffff" fill-opacity="1"><g transform="translate(919.037838, 437.568942)"><g><path d="M 17.640625 -32.828125 C 21.828125 -32.828125 25.109375 -31.828125 27.484375 -29.828125 C 29.859375 -27.828125 31.046875 -25.078125 31.046875 -21.578125 C 31.046875 -18.078125 29.859375 -15.332031 27.484375 -13.34375 C 25.109375 -11.351562 21.828125 -10.359375 17.640625 -10.359375 L 8.8125 -10.359375 L 8.8125 0 L 5.34375 0 L 5.34375 -32.828125 Z M 17.546875 -13.421875 C 20.796875 -13.421875 23.28125 -14.128906 25 -15.546875 C 26.71875 -16.972656 27.578125 -18.984375 27.578125 -21.578125 C 27.578125 -24.234375 26.71875 -26.269531 25 -27.6875 C 23.28125 -29.113281 20.796875 -29.828125 17.546875 -29.828125 L 8.8125 -29.828125 L 8.8125 -13.421875 Z M 17.546875 -13.421875 "/></g></g></g><g fill="#ffffff" fill-opacity="1"><g transform="translate(964.899963, 437.568942)"><g><path d="M 17.640625 -32.828125 C 21.828125 -32.828125 25.109375 -31.828125 27.484375 -29.828125 C 29.859375 -27.828125 31.046875 -25.078125 31.046875 -21.578125 C 31.046875 -18.078125 29.859375 -15.332031 27.484375 -13.34375 C 25.109375 -11.351562 21.828125 -10.359375 17.640625 -10.359375 L 8.8125 -10.359375 L 8.8125 0 L 5.34375 0 L 5.34375 -32.828125 Z M 17.546875 -13.421875 C 20.796875 -13.421875 23.28125 -14.128906 25 -15.546875 C 26.71875 -16.972656 27.578125 -18.984375 27.578125 -21.578125 C 27.578125 -24.234375 26.71875 -26.269531 25 -27.6875 C 23.28125 -29.113281 20.796875 -29.828125 17.546875 -29.828125 L 8.8125 -29.828125 L 8.8125 -13.421875 Z M 17.546875 -13.421875 "/></g></g></g><g fill="#ffffff" fill-opacity="1"><g transform="translate(1010.762089, 437.568942)"><g><path d="M 14.40625 0.28125 C 11.957031 0.28125 9.613281 -0.109375 7.375 -0.890625 C 5.144531 -1.671875 3.421875 -2.703125 2.203125 -3.984375 L 3.5625 -6.65625 C 4.75 -5.46875 6.328125 -4.503906 8.296875 -3.765625 C 10.265625 -3.035156 12.300781 -2.671875 14.40625 -2.671875 C 17.34375 -2.671875 19.546875 -3.207031 21.015625 -4.28125 C 22.484375 -5.363281 23.21875 -6.765625 23.21875 -8.484375 C 23.21875 -9.796875 22.816406 -10.84375 22.015625 -11.625 C 21.222656 -12.414062 20.25 -13.019531 19.09375 -13.4375 C 17.9375 -13.863281 16.328125 -14.328125 14.265625 -14.828125 C 11.785156 -15.453125 9.8125 -16.050781 8.34375 -16.625 C 6.875 -17.207031 5.613281 -18.09375 4.5625 -19.28125 C 3.519531 -20.46875 3 -22.078125 3 -24.109375 C 3 -25.765625 3.4375 -27.269531 4.3125 -28.625 C 5.1875 -29.988281 6.53125 -31.078125 8.34375 -31.890625 C 10.15625 -32.703125 12.410156 -33.109375 15.109375 -33.109375 C 16.984375 -33.109375 18.816406 -32.847656 20.609375 -32.328125 C 22.410156 -31.816406 23.96875 -31.109375 25.28125 -30.203125 L 24.109375 -27.4375 C 22.734375 -28.34375 21.265625 -29.019531 19.703125 -29.46875 C 18.140625 -29.925781 16.609375 -30.15625 15.109375 -30.15625 C 12.222656 -30.15625 10.050781 -29.597656 8.59375 -28.484375 C 7.144531 -27.378906 6.421875 -25.953125 6.421875 -24.203125 C 6.421875 -22.890625 6.816406 -21.832031 7.609375 -21.03125 C 8.410156 -20.238281 9.414062 -19.628906 10.625 -19.203125 C 11.832031 -18.785156 13.453125 -18.328125 15.484375 -17.828125 C 17.890625 -17.234375 19.832031 -16.644531 21.3125 -16.0625 C 22.800781 -15.488281 24.0625 -14.613281 25.09375 -13.4375 C 26.125 -12.257812 26.640625 -10.671875 26.640625 -8.671875 C 26.640625 -7.015625 26.191406 -5.503906 25.296875 -4.140625 C 24.410156 -2.785156 23.046875 -1.707031 21.203125 -0.90625 C 19.359375 -0.113281 17.09375 0.28125 14.40625 0.28125 Z M 14.40625 0.28125 "/></g></g></g><g fill="#7887ab" fill-opacity="1"><g transform="translate(225.897087, 333.975506)"><g><path d="M 117.484375 -113.4375 L 117.484375 0 L 95.9375 0 L 39.375 -68.875 L 39.375 0 L 13.453125 0 L 13.453125 -113.4375 L 35.171875 -113.4375 L 91.5625 -44.5625 L 91.5625 -113.4375 Z M 117.484375 -113.4375 "/></g></g></g><g fill="#7887ab" fill-opacity="1"><g transform="translate(364.93206, 333.975506)"><g><path d="M 97.0625 -43.265625 C 97.0625 -42.941406 96.898438 -40.671875 96.578125 -36.453125 L 30.625 -36.453125 C 31.8125 -31.054688 34.617188 -26.789062 39.046875 -23.65625 C 43.484375 -20.519531 48.992188 -18.953125 55.578125 -18.953125 C 60.117188 -18.953125 64.144531 -19.628906 67.65625 -20.984375 C 71.164062 -22.335938 74.429688 -24.472656 77.453125 -27.390625 L 90.90625 -12.796875 C 82.695312 -3.398438 70.707031 1.296875 54.9375 1.296875 C 45.101562 1.296875 36.40625 -0.617188 28.84375 -4.453125 C 21.28125 -8.285156 15.445312 -13.601562 11.34375 -20.40625 C 7.238281 -27.21875 5.1875 -34.945312 5.1875 -43.59375 C 5.1875 -52.125 7.210938 -59.816406 11.265625 -66.671875 C 15.316406 -73.535156 20.878906 -78.882812 27.953125 -82.71875 C 35.023438 -86.5625 42.9375 -88.484375 51.6875 -88.484375 C 60.226562 -88.484375 67.953125 -86.644531 74.859375 -82.96875 C 81.773438 -79.289062 87.203125 -74.019531 91.140625 -67.15625 C 95.085938 -60.300781 97.0625 -52.335938 97.0625 -43.265625 Z M 51.859375 -69.359375 C 46.128906 -69.359375 41.316406 -67.738281 37.421875 -64.5 C 33.535156 -61.257812 31.160156 -56.828125 30.296875 -51.203125 L 73.25 -51.203125 C 72.382812 -56.710938 70.003906 -61.113281 66.109375 -64.40625 C 62.222656 -67.707031 57.472656 -69.359375 51.859375 -69.359375 Z M 51.859375 -69.359375 "/></g></g></g><g fill="#7887ab" fill-opacity="1"><g transform="translate(475.285178, 333.975506)"><g><path d="M 98.203125 -87.1875 L 61.421875 0 L 35.328125 0 L -1.296875 -87.1875 L 24.796875 -87.1875 L 48.9375 -27.875 L 73.890625 -87.1875 Z M 98.203125 -87.1875 "/></g></g></g><g fill="#7887ab" fill-opacity="1"><g transform="translate(580.290856, 333.975506)"><g><path d="M 97.0625 -43.265625 C 97.0625 -42.941406 96.898438 -40.671875 96.578125 -36.453125 L 30.625 -36.453125 C 31.8125 -31.054688 34.617188 -26.789062 39.046875 -23.65625 C 43.484375 -20.519531 48.992188 -18.953125 55.578125 -18.953125 C 60.117188 -18.953125 64.144531 -19.628906 67.65625 -20.984375 C 71.164062 -22.335938 74.429688 -24.472656 77.453125 -27.390625 L 90.90625 -12.796875 C 82.695312 -3.398438 70.707031 1.296875 54.9375 1.296875 C 45.101562 1.296875 36.40625 -0.617188 28.84375 -4.453125 C 21.28125 -8.285156 15.445312 -13.601562 11.34375 -20.40625 C 7.238281 -27.21875 5.1875 -34.945312 5.1875 -43.59375 C 5.1875 -52.125 7.210938 -59.816406 11.265625 -66.671875 C 15.316406 -73.535156 20.878906 -78.882812 27.953125 -82.71875 C 35.023438 -86.5625 42.9375 -88.484375 51.6875 -88.484375 C 60.226562 -88.484375 67.953125 -86.644531 74.859375 -82.96875 C 81.773438 -79.289062 87.203125 -74.019531 91.140625 -67.15625 C 95.085938 -60.300781 97.0625 -52.335938 97.0625 -43.265625 Z M 51.859375 -69.359375 C 46.128906 -69.359375 41.316406 -67.738281 37.421875 -64.5 C 33.535156 -61.257812 31.160156 -56.828125 30.296875 -51.203125 L 73.25 -51.203125 C 72.382812 -56.710938 70.003906 -61.113281 66.109375 -64.40625 C 62.222656 -67.707031 57.472656 -69.359375 51.859375 -69.359375 Z M 51.859375 -69.359375 "/></g></g></g><g fill="#7887ab" fill-opacity="1"><g transform="translate(690.643974, 333.975506)"><g><path d="M 35.8125 -75.671875 C 38.832031 -79.890625 42.910156 -83.078125 48.046875 -85.234375 C 53.179688 -87.398438 59.097656 -88.484375 65.796875 -88.484375 L 65.796875 -65.140625 C 62.984375 -65.359375 61.09375 -65.46875 60.125 -65.46875 C 52.882812 -65.46875 47.210938 -63.441406 43.109375 -59.390625 C 39.003906 -55.335938 36.953125 -49.257812 36.953125 -41.15625 L 36.953125 0 L 11.671875 0 L 11.671875 -87.1875 L 35.8125 -87.1875 Z M 35.8125 -75.671875 "/></g></g></g><g fill="#ffffff" fill-opacity="1"><g transform="translate(760.509548, 333.975506)"><g><path d="M 19.765625 -113.4375 L 28.03125 -113.4375 L 28.03125 -7.453125 L 93.34375 -7.453125 L 93.34375 0 L 19.765625 0 Z M 19.765625 -113.4375 "/></g></g></g><g fill="#ffffff" fill-opacity="1"><g transform="translate(866.649925, 333.975506)"><g><path d="M 50.234375 0.640625 C 42.242188 0.640625 35.03125 -1.191406 28.59375 -4.859375 C 22.164062 -8.535156 17.113281 -13.640625 13.4375 -20.171875 C 9.769531 -26.710938 7.9375 -34.085938 7.9375 -42.296875 C 7.9375 -50.503906 9.769531 -57.875 13.4375 -64.40625 C 17.113281 -70.945312 22.164062 -76.050781 28.59375 -79.71875 C 35.03125 -83.394531 42.242188 -85.234375 50.234375 -85.234375 C 58.222656 -85.234375 65.429688 -83.394531 71.859375 -79.71875 C 78.296875 -76.050781 83.347656 -70.945312 87.015625 -64.40625 C 90.691406 -57.875 92.53125 -50.503906 92.53125 -42.296875 C 92.53125 -34.085938 90.691406 -26.710938 87.015625 -20.171875 C 83.347656 -13.640625 78.296875 -8.535156 71.859375 -4.859375 C 65.429688 -1.191406 58.222656 0.640625 50.234375 0.640625 Z M 50.234375 -6.640625 C 56.710938 -6.640625 62.519531 -8.148438 67.65625 -11.171875 C 72.789062 -14.203125 76.84375 -18.414062 79.8125 -23.8125 C 82.78125 -29.21875 84.265625 -35.378906 84.265625 -42.296875 C 84.265625 -49.210938 82.78125 -55.367188 79.8125 -60.765625 C 76.84375 -66.171875 72.789062 -70.382812 67.65625 -73.40625 C 62.519531 -76.425781 56.710938 -77.9375 50.234375 -77.9375 C 43.753906 -77.9375 37.945312 -76.425781 32.8125 -73.40625 C 27.6875 -70.382812 23.632812 -66.171875 20.65625 -60.765625 C 17.6875 -55.367188 16.203125 -49.210938 16.203125 -42.296875 C 16.203125 -35.378906 17.6875 -29.21875 20.65625 -23.8125 C 23.632812 -18.414062 27.6875 -14.203125 32.8125 -11.171875 C 37.945312 -8.148438 43.753906 -6.640625 50.234375 -6.640625 Z M 50.234375 -6.640625 "/></g></g></g><g fill="#ffffff" fill-opacity="1"><g transform="translate(978.461837, 333.975506)"><g><path d="M 38.5625 0.640625 C 31.757812 0.640625 25.28125 -0.382812 19.125 -2.4375 C 12.96875 -4.488281 8.160156 -7.078125 4.703125 -10.203125 L 8.421875 -16.6875 C 11.878906 -13.769531 16.335938 -11.335938 21.796875 -9.390625 C 27.253906 -7.453125 32.953125 -6.484375 38.890625 -6.484375 C 47.421875 -6.484375 53.710938 -7.882812 57.765625 -10.6875 C 61.816406 -13.5 63.84375 -17.390625 63.84375 -22.359375 C 63.84375 -25.921875 62.734375 -28.726562 60.515625 -30.78125 C 58.304688 -32.84375 55.582031 -34.359375 52.34375 -35.328125 C 49.101562 -36.296875 44.617188 -37.320312 38.890625 -38.40625 C 32.191406 -39.59375 26.789062 -40.890625 22.6875 -42.296875 C 18.582031 -43.703125 15.070312 -45.96875 12.15625 -49.09375 C 9.238281 -52.226562 7.78125 -56.550781 7.78125 -62.0625 C 7.78125 -68.757812 10.5625 -74.296875 16.125 -78.671875 C 21.6875 -83.046875 29.597656 -85.234375 39.859375 -85.234375 C 45.265625 -85.234375 50.613281 -84.476562 55.90625 -82.96875 C 61.195312 -81.457031 65.519531 -79.457031 68.875 -76.96875 L 65.140625 -70.484375 C 61.679688 -72.972656 57.738281 -74.863281 53.3125 -76.15625 C 48.882812 -77.457031 44.347656 -78.109375 39.703125 -78.109375 C 31.816406 -78.109375 25.875 -76.648438 21.875 -73.734375 C 17.875 -70.816406 15.875 -66.976562 15.875 -62.21875 C 15.875 -58.4375 17.007812 -55.492188 19.28125 -53.390625 C 21.550781 -51.285156 24.332031 -49.71875 27.625 -48.6875 C 30.925781 -47.664062 35.546875 -46.5625 41.484375 -45.375 C 48.078125 -44.1875 53.394531 -42.914062 57.4375 -41.5625 C 61.488281 -40.21875 64.921875 -38.03125 67.734375 -35 C 70.546875 -31.976562 71.953125 -27.820312 71.953125 -22.53125 C 71.953125 -15.5 69.035156 -9.878906 63.203125 -5.671875 C 57.367188 -1.460938 49.15625 0.640625 38.5625 0.640625 Z M 38.5625 0.640625 "/></g></g></g><g fill="#ffffff" fill-opacity="1"><g transform="translate(1067.263461, 333.975506)"><g><path d="M 59.140625 -5.34375 C 57.085938 -3.40625 54.519531 -1.921875 51.4375 -0.890625 C 48.363281 0.128906 45.15625 0.640625 41.8125 0.640625 C 34.457031 0.640625 28.78125 -1.378906 24.78125 -5.421875 C 20.789062 -9.472656 18.796875 -15.117188 18.796875 -22.359375 L 18.796875 -77.625 L 3.234375 -77.625 L 3.234375 -84.59375 L 18.796875 -84.59375 L 18.796875 -103.0625 L 26.90625 -103.0625 L 26.90625 -84.59375 L 53.796875 -84.59375 L 53.796875 -77.625 L 26.90625 -77.625 L 26.90625 -23.171875 C 26.90625 -17.660156 28.226562 -13.472656 30.875 -10.609375 C 33.519531 -7.742188 37.4375 -6.3125 42.625 -6.3125 C 47.914062 -6.3125 52.289062 -7.878906 55.75 -11.015625 Z M 59.140625 -5.34375 "/></g></g></g></svg>