<svg xmlns="http://www.w3.org/2000/svg" xmlns:xlink="http://www.w3.org/1999/xlink" width="500" zoomAndPan="magnify" viewBox="0 0 375 154.499995" height="206" preserveAspectRatio="xMidYMid meet" version="1.0"><defs><clipPath id="1a924cf31b"><path d="M 4.53125 0 L 114.683594 0 L 114.683594 153.441406 L 4.53125 153.441406 Z M 4.53125 0 " clip-rule="nonzero"/></clipPath><clipPath id="c082d8ee0e"><path d="M 27 22.667969 L 92.144531 22.667969 L 92.144531 87.425781 L 27 87.425781 Z M 27 22.667969 " clip-rule="nonzero"/></clipPath><clipPath id="d4b50a6005"><path d="M 56.875 87.164062 C 54.832031 86.933594 52.425781 86.460938 52.304688 86.265625 C 52.230469 86.148438 52.5625 85.976562 53.042969 85.882812 C 54.1875 85.660156 54.210938 85.660156 55.964844 85.871094 C 56.960938 85.996094 57.535156 85.957031 57.65625 85.761719 C 57.785156 85.554688 58.152344 85.589844 58.90625 85.894531 C 59.863281 86.277344 60.609375 86.292969 61.851562 85.964844 C 62.085938 85.902344 62.222656 86.007812 62.175781 86.226562 C 62.121094 86.484375 62.242188 86.535156 62.582031 86.390625 C 62.84375 86.277344 63.425781 86.207031 63.871094 86.230469 L 64.675781 86.273438 L 64.027344 85.816406 L 63.378906 85.363281 L 63.996094 85.132812 C 64.386719 84.988281 64.746094 85.019531 64.984375 85.21875 C 65.46875 85.617188 68.777344 85.332031 70.105469 84.777344 C 70.632812 84.554688 71.441406 84.371094 71.90625 84.367188 C 72.367188 84.359375 73.050781 84.183594 73.417969 83.972656 C 74.167969 83.542969 74.765625 83.460938 74.765625 83.777344 C 74.765625 84.019531 72.128906 85.195312 69.789062 85.996094 C 66.609375 87.082031 60.796875 87.605469 56.875 87.164062 Z M 64.058594 82.847656 C 63.09375 82.449219 62.554688 81.488281 62.992188 80.945312 C 63.179688 80.710938 63.152344 80.609375 62.894531 80.605469 C 62.632812 80.601562 62.613281 80.542969 62.835938 80.402344 C 63.003906 80.296875 63.226562 79.601562 63.324219 78.859375 C 63.425781 78.121094 63.667969 76.96875 63.859375 76.304688 C 64.050781 75.640625 64.207031 74.851562 64.207031 74.554688 C 64.203125 73.984375 64.4375 72.191406 64.714844 70.703125 C 64.933594 69.507812 64.402344 68.582031 63.125 67.929688 C 62.558594 67.640625 62.027344 67.195312 61.949219 66.945312 C 61.546875 65.691406 60.617188 63.816406 59.875 62.765625 C 59.152344 61.742188 59.644531 59.558594 60.84375 58.488281 C 61.5625 57.84375 61.6875 57.5625 61.617188 56.722656 C 61.566406 56.175781 61.433594 55.664062 61.3125 55.589844 C 61.191406 55.515625 61.082031 55.332031 61.070312 55.1875 C 61.054688 55.039062 60.890625 54.917969 60.707031 54.917969 C 60.523438 54.917969 60.398438 55.066406 60.4375 55.246094 C 60.519531 55.671875 58.90625 55.375 58.402344 54.871094 C 58.207031 54.675781 57.933594 54.511719 57.796875 54.511719 C 57.660156 54.511719 57.546875 54.355469 57.546875 54.15625 C 57.546875 53.582031 56.410156 52.703125 55.394531 52.496094 C 54.875 52.390625 54.1875 52.058594 53.863281 51.761719 C 53.46875 51.398438 52.824219 51.195312 51.910156 51.148438 C 50.507812 51.070312 49.066406 50.386719 49.347656 49.929688 C 49.4375 49.785156 49.144531 49.671875 48.699219 49.671875 C 47.691406 49.671875 47.382812 49.21875 48.035156 48.707031 C 48.308594 48.492188 48.402344 48.351562 48.242188 48.390625 C 47.996094 48.449219 46.960938 47.398438 46.191406 46.308594 C 46.085938 46.160156 45.632812 45.613281 45.183594 45.097656 L 44.367188 44.15625 L 44.789062 45.03125 C 45.019531 45.511719 45.320312 45.90625 45.453125 45.90625 C 45.585938 45.90625 45.628906 46.074219 45.546875 46.28125 C 45.46875 46.488281 45.53125 46.738281 45.691406 46.835938 C 45.847656 46.933594 45.976562 47.207031 45.976562 47.441406 C 45.976562 47.816406 45.910156 47.808594 45.441406 47.382812 C 45.144531 47.117188 44.902344 46.730469 44.902344 46.527344 C 44.902344 46.324219 44.71875 46.085938 44.492188 46 C 44.238281 45.902344 44.136719 45.652344 44.230469 45.359375 C 44.316406 45.09375 44.261719 44.796875 44.105469 44.699219 C 43.953125 44.605469 43.824219 44.308594 43.824219 44.042969 C 43.824219 43.78125 43.535156 43.246094 43.179688 42.863281 C 42.1875 41.796875 41.917969 40.074219 42.507812 38.617188 C 43.050781 37.28125 43.15625 36.21875 42.746094 36.21875 C 42.589844 36.21875 42.539062 35.941406 42.632812 35.578125 C 42.722656 35.222656 42.664062 34.851562 42.503906 34.753906 C 42.34375 34.652344 42.210938 34.761719 42.210938 34.992188 C 42.210938 35.222656 42.085938 35.414062 41.933594 35.414062 C 41.777344 35.414062 41.675781 35.140625 41.707031 34.808594 C 41.804688 33.660156 41.671875 33.261719 41.191406 33.261719 C 40.582031 33.261719 38.683594 34.21875 38.40625 34.667969 C 38.289062 34.855469 38.101562 35.011719 37.984375 35.011719 C 37.867188 35.011719 37.214844 35.402344 36.527344 35.875 C 35.84375 36.351562 35.214844 36.664062 35.125 36.578125 C 35.039062 36.492188 35.355469 36.160156 35.832031 35.839844 C 36.304688 35.519531 36.734375 35.019531 36.785156 34.730469 C 36.835938 34.441406 37.320312 33.808594 37.863281 33.328125 C 38.40625 32.847656 38.621094 32.535156 38.339844 32.632812 C 37.566406 32.902344 37.933594 32.121094 38.773438 31.710938 C 39.152344 31.527344 39.535156 31.101562 39.625 30.769531 C 39.835938 29.972656 41.695312 28.691406 42.660156 28.675781 C 43.078125 28.671875 44.148438 28.515625 45.035156 28.324219 C 45.925781 28.136719 47.097656 28.011719 47.640625 28.046875 C 48.457031 28.105469 48.625 28.03125 48.59375 27.625 C 48.566406 27.230469 48.46875 27.191406 48.085938 27.429688 C 47.828125 27.59375 47.535156 27.640625 47.429688 27.539062 C 47.175781 27.28125 47.839844 26.535156 48.328125 26.535156 C 48.558594 26.535156 48.664062 26.378906 48.578125 26.152344 C 48.484375 25.902344 48.773438 25.625 49.425781 25.335938 C 49.972656 25.09375 50.175781 24.953125 49.878906 25.019531 C 49.167969 25.183594 47.578125 25.738281 46.992188 26.035156 C 46.734375 26.160156 46.28125 26.265625 45.980469 26.265625 C 45.683594 26.265625 45.441406 26.371094 45.441406 26.503906 C 45.441406 26.738281 43.523438 27.507812 42.210938 27.796875 C 41.628906 27.929688 41.664062 27.859375 42.480469 27.300781 C 45.394531 25.296875 47.984375 24.195312 51.976562 23.257812 C 54.019531 22.777344 55.296875 22.675781 59.296875 22.667969 C 64.121094 22.660156 67.742188 23.09375 66.945312 23.585938 C 66.75 23.707031 66.484375 23.746094 66.359375 23.667969 C 66.234375 23.59375 64.878906 23.492188 63.339844 23.449219 C 60.996094 23.382812 60.570312 23.429688 60.695312 23.757812 C 60.777344 23.96875 60.996094 24.085938 61.183594 24.015625 C 61.644531 23.835938 63.816406 24.972656 65.222656 26.125 C 65.859375 26.644531 66.484375 27.070312 66.605469 27.070312 C 66.730469 27.070312 66.988281 27.324219 67.183594 27.632812 C 67.488281 28.121094 67.464844 28.207031 67.003906 28.328125 C 66.3125 28.511719 66.121094 29.601562 66.566406 30.863281 C 66.761719 31.414062 66.863281 31.925781 66.792969 31.996094 C 66.546875 32.242188 64.957031 31.273438 63.917969 30.25 C 63.347656 29.683594 62.753906 29.300781 62.59375 29.398438 C 62.433594 29.496094 62.382812 29.453125 62.480469 29.296875 C 62.574219 29.144531 62.464844 28.863281 62.238281 28.675781 C 62.011719 28.488281 61.890625 28.167969 61.964844 27.972656 C 62.042969 27.769531 61.925781 27.609375 61.699219 27.609375 C 61.476562 27.609375 61.226562 27.429688 61.140625 27.207031 C 61.054688 26.984375 60.855469 26.804688 60.699219 26.804688 C 60.542969 26.804688 60.21875 26.625 59.976562 26.410156 C 59.65625 26.117188 59.332031 26.078125 58.746094 26.25 C 58.308594 26.382812 58.109375 26.5 58.308594 26.511719 C 58.886719 26.550781 60.8125 28.65625 60.730469 29.164062 C 60.6875 29.417969 60.734375 29.753906 60.832031 29.910156 C 60.929688 30.066406 60.898438 30.367188 60.765625 30.582031 C 60.558594 30.914062 60.347656 30.882812 59.371094 30.367188 C 58.738281 30.035156 58.015625 29.761719 57.765625 29.761719 C 57.15625 29.761719 56.871094 29.261719 57.375 29.070312 C 57.59375 28.984375 57.84375 28.734375 57.929688 28.515625 C 58.042969 28.214844 57.945312 28.15625 57.546875 28.285156 C 57.148438 28.410156 57.007812 28.332031 57.007812 27.988281 C 57.007812 27.730469 56.929688 27.601562 56.832031 27.699219 C 56.734375 27.796875 56.523438 27.765625 56.359375 27.632812 C 56.15625 27.464844 56.066406 27.679688 56.070312 28.328125 C 56.074219 28.941406 56.238281 29.359375 56.546875 29.53125 C 56.808594 29.675781 56.964844 29.886719 56.894531 30 C 56.824219 30.113281 57.09375 30.15625 57.492188 30.097656 C 57.984375 30.027344 58.613281 30.257812 59.429688 30.8125 C 60.363281 31.441406 60.660156 31.539062 60.726562 31.234375 C 60.859375 30.632812 61.113281 30.746094 62.257812 31.917969 C 62.835938 32.511719 63.429688 32.957031 63.574219 32.910156 C 63.875 32.808594 64.578125 33.464844 65.226562 34.453125 C 65.679688 35.144531 66.339844 35.441406 66.015625 34.808594 C 65.921875 34.621094 66.097656 34.757812 66.40625 35.105469 C 66.710938 35.457031 66.960938 35.941406 66.957031 36.183594 C 66.957031 36.566406 66.921875 36.570312 66.691406 36.21875 C 66.460938 35.863281 66.429688 35.863281 66.40625 36.21875 C 66.390625 36.496094 66.339844 36.519531 66.246094 36.285156 C 66.027344 35.75 64.863281 35.867188 64.90625 36.421875 C 64.929688 36.71875 64.722656 36.921875 64.339844 36.980469 C 64.007812 37.027344 63.734375 37.191406 63.734375 37.351562 C 63.734375 37.527344 63.328125 37.582031 62.660156 37.492188 C 61.78125 37.375 61.582031 37.429688 61.578125 37.792969 C 61.574219 38.035156 61.332031 38.539062 61.042969 38.910156 C 60.753906 39.28125 60.515625 39.75 60.511719 39.953125 C 60.507812 40.265625 60.433594 40.265625 60.039062 39.953125 C 59.609375 39.609375 59.609375 39.636719 60.050781 40.328125 C 60.578125 41.152344 60.484375 41.425781 59.375 42.359375 C 58.617188 43 58.367188 44.101562 58.90625 44.433594 C 59.304688 44.679688 59.738281 45.894531 59.542969 46.210938 C 59.308594 46.585938 58.601562 45.917969 58.1875 44.933594 C 57.933594 44.324219 57.605469 44.046875 56.984375 43.921875 C 55.664062 43.660156 55.125 43.71875 55.125 44.132812 C 55.125 44.375 54.9375 44.460938 54.597656 44.371094 C 53.988281 44.210938 52.351562 45.144531 51.761719 45.988281 C 51.246094 46.726562 51.25 47.613281 51.78125 48.734375 C 52.277344 49.78125 52.679688 49.984375 53.785156 49.765625 C 54.339844 49.652344 54.644531 49.402344 54.753906 48.964844 C 54.84375 48.613281 55.050781 48.316406 55.222656 48.304688 C 55.390625 48.292969 55.742188 48.246094 56 48.195312 C 56.699219 48.0625 56.8125 48.480469 56.328125 49.417969 C 56.089844 49.882812 55.960938 50.328125 56.042969 50.410156 C 56.128906 50.496094 56.058594 50.730469 55.886719 50.933594 C 55.632812 51.242188 55.753906 51.289062 56.59375 51.195312 C 58.261719 51.011719 58.589844 51.203125 58.574219 52.347656 C 58.546875 54.277344 59.175781 55.082031 60.257812 54.503906 C 60.613281 54.3125 60.9375 54.3125 61.292969 54.503906 C 61.988281 54.875 62.019531 54.867188 62.609375 54.238281 C 62.886719 53.9375 63.347656 53.644531 63.625 53.585938 C 63.90625 53.53125 64.371094 53.394531 64.652344 53.28125 C 65.015625 53.136719 65.109375 53.171875 64.972656 53.390625 C 64.867188 53.566406 64.90625 53.707031 65.0625 53.707031 C 65.21875 53.707031 65.347656 53.59375 65.347656 53.453125 C 65.347656 53.316406 65.671875 53.367188 66.070312 53.574219 C 66.464844 53.78125 66.90625 53.875 67.050781 53.785156 C 67.195312 53.695312 67.238281 53.75 67.140625 53.902344 C 67.046875 54.058594 67.238281 54.257812 67.570312 54.34375 C 68.417969 54.574219 68.632812 54.550781 68.453125 54.261719 C 68.367188 54.125 68.441406 53.925781 68.613281 53.820312 C 68.8125 53.695312 68.855469 53.742188 68.738281 53.933594 C 68.558594 54.222656 68.933594 54.351562 69.855469 54.316406 C 70.039062 54.308594 70.195312 54.503906 70.195312 54.746094 C 70.203125 55.363281 72.035156 56.8125 73.070312 57.015625 C 74.109375 57.21875 75.035156 57.960938 75.035156 58.59375 C 75.035156 58.847656 75.164062 59.136719 75.320312 59.230469 C 75.507812 59.347656 75.441406 59.609375 75.125 59.988281 C 74.859375 60.304688 74.816406 60.417969 75.023438 60.234375 C 75.332031 59.964844 75.726562 60.078125 77.113281 60.839844 C 78.050781 61.355469 79.039062 61.777344 79.304688 61.777344 C 79.574219 61.777344 80.003906 62.011719 80.261719 62.296875 C 80.523438 62.582031 80.902344 62.753906 81.113281 62.671875 C 81.386719 62.566406 81.488281 62.753906 81.488281 63.339844 C 81.488281 63.914062 81.136719 64.570312 80.292969 65.558594 C 79.632812 66.328125 79.015625 67.335938 78.914062 67.800781 C 78.636719 69.070312 77.429688 70.609375 76.445312 70.941406 C 75.964844 71.101562 75.570312 71.40625 75.570312 71.613281 C 75.570312 71.820312 75.238281 72.203125 74.832031 72.464844 C 74.425781 72.726562 73.875 73.210938 73.605469 73.539062 C 72.285156 75.175781 70.847656 76.320312 70.246094 76.214844 C 69.78125 76.132812 69.648438 76.21875 69.707031 76.566406 C 69.792969 77.0625 69.214844 77.917969 68.796875 77.917969 C 68.65625 77.917969 67.882812 78.488281 67.078125 79.183594 C 66.105469 80.019531 65.726562 80.511719 65.9375 80.640625 C 66.164062 80.78125 66.066406 81.007812 65.601562 81.398438 C 64.984375 81.921875 64.972656 81.976562 65.414062 82.320312 C 65.675781 82.523438 65.886719 82.75 65.886719 82.828125 C 65.886719 83.167969 64.871094 83.179688 64.058594 82.847656 Z M 62.976562 36.574219 C 62.785156 36.496094 62.550781 36.507812 62.460938 36.59375 C 62.371094 36.683594 62.53125 36.75 62.816406 36.738281 C 63.128906 36.722656 63.191406 36.660156 62.976562 36.574219 Z M 64.800781 35.355469 C 64.804688 35.246094 64.628906 35.230469 64.40625 35.316406 C 64.171875 35.40625 64 35.320312 64 35.105469 C 63.996094 34.808594 63.949219 34.808594 63.753906 35.121094 C 63.609375 35.347656 63.632812 35.753906 63.808594 36.144531 L 64.101562 36.789062 L 64.445312 36.167969 C 64.636719 35.828125 64.796875 35.460938 64.800781 35.355469 Z M 56.199219 36.109375 C 56.199219 36.054688 55.925781 35.832031 55.585938 35.609375 C 55.035156 35.25 54.914062 35.253906 54.417969 35.65625 C 53.875 36.09375 53.894531 36.109375 55.03125 36.15625 C 55.675781 36.183594 56.199219 36.164062 56.199219 36.109375 Z M 55.554688 34.726562 C 55.066406 34.367188 55.066406 34.34375 55.527344 34.164062 C 55.796875 34.0625 56.46875 34.101562 57.023438 34.246094 C 57.882812 34.476562 58.011719 34.457031 57.878906 34.113281 C 57.777344 33.851562 57.835938 33.777344 58.039062 33.902344 C 58.210938 34.007812 58.5625 33.972656 58.824219 33.820312 C 59.25 33.570312 59.242188 33.546875 58.722656 33.539062 C 58.285156 33.53125 58.152344 33.363281 58.152344 32.8125 C 58.152344 32.414062 57.925781 31.925781 57.648438 31.722656 C 57.371094 31.519531 57.175781 31.300781 57.210938 31.230469 C 57.394531 30.890625 57.234375 30.570312 56.875 30.570312 C 56.652344 30.570312 56.46875 30.4375 56.46875 30.277344 C 56.46875 30.117188 56.320312 30.042969 56.132812 30.105469 C 55.949219 30.175781 55.582031 30.117188 55.320312 29.980469 C 54.949219 29.792969 54.6875 29.921875 54.152344 30.558594 C 53.773438 31.007812 53.363281 31.316406 53.246094 31.246094 C 53.128906 31.171875 52.960938 31.289062 52.875 31.507812 C 52.792969 31.730469 52.808594 31.882812 52.914062 31.847656 C 53.023438 31.816406 53.445312 32.132812 53.859375 32.550781 C 54.328125 33.023438 54.773438 33.246094 55.039062 33.144531 C 55.59375 32.929688 56.523438 33.222656 56.324219 33.550781 C 56.238281 33.6875 55.988281 33.800781 55.765625 33.800781 C 55.53125 33.800781 55.441406 33.671875 55.554688 33.488281 C 55.675781 33.292969 55.628906 33.25 55.429688 33.371094 C 55.257812 33.480469 55.1875 33.679688 55.269531 33.816406 C 55.355469 33.957031 55.296875 34.066406 55.140625 34.066406 C 54.984375 34.066406 54.855469 33.945312 54.855469 33.800781 C 54.855469 33.324219 53.847656 33.511719 53.71875 34.007812 C 53.570312 34.574219 54.195312 35.289062 54.460938 34.859375 C 54.582031 34.667969 54.738281 34.667969 54.972656 34.859375 C 55.15625 35.011719 55.390625 35.058594 55.488281 34.960938 C 55.585938 34.863281 55.664062 34.945312 55.664062 35.144531 C 55.664062 35.339844 55.753906 35.410156 55.863281 35.300781 C 55.976562 35.191406 55.835938 34.933594 55.554688 34.726562 Z M 57.546875 33.277344 C 57.546875 33.136719 57.664062 32.949219 57.8125 32.859375 C 57.964844 32.765625 58.007812 32.871094 57.917969 33.113281 C 57.738281 33.578125 57.546875 33.664062 57.546875 33.277344 Z M 54.167969 32.597656 C 53.878906 32.378906 53.789062 32.199219 53.960938 32.191406 C 54.46875 32.179688 55.125 32.492188 55.125 32.75 C 55.125 33.105469 54.761719 33.046875 54.167969 32.597656 Z M 63.195312 35.21875 C 63.195312 35.1875 62.964844 35.039062 62.6875 34.890625 C 62.324219 34.695312 62.097656 34.710938 61.902344 34.949219 C 61.695312 35.195312 61.824219 35.277344 62.410156 35.277344 C 62.84375 35.277344 63.195312 35.25 63.195312 35.21875 Z M 59.160156 34.605469 C 59.160156 34.457031 58.972656 34.335938 58.742188 34.335938 C 58.511719 34.335938 58.398438 34.457031 58.488281 34.605469 C 58.578125 34.753906 58.769531 34.875 58.90625 34.875 C 59.046875 34.875 59.160156 34.753906 59.160156 34.605469 Z M 60.101562 34.605469 C 60.011719 34.457031 59.882812 34.335938 59.816406 34.335938 C 59.753906 34.335938 59.699219 34.457031 59.699219 34.605469 C 59.699219 34.753906 59.828125 34.875 59.984375 34.875 C 60.140625 34.875 60.191406 34.753906 60.101562 34.605469 Z M 51.359375 33.25 C 51.019531 33.023438 51.070312 32.878906 51.695312 32.328125 C 52.101562 31.964844 52.433594 31.523438 52.433594 31.339844 C 52.433594 31.15625 52.261719 31.238281 52.054688 31.527344 C 51.84375 31.8125 51.582031 31.957031 51.46875 31.847656 C 51.359375 31.738281 51.410156 31.648438 51.582031 31.648438 C 51.753906 31.648438 51.898438 31.464844 51.898438 31.242188 C 51.898438 30.71875 51.386719 30.71875 51.1875 31.242188 C 51.101562 31.460938 50.921875 31.574219 50.789062 31.492188 C 50.652344 31.410156 50.613281 31.226562 50.699219 31.089844 C 50.78125 30.953125 50.730469 30.839844 50.585938 30.839844 C 50.4375 30.839844 50.238281 30.960938 50.144531 31.113281 C 50.050781 31.261719 49.851562 31.308594 49.699219 31.214844 C 49.515625 31.101562 49.546875 30.957031 49.78125 30.808594 C 50.082031 30.621094 50.074219 30.578125 49.746094 30.582031 C 49.234375 30.589844 47.871094 31.355469 48.347656 31.367188 C 48.542969 31.371094 48.632812 31.488281 48.550781 31.621094 C 48.464844 31.753906 48.671875 31.808594 49.003906 31.738281 L 49.609375 31.613281 L 48.988281 31.984375 L 48.371094 32.355469 L 49.117188 32.695312 C 49.65625 32.9375 49.894531 32.949219 49.964844 32.734375 C 50.039062 32.515625 50.175781 32.519531 50.457031 32.753906 C 50.769531 33.015625 50.777344 33.121094 50.496094 33.300781 C 50.269531 33.445312 50.429688 33.519531 50.957031 33.519531 C 51.582031 33.519531 51.671875 33.460938 51.359375 33.25 Z M 50.339844 32.292969 C 49.957031 31.875 50.214844 31.792969 50.78125 32.15625 C 50.984375 32.28125 51.042969 32.449219 50.917969 32.527344 C 50.789062 32.601562 50.53125 32.496094 50.339844 32.292969 Z M 60.902344 32.226562 C 60.75 32.066406 60.238281 32.46875 60.238281 32.75 C 60.238281 32.894531 60.40625 32.855469 60.613281 32.664062 C 60.820312 32.476562 60.949219 32.277344 60.902344 32.226562 Z M 53.242188 32.617188 C 53.242188 32.558594 53.054688 32.4375 52.824219 32.351562 C 52.585938 32.257812 52.476562 32.304688 52.570312 32.457031 C 52.730469 32.710938 53.242188 32.835938 53.242188 32.617188 Z M 49.148438 29.886719 C 49.382812 29.683594 49.25 29.613281 48.667969 29.625 C 48.226562 29.636719 47.652344 29.878906 47.390625 30.167969 C 46.929688 30.675781 46.933594 30.675781 47.5 30.207031 C 48.101562 29.710938 48.589844 29.984375 48.261719 30.636719 C 48.167969 30.824219 48.257812 30.792969 48.460938 30.570312 C 48.664062 30.347656 48.972656 30.042969 49.148438 29.886719 Z M 51.359375 30.285156 C 51.359375 30.128906 51.238281 30.074219 51.089844 30.167969 C 50.941406 30.257812 50.820312 30.386719 50.820312 30.453125 C 50.820312 30.515625 50.941406 30.570312 51.089844 30.570312 C 51.238281 30.570312 51.359375 30.441406 51.359375 30.285156 Z M 49.941406 28.230469 C 49.679688 28.164062 49.316406 28.167969 49.132812 28.242188 C 48.953125 28.316406 49.167969 28.371094 49.609375 28.363281 C 50.054688 28.359375 50.203125 28.300781 49.941406 28.230469 Z M 52.039062 27.933594 C 51.957031 27.847656 51.738281 27.933594 51.554688 28.117188 C 51.292969 28.382812 51.324219 28.410156 51.707031 28.265625 C 51.972656 28.164062 52.121094 28.015625 52.039062 27.933594 Z M 55.125 27.59375 C 55.125 27.457031 55.023438 27.339844 54.902344 27.339844 C 54.777344 27.339844 54.675781 27.519531 54.675781 27.734375 C 54.675781 27.949219 54.777344 28.0625 54.902344 27.984375 C 55.023438 27.910156 55.125 27.734375 55.125 27.59375 Z M 54.046875 27.066406 C 53.886719 26.769531 53.84375 26.375 53.953125 26.191406 C 54.078125 25.984375 53.980469 26 53.691406 26.238281 C 53.257812 26.589844 53.257812 26.644531 53.679688 27.113281 C 54.269531 27.761719 54.410156 27.746094 54.046875 27.066406 Z M 52.679688 27.246094 C 52.621094 27.191406 52.207031 27.066406 51.761719 26.96875 C 51.171875 26.835938 51.0625 26.859375 51.359375 27.058594 C 51.722656 27.308594 52.953125 27.476562 52.679688 27.246094 Z M 50.285156 26.511719 C 50.640625 26.257812 50.640625 26.238281 50.285156 26.34375 C 50.0625 26.410156 49.636719 26.335938 49.339844 26.183594 C 48.859375 25.9375 48.84375 25.957031 49.171875 26.355469 C 49.601562 26.878906 49.738281 26.894531 50.285156 26.511719 Z M 51.628906 26.140625 C 51.628906 25.890625 51.472656 25.804688 51.203125 25.90625 C 50.859375 26.039062 50.847656 26.117188 51.136719 26.300781 C 51.613281 26.601562 51.628906 26.597656 51.628906 26.140625 Z M 58.730469 25.996094 C 59.785156 25.996094 58.707031 25.40625 57.539062 25.347656 C 56.835938 25.3125 56.277344 25.117188 56.070312 24.835938 C 55.589844 24.179688 55.394531 24.273438 55.394531 25.164062 C 55.394531 25.804688 55.488281 25.921875 55.914062 25.808594 C 56.203125 25.734375 56.710938 25.867188 57.046875 26.101562 C 57.453125 26.382812 57.75 26.441406 57.925781 26.261719 C 58.070312 26.117188 58.433594 25.996094 58.730469 25.996094 Z M 52.703125 25.996094 C 52.703125 25.847656 52.574219 25.726562 52.417969 25.726562 C 52.261719 25.726562 52.207031 25.847656 52.300781 25.996094 C 52.394531 26.144531 52.519531 26.265625 52.585938 26.265625 C 52.652344 26.265625 52.703125 26.144531 52.703125 25.996094 Z M 60.019531 23.390625 C 59.824219 23.3125 59.59375 23.324219 59.503906 23.414062 C 59.414062 23.5 59.574219 23.566406 59.855469 23.554688 C 60.167969 23.542969 60.234375 23.476562 60.019531 23.390625 Z M 67.148438 82.320312 C 66.863281 82.035156 67.230469 81.6875 67.820312 81.6875 C 68.28125 81.6875 68.320312 81.753906 68.039062 82.089844 C 67.679688 82.523438 67.421875 82.59375 67.148438 82.320312 Z M 38.3125 75.777344 C 37.570312 74.914062 36.917969 74.253906 36.855469 74.3125 C 36.796875 74.367188 36.460938 74.027344 36.113281 73.550781 C 35.457031 72.664062 34.550781 72.027344 33.925781 72.011719 C 33.730469 72.003906 33.644531 72.117188 33.730469 72.257812 C 33.828125 72.414062 33.566406 72.40625 33.082031 72.234375 C 32.453125 72.015625 32.089844 71.558594 31.429688 70.160156 C 30.066406 67.28125 30.046875 67.207031 30.675781 66.875 C 30.988281 66.707031 31.160156 66.414062 31.078125 66.195312 C 30.996094 65.984375 31.046875 65.8125 31.191406 65.8125 C 31.335938 65.8125 31.449219 65.625 31.449219 65.394531 C 31.449219 65.113281 31.652344 65 32.058594 65.058594 C 32.476562 65.113281 32.664062 65 32.664062 64.6875 C 32.667969 64.441406 32.757812 64.148438 32.867188 64.039062 C 32.976562 63.929688 33.066406 63.972656 33.066406 64.132812 C 33.066406 64.292969 33.429688 64.503906 33.871094 64.601562 C 34.316406 64.699219 34.679688 64.933594 34.679688 65.117188 C 34.679688 65.304688 35.011719 65.625 35.417969 65.828125 C 35.828125 66.03125 36.226562 66.234375 36.308594 66.28125 C 36.390625 66.324219 36.40625 65.933594 36.34375 65.414062 C 36.210938 64.253906 36.71875 64.140625 36.964844 65.273438 C 37.0625 65.71875 37.246094 66.082031 37.371094 66.082031 C 37.496094 66.082031 37.746094 66.535156 37.925781 67.09375 C 38.109375 67.644531 38.511719 68.363281 38.820312 68.679688 C 39.632812 69.511719 40.058594 70.066406 40.058594 70.285156 C 40.058594 70.394531 40.25 70.691406 40.484375 70.945312 C 41.050781 71.574219 41.183594 73.589844 40.707031 74.273438 C 40.5 74.570312 40.328125 75.023438 40.328125 75.285156 C 40.328125 75.566406 40.054688 75.828125 39.644531 75.929688 C 38.964844 76.101562 38.964844 76.105469 39.507812 76.488281 C 40.046875 76.863281 40.261719 77.398438 39.859375 77.363281 C 39.746094 77.351562 39.050781 76.640625 38.3125 75.777344 Z M 40.421875 71.585938 C 40.332031 71.355469 40.207031 71.230469 40.132812 71.300781 C 40.066406 71.371094 40.085938 71.558594 40.183594 71.714844 C 40.449219 72.144531 40.605469 72.058594 40.421875 71.585938 Z M 42.898438 76.867188 C 42.738281 76.609375 44.804688 75.5 45.457031 75.492188 C 45.78125 75.492188 45.777344 75.449219 45.441406 75.230469 C 45.121094 75.023438 45.117188 74.96875 45.40625 74.964844 C 45.675781 74.960938 45.730469 74.734375 45.617188 74.152344 C 45.523438 73.699219 45.570312 73.347656 45.714844 73.347656 C 45.859375 73.347656 45.976562 73.46875 45.976562 73.617188 C 45.976562 73.761719 46.230469 74.136719 46.542969 74.445312 L 47.105469 75.007812 L 46.472656 75.453125 C 46.128906 75.699219 45.785156 75.898438 45.710938 75.898438 C 45.636719 75.902344 45.191406 76.175781 44.726562 76.507812 C 43.835938 77.144531 43.152344 77.277344 42.898438 76.867188 Z M 45.496094 70.332031 C 45.316406 70.15625 45.171875 69.914062 45.171875 69.796875 C 45.171875 69.398438 45.578125 69.574219 45.914062 70.117188 C 46.285156 70.707031 46.007812 70.847656 45.496094 70.332031 Z M 87.8125 70.050781 C 87.917969 69.71875 88.117188 68.113281 88.253906 66.484375 C 88.398438 64.734375 88.671875 63.21875 88.917969 62.773438 C 89.273438 62.140625 89.289062 61.808594 89.019531 60.695312 C 88.84375 59.960938 88.785156 58.890625 88.886719 58.289062 C 89.050781 57.3125 89.015625 57.203125 88.507812 57.203125 C 88.1875 57.203125 87.949219 57.03125 87.949219 56.800781 C 87.949219 56.292969 87.429688 56.296875 86.75 56.808594 C 86.460938 57.027344 86.011719 57.140625 85.75 57.058594 C 85.492188 56.972656 85.042969 57.03125 84.757812 57.183594 C 84.082031 57.546875 82.925781 56.675781 82.398438 55.410156 C 82.191406 54.917969 81.871094 54.546875 81.691406 54.582031 C 81.453125 54.628906 81.355469 54.136719 81.355469 52.859375 C 81.355469 51.875 81.453125 51.128906 81.566406 51.199219 C 81.683594 51.273438 81.753906 50.925781 81.722656 50.433594 C 81.691406 49.941406 81.898438 49.113281 82.179688 48.597656 C 82.464844 48.078125 82.695312 47.472656 82.699219 47.25 C 82.699219 47.027344 82.824219 46.863281 82.96875 46.886719 C 83.339844 46.9375 84.785156 45.882812 84.597656 45.695312 C 84.515625 45.613281 84.648438 45.324219 84.894531 45.050781 C 85.140625 44.78125 85.246094 44.558594 85.132812 44.558594 C 85.015625 44.558594 85.085938 44.347656 85.292969 44.089844 C 85.625 43.664062 85.617188 43.652344 85.191406 43.988281 C 84.929688 44.191406 84.703125 44.28125 84.683594 44.191406 C 84.667969 44.097656 84.632812 43.871094 84.613281 43.6875 C 84.589844 43.5 84.347656 43.390625 84.070312 43.4375 C 83.625 43.515625 83.589844 43.410156 83.761719 42.496094 C 83.871094 41.929688 83.949219 41.179688 83.9375 40.832031 C 83.902344 39.847656 84.144531 39.6875 85.003906 40.128906 C 85.742188 40.511719 85.792969 40.503906 85.792969 40.046875 C 85.792969 39.773438 85.492188 39.144531 85.121094 38.640625 C 84.320312 37.554688 84.316406 37.542969 84.921875 37.730469 C 85.347656 37.863281 85.351562 37.84375 84.960938 37.519531 C 84.496094 37.132812 84.464844 37.058594 84.417969 36.152344 C 84.394531 35.699219 84.355469 35.664062 84.265625 36.019531 C 84.195312 36.277344 83.984375 36.488281 83.789062 36.488281 C 83.292969 36.488281 83.058594 35.414062 83.511719 35.238281 C 83.714844 35.164062 83.8125 34.925781 83.730469 34.714844 C 83.625 34.4375 83.714844 34.382812 84.0625 34.515625 C 84.441406 34.660156 84.503906 34.597656 84.363281 34.234375 C 84.253906 33.941406 84.292969 33.835938 84.472656 33.945312 C 84.628906 34.042969 84.6875 34.300781 84.605469 34.515625 C 84.519531 34.734375 84.75 35.445312 85.117188 36.101562 C 85.480469 36.753906 85.71875 37.503906 85.644531 37.765625 C 85.566406 38.03125 85.644531 37.984375 85.820312 37.652344 C 86.078125 37.164062 86.027344 36.894531 85.527344 36.089844 C 85.195312 35.554688 84.976562 35.0625 85.042969 35 C 85.199219 34.839844 86.769531 37.09375 86.996094 37.800781 C 87.09375 38.117188 87.265625 38.371094 87.371094 38.371094 C 87.785156 38.371094 90.636719 44.722656 90.636719 45.640625 C 90.636719 45.875 90.441406 45.796875 90.089844 45.417969 C 89.597656 44.890625 89.023438 44.636719 89.023438 44.949219 C 89.023438 45.132812 90.140625 46.980469 90.253906 46.980469 C 90.308594 46.980469 90.277344 46.78125 90.183594 46.539062 C 90.042969 46.179688 90.101562 46.148438 90.507812 46.375 C 90.78125 46.527344 91.027344 46.878906 91.054688 47.152344 C 91.082031 47.429688 91.183594 48.015625 91.277344 48.460938 C 91.371094 48.90625 91.625 50.507812 91.84375 52.019531 C 92.269531 54.996094 92.058594 58.832031 91.285156 62.234375 C 91.078125 63.15625 90.90625 64.304688 90.90625 64.792969 C 90.902344 66.277344 90.378906 67.746094 89.796875 67.894531 C 89.503906 67.972656 88.96875 68.625 88.601562 69.34375 C 87.914062 70.707031 87.472656 71.101562 87.8125 70.050781 Z M 89.609375 44.234375 C 89.417969 44.039062 89.292969 44.023438 89.292969 44.191406 C 89.292969 44.550781 89.609375 44.871094 89.789062 44.691406 C 89.867188 44.613281 89.785156 44.40625 89.609375 44.234375 Z M 88.902344 44.222656 C 88.675781 43.199219 87.757812 41.605469 87.386719 41.601562 C 86.894531 41.601562 86.214844 42.722656 86.390625 43.25 C 86.457031 43.445312 86.742188 43.617188 87.027344 43.632812 C 88.421875 43.707031 88.75 43.769531 88.722656 43.953125 C 88.671875 44.265625 88.742188 44.558594 88.863281 44.558594 C 88.925781 44.558594 88.941406 44.410156 88.902344 44.222656 Z M 51.089844 68.886719 C 51.089844 68.652344 51.234375 68.507812 51.410156 68.566406 C 51.90625 68.730469 51.992188 69.3125 51.515625 69.3125 C 51.28125 69.3125 51.089844 69.121094 51.089844 68.886719 Z M 52.035156 68.507812 C 51.941406 68.359375 52.054688 68.234375 52.285156 68.234375 C 52.757812 68.234375 52.828125 68.398438 52.453125 68.628906 C 52.316406 68.714844 52.125 68.660156 52.035156 68.507812 Z M 46.402344 67.792969 C 46.179688 67.207031 46.476562 66.933594 46.796875 67.4375 C 47.113281 67.9375 47.121094 68.234375 46.8125 68.234375 C 46.683594 68.234375 46.496094 68.035156 46.402344 67.792969 Z M 44.09375 65.015625 C 44.09375 64.871094 43.914062 64.824219 43.691406 64.910156 C 43.199219 65.097656 43.15625 64.644531 43.628906 64.253906 C 43.878906 64.042969 44.046875 64.140625 44.273438 64.625 C 44.445312 64.984375 44.472656 65.277344 44.339844 65.277344 C 44.203125 65.277344 44.09375 65.160156 44.09375 65.015625 Z M 38.84375 64.667969 C 38.550781 64.507812 38.152344 64.152344 37.957031 63.886719 C 37.585938 63.359375 36.832031 63.210938 36.832031 63.664062 C 36.832031 63.808594 36.589844 63.929688 36.292969 63.929688 C 35.996094 63.929688 35.753906 63.808594 35.753906 63.664062 C 35.753906 63.511719 35.511719 63.394531 35.21875 63.394531 C 34.921875 63.394531 34.679688 63.273438 34.679688 63.125 C 34.679688 62.976562 34.800781 62.855469 34.949219 62.855469 C 35.480469 62.855469 34.578125 61.832031 33.664062 61.394531 C 33.050781 61.101562 32.796875 60.824219 32.894531 60.558594 C 32.988281 60.324219 32.890625 60.164062 32.660156 60.164062 C 32.429688 60.164062 32.335938 60.324219 32.429688 60.566406 C 32.542969 60.863281 32.398438 60.972656 31.898438 60.972656 C 31.523438 60.972656 31.136719 60.851562 31.046875 60.703125 C 30.957031 60.554688 31.128906 60.433594 31.433594 60.433594 C 31.738281 60.433594 32.003906 60.3125 32.023438 60.164062 C 32.042969 60.015625 32.070312 59.785156 32.089844 59.648438 C 32.144531 59.25 32.527344 58.96875 32.527344 59.328125 C 32.527344 59.511719 32.632812 59.59375 32.765625 59.511719 C 32.894531 59.429688 33.152344 59.542969 33.335938 59.765625 C 33.519531 59.984375 33.570312 60.164062 33.445312 60.164062 C 33.324219 60.164062 33.367188 60.304688 33.539062 60.476562 C 33.773438 60.710938 33.945312 60.707031 34.242188 60.460938 C 34.558594 60.199219 34.894531 60.265625 35.953125 60.800781 C 36.675781 61.167969 37.425781 61.660156 37.621094 61.890625 C 37.816406 62.125 38.304688 62.316406 38.714844 62.316406 C 39.464844 62.316406 40.203125 61.746094 39.878906 61.417969 C 39.78125 61.320312 39.835938 61.242188 40 61.242188 C 40.570312 61.242188 40.621094 61.777344 40.097656 62.339844 C 39.742188 62.71875 39.390625 62.847656 39.027344 62.734375 C 38.089844 62.4375 38.03125 63.160156 38.933594 63.964844 C 39.8125 64.75 39.757812 65.175781 38.84375 64.667969 Z M 42.046875 63.882812 C 41.921875 63.679688 42 63.625 42.269531 63.730469 C 42.496094 63.816406 42.804688 63.765625 42.957031 63.617188 C 43.136719 63.433594 43.285156 63.441406 43.40625 63.636719 C 43.507812 63.800781 43.550781 63.941406 43.507812 63.949219 C 42.652344 64.15625 42.203125 64.136719 42.046875 63.882812 Z M 29.933594 63.082031 C 29.808594 62.875 29.371094 62.5 28.972656 62.242188 C 27.941406 61.589844 27.558594 60.808594 28.152344 60.582031 C 28.402344 60.484375 28.523438 60.492188 28.414062 60.597656 C 28.144531 60.871094 29.039062 61.804688 29.375 61.597656 C 29.53125 61.5 29.570312 61.558594 29.464844 61.730469 C 29.351562 61.914062 29.546875 62.097656 29.960938 62.203125 C 30.695312 62.390625 30.761719 62.519531 30.402344 63.089844 C 30.203125 63.398438 30.132812 63.398438 29.933594 63.082031 Z M 30.808594 63.007812 C 30.886719 62.800781 31.140625 62.554688 31.367188 62.46875 C 31.664062 62.355469 31.734375 62.433594 31.613281 62.738281 C 31.523438 62.972656 31.449219 63.21875 31.449219 63.28125 C 31.449219 63.34375 31.273438 63.394531 31.054688 63.394531 C 30.824219 63.394531 30.722656 63.234375 30.808594 63.007812 Z M 41.136719 62.855469 C 40.773438 62.175781 41.074219 62.175781 41.941406 62.855469 C 42.609375 63.375 42.609375 63.382812 42.019531 63.386719 C 41.691406 63.390625 41.292969 63.148438 41.136719 62.855469 Z M 32.527344 62.738281 C 32.527344 62.671875 32.648438 62.542969 32.796875 62.453125 C 32.941406 62.359375 33.066406 62.414062 33.066406 62.570312 C 33.066406 62.726562 32.941406 62.855469 32.796875 62.855469 C 32.648438 62.855469 32.527344 62.800781 32.527344 62.738281 Z M 33.492188 62.351562 C 33.375 62.164062 33.351562 61.9375 33.441406 61.851562 C 33.679688 61.609375 33.945312 61.964844 33.816406 62.355469 C 33.722656 62.628906 33.660156 62.628906 33.492188 62.351562 Z M 29.75 61.335938 C 29.648438 61.234375 29.554688 60.597656 29.535156 59.917969 C 29.507812 58.878906 29.476562 58.808594 29.332031 59.476562 C 29.242188 59.910156 29.074219 60.246094 28.960938 60.214844 C 28.851562 60.1875 28.652344 60.164062 28.523438 60.164062 C 27.972656 60.164062 27.945312 58.328125 28.46875 57.03125 C 28.984375 55.757812 29.058594 55.78125 29.164062 57.234375 C 29.242188 58.265625 29.554688 58.617188 30.269531 58.476562 C 30.691406 58.398438 30.914062 58.480469 30.914062 58.722656 C 30.914062 58.921875 30.640625 59.097656 30.308594 59.105469 L 29.703125 59.121094 L 30.308594 59.367188 C 30.640625 59.5 30.910156 59.765625 30.910156 59.953125 C 30.90625 60.21875 30.851562 60.214844 30.671875 59.933594 C 30.546875 59.734375 30.375 59.679688 30.292969 59.8125 C 30.207031 59.945312 30.25 60.230469 30.386719 60.445312 C 30.523438 60.660156 30.628906 61.019531 30.617188 61.242188 C 30.605469 61.558594 30.570312 61.566406 30.457031 61.277344 C 30.351562 61.019531 30.253906 61 30.121094 61.214844 C 30.019531 61.382812 29.851562 61.433594 29.75 61.335938 Z M 56.515625 60.433594 C 56.652344 60.027344 57.082031 59.984375 57.210938 60.367188 C 57.273438 60.550781 57.121094 60.703125 56.875 60.703125 C 56.628906 60.703125 56.464844 60.582031 56.515625 60.433594 Z M 33.894531 60.050781 C 33.882812 59.769531 33.945312 59.609375 34.035156 59.699219 C 34.125 59.789062 34.132812 60.019531 34.058594 60.214844 C 33.96875 60.429688 33.90625 60.367188 33.894531 60.050781 Z M 27.265625 58.484375 C 26.953125 55.960938 26.949219 55.847656 27.15625 55.71875 C 27.261719 55.65625 27.429688 56.355469 27.53125 57.277344 C 27.632812 58.199219 27.785156 59.226562 27.863281 59.558594 C 27.945312 59.890625 27.890625 60.164062 27.738281 60.164062 C 27.589844 60.164062 27.375 59.40625 27.265625 58.484375 Z M 31.429688 60.097656 C 31.226562 59.417969 31.234375 58.683594 31.441406 58.328125 C 31.640625 57.984375 31.707031 58.148438 31.710938 59.019531 C 31.714844 59.648438 31.660156 60.164062 31.585938 60.164062 C 31.511719 60.164062 31.441406 60.132812 31.429688 60.097656 Z M 43.558594 57.871094 C 43.558594 57.644531 43.253906 57.324219 42.886719 57.15625 C 42.300781 56.890625 41.953125 56.398438 42.351562 56.398438 C 42.597656 56.398438 43.6875 57.0625 43.890625 57.339844 C 44.175781 57.730469 44.140625 58.28125 43.828125 58.28125 C 43.679688 58.28125 43.558594 58.097656 43.558594 57.871094 Z M 30.105469 56.128906 C 29.910156 55.765625 29.90625 55.589844 30.097656 55.589844 C 30.25 55.589844 30.375 55.402344 30.375 55.171875 C 30.375 54.941406 30.496094 54.828125 30.644531 54.917969 C 30.988281 55.132812 30.996094 56.667969 30.652344 56.667969 C 30.511719 56.667969 30.265625 56.425781 30.105469 56.128906 Z M 28.765625 55.269531 C 28.769531 55.078125 28.886719 54.738281 29.03125 54.515625 C 29.242188 54.1875 29.292969 54.222656 29.292969 54.703125 C 29.296875 55.023438 29.179688 55.363281 29.03125 55.457031 C 28.882812 55.546875 28.761719 55.464844 28.765625 55.269531 Z M 27.113281 54.449219 C 27.003906 51.761719 27.957031 45.609375 28.507812 45.414062 C 28.648438 45.363281 28.761719 45.050781 28.761719 44.71875 C 28.761719 43.992188 30.011719 40.800781 30.496094 40.300781 C 30.78125 40.007812 30.867188 40.019531 31.007812 40.382812 C 31.117188 40.664062 31.070312 40.753906 30.882812 40.640625 C 30.6875 40.519531 30.644531 40.644531 30.761719 41.007812 C 30.878906 41.378906 30.761719 41.722656 30.40625 42.054688 C 29.839844 42.582031 29.300781 43.773438 29.300781 44.496094 C 29.300781 44.859375 29.363281 44.847656 29.695312 44.410156 C 29.910156 44.121094 30.09375 43.554688 30.097656 43.148438 C 30.101562 42.742188 30.226562 42.40625 30.375 42.40625 C 30.863281 42.40625 30.65625 44.253906 30.039062 45.425781 C 29.519531 46.414062 29.421875 46.492188 29.347656 45.972656 C 29.300781 45.640625 29.164062 45.367188 29.042969 45.367188 C 28.519531 45.367188 28.261719 48.691406 28.761719 49 C 29.207031 49.277344 29.089844 50.289062 28.632812 50.113281 C 28.039062 49.886719 27.761719 50.664062 27.738281 52.632812 C 27.707031 55.289062 27.703125 55.320312 27.417969 55.320312 C 27.269531 55.320312 27.132812 54.929688 27.113281 54.449219 Z M 29.628906 54.40625 C 29.710938 53.972656 29.644531 53.796875 29.429688 53.882812 C 29.003906 54.042969 28.632812 51.847656 29.019531 51.457031 C 29.214844 51.265625 29.300781 51.417969 29.300781 51.957031 C 29.300781 52.433594 29.574219 53.027344 30.011719 53.480469 C 30.609375 54.105469 30.667969 54.292969 30.382812 54.640625 C 29.871094 55.257812 29.488281 55.140625 29.628906 54.40625 Z M 61.261719 49.886719 C 61.511719 49.636719 61.65625 49.636719 61.90625 49.886719 C 62.15625 50.140625 62.085938 50.210938 61.582031 50.210938 C 61.082031 50.210938 61.007812 50.140625 61.261719 49.886719 Z M 62.929688 49.925781 C 62.929688 49.753906 63.101562 49.679688 63.308594 49.761719 C 63.519531 49.84375 63.761719 49.726562 63.84375 49.503906 C 63.9375 49.257812 64.132812 49.183594 64.339844 49.308594 C 64.523438 49.425781 64.9375 49.488281 65.257812 49.445312 C 65.574219 49.40625 65.917969 49.5 66.011719 49.65625 C 66.109375 49.816406 65.972656 49.949219 65.703125 49.957031 C 65.433594 49.96875 64.699219 50.035156 64.070312 50.105469 C 63.308594 50.191406 62.929688 50.132812 62.929688 49.925781 Z M 66.640625 49.886719 C 66.890625 49.636719 67.035156 49.636719 67.285156 49.886719 C 67.539062 50.140625 67.464844 50.210938 66.964844 50.210938 C 66.460938 50.210938 66.390625 50.140625 66.640625 49.886719 Z M 60.433594 48.4375 C 60.023438 48.214844 59.550781 48.117188 59.382812 48.222656 C 59.195312 48.335938 59.152344 48.289062 59.269531 48.097656 C 59.390625 47.902344 59.253906 47.789062 58.894531 47.789062 C 58.578125 47.789062 58.382812 47.882812 58.453125 48 C 58.527344 48.117188 58.351562 48.210938 58.066406 48.210938 C 57.351562 48.210938 57.417969 47.835938 58.195312 47.484375 C 58.71875 47.246094 59.160156 47.308594 60.480469 47.824219 C 62.09375 48.449219 62.578125 48.875 61.652344 48.855469 C 61.390625 48.847656 60.84375 48.660156 60.433594 48.4375 Z M 84.453125 44.84375 C 84.453125 44.6875 84.574219 44.558594 84.722656 44.558594 C 84.867188 44.558594 84.988281 44.613281 84.988281 44.679688 C 84.988281 44.746094 84.867188 44.875 84.722656 44.964844 C 84.574219 45.054688 84.453125 45 84.453125 44.84375 Z M 84.988281 39.867188 C 84.988281 39.804688 85.109375 39.675781 85.257812 39.582031 C 85.40625 39.492188 85.527344 39.546875 85.527344 39.703125 C 85.527344 39.859375 85.40625 39.988281 85.257812 39.988281 C 85.109375 39.988281 84.988281 39.933594 84.988281 39.867188 Z M 31.722656 38.539062 C 31.722656 38.316406 31.84375 38.0625 31.992188 37.96875 C 32.140625 37.878906 32.257812 37.984375 32.257812 38.207031 C 32.257812 38.429688 32.140625 38.683594 31.992188 38.777344 C 31.84375 38.867188 31.722656 38.761719 31.722656 38.539062 Z M 32.796875 38.523438 C 32.796875 38.457031 32.917969 38.332031 33.066406 38.238281 C 33.214844 38.148438 33.335938 38.199219 33.335938 38.355469 C 33.335938 38.515625 33.214844 38.640625 33.066406 38.640625 C 32.917969 38.640625 32.796875 38.589844 32.796875 38.523438 Z M 34.410156 37.042969 C 34.410156 36.886719 34.53125 36.757812 34.679688 36.757812 C 34.828125 36.757812 34.949219 36.8125 34.949219 36.878906 C 34.949219 36.941406 34.828125 37.070312 34.679688 37.164062 C 34.53125 37.253906 34.410156 37.199219 34.410156 37.042969 Z M 34.808594 34.597656 C 34.71875 34.449219 34.5 34.414062 34.324219 34.519531 C 34.144531 34.628906 34.167969 34.511719 34.378906 34.253906 C 34.761719 33.78125 35.628906 33.640625 35.859375 34.015625 C 35.929688 34.132812 35.761719 34.371094 35.484375 34.546875 C 35.15625 34.753906 34.917969 34.769531 34.808594 34.597656 Z M 70.378906 30.808594 C 70.109375 30.652344 69.710938 30.59375 69.488281 30.679688 C 69.265625 30.765625 69.160156 30.71875 69.253906 30.566406 C 69.34375 30.421875 69.269531 30.300781 69.089844 30.300781 C 68.492188 30.300781 69.101562 29.945312 69.828125 29.867188 C 70.667969 29.777344 72.164062 30.480469 71.933594 30.851562 C 71.726562 31.1875 70.992188 31.167969 70.378906 30.808594 Z M 70.378906 30.808594 " clip-rule="nonzero"/></clipPath><radialGradient gradientTransform="matrix(1.00303, 0, 0, 0.99697, -30.152665, -8.43862)" gradientUnits="userSpaceOnUse" r="75.354624" cx="66.411758" id="3028cbab19" cy="44.592714" fx="66.411758" fy="44.592714"><stop stop-opacity="1" stop-color="rgb(22.399902%, 28.999329%, 41.598511%)" offset="0"/><stop stop-opacity="1" stop-color="rgb(22.399902%, 28.999329%, 41.598511%)" offset="1"/></radialGradient></defs><g clip-path="url(#1a924cf31b)"><path fill="#1a2d4b" d="M 59.5625 0 C 29.195312 0 4.53125 24.664062 4.53125 55.082031 C 4.53125 64.726562 6.976562 73.746094 11.34375 81.664062 C 11.441406 81.808594 11.488281 81.953125 11.585938 82.144531 L 17.054688 90.109375 L 17.101562 90.15625 L 60.238281 153.539062 L 102.796875 89.246094 C 110.230469 79.839844 114.695312 67.988281 114.695312 55.082031 C 114.695312 24.664062 89.984375 0 59.5625 0 Z M 26.839844 55.082031 C 26.839844 36.996094 41.523438 22.359375 59.5625 22.359375 C 77.652344 22.359375 92.335938 36.996094 92.335938 55.082031 C 92.335938 66.261719 86.722656 76.097656 78.183594 82 C 72.902344 85.648438 66.523438 87.757812 59.613281 87.757812 C 52.609375 87.757812 46.035156 85.550781 40.757812 81.761719 C 32.359375 75.859375 26.839844 66.164062 26.839844 55.082031 Z M 26.839844 55.082031 " fill-opacity="1" fill-rule="nonzero"/></g><g clip-path="url(#c082d8ee0e)"><g clip-path="url(#d4b50a6005)"><path fill="url(#3028cbab19)" d="M 26.949219 22.667969 L 26.949219 87.425781 L 92.144531 87.425781 L 92.144531 22.667969 Z M 26.949219 22.667969 " fill-rule="nonzero"/></g></g><path fill="#394a6a" d="M 118.707031 129.648438 L 119.730469 129.648438 L 119.730469 133.503906 C 119.257812 133.917969 118.699219 134.238281 118.054688 134.457031 C 117.410156 134.679688 116.734375 134.789062 116.023438 134.789062 C 115.011719 134.789062 114.101562 134.566406 113.289062 134.125 C 112.480469 133.683594 111.847656 133.070312 111.386719 132.289062 C 110.921875 131.503906 110.691406 130.621094 110.691406 129.648438 C 110.691406 128.675781 110.921875 127.800781 111.386719 127.015625 C 111.847656 126.230469 112.480469 125.617188 113.289062 125.175781 C 114.101562 124.730469 115.015625 124.511719 116.035156 124.511719 C 116.804688 124.511719 117.511719 124.632812 118.15625 124.878906 C 118.800781 125.125 119.34375 125.488281 119.789062 125.96875 L 119.125 126.644531 C 118.324219 125.855469 117.3125 125.460938 116.078125 125.460938 C 115.261719 125.460938 114.523438 125.644531 113.863281 126.007812 C 113.199219 126.367188 112.683594 126.867188 112.308594 127.507812 C 111.933594 128.144531 111.746094 128.859375 111.746094 129.648438 C 111.746094 130.4375 111.933594 131.152344 112.308594 131.789062 C 112.683594 132.421875 113.199219 132.921875 113.851562 133.289062 C 114.507812 133.65625 115.246094 133.835938 116.066406 133.835938 C 117.105469 133.835938 117.984375 133.578125 118.707031 133.058594 Z M 118.707031 129.648438 " fill-opacity="1" fill-rule="nonzero"/><path fill="#394a6a" d="M 133.648438 133.78125 L 133.648438 134.703125 L 126.5 134.703125 L 126.5 124.597656 L 133.429688 124.597656 L 133.429688 125.519531 L 127.566406 125.519531 L 127.566406 129.113281 L 132.796875 129.113281 L 132.796875 130.023438 L 127.566406 130.023438 L 127.566406 133.78125 Z M 133.648438 133.78125 " fill-opacity="1" fill-rule="nonzero"/><path fill="#394a6a" d="M 144.332031 134.789062 C 143.328125 134.789062 142.421875 134.566406 141.609375 134.121094 C 140.792969 133.671875 140.15625 133.058594 139.699219 132.277344 C 139.242188 131.5 139.015625 130.621094 139.015625 129.648438 C 139.015625 128.675781 139.242188 127.800781 139.699219 127.019531 C 140.15625 126.242188 140.792969 125.628906 141.609375 125.183594 C 142.421875 124.734375 143.328125 124.511719 144.332031 124.511719 C 145.332031 124.511719 146.230469 124.730469 147.035156 125.175781 C 147.839844 125.617188 148.472656 126.230469 148.933594 127.015625 C 149.398438 127.800781 149.632812 128.675781 149.632812 129.648438 C 149.632812 130.621094 149.398438 131.503906 148.933594 132.289062 C 148.472656 133.070312 147.839844 133.683594 147.035156 134.125 C 146.230469 134.566406 145.332031 134.789062 144.332031 134.789062 Z M 144.332031 133.835938 C 145.128906 133.835938 145.851562 133.65625 146.496094 133.296875 C 147.140625 132.9375 147.644531 132.433594 148.011719 131.792969 C 148.375 131.152344 148.558594 130.4375 148.558594 129.648438 C 148.558594 128.859375 148.375 128.144531 148.011719 127.507812 C 147.644531 126.867188 147.140625 126.367188 146.496094 126.007812 C 145.851562 125.644531 145.128906 125.460938 144.332031 125.460938 C 143.53125 125.460938 142.808594 125.644531 142.15625 126.007812 C 141.503906 126.367188 140.992188 126.867188 140.621094 127.507812 C 140.253906 128.144531 140.070312 128.859375 140.070312 129.648438 C 140.070312 130.4375 140.253906 131.152344 140.621094 131.792969 C 140.992188 132.433594 141.503906 132.9375 142.15625 133.296875 C 142.808594 133.65625 143.53125 133.835938 144.332031 133.835938 Z M 144.332031 133.835938 " fill-opacity="1" fill-rule="nonzero"/><path fill="#394a6a" d="M 155.773438 124.597656 L 156.84375 124.597656 L 156.84375 133.78125 L 162.503906 133.78125 L 162.503906 134.703125 L 155.773438 134.703125 Z M 155.773438 124.597656 " fill-opacity="1" fill-rule="nonzero"/><path fill="#394a6a" d="M 172.453125 134.789062 C 171.453125 134.789062 170.542969 134.566406 169.730469 134.121094 C 168.914062 133.671875 168.277344 133.058594 167.820312 132.277344 C 167.363281 131.5 167.136719 130.621094 167.136719 129.648438 C 167.136719 128.675781 167.363281 127.800781 167.820312 127.019531 C 168.277344 126.242188 168.914062 125.628906 169.730469 125.183594 C 170.542969 124.734375 171.453125 124.511719 172.453125 124.511719 C 173.453125 124.511719 174.351562 124.730469 175.15625 125.175781 C 175.960938 125.617188 176.59375 126.230469 177.054688 127.015625 C 177.519531 127.800781 177.753906 128.675781 177.753906 129.648438 C 177.753906 130.621094 177.519531 131.503906 177.054688 132.289062 C 176.59375 133.070312 175.960938 133.683594 175.15625 134.125 C 174.351562 134.566406 173.453125 134.789062 172.453125 134.789062 Z M 172.453125 133.835938 C 173.25 133.835938 173.972656 133.65625 174.617188 133.296875 C 175.261719 132.9375 175.765625 132.433594 176.132812 131.792969 C 176.496094 131.152344 176.679688 130.4375 176.679688 129.648438 C 176.679688 128.859375 176.496094 128.144531 176.132812 127.507812 C 175.765625 126.867188 175.261719 126.367188 174.617188 126.007812 C 173.972656 125.644531 173.25 125.460938 172.453125 125.460938 C 171.652344 125.460938 170.929688 125.644531 170.277344 126.007812 C 169.625 126.367188 169.113281 126.867188 168.742188 127.507812 C 168.375 128.144531 168.191406 128.859375 168.191406 129.648438 C 168.191406 130.4375 168.375 131.152344 168.742188 131.792969 C 169.113281 132.433594 169.625 132.9375 170.277344 133.296875 C 170.929688 133.65625 171.652344 133.835938 172.453125 133.835938 Z M 172.453125 133.835938 " fill-opacity="1" fill-rule="nonzero"/><path fill="#394a6a" d="M 188.289062 134.789062 C 187.289062 134.789062 186.382812 134.566406 185.578125 134.125 C 184.773438 133.683594 184.144531 133.070312 183.683594 132.289062 C 183.230469 131.503906 183 130.621094 183 129.648438 C 183 128.675781 183.230469 127.800781 183.683594 127.015625 C 184.144531 126.230469 184.777344 125.617188 185.585938 125.175781 C 186.394531 124.730469 187.300781 124.511719 188.300781 124.511719 C 189.050781 124.511719 189.746094 124.636719 190.378906 124.886719 C 191.015625 125.136719 191.554688 125.5 191.996094 125.980469 L 191.316406 126.660156 C 190.53125 125.863281 189.535156 125.460938 188.332031 125.460938 C 187.53125 125.460938 186.804688 125.644531 186.148438 126.011719 C 185.492188 126.375 184.980469 126.875 184.609375 127.511719 C 184.238281 128.148438 184.054688 128.859375 184.054688 129.648438 C 184.054688 130.4375 184.238281 131.152344 184.609375 131.789062 C 184.980469 132.421875 185.492188 132.921875 186.148438 133.289062 C 186.804688 133.65625 187.53125 133.835938 188.332031 133.835938 C 189.542969 133.835938 190.539062 133.433594 191.316406 132.625 L 191.996094 133.304688 C 191.554688 133.785156 191.011719 134.152344 190.371094 134.410156 C 189.730469 134.664062 189.039062 134.789062 188.289062 134.789062 Z M 188.289062 134.789062 " fill-opacity="1" fill-rule="nonzero"/><path fill="#394a6a" d="M 204.367188 132.003906 L 198.738281 132.003906 L 197.523438 134.703125 L 196.414062 134.703125 L 201.035156 124.597656 L 202.089844 124.597656 L 206.707031 134.703125 L 205.582031 134.703125 Z M 203.980469 131.136719 L 201.554688 125.707031 L 199.125 131.136719 Z M 203.980469 131.136719 " fill-opacity="1" fill-rule="nonzero"/><path fill="#394a6a" d="M 214.097656 125.519531 L 210.546875 125.519531 L 210.546875 124.597656 L 218.71875 124.597656 L 218.71875 125.519531 L 215.167969 125.519531 L 215.167969 134.703125 L 214.097656 134.703125 Z M 214.097656 125.519531 " fill-opacity="1" fill-rule="nonzero"/><path fill="#394a6a" d="M 224.171875 124.597656 L 225.242188 124.597656 L 225.242188 134.703125 L 224.171875 134.703125 Z M 224.171875 124.597656 " fill-opacity="1" fill-rule="nonzero"/><path fill="#394a6a" d="M 236.707031 134.789062 C 235.707031 134.789062 234.796875 134.566406 233.984375 134.121094 C 233.167969 133.671875 232.53125 133.058594 232.074219 132.277344 C 231.617188 131.5 231.390625 130.621094 231.390625 129.648438 C 231.390625 128.675781 231.617188 127.800781 232.074219 127.019531 C 232.53125 126.242188 233.167969 125.628906 233.984375 125.183594 C 234.796875 124.734375 235.707031 124.511719 236.707031 124.511719 C 237.707031 124.511719 238.609375 124.730469 239.410156 125.175781 C 240.214844 125.617188 240.847656 126.230469 241.308594 127.015625 C 241.773438 127.800781 242.007812 128.675781 242.007812 129.648438 C 242.007812 130.621094 241.773438 131.503906 241.308594 132.289062 C 240.847656 133.070312 240.214844 133.683594 239.410156 134.125 C 238.609375 134.566406 237.707031 134.789062 236.707031 134.789062 Z M 236.707031 133.835938 C 237.503906 133.835938 238.226562 133.65625 238.871094 133.296875 C 239.515625 132.9375 240.019531 132.433594 240.386719 131.792969 C 240.753906 131.152344 240.933594 130.4375 240.933594 129.648438 C 240.933594 128.859375 240.753906 128.144531 240.386719 127.507812 C 240.019531 126.867188 239.515625 126.367188 238.871094 126.007812 C 238.226562 125.644531 237.503906 125.460938 236.707031 125.460938 C 235.910156 125.460938 235.183594 125.644531 234.53125 126.007812 C 233.878906 126.367188 233.371094 126.867188 233 127.507812 C 232.628906 128.144531 232.445312 128.859375 232.445312 129.648438 C 232.445312 130.4375 232.628906 131.152344 233 131.792969 C 233.371094 132.433594 233.878906 132.9375 234.53125 133.296875 C 235.183594 133.65625 235.910156 133.835938 236.707031 133.835938 Z M 236.707031 133.835938 " fill-opacity="1" fill-rule="nonzero"/><path fill="#394a6a" d="M 256.597656 124.597656 L 256.597656 134.703125 L 255.71875 134.703125 L 249.21875 126.5 L 249.21875 134.703125 L 248.152344 134.703125 L 248.152344 124.597656 L 249.03125 124.597656 L 255.542969 132.796875 L 255.542969 124.597656 Z M 256.597656 124.597656 " fill-opacity="1" fill-rule="nonzero"/><path fill="#394a6a" d="M 277.515625 132.003906 L 271.882812 132.003906 L 270.671875 134.703125 L 269.5625 134.703125 L 274.183594 124.597656 L 275.238281 124.597656 L 279.855469 134.703125 L 278.730469 134.703125 Z M 277.128906 131.136719 L 274.703125 125.707031 L 272.273438 131.136719 Z M 277.128906 131.136719 " fill-opacity="1" fill-rule="nonzero"/><path fill="#394a6a" d="M 289.066406 124.597656 C 290.355469 124.597656 291.367188 124.90625 292.097656 125.519531 C 292.828125 126.136719 293.195312 126.984375 293.195312 128.058594 C 293.195312 129.136719 292.828125 129.984375 292.097656 130.59375 C 291.367188 131.207031 290.355469 131.515625 289.066406 131.515625 L 286.347656 131.515625 L 286.347656 134.703125 L 285.28125 134.703125 L 285.28125 124.597656 Z M 289.039062 130.570312 C 290.039062 130.570312 290.804688 130.351562 291.332031 129.917969 C 291.859375 129.476562 292.125 128.859375 292.125 128.058594 C 292.125 127.242188 291.859375 126.617188 291.332031 126.179688 C 290.804688 125.742188 290.039062 125.519531 289.039062 125.519531 L 286.347656 125.519531 L 286.347656 130.570312 Z M 289.039062 130.570312 " fill-opacity="1" fill-rule="nonzero"/><path fill="#394a6a" d="M 303.183594 124.597656 C 304.472656 124.597656 305.484375 124.90625 306.214844 125.519531 C 306.945312 126.136719 307.3125 126.984375 307.3125 128.058594 C 307.3125 129.136719 306.945312 129.984375 306.214844 130.59375 C 305.484375 131.207031 304.472656 131.515625 303.183594 131.515625 L 300.46875 131.515625 L 300.46875 134.703125 L 299.398438 134.703125 L 299.398438 124.597656 Z M 303.15625 130.570312 C 304.15625 130.570312 304.921875 130.351562 305.449219 129.917969 C 305.980469 129.476562 306.242188 128.859375 306.242188 128.058594 C 306.242188 127.242188 305.980469 126.617188 305.449219 126.179688 C 304.921875 125.742188 304.15625 125.519531 303.15625 125.519531 L 300.46875 125.519531 L 300.46875 130.570312 Z M 303.15625 130.570312 " fill-opacity="1" fill-rule="nonzero"/><path fill="#394a6a" d="M 316.308594 134.789062 C 315.554688 134.789062 314.832031 134.667969 314.144531 134.429688 C 313.457031 134.1875 312.925781 133.871094 312.550781 133.476562 L 312.96875 132.652344 C 313.335938 133.019531 313.820312 133.316406 314.425781 133.542969 C 315.03125 133.769531 315.660156 133.878906 316.308594 133.878906 C 317.210938 133.878906 317.890625 133.714844 318.34375 133.386719 C 318.792969 133.050781 319.019531 132.621094 319.019531 132.089844 C 319.019531 131.6875 318.898438 131.363281 318.648438 131.125 C 318.40625 130.882812 318.105469 130.695312 317.75 130.566406 C 317.394531 130.433594 316.898438 130.292969 316.265625 130.136719 C 315.5 129.945312 314.894531 129.761719 314.441406 129.585938 C 313.988281 129.40625 313.601562 129.132812 313.277344 128.765625 C 312.957031 128.402344 312.796875 127.90625 312.796875 127.28125 C 312.796875 126.769531 312.929688 126.308594 313.199219 125.890625 C 313.46875 125.472656 313.882812 125.136719 314.441406 124.886719 C 315 124.636719 315.691406 124.511719 316.523438 124.511719 C 317.101562 124.511719 317.664062 124.589844 318.21875 124.75 C 318.769531 124.910156 319.25 125.125 319.65625 125.40625 L 319.292969 126.257812 C 318.871094 125.976562 318.417969 125.769531 317.9375 125.632812 C 317.457031 125.492188 316.984375 125.417969 316.523438 125.417969 C 315.636719 125.417969 314.964844 125.589844 314.519531 125.933594 C 314.070312 126.273438 313.847656 126.714844 313.847656 127.253906 C 313.847656 127.65625 313.972656 127.980469 314.214844 128.230469 C 314.460938 128.472656 314.769531 128.660156 315.144531 128.792969 C 315.515625 128.921875 316.015625 129.0625 316.640625 129.214844 C 317.378906 129.398438 317.976562 129.578125 318.433594 129.757812 C 318.890625 129.933594 319.28125 130.203125 319.597656 130.566406 C 319.914062 130.929688 320.074219 131.417969 320.074219 132.035156 C 320.074219 132.542969 319.933594 133.007812 319.660156 133.429688 C 319.386719 133.84375 318.96875 134.175781 318.398438 134.425781 C 317.832031 134.667969 317.136719 134.789062 316.308594 134.789062 Z M 316.308594 134.789062 " fill-opacity="1" fill-rule="nonzero"/><path fill="#68789b" d="M 106.421875 67.890625 L 106.421875 102.8125 L 99.789062 102.8125 L 82.378906 81.609375 L 82.378906 102.8125 L 74.398438 102.8125 L 74.398438 67.890625 L 81.085938 67.890625 L 98.445312 89.09375 L 98.445312 67.890625 Z M 106.421875 67.890625 " fill-opacity="1" fill-rule="nonzero"/><path fill="#68789b" d="M 142.9375 89.492188 C 142.9375 89.59375 142.886719 90.292969 142.789062 91.589844 L 122.484375 91.589844 C 122.851562 93.253906 123.714844 94.566406 125.078125 95.53125 C 126.445312 96.496094 128.140625 96.976562 130.167969 96.976562 C 131.566406 96.976562 132.804688 96.769531 133.886719 96.351562 C 134.964844 95.9375 135.96875 95.277344 136.902344 94.378906 L 141.042969 98.871094 C 138.515625 101.765625 134.824219 103.210938 129.96875 103.210938 C 126.941406 103.210938 124.265625 102.621094 121.9375 101.441406 C 119.609375 100.261719 117.8125 98.625 116.550781 96.53125 C 115.285156 94.433594 114.65625 92.054688 114.65625 89.390625 C 114.65625 86.765625 115.277344 84.398438 116.527344 82.289062 C 117.773438 80.175781 119.484375 78.527344 121.664062 77.347656 C 123.839844 76.164062 126.277344 75.574219 128.96875 75.574219 C 131.597656 75.574219 133.976562 76.140625 136.101562 77.269531 C 138.230469 78.402344 139.902344 80.027344 141.113281 82.140625 C 142.328125 84.25 142.9375 86.699219 142.9375 89.492188 Z M 129.023438 81.460938 C 127.257812 81.460938 125.777344 81.960938 124.578125 82.957031 C 123.382812 83.953125 122.648438 85.316406 122.382812 87.050781 L 135.605469 87.050781 C 135.339844 85.355469 134.609375 84 133.410156 82.984375 C 132.210938 81.96875 130.75 81.460938 129.023438 81.460938 Z M 129.023438 81.460938 " fill-opacity="1" fill-rule="nonzero"/><path fill="#68789b" d="M 177.261719 75.972656 L 165.9375 102.8125 L 157.90625 102.8125 L 146.628906 75.972656 L 154.664062 75.972656 L 162.09375 94.230469 L 169.777344 75.972656 Z M 177.261719 75.972656 " fill-opacity="1" fill-rule="nonzero"/><path fill="#68789b" d="M 209.234375 89.492188 C 209.234375 89.59375 209.183594 90.292969 209.085938 91.589844 L 188.78125 91.589844 C 189.148438 93.253906 190.011719 94.566406 191.375 95.53125 C 192.742188 96.496094 194.4375 96.976562 196.464844 96.976562 C 197.859375 96.976562 199.101562 96.769531 200.183594 96.351562 C 201.261719 95.9375 202.265625 95.277344 203.199219 94.378906 L 207.339844 98.871094 C 204.8125 101.765625 201.121094 103.210938 196.265625 103.210938 C 193.238281 103.210938 190.5625 102.621094 188.234375 101.441406 C 185.90625 100.261719 184.109375 98.625 182.847656 96.53125 C 181.582031 94.433594 180.953125 92.054688 180.953125 89.390625 C 180.953125 86.765625 181.574219 84.398438 182.824219 82.289062 C 184.070312 80.175781 185.78125 78.527344 187.960938 77.347656 C 190.136719 76.164062 192.574219 75.574219 195.265625 75.574219 C 197.894531 75.574219 200.273438 76.140625 202.398438 77.269531 C 204.527344 78.402344 206.199219 80.027344 207.410156 82.140625 C 208.625 84.25 209.234375 86.699219 209.234375 89.492188 Z M 195.320312 81.460938 C 193.554688 81.460938 192.074219 81.960938 190.875 82.957031 C 189.679688 83.953125 188.945312 85.316406 188.679688 87.050781 L 201.902344 87.050781 C 201.636719 85.355469 200.90625 84 199.707031 82.984375 C 198.507812 81.96875 197.046875 81.460938 195.320312 81.460938 Z M 195.320312 81.460938 " fill-opacity="1" fill-rule="nonzero"/><path fill="#68789b" d="M 224.351562 79.515625 C 225.28125 78.21875 226.535156 77.238281 228.117188 76.574219 C 229.699219 75.90625 231.519531 75.574219 233.582031 75.574219 L 233.582031 82.757812 C 232.714844 82.691406 232.132812 82.660156 231.835938 82.660156 C 229.605469 82.660156 227.859375 83.28125 226.597656 84.53125 C 225.332031 85.777344 224.703125 87.648438 224.703125 90.144531 L 224.703125 102.8125 L 216.917969 102.8125 L 216.917969 75.972656 L 224.351562 75.972656 Z M 224.351562 79.515625 " fill-opacity="1" fill-rule="nonzero"/><path fill="#394a6a" d="M 240.917969 67.890625 L 243.464844 67.890625 L 243.464844 100.519531 L 263.570312 100.519531 L 263.570312 102.8125 L 240.917969 102.8125 Z M 240.917969 67.890625 " fill-opacity="1" fill-rule="nonzero"/><path fill="#394a6a" d="M 282.972656 103.007812 C 280.511719 103.007812 278.292969 102.445312 276.3125 101.316406 C 274.332031 100.183594 272.777344 98.613281 271.644531 96.601562 C 270.515625 94.589844 269.953125 92.320312 269.953125 89.792969 C 269.953125 87.265625 270.515625 84.996094 271.644531 82.984375 C 272.777344 80.972656 274.332031 79.402344 276.3125 78.273438 C 278.292969 77.140625 280.511719 76.574219 282.972656 76.574219 C 285.433594 76.574219 287.652344 77.140625 289.628906 78.273438 C 291.613281 79.402344 293.167969 80.972656 294.296875 82.984375 C 295.425781 84.996094 295.992188 87.265625 295.992188 89.792969 C 295.992188 92.320312 295.425781 94.589844 294.296875 96.601562 C 293.167969 98.613281 291.613281 100.183594 289.628906 101.316406 C 287.652344 102.445312 285.433594 103.007812 282.972656 103.007812 Z M 282.972656 100.769531 C 284.964844 100.769531 286.753906 100.304688 288.335938 99.375 C 289.917969 98.441406 291.164062 97.144531 292.078125 95.480469 C 292.992188 93.816406 293.449219 91.921875 293.449219 89.792969 C 293.449219 87.664062 292.992188 85.769531 292.078125 84.105469 C 291.164062 82.441406 289.917969 81.144531 288.335938 80.214844 C 286.753906 79.285156 284.964844 78.820312 282.972656 78.820312 C 280.976562 78.820312 279.191406 79.285156 277.609375 80.214844 C 276.03125 81.144531 274.785156 82.441406 273.867188 84.105469 C 272.953125 85.769531 272.496094 87.664062 272.496094 89.792969 C 272.496094 91.921875 272.953125 93.816406 273.867188 95.480469 C 274.785156 97.144531 276.03125 98.441406 277.609375 99.375 C 279.191406 100.304688 280.976562 100.769531 282.972656 100.769531 Z M 282.972656 100.769531 " fill-opacity="1" fill-rule="nonzero"/><path fill="#394a6a" d="M 313.800781 103.007812 C 311.707031 103.007812 309.710938 102.695312 307.816406 102.0625 C 305.921875 101.429688 304.441406 100.632812 303.378906 99.671875 L 304.523438 97.675781 C 305.585938 98.574219 306.957031 99.324219 308.640625 99.921875 C 310.320312 100.519531 312.074219 100.816406 313.902344 100.816406 C 316.527344 100.816406 318.464844 100.386719 319.710938 99.523438 C 320.960938 98.65625 321.582031 97.457031 321.582031 95.929688 C 321.582031 94.832031 321.242188 93.96875 320.558594 93.335938 C 319.878906 92.703125 319.039062 92.234375 318.042969 91.9375 C 317.042969 91.640625 315.664062 91.324219 313.902344 90.988281 C 311.839844 90.625 310.175781 90.222656 308.914062 89.792969 C 307.648438 89.359375 306.570312 88.660156 305.671875 87.699219 C 304.773438 86.734375 304.324219 85.402344 304.324219 83.707031 C 304.324219 81.644531 305.179688 79.941406 306.894531 78.59375 C 308.605469 77.246094 311.039062 76.574219 314.199219 76.574219 C 315.863281 76.574219 317.511719 76.808594 319.140625 77.269531 C 320.769531 77.738281 322.097656 78.351562 323.132812 79.117188 L 321.980469 81.113281 C 320.917969 80.347656 319.703125 79.765625 318.339844 79.367188 C 316.976562 78.96875 315.582031 78.765625 314.152344 78.765625 C 311.722656 78.765625 309.894531 79.214844 308.664062 80.113281 C 307.433594 81.011719 306.816406 82.195312 306.816406 83.660156 C 306.816406 84.824219 307.164062 85.730469 307.863281 86.375 C 308.5625 87.023438 309.417969 87.507812 310.433594 87.824219 C 311.449219 88.140625 312.871094 88.476562 314.699219 88.84375 C 316.730469 89.210938 318.367188 89.601562 319.609375 90.019531 C 320.859375 90.429688 321.914062 91.105469 322.78125 92.039062 C 323.648438 92.96875 324.078125 94.25 324.078125 95.875 C 324.078125 98.039062 323.179688 99.769531 321.386719 101.066406 C 319.589844 102.363281 317.0625 103.007812 313.800781 103.007812 Z M 313.800781 103.007812 " fill-opacity="1" fill-rule="nonzero"/><path fill="#394a6a" d="M 347.472656 101.167969 C 346.839844 101.765625 346.050781 102.222656 345.101562 102.539062 C 344.15625 102.851562 343.167969 103.007812 342.136719 103.007812 C 339.875 103.007812 338.125 102.386719 336.894531 101.144531 C 335.664062 99.894531 335.050781 98.160156 335.050781 95.929688 L 335.050781 78.917969 L 330.261719 78.917969 L 330.261719 76.769531 L 335.050781 76.769531 L 335.050781 71.085938 L 337.550781 71.085938 L 337.550781 76.769531 L 345.828125 76.769531 L 345.828125 78.917969 L 337.550781 78.917969 L 337.550781 95.679688 C 337.550781 97.375 337.957031 98.664062 338.769531 99.546875 C 339.585938 100.429688 340.789062 100.871094 342.386719 100.871094 C 344.015625 100.871094 345.363281 100.386719 346.429688 99.421875 Z M 347.472656 101.167969 " fill-opacity="1" fill-rule="nonzero"/></svg>