<svg xmlns="http://www.w3.org/2000/svg" xmlns:xlink="http://www.w3.org/1999/xlink" width="500" zoomAndPan="magnify" viewBox="0 0 375 154.499995" height="206" preserveAspectRatio="xMidYMid meet" version="1.0"><defs><clipPath id="886c6800af"><path d="M 4.53125 0.234375 L 114.683594 0.234375 L 114.683594 153.675781 L 4.53125 153.675781 Z M 4.53125 0.234375 " clip-rule="nonzero"/></clipPath><clipPath id="6347c2282f"><path d="M 27 22.898438 L 92.144531 22.898438 L 92.144531 87.660156 L 27 87.660156 Z M 27 22.898438 " clip-rule="nonzero"/></clipPath><clipPath id="cd7299aabe"><path d="M 56.875 87.394531 C 54.832031 87.167969 52.425781 86.691406 52.304688 86.496094 C 52.230469 86.378906 52.5625 86.207031 53.042969 86.113281 C 54.1875 85.890625 54.210938 85.890625 55.964844 86.105469 C 56.960938 86.226562 57.535156 86.191406 57.65625 85.996094 C 57.785156 85.785156 58.152344 85.824219 58.90625 86.125 C 59.863281 86.507812 60.609375 86.527344 61.851562 86.195312 C 62.085938 86.132812 62.222656 86.242188 62.175781 86.457031 C 62.121094 86.71875 62.242188 86.765625 62.582031 86.625 C 62.84375 86.511719 63.425781 86.441406 63.871094 86.464844 L 64.675781 86.507812 L 63.378906 85.59375 L 63.996094 85.367188 C 64.386719 85.222656 64.746094 85.253906 64.984375 85.449219 C 65.46875 85.851562 68.777344 85.566406 70.105469 85.007812 C 70.632812 84.789062 71.441406 84.605469 71.90625 84.597656 C 72.367188 84.59375 73.050781 84.417969 73.417969 84.207031 C 74.167969 83.777344 74.765625 83.691406 74.765625 84.011719 C 74.765625 84.253906 72.128906 85.429688 69.789062 86.226562 C 66.609375 87.3125 60.796875 87.839844 56.875 87.394531 Z M 64.058594 83.078125 C 63.09375 82.683594 62.554688 81.722656 62.992188 81.179688 C 63.179688 80.941406 63.152344 80.839844 62.894531 80.839844 C 62.632812 80.835938 62.613281 80.777344 62.835938 80.636719 C 63.003906 80.527344 63.226562 79.832031 63.324219 79.09375 C 63.425781 78.355469 63.667969 77.203125 63.859375 76.539062 C 64.050781 75.871094 64.207031 75.085938 64.207031 74.789062 C 64.203125 74.21875 64.4375 72.425781 64.714844 70.933594 C 64.933594 69.738281 64.402344 68.8125 63.125 68.160156 C 62.558594 67.871094 62.027344 67.429688 61.949219 67.175781 C 61.546875 65.925781 60.617188 64.046875 59.875 63 C 59.152344 61.976562 59.644531 59.789062 60.84375 58.722656 C 61.5625 58.078125 61.6875 57.796875 61.617188 56.957031 C 61.566406 56.40625 61.433594 55.898438 61.3125 55.824219 C 61.191406 55.75 61.082031 55.566406 61.070312 55.417969 C 61.054688 55.269531 60.890625 55.152344 60.707031 55.152344 C 60.523438 55.152344 60.398438 55.296875 60.4375 55.480469 C 60.519531 55.90625 58.90625 55.609375 58.402344 55.105469 C 58.207031 54.90625 57.933594 54.746094 57.796875 54.746094 C 57.660156 54.746094 57.546875 54.585938 57.546875 54.390625 C 57.546875 53.8125 56.410156 52.9375 55.394531 52.730469 C 54.875 52.621094 54.1875 52.292969 53.863281 51.996094 C 53.46875 51.632812 52.824219 51.429688 51.910156 51.378906 C 50.507812 51.304688 49.066406 50.617188 49.347656 50.160156 C 49.4375 50.019531 49.144531 49.902344 48.699219 49.902344 C 47.691406 49.902344 47.382812 49.453125 48.035156 48.941406 C 48.308594 48.726562 48.402344 48.582031 48.242188 48.621094 C 47.996094 48.679688 46.960938 47.632812 46.191406 46.542969 C 46.085938 46.394531 45.632812 45.847656 45.183594 45.332031 L 44.367188 44.390625 L 44.789062 45.261719 C 45.019531 45.746094 45.320312 46.136719 45.453125 46.136719 C 45.585938 46.136719 45.628906 46.308594 45.546875 46.515625 C 45.46875 46.722656 45.53125 46.96875 45.691406 47.070312 C 45.847656 47.164062 45.976562 47.4375 45.976562 47.675781 C 45.976562 48.046875 45.910156 48.042969 45.441406 47.617188 C 45.144531 47.351562 44.902344 46.964844 44.902344 46.761719 C 44.902344 46.554688 44.71875 46.320312 44.492188 46.230469 C 44.238281 46.136719 44.136719 45.886719 44.230469 45.589844 C 44.316406 45.324219 44.261719 45.027344 44.105469 44.933594 C 43.953125 44.839844 43.824219 44.542969 43.824219 44.277344 C 43.824219 44.011719 43.535156 43.480469 43.179688 43.09375 C 42.1875 42.027344 41.917969 40.304688 42.507812 38.847656 C 43.050781 37.511719 43.15625 36.453125 42.746094 36.453125 C 42.589844 36.453125 42.539062 36.171875 42.632812 35.808594 C 42.722656 35.457031 42.664062 35.085938 42.503906 34.988281 C 42.34375 34.886719 42.210938 34.992188 42.210938 35.226562 C 42.210938 35.457031 42.085938 35.644531 41.933594 35.644531 C 41.777344 35.644531 41.675781 35.371094 41.707031 35.039062 C 41.804688 33.890625 41.671875 33.492188 41.191406 33.492188 C 40.582031 33.492188 38.683594 34.453125 38.40625 34.902344 C 38.289062 35.089844 38.101562 35.242188 37.984375 35.246094 C 37.867188 35.246094 37.214844 35.636719 36.527344 36.109375 C 35.84375 36.582031 35.214844 36.898438 35.125 36.8125 C 35.039062 36.722656 35.355469 36.394531 35.832031 36.074219 C 36.304688 35.753906 36.734375 35.253906 36.785156 34.964844 C 36.835938 34.671875 37.320312 34.042969 37.863281 33.5625 C 38.40625 33.082031 38.621094 32.765625 38.339844 32.863281 C 37.566406 33.132812 37.933594 32.355469 38.773438 31.945312 C 39.152344 31.761719 39.535156 31.335938 39.625 31.003906 C 39.835938 30.203125 41.695312 28.921875 42.660156 28.910156 C 43.078125 28.90625 44.148438 28.746094 45.035156 28.558594 C 45.925781 28.371094 47.097656 28.246094 47.640625 28.28125 C 48.457031 28.335938 48.625 28.261719 48.59375 27.859375 C 48.566406 27.460938 48.46875 27.425781 48.085938 27.664062 C 47.828125 27.824219 47.535156 27.875 47.429688 27.773438 C 47.175781 27.515625 47.839844 26.769531 48.328125 26.769531 C 48.558594 26.769531 48.664062 26.609375 48.578125 26.386719 C 48.484375 26.136719 48.773438 25.855469 49.425781 25.566406 C 49.972656 25.328125 50.175781 25.1875 49.878906 25.253906 C 49.167969 25.417969 47.578125 25.972656 46.992188 26.265625 C 46.734375 26.394531 46.28125 26.5 45.980469 26.5 C 45.683594 26.5 45.441406 26.605469 45.441406 26.738281 C 45.441406 26.96875 43.523438 27.738281 42.210938 28.03125 C 41.628906 28.160156 41.664062 28.09375 42.480469 27.535156 C 45.394531 25.53125 47.984375 24.429688 51.976562 23.492188 C 54.019531 23.011719 55.296875 22.910156 59.296875 22.902344 C 64.121094 22.894531 67.742188 23.328125 66.945312 23.816406 C 66.75 23.941406 66.484375 23.980469 66.359375 23.902344 C 66.234375 23.828125 64.878906 23.726562 63.339844 23.683594 C 60.996094 23.613281 60.570312 23.664062 60.695312 23.988281 C 60.777344 24.203125 60.996094 24.320312 61.183594 24.25 C 61.644531 24.070312 63.816406 25.203125 65.222656 26.355469 C 65.859375 26.878906 66.484375 27.304688 66.605469 27.304688 C 66.730469 27.304688 66.988281 27.558594 67.183594 27.863281 C 67.488281 28.355469 67.464844 28.441406 67.003906 28.5625 C 66.3125 28.742188 66.121094 29.835938 66.566406 31.09375 C 66.761719 31.648438 66.863281 32.160156 66.792969 32.230469 C 66.546875 32.476562 64.957031 31.507812 63.917969 30.480469 C 63.347656 29.917969 62.753906 29.535156 62.59375 29.632812 C 62.433594 29.730469 62.382812 29.683594 62.480469 29.53125 C 62.574219 29.375 62.464844 29.097656 62.238281 28.90625 C 62.011719 28.71875 61.890625 28.402344 61.964844 28.203125 C 62.042969 28 61.925781 27.84375 61.699219 27.84375 C 61.476562 27.84375 61.226562 27.664062 61.140625 27.441406 C 61.054688 27.21875 60.855469 27.035156 60.699219 27.035156 C 60.542969 27.035156 60.21875 26.859375 59.976562 26.640625 C 59.65625 26.351562 59.332031 26.308594 58.746094 26.484375 C 58.308594 26.613281 58.109375 26.730469 58.308594 26.746094 C 58.886719 26.78125 60.8125 28.890625 60.730469 29.394531 C 60.6875 29.652344 60.734375 29.988281 60.832031 30.144531 C 60.929688 30.296875 60.898438 30.601562 60.765625 30.816406 C 60.558594 31.148438 60.347656 31.117188 59.371094 30.601562 C 58.738281 30.265625 58.015625 29.996094 57.765625 29.996094 C 57.15625 29.996094 56.871094 29.492188 57.375 29.300781 C 57.59375 29.214844 57.84375 28.96875 57.929688 28.746094 C 58.042969 28.445312 57.945312 28.386719 57.546875 28.515625 C 57.148438 28.640625 57.007812 28.5625 57.007812 28.21875 C 57.007812 27.964844 56.929688 27.835938 56.832031 27.933594 C 56.734375 28.027344 56.523438 28 56.359375 27.863281 C 56.15625 27.695312 56.066406 27.910156 56.070312 28.5625 C 56.074219 29.175781 56.238281 29.589844 56.546875 29.765625 C 56.808594 29.910156 56.964844 30.121094 56.894531 30.234375 C 56.824219 30.34375 57.09375 30.390625 57.492188 30.332031 C 57.984375 30.257812 58.613281 30.492188 59.429688 31.042969 C 60.363281 31.675781 60.660156 31.769531 60.726562 31.46875 C 60.859375 30.867188 61.113281 30.976562 62.257812 32.152344 C 62.835938 32.746094 63.429688 33.191406 63.574219 33.144531 C 63.875 33.042969 64.578125 33.699219 65.226562 34.6875 C 65.679688 35.378906 66.339844 35.671875 66.015625 35.039062 C 65.921875 34.855469 66.097656 34.992188 66.40625 35.339844 C 66.710938 35.6875 66.960938 36.171875 66.957031 36.414062 C 66.957031 36.796875 66.921875 36.804688 66.691406 36.453125 C 66.460938 36.09375 66.429688 36.09375 66.40625 36.453125 C 66.390625 36.730469 66.339844 36.75 66.246094 36.519531 C 66.027344 35.984375 64.863281 36.097656 64.90625 36.65625 C 64.929688 36.953125 64.722656 37.15625 64.339844 37.210938 C 64.007812 37.257812 63.734375 37.425781 63.734375 37.582031 C 63.734375 37.761719 63.328125 37.8125 62.660156 37.726562 C 61.78125 37.605469 61.582031 37.660156 61.578125 38.027344 C 61.574219 38.269531 61.332031 38.773438 61.042969 39.144531 C 60.753906 39.511719 60.515625 39.980469 60.511719 40.183594 C 60.507812 40.496094 60.433594 40.496094 60.039062 40.183594 C 59.609375 39.84375 59.609375 39.871094 60.050781 40.5625 C 60.578125 41.386719 60.484375 41.660156 59.375 42.59375 C 58.617188 43.234375 58.367188 44.335938 58.90625 44.667969 C 59.304688 44.914062 59.738281 46.125 59.542969 46.441406 C 59.308594 46.820312 58.601562 46.152344 58.1875 45.164062 C 57.933594 44.554688 57.605469 44.28125 56.984375 44.15625 C 55.664062 43.890625 55.125 43.953125 55.125 44.363281 C 55.125 44.605469 54.9375 44.695312 54.597656 44.605469 C 53.988281 44.445312 52.351562 45.378906 51.761719 46.21875 C 51.246094 46.960938 51.25 47.847656 51.78125 48.96875 C 52.277344 50.011719 52.679688 50.21875 53.785156 49.996094 C 54.339844 49.886719 54.644531 49.632812 54.753906 49.195312 C 54.84375 48.847656 55.050781 48.550781 55.222656 48.539062 C 55.390625 48.527344 55.742188 48.476562 56 48.429688 C 56.699219 48.292969 56.8125 48.714844 56.328125 49.652344 C 56.089844 50.113281 55.960938 50.5625 56.042969 50.644531 C 56.128906 50.726562 56.058594 50.964844 55.886719 51.167969 C 55.632812 51.476562 55.753906 51.519531 56.59375 51.429688 C 58.261719 51.246094 58.589844 51.4375 58.574219 52.582031 C 58.546875 54.511719 59.175781 55.316406 60.257812 54.738281 C 60.613281 54.546875 60.9375 54.546875 61.292969 54.738281 C 61.988281 55.105469 62.019531 55.101562 62.609375 54.46875 C 62.886719 54.167969 63.347656 53.878906 63.625 53.820312 C 63.90625 53.765625 64.371094 53.625 64.652344 53.515625 C 65.015625 53.371094 65.109375 53.40625 64.972656 53.625 C 64.867188 53.796875 64.90625 53.941406 65.0625 53.941406 C 65.21875 53.941406 65.347656 53.824219 65.347656 53.6875 C 65.347656 53.546875 65.671875 53.601562 66.070312 53.808594 C 66.464844 54.011719 66.90625 54.109375 67.050781 54.019531 C 67.195312 53.929688 67.238281 53.984375 67.140625 54.136719 C 67.046875 54.289062 67.238281 54.488281 67.570312 54.578125 C 68.417969 54.804688 68.632812 54.785156 68.453125 54.496094 C 68.367188 54.359375 68.441406 54.160156 68.613281 54.050781 C 68.8125 53.929688 68.855469 53.972656 68.738281 54.167969 C 68.558594 54.457031 68.933594 54.585938 69.855469 54.550781 C 70.039062 54.542969 70.195312 54.734375 70.195312 54.980469 C 70.203125 55.59375 72.035156 57.042969 73.070312 57.246094 C 74.109375 57.453125 75.035156 58.195312 75.035156 58.828125 C 75.035156 59.082031 75.164062 59.367188 75.320312 59.464844 C 75.507812 59.582031 75.441406 59.84375 75.125 60.222656 C 74.859375 60.539062 74.816406 60.648438 75.023438 60.46875 C 75.332031 60.195312 75.726562 60.3125 77.113281 61.070312 C 78.050781 61.589844 79.039062 62.011719 79.304688 62.011719 C 79.574219 62.011719 80.003906 62.246094 80.261719 62.53125 C 80.523438 62.816406 80.902344 62.984375 81.113281 62.90625 C 81.386719 62.800781 81.488281 62.984375 81.488281 63.574219 C 81.488281 64.148438 81.136719 64.800781 80.292969 65.789062 C 79.632812 66.5625 79.015625 67.570312 78.914062 68.03125 C 78.636719 69.304688 77.429688 70.839844 76.445312 71.171875 C 75.964844 71.335938 75.570312 71.636719 75.570312 71.84375 C 75.570312 72.050781 75.238281 72.4375 74.832031 72.695312 C 74.425781 72.957031 73.875 73.441406 73.605469 73.773438 C 72.285156 75.40625 70.847656 76.554688 70.246094 76.449219 C 69.78125 76.367188 69.648438 76.453125 69.707031 76.800781 C 69.792969 77.296875 69.214844 78.152344 68.796875 78.152344 C 68.65625 78.152344 67.882812 78.71875 67.078125 79.414062 C 66.105469 80.253906 65.726562 80.742188 65.9375 80.875 C 66.164062 81.015625 66.066406 81.242188 65.601562 81.632812 C 64.984375 82.152344 64.972656 82.210938 65.414062 82.554688 C 65.675781 82.753906 65.886719 82.984375 65.886719 83.0625 C 65.886719 83.402344 64.871094 83.414062 64.058594 83.078125 Z M 62.976562 36.808594 C 62.785156 36.730469 62.550781 36.738281 62.460938 36.828125 C 62.371094 36.917969 62.53125 36.980469 62.816406 36.96875 C 63.128906 36.957031 63.191406 36.894531 62.976562 36.808594 Z M 64.800781 35.585938 C 64.804688 35.480469 64.628906 35.464844 64.40625 35.546875 C 64.171875 35.636719 64 35.550781 64 35.339844 C 63.996094 35.039062 63.949219 35.042969 63.753906 35.351562 C 63.609375 35.582031 63.632812 35.984375 63.808594 36.375 L 64.101562 37.019531 L 64.445312 36.398438 C 64.636719 36.058594 64.796875 35.691406 64.800781 35.585938 Z M 56.199219 36.34375 C 56.199219 36.289062 55.925781 36.0625 55.585938 35.84375 C 55.035156 35.480469 54.914062 35.484375 54.417969 35.890625 C 53.875 36.328125 53.894531 36.339844 55.03125 36.390625 C 55.675781 36.417969 56.199219 36.398438 56.199219 36.34375 Z M 55.554688 34.957031 C 55.066406 34.601562 55.066406 34.574219 55.527344 34.398438 C 55.796875 34.296875 56.46875 34.332031 57.023438 34.480469 C 57.882812 34.710938 58.011719 34.6875 57.878906 34.347656 C 57.777344 34.085938 57.835938 34.011719 58.039062 34.136719 C 58.210938 34.242188 58.5625 34.207031 58.824219 34.054688 C 59.25 33.804688 59.242188 33.777344 58.722656 33.769531 C 58.285156 33.765625 58.152344 33.59375 58.152344 33.042969 C 58.152344 32.648438 57.925781 32.160156 57.648438 31.957031 C 57.371094 31.753906 57.175781 31.53125 57.210938 31.464844 C 57.394531 31.125 57.234375 30.804688 56.875 30.804688 C 56.652344 30.804688 56.46875 30.671875 56.46875 30.511719 C 56.46875 30.351562 56.320312 30.273438 56.132812 30.339844 C 55.949219 30.40625 55.582031 30.351562 55.320312 30.214844 C 54.949219 30.023438 54.6875 30.152344 54.152344 30.792969 C 53.773438 31.242188 53.363281 31.550781 53.246094 31.476562 C 53.128906 31.40625 52.960938 31.523438 52.875 31.742188 C 52.792969 31.960938 52.808594 32.117188 52.914062 32.082031 C 53.023438 32.050781 53.445312 32.363281 53.859375 32.78125 C 54.328125 33.257812 54.773438 33.480469 55.039062 33.375 C 55.59375 33.164062 56.523438 33.457031 56.324219 33.78125 C 56.238281 33.917969 55.988281 34.03125 55.765625 34.03125 C 55.53125 34.03125 55.441406 33.902344 55.554688 33.71875 C 55.675781 33.527344 55.628906 33.484375 55.429688 33.605469 C 55.257812 33.710938 55.1875 33.910156 55.269531 34.050781 C 55.355469 34.1875 55.296875 34.300781 55.140625 34.300781 C 54.984375 34.300781 54.855469 34.179688 54.855469 34.03125 C 54.855469 33.558594 53.847656 33.742188 53.71875 34.242188 C 53.570312 34.804688 54.195312 35.523438 54.460938 35.089844 C 54.582031 34.898438 54.738281 34.898438 54.972656 35.09375 C 55.15625 35.246094 55.390625 35.292969 55.488281 35.195312 C 55.585938 35.097656 55.664062 35.179688 55.664062 35.375 C 55.664062 35.574219 55.753906 35.644531 55.863281 35.535156 C 55.976562 35.421875 55.835938 35.164062 55.554688 34.957031 Z M 57.546875 33.507812 C 57.546875 33.371094 57.664062 33.183594 57.8125 33.089844 C 57.964844 32.996094 58.007812 33.105469 57.917969 33.34375 C 57.738281 33.8125 57.546875 33.894531 57.546875 33.507812 Z M 54.167969 32.828125 C 53.878906 32.613281 53.789062 32.429688 53.960938 32.425781 C 54.46875 32.414062 55.125 32.726562 55.125 32.984375 C 55.125 33.335938 54.761719 33.277344 54.167969 32.828125 Z M 63.195312 35.453125 C 63.195312 35.421875 62.964844 35.273438 62.6875 35.121094 C 62.324219 34.929688 62.097656 34.945312 61.902344 35.179688 C 61.695312 35.429688 61.824219 35.511719 62.410156 35.511719 C 62.84375 35.511719 63.195312 35.484375 63.195312 35.453125 Z M 59.160156 34.839844 C 59.160156 34.691406 58.972656 34.570312 58.742188 34.570312 C 58.511719 34.570312 58.398438 34.691406 58.488281 34.839844 C 58.578125 34.988281 58.769531 35.105469 58.90625 35.105469 C 59.046875 35.105469 59.160156 34.988281 59.160156 34.839844 Z M 60.101562 34.839844 C 60.011719 34.691406 59.882812 34.570312 59.816406 34.570312 C 59.753906 34.570312 59.699219 34.691406 59.699219 34.839844 C 59.699219 34.988281 59.828125 35.105469 59.984375 35.105469 C 60.140625 35.105469 60.191406 34.988281 60.101562 34.839844 Z M 51.359375 33.484375 C 51.019531 33.257812 51.070312 33.113281 51.695312 32.558594 C 52.101562 32.199219 52.433594 31.753906 52.433594 31.570312 C 52.433594 31.386719 52.261719 31.472656 52.054688 31.761719 C 51.84375 32.046875 51.582031 32.191406 51.46875 32.082031 C 51.359375 31.96875 51.410156 31.878906 51.582031 31.878906 C 51.753906 31.878906 51.898438 31.699219 51.898438 31.476562 C 51.898438 30.953125 51.386719 30.953125 51.1875 31.472656 C 51.101562 31.695312 50.921875 31.808594 50.789062 31.722656 C 50.652344 31.640625 50.613281 31.460938 50.699219 31.324219 C 50.78125 31.183594 50.730469 31.074219 50.585938 31.074219 C 50.4375 31.074219 50.238281 31.195312 50.144531 31.34375 C 50.050781 31.496094 49.851562 31.542969 49.699219 31.445312 C 49.515625 31.335938 49.546875 31.191406 49.78125 31.042969 C 50.082031 30.855469 50.074219 30.8125 49.746094 30.816406 C 49.234375 30.824219 47.871094 31.585938 48.347656 31.601562 C 48.542969 31.605469 48.632812 31.71875 48.550781 31.855469 C 48.464844 31.988281 48.671875 32.039062 49.003906 31.972656 L 49.609375 31.847656 L 48.988281 32.214844 L 48.371094 32.585938 L 49.117188 32.925781 C 49.65625 33.171875 49.894531 33.183594 49.964844 32.964844 C 50.039062 32.746094 50.175781 32.753906 50.457031 32.988281 C 50.769531 33.246094 50.777344 33.355469 50.496094 33.53125 C 50.269531 33.675781 50.429688 33.753906 50.957031 33.753906 C 51.582031 33.753906 51.671875 33.695312 51.359375 33.484375 Z M 50.339844 32.523438 C 49.957031 32.109375 50.214844 32.027344 50.78125 32.386719 C 50.984375 32.515625 51.042969 32.679688 50.917969 32.757812 C 50.789062 32.835938 50.53125 32.730469 50.339844 32.523438 Z M 60.902344 32.457031 C 60.75 32.296875 60.238281 32.703125 60.238281 32.980469 C 60.238281 33.125 60.40625 33.089844 60.613281 32.898438 C 60.820312 32.707031 60.949219 32.507812 60.902344 32.457031 Z M 53.242188 32.851562 C 53.242188 32.792969 53.054688 32.671875 52.824219 32.585938 C 52.585938 32.492188 52.476562 32.539062 52.570312 32.6875 C 52.730469 32.945312 53.242188 33.066406 53.242188 32.851562 Z M 49.148438 30.121094 C 49.382812 29.917969 49.25 29.84375 48.667969 29.859375 C 48.226562 29.871094 47.652344 30.113281 47.390625 30.398438 C 46.929688 30.910156 46.933594 30.910156 47.5 30.441406 C 48.101562 29.941406 48.589844 30.21875 48.261719 30.871094 C 48.167969 31.054688 48.257812 31.023438 48.460938 30.804688 C 48.664062 30.582031 48.972656 30.273438 49.148438 30.121094 Z M 51.359375 30.519531 C 51.359375 30.363281 51.238281 30.308594 51.089844 30.398438 C 50.941406 30.492188 50.820312 30.621094 50.820312 30.683594 C 50.820312 30.75 50.941406 30.804688 51.089844 30.804688 C 51.238281 30.804688 51.359375 30.675781 51.359375 30.519531 Z M 49.941406 28.464844 C 49.679688 28.394531 49.316406 28.402344 49.132812 28.472656 C 48.953125 28.546875 49.167969 28.605469 49.609375 28.597656 C 50.054688 28.59375 50.203125 28.53125 49.941406 28.464844 Z M 52.039062 28.164062 C 51.957031 28.082031 51.738281 28.164062 51.554688 28.347656 C 51.292969 28.613281 51.324219 28.644531 51.707031 28.5 C 51.972656 28.398438 52.121094 28.246094 52.039062 28.164062 Z M 55.125 27.828125 C 55.125 27.6875 55.023438 27.574219 54.902344 27.574219 C 54.777344 27.574219 54.675781 27.75 54.675781 27.964844 C 54.675781 28.183594 54.777344 28.296875 54.902344 28.21875 C 55.023438 28.144531 55.125 27.964844 55.125 27.828125 Z M 54.046875 27.300781 C 53.886719 27 53.84375 26.609375 53.953125 26.425781 C 54.078125 26.21875 53.980469 26.234375 53.691406 26.46875 C 53.257812 26.820312 53.257812 26.875 53.679688 27.34375 C 54.269531 27.996094 54.410156 27.980469 54.046875 27.300781 Z M 52.679688 27.476562 C 52.621094 27.425781 52.207031 27.300781 51.761719 27.199219 C 51.171875 27.070312 51.0625 27.09375 51.359375 27.292969 C 51.722656 27.539062 52.953125 27.710938 52.679688 27.476562 Z M 50.285156 26.742188 C 50.640625 26.488281 50.640625 26.46875 50.285156 26.578125 C 50.0625 26.640625 49.636719 26.570312 49.339844 26.417969 C 48.859375 26.171875 48.84375 26.1875 49.171875 26.589844 C 49.601562 27.109375 49.738281 27.128906 50.285156 26.742188 Z M 51.628906 26.371094 C 51.628906 26.125 51.472656 26.039062 51.203125 26.140625 C 50.859375 26.273438 50.847656 26.347656 51.136719 26.53125 C 51.613281 26.835938 51.628906 26.832031 51.628906 26.371094 Z M 58.730469 26.230469 C 59.785156 26.230469 58.707031 25.640625 57.539062 25.582031 C 56.835938 25.542969 56.277344 25.347656 56.070312 25.070312 C 55.589844 24.414062 55.394531 24.507812 55.394531 25.398438 C 55.394531 26.039062 55.488281 26.15625 55.914062 26.042969 C 56.203125 25.96875 56.710938 26.097656 57.046875 26.335938 C 57.453125 26.617188 57.75 26.671875 57.925781 26.496094 C 58.070312 26.347656 58.433594 26.230469 58.730469 26.230469 Z M 52.703125 26.230469 C 52.703125 26.082031 52.574219 25.960938 52.417969 25.960938 C 52.261719 25.960938 52.207031 26.082031 52.300781 26.230469 C 52.394531 26.378906 52.519531 26.5 52.585938 26.5 C 52.652344 26.5 52.703125 26.378906 52.703125 26.230469 Z M 60.019531 23.625 C 59.824219 23.546875 59.59375 23.558594 59.503906 23.644531 C 59.414062 23.734375 59.574219 23.796875 59.855469 23.785156 C 60.167969 23.773438 60.234375 23.710938 60.019531 23.625 Z M 67.148438 82.554688 C 66.863281 82.265625 67.230469 81.917969 67.820312 81.917969 C 68.28125 81.917969 68.320312 81.984375 68.039062 82.324219 C 67.679688 82.757812 67.421875 82.824219 67.148438 82.554688 Z M 38.3125 76.007812 C 37.570312 75.148438 36.917969 74.488281 36.855469 74.542969 C 36.796875 74.601562 36.460938 74.257812 36.113281 73.785156 C 35.457031 72.898438 34.550781 72.261719 33.925781 72.242188 C 33.730469 72.238281 33.644531 72.351562 33.730469 72.492188 C 33.828125 72.644531 33.566406 72.636719 33.082031 72.46875 C 32.453125 72.25 32.089844 71.792969 31.429688 70.394531 C 30.066406 67.511719 30.046875 67.441406 30.675781 67.105469 C 30.988281 66.9375 31.160156 66.648438 31.078125 66.429688 C 30.996094 66.21875 31.046875 66.046875 31.191406 66.046875 C 31.335938 66.046875 31.449219 65.855469 31.449219 65.625 C 31.449219 65.34375 31.652344 65.234375 32.058594 65.289062 C 32.476562 65.347656 32.664062 65.234375 32.664062 64.921875 C 32.667969 64.671875 32.757812 64.382812 32.867188 64.273438 C 32.976562 64.164062 33.066406 64.207031 33.066406 64.367188 C 33.066406 64.527344 33.429688 64.738281 33.871094 64.835938 C 34.316406 64.933594 34.679688 65.164062 34.679688 65.351562 C 34.679688 65.539062 35.011719 65.859375 35.417969 66.0625 C 35.828125 66.265625 36.226562 66.46875 36.308594 66.511719 C 36.390625 66.558594 36.40625 66.167969 36.34375 65.648438 C 36.210938 64.488281 36.71875 64.375 36.964844 65.507812 C 37.0625 65.953125 37.246094 66.316406 37.371094 66.316406 C 37.496094 66.316406 37.746094 66.769531 37.925781 67.324219 C 38.109375 67.878906 38.511719 68.59375 38.820312 68.914062 C 39.632812 69.746094 40.058594 70.296875 40.058594 70.519531 C 40.058594 70.625 40.25 70.921875 40.484375 71.179688 C 41.050781 71.808594 41.183594 73.824219 40.707031 74.507812 C 40.5 74.800781 40.328125 75.257812 40.328125 75.519531 C 40.328125 75.800781 40.054688 76.058594 39.644531 76.164062 C 38.964844 76.332031 38.964844 76.339844 39.507812 76.722656 C 40.046875 77.097656 40.261719 77.632812 39.859375 77.597656 C 39.746094 77.585938 39.050781 76.871094 38.3125 76.011719 Z M 40.421875 71.820312 C 40.332031 71.589844 40.207031 71.460938 40.132812 71.53125 C 40.066406 71.601562 40.085938 71.789062 40.183594 71.949219 C 40.449219 72.375 40.605469 72.292969 40.421875 71.820312 Z M 42.898438 77.101562 C 42.738281 76.839844 44.804688 75.734375 45.457031 75.726562 C 45.78125 75.722656 45.777344 75.679688 45.441406 75.460938 C 45.121094 75.257812 45.117188 75.203125 45.40625 75.199219 C 45.675781 75.195312 45.730469 74.96875 45.617188 74.386719 C 45.523438 73.929688 45.570312 73.578125 45.714844 73.578125 C 45.859375 73.578125 45.976562 73.699219 45.976562 73.847656 C 45.976562 73.996094 46.230469 74.371094 46.542969 74.679688 L 47.105469 75.242188 L 46.472656 75.6875 C 46.128906 75.929688 45.785156 76.132812 45.710938 76.132812 C 45.636719 76.132812 45.191406 76.410156 44.726562 76.742188 C 43.835938 77.375 43.152344 77.511719 42.898438 77.101562 Z M 45.496094 70.566406 C 45.316406 70.390625 45.171875 70.144531 45.171875 70.027344 C 45.171875 69.632812 45.578125 69.808594 45.914062 70.351562 C 46.285156 70.941406 46.007812 71.082031 45.496094 70.566406 Z M 87.8125 70.285156 C 87.917969 69.949219 88.117188 68.347656 88.253906 66.71875 C 88.398438 64.964844 88.671875 63.453125 88.917969 63.003906 C 89.273438 62.371094 89.289062 62.042969 89.019531 60.929688 C 88.84375 60.191406 88.785156 59.125 88.886719 58.519531 C 89.050781 57.542969 89.015625 57.4375 88.507812 57.4375 C 88.1875 57.4375 87.949219 57.261719 87.949219 57.035156 C 87.949219 56.523438 87.429688 56.53125 86.75 57.042969 C 86.460938 57.261719 86.011719 57.371094 85.75 57.289062 C 85.492188 57.207031 85.042969 57.261719 84.757812 57.417969 C 84.082031 57.777344 82.925781 56.910156 82.398438 55.644531 C 82.191406 55.152344 81.871094 54.777344 81.691406 54.816406 C 81.453125 54.863281 81.355469 54.371094 81.355469 53.09375 C 81.355469 52.105469 81.453125 51.359375 81.566406 51.433594 C 81.683594 51.503906 81.753906 51.160156 81.722656 50.667969 C 81.691406 50.171875 81.898438 49.347656 82.179688 48.828125 C 82.464844 48.3125 82.695312 47.707031 82.699219 47.484375 C 82.699219 47.261719 82.824219 47.097656 82.96875 47.117188 C 83.339844 47.167969 84.785156 46.113281 84.597656 45.929688 C 84.515625 45.84375 84.648438 45.558594 84.894531 45.285156 C 85.140625 45.015625 85.246094 44.792969 85.132812 44.792969 C 85.015625 44.792969 85.085938 44.582031 85.292969 44.320312 C 85.625 43.894531 85.617188 43.886719 85.191406 44.222656 C 84.929688 44.425781 84.703125 44.515625 84.683594 44.421875 C 84.667969 44.332031 84.632812 44.101562 84.613281 43.917969 C 84.589844 43.734375 84.347656 43.621094 84.070312 43.671875 C 83.625 43.75 83.589844 43.640625 83.761719 42.730469 C 83.871094 42.164062 83.949219 41.414062 83.9375 41.066406 C 83.902344 40.082031 84.144531 39.917969 85.003906 40.363281 C 85.742188 40.742188 85.792969 40.738281 85.792969 40.277344 C 85.792969 40.007812 85.492188 39.375 85.121094 38.875 C 84.320312 37.789062 84.316406 37.773438 84.921875 37.964844 C 85.347656 38.097656 85.351562 38.078125 84.960938 37.753906 C 84.496094 37.363281 84.464844 37.289062 84.417969 36.386719 C 84.394531 35.929688 84.355469 35.898438 84.265625 36.25 C 84.195312 36.511719 83.984375 36.722656 83.789062 36.722656 C 83.292969 36.722656 83.058594 35.648438 83.511719 35.472656 C 83.714844 35.394531 83.8125 35.160156 83.730469 34.949219 C 83.625 34.667969 83.714844 34.613281 84.0625 34.746094 C 84.441406 34.894531 84.503906 34.832031 84.363281 34.46875 C 84.253906 34.175781 84.292969 34.070312 84.472656 34.179688 C 84.628906 34.277344 84.6875 34.53125 84.605469 34.75 C 84.519531 34.964844 84.75 35.679688 85.117188 36.332031 C 85.480469 36.988281 85.71875 37.734375 85.644531 37.996094 C 85.566406 38.265625 85.644531 38.21875 85.820312 37.882812 C 86.078125 37.398438 86.027344 37.128906 85.527344 36.324219 C 85.195312 35.785156 84.976562 35.296875 85.042969 35.230469 C 85.199219 35.074219 86.769531 37.324219 86.996094 38.035156 C 87.09375 38.347656 87.265625 38.605469 87.371094 38.605469 C 87.785156 38.605469 90.636719 44.957031 90.636719 45.875 C 90.636719 46.109375 90.441406 46.03125 90.089844 45.652344 C 89.597656 45.121094 89.023438 44.867188 89.023438 45.179688 C 89.023438 45.367188 90.140625 47.214844 90.253906 47.214844 C 90.308594 47.214844 90.277344 47.015625 90.183594 46.773438 C 90.042969 46.410156 90.101562 46.382812 90.507812 46.609375 C 90.78125 46.761719 91.027344 47.109375 91.054688 47.386719 C 91.082031 47.660156 91.183594 48.25 91.277344 48.695312 C 91.371094 49.136719 91.625 50.738281 91.84375 52.253906 C 92.269531 55.230469 92.058594 59.066406 91.285156 62.46875 C 91.078125 63.386719 90.90625 64.539062 90.90625 65.027344 C 90.902344 66.507812 90.378906 67.976562 89.796875 68.128906 C 89.503906 68.207031 88.96875 68.859375 88.601562 69.578125 C 87.914062 70.941406 87.472656 71.335938 87.8125 70.28125 Z M 89.609375 44.464844 C 89.417969 44.273438 89.292969 44.257812 89.292969 44.425781 C 89.292969 44.785156 89.609375 45.101562 89.789062 44.921875 C 89.867188 44.847656 89.785156 44.640625 89.609375 44.464844 Z M 88.902344 44.457031 C 88.675781 43.429688 87.757812 41.839844 87.386719 41.835938 C 86.894531 41.832031 86.214844 42.957031 86.390625 43.484375 C 86.457031 43.679688 86.742188 43.851562 87.027344 43.867188 C 88.421875 43.941406 88.75 44.003906 88.722656 44.1875 C 88.671875 44.5 88.742188 44.792969 88.863281 44.792969 C 88.925781 44.792969 88.941406 44.640625 88.902344 44.457031 Z M 51.089844 69.117188 C 51.089844 68.882812 51.234375 68.742188 51.410156 68.800781 C 51.90625 68.964844 51.992188 69.542969 51.515625 69.542969 C 51.28125 69.542969 51.089844 69.351562 51.089844 69.117188 Z M 52.035156 68.742188 C 51.941406 68.589844 52.054688 68.46875 52.285156 68.46875 C 52.757812 68.46875 52.828125 68.628906 52.453125 68.859375 C 52.316406 68.945312 52.125 68.890625 52.035156 68.742188 Z M 46.402344 68.027344 C 46.179688 67.4375 46.476562 67.167969 46.796875 67.667969 C 47.113281 68.171875 47.121094 68.46875 46.8125 68.46875 C 46.683594 68.46875 46.496094 68.269531 46.402344 68.027344 Z M 44.09375 65.25 C 44.09375 65.105469 43.914062 65.058594 43.691406 65.140625 C 43.199219 65.332031 43.15625 64.875 43.628906 64.484375 C 43.878906 64.277344 44.046875 64.375 44.273438 64.855469 C 44.445312 65.214844 44.472656 65.507812 44.339844 65.507812 C 44.203125 65.507812 44.09375 65.390625 44.09375 65.25 Z M 38.84375 64.902344 C 38.550781 64.742188 38.152344 64.386719 37.957031 64.117188 C 37.585938 63.59375 36.832031 63.445312 36.832031 63.894531 C 36.832031 64.042969 36.589844 64.164062 36.292969 64.164062 C 35.996094 64.164062 35.753906 64.042969 35.753906 63.894531 C 35.753906 63.746094 35.511719 63.625 35.21875 63.625 C 34.921875 63.625 34.679688 63.503906 34.679688 63.355469 C 34.679688 63.207031 34.800781 63.085938 34.949219 63.085938 C 35.480469 63.085938 34.578125 62.0625 33.664062 61.628906 C 33.050781 61.335938 32.796875 61.054688 32.894531 60.792969 C 32.988281 60.558594 32.890625 60.398438 32.660156 60.398438 C 32.429688 60.398438 32.335938 60.558594 32.429688 60.800781 C 32.542969 61.09375 32.398438 61.203125 31.898438 61.203125 C 31.523438 61.203125 31.136719 61.082031 31.046875 60.9375 C 30.957031 60.785156 31.128906 60.667969 31.433594 60.667969 C 31.738281 60.667969 32.003906 60.546875 32.023438 60.398438 C 32.042969 60.25 32.070312 60.015625 32.089844 59.882812 C 32.144531 59.480469 32.527344 59.199219 32.527344 59.5625 C 32.527344 59.742188 32.632812 59.824219 32.765625 59.742188 C 32.894531 59.664062 33.152344 59.777344 33.335938 59.996094 C 33.519531 60.21875 33.570312 60.398438 33.445312 60.398438 C 33.324219 60.398438 33.367188 60.539062 33.539062 60.707031 C 33.773438 60.945312 33.945312 60.941406 34.242188 60.691406 C 34.558594 60.429688 34.894531 60.5 35.953125 61.035156 C 36.675781 61.398438 37.425781 61.890625 37.621094 62.125 C 37.816406 62.359375 38.304688 62.550781 38.714844 62.550781 C 39.464844 62.550781 40.203125 61.976562 39.878906 61.648438 C 39.78125 61.554688 39.835938 61.472656 40 61.472656 C 40.570312 61.472656 40.621094 62.007812 40.097656 62.570312 C 39.742188 62.953125 39.390625 63.082031 39.027344 62.96875 C 38.089844 62.667969 38.03125 63.390625 38.933594 64.195312 C 39.8125 64.984375 39.757812 65.40625 38.84375 64.902344 Z M 42.046875 64.113281 C 41.921875 63.914062 42 63.859375 42.269531 63.960938 C 42.496094 64.050781 42.804688 64 42.957031 63.851562 C 43.136719 63.667969 43.285156 63.675781 43.40625 63.871094 C 43.507812 64.03125 43.550781 64.171875 43.507812 64.183594 C 42.652344 64.390625 42.203125 64.367188 42.046875 64.113281 Z M 29.933594 63.316406 C 29.808594 63.109375 29.371094 62.730469 28.972656 62.476562 C 27.941406 61.820312 27.558594 61.042969 28.152344 60.8125 C 28.402344 60.71875 28.523438 60.726562 28.414062 60.832031 C 28.144531 61.105469 29.039062 62.035156 29.375 61.828125 C 29.53125 61.734375 29.570312 61.789062 29.464844 61.960938 C 29.351562 62.144531 29.546875 62.332031 29.960938 62.4375 C 30.695312 62.621094 30.761719 62.75 30.402344 63.320312 C 30.203125 63.632812 30.132812 63.632812 29.933594 63.316406 Z M 30.808594 63.242188 C 30.886719 63.03125 31.140625 62.789062 31.367188 62.703125 C 31.664062 62.589844 31.734375 62.664062 31.613281 62.972656 C 31.523438 63.207031 31.449219 63.453125 31.449219 63.511719 C 31.449219 63.574219 31.273438 63.625 31.054688 63.625 C 30.824219 63.625 30.722656 63.46875 30.808594 63.242188 Z M 41.136719 63.085938 C 40.773438 62.410156 41.074219 62.410156 41.941406 63.085938 C 42.609375 63.609375 42.609375 63.613281 42.019531 63.621094 C 41.691406 63.625 41.292969 63.382812 41.136719 63.085938 Z M 32.527344 62.96875 C 32.527344 62.902344 32.648438 62.777344 32.796875 62.683594 C 32.941406 62.59375 33.066406 62.644531 33.066406 62.800781 C 33.066406 62.960938 32.941406 63.085938 32.796875 63.085938 C 32.648438 63.085938 32.527344 63.035156 32.527344 62.96875 Z M 33.492188 62.585938 C 33.375 62.398438 33.351562 62.171875 33.441406 62.082031 C 33.679688 61.84375 33.945312 62.195312 33.816406 62.585938 C 33.722656 62.859375 33.660156 62.859375 33.492188 62.585938 Z M 29.75 61.566406 C 29.648438 61.464844 29.554688 60.828125 29.535156 60.152344 C 29.507812 59.113281 29.476562 59.042969 29.332031 59.710938 C 29.242188 60.144531 29.074219 60.476562 28.960938 60.449219 C 28.851562 60.421875 28.652344 60.398438 28.523438 60.398438 C 27.972656 60.398438 27.945312 58.558594 28.46875 57.265625 C 28.984375 55.992188 29.058594 56.011719 29.164062 57.464844 C 29.242188 58.5 29.554688 58.847656 30.269531 58.710938 C 30.691406 58.628906 30.914062 58.714844 30.914062 58.957031 C 30.914062 59.15625 30.640625 59.328125 30.308594 59.335938 L 29.703125 59.355469 L 30.308594 59.597656 C 30.640625 59.730469 30.910156 59.996094 30.910156 60.1875 C 30.90625 60.453125 30.851562 60.449219 30.671875 60.167969 C 30.546875 59.964844 30.375 59.910156 30.292969 60.042969 C 30.207031 60.179688 30.25 60.464844 30.386719 60.679688 C 30.523438 60.894531 30.628906 61.25 30.617188 61.472656 C 30.605469 61.789062 30.570312 61.796875 30.457031 61.511719 C 30.351562 61.253906 30.253906 61.234375 30.121094 61.445312 C 30.019531 61.613281 29.851562 61.667969 29.75 61.566406 Z M 56.515625 60.667969 C 56.652344 60.261719 57.082031 60.21875 57.210938 60.597656 C 57.273438 60.785156 57.121094 60.9375 56.875 60.9375 C 56.628906 60.9375 56.464844 60.816406 56.515625 60.667969 Z M 33.894531 60.285156 C 33.882812 60 33.945312 59.84375 34.035156 59.933594 C 34.125 60.023438 34.132812 60.253906 34.058594 60.449219 C 33.96875 60.664062 33.90625 60.597656 33.894531 60.285156 Z M 27.265625 58.714844 C 26.953125 56.195312 26.949219 56.082031 27.15625 55.953125 C 27.261719 55.886719 27.429688 56.589844 27.53125 57.511719 C 27.632812 58.433594 27.785156 59.460938 27.863281 59.792969 C 27.945312 60.125 27.890625 60.398438 27.738281 60.398438 C 27.589844 60.398438 27.375 59.640625 27.265625 58.714844 Z M 31.429688 60.328125 C 31.226562 59.648438 31.234375 58.917969 31.441406 58.558594 C 31.640625 58.21875 31.707031 58.378906 31.710938 59.253906 C 31.714844 59.882812 31.660156 60.398438 31.585938 60.398438 C 31.511719 60.398438 31.441406 60.367188 31.429688 60.328125 Z M 43.558594 58.105469 C 43.558594 57.878906 43.253906 57.558594 42.886719 57.386719 C 42.300781 57.121094 41.953125 56.632812 42.351562 56.632812 C 42.597656 56.632812 43.6875 57.296875 43.890625 57.574219 C 44.175781 57.964844 44.140625 58.515625 43.828125 58.515625 C 43.679688 58.515625 43.558594 58.328125 43.558594 58.105469 Z M 30.105469 56.363281 C 29.910156 55.996094 29.90625 55.824219 30.097656 55.824219 C 30.25 55.824219 30.375 55.636719 30.375 55.40625 C 30.375 55.171875 30.496094 55.058594 30.644531 55.152344 C 30.988281 55.363281 30.996094 56.898438 30.652344 56.898438 C 30.511719 56.898438 30.265625 56.65625 30.105469 56.363281 Z M 28.765625 55.503906 C 28.769531 55.308594 28.886719 54.96875 29.03125 54.746094 C 29.242188 54.417969 29.292969 54.453125 29.292969 54.933594 C 29.296875 55.257812 29.179688 55.597656 29.03125 55.6875 C 28.882812 55.78125 28.761719 55.695312 28.765625 55.503906 Z M 27.113281 54.679688 C 27.003906 51.996094 27.957031 45.84375 28.507812 45.644531 C 28.648438 45.597656 28.761719 45.285156 28.761719 44.953125 C 28.761719 44.222656 30.011719 41.035156 30.496094 40.535156 C 30.78125 40.238281 30.867188 40.253906 31.007812 40.617188 C 31.117188 40.894531 31.070312 40.988281 30.882812 40.875 C 30.6875 40.753906 30.644531 40.875 30.761719 41.242188 C 30.878906 41.609375 30.761719 41.957031 30.40625 42.289062 C 29.839844 42.816406 29.300781 44.003906 29.300781 44.726562 C 29.300781 45.09375 29.363281 45.078125 29.695312 44.644531 C 29.910156 44.355469 30.09375 43.789062 30.097656 43.382812 C 30.101562 42.972656 30.226562 42.640625 30.375 42.640625 C 30.863281 42.640625 30.65625 44.484375 30.039062 45.660156 C 29.519531 46.644531 29.421875 46.722656 29.347656 46.207031 C 29.300781 45.875 29.164062 45.601562 29.042969 45.601562 C 28.519531 45.601562 28.261719 48.921875 28.761719 49.234375 C 29.207031 49.507812 29.089844 50.523438 28.632812 50.347656 C 28.039062 50.121094 27.761719 50.898438 27.738281 52.863281 C 27.707031 55.519531 27.703125 55.554688 27.417969 55.554688 C 27.269531 55.554688 27.132812 55.160156 27.113281 54.679688 Z M 29.628906 54.636719 C 29.710938 54.207031 29.644531 54.03125 29.429688 54.113281 C 29.003906 54.277344 28.632812 52.078125 29.019531 51.691406 C 29.214844 51.5 29.300781 51.652344 29.300781 52.191406 C 29.300781 52.667969 29.574219 53.257812 30.011719 53.714844 C 30.609375 54.335938 30.667969 54.527344 30.382812 54.871094 C 29.871094 55.488281 29.488281 55.371094 29.628906 54.636719 Z M 61.261719 50.121094 C 61.511719 49.871094 61.65625 49.871094 61.90625 50.121094 C 62.15625 50.371094 62.085938 50.441406 61.582031 50.441406 C 61.082031 50.441406 61.007812 50.371094 61.261719 50.121094 Z M 62.929688 50.160156 C 62.929688 49.988281 63.101562 49.914062 63.308594 49.996094 C 63.519531 50.074219 63.761719 49.957031 63.84375 49.738281 C 63.9375 49.492188 64.132812 49.414062 64.339844 49.542969 C 64.523438 49.660156 64.9375 49.71875 65.257812 49.679688 C 65.574219 49.636719 65.917969 49.730469 66.011719 49.890625 C 66.109375 50.046875 65.972656 50.183594 65.703125 50.191406 C 65.433594 50.199219 64.699219 50.265625 64.070312 50.339844 C 63.308594 50.425781 62.929688 50.367188 62.929688 50.160156 Z M 66.640625 50.121094 C 66.890625 49.871094 67.035156 49.871094 67.285156 50.121094 C 67.539062 50.371094 67.464844 50.441406 66.964844 50.441406 C 66.460938 50.441406 66.390625 50.371094 66.640625 50.121094 Z M 60.433594 48.671875 C 60.023438 48.449219 59.550781 48.351562 59.382812 48.453125 C 59.195312 48.570312 59.152344 48.523438 59.269531 48.332031 C 59.390625 48.136719 59.253906 48.023438 58.894531 48.023438 C 58.578125 48.023438 58.382812 48.117188 58.453125 48.234375 C 58.527344 48.347656 58.351562 48.445312 58.066406 48.445312 C 57.351562 48.445312 57.417969 48.070312 58.195312 47.714844 C 58.71875 47.476562 59.160156 47.542969 60.480469 48.054688 C 62.09375 48.679688 62.578125 49.109375 61.652344 49.085938 C 61.390625 49.082031 60.84375 48.894531 60.433594 48.671875 Z M 84.453125 45.078125 C 84.453125 44.921875 84.574219 44.792969 84.722656 44.792969 C 84.867188 44.792969 84.988281 44.847656 84.988281 44.914062 C 84.988281 44.976562 84.867188 45.105469 84.722656 45.199219 C 84.574219 45.289062 84.453125 45.234375 84.453125 45.078125 Z M 84.988281 40.101562 C 84.988281 40.035156 85.109375 39.90625 85.257812 39.816406 C 85.40625 39.726562 85.527344 39.777344 85.527344 39.933594 C 85.527344 40.089844 85.40625 40.21875 85.257812 40.21875 C 85.109375 40.21875 84.988281 40.167969 84.988281 40.101562 Z M 31.722656 38.773438 C 31.722656 38.550781 31.84375 38.292969 31.992188 38.203125 C 32.140625 38.109375 32.257812 38.21875 32.257812 38.4375 C 32.257812 38.660156 32.140625 38.917969 31.992188 39.007812 C 31.84375 39.101562 31.722656 38.992188 31.722656 38.773438 Z M 32.796875 38.757812 C 32.796875 38.691406 32.917969 38.5625 33.066406 38.472656 C 33.214844 38.378906 33.335938 38.433594 33.335938 38.589844 C 33.335938 38.746094 33.214844 38.875 33.066406 38.875 C 32.917969 38.875 32.796875 38.820312 32.796875 38.757812 Z M 34.410156 37.277344 C 34.410156 37.121094 34.53125 36.992188 34.679688 36.992188 C 34.828125 36.992188 34.949219 37.046875 34.949219 37.109375 C 34.949219 37.175781 34.828125 37.304688 34.679688 37.394531 C 34.53125 37.488281 34.410156 37.433594 34.410156 37.277344 Z M 34.808594 34.828125 C 34.71875 34.683594 34.5 34.648438 34.324219 34.753906 C 34.144531 34.859375 34.167969 34.746094 34.378906 34.488281 C 34.761719 34.015625 35.628906 33.875 35.859375 34.246094 C 35.929688 34.367188 35.761719 34.605469 35.484375 34.78125 C 35.15625 34.984375 34.917969 35.003906 34.808594 34.828125 Z M 70.378906 31.042969 C 70.109375 30.886719 69.710938 30.828125 69.488281 30.914062 C 69.265625 31 69.160156 30.953125 69.253906 30.800781 C 69.34375 30.652344 69.269531 30.535156 69.089844 30.535156 C 68.492188 30.535156 69.101562 30.179688 69.828125 30.101562 C 70.667969 30.011719 72.164062 30.710938 71.933594 31.085938 C 71.726562 31.421875 70.992188 31.398438 70.378906 31.042969 Z M 70.378906 31.042969 " clip-rule="nonzero"/></clipPath><radialGradient gradientTransform="matrix(1.00303, 0, 0, 0.99697, -30.152665, -8.205654)" gradientUnits="userSpaceOnUse" r="75.354624" cx="66.411758" id="498e3c3e29" cy="44.592714" fx="66.411758" fy="44.592714"><stop stop-opacity="1" stop-color="rgb(100%, 100%, 100%)" offset="0"/><stop stop-opacity="1" stop-color="rgb(100%, 100%, 100%)" offset="1"/></radialGradient></defs><g clip-path="url(#886c6800af)"><path fill="#c5ddff" d="M 59.5625 0.234375 C 29.195312 0.234375 4.53125 24.898438 4.53125 55.316406 C 4.53125 64.960938 6.976562 73.980469 11.34375 81.898438 C 11.441406 82.042969 11.488281 82.1875 11.585938 82.375 L 17.054688 90.34375 L 17.101562 90.390625 L 60.238281 153.773438 L 102.796875 89.480469 C 110.230469 80.074219 114.695312 68.222656 114.695312 55.316406 C 114.695312 24.898438 89.984375 0.234375 59.5625 0.234375 Z M 26.839844 55.316406 C 26.839844 37.226562 41.523438 22.59375 59.5625 22.59375 C 77.652344 22.59375 92.335938 37.226562 92.335938 55.316406 C 92.335938 66.496094 86.722656 76.332031 78.183594 82.234375 C 72.902344 85.878906 66.523438 87.992188 59.613281 87.992188 C 52.609375 87.992188 46.035156 85.785156 40.757812 81.992188 C 32.359375 76.089844 26.839844 66.398438 26.839844 55.316406 Z M 26.839844 55.316406 " fill-opacity="1" fill-rule="nonzero"/></g><g clip-path="url(#6347c2282f)"><g clip-path="url(#cd7299aabe)"><path fill="url(#498e3c3e29)" d="M 26.949219 22.898438 L 26.949219 87.660156 L 92.144531 87.660156 L 92.144531 22.898438 Z M 26.949219 22.898438 " fill-rule="nonzero"/></g></g><path fill="#ffffff" d="M 118.707031 129.878906 L 119.730469 129.878906 L 119.730469 133.738281 C 119.257812 134.152344 118.699219 134.46875 118.054688 134.691406 C 117.410156 134.910156 116.734375 135.023438 116.023438 135.023438 C 115.011719 135.023438 114.101562 134.800781 113.289062 134.359375 C 112.480469 133.917969 111.847656 133.304688 111.386719 132.519531 C 110.921875 131.734375 110.691406 130.855469 110.691406 129.878906 C 110.691406 128.910156 110.921875 128.03125 111.386719 127.25 C 111.847656 126.464844 112.480469 125.851562 113.289062 125.40625 C 114.101562 124.964844 115.015625 124.742188 116.035156 124.742188 C 116.804688 124.742188 117.511719 124.867188 118.15625 125.113281 C 118.800781 125.359375 119.34375 125.71875 119.789062 126.199219 L 119.125 126.878906 C 118.324219 126.089844 117.3125 125.695312 116.078125 125.695312 C 115.261719 125.695312 114.523438 125.878906 113.863281 126.238281 C 113.199219 126.597656 112.683594 127.097656 112.308594 127.738281 C 111.933594 128.378906 111.746094 129.089844 111.746094 129.878906 C 111.746094 130.667969 111.933594 131.382812 112.308594 132.019531 C 112.683594 132.65625 113.199219 133.15625 113.851562 133.523438 C 114.507812 133.886719 115.246094 134.070312 116.066406 134.070312 C 117.105469 134.070312 117.984375 133.808594 118.707031 133.289062 Z M 118.707031 129.878906 " fill-opacity="1" fill-rule="nonzero"/><path fill="#ffffff" d="M 133.648438 134.011719 L 133.648438 134.9375 L 126.5 134.9375 L 126.5 124.828125 L 133.429688 124.828125 L 133.429688 125.753906 L 127.566406 125.753906 L 127.566406 129.347656 L 132.796875 129.347656 L 132.796875 130.253906 L 127.566406 130.253906 L 127.566406 134.011719 Z M 133.648438 134.011719 " fill-opacity="1" fill-rule="nonzero"/><path fill="#ffffff" d="M 144.332031 135.023438 C 143.328125 135.023438 142.421875 134.800781 141.609375 134.355469 C 140.792969 133.90625 140.15625 133.289062 139.699219 132.511719 C 139.242188 131.730469 139.015625 130.855469 139.015625 129.878906 C 139.015625 128.910156 139.242188 128.035156 139.699219 127.253906 C 140.15625 126.476562 140.792969 125.863281 141.609375 125.417969 C 142.421875 124.96875 143.328125 124.742188 144.332031 124.742188 C 145.332031 124.742188 146.230469 124.964844 147.035156 125.40625 C 147.839844 125.851562 148.472656 126.464844 148.933594 127.25 C 149.398438 128.03125 149.632812 128.910156 149.632812 129.878906 C 149.632812 130.855469 149.398438 131.734375 148.933594 132.519531 C 148.472656 133.304688 147.839844 133.917969 147.035156 134.359375 C 146.230469 134.800781 145.332031 135.023438 144.332031 135.023438 Z M 144.332031 134.070312 C 145.128906 134.070312 145.851562 133.890625 146.496094 133.53125 C 147.140625 133.167969 147.644531 132.667969 148.011719 132.027344 C 148.375 131.386719 148.558594 130.667969 148.558594 129.878906 C 148.558594 129.089844 148.375 128.378906 148.011719 127.738281 C 147.644531 127.097656 147.140625 126.597656 146.496094 126.238281 C 145.851562 125.878906 145.128906 125.695312 144.332031 125.695312 C 143.53125 125.695312 142.808594 125.878906 142.15625 126.238281 C 141.503906 126.597656 140.992188 127.097656 140.621094 127.738281 C 140.253906 128.378906 140.070312 129.089844 140.070312 129.878906 C 140.070312 130.667969 140.253906 131.386719 140.621094 132.027344 C 140.992188 132.667969 141.503906 133.167969 142.15625 133.53125 C 142.808594 133.890625 143.53125 134.070312 144.332031 134.070312 Z M 144.332031 134.070312 " fill-opacity="1" fill-rule="nonzero"/><path fill="#ffffff" d="M 155.773438 124.828125 L 156.84375 124.828125 L 156.84375 134.011719 L 162.503906 134.011719 L 162.503906 134.9375 L 155.773438 134.9375 Z M 155.773438 124.828125 " fill-opacity="1" fill-rule="nonzero"/><path fill="#ffffff" d="M 172.453125 135.023438 C 171.453125 135.023438 170.542969 134.800781 169.730469 134.355469 C 168.914062 133.90625 168.277344 133.289062 167.820312 132.511719 C 167.363281 131.730469 167.136719 130.855469 167.136719 129.878906 C 167.136719 128.910156 167.363281 128.035156 167.820312 127.253906 C 168.277344 126.476562 168.914062 125.863281 169.730469 125.417969 C 170.542969 124.96875 171.453125 124.742188 172.453125 124.742188 C 173.453125 124.742188 174.351562 124.964844 175.15625 125.40625 C 175.960938 125.851562 176.59375 126.464844 177.054688 127.25 C 177.519531 128.03125 177.753906 128.910156 177.753906 129.878906 C 177.753906 130.855469 177.519531 131.734375 177.054688 132.519531 C 176.59375 133.304688 175.960938 133.917969 175.15625 134.359375 C 174.351562 134.800781 173.453125 135.023438 172.453125 135.023438 Z M 172.453125 134.070312 C 173.25 134.070312 173.972656 133.890625 174.617188 133.53125 C 175.261719 133.167969 175.765625 132.667969 176.132812 132.027344 C 176.496094 131.386719 176.679688 130.667969 176.679688 129.878906 C 176.679688 129.089844 176.496094 128.378906 176.132812 127.738281 C 175.765625 127.097656 175.261719 126.597656 174.617188 126.238281 C 173.972656 125.878906 173.25 125.695312 172.453125 125.695312 C 171.652344 125.695312 170.929688 125.878906 170.277344 126.238281 C 169.625 126.597656 169.113281 127.097656 168.742188 127.738281 C 168.375 128.378906 168.191406 129.089844 168.191406 129.878906 C 168.191406 130.667969 168.375 131.386719 168.742188 132.027344 C 169.113281 132.667969 169.625 133.167969 170.277344 133.53125 C 170.929688 133.890625 171.652344 134.070312 172.453125 134.070312 Z M 172.453125 134.070312 " fill-opacity="1" fill-rule="nonzero"/><path fill="#ffffff" d="M 188.289062 135.023438 C 187.289062 135.023438 186.382812 134.800781 185.578125 134.359375 C 184.773438 133.917969 184.144531 133.304688 183.683594 132.519531 C 183.230469 131.734375 183 130.855469 183 129.878906 C 183 128.910156 183.230469 128.03125 183.683594 127.25 C 184.144531 126.464844 184.777344 125.851562 185.585938 125.40625 C 186.394531 124.964844 187.300781 124.742188 188.300781 124.742188 C 189.050781 124.742188 189.746094 124.867188 190.378906 125.117188 C 191.015625 125.367188 191.554688 125.734375 191.996094 126.214844 L 191.316406 126.894531 C 190.53125 126.09375 189.535156 125.695312 188.332031 125.695312 C 187.53125 125.695312 186.804688 125.878906 186.148438 126.242188 C 185.492188 126.609375 184.980469 127.109375 184.609375 127.746094 C 184.238281 128.378906 184.054688 129.089844 184.054688 129.878906 C 184.054688 130.667969 184.238281 131.382812 184.609375 132.019531 C 184.980469 132.65625 185.492188 133.15625 186.148438 133.523438 C 186.804688 133.886719 187.53125 134.070312 188.332031 134.070312 C 189.542969 134.070312 190.539062 133.667969 191.316406 132.859375 L 191.996094 133.535156 C 191.554688 134.015625 191.011719 134.386719 190.371094 134.640625 C 189.730469 134.894531 189.039062 135.023438 188.289062 135.023438 Z M 188.289062 135.023438 " fill-opacity="1" fill-rule="nonzero"/><path fill="#ffffff" d="M 204.367188 132.238281 L 198.738281 132.238281 L 197.523438 134.9375 L 196.414062 134.9375 L 201.035156 124.828125 L 202.089844 124.828125 L 206.707031 134.9375 L 205.582031 134.9375 Z M 203.980469 131.371094 L 201.554688 125.941406 L 199.125 131.371094 Z M 203.980469 131.371094 " fill-opacity="1" fill-rule="nonzero"/><path fill="#ffffff" d="M 214.097656 125.753906 L 210.546875 125.753906 L 210.546875 124.828125 L 218.71875 124.828125 L 218.71875 125.753906 L 215.167969 125.753906 L 215.167969 134.9375 L 214.097656 134.9375 Z M 214.097656 125.753906 " fill-opacity="1" fill-rule="nonzero"/><path fill="#ffffff" d="M 224.171875 124.828125 L 225.242188 124.828125 L 225.242188 134.9375 L 224.171875 134.9375 Z M 224.171875 124.828125 " fill-opacity="1" fill-rule="nonzero"/><path fill="#ffffff" d="M 236.707031 135.023438 C 235.707031 135.023438 234.796875 134.800781 233.984375 134.355469 C 233.167969 133.90625 232.53125 133.289062 232.074219 132.511719 C 231.617188 131.730469 231.390625 130.855469 231.390625 129.878906 C 231.390625 128.910156 231.617188 128.035156 232.074219 127.253906 C 232.53125 126.476562 233.167969 125.863281 233.984375 125.417969 C 234.796875 124.96875 235.707031 124.742188 236.707031 124.742188 C 237.707031 124.742188 238.609375 124.964844 239.410156 125.40625 C 240.214844 125.851562 240.847656 126.464844 241.308594 127.25 C 241.773438 128.03125 242.007812 128.910156 242.007812 129.878906 C 242.007812 130.855469 241.773438 131.734375 241.308594 132.519531 C 240.847656 133.304688 240.214844 133.917969 239.410156 134.359375 C 238.609375 134.800781 237.707031 135.023438 236.707031 135.023438 Z M 236.707031 134.070312 C 237.503906 134.070312 238.226562 133.890625 238.871094 133.53125 C 239.515625 133.167969 240.019531 132.667969 240.386719 132.027344 C 240.753906 131.386719 240.933594 130.667969 240.933594 129.878906 C 240.933594 129.089844 240.753906 128.378906 240.386719 127.738281 C 240.019531 127.097656 239.515625 126.597656 238.871094 126.238281 C 238.226562 125.878906 237.503906 125.695312 236.707031 125.695312 C 235.910156 125.695312 235.183594 125.878906 234.53125 126.238281 C 233.878906 126.597656 233.371094 127.097656 233 127.738281 C 232.628906 128.378906 232.445312 129.089844 232.445312 129.878906 C 232.445312 130.667969 232.628906 131.386719 233 132.027344 C 233.371094 132.667969 233.878906 133.167969 234.53125 133.53125 C 235.183594 133.890625 235.910156 134.070312 236.707031 134.070312 Z M 236.707031 134.070312 " fill-opacity="1" fill-rule="nonzero"/><path fill="#ffffff" d="M 256.597656 124.828125 L 256.597656 134.9375 L 255.71875 134.9375 L 249.21875 126.734375 L 249.21875 134.9375 L 248.152344 134.9375 L 248.152344 124.828125 L 249.03125 124.828125 L 255.542969 133.03125 L 255.542969 124.828125 Z M 256.597656 124.828125 " fill-opacity="1" fill-rule="nonzero"/><path fill="#ffffff" d="M 277.515625 132.238281 L 271.882812 132.238281 L 270.671875 134.9375 L 269.5625 134.9375 L 274.183594 124.828125 L 275.238281 124.828125 L 279.855469 134.9375 L 278.730469 134.9375 Z M 277.128906 131.371094 L 274.703125 125.941406 L 272.273438 131.371094 Z M 277.128906 131.371094 " fill-opacity="1" fill-rule="nonzero"/><path fill="#ffffff" d="M 289.066406 124.828125 C 290.355469 124.828125 291.367188 125.136719 292.097656 125.753906 C 292.828125 126.371094 293.195312 127.214844 293.195312 128.292969 C 293.195312 129.371094 292.828125 130.214844 292.097656 130.828125 C 291.367188 131.441406 290.355469 131.746094 289.066406 131.746094 L 286.347656 131.746094 L 286.347656 134.9375 L 285.28125 134.9375 L 285.28125 124.828125 Z M 289.039062 130.804688 C 290.039062 130.804688 290.804688 130.585938 291.332031 130.148438 C 291.859375 129.710938 292.125 129.089844 292.125 128.292969 C 292.125 127.476562 291.859375 126.847656 291.332031 126.414062 C 290.804688 125.972656 290.039062 125.753906 289.039062 125.753906 L 286.347656 125.753906 L 286.347656 130.804688 Z M 289.039062 130.804688 " fill-opacity="1" fill-rule="nonzero"/><path fill="#ffffff" d="M 303.183594 124.828125 C 304.472656 124.828125 305.484375 125.136719 306.214844 125.753906 C 306.945312 126.371094 307.3125 127.214844 307.3125 128.292969 C 307.3125 129.371094 306.945312 130.214844 306.214844 130.828125 C 305.484375 131.441406 304.472656 131.746094 303.183594 131.746094 L 300.46875 131.746094 L 300.46875 134.9375 L 299.398438 134.9375 L 299.398438 124.828125 Z M 303.15625 130.804688 C 304.15625 130.804688 304.921875 130.585938 305.449219 130.148438 C 305.980469 129.710938 306.242188 129.089844 306.242188 128.292969 C 306.242188 127.476562 305.980469 126.847656 305.449219 126.414062 C 304.921875 125.972656 304.15625 125.753906 303.15625 125.753906 L 300.46875 125.753906 L 300.46875 130.804688 Z M 303.15625 130.804688 " fill-opacity="1" fill-rule="nonzero"/><path fill="#ffffff" d="M 316.308594 135.023438 C 315.554688 135.023438 314.832031 134.902344 314.144531 134.660156 C 313.457031 134.421875 312.925781 134.105469 312.550781 133.710938 L 312.96875 132.886719 C 313.335938 133.253906 313.820312 133.550781 314.425781 133.777344 C 315.03125 134 315.660156 134.113281 316.308594 134.113281 C 317.210938 134.113281 317.890625 133.949219 318.34375 133.617188 C 318.792969 133.285156 319.019531 132.851562 319.019531 132.324219 C 319.019531 131.921875 318.898438 131.597656 318.648438 131.355469 C 318.40625 131.113281 318.105469 130.929688 317.75 130.800781 C 317.394531 130.667969 316.898438 130.523438 316.265625 130.371094 C 315.5 130.179688 314.894531 129.996094 314.441406 129.816406 C 313.988281 129.640625 313.601562 129.367188 313.277344 129 C 312.957031 128.632812 312.796875 128.140625 312.796875 127.515625 C 312.796875 127.003906 312.929688 126.542969 313.199219 126.125 C 313.46875 125.703125 313.882812 125.367188 314.441406 125.117188 C 315 124.867188 315.691406 124.742188 316.523438 124.742188 C 317.101562 124.742188 317.664062 124.824219 318.21875 124.984375 C 318.769531 125.140625 319.25 125.359375 319.65625 125.636719 L 319.292969 126.488281 C 318.871094 126.210938 318.417969 126.003906 317.9375 125.863281 C 317.457031 125.722656 316.984375 125.652344 316.523438 125.652344 C 315.636719 125.652344 314.964844 125.824219 314.519531 126.167969 C 314.070312 126.507812 313.847656 126.945312 313.847656 127.484375 C 313.847656 127.890625 313.972656 128.214844 314.214844 128.460938 C 314.460938 128.707031 314.769531 128.894531 315.144531 129.023438 C 315.515625 129.152344 316.015625 129.292969 316.640625 129.449219 C 317.378906 129.628906 317.976562 129.8125 318.433594 129.992188 C 318.890625 130.167969 319.28125 130.4375 319.597656 130.800781 C 319.914062 131.164062 320.074219 131.652344 320.074219 132.265625 C 320.074219 132.777344 319.933594 133.242188 319.660156 133.660156 C 319.386719 134.078125 318.96875 134.410156 318.398438 134.65625 C 317.832031 134.902344 317.136719 135.023438 316.308594 135.023438 Z M 316.308594 135.023438 " fill-opacity="1" fill-rule="nonzero"/><path fill="#1a2d4b" d="M 106.421875 68.125 L 106.421875 103.046875 L 99.789062 103.046875 L 82.378906 81.84375 L 82.378906 103.046875 L 74.398438 103.046875 L 74.398438 68.125 L 81.085938 68.125 L 98.445312 89.328125 L 98.445312 68.125 Z M 106.421875 68.125 " fill-opacity="1" fill-rule="nonzero"/><path fill="#1a2d4b" d="M 142.9375 89.726562 C 142.9375 89.824219 142.886719 90.523438 142.789062 91.824219 L 122.484375 91.824219 C 122.851562 93.484375 123.714844 94.796875 125.078125 95.761719 C 126.445312 96.730469 128.140625 97.210938 130.167969 97.210938 C 131.566406 97.210938 132.804688 97.003906 133.886719 96.585938 C 134.964844 96.167969 135.96875 95.511719 136.902344 94.613281 L 141.042969 99.105469 C 138.515625 102 134.824219 103.445312 129.96875 103.445312 C 126.941406 103.445312 124.265625 102.855469 121.9375 101.675781 C 119.609375 100.496094 117.8125 98.859375 116.550781 96.761719 C 115.285156 94.667969 114.65625 92.289062 114.65625 89.625 C 114.65625 87 115.277344 84.632812 116.527344 82.519531 C 117.773438 80.40625 119.484375 78.761719 121.664062 77.582031 C 123.839844 76.398438 126.277344 75.804688 128.96875 75.804688 C 131.597656 75.804688 133.976562 76.371094 136.101562 77.503906 C 138.230469 78.636719 139.902344 80.257812 141.113281 82.371094 C 142.328125 84.480469 142.9375 86.933594 142.9375 89.726562 Z M 129.023438 81.695312 C 127.257812 81.695312 125.777344 82.191406 124.578125 83.191406 C 123.382812 84.1875 122.648438 85.550781 122.382812 87.28125 L 135.605469 87.28125 C 135.339844 85.585938 134.609375 84.230469 133.410156 83.21875 C 132.210938 82.203125 130.75 81.695312 129.023438 81.695312 Z M 129.023438 81.695312 " fill-opacity="1" fill-rule="nonzero"/><path fill="#1a2d4b" d="M 177.261719 76.207031 L 165.9375 103.046875 L 157.90625 103.046875 L 146.628906 76.207031 L 154.664062 76.207031 L 162.09375 94.464844 L 169.777344 76.207031 Z M 177.261719 76.207031 " fill-opacity="1" fill-rule="nonzero"/><path fill="#1a2d4b" d="M 209.234375 89.726562 C 209.234375 89.824219 209.183594 90.523438 209.085938 91.824219 L 188.78125 91.824219 C 189.148438 93.484375 190.011719 94.796875 191.375 95.761719 C 192.742188 96.730469 194.4375 97.210938 196.464844 97.210938 C 197.859375 97.210938 199.101562 97.003906 200.183594 96.585938 C 201.261719 96.167969 202.265625 95.511719 203.199219 94.613281 L 207.339844 99.105469 C 204.8125 102 201.121094 103.445312 196.265625 103.445312 C 193.238281 103.445312 190.5625 102.855469 188.234375 101.675781 C 185.90625 100.496094 184.109375 98.859375 182.847656 96.761719 C 181.582031 94.667969 180.953125 92.289062 180.953125 89.625 C 180.953125 87 181.574219 84.632812 182.824219 82.519531 C 184.070312 80.40625 185.78125 78.761719 187.960938 77.582031 C 190.136719 76.398438 192.574219 75.804688 195.265625 75.804688 C 197.894531 75.804688 200.273438 76.371094 202.398438 77.503906 C 204.527344 78.636719 206.199219 80.257812 207.410156 82.371094 C 208.625 84.480469 209.234375 86.933594 209.234375 89.726562 Z M 195.320312 81.695312 C 193.554688 81.695312 192.074219 82.191406 190.875 83.191406 C 189.679688 84.1875 188.945312 85.550781 188.679688 87.28125 L 201.902344 87.28125 C 201.636719 85.585938 200.90625 84.230469 199.707031 83.21875 C 198.507812 82.203125 197.046875 81.695312 195.320312 81.695312 Z M 195.320312 81.695312 " fill-opacity="1" fill-rule="nonzero"/><path fill="#1a2d4b" d="M 224.351562 79.75 C 225.28125 78.453125 226.535156 77.46875 228.117188 76.804688 C 229.699219 76.140625 231.519531 75.804688 233.582031 75.804688 L 233.582031 82.992188 C 232.714844 82.925781 232.132812 82.890625 231.835938 82.890625 C 229.605469 82.890625 227.859375 83.515625 226.597656 84.761719 C 225.332031 86.011719 224.703125 87.882812 224.703125 90.375 L 224.703125 103.046875 L 216.917969 103.046875 L 216.917969 76.207031 L 224.351562 76.207031 Z M 224.351562 79.75 " fill-opacity="1" fill-rule="nonzero"/><path fill="#ffffff" d="M 240.917969 68.125 L 243.464844 68.125 L 243.464844 100.75 L 263.570312 100.75 L 263.570312 103.046875 L 240.917969 103.046875 Z M 240.917969 68.125 " fill-opacity="1" fill-rule="nonzero"/><path fill="#ffffff" d="M 282.972656 103.242188 C 280.511719 103.242188 278.292969 102.679688 276.3125 101.550781 C 274.332031 100.417969 272.777344 98.847656 271.644531 96.835938 C 270.515625 94.824219 269.953125 92.550781 269.953125 90.023438 C 269.953125 87.5 270.515625 85.230469 271.644531 83.21875 C 272.777344 81.207031 274.332031 79.632812 276.3125 78.503906 C 278.292969 77.371094 280.511719 76.804688 282.972656 76.804688 C 285.433594 76.804688 287.652344 77.371094 289.628906 78.503906 C 291.613281 79.632812 293.167969 81.207031 294.296875 83.21875 C 295.425781 85.230469 295.992188 87.5 295.992188 90.023438 C 295.992188 92.550781 295.425781 94.824219 294.296875 96.835938 C 293.167969 98.847656 291.613281 100.417969 289.628906 101.550781 C 287.652344 102.679688 285.433594 103.242188 282.972656 103.242188 Z M 282.972656 101 C 284.964844 101 286.753906 100.535156 288.335938 99.605469 C 289.917969 98.671875 291.164062 97.375 292.078125 95.714844 C 292.992188 94.050781 293.449219 92.152344 293.449219 90.023438 C 293.449219 87.894531 292.992188 86 292.078125 84.339844 C 291.164062 82.675781 289.917969 81.378906 288.335938 80.449219 C 286.753906 79.519531 284.964844 79.054688 282.972656 79.054688 C 280.976562 79.054688 279.191406 79.519531 277.609375 80.449219 C 276.03125 81.378906 274.785156 82.675781 273.867188 84.339844 C 272.953125 86 272.496094 87.894531 272.496094 90.023438 C 272.496094 92.152344 272.953125 94.050781 273.867188 95.714844 C 274.785156 97.375 276.03125 98.671875 277.609375 99.605469 C 279.191406 100.535156 280.976562 101 282.972656 101 Z M 282.972656 101 " fill-opacity="1" fill-rule="nonzero"/><path fill="#ffffff" d="M 313.800781 103.242188 C 311.707031 103.242188 309.710938 102.925781 307.816406 102.296875 C 305.921875 101.664062 304.441406 100.867188 303.378906 99.90625 L 304.523438 97.910156 C 305.585938 98.804688 306.957031 99.554688 308.640625 100.15625 C 310.320312 100.75 312.074219 101.050781 313.902344 101.050781 C 316.527344 101.050781 318.464844 100.617188 319.710938 99.753906 C 320.960938 98.890625 321.582031 97.691406 321.582031 96.164062 C 321.582031 95.066406 321.242188 94.203125 320.558594 93.570312 C 319.878906 92.933594 319.039062 92.46875 318.042969 92.167969 C 317.042969 91.871094 315.664062 91.554688 313.902344 91.222656 C 311.839844 90.855469 310.175781 90.457031 308.914062 90.023438 C 307.648438 89.589844 306.570312 88.894531 305.671875 87.933594 C 304.773438 86.96875 304.324219 85.636719 304.324219 83.941406 C 304.324219 81.878906 305.179688 80.171875 306.894531 78.828125 C 308.605469 77.480469 311.039062 76.804688 314.199219 76.804688 C 315.863281 76.804688 317.511719 77.039062 319.140625 77.503906 C 320.769531 77.96875 322.097656 78.585938 323.132812 79.351562 L 321.980469 81.347656 C 320.917969 80.582031 319.703125 80 318.339844 79.601562 C 316.976562 79.199219 315.582031 79 314.152344 79 C 311.722656 79 309.894531 79.449219 308.664062 80.347656 C 307.433594 81.246094 306.816406 82.425781 306.816406 83.890625 C 306.816406 85.054688 307.164062 85.960938 307.863281 86.609375 C 308.5625 87.257812 309.417969 87.738281 310.433594 88.058594 C 311.449219 88.371094 312.871094 88.710938 314.699219 89.078125 C 316.730469 89.441406 318.367188 89.835938 319.609375 90.25 C 320.859375 90.664062 321.914062 91.335938 322.78125 92.269531 C 323.648438 93.203125 324.078125 94.480469 324.078125 96.109375 C 324.078125 98.273438 323.179688 100.003906 321.386719 101.300781 C 319.589844 102.59375 317.0625 103.242188 313.800781 103.242188 Z M 313.800781 103.242188 " fill-opacity="1" fill-rule="nonzero"/><path fill="#ffffff" d="M 347.472656 101.398438 C 346.839844 101.996094 346.050781 102.453125 345.101562 102.769531 C 344.15625 103.085938 343.167969 103.242188 342.136719 103.242188 C 339.875 103.242188 338.125 102.621094 336.894531 101.375 C 335.664062 100.128906 335.050781 98.390625 335.050781 96.164062 L 335.050781 79.148438 L 330.261719 79.148438 L 330.261719 77.003906 L 335.050781 77.003906 L 335.050781 71.316406 L 337.550781 71.316406 L 337.550781 77.003906 L 345.828125 77.003906 L 345.828125 79.148438 L 337.550781 79.148438 L 337.550781 95.910156 C 337.550781 97.609375 337.957031 98.898438 338.769531 99.78125 C 339.585938 100.660156 340.789062 101.101562 342.386719 101.101562 C 344.015625 101.101562 345.363281 100.621094 346.429688 99.65625 Z M 347.472656 101.398438 " fill-opacity="1" fill-rule="nonzero"/></svg>