<svg xmlns="http://www.w3.org/2000/svg" xmlns:xlink="http://www.w3.org/1999/xlink" width="412" zoomAndPan="magnify" viewBox="0 0 309 140.249994" height="187" preserveAspectRatio="xMidYMid meet" version="1.0"><defs><g/><clipPath id="1f2159286c"><path d="M 5.472656 0 L 102.9375 0 L 102.9375 135.777344 L 5.472656 135.777344 Z M 5.472656 0 " clip-rule="nonzero"/></clipPath><clipPath id="f785786b85"><path d="M 25.265625 20.054688 L 83 20.054688 L 83 77.519531 L 25.265625 77.519531 Z M 25.265625 20.054688 " clip-rule="nonzero"/></clipPath><clipPath id="2192ce00f9"><path d="M 51.78125 77.113281 C 49.976562 76.910156 47.847656 76.492188 47.738281 76.320312 C 47.675781 76.214844 47.96875 76.0625 48.394531 75.980469 C 49.40625 75.785156 49.425781 75.785156 50.976562 75.972656 C 51.859375 76.082031 52.367188 76.046875 52.472656 75.875 C 52.589844 75.691406 52.914062 75.722656 53.578125 75.992188 C 54.425781 76.328125 55.089844 76.34375 56.1875 76.050781 C 56.394531 75.996094 56.515625 76.09375 56.472656 76.285156 C 56.425781 76.515625 56.53125 76.558594 56.832031 76.429688 C 57.066406 76.332031 57.578125 76.269531 57.972656 76.289062 L 58.683594 76.328125 L 58.109375 75.925781 L 57.539062 75.519531 L 58.082031 75.320312 C 58.429688 75.191406 58.746094 75.21875 58.957031 75.390625 C 59.386719 75.746094 62.3125 75.492188 63.488281 75.003906 C 63.953125 74.808594 64.671875 74.644531 65.082031 74.640625 C 65.488281 74.636719 66.09375 74.480469 66.421875 74.292969 C 67.082031 73.914062 67.609375 73.835938 67.609375 74.121094 C 67.609375 74.335938 65.277344 75.375 63.207031 76.082031 C 60.394531 77.042969 55.253906 77.507812 51.78125 77.113281 Z M 58.140625 73.296875 C 57.285156 72.945312 56.808594 72.09375 57.195312 71.613281 C 57.363281 71.402344 57.335938 71.316406 57.105469 71.3125 C 56.878906 71.308594 56.863281 71.257812 57.054688 71.132812 C 57.207031 71.039062 57.402344 70.425781 57.492188 69.769531 C 57.578125 69.113281 57.792969 68.097656 57.960938 67.507812 C 58.132812 66.917969 58.273438 66.222656 58.269531 65.960938 C 58.265625 65.457031 58.472656 63.867188 58.71875 62.550781 C 58.914062 61.492188 58.441406 60.675781 57.3125 60.097656 C 56.8125 59.839844 56.34375 59.449219 56.269531 59.226562 C 55.917969 58.117188 55.09375 56.457031 54.4375 55.53125 C 53.796875 54.625 54.234375 52.691406 55.292969 51.746094 C 55.933594 51.175781 56.039062 50.925781 55.976562 50.183594 C 55.933594 49.699219 55.816406 49.246094 55.710938 49.179688 C 55.601562 49.117188 55.507812 48.957031 55.496094 48.824219 C 55.480469 48.695312 55.335938 48.585938 55.175781 48.585938 C 55.011719 48.585938 54.902344 48.71875 54.933594 48.878906 C 55.007812 49.253906 53.582031 48.992188 53.136719 48.542969 C 52.960938 48.371094 52.71875 48.230469 52.597656 48.230469 C 52.476562 48.230469 52.378906 48.085938 52.378906 47.914062 C 52.378906 47.402344 51.371094 46.628906 50.472656 46.445312 C 50.015625 46.351562 49.40625 46.058594 49.117188 45.796875 C 48.769531 45.472656 48.199219 45.292969 47.390625 45.25 C 46.148438 45.183594 44.875 44.578125 45.125 44.171875 C 45.203125 44.046875 44.945312 43.945312 44.550781 43.945312 C 43.660156 43.945312 43.382812 43.546875 43.964844 43.09375 C 44.207031 42.902344 44.289062 42.777344 44.144531 42.8125 C 43.929688 42.863281 43.015625 41.933594 42.332031 40.96875 C 42.238281 40.839844 41.839844 40.355469 41.441406 39.898438 L 40.71875 39.066406 L 41.089844 39.839844 C 41.296875 40.265625 41.558594 40.613281 41.675781 40.613281 C 41.792969 40.613281 41.832031 40.761719 41.761719 40.945312 C 41.691406 41.128906 41.75 41.347656 41.886719 41.4375 C 42.027344 41.523438 42.144531 41.765625 42.144531 41.972656 C 42.144531 42.304688 42.082031 42.296875 41.667969 41.921875 C 41.40625 41.683594 41.191406 41.34375 41.191406 41.164062 C 41.191406 40.984375 41.027344 40.773438 40.828125 40.695312 C 40.605469 40.609375 40.515625 40.390625 40.597656 40.128906 C 40.671875 39.894531 40.621094 39.632812 40.488281 39.546875 C 40.351562 39.464844 40.238281 39.203125 40.238281 38.96875 C 40.238281 38.734375 39.980469 38.261719 39.664062 37.921875 C 38.789062 36.976562 38.550781 35.453125 39.074219 34.164062 C 39.550781 32.984375 39.644531 32.042969 39.28125 32.042969 C 39.144531 32.042969 39.101562 31.796875 39.183594 31.476562 C 39.261719 31.164062 39.210938 30.835938 39.066406 30.746094 C 38.925781 30.660156 38.8125 30.753906 38.8125 30.960938 C 38.8125 31.164062 38.699219 31.332031 38.5625 31.332031 C 38.429688 31.332031 38.335938 31.089844 38.363281 30.796875 C 38.449219 29.777344 38.332031 29.425781 37.910156 29.425781 C 37.367188 29.425781 35.691406 30.273438 35.445312 30.671875 C 35.339844 30.839844 35.171875 30.976562 35.070312 30.976562 C 34.96875 30.976562 34.386719 31.320312 33.785156 31.742188 C 33.179688 32.160156 32.621094 32.4375 32.542969 32.363281 C 32.464844 32.285156 32.746094 31.992188 33.164062 31.707031 C 33.585938 31.425781 33.964844 30.984375 34.007812 30.726562 C 34.054688 30.46875 34.484375 29.910156 34.964844 29.488281 C 35.441406 29.0625 35.632812 28.785156 35.386719 28.871094 C 34.703125 29.109375 35.027344 28.417969 35.769531 28.058594 C 36.105469 27.894531 36.441406 27.519531 36.523438 27.222656 C 36.710938 26.515625 38.355469 25.382812 39.207031 25.371094 C 39.578125 25.367188 40.523438 25.226562 41.308594 25.058594 C 42.09375 24.894531 43.132812 24.785156 43.613281 24.816406 C 44.335938 24.863281 44.484375 24.796875 44.457031 24.441406 C 44.433594 24.089844 44.347656 24.058594 44.007812 24.269531 C 43.78125 24.414062 43.519531 24.457031 43.429688 24.367188 C 43.203125 24.136719 43.789062 23.476562 44.21875 23.476562 C 44.425781 23.476562 44.519531 23.335938 44.445312 23.140625 C 44.359375 22.917969 44.613281 22.667969 45.191406 22.414062 C 45.675781 22.203125 45.855469 22.078125 45.59375 22.136719 C 44.964844 22.28125 43.558594 22.773438 43.039062 23.03125 C 42.8125 23.144531 42.410156 23.238281 42.144531 23.238281 C 41.882812 23.238281 41.667969 23.332031 41.667969 23.449219 C 41.667969 23.65625 39.96875 24.335938 38.8125 24.59375 C 38.296875 24.710938 38.328125 24.648438 39.046875 24.15625 C 41.625 22.382812 43.917969 21.40625 47.449219 20.578125 C 49.257812 20.152344 50.386719 20.0625 53.925781 20.054688 C 58.195312 20.046875 61.398438 20.433594 60.695312 20.867188 C 60.519531 20.976562 60.285156 21.007812 60.175781 20.941406 C 60.066406 20.875 58.863281 20.785156 57.503906 20.746094 C 55.429688 20.6875 55.050781 20.730469 55.164062 21.019531 C 55.234375 21.207031 55.429688 21.308594 55.59375 21.246094 C 56.003906 21.089844 57.925781 22.09375 59.167969 23.113281 C 59.730469 23.574219 60.28125 23.953125 60.394531 23.953125 C 60.503906 23.953125 60.730469 24.175781 60.902344 24.445312 C 61.171875 24.878906 61.152344 24.957031 60.746094 25.0625 C 60.132812 25.222656 59.964844 26.191406 60.359375 27.304688 C 60.53125 27.792969 60.621094 28.246094 60.554688 28.308594 C 60.339844 28.527344 58.933594 27.671875 58.015625 26.761719 C 57.511719 26.261719 56.984375 25.925781 56.84375 26.011719 C 56.703125 26.097656 56.65625 26.058594 56.742188 25.921875 C 56.824219 25.785156 56.730469 25.535156 56.527344 25.371094 C 56.328125 25.203125 56.21875 24.921875 56.285156 24.746094 C 56.355469 24.566406 56.253906 24.429688 56.050781 24.429688 C 55.855469 24.429688 55.632812 24.269531 55.558594 24.070312 C 55.480469 23.875 55.308594 23.714844 55.167969 23.714844 C 55.027344 23.714844 54.742188 23.558594 54.527344 23.363281 C 54.242188 23.105469 53.957031 23.070312 53.4375 23.226562 C 53.050781 23.339844 52.875 23.445312 53.050781 23.457031 C 53.5625 23.488281 55.269531 25.355469 55.195312 25.800781 C 55.15625 26.027344 55.195312 26.324219 55.285156 26.460938 C 55.371094 26.601562 55.34375 26.867188 55.226562 27.058594 C 55.042969 27.351562 54.855469 27.324219 53.992188 26.867188 C 53.429688 26.574219 52.792969 26.332031 52.570312 26.332031 C 52.03125 26.332031 51.78125 25.886719 52.226562 25.71875 C 52.417969 25.644531 52.640625 25.421875 52.714844 25.226562 C 52.816406 24.960938 52.730469 24.910156 52.375 25.023438 C 52.027344 25.136719 51.902344 25.066406 51.902344 24.761719 C 51.902344 24.535156 51.832031 24.417969 51.746094 24.503906 C 51.660156 24.59375 51.472656 24.566406 51.328125 24.445312 C 51.148438 24.296875 51.070312 24.488281 51.070312 25.0625 C 51.074219 25.605469 51.21875 25.972656 51.492188 26.128906 C 51.722656 26.257812 51.859375 26.441406 51.800781 26.542969 C 51.738281 26.640625 51.976562 26.679688 52.332031 26.628906 C 52.761719 26.566406 53.320312 26.769531 54.042969 27.257812 C 54.871094 27.816406 55.132812 27.902344 55.191406 27.632812 C 55.308594 27.101562 55.53125 27.199219 56.546875 28.238281 C 57.058594 28.765625 57.582031 29.160156 57.710938 29.117188 C 57.976562 29.027344 58.597656 29.605469 59.171875 30.480469 C 59.574219 31.09375 60.15625 31.355469 59.871094 30.796875 C 59.789062 30.632812 59.941406 30.75 60.214844 31.058594 C 60.484375 31.367188 60.707031 31.796875 60.703125 32.011719 C 60.699219 32.351562 60.671875 32.355469 60.46875 32.042969 C 60.265625 31.726562 60.238281 31.726562 60.214844 32.042969 C 60.203125 32.289062 60.15625 32.308594 60.074219 32.105469 C 59.882812 31.628906 58.851562 31.730469 58.890625 32.222656 C 58.910156 32.488281 58.726562 32.667969 58.386719 32.714844 C 58.09375 32.757812 57.851562 32.90625 57.851562 33.042969 C 57.851562 33.203125 57.492188 33.25 56.898438 33.167969 C 56.121094 33.066406 55.945312 33.113281 55.941406 33.4375 C 55.9375 33.652344 55.726562 34.097656 55.472656 34.425781 C 55.214844 34.753906 55.003906 35.167969 55 35.347656 C 54.996094 35.625 54.933594 35.625 54.582031 35.347656 C 54.199219 35.042969 54.203125 35.066406 54.59375 35.679688 C 55.058594 36.410156 54.976562 36.648438 53.996094 37.476562 C 53.324219 38.042969 53.105469 39.015625 53.582031 39.3125 C 53.933594 39.527344 54.316406 40.601562 54.144531 40.882812 C 53.9375 41.214844 53.3125 40.625 52.945312 39.753906 C 52.71875 39.210938 52.429688 38.96875 51.882812 38.859375 C 50.710938 38.625 50.234375 38.679688 50.234375 39.042969 C 50.234375 39.257812 50.070312 39.335938 49.769531 39.257812 C 49.230469 39.117188 47.78125 39.941406 47.261719 40.6875 C 46.800781 41.339844 46.808594 42.125 47.277344 43.117188 C 47.71875 44.039062 48.070312 44.222656 49.050781 44.027344 C 49.539062 43.929688 49.808594 43.707031 49.90625 43.320312 C 49.984375 43.007812 50.171875 42.746094 50.320312 42.738281 C 50.46875 42.726562 50.777344 42.683594 51.007812 42.640625 C 51.628906 42.519531 51.726562 42.890625 51.296875 43.722656 C 51.085938 44.132812 50.976562 44.527344 51.046875 44.601562 C 51.121094 44.675781 51.058594 44.882812 50.910156 45.0625 C 50.683594 45.335938 50.792969 45.375 51.535156 45.292969 C 53.007812 45.132812 53.300781 45.300781 53.285156 46.3125 C 53.261719 48.019531 53.816406 48.730469 54.773438 48.21875 C 55.089844 48.050781 55.378906 48.050781 55.695312 48.222656 C 56.304688 48.546875 56.335938 48.542969 56.855469 47.984375 C 57.101562 47.71875 57.507812 47.460938 57.757812 47.410156 C 58.003906 47.359375 58.414062 47.238281 58.664062 47.136719 C 58.984375 47.011719 59.066406 47.042969 58.949219 47.238281 C 58.851562 47.390625 58.890625 47.515625 59.027344 47.515625 C 59.167969 47.515625 59.28125 47.414062 59.28125 47.292969 C 59.28125 47.167969 59.566406 47.214844 59.917969 47.398438 C 60.269531 47.582031 60.660156 47.664062 60.785156 47.585938 C 60.914062 47.507812 60.949219 47.554688 60.867188 47.691406 C 60.78125 47.824219 60.953125 48 61.246094 48.082031 C 61.996094 48.28125 62.183594 48.261719 62.027344 48.007812 C 61.953125 47.886719 62.015625 47.707031 62.167969 47.613281 C 62.34375 47.507812 62.382812 47.546875 62.277344 47.714844 C 62.121094 47.972656 62.449219 48.085938 63.265625 48.054688 C 63.429688 48.050781 63.566406 48.21875 63.566406 48.433594 C 63.574219 48.980469 65.195312 50.261719 66.109375 50.441406 C 67.03125 50.625 67.847656 51.28125 67.847656 51.839844 C 67.847656 52.0625 67.960938 52.316406 68.101562 52.402344 C 68.265625 52.507812 68.207031 52.738281 67.929688 53.074219 C 67.695312 53.355469 67.65625 53.453125 67.839844 53.289062 C 68.113281 53.050781 68.460938 53.152344 69.6875 53.824219 C 70.515625 54.28125 71.390625 54.65625 71.628906 54.65625 C 71.863281 54.65625 72.246094 54.863281 72.476562 55.117188 C 72.703125 55.367188 73.042969 55.519531 73.226562 55.445312 C 73.46875 55.355469 73.558594 55.519531 73.558594 56.039062 C 73.558594 56.546875 73.246094 57.125 72.5 58 C 71.917969 58.683594 71.371094 59.574219 71.28125 59.984375 C 71.035156 61.109375 69.96875 62.46875 69.097656 62.761719 C 68.671875 62.90625 68.324219 63.171875 68.324219 63.355469 C 68.324219 63.539062 68.03125 63.878906 67.667969 64.109375 C 67.308594 64.339844 66.820312 64.769531 66.585938 65.0625 C 65.417969 66.507812 64.144531 67.523438 63.613281 67.429688 C 63.203125 67.355469 63.085938 67.433594 63.136719 67.742188 C 63.210938 68.179688 62.699219 68.9375 62.328125 68.9375 C 62.203125 68.9375 61.523438 69.4375 60.8125 70.054688 C 59.953125 70.792969 59.613281 71.226562 59.800781 71.34375 C 60.003906 71.46875 59.914062 71.667969 59.503906 72.015625 C 58.957031 72.476562 58.949219 72.527344 59.339844 72.832031 C 59.566406 73.007812 59.753906 73.210938 59.753906 73.277344 C 59.753906 73.582031 58.855469 73.589844 58.140625 73.296875 Z M 57.183594 32.359375 C 57.011719 32.289062 56.804688 32.296875 56.726562 32.375 C 56.648438 32.457031 56.789062 32.511719 57.039062 32.5 C 57.316406 32.492188 57.371094 32.433594 57.183594 32.359375 Z M 58.796875 31.277344 C 58.800781 31.183594 58.644531 31.167969 58.445312 31.246094 C 58.238281 31.324219 58.089844 31.246094 58.085938 31.058594 C 58.082031 30.796875 58.042969 30.796875 57.871094 31.070312 C 57.742188 31.273438 57.761719 31.628906 57.917969 31.976562 L 58.179688 32.546875 L 58.480469 32 C 58.648438 31.695312 58.789062 31.371094 58.796875 31.277344 Z M 51.1875 31.949219 C 51.1875 31.898438 50.941406 31.699219 50.644531 31.503906 C 50.15625 31.183594 50.046875 31.1875 49.609375 31.546875 C 49.128906 31.933594 49.144531 31.945312 50.152344 31.988281 C 50.722656 32.015625 51.1875 31.996094 51.1875 31.949219 Z M 50.613281 30.722656 C 50.183594 30.40625 50.183594 30.382812 50.59375 30.226562 C 50.828125 30.136719 51.425781 30.167969 51.914062 30.300781 C 52.671875 30.503906 52.789062 30.484375 52.671875 30.179688 C 52.582031 29.949219 52.632812 29.882812 52.8125 29.996094 C 52.964844 30.089844 53.277344 30.058594 53.507812 29.921875 C 53.886719 29.703125 53.878906 29.679688 53.417969 29.671875 C 53.03125 29.667969 52.914062 29.515625 52.914062 29.027344 C 52.914062 28.679688 52.710938 28.246094 52.464844 28.066406 C 52.222656 27.886719 52.046875 27.691406 52.078125 27.632812 C 52.246094 27.328125 52.101562 27.046875 51.78125 27.046875 C 51.585938 27.046875 51.425781 26.929688 51.425781 26.789062 C 51.425781 26.648438 51.292969 26.578125 51.128906 26.636719 C 50.964844 26.695312 50.640625 26.644531 50.40625 26.527344 C 50.082031 26.359375 49.847656 26.472656 49.375 27.035156 C 49.039062 27.433594 48.679688 27.707031 48.574219 27.644531 C 48.46875 27.578125 48.320312 27.683594 48.246094 27.878906 C 48.171875 28.070312 48.1875 28.207031 48.28125 28.179688 C 48.375 28.148438 48.75 28.425781 49.117188 28.796875 C 49.53125 29.21875 49.921875 29.414062 50.160156 29.324219 C 50.652344 29.136719 51.472656 29.394531 51.296875 29.683594 C 51.222656 29.804688 51 29.902344 50.800781 29.902344 C 50.59375 29.902344 50.515625 29.789062 50.613281 29.628906 C 50.722656 29.457031 50.679688 29.417969 50.507812 29.523438 C 50.351562 29.621094 50.289062 29.796875 50.363281 29.917969 C 50.441406 30.039062 50.386719 30.140625 50.25 30.140625 C 50.109375 30.140625 49.996094 30.035156 49.996094 29.902344 C 49.996094 29.484375 49.105469 29.648438 48.988281 30.089844 C 48.859375 30.589844 49.414062 31.222656 49.648438 30.839844 C 49.753906 30.667969 49.894531 30.667969 50.101562 30.839844 C 50.265625 30.976562 50.46875 31.019531 50.554688 30.933594 C 50.640625 30.847656 50.710938 30.917969 50.710938 31.09375 C 50.710938 31.265625 50.792969 31.328125 50.890625 31.230469 C 50.988281 31.132812 50.863281 30.90625 50.613281 30.722656 Z M 52.378906 29.441406 C 52.378906 29.316406 52.484375 29.152344 52.613281 29.070312 C 52.746094 28.988281 52.789062 29.082031 52.707031 29.296875 C 52.546875 29.707031 52.378906 29.78125 52.378906 29.441406 Z M 49.386719 28.839844 C 49.132812 28.648438 49.050781 28.484375 49.203125 28.480469 C 49.65625 28.46875 50.234375 28.746094 50.234375 28.976562 C 50.234375 29.289062 49.914062 29.234375 49.386719 28.839844 Z M 57.375 31.160156 C 57.375 31.132812 57.171875 31 56.925781 30.867188 C 56.601562 30.695312 56.402344 30.710938 56.230469 30.917969 C 56.046875 31.140625 56.160156 31.210938 56.683594 31.210938 C 57.0625 31.210938 57.375 31.1875 57.375 31.160156 Z M 53.804688 30.617188 C 53.804688 30.484375 53.636719 30.378906 53.433594 30.378906 C 53.230469 30.378906 53.128906 30.484375 53.210938 30.617188 C 53.292969 30.746094 53.457031 30.855469 53.582031 30.855469 C 53.703125 30.855469 53.804688 30.746094 53.804688 30.617188 Z M 54.636719 30.617188 C 54.558594 30.484375 54.445312 30.378906 54.386719 30.378906 C 54.328125 30.378906 54.28125 30.484375 54.28125 30.617188 C 54.28125 30.746094 54.394531 30.855469 54.535156 30.855469 C 54.671875 30.855469 54.71875 30.746094 54.636719 30.617188 Z M 46.902344 29.417969 C 46.601562 29.214844 46.648438 29.089844 47.199219 28.601562 C 47.5625 28.28125 47.855469 27.886719 47.855469 27.726562 C 47.855469 27.5625 47.703125 27.640625 47.519531 27.894531 C 47.332031 28.148438 47.101562 28.273438 47.003906 28.175781 C 46.902344 28.078125 46.949219 28 47.101562 28 C 47.253906 28 47.378906 27.835938 47.378906 27.640625 C 47.378906 27.179688 46.929688 27.179688 46.75 27.640625 C 46.675781 27.835938 46.519531 27.933594 46.398438 27.863281 C 46.277344 27.789062 46.242188 27.628906 46.316406 27.507812 C 46.394531 27.382812 46.347656 27.285156 46.21875 27.285156 C 46.085938 27.285156 45.910156 27.394531 45.828125 27.527344 C 45.746094 27.660156 45.570312 27.699219 45.433594 27.617188 C 45.273438 27.515625 45.300781 27.390625 45.507812 27.257812 C 45.773438 27.089844 45.765625 27.054688 45.476562 27.058594 C 45.023438 27.066406 43.820312 27.742188 44.238281 27.753906 C 44.410156 27.757812 44.492188 27.859375 44.417969 27.976562 C 44.34375 28.09375 44.527344 28.140625 44.820312 28.082031 L 45.355469 27.96875 L 44.808594 28.296875 L 44.257812 28.625 L 44.921875 28.925781 C 45.398438 29.144531 45.605469 29.152344 45.671875 28.960938 C 45.734375 28.765625 45.855469 28.773438 46.105469 28.980469 C 46.382812 29.210938 46.390625 29.304688 46.140625 29.460938 C 45.941406 29.589844 46.082031 29.65625 46.546875 29.65625 C 47.101562 29.65625 47.179688 29.605469 46.902344 29.417969 Z M 46 28.570312 C 45.660156 28.199219 45.890625 28.128906 46.394531 28.449219 C 46.570312 28.5625 46.625 28.707031 46.511719 28.777344 C 46.398438 28.84375 46.171875 28.75 46 28.570312 Z M 55.34375 28.511719 C 55.210938 28.367188 54.757812 28.726562 54.757812 28.972656 C 54.757812 29.101562 54.90625 29.070312 55.089844 28.902344 C 55.273438 28.730469 55.386719 28.554688 55.34375 28.511719 Z M 48.570312 28.855469 C 48.570312 28.804688 48.402344 28.699219 48.199219 28.621094 C 47.988281 28.539062 47.890625 28.582031 47.976562 28.714844 C 48.117188 28.941406 48.570312 29.050781 48.570312 28.855469 Z M 44.949219 26.441406 C 45.152344 26.261719 45.035156 26.199219 44.523438 26.210938 C 44.128906 26.222656 43.625 26.4375 43.394531 26.6875 C 42.984375 27.140625 42.988281 27.140625 43.488281 26.726562 C 44.019531 26.285156 44.453125 26.53125 44.164062 27.105469 C 44.078125 27.269531 44.160156 27.242188 44.335938 27.046875 C 44.515625 26.851562 44.792969 26.578125 44.949219 26.441406 Z M 46.902344 26.792969 C 46.902344 26.65625 46.796875 26.609375 46.664062 26.691406 C 46.535156 26.769531 46.425781 26.882812 46.425781 26.941406 C 46.425781 27 46.535156 27.046875 46.664062 27.046875 C 46.796875 27.046875 46.902344 26.933594 46.902344 26.792969 Z M 45.648438 24.976562 C 45.417969 24.917969 45.097656 24.921875 44.933594 24.984375 C 44.773438 25.050781 44.964844 25.101562 45.355469 25.097656 C 45.75 25.089844 45.878906 25.039062 45.648438 24.976562 Z M 47.503906 24.710938 C 47.429688 24.640625 47.238281 24.710938 47.078125 24.875 C 46.84375 25.109375 46.871094 25.136719 47.210938 25.007812 C 47.445312 24.917969 47.578125 24.785156 47.503906 24.710938 Z M 50.234375 24.414062 C 50.234375 24.292969 50.144531 24.191406 50.035156 24.191406 C 49.929688 24.191406 49.839844 24.347656 49.839844 24.535156 C 49.839844 24.726562 49.929688 24.828125 50.035156 24.761719 C 50.144531 24.695312 50.234375 24.539062 50.234375 24.414062 Z M 49.28125 23.949219 C 49.140625 23.683594 49.101562 23.335938 49.199219 23.175781 C 49.308594 22.988281 49.222656 23.003906 48.964844 23.214844 C 48.582031 23.523438 48.582031 23.574219 48.957031 23.988281 C 49.476562 24.5625 49.601562 24.546875 49.28125 23.949219 Z M 48.074219 24.105469 C 48.019531 24.058594 47.652344 23.949219 47.261719 23.859375 C 46.738281 23.742188 46.640625 23.765625 46.902344 23.941406 C 47.226562 24.160156 48.3125 24.3125 48.074219 24.105469 Z M 45.953125 23.453125 C 46.269531 23.230469 46.269531 23.214844 45.953125 23.308594 C 45.753906 23.363281 45.378906 23.300781 45.117188 23.167969 C 44.691406 22.949219 44.675781 22.964844 44.96875 23.316406 C 45.347656 23.78125 45.46875 23.796875 45.953125 23.453125 Z M 47.140625 23.125 C 47.140625 22.90625 47.003906 22.832031 46.765625 22.921875 C 46.460938 23.039062 46.449219 23.105469 46.703125 23.269531 C 47.128906 23.535156 47.140625 23.53125 47.140625 23.125 Z M 53.425781 23 C 54.359375 23 53.402344 22.476562 52.371094 22.425781 C 51.75 22.394531 51.253906 22.222656 51.070312 21.972656 C 50.648438 21.394531 50.472656 21.476562 50.472656 22.265625 C 50.472656 22.832031 50.554688 22.933594 50.933594 22.835938 C 51.1875 22.769531 51.640625 22.886719 51.9375 23.09375 C 52.292969 23.34375 52.558594 23.390625 52.714844 23.234375 C 52.84375 23.105469 53.164062 23 53.425781 23 Z M 48.09375 23 C 48.09375 22.871094 47.980469 22.761719 47.839844 22.761719 C 47.703125 22.761719 47.65625 22.871094 47.734375 23 C 47.816406 23.132812 47.929688 23.238281 47.988281 23.238281 C 48.046875 23.238281 48.09375 23.132812 48.09375 23 Z M 54.5625 20.695312 C 54.390625 20.625 54.1875 20.636719 54.109375 20.714844 C 54.027344 20.792969 54.167969 20.851562 54.421875 20.839844 C 54.699219 20.828125 54.753906 20.773438 54.5625 20.695312 Z M 60.875 72.832031 C 60.621094 72.578125 60.945312 72.269531 61.464844 72.269531 C 61.875 72.269531 61.90625 72.328125 61.660156 72.625 C 61.339844 73.011719 61.113281 73.070312 60.875 72.832031 Z M 35.359375 67.039062 C 34.707031 66.277344 34.128906 65.695312 34.074219 65.746094 C 34.019531 65.796875 33.722656 65.492188 33.414062 65.070312 C 32.835938 64.289062 32.035156 63.722656 31.476562 63.707031 C 31.308594 63.703125 31.230469 63.804688 31.308594 63.929688 C 31.390625 64.066406 31.160156 64.058594 30.734375 63.90625 C 30.175781 63.714844 29.855469 63.3125 29.269531 62.074219 C 28.066406 59.523438 28.050781 59.460938 28.601562 59.164062 C 28.878906 59.015625 29.035156 58.757812 28.960938 58.566406 C 28.886719 58.378906 28.933594 58.226562 29.058594 58.226562 C 29.1875 58.226562 29.289062 58.058594 29.289062 57.855469 C 29.289062 57.605469 29.46875 57.507812 29.828125 57.558594 C 30.199219 57.609375 30.363281 57.507812 30.363281 57.230469 C 30.367188 57.011719 30.445312 56.753906 30.542969 56.65625 C 30.640625 56.558594 30.71875 56.597656 30.71875 56.738281 C 30.71875 56.882812 31.039062 57.070312 31.433594 57.15625 C 31.824219 57.242188 32.148438 57.445312 32.148438 57.613281 C 32.148438 57.777344 32.441406 58.058594 32.800781 58.238281 C 33.160156 58.421875 33.515625 58.601562 33.585938 58.640625 C 33.660156 58.679688 33.675781 58.332031 33.621094 57.875 C 33.5 56.847656 33.949219 56.746094 34.171875 57.75 C 34.257812 58.144531 34.417969 58.464844 34.527344 58.464844 C 34.636719 58.464844 34.859375 58.867188 35.019531 59.355469 C 35.179688 59.847656 35.535156 60.480469 35.8125 60.761719 C 36.527344 61.496094 36.90625 61.988281 36.90625 62.183594 C 36.90625 62.277344 37.074219 62.539062 37.28125 62.769531 C 37.785156 63.320312 37.902344 65.105469 37.476562 65.710938 C 37.292969 65.972656 37.144531 66.375 37.144531 66.605469 C 37.144531 66.855469 36.902344 67.085938 36.539062 67.175781 C 35.9375 67.328125 35.9375 67.332031 36.417969 67.667969 C 36.894531 68.003906 37.085938 68.476562 36.730469 68.445312 C 36.628906 68.433594 36.015625 67.804688 35.359375 67.039062 Z M 37.226562 63.332031 C 37.148438 63.132812 37.035156 63.015625 36.972656 63.078125 C 36.910156 63.140625 36.929688 63.308594 37.015625 63.445312 C 37.25 63.828125 37.386719 63.753906 37.226562 63.332031 Z M 39.417969 68.007812 C 39.277344 67.777344 41.101562 66.796875 41.683594 66.789062 C 41.96875 66.789062 41.964844 66.75 41.667969 66.554688 C 41.386719 66.375 41.378906 66.324219 41.636719 66.320312 C 41.875 66.320312 41.925781 66.121094 41.820312 65.605469 C 41.742188 65.203125 41.78125 64.890625 41.910156 64.890625 C 42.039062 64.890625 42.144531 64.996094 42.144531 65.128906 C 42.144531 65.257812 42.367188 65.589844 42.640625 65.863281 L 43.140625 66.363281 L 42.582031 66.753906 C 42.273438 66.972656 41.972656 67.148438 41.90625 67.148438 C 41.839844 67.152344 41.449219 67.394531 41.035156 67.6875 C 40.246094 68.25 39.644531 68.367188 39.417969 68.007812 Z M 41.714844 62.226562 C 41.558594 62.066406 41.429688 61.851562 41.429688 61.75 C 41.429688 61.398438 41.789062 61.554688 42.089844 62.035156 C 42.414062 62.554688 42.171875 62.679688 41.714844 62.226562 Z M 79.152344 61.976562 C 79.25 61.679688 79.425781 60.261719 79.542969 58.820312 C 79.671875 57.269531 79.914062 55.929688 80.132812 55.535156 C 80.445312 54.976562 80.460938 54.683594 80.222656 53.699219 C 80.066406 53.046875 80.015625 52.101562 80.105469 51.570312 C 80.25 50.703125 80.21875 50.609375 79.769531 50.609375 C 79.488281 50.609375 79.273438 50.457031 79.273438 50.253906 C 79.273438 49.804688 78.816406 49.808594 78.214844 50.261719 C 77.960938 50.453125 77.5625 50.550781 77.332031 50.480469 C 77.101562 50.40625 76.703125 50.457031 76.449219 50.589844 C 75.855469 50.910156 74.828125 50.140625 74.363281 49.023438 C 74.179688 48.589844 73.898438 48.257812 73.734375 48.289062 C 73.527344 48.332031 73.441406 47.898438 73.441406 46.765625 C 73.441406 45.894531 73.527344 45.234375 73.628906 45.296875 C 73.730469 45.359375 73.792969 45.054688 73.765625 44.621094 C 73.738281 44.183594 73.921875 43.453125 74.171875 42.992188 C 74.421875 42.535156 74.628906 42 74.628906 41.804688 C 74.632812 41.605469 74.738281 41.460938 74.871094 41.480469 C 75.199219 41.527344 76.476562 40.59375 76.3125 40.429688 C 76.238281 40.355469 76.355469 40.097656 76.570312 39.859375 C 76.789062 39.621094 76.882812 39.421875 76.78125 39.421875 C 76.679688 39.421875 76.742188 39.234375 76.921875 39.007812 C 77.21875 38.628906 77.210938 38.621094 76.832031 38.917969 C 76.605469 39.097656 76.402344 39.175781 76.386719 39.09375 C 76.371094 39.015625 76.339844 38.8125 76.320312 38.648438 C 76.304688 38.484375 76.085938 38.386719 75.839844 38.429688 C 75.445312 38.5 75.417969 38.40625 75.570312 37.597656 C 75.667969 37.097656 75.734375 36.433594 75.722656 36.125 C 75.691406 35.253906 75.910156 35.113281 76.667969 35.503906 C 77.320312 35.839844 77.367188 35.835938 77.367188 35.429688 C 77.367188 35.191406 77.101562 34.628906 76.773438 34.1875 C 76.066406 33.226562 76.0625 33.214844 76.59375 33.382812 C 76.972656 33.5 76.976562 33.480469 76.632812 33.195312 C 76.21875 32.851562 76.191406 32.785156 76.152344 31.984375 C 76.128906 31.582031 76.097656 31.554688 76.015625 31.867188 C 75.953125 32.09375 75.765625 32.28125 75.59375 32.28125 C 75.15625 32.28125 74.945312 31.332031 75.347656 31.175781 C 75.527344 31.109375 75.613281 30.902344 75.542969 30.714844 C 75.449219 30.464844 75.527344 30.417969 75.835938 30.535156 C 76.167969 30.664062 76.226562 30.609375 76.105469 30.289062 C 76.003906 30.03125 76.039062 29.9375 76.199219 30.035156 C 76.335938 30.117188 76.390625 30.347656 76.316406 30.539062 C 76.242188 30.730469 76.445312 31.359375 76.769531 31.9375 C 77.089844 32.519531 77.300781 33.179688 77.234375 33.410156 C 77.167969 33.648438 77.234375 33.605469 77.390625 33.308594 C 77.617188 32.882812 77.574219 32.640625 77.132812 31.929688 C 76.839844 31.457031 76.648438 31.023438 76.703125 30.964844 C 76.84375 30.824219 78.230469 32.816406 78.429688 33.445312 C 78.519531 33.722656 78.667969 33.949219 78.765625 33.949219 C 79.128906 33.949219 81.652344 39.566406 81.652344 40.378906 C 81.652344 40.585938 81.480469 40.519531 81.167969 40.183594 C 80.730469 39.714844 80.226562 39.492188 80.226562 39.765625 C 80.226562 39.929688 81.214844 41.566406 81.3125 41.566406 C 81.359375 41.566406 81.332031 41.390625 81.25 41.175781 C 81.128906 40.855469 81.179688 40.828125 81.539062 41.03125 C 81.777344 41.164062 81.996094 41.472656 82.023438 41.71875 C 82.046875 41.960938 82.136719 42.480469 82.21875 42.875 C 82.304688 43.265625 82.527344 44.683594 82.71875 46.023438 C 83.097656 48.65625 82.910156 52.050781 82.226562 55.0625 C 82.042969 55.875 81.890625 56.890625 81.890625 57.324219 C 81.886719 58.636719 81.421875 59.933594 80.910156 60.070312 C 80.652344 60.136719 80.175781 60.714844 79.851562 61.351562 C 79.242188 62.554688 78.851562 62.902344 79.152344 61.972656 Z M 80.746094 39.132812 C 80.574219 38.964844 80.460938 38.949219 80.460938 39.097656 C 80.460938 39.414062 80.746094 39.699219 80.902344 39.539062 C 80.972656 39.472656 80.898438 39.289062 80.746094 39.132812 Z M 80.117188 39.125 C 79.917969 38.21875 79.105469 36.808594 78.777344 36.808594 C 78.34375 36.804688 77.738281 37.800781 77.894531 38.265625 C 77.953125 38.4375 78.207031 38.589844 78.457031 38.605469 C 79.695312 38.667969 79.984375 38.722656 79.957031 38.886719 C 79.914062 39.164062 79.976562 39.421875 80.085938 39.421875 C 80.136719 39.421875 80.152344 39.289062 80.117188 39.125 Z M 46.664062 60.945312 C 46.664062 60.738281 46.792969 60.609375 46.949219 60.660156 C 47.390625 60.808594 47.460938 61.320312 47.042969 61.320312 C 46.835938 61.320312 46.664062 61.152344 46.664062 60.945312 Z M 47.5 60.609375 C 47.417969 60.476562 47.519531 60.367188 47.722656 60.367188 C 48.140625 60.367188 48.203125 60.511719 47.871094 60.714844 C 47.75 60.789062 47.582031 60.742188 47.5 60.609375 Z M 42.519531 59.976562 C 42.320312 59.457031 42.585938 59.21875 42.867188 59.660156 C 43.148438 60.105469 43.152344 60.367188 42.882812 60.367188 C 42.765625 60.367188 42.601562 60.191406 42.519531 59.976562 Z M 40.476562 57.519531 C 40.476562 57.394531 40.316406 57.351562 40.121094 57.425781 C 39.6875 57.59375 39.648438 57.191406 40.0625 56.84375 C 40.285156 56.660156 40.433594 56.746094 40.636719 57.171875 C 40.785156 57.492188 40.8125 57.75 40.691406 57.75 C 40.574219 57.75 40.476562 57.648438 40.476562 57.519531 Z M 35.832031 57.214844 C 35.570312 57.070312 35.21875 56.757812 35.046875 56.519531 C 34.71875 56.054688 34.050781 55.925781 34.050781 56.324219 C 34.050781 56.453125 33.835938 56.5625 33.574219 56.5625 C 33.3125 56.5625 33.097656 56.453125 33.097656 56.324219 C 33.097656 56.191406 32.882812 56.085938 32.621094 56.085938 C 32.359375 56.085938 32.144531 55.976562 32.144531 55.847656 C 32.144531 55.714844 32.253906 55.609375 32.386719 55.609375 C 32.855469 55.609375 32.058594 54.703125 31.25 54.316406 C 30.707031 54.058594 30.480469 53.8125 30.570312 53.578125 C 30.648438 53.371094 30.566406 53.226562 30.363281 53.226562 C 30.15625 53.226562 30.074219 53.371094 30.15625 53.585938 C 30.257812 53.84375 30.128906 53.941406 29.6875 53.941406 C 29.351562 53.941406 29.015625 53.835938 28.933594 53.703125 C 28.851562 53.574219 29.007812 53.464844 29.277344 53.464844 C 29.546875 53.464844 29.78125 53.359375 29.796875 53.226562 C 29.8125 53.097656 29.839844 52.890625 29.855469 52.773438 C 29.902344 52.417969 30.242188 52.171875 30.242188 52.488281 C 30.242188 52.648438 30.335938 52.722656 30.453125 52.648438 C 30.570312 52.578125 30.796875 52.679688 30.957031 52.875 C 31.121094 53.070312 31.164062 53.226562 31.058594 53.226562 C 30.949219 53.226562 30.984375 53.351562 31.136719 53.503906 C 31.34375 53.710938 31.496094 53.710938 31.761719 53.492188 C 32.039062 53.257812 32.339844 53.316406 33.273438 53.792969 C 33.914062 54.117188 34.578125 54.550781 34.75 54.757812 C 34.921875 54.964844 35.355469 55.132812 35.714844 55.132812 C 36.378906 55.132812 37.035156 54.625 36.746094 54.335938 C 36.660156 54.25 36.707031 54.179688 36.851562 54.179688 C 37.359375 54.179688 37.402344 54.65625 36.941406 55.152344 C 36.625 55.488281 36.316406 55.605469 35.996094 55.503906 C 35.164062 55.238281 35.113281 55.878906 35.910156 56.589844 C 36.6875 57.285156 36.640625 57.660156 35.832031 57.214844 Z M 38.664062 56.515625 C 38.554688 56.335938 38.621094 56.289062 38.863281 56.382812 C 39.0625 56.460938 39.335938 56.414062 39.46875 56.285156 C 39.628906 56.121094 39.761719 56.128906 39.867188 56.300781 C 39.957031 56.445312 39.996094 56.570312 39.957031 56.578125 C 39.199219 56.761719 38.804688 56.742188 38.664062 56.515625 Z M 27.949219 55.808594 C 27.835938 55.628906 27.453125 55.292969 27.097656 55.066406 C 26.1875 54.488281 25.847656 53.796875 26.371094 53.597656 C 26.59375 53.511719 26.699219 53.519531 26.605469 53.613281 C 26.363281 53.855469 27.15625 54.679688 27.453125 54.496094 C 27.589844 54.410156 27.625 54.460938 27.53125 54.613281 C 27.433594 54.773438 27.605469 54.941406 27.972656 55.03125 C 28.625 55.195312 28.679688 55.3125 28.363281 55.816406 C 28.1875 56.089844 28.125 56.089844 27.949219 55.808594 Z M 28.722656 55.746094 C 28.792969 55.558594 29.015625 55.34375 29.214844 55.265625 C 29.476562 55.167969 29.539062 55.234375 29.4375 55.507812 C 29.355469 55.714844 29.289062 55.929688 29.289062 55.984375 C 29.289062 56.039062 29.132812 56.085938 28.941406 56.085938 C 28.734375 56.085938 28.644531 55.945312 28.722656 55.746094 Z M 37.859375 55.609375 C 37.539062 55.007812 37.804688 55.007812 38.574219 55.609375 C 39.160156 56.070312 39.164062 56.074219 38.640625 56.078125 C 38.351562 56.082031 38 55.871094 37.859375 55.609375 Z M 30.242188 55.503906 C 30.242188 55.445312 30.347656 55.332031 30.480469 55.25 C 30.609375 55.171875 30.71875 55.21875 30.71875 55.355469 C 30.71875 55.496094 30.609375 55.609375 30.480469 55.609375 C 30.347656 55.609375 30.242188 55.5625 30.242188 55.503906 Z M 31.09375 55.164062 C 30.992188 55 30.972656 54.796875 31.050781 54.71875 C 31.265625 54.507812 31.496094 54.820312 31.382812 55.164062 C 31.300781 55.40625 31.246094 55.40625 31.09375 55.164062 Z M 27.785156 54.261719 C 27.695312 54.175781 27.613281 53.609375 27.597656 53.011719 C 27.574219 52.089844 27.542969 52.03125 27.417969 52.621094 C 27.335938 53.003906 27.1875 53.300781 27.089844 53.273438 C 26.992188 53.25 26.816406 53.226562 26.699219 53.226562 C 26.214844 53.226562 26.1875 51.601562 26.652344 50.457031 C 27.109375 49.332031 27.171875 49.347656 27.269531 50.632812 C 27.335938 51.546875 27.613281 51.859375 28.246094 51.738281 C 28.621094 51.664062 28.8125 51.738281 28.8125 51.953125 C 28.8125 52.128906 28.574219 52.28125 28.277344 52.292969 L 27.742188 52.304688 L 28.277344 52.523438 C 28.574219 52.640625 28.8125 52.875 28.8125 53.042969 C 28.808594 53.277344 28.761719 53.273438 28.601562 53.023438 C 28.488281 52.847656 28.335938 52.796875 28.265625 52.917969 C 28.191406 53.035156 28.230469 53.289062 28.351562 53.476562 C 28.46875 53.667969 28.5625 53.984375 28.554688 54.179688 C 28.542969 54.460938 28.511719 54.46875 28.410156 54.214844 C 28.320312 53.984375 28.230469 53.96875 28.113281 54.15625 C 28.023438 54.304688 27.875 54.351562 27.785156 54.261719 Z M 51.464844 53.464844 C 51.585938 53.105469 51.96875 53.070312 52.082031 53.40625 C 52.136719 53.570312 52 53.703125 51.78125 53.703125 C 51.566406 53.703125 51.421875 53.597656 51.464844 53.464844 Z M 31.453125 53.128906 C 31.441406 52.878906 31.496094 52.738281 31.578125 52.816406 C 31.65625 52.894531 31.664062 53.101562 31.59375 53.273438 C 31.519531 53.464844 31.464844 53.40625 31.453125 53.128906 Z M 25.585938 51.742188 C 25.3125 49.511719 25.308594 49.410156 25.492188 49.296875 C 25.585938 49.238281 25.734375 49.859375 25.824219 50.675781 C 25.914062 51.488281 26.046875 52.398438 26.117188 52.691406 C 26.191406 52.988281 26.140625 53.226562 26.007812 53.226562 C 25.875 53.226562 25.6875 52.558594 25.585938 51.742188 Z M 29.273438 53.167969 C 29.09375 52.566406 29.097656 51.917969 29.28125 51.601562 C 29.460938 51.300781 29.515625 51.445312 29.523438 52.21875 C 29.527344 52.773438 29.476562 53.226562 29.410156 53.226562 C 29.34375 53.226562 29.28125 53.203125 29.273438 53.167969 Z M 40 51.199219 C 40 51 39.734375 50.714844 39.40625 50.566406 C 38.886719 50.332031 38.582031 49.894531 38.933594 49.894531 C 39.152344 49.894531 40.117188 50.484375 40.296875 50.730469 C 40.550781 51.074219 40.515625 51.5625 40.238281 51.5625 C 40.109375 51.5625 40 51.398438 40 51.199219 Z M 28.101562 49.660156 C 27.929688 49.335938 27.925781 49.183594 28.09375 49.183594 C 28.226562 49.183594 28.339844 49.015625 28.339844 48.8125 C 28.339844 48.605469 28.445312 48.507812 28.578125 48.585938 C 28.882812 48.777344 28.890625 50.132812 28.585938 50.132812 C 28.460938 50.132812 28.242188 49.921875 28.101562 49.660156 Z M 26.914062 48.898438 C 26.917969 48.726562 27.023438 48.425781 27.148438 48.230469 C 27.335938 47.941406 27.378906 47.972656 27.382812 48.394531 C 27.386719 48.679688 27.28125 48.980469 27.148438 49.0625 C 27.019531 49.144531 26.914062 49.070312 26.914062 48.898438 Z M 25.453125 48.171875 C 25.359375 45.796875 26.199219 40.351562 26.6875 40.175781 C 26.8125 40.132812 26.910156 39.859375 26.910156 39.5625 C 26.910156 38.917969 28.019531 36.097656 28.445312 35.65625 C 28.699219 35.394531 28.777344 35.40625 28.898438 35.730469 C 28.992188 35.976562 28.953125 36.058594 28.785156 35.957031 C 28.613281 35.847656 28.578125 35.957031 28.679688 36.28125 C 28.785156 36.609375 28.679688 36.914062 28.363281 37.207031 C 27.863281 37.671875 27.386719 38.726562 27.386719 39.367188 C 27.386719 39.6875 27.445312 39.675781 27.738281 39.289062 C 27.929688 39.035156 28.089844 38.535156 28.09375 38.175781 C 28.097656 37.8125 28.207031 37.519531 28.339844 37.519531 C 28.769531 37.519531 28.585938 39.152344 28.042969 40.191406 C 27.582031 41.0625 27.496094 41.132812 27.429688 40.671875 C 27.386719 40.378906 27.265625 40.136719 27.160156 40.136719 C 26.695312 40.136719 26.46875 43.078125 26.910156 43.351562 C 27.308594 43.597656 27.203125 44.492188 26.796875 44.335938 C 26.269531 44.136719 26.027344 44.824219 26.007812 46.5625 C 25.980469 48.914062 25.976562 48.945312 25.722656 48.945312 C 25.589844 48.945312 25.46875 48.597656 25.453125 48.171875 Z M 27.679688 48.132812 C 27.753906 47.75 27.691406 47.597656 27.5 47.671875 C 27.125 47.816406 26.796875 45.871094 27.140625 45.527344 C 27.3125 45.355469 27.386719 45.492188 27.386719 45.96875 C 27.386719 46.390625 27.632812 46.914062 28.019531 47.316406 C 28.546875 47.867188 28.597656 48.035156 28.347656 48.339844 C 27.890625 48.886719 27.554688 48.78125 27.679688 48.132812 Z M 55.664062 44.136719 C 55.886719 43.914062 56.011719 43.914062 56.234375 44.136719 C 56.457031 44.359375 56.394531 44.421875 55.949219 44.421875 C 55.503906 44.421875 55.441406 44.359375 55.664062 44.136719 Z M 57.140625 44.171875 C 57.140625 44.019531 57.289062 43.953125 57.476562 44.023438 C 57.660156 44.09375 57.875 43.992188 57.949219 43.796875 C 58.035156 43.582031 58.207031 43.511719 58.386719 43.625 C 58.550781 43.726562 58.917969 43.78125 59.199219 43.746094 C 59.480469 43.710938 59.78125 43.792969 59.867188 43.933594 C 59.953125 44.074219 59.832031 44.191406 59.59375 44.199219 C 59.355469 44.207031 58.707031 44.265625 58.148438 44.328125 C 57.476562 44.40625 57.140625 44.355469 57.140625 44.171875 Z M 60.421875 44.136719 C 60.644531 43.914062 60.773438 43.914062 60.996094 44.136719 C 61.214844 44.359375 61.152344 44.421875 60.707031 44.421875 C 60.265625 44.421875 60.203125 44.359375 60.421875 44.136719 Z M 54.929688 42.855469 C 54.570312 42.65625 54.148438 42.570312 54.003906 42.664062 C 53.835938 42.765625 53.800781 42.722656 53.902344 42.554688 C 54.011719 42.378906 53.890625 42.28125 53.570312 42.28125 C 53.292969 42.28125 53.117188 42.363281 53.179688 42.46875 C 53.242188 42.570312 53.089844 42.652344 52.835938 42.652344 C 52.203125 42.652344 52.261719 42.324219 52.953125 42.007812 C 53.414062 41.796875 53.804688 41.855469 54.972656 42.308594 C 56.398438 42.863281 56.828125 43.242188 56.007812 43.222656 C 55.777344 43.21875 55.292969 43.050781 54.929688 42.855469 Z M 76.179688 39.675781 C 76.179688 39.539062 76.289062 39.425781 76.417969 39.425781 C 76.550781 39.425781 76.65625 39.472656 76.65625 39.527344 C 76.65625 39.585938 76.550781 39.699219 76.417969 39.78125 C 76.289062 39.863281 76.179688 39.816406 76.179688 39.675781 Z M 76.65625 35.273438 C 76.65625 35.214844 76.761719 35.101562 76.894531 35.019531 C 77.023438 34.941406 77.132812 34.988281 77.132812 35.125 C 77.132812 35.265625 77.023438 35.378906 76.894531 35.378906 C 76.761719 35.378906 76.65625 35.332031 76.65625 35.273438 Z M 29.53125 34.097656 C 29.53125 33.898438 29.636719 33.671875 29.769531 33.59375 C 29.898438 33.511719 30.007812 33.605469 30.007812 33.800781 C 30.007812 34 29.898438 34.226562 29.769531 34.308594 C 29.636719 34.386719 29.53125 34.292969 29.53125 34.097656 Z M 30.480469 34.082031 C 30.480469 34.023438 30.589844 33.910156 30.71875 33.832031 C 30.851562 33.75 30.957031 33.796875 30.957031 33.9375 C 30.957031 34.074219 30.851562 34.1875 30.71875 34.1875 C 30.589844 34.1875 30.480469 34.140625 30.480469 34.082031 Z M 31.910156 32.773438 C 31.910156 32.636719 32.015625 32.523438 32.148438 32.523438 C 32.277344 32.523438 32.386719 32.570312 32.386719 32.625 C 32.386719 32.683594 32.277344 32.796875 32.148438 32.878906 C 32.015625 32.960938 31.910156 32.914062 31.910156 32.773438 Z M 32.261719 30.609375 C 32.179688 30.476562 31.988281 30.449219 31.835938 30.539062 C 31.675781 30.636719 31.695312 30.535156 31.878906 30.304688 C 32.21875 29.886719 32.984375 29.761719 33.191406 30.09375 C 33.253906 30.199219 33.105469 30.410156 32.859375 30.566406 C 32.566406 30.746094 32.355469 30.761719 32.261719 30.609375 Z M 63.730469 27.257812 C 63.492188 27.121094 63.140625 27.070312 62.945312 27.144531 C 62.742188 27.21875 62.652344 27.175781 62.734375 27.042969 C 62.8125 26.914062 62.75 26.808594 62.589844 26.808594 C 62.058594 26.808594 62.597656 26.496094 63.242188 26.425781 C 63.984375 26.347656 65.308594 26.964844 65.105469 27.296875 C 64.921875 27.59375 64.273438 27.574219 63.730469 27.257812 Z M 63.730469 27.257812 " clip-rule="nonzero"/></clipPath><radialGradient gradientTransform="matrix(1.003029, 0, 0, 0.996971, -25.20986, -7.464495)" gradientUnits="userSpaceOnUse" r="66.666008" cx="58.754346" id="8b53b7ccfe" cy="39.451215" fx="58.754346" fy="39.451215"><stop stop-opacity="1" stop-color="rgb(100%, 100%, 100%)" offset="0"/><stop stop-opacity="1" stop-color="rgb(100%, 100%, 100%)" offset="1"/></radialGradient></defs><g clip-path="url(#1f2159286c)"><path fill="#c5ddff" d="M 54.164062 0 C 27.292969 0 5.472656 21.820312 5.472656 48.730469 C 5.472656 57.265625 7.640625 65.246094 11.5 72.25 C 11.585938 72.375 11.628906 72.503906 11.714844 72.671875 L 16.554688 79.71875 L 16.59375 79.761719 L 54.757812 135.839844 L 92.410156 78.957031 C 98.988281 70.636719 102.9375 60.152344 102.9375 48.730469 C 102.9375 21.820312 81.074219 0 54.164062 0 Z M 25.210938 48.730469 C 25.210938 32.726562 38.203125 19.78125 54.164062 19.78125 C 70.167969 19.78125 83.15625 32.726562 83.15625 48.730469 C 83.15625 58.621094 78.191406 67.324219 70.632812 72.546875 C 65.964844 75.773438 60.320312 77.640625 54.207031 77.640625 C 48.007812 77.640625 42.191406 75.6875 37.523438 72.332031 C 30.09375 67.113281 25.210938 58.539062 25.210938 48.730469 Z M 25.210938 48.730469 " fill-opacity="1" fill-rule="nonzero"/></g><g clip-path="url(#f785786b85)"><g clip-path="url(#2192ce00f9)"><path fill="url(#8b53b7ccfe)" d="M 25.308594 20.054688 L 25.308594 77.507812 L 83.097656 77.507812 L 83.097656 20.054688 Z M 25.308594 20.054688 " fill-rule="nonzero"/></g></g><g fill="#ffffff" fill-opacity="1"><g transform="translate(90.520532, 132.555841)"><g><path d="M 7.203125 -4.15625 L 8.046875 -4.15625 L 8.046875 -0.984375 C 7.660156 -0.640625 7.203125 -0.375 6.671875 -0.1875 C 6.140625 -0.0078125 5.582031 0.078125 5 0.078125 C 4.164062 0.078125 3.414062 -0.101562 2.75 -0.46875 C 2.082031 -0.832031 1.5625 -1.335938 1.1875 -1.984375 C 0.8125 -2.628906 0.625 -3.351562 0.625 -4.15625 C 0.625 -4.957031 0.8125 -5.679688 1.1875 -6.328125 C 1.5625 -6.972656 2.082031 -7.476562 2.75 -7.84375 C 3.414062 -8.207031 4.171875 -8.390625 5.015625 -8.390625 C 5.648438 -8.390625 6.226562 -8.285156 6.75 -8.078125 C 7.28125 -7.878906 7.726562 -7.582031 8.09375 -7.1875 L 7.546875 -6.625 C 6.890625 -7.269531 6.054688 -7.59375 5.046875 -7.59375 C 4.367188 -7.59375 3.757812 -7.441406 3.21875 -7.140625 C 2.675781 -6.847656 2.25 -6.4375 1.9375 -5.90625 C 1.632812 -5.382812 1.484375 -4.800781 1.484375 -4.15625 C 1.484375 -3.507812 1.632812 -2.921875 1.9375 -2.390625 C 2.25 -1.867188 2.675781 -1.457031 3.21875 -1.15625 C 3.757812 -0.863281 4.363281 -0.71875 5.03125 -0.71875 C 5.882812 -0.71875 6.609375 -0.929688 7.203125 -1.359375 Z M 7.203125 -4.15625 "/></g></g></g><g fill="#ffffff" fill-opacity="1"><g transform="translate(102.779161, 132.555841)"><g><path d="M 7.234375 -0.765625 L 7.234375 0 L 1.359375 0 L 1.359375 -8.3125 L 7.046875 -8.3125 L 7.046875 -7.546875 L 2.234375 -7.546875 L 2.234375 -4.59375 L 6.53125 -4.59375 L 6.53125 -3.84375 L 2.234375 -3.84375 L 2.234375 -0.765625 Z M 7.234375 -0.765625 "/></g></g></g><g fill="#ffffff" fill-opacity="1"><g transform="translate(113.803701, 132.555841)"><g><path d="M 4.984375 0.078125 C 4.160156 0.078125 3.414062 -0.101562 2.75 -0.46875 C 2.082031 -0.84375 1.5625 -1.347656 1.1875 -1.984375 C 0.8125 -2.628906 0.625 -3.351562 0.625 -4.15625 C 0.625 -4.957031 0.8125 -5.675781 1.1875 -6.3125 C 1.5625 -6.957031 2.082031 -7.460938 2.75 -7.828125 C 3.414062 -8.203125 4.160156 -8.390625 4.984375 -8.390625 C 5.804688 -8.390625 6.546875 -8.207031 7.203125 -7.84375 C 7.867188 -7.476562 8.390625 -6.972656 8.765625 -6.328125 C 9.148438 -5.679688 9.34375 -4.957031 9.34375 -4.15625 C 9.34375 -3.351562 9.148438 -2.628906 8.765625 -1.984375 C 8.390625 -1.335938 7.867188 -0.832031 7.203125 -0.46875 C 6.546875 -0.101562 5.804688 0.078125 4.984375 0.078125 Z M 4.984375 -0.71875 C 5.640625 -0.71875 6.234375 -0.863281 6.765625 -1.15625 C 7.296875 -1.457031 7.710938 -1.867188 8.015625 -2.390625 C 8.316406 -2.921875 8.46875 -3.507812 8.46875 -4.15625 C 8.46875 -4.800781 8.316406 -5.382812 8.015625 -5.90625 C 7.710938 -6.4375 7.296875 -6.847656 6.765625 -7.140625 C 6.234375 -7.441406 5.640625 -7.59375 4.984375 -7.59375 C 4.328125 -7.59375 3.734375 -7.441406 3.203125 -7.140625 C 2.671875 -6.847656 2.25 -6.4375 1.9375 -5.90625 C 1.632812 -5.382812 1.484375 -4.800781 1.484375 -4.15625 C 1.484375 -3.507812 1.632812 -2.921875 1.9375 -2.390625 C 2.25 -1.867188 2.671875 -1.457031 3.203125 -1.15625 C 3.734375 -0.863281 4.328125 -0.71875 4.984375 -0.71875 Z M 4.984375 -0.71875 "/></g></g></g><g fill="#ffffff" fill-opacity="1"><g transform="translate(126.845508, 132.555841)"><g><path d="M 1.359375 -8.3125 L 2.234375 -8.3125 L 2.234375 -0.765625 L 6.890625 -0.765625 L 6.890625 0 L 1.359375 0 Z M 1.359375 -8.3125 "/></g></g></g><g fill="#ffffff" fill-opacity="1"><g transform="translate(136.920743, 132.555841)"><g><path d="M 4.984375 0.078125 C 4.160156 0.078125 3.414062 -0.101562 2.75 -0.46875 C 2.082031 -0.84375 1.5625 -1.347656 1.1875 -1.984375 C 0.8125 -2.628906 0.625 -3.351562 0.625 -4.15625 C 0.625 -4.957031 0.8125 -5.675781 1.1875 -6.3125 C 1.5625 -6.957031 2.082031 -7.460938 2.75 -7.828125 C 3.414062 -8.203125 4.160156 -8.390625 4.984375 -8.390625 C 5.804688 -8.390625 6.546875 -8.207031 7.203125 -7.84375 C 7.867188 -7.476562 8.390625 -6.972656 8.765625 -6.328125 C 9.148438 -5.679688 9.34375 -4.957031 9.34375 -4.15625 C 9.34375 -3.351562 9.148438 -2.628906 8.765625 -1.984375 C 8.390625 -1.335938 7.867188 -0.832031 7.203125 -0.46875 C 6.546875 -0.101562 5.804688 0.078125 4.984375 0.078125 Z M 4.984375 -0.71875 C 5.640625 -0.71875 6.234375 -0.863281 6.765625 -1.15625 C 7.296875 -1.457031 7.710938 -1.867188 8.015625 -2.390625 C 8.316406 -2.921875 8.46875 -3.507812 8.46875 -4.15625 C 8.46875 -4.800781 8.316406 -5.382812 8.015625 -5.90625 C 7.710938 -6.4375 7.296875 -6.847656 6.765625 -7.140625 C 6.234375 -7.441406 5.640625 -7.59375 4.984375 -7.59375 C 4.328125 -7.59375 3.734375 -7.441406 3.203125 -7.140625 C 2.671875 -6.847656 2.25 -6.4375 1.9375 -5.90625 C 1.632812 -5.382812 1.484375 -4.800781 1.484375 -4.15625 C 1.484375 -3.507812 1.632812 -2.921875 1.9375 -2.390625 C 2.25 -1.867188 2.671875 -1.457031 3.203125 -1.15625 C 3.734375 -0.863281 4.328125 -0.71875 4.984375 -0.71875 Z M 4.984375 -0.71875 "/></g></g></g><g fill="#ffffff" fill-opacity="1"><g transform="translate(149.962546, 132.555841)"><g><path d="M 4.96875 0.078125 C 4.144531 0.078125 3.398438 -0.101562 2.734375 -0.46875 C 2.078125 -0.832031 1.5625 -1.335938 1.1875 -1.984375 C 0.8125 -2.628906 0.625 -3.351562 0.625 -4.15625 C 0.625 -4.957031 0.8125 -5.679688 1.1875 -6.328125 C 1.5625 -6.972656 2.078125 -7.476562 2.734375 -7.84375 C 3.398438 -8.207031 4.144531 -8.390625 4.96875 -8.390625 C 5.59375 -8.390625 6.164062 -8.285156 6.6875 -8.078125 C 7.207031 -7.867188 7.648438 -7.566406 8.015625 -7.171875 L 7.453125 -6.609375 C 6.804688 -7.265625 5.988281 -7.59375 5 -7.59375 C 4.34375 -7.59375 3.742188 -7.441406 3.203125 -7.140625 C 2.671875 -6.847656 2.25 -6.4375 1.9375 -5.90625 C 1.632812 -5.382812 1.484375 -4.800781 1.484375 -4.15625 C 1.484375 -3.507812 1.632812 -2.921875 1.9375 -2.390625 C 2.25 -1.867188 2.671875 -1.457031 3.203125 -1.15625 C 3.742188 -0.863281 4.34375 -0.71875 5 -0.71875 C 6 -0.71875 6.816406 -1.046875 7.453125 -1.703125 L 8.015625 -1.15625 C 7.648438 -0.757812 7.203125 -0.453125 6.671875 -0.234375 C 6.148438 -0.0234375 5.582031 0.078125 4.96875 0.078125 Z M 4.96875 0.078125 "/></g></g></g><g fill="#ffffff" fill-opacity="1"><g transform="translate(161.580401, 132.555841)"><g><path d="M 6.5625 -2.21875 L 1.9375 -2.21875 L 0.9375 0 L 0.03125 0 L 3.828125 -8.3125 L 4.6875 -8.3125 L 8.484375 0 L 7.5625 0 Z M 6.25 -2.9375 L 4.25 -7.390625 L 2.25 -2.9375 Z M 6.25 -2.9375 "/></g></g></g><g fill="#ffffff" fill-opacity="1"><g transform="translate(173.174522, 132.555841)"><g><path d="M 2.96875 -7.546875 L 0.046875 -7.546875 L 0.046875 -8.3125 L 6.765625 -8.3125 L 6.765625 -7.546875 L 3.84375 -7.546875 L 3.84375 0 L 2.96875 0 Z M 2.96875 -7.546875 "/></g></g></g><g fill="#ffffff" fill-opacity="1"><g transform="translate(183.071757, 132.555841)"><g><path d="M 1.359375 -8.3125 L 2.234375 -8.3125 L 2.234375 0 L 1.359375 0 Z M 1.359375 -8.3125 "/></g></g></g><g fill="#ffffff" fill-opacity="1"><g transform="translate(189.741361, 132.555841)"><g><path d="M 4.984375 0.078125 C 4.160156 0.078125 3.414062 -0.101562 2.75 -0.46875 C 2.082031 -0.84375 1.5625 -1.347656 1.1875 -1.984375 C 0.8125 -2.628906 0.625 -3.351562 0.625 -4.15625 C 0.625 -4.957031 0.8125 -5.675781 1.1875 -6.3125 C 1.5625 -6.957031 2.082031 -7.460938 2.75 -7.828125 C 3.414062 -8.203125 4.160156 -8.390625 4.984375 -8.390625 C 5.804688 -8.390625 6.546875 -8.207031 7.203125 -7.84375 C 7.867188 -7.476562 8.390625 -6.972656 8.765625 -6.328125 C 9.148438 -5.679688 9.34375 -4.957031 9.34375 -4.15625 C 9.34375 -3.351562 9.148438 -2.628906 8.765625 -1.984375 C 8.390625 -1.335938 7.867188 -0.832031 7.203125 -0.46875 C 6.546875 -0.101562 5.804688 0.078125 4.984375 0.078125 Z M 4.984375 -0.71875 C 5.640625 -0.71875 6.234375 -0.863281 6.765625 -1.15625 C 7.296875 -1.457031 7.710938 -1.867188 8.015625 -2.390625 C 8.316406 -2.921875 8.46875 -3.507812 8.46875 -4.15625 C 8.46875 -4.800781 8.316406 -5.382812 8.015625 -5.90625 C 7.710938 -6.4375 7.296875 -6.847656 6.765625 -7.140625 C 6.234375 -7.441406 5.640625 -7.59375 4.984375 -7.59375 C 4.328125 -7.59375 3.734375 -7.441406 3.203125 -7.140625 C 2.671875 -6.847656 2.25 -6.4375 1.9375 -5.90625 C 1.632812 -5.382812 1.484375 -4.800781 1.484375 -4.15625 C 1.484375 -3.507812 1.632812 -2.921875 1.9375 -2.390625 C 2.25 -1.867188 2.671875 -1.457031 3.203125 -1.15625 C 3.734375 -0.863281 4.328125 -0.71875 4.984375 -0.71875 Z M 4.984375 -0.71875 "/></g></g></g><g fill="#ffffff" fill-opacity="1"><g transform="translate(202.783171, 132.555841)"><g><path d="M 8.296875 -8.3125 L 8.296875 0 L 7.578125 0 L 2.234375 -6.75 L 2.234375 0 L 1.359375 0 L 1.359375 -8.3125 L 2.078125 -8.3125 L 7.4375 -1.5625 L 7.4375 -8.3125 Z M 8.296875 -8.3125 "/></g></g></g><g fill="#ffffff" fill-opacity="1"><g transform="translate(215.516462, 132.555841)"><g/></g></g><g fill="#ffffff" fill-opacity="1"><g transform="translate(221.711425, 132.555841)"><g><path d="M 6.5625 -2.21875 L 1.9375 -2.21875 L 0.9375 0 L 0.03125 0 L 3.828125 -8.3125 L 4.6875 -8.3125 L 8.484375 0 L 7.5625 0 Z M 6.25 -2.9375 L 4.25 -7.390625 L 2.25 -2.9375 Z M 6.25 -2.9375 "/></g></g></g><g fill="#ffffff" fill-opacity="1"><g transform="translate(233.305551, 132.555841)"><g><path d="M 4.46875 -8.3125 C 5.53125 -8.3125 6.359375 -8.054688 6.953125 -7.546875 C 7.554688 -7.046875 7.859375 -6.351562 7.859375 -5.46875 C 7.859375 -4.570312 7.554688 -3.875 6.953125 -3.375 C 6.359375 -2.875 5.53125 -2.625 4.46875 -2.625 L 2.234375 -2.625 L 2.234375 0 L 1.359375 0 L 1.359375 -8.3125 Z M 4.4375 -3.390625 C 5.257812 -3.390625 5.890625 -3.570312 6.328125 -3.9375 C 6.765625 -4.300781 6.984375 -4.8125 6.984375 -5.46875 C 6.984375 -6.132812 6.765625 -6.644531 6.328125 -7 C 5.890625 -7.363281 5.257812 -7.546875 4.4375 -7.546875 L 2.234375 -7.546875 L 2.234375 -3.390625 Z M 4.4375 -3.390625 "/></g></g></g><g fill="#ffffff" fill-opacity="1"><g transform="translate(244.911539, 132.555841)"><g><path d="M 4.46875 -8.3125 C 5.53125 -8.3125 6.359375 -8.054688 6.953125 -7.546875 C 7.554688 -7.046875 7.859375 -6.351562 7.859375 -5.46875 C 7.859375 -4.570312 7.554688 -3.875 6.953125 -3.375 C 6.359375 -2.875 5.53125 -2.625 4.46875 -2.625 L 2.234375 -2.625 L 2.234375 0 L 1.359375 0 L 1.359375 -8.3125 Z M 4.4375 -3.390625 C 5.257812 -3.390625 5.890625 -3.570312 6.328125 -3.9375 C 6.765625 -4.300781 6.984375 -4.8125 6.984375 -5.46875 C 6.984375 -6.132812 6.765625 -6.644531 6.328125 -7 C 5.890625 -7.363281 5.257812 -7.546875 4.4375 -7.546875 L 2.234375 -7.546875 L 2.234375 -3.390625 Z M 4.4375 -3.390625 "/></g></g></g><g fill="#ffffff" fill-opacity="1"><g transform="translate(256.517527, 132.555841)"><g><path d="M 3.640625 0.078125 C 3.023438 0.078125 2.429688 -0.0195312 1.859375 -0.21875 C 1.296875 -0.414062 0.863281 -0.679688 0.5625 -1.015625 L 0.90625 -1.6875 C 1.207031 -1.382812 1.601562 -1.140625 2.09375 -0.953125 C 2.59375 -0.765625 3.109375 -0.671875 3.640625 -0.671875 C 4.390625 -0.671875 4.945312 -0.804688 5.3125 -1.078125 C 5.6875 -1.359375 5.875 -1.71875 5.875 -2.15625 C 5.875 -2.476562 5.769531 -2.738281 5.5625 -2.9375 C 5.363281 -3.132812 5.117188 -3.285156 4.828125 -3.390625 C 4.535156 -3.503906 4.128906 -3.625 3.609375 -3.75 C 2.984375 -3.90625 2.484375 -4.054688 2.109375 -4.203125 C 1.742188 -4.347656 1.425781 -4.570312 1.15625 -4.875 C 0.894531 -5.175781 0.765625 -5.585938 0.765625 -6.109375 C 0.765625 -6.523438 0.875 -6.90625 1.09375 -7.25 C 1.3125 -7.59375 1.648438 -7.867188 2.109375 -8.078125 C 2.566406 -8.285156 3.140625 -8.390625 3.828125 -8.390625 C 4.296875 -8.390625 4.757812 -8.320312 5.21875 -8.1875 C 5.675781 -8.050781 6.070312 -7.867188 6.40625 -7.640625 L 6.109375 -6.953125 C 5.753906 -7.179688 5.378906 -7.351562 4.984375 -7.46875 C 4.585938 -7.582031 4.203125 -7.640625 3.828125 -7.640625 C 3.097656 -7.640625 2.546875 -7.5 2.171875 -7.21875 C 1.804688 -6.9375 1.625 -6.570312 1.625 -6.125 C 1.625 -5.789062 1.722656 -5.519531 1.921875 -5.3125 C 2.128906 -5.113281 2.382812 -4.960938 2.6875 -4.859375 C 2.988281 -4.753906 3.398438 -4.640625 3.921875 -4.515625 C 4.523438 -4.359375 5.015625 -4.207031 5.390625 -4.0625 C 5.773438 -3.914062 6.097656 -3.691406 6.359375 -3.390625 C 6.617188 -3.097656 6.75 -2.703125 6.75 -2.203125 C 6.75 -1.773438 6.632812 -1.390625 6.40625 -1.046875 C 6.175781 -0.703125 5.828125 -0.425781 5.359375 -0.21875 C 4.898438 -0.0195312 4.328125 0.078125 3.640625 0.078125 Z M 3.640625 0.078125 "/></g></g></g><g fill="#7887ab" fill-opacity="1"><g transform="translate(57.897566, 106.340213)"><g><path d="M 29.734375 -28.71875 L 29.734375 0 L 24.28125 0 L 9.96875 -17.4375 L 9.96875 0 L 3.40625 0 L 3.40625 -28.71875 L 8.90625 -28.71875 L 23.171875 -11.28125 L 23.171875 -28.71875 Z M 29.734375 -28.71875 "/></g></g></g><g fill="#7887ab" fill-opacity="1"><g transform="translate(93.082114, 106.340213)"><g><path d="M 24.5625 -10.953125 C 24.5625 -10.867188 24.523438 -10.296875 24.453125 -9.234375 L 7.75 -9.234375 C 8.050781 -7.859375 8.757812 -6.773438 9.875 -5.984375 C 11 -5.191406 12.394531 -4.796875 14.0625 -4.796875 C 15.21875 -4.796875 16.238281 -4.96875 17.125 -5.3125 C 18.007812 -5.65625 18.835938 -6.195312 19.609375 -6.9375 L 23.015625 -3.234375 C 20.929688 -0.859375 17.894531 0.328125 13.90625 0.328125 C 11.414062 0.328125 9.210938 -0.15625 7.296875 -1.125 C 5.390625 -2.09375 3.914062 -3.4375 2.875 -5.15625 C 1.832031 -6.882812 1.3125 -8.84375 1.3125 -11.03125 C 1.3125 -13.195312 1.820312 -15.144531 2.84375 -16.875 C 3.875 -18.613281 5.285156 -19.96875 7.078125 -20.9375 C 8.867188 -21.90625 10.867188 -22.390625 13.078125 -22.390625 C 15.242188 -22.390625 17.203125 -21.925781 18.953125 -21 C 20.703125 -20.070312 22.070312 -18.738281 23.0625 -17 C 24.0625 -15.257812 24.5625 -13.242188 24.5625 -10.953125 Z M 13.125 -17.5625 C 11.675781 -17.5625 10.457031 -17.148438 9.46875 -16.328125 C 8.488281 -15.503906 7.890625 -14.382812 7.671875 -12.96875 L 18.546875 -12.96875 C 18.328125 -14.351562 17.722656 -15.460938 16.734375 -16.296875 C 15.753906 -17.140625 14.550781 -17.5625 13.125 -17.5625 Z M 13.125 -17.5625 "/></g></g></g><g fill="#7887ab" fill-opacity="1"><g transform="translate(121.008358, 106.340213)"><g><path d="M 24.859375 -22.0625 L 15.546875 0 L 8.9375 0 L -0.328125 -22.0625 L 6.28125 -22.0625 L 12.390625 -7.0625 L 18.703125 -22.0625 Z M 24.859375 -22.0625 "/></g></g></g><g fill="#7887ab" fill-opacity="1"><g transform="translate(147.581365, 106.340213)"><g><path d="M 24.5625 -10.953125 C 24.5625 -10.867188 24.523438 -10.296875 24.453125 -9.234375 L 7.75 -9.234375 C 8.050781 -7.859375 8.757812 -6.773438 9.875 -5.984375 C 11 -5.191406 12.394531 -4.796875 14.0625 -4.796875 C 15.21875 -4.796875 16.238281 -4.96875 17.125 -5.3125 C 18.007812 -5.65625 18.835938 -6.195312 19.609375 -6.9375 L 23.015625 -3.234375 C 20.929688 -0.859375 17.894531 0.328125 13.90625 0.328125 C 11.414062 0.328125 9.210938 -0.15625 7.296875 -1.125 C 5.390625 -2.09375 3.914062 -3.4375 2.875 -5.15625 C 1.832031 -6.882812 1.3125 -8.84375 1.3125 -11.03125 C 1.3125 -13.195312 1.820312 -15.144531 2.84375 -16.875 C 3.875 -18.613281 5.285156 -19.96875 7.078125 -20.9375 C 8.867188 -21.90625 10.867188 -22.390625 13.078125 -22.390625 C 15.242188 -22.390625 17.203125 -21.925781 18.953125 -21 C 20.703125 -20.070312 22.070312 -18.738281 23.0625 -17 C 24.0625 -15.257812 24.5625 -13.242188 24.5625 -10.953125 Z M 13.125 -17.5625 C 11.675781 -17.5625 10.457031 -17.148438 9.46875 -16.328125 C 8.488281 -15.503906 7.890625 -14.382812 7.671875 -12.96875 L 18.546875 -12.96875 C 18.328125 -14.351562 17.722656 -15.460938 16.734375 -16.296875 C 15.753906 -17.140625 14.550781 -17.5625 13.125 -17.5625 Z M 13.125 -17.5625 "/></g></g></g><g fill="#7887ab" fill-opacity="1"><g transform="translate(175.50761, 106.340213)"><g><path d="M 9.0625 -19.15625 C 9.832031 -20.21875 10.863281 -21.019531 12.15625 -21.5625 C 13.457031 -22.113281 14.957031 -22.390625 16.65625 -22.390625 L 16.65625 -16.484375 C 15.945312 -16.546875 15.46875 -16.578125 15.21875 -16.578125 C 13.382812 -16.578125 11.945312 -16.0625 10.90625 -15.03125 C 9.875 -14.007812 9.359375 -12.472656 9.359375 -10.421875 L 9.359375 0 L 2.953125 0 L 2.953125 -22.0625 L 9.0625 -22.0625 Z M 9.0625 -19.15625 "/></g></g></g><g fill="#ffffff" fill-opacity="1"><g transform="translate(193.187971, 106.340213)"><g><path d="M 5 -28.71875 L 7.09375 -28.71875 L 7.09375 -1.890625 L 23.625 -1.890625 L 23.625 0 L 5 0 Z M 5 -28.71875 "/></g></g></g><g fill="#ffffff" fill-opacity="1"><g transform="translate(220.048128, 106.340213)"><g><path d="M 12.71875 0.171875 C 10.695312 0.171875 8.867188 -0.289062 7.234375 -1.21875 C 5.609375 -2.15625 4.332031 -3.453125 3.40625 -5.109375 C 2.476562 -6.765625 2.015625 -8.628906 2.015625 -10.703125 C 2.015625 -12.785156 2.476562 -14.648438 3.40625 -16.296875 C 4.332031 -17.953125 5.609375 -19.242188 7.234375 -20.171875 C 8.867188 -21.109375 10.695312 -21.578125 12.71875 -21.578125 C 14.738281 -21.578125 16.5625 -21.109375 18.1875 -20.171875 C 19.8125 -19.242188 21.085938 -17.953125 22.015625 -16.296875 C 22.953125 -14.648438 23.421875 -12.785156 23.421875 -10.703125 C 23.421875 -8.628906 22.953125 -6.765625 22.015625 -5.109375 C 21.085938 -3.453125 19.8125 -2.15625 18.1875 -1.21875 C 16.5625 -0.289062 14.738281 0.171875 12.71875 0.171875 Z M 12.71875 -1.6875 C 14.351562 -1.6875 15.820312 -2.066406 17.125 -2.828125 C 18.425781 -3.597656 19.453125 -4.664062 20.203125 -6.03125 C 20.953125 -7.394531 21.328125 -8.953125 21.328125 -10.703125 C 21.328125 -12.453125 20.953125 -14.007812 20.203125 -15.375 C 19.453125 -16.75 18.425781 -17.816406 17.125 -18.578125 C 15.820312 -19.347656 14.351562 -19.734375 12.71875 -19.734375 C 11.070312 -19.734375 9.597656 -19.347656 8.296875 -18.578125 C 7.003906 -17.816406 5.984375 -16.75 5.234375 -15.375 C 4.484375 -14.007812 4.109375 -12.453125 4.109375 -10.703125 C 4.109375 -8.953125 4.484375 -7.394531 5.234375 -6.03125 C 5.984375 -4.664062 7.003906 -3.597656 8.296875 -2.828125 C 9.597656 -2.066406 11.070312 -1.6875 12.71875 -1.6875 Z M 12.71875 -1.6875 "/></g></g></g><g fill="#ffffff" fill-opacity="1"><g transform="translate(248.343538, 106.340213)"><g><path d="M 9.765625 0.171875 C 8.035156 0.171875 6.390625 -0.0859375 4.828125 -0.609375 C 3.273438 -1.128906 2.0625 -1.785156 1.1875 -2.578125 L 2.140625 -4.21875 C 3.015625 -3.488281 4.140625 -2.875 5.515625 -2.375 C 6.898438 -1.882812 8.34375 -1.640625 9.84375 -1.640625 C 12 -1.640625 13.585938 -1.992188 14.609375 -2.703125 C 15.640625 -3.421875 16.15625 -4.40625 16.15625 -5.65625 C 16.15625 -6.5625 15.875 -7.273438 15.3125 -7.796875 C 14.757812 -8.316406 14.070312 -8.695312 13.25 -8.9375 C 12.425781 -9.1875 11.289062 -9.445312 9.84375 -9.71875 C 8.144531 -10.019531 6.773438 -10.347656 5.734375 -10.703125 C 4.703125 -11.054688 3.816406 -11.628906 3.078125 -12.421875 C 2.335938 -13.222656 1.96875 -14.316406 1.96875 -15.703125 C 1.96875 -17.398438 2.671875 -18.800781 4.078125 -19.90625 C 5.484375 -21.019531 7.488281 -21.578125 10.09375 -21.578125 C 11.457031 -21.578125 12.804688 -21.382812 14.140625 -21 C 15.484375 -20.613281 16.582031 -20.109375 17.4375 -19.484375 L 16.484375 -17.84375 C 15.609375 -18.46875 14.609375 -18.941406 13.484375 -19.265625 C 12.367188 -19.597656 11.222656 -19.765625 10.046875 -19.765625 C 8.054688 -19.765625 6.550781 -19.394531 5.53125 -18.65625 C 4.519531 -17.925781 4.015625 -16.957031 4.015625 -15.75 C 4.015625 -14.789062 4.300781 -14.046875 4.875 -13.515625 C 5.457031 -12.984375 6.164062 -12.585938 7 -12.328125 C 7.832031 -12.066406 9 -11.785156 10.5 -11.484375 C 12.164062 -11.179688 13.507812 -10.859375 14.53125 -10.515625 C 15.5625 -10.179688 16.429688 -9.628906 17.140625 -8.859375 C 17.859375 -8.097656 18.21875 -7.046875 18.21875 -5.703125 C 18.21875 -3.921875 17.476562 -2.492188 16 -1.421875 C 14.519531 -0.359375 12.441406 0.171875 9.765625 0.171875 Z M 9.765625 0.171875 "/></g></g></g><g fill="#ffffff" fill-opacity="1"><g transform="translate(270.815906, 106.340213)"><g><path d="M 14.96875 -1.359375 C 14.445312 -0.859375 13.796875 -0.476562 13.015625 -0.21875 C 12.242188 0.0390625 11.429688 0.171875 10.578125 0.171875 C 8.722656 0.171875 7.289062 -0.335938 6.28125 -1.359375 C 5.269531 -2.390625 4.765625 -3.820312 4.765625 -5.65625 L 4.765625 -19.640625 L 0.828125 -19.640625 L 0.828125 -21.40625 L 4.765625 -21.40625 L 4.765625 -26.09375 L 6.8125 -26.09375 L 6.8125 -21.40625 L 13.625 -21.40625 L 13.625 -19.640625 L 6.8125 -19.640625 L 6.8125 -5.859375 C 6.8125 -4.472656 7.144531 -3.414062 7.8125 -2.6875 C 8.476562 -1.957031 9.46875 -1.59375 10.78125 -1.59375 C 12.125 -1.59375 13.234375 -1.992188 14.109375 -2.796875 Z M 14.96875 -1.359375 "/></g></g></g></svg>