<svg xmlns="http://www.w3.org/2000/svg" xmlns:xlink="http://www.w3.org/1999/xlink" width="1618" zoomAndPan="magnify" viewBox="0 0 1213.5 551.249983" height="735" preserveAspectRatio="xMidYMid meet" version="1.0"><defs><g/><clipPath id="41a253dab5"><path d="M 18.945312 0 L 403.921875 0 L 403.921875 536.269531 L 18.945312 536.269531 Z M 18.945312 0 " clip-rule="nonzero"/></clipPath><clipPath id="3cef6cc6cd"><path d="M 97.132812 79.21875 L 325 79.21875 L 325 306 L 97.132812 306 Z M 97.132812 79.21875 " clip-rule="nonzero"/></clipPath><clipPath id="65d96ea9a8"><path d="M 201.878906 304.628906 C 194.738281 303.820312 186.328125 302.167969 185.910156 301.488281 C 185.652344 301.074219 186.816406 300.472656 188.492188 300.148438 C 192.5 299.371094 192.566406 299.371094 198.695312 300.117188 C 202.179688 300.546875 204.191406 300.414062 204.613281 299.730469 C 205.0625 299 206.355469 299.136719 208.980469 300.1875 C 212.324219 301.523438 214.9375 301.585938 219.273438 300.433594 C 220.097656 300.214844 220.570312 300.59375 220.410156 301.347656 C 220.21875 302.253906 220.636719 302.429688 221.820312 301.929688 C 222.746094 301.539062 224.773438 301.285156 226.328125 301.371094 L 229.148438 301.523438 L 226.882812 299.925781 L 224.613281 298.328125 L 226.765625 297.535156 C 228.140625 297.027344 229.394531 297.132812 230.230469 297.824219 C 231.914062 299.222656 243.480469 298.226562 248.125 296.285156 C 249.964844 295.515625 252.796875 294.871094 254.414062 294.851562 C 256.03125 294.835938 258.410156 294.214844 259.703125 293.476562 C 262.316406 291.980469 264.40625 291.679688 264.40625 292.796875 C 264.40625 293.644531 255.1875 297.75 247.011719 300.542969 C 235.910156 304.339844 215.59375 306.175781 201.878906 304.628906 Z M 226.996094 289.539062 C 223.617188 288.152344 221.730469 284.796875 223.257812 282.898438 C 223.925781 282.070312 223.824219 281.71875 222.914062 281.707031 C 222.007812 281.699219 221.945312 281.488281 222.707031 281.003906 C 223.304688 280.625 224.078125 278.195312 224.429688 275.613281 C 224.777344 273.027344 225.617188 269.007812 226.292969 266.679688 C 226.96875 264.351562 227.515625 261.601562 227.507812 260.566406 C 227.492188 258.574219 228.316406 252.304688 229.277344 247.09375 C 230.046875 242.921875 228.191406 239.683594 223.726562 237.402344 C 221.742188 236.394531 219.890625 234.84375 219.609375 233.964844 C 218.214844 229.585938 214.960938 223.027344 212.371094 219.363281 C 209.84375 215.789062 211.570312 208.144531 215.75 204.414062 C 218.273438 202.160156 218.703125 201.175781 218.449219 198.242188 C 218.285156 196.324219 217.808594 194.539062 217.390625 194.28125 C 216.972656 194.023438 216.59375 193.386719 216.542969 192.871094 C 216.492188 192.355469 215.925781 191.929688 215.277344 191.929688 C 214.632812 191.929688 214.203125 192.449219 214.328125 193.082031 C 214.625 194.574219 208.988281 193.53125 207.222656 191.765625 C 206.539062 191.082031 205.582031 190.519531 205.101562 190.519531 C 204.625 190.519531 204.230469 189.960938 204.230469 189.273438 C 204.230469 187.257812 200.261719 184.195312 196.707031 183.46875 C 194.898438 183.097656 192.488281 181.945312 191.355469 180.902344 C 189.976562 179.636719 187.722656 178.925781 184.527344 178.753906 C 179.628906 178.492188 174.589844 176.09375 175.578125 174.496094 C 175.882812 174 174.867188 173.597656 173.3125 173.597656 C 169.789062 173.597656 168.703125 172.019531 170.992188 170.230469 C 171.949219 169.480469 172.269531 168.980469 171.707031 169.117188 C 170.855469 169.324219 167.242188 165.652344 164.546875 161.84375 C 164.183594 161.324219 162.597656 159.421875 161.027344 157.613281 L 158.167969 154.320312 L 159.644531 157.375 C 160.453125 159.058594 161.496094 160.433594 161.957031 160.433594 C 162.421875 160.433594 162.574219 161.023438 162.296875 161.746094 C 162.019531 162.472656 162.242188 163.34375 162.796875 163.683594 C 163.347656 164.023438 163.800781 164.980469 163.800781 165.804688 C 163.800781 167.113281 163.558594 167.085938 161.917969 165.605469 C 160.886719 164.667969 160.039062 163.320312 160.039062 162.609375 C 160.039062 161.894531 159.390625 161.066406 158.601562 160.761719 C 157.722656 160.425781 157.371094 159.550781 157.699219 158.519531 C 157.992188 157.589844 157.792969 156.558594 157.257812 156.226562 C 156.71875 155.894531 156.277344 154.859375 156.277344 153.933594 C 156.277344 153.003906 155.257812 151.144531 154.011719 149.800781 C 150.558594 146.074219 149.605469 140.050781 151.671875 134.960938 C 153.566406 130.289062 153.933594 126.585938 152.5 126.585938 C 151.957031 126.585938 151.785156 125.605469 152.105469 124.335938 C 152.414062 123.101562 152.210938 121.804688 151.652344 121.460938 C 151.089844 121.113281 150.636719 121.488281 150.636719 122.296875 C 150.636719 123.105469 150.199219 123.765625 149.660156 123.765625 C 149.125 123.765625 148.765625 122.8125 148.867188 121.648438 C 149.210938 117.632812 148.75 116.242188 147.074219 116.242188 C 144.941406 116.242188 138.308594 119.59375 137.335938 121.164062 C 136.933594 121.816406 136.269531 122.359375 135.863281 122.363281 C 135.457031 122.371094 133.167969 123.730469 130.777344 125.382812 C 128.386719 127.039062 126.179688 128.140625 125.878906 127.839844 C 125.574219 127.535156 126.679688 126.375 128.335938 125.257812 C 129.992188 124.140625 131.492188 122.394531 131.671875 121.378906 C 131.847656 120.363281 133.542969 118.160156 135.4375 116.480469 C 137.332031 114.800781 138.085938 113.703125 137.109375 114.042969 C 134.410156 114.984375 135.6875 112.261719 138.617188 110.832031 C 139.945312 110.183594 141.285156 108.703125 141.59375 107.542969 C 142.335938 104.75 148.832031 100.265625 152.199219 100.226562 C 153.667969 100.207031 157.40625 99.652344 160.507812 98.992188 C 163.613281 98.335938 167.707031 97.898438 169.613281 98.027344 C 172.460938 98.222656 173.054688 97.957031 172.949219 96.550781 C 172.84375 95.164062 172.507812 95.035156 171.171875 95.867188 C 170.265625 96.433594 169.234375 96.605469 168.878906 96.25 C 167.980469 95.351562 170.308594 92.734375 172.007812 92.734375 C 172.824219 92.734375 173.191406 92.183594 172.890625 91.402344 C 172.554688 90.523438 173.5625 89.550781 175.847656 88.542969 C 177.753906 87.703125 178.46875 87.210938 177.433594 87.445312 C 174.953125 88.011719 169.386719 89.960938 167.339844 90.980469 C 166.441406 91.429688 164.855469 91.796875 163.8125 91.796875 C 162.769531 91.796875 161.917969 92.167969 161.917969 92.625 C 161.917969 93.441406 155.21875 96.132812 150.636719 97.152344 C 148.601562 97.605469 148.726562 97.375 151.578125 95.414062 C 161.757812 88.417969 170.808594 84.5625 184.757812 81.289062 C 191.910156 79.609375 196.363281 79.25 210.339844 79.226562 C 227.207031 79.195312 239.859375 80.710938 237.085938 82.425781 C 236.386719 82.855469 235.464844 82.992188 235.03125 82.722656 C 234.597656 82.457031 229.847656 82.109375 224.480469 81.953125 C 216.285156 81.714844 214.800781 81.886719 215.234375 83.027344 C 215.523438 83.773438 216.285156 84.179688 216.933594 83.929688 C 218.546875 83.308594 226.140625 87.273438 231.054688 91.296875 C 233.28125 93.121094 235.460938 94.617188 235.894531 94.617188 C 236.332031 94.617188 237.234375 95.496094 237.90625 96.570312 C 238.976562 98.28125 238.898438 98.585938 237.285156 99.007812 C 234.867188 99.640625 234.203125 103.460938 235.757812 107.859375 C 236.4375 109.789062 236.789062 111.574219 236.539062 111.824219 C 235.679688 112.683594 230.125 109.304688 226.5 105.71875 C 224.507812 103.742188 222.421875 102.40625 221.871094 102.75 C 221.316406 103.089844 221.136719 102.929688 221.46875 102.390625 C 221.800781 101.851562 221.425781 100.871094 220.632812 100.214844 C 219.839844 99.554688 219.40625 98.449219 219.671875 97.757812 C 219.945312 97.050781 219.539062 96.496094 218.746094 96.496094 C 217.96875 96.496094 217.089844 95.863281 216.792969 95.085938 C 216.496094 94.3125 215.800781 93.675781 215.25 93.675781 C 214.703125 93.675781 213.566406 93.054688 212.726562 92.296875 C 211.601562 91.277344 210.46875 91.132812 208.421875 91.746094 C 206.890625 92.199219 206.203125 92.609375 206.890625 92.65625 C 208.917969 92.785156 215.648438 100.152344 215.359375 101.921875 C 215.210938 102.816406 215.367188 103.992188 215.710938 104.535156 C 216.050781 105.074219 215.945312 106.132812 215.476562 106.886719 C 214.753906 108.046875 214.023438 107.933594 210.605469 106.132812 C 208.390625 104.96875 205.867188 104.015625 204.992188 104.015625 C 202.859375 104.019531 201.875 102.261719 203.628906 101.589844 C 204.398438 101.292969 205.265625 100.421875 205.5625 99.652344 C 205.964844 98.605469 205.632812 98.402344 204.226562 98.851562 C 202.84375 99.289062 202.351562 99.015625 202.351562 97.8125 C 202.351562 96.917969 202.070312 96.460938 201.730469 96.800781 C 201.390625 97.144531 200.652344 97.039062 200.085938 96.570312 C 199.378906 95.980469 199.0625 96.734375 199.070312 99 C 199.078125 101.148438 199.65625 102.605469 200.734375 103.210938 C 201.644531 103.71875 202.191406 104.457031 201.949219 104.847656 C 201.707031 105.238281 202.652344 105.394531 204.046875 105.191406 C 205.753906 104.941406 207.957031 105.753906 210.8125 107.679688 C 214.074219 109.882812 215.113281 110.222656 215.347656 109.160156 C 215.8125 107.058594 216.691406 107.449219 220.695312 111.550781 C 222.722656 113.625 224.789062 115.1875 225.292969 115.019531 C 226.355469 114.664062 228.808594 116.953125 231.070312 120.410156 C 232.65625 122.828125 234.953125 123.859375 233.832031 121.648438 C 233.503906 121.003906 234.113281 121.472656 235.1875 122.691406 C 236.261719 123.914062 237.132812 125.605469 237.125 126.453125 C 237.113281 127.792969 236.988281 127.808594 236.199219 126.585938 C 235.386719 125.332031 235.277344 125.332031 235.199219 126.585938 C 235.136719 127.550781 234.960938 127.625 234.636719 126.820312 C 233.878906 124.941406 229.800781 125.351562 229.957031 127.289062 C 230.039062 128.332031 229.3125 129.042969 227.972656 129.234375 C 226.808594 129.402344 225.855469 129.984375 225.855469 130.535156 C 225.855469 131.15625 224.4375 131.34375 222.09375 131.027344 C 219.023438 130.617188 218.328125 130.808594 218.3125 132.082031 C 218.300781 132.9375 217.464844 134.695312 216.453125 135.988281 C 215.441406 137.28125 214.605469 138.917969 214.59375 139.628906 C 214.574219 140.722656 214.324219 140.722656 212.945312 139.628906 C 211.433594 138.429688 211.433594 138.527344 212.984375 140.949219 C 214.820312 143.828125 214.503906 144.777344 210.617188 148.046875 C 207.964844 150.28125 207.101562 154.128906 208.988281 155.296875 C 210.371094 156.152344 211.886719 160.394531 211.203125 161.496094 C 210.390625 162.816406 207.917969 160.484375 206.476562 157.03125 C 205.582031 154.902344 204.4375 153.941406 202.273438 153.507812 C 197.652344 152.582031 195.769531 152.792969 195.769531 154.234375 C 195.769531 155.085938 195.109375 155.382812 193.925781 155.074219 C 191.796875 154.515625 186.078125 157.773438 184.015625 160.71875 C 182.203125 163.304688 182.226562 166.40625 184.085938 170.324219 C 185.820312 173.976562 187.222656 174.695312 191.089844 173.921875 C 193.023438 173.535156 194.089844 172.65625 194.472656 171.125 C 194.78125 169.898438 195.515625 168.863281 196.105469 168.824219 C 196.695312 168.785156 197.917969 168.609375 198.820312 168.4375 C 201.273438 167.96875 201.667969 169.433594 199.96875 172.714844 C 199.132812 174.332031 198.6875 175.890625 198.980469 176.183594 C 199.273438 176.476562 199.027344 177.300781 198.433594 178.015625 C 197.539062 179.089844 197.964844 179.246094 200.90625 178.921875 C 206.726562 178.28125 207.878906 178.953125 207.820312 182.949219 C 207.730469 189.699219 209.921875 192.507812 213.699219 190.484375 C 214.945312 189.816406 216.082031 189.820312 217.332031 190.488281 C 219.75 191.78125 219.863281 191.757812 221.917969 189.554688 C 222.894531 188.503906 224.5 187.484375 225.480469 187.285156 C 226.460938 187.085938 228.074219 186.601562 229.066406 186.210938 C 230.328125 185.710938 230.664062 185.828125 230.183594 186.601562 C 229.8125 187.203125 229.953125 187.699219 230.5 187.699219 C 231.050781 187.699219 231.496094 187.300781 231.496094 186.816406 C 231.496094 186.328125 232.628906 186.519531 234.015625 187.238281 C 235.398438 187.957031 236.945312 188.289062 237.453125 187.976562 C 237.957031 187.664062 238.097656 187.851562 237.765625 188.386719 C 237.433594 188.925781 238.105469 189.621094 239.265625 189.929688 C 242.222656 190.722656 242.972656 190.65625 242.351562 189.644531 C 242.050781 189.164062 242.304688 188.464844 242.910156 188.089844 C 243.597656 187.664062 243.757812 187.816406 243.339844 188.496094 C 242.714844 189.503906 244.023438 189.953125 247.246094 189.832031 C 247.890625 189.808594 248.429688 190.484375 248.4375 191.332031 C 248.460938 193.488281 254.871094 198.550781 258.480469 199.261719 C 262.117188 199.980469 265.34375 202.574219 265.34375 204.777344 C 265.34375 205.667969 265.796875 206.671875 266.347656 207.011719 C 267.003906 207.417969 266.765625 208.332031 265.667969 209.652344 C 264.742188 210.765625 264.582031 211.152344 265.3125 210.511719 C 266.390625 209.566406 267.765625 209.964844 272.605469 212.628906 C 275.886719 214.429688 279.339844 215.90625 280.277344 215.90625 C 281.210938 215.90625 282.71875 216.726562 283.621094 217.722656 C 284.527344 218.722656 285.863281 219.3125 286.589844 219.035156 C 287.546875 218.667969 287.910156 219.3125 287.910156 221.371094 C 287.910156 223.375 286.675781 225.660156 283.726562 229.117188 C 281.425781 231.8125 279.257812 235.335938 278.90625 236.949219 C 277.941406 241.398438 273.722656 246.769531 270.28125 247.929688 C 268.601562 248.496094 267.226562 249.554688 267.226562 250.277344 C 267.226562 251 266.0625 252.339844 264.640625 253.253906 C 263.21875 254.167969 261.292969 255.859375 260.359375 257.015625 C 255.742188 262.726562 250.710938 266.730469 248.617188 266.363281 C 246.992188 266.078125 246.53125 266.382812 246.738281 267.597656 C 247.03125 269.328125 245.003906 272.320312 243.542969 272.320312 C 243.054688 272.320312 240.355469 274.304688 237.542969 276.730469 C 234.152344 279.660156 232.8125 281.375 233.5625 281.835938 C 234.351562 282.324219 234 283.113281 232.386719 284.476562 C 230.230469 286.300781 230.1875 286.503906 231.730469 287.703125 C 232.636719 288.40625 233.375 289.203125 233.375 289.472656 C 233.375 290.667969 229.824219 290.703125 226.992188 289.539062 Z M 223.210938 127.824219 C 222.53125 127.550781 221.722656 127.585938 221.410156 127.898438 C 221.097656 128.210938 221.652344 128.429688 222.644531 128.390625 C 223.738281 128.34375 223.960938 128.121094 223.210938 127.824219 Z M 229.582031 123.558594 C 229.601562 123.1875 228.980469 123.125 228.207031 123.421875 C 227.382812 123.738281 226.789062 123.433594 226.78125 122.6875 C 226.769531 121.648438 226.613281 121.660156 225.929688 122.738281 C 225.421875 123.539062 225.496094 124.949219 226.117188 126.3125 L 227.144531 128.566406 L 228.347656 126.402344 C 229.007812 125.210938 229.566406 123.929688 229.582031 123.558594 Z M 199.527344 126.203125 C 199.527344 126.015625 198.5625 125.226562 197.378906 124.453125 C 195.453125 123.1875 195.03125 123.207031 193.289062 124.617188 C 191.402344 126.144531 191.460938 126.191406 195.4375 126.367188 C 197.6875 126.464844 199.53125 126.390625 199.53125 126.203125 Z M 197.269531 121.363281 C 195.5625 120.113281 195.558594 120.023438 197.179688 119.402344 C 198.113281 119.042969 200.464844 119.175781 202.40625 119.691406 C 205.398438 120.492188 205.851562 120.421875 205.390625 119.222656 C 205.042969 118.3125 205.238281 118.050781 205.945312 118.488281 C 206.542969 118.859375 207.78125 118.730469 208.6875 118.203125 C 210.191406 117.328125 210.160156 117.238281 208.34375 117.210938 C 206.8125 117.1875 206.347656 116.59375 206.347656 114.667969 C 206.347656 113.289062 205.550781 111.578125 204.582031 110.867188 C 203.613281 110.160156 202.925781 109.386719 203.054688 109.148438 C 203.707031 107.960938 203.136719 106.839844 201.878906 106.839844 C 201.105469 106.839844 200.46875 106.382812 200.46875 105.820312 C 200.46875 105.261719 199.941406 104.992188 199.292969 105.222656 C 198.648438 105.457031 197.367188 105.257812 196.449219 104.785156 C 195.15625 104.121094 194.242188 104.570312 192.371094 106.796875 C 191.042969 108.375 189.617188 109.453125 189.199219 109.199219 C 188.785156 108.941406 188.203125 109.359375 187.910156 110.125 C 187.613281 110.890625 187.675781 111.425781 188.046875 111.308594 C 188.414062 111.195312 189.898438 112.296875 191.34375 113.757812 C 192.988281 115.417969 194.535156 116.195312 195.472656 115.835938 C 197.410156 115.089844 200.660156 116.117188 199.957031 117.25 C 199.660156 117.730469 198.785156 118.121094 198.007812 118.121094 C 197.179688 118.121094 196.875 117.671875 197.269531 117.035156 C 197.6875 116.359375 197.527344 116.207031 196.839844 116.632812 C 196.234375 117.007812 195.980469 117.707031 196.277344 118.1875 C 196.578125 118.667969 196.371094 119.0625 195.824219 119.0625 C 195.277344 119.0625 194.828125 118.640625 194.828125 118.121094 C 194.828125 116.46875 191.304688 117.117188 190.847656 118.855469 C 190.332031 120.832031 192.523438 123.332031 193.453125 121.828125 C 193.867188 121.152344 194.417969 121.152344 195.234375 121.828125 C 195.882812 122.367188 196.691406 122.527344 197.03125 122.1875 C 197.371094 121.847656 197.648438 122.132812 197.648438 122.824219 C 197.648438 123.511719 197.964844 123.761719 198.351562 123.375 C 198.738281 122.988281 198.25 122.082031 197.269531 121.363281 Z M 204.230469 116.296875 C 204.230469 115.8125 204.648438 115.152344 205.160156 114.839844 C 205.691406 114.507812 205.851562 114.886719 205.53125 115.722656 C 204.90625 117.351562 204.230469 117.648438 204.230469 116.296875 Z M 192.421875 113.921875 C 191.417969 113.160156 191.089844 112.527344 191.695312 112.511719 C 193.480469 112.460938 195.769531 113.558594 195.769531 114.460938 C 195.769531 115.695312 194.492188 115.488281 192.421875 113.921875 Z M 223.976562 123.089844 C 223.976562 122.980469 223.171875 122.460938 222.195312 121.9375 C 220.921875 121.257812 220.136719 121.3125 219.453125 122.136719 C 218.730469 123.007812 219.171875 123.292969 221.234375 123.292969 C 222.742188 123.292969 223.976562 123.203125 223.976562 123.089844 Z M 209.871094 120.941406 C 209.871094 120.425781 209.210938 120.003906 208.40625 120.003906 C 207.601562 120.003906 207.203125 120.425781 207.519531 120.941406 C 207.839844 121.460938 208.5 121.882812 208.988281 121.882812 C 209.472656 121.882812 209.871094 121.460938 209.871094 120.941406 Z M 213.164062 120.941406 C 212.84375 120.425781 212.394531 120.003906 212.167969 120.003906 C 211.9375 120.003906 211.753906 120.425781 211.753906 120.941406 C 211.753906 121.460938 212.199219 121.882812 212.746094 121.882812 C 213.296875 121.882812 213.480469 121.460938 213.164062 120.941406 Z M 182.605469 116.210938 C 181.414062 115.414062 181.59375 114.914062 183.78125 112.980469 C 185.203125 111.71875 186.367188 110.167969 186.367188 109.527344 C 186.367188 108.886719 185.765625 109.179688 185.03125 110.183594 C 184.300781 111.1875 183.382812 111.691406 182.996094 111.304688 C 182.609375 110.917969 182.785156 110.601562 183.386719 110.601562 C 183.992188 110.601562 184.484375 109.964844 184.484375 109.191406 C 184.484375 107.367188 182.707031 107.363281 182.007812 109.183594 C 181.710938 109.957031 181.082031 110.351562 180.609375 110.058594 C 180.140625 109.769531 179.996094 109.136719 180.292969 108.65625 C 180.59375 108.171875 180.414062 107.78125 179.894531 107.78125 C 179.378906 107.78125 178.6875 108.210938 178.363281 108.734375 C 178.039062 109.261719 177.335938 109.417969 176.796875 109.089844 C 176.167969 108.699219 176.277344 108.199219 177.097656 107.675781 C 178.136719 107.019531 178.113281 106.871094 176.964844 106.886719 C 175.179688 106.910156 170.421875 109.582031 172.082031 109.628906 C 172.761719 109.644531 173.078125 110.042969 172.785156 110.511719 C 172.496094 110.980469 173.210938 111.167969 174.375 110.925781 L 176.492188 110.484375 L 174.328125 111.777344 L 172.160156 113.074219 L 174.769531 114.261719 C 176.65625 115.121094 177.480469 115.160156 177.734375 114.398438 C 177.988281 113.636719 178.464844 113.65625 179.449219 114.472656 C 180.550781 115.386719 180.578125 115.757812 179.59375 116.378906 C 178.800781 116.882812 179.359375 117.152344 181.195312 117.152344 C 183.390625 117.152344 183.703125 116.945312 182.605469 116.210938 Z M 179.042969 112.851562 C 177.699219 111.398438 178.605469 111.121094 180.589844 112.378906 C 181.292969 112.824219 181.503906 113.40625 181.058594 113.675781 C 180.617188 113.945312 179.707031 113.574219 179.042969 112.851562 Z M 215.953125 112.621094 C 215.421875 112.0625 213.632812 113.476562 213.632812 114.453125 C 213.632812 114.960938 214.226562 114.832031 214.949219 114.164062 C 215.671875 113.496094 216.125 112.804688 215.953125 112.621094 Z M 189.1875 113.992188 C 189.1875 113.789062 188.53125 113.371094 187.726562 113.0625 C 186.890625 112.742188 186.511719 112.898438 186.84375 113.433594 C 187.394531 114.324219 189.1875 114.753906 189.1875 113.992188 Z M 174.882812 104.453125 C 175.695312 103.746094 175.230469 103.492188 173.195312 103.542969 C 171.652344 103.578125 169.648438 104.425781 168.742188 105.429688 C 167.125 107.210938 167.132812 107.214844 169.113281 105.570312 C 171.21875 103.828125 172.933594 104.796875 171.777344 107.074219 C 171.449219 107.722656 171.761719 107.617188 172.472656 106.839844 C 173.179688 106.0625 174.265625 104.988281 174.882812 104.453125 Z M 182.605469 105.84375 C 182.605469 105.296875 182.183594 105.109375 181.664062 105.429688 C 181.148438 105.75 180.726562 106.195312 180.726562 106.425781 C 180.726562 106.652344 181.148438 106.839844 181.664062 106.839844 C 182.183594 106.839844 182.605469 106.390625 182.605469 105.84375 Z M 177.652344 98.667969 C 176.734375 98.429688 175.46875 98.445312 174.832031 98.699219 C 174.195312 98.957031 174.941406 99.152344 176.492188 99.132812 C 178.046875 99.117188 178.566406 98.90625 177.652344 98.667969 Z M 184.980469 97.617188 C 184.691406 97.328125 183.933594 97.617188 183.292969 98.261719 C 182.375 99.191406 182.480469 99.296875 183.820312 98.789062 C 184.75 98.433594 185.269531 97.910156 184.980469 97.617188 Z M 195.769531 96.441406 C 195.769531 95.953125 195.417969 95.558594 194.984375 95.558594 C 194.554688 95.558594 194.203125 96.171875 194.203125 96.925781 C 194.203125 97.679688 194.554688 98.078125 194.984375 97.8125 C 195.417969 97.542969 195.769531 96.929688 195.769531 96.441406 Z M 191.996094 94.597656 C 191.4375 93.550781 191.292969 92.175781 191.675781 91.542969 C 192.113281 90.8125 191.769531 90.871094 190.753906 91.695312 C 189.242188 92.921875 189.238281 93.117188 190.71875 94.75 C 192.777344 97.027344 193.265625 96.96875 191.996094 94.597656 Z M 187.226562 95.21875 C 187.011719 95.035156 185.566406 94.597656 184.015625 94.25 C 181.957031 93.789062 181.574219 93.875 182.605469 94.574219 C 183.875 95.433594 188.171875 96.03125 187.226562 95.21875 Z M 178.84375 92.648438 C 180.097656 91.761719 180.097656 91.699219 178.84375 92.066406 C 178.070312 92.296875 176.589844 92.046875 175.554688 91.515625 C 173.871094 90.652344 173.808594 90.714844 174.964844 92.113281 C 176.464844 93.933594 176.9375 94 178.84375 92.648438 Z M 183.546875 91.355469 C 183.546875 90.480469 183 90.183594 182.054688 90.546875 C 180.859375 91.007812 180.8125 91.273438 181.820312 91.914062 C 183.492188 92.972656 183.546875 92.953125 183.546875 91.355469 Z M 208.367188 90.855469 C 212.0625 90.855469 208.28125 88.792969 204.207031 88.585938 C 201.75 88.460938 199.785156 87.777344 199.070312 86.796875 C 197.394531 84.507812 196.710938 84.839844 196.710938 87.945312 C 196.710938 90.1875 197.039062 90.59375 198.53125 90.203125 C 199.53125 89.941406 201.3125 90.398438 202.488281 91.222656 C 203.898438 92.210938 204.941406 92.402344 205.554688 91.789062 C 206.066406 91.273438 207.332031 90.855469 208.367188 90.855469 Z M 187.308594 90.855469 C 187.308594 90.339844 186.859375 89.914062 186.3125 89.914062 C 185.761719 89.914062 185.578125 90.339844 185.894531 90.855469 C 186.214844 91.371094 186.664062 91.796875 186.890625 91.796875 C 187.121094 91.796875 187.308594 91.371094 187.308594 90.855469 Z M 212.871094 81.75 C 212.191406 81.480469 211.378906 81.511719 211.066406 81.824219 C 210.753906 82.136719 211.308594 82.359375 212.300781 82.320312 C 213.398438 82.273438 213.621094 82.050781 212.871094 81.75 Z M 237.792969 287.703125 C 236.789062 286.703125 238.070312 285.484375 240.128906 285.484375 C 241.75 285.484375 241.875 285.71875 240.898438 286.894531 C 239.636719 288.417969 238.738281 288.652344 237.792969 287.703125 Z M 137.003906 264.832031 C 134.421875 261.820312 132.132812 259.515625 131.925781 259.714844 C 131.71875 259.910156 130.542969 258.714844 129.316406 257.050781 C 127.035156 253.960938 123.867188 251.730469 121.671875 251.671875 C 120.996094 251.652344 120.691406 252.042969 121 252.539062 C 121.332031 253.078125 120.417969 253.046875 118.734375 252.457031 C 116.53125 251.691406 115.257812 250.097656 112.949219 245.207031 C 108.183594 235.132812 108.128906 234.886719 110.3125 233.71875 C 111.410156 233.128906 112.015625 232.113281 111.722656 231.351562 C 111.4375 230.613281 111.617188 230.011719 112.117188 230.011719 C 112.621094 230.011719 113.03125 229.351562 113.03125 228.542969 C 113.03125 227.558594 113.726562 227.167969 115.144531 227.367188 C 116.613281 227.570312 117.265625 227.175781 117.273438 226.082031 C 117.28125 225.214844 117.597656 224.191406 117.976562 223.808594 C 118.359375 223.429688 118.671875 223.578125 118.671875 224.140625 C 118.671875 224.699219 119.941406 225.441406 121.492188 225.78125 C 123.042969 226.121094 124.3125 226.933594 124.3125 227.585938 C 124.3125 228.238281 125.476562 229.351562 126.898438 230.066406 C 128.320312 230.777344 129.71875 231.488281 130.003906 231.644531 C 130.285156 231.796875 130.347656 230.4375 130.132812 228.617188 C 129.660156 224.566406 131.433594 224.167969 132.304688 228.132812 C 132.644531 229.683594 133.28125 230.953125 133.714844 230.953125 C 134.152344 230.953125 135.027344 232.539062 135.660156 234.476562 C 136.296875 236.417969 137.703125 238.914062 138.789062 240.03125 C 141.621094 242.933594 143.117188 244.875 143.117188 245.648438 C 143.117188 246.015625 143.785156 247.054688 144.597656 247.953125 C 146.578125 250.140625 147.046875 257.191406 145.371094 259.582031 C 144.648438 260.613281 144.058594 262.203125 144.058594 263.109375 C 144.058594 264.097656 143.09375 265.007812 141.660156 265.367188 C 139.292969 265.960938 139.285156 265.984375 141.191406 267.316406 C 143.070312 268.636719 143.820312 270.503906 142.410156 270.378906 C 142.023438 270.34375 139.589844 267.847656 137.007812 264.832031 Z M 144.382812 250.1875 C 144.074219 249.386719 143.625 248.9375 143.375 249.183594 C 143.128906 249.429688 143.207031 250.082031 143.546875 250.632812 C 144.476562 252.132812 145.015625 251.84375 144.382812 250.1875 Z M 153.042969 268.648438 C 152.484375 267.742188 159.691406 263.871094 161.984375 263.847656 C 163.113281 263.832031 163.101562 263.683594 161.921875 262.921875 C 160.8125 262.203125 160.785156 262.003906 161.804688 261.992188 C 162.738281 261.984375 162.941406 261.195312 162.53125 259.160156 C 162.214844 257.566406 162.367188 256.339844 162.886719 256.339844 C 163.390625 256.339844 163.800781 256.761719 163.800781 257.277344 C 163.800781 257.796875 164.6875 259.105469 165.769531 260.183594 L 167.734375 262.152344 L 165.535156 263.703125 C 164.324219 264.558594 163.121094 265.261719 162.863281 265.265625 C 162.601562 265.269531 161.058594 266.226562 159.425781 267.386719 C 156.308594 269.609375 153.929688 270.078125 153.042969 268.648438 Z M 162.109375 245.808594 C 161.488281 245.1875 160.980469 244.339844 160.980469 243.925781 C 160.980469 242.542969 162.398438 243.15625 163.582031 245.054688 C 164.871094 247.113281 163.90625 247.605469 162.109375 245.808594 Z M 310.003906 244.820312 C 310.382812 243.65625 311.078125 238.050781 311.546875 232.363281 C 312.054688 226.238281 313.003906 220.945312 313.875 219.386719 C 315.109375 217.167969 315.167969 216.019531 314.234375 212.125 C 313.617188 209.554688 313.40625 205.820312 313.765625 203.710938 C 314.339844 200.292969 314.210938 199.925781 312.441406 199.925781 C 311.324219 199.925781 310.476562 199.316406 310.476562 198.515625 C 310.476562 196.738281 308.671875 196.75 306.296875 198.546875 C 305.289062 199.308594 303.71875 199.695312 302.804688 199.40625 C 301.894531 199.117188 300.328125 199.316406 299.332031 199.851562 C 296.972656 201.113281 292.921875 198.074219 291.078125 193.660156 C 290.359375 191.9375 289.246094 190.632812 288.605469 190.761719 C 287.773438 190.925781 287.441406 189.207031 287.441406 184.734375 C 287.441406 181.292969 287.773438 178.683594 288.183594 178.9375 C 288.589844 179.1875 288.832031 177.984375 288.722656 176.261719 C 288.617188 174.539062 289.335938 171.648438 290.324219 169.835938 C 291.3125 168.027344 292.128906 165.910156 292.132812 165.136719 C 292.140625 164.359375 292.566406 163.785156 293.085938 163.855469 C 294.378906 164.039062 299.425781 160.355469 298.777344 159.703125 C 298.488281 159.414062 298.953125 158.402344 299.808594 157.453125 C 300.664062 156.507812 301.039062 155.734375 300.636719 155.734375 C 300.234375 155.734375 300.484375 154.992188 301.195312 154.085938 C 302.363281 152.597656 302.332031 152.5625 300.839844 153.734375 C 299.9375 154.441406 299.140625 154.761719 299.078125 154.4375 C 299.011719 154.117188 298.898438 153.324219 298.820312 152.675781 C 298.746094 152.03125 297.890625 151.640625 296.921875 151.808594 C 295.363281 152.082031 295.242188 151.707031 295.851562 148.519531 C 296.230469 146.539062 296.503906 143.925781 296.460938 142.710938 C 296.335938 139.269531 297.195312 138.699219 300.1875 140.246094 C 302.765625 141.578125 302.957031 141.558594 302.957031 139.957031 C 302.957031 139.007812 301.898438 136.800781 300.605469 135.046875 C 297.808594 131.253906 297.796875 131.203125 299.898438 131.863281 C 301.390625 132.332031 301.402344 132.261719 300.042969 131.128906 C 298.410156 129.769531 298.308594 129.511719 298.144531 126.351562 C 298.0625 124.757812 297.929688 124.640625 297.605469 125.878906 C 297.371094 126.785156 296.621094 127.527344 295.945312 127.527344 C 294.21875 127.527344 293.386719 123.769531 294.976562 123.160156 C 295.679688 122.890625 296.023438 122.066406 295.742188 121.324219 C 295.367188 120.351562 295.683594 120.160156 296.902344 120.625 C 298.21875 121.132812 298.445312 120.921875 297.957031 119.648438 C 297.566406 118.625 297.703125 118.253906 298.328125 118.640625 C 298.875 118.976562 299.085938 119.875 298.792969 120.632812 C 298.503906 121.390625 299.308594 123.882812 300.585938 126.167969 C 301.863281 128.453125 302.691406 131.070312 302.433594 131.980469 C 302.164062 132.921875 302.425781 132.75 303.042969 131.585938 C 303.9375 129.886719 303.761719 128.941406 302.023438 126.128906 C 300.867188 124.257812 300.105469 122.542969 300.328125 122.320312 C 300.882812 121.765625 306.363281 129.636719 307.152344 132.113281 C 307.5 133.210938 308.09375 134.109375 308.46875 134.109375 C 309.90625 134.109375 319.878906 156.304688 319.878906 159.511719 C 319.878906 160.332031 319.199219 160.054688 317.964844 158.730469 C 316.242188 156.882812 314.238281 156 314.238281 157.089844 C 314.238281 157.738281 318.140625 164.195312 318.535156 164.195312 C 318.726562 164.195312 318.613281 163.5 318.289062 162.652344 C 317.804688 161.386719 318.007812 161.285156 319.425781 162.078125 C 320.375 162.609375 321.238281 163.832031 321.339844 164.796875 C 321.441406 165.757812 321.792969 167.816406 322.121094 169.367188 C 322.449219 170.917969 323.335938 176.515625 324.09375 181.804688 C 325.582031 192.203125 324.851562 205.613281 322.148438 217.511719 C 321.417969 220.71875 320.820312 224.738281 320.816406 226.441406 C 320.808594 231.628906 318.972656 236.761719 316.941406 237.292969 C 315.921875 237.558594 314.042969 239.835938 312.765625 242.355469 C 310.355469 247.117188 308.8125 248.492188 310.003906 244.820312 Z M 316.292969 154.589844 C 315.617188 153.914062 315.179688 153.859375 315.179688 154.449219 C 315.179688 155.703125 316.289062 156.816406 316.917969 156.1875 C 317.183594 155.921875 316.902344 155.203125 316.292969 154.589844 Z M 313.8125 154.558594 C 313.027344 150.972656 309.8125 145.410156 308.519531 145.402344 C 306.800781 145.390625 304.421875 149.316406 305.035156 151.15625 C 305.261719 151.839844 306.261719 152.445312 307.257812 152.496094 C 312.144531 152.753906 313.289062 152.96875 313.1875 153.617188 C 313.015625 154.707031 313.257812 155.734375 313.683594 155.734375 C 313.898438 155.734375 313.957031 155.203125 313.8125 154.558594 Z M 181.664062 240.75 C 181.664062 239.929688 182.167969 239.425781 182.78125 239.632812 C 184.523438 240.210938 184.8125 242.238281 183.152344 242.238281 C 182.335938 242.238281 181.664062 241.566406 181.664062 240.75 Z M 184.964844 239.429688 C 184.640625 238.90625 185.035156 238.476562 185.839844 238.476562 C 187.492188 238.476562 187.734375 239.039062 186.429688 239.847656 C 185.949219 240.144531 185.289062 239.957031 184.964844 239.429688 Z M 165.289062 236.929688 C 164.5 234.878906 165.546875 233.925781 166.65625 235.683594 C 167.769531 237.441406 167.792969 238.476562 166.722656 238.476562 C 166.257812 238.476562 165.613281 237.78125 165.289062 236.929688 Z M 157.21875 227.222656 C 157.21875 226.722656 156.582031 226.554688 155.808594 226.851562 C 154.09375 227.511719 153.9375 225.921875 155.585938 224.558594 C 156.464844 223.828125 157.050781 224.164062 157.847656 225.851562 C 158.4375 227.105469 158.539062 228.132812 158.070312 228.132812 C 157.601562 228.132812 157.21875 227.722656 157.21875 227.222656 Z M 138.863281 226.011719 C 137.839844 225.449219 136.449219 224.214844 135.773438 223.269531 C 134.464844 221.441406 131.832031 220.921875 131.832031 222.492188 C 131.832031 223.007812 130.984375 223.433594 129.953125 223.433594 C 128.917969 223.433594 128.070312 223.007812 128.070312 222.492188 C 128.070312 221.976562 127.226562 221.550781 126.191406 221.550781 C 125.15625 221.550781 124.308594 221.128906 124.308594 220.609375 C 124.308594 220.09375 124.738281 219.671875 125.257812 219.671875 C 127.113281 219.671875 123.964844 216.09375 120.761719 214.566406 C 118.621094 213.546875 117.726562 212.570312 118.078125 211.652344 C 118.394531 210.828125 118.0625 210.269531 117.257812 210.269531 C 116.445312 210.269531 116.121094 210.828125 116.449219 211.679688 C 116.84375 212.703125 116.335938 213.089844 114.59375 213.089844 C 113.277344 213.089844 111.9375 212.667969 111.617188 212.148438 C 111.296875 211.632812 111.90625 211.207031 112.972656 211.207031 C 114.035156 211.207031 114.960938 210.785156 115.023438 210.269531 C 115.089844 209.75 115.195312 208.941406 115.261719 208.464844 C 115.449219 207.070312 116.789062 206.089844 116.789062 207.347656 C 116.789062 207.980469 117.164062 208.265625 117.621094 207.984375 C 118.082031 207.699219 118.980469 208.097656 119.617188 208.867188 C 120.257812 209.636719 120.429688 210.269531 120.007812 210.269531 C 119.582031 210.269531 119.722656 210.757812 120.320312 211.355469 C 121.144531 212.179688 121.742188 212.167969 122.785156 211.304688 C 123.890625 210.386719 125.070312 210.621094 128.761719 212.492188 C 131.289062 213.773438 133.914062 215.492188 134.589844 216.304688 C 135.269531 217.121094 136.988281 217.789062 138.414062 217.789062 C 141.03125 217.789062 143.621094 215.789062 142.480469 214.648438 C 142.140625 214.308594 142.328125 214.03125 142.902344 214.03125 C 144.90625 214.03125 145.074219 215.902344 143.246094 217.867188 C 142.007812 219.195312 140.777344 219.652344 139.515625 219.25 C 136.226562 218.207031 136.027344 220.734375 139.175781 223.546875 C 142.253906 226.296875 142.066406 227.777344 138.863281 226.011719 Z M 150.058594 223.257812 C 149.621094 222.550781 149.894531 222.367188 150.839844 222.730469 C 151.636719 223.035156 152.714844 222.859375 153.238281 222.335938 C 153.875 221.699219 154.390625 221.722656 154.816406 222.410156 C 155.164062 222.972656 155.316406 223.464844 155.160156 223.5 C 152.175781 224.21875 150.605469 224.144531 150.058594 223.257812 Z M 107.730469 220.464844 C 107.28125 219.746094 105.765625 218.425781 104.363281 217.53125 C 100.769531 215.246094 99.421875 212.519531 101.496094 211.722656 C 102.378906 211.386719 102.792969 211.414062 102.417969 211.789062 C 101.46875 212.738281 104.605469 215.996094 105.777344 215.273438 C 106.316406 214.9375 106.449219 215.140625 106.082031 215.738281 C 105.6875 216.378906 106.371094 217.03125 107.816406 217.394531 C 110.394531 218.042969 110.621094 218.5 109.363281 220.488281 C 108.671875 221.578125 108.417969 221.574219 107.730469 220.464844 Z M 110.777344 220.214844 C 111.0625 219.476562 111.941406 218.628906 112.734375 218.324219 C 113.769531 217.925781 114.015625 218.191406 113.601562 219.265625 C 113.285156 220.089844 113.027344 220.941406 113.027344 221.160156 C 113.027344 221.375 112.40625 221.550781 111.644531 221.550781 C 110.839844 221.550781 110.480469 220.996094 110.777344 220.214844 Z M 146.875 219.671875 C 145.609375 217.300781 146.667969 217.300781 149.695312 219.671875 C 152.023438 221.488281 152.023438 221.511719 149.964844 221.53125 C 148.820312 221.542969 147.429688 220.707031 146.875 219.671875 Z M 116.789062 219.257812 C 116.789062 219.027344 117.210938 218.582031 117.726562 218.261719 C 118.246094 217.941406 118.667969 218.128906 118.667969 218.675781 C 118.667969 219.222656 118.246094 219.671875 117.726562 219.671875 C 117.210938 219.671875 116.789062 219.484375 116.789062 219.257812 Z M 120.15625 217.917969 C 119.75 217.261719 119.675781 216.472656 119.984375 216.160156 C 120.828125 215.320312 121.742188 216.558594 121.289062 217.921875 C 120.972656 218.875 120.75 218.875 120.15625 217.917969 Z M 107.085938 214.355469 C 106.734375 214.003906 106.394531 211.777344 106.335938 209.40625 C 106.242188 205.777344 106.128906 205.535156 105.628906 207.863281 C 105.300781 209.386719 104.71875 210.550781 104.332031 210.449219 C 103.941406 210.351562 103.25 210.269531 102.789062 210.269531 C 100.878906 210.269531 100.773438 203.84375 102.609375 199.320312 C 104.414062 194.871094 104.664062 194.945312 105.039062 200.019531 C 105.308594 203.628906 106.394531 204.855469 108.90625 204.375 C 110.378906 204.09375 111.148438 204.386719 111.148438 205.226562 C 111.148438 205.933594 110.195312 206.535156 109.03125 206.566406 L 106.914062 206.628906 L 109.03125 207.476562 C 110.195312 207.945312 111.140625 208.871094 111.132812 209.535156 C 111.121094 210.460938 110.933594 210.445312 110.308594 209.464844 C 109.863281 208.761719 109.265625 208.570312 108.976562 209.039062 C 108.6875 209.503906 108.839844 210.503906 109.3125 211.253906 C 109.789062 212.003906 110.152344 213.253906 110.117188 214.03125 C 110.070312 215.132812 109.949219 215.164062 109.546875 214.160156 C 109.191406 213.257812 108.84375 213.191406 108.382812 213.9375 C 108.023438 214.519531 107.4375 214.710938 107.085938 214.355469 Z M 200.628906 211.207031 C 201.101562 209.789062 202.613281 209.644531 203.058594 210.972656 C 203.273438 211.621094 202.742188 212.148438 201.882812 212.148438 C 201.019531 212.148438 200.457031 211.726562 200.628906 211.207031 Z M 121.566406 209.875 C 121.523438 208.886719 121.746094 208.332031 122.058594 208.644531 C 122.371094 208.957031 122.40625 209.765625 122.132812 210.445312 C 121.832031 211.195312 121.609375 210.972656 121.566406 209.875 Z M 98.394531 204.390625 C 97.316406 195.582031 97.300781 195.179688 98.019531 194.734375 C 98.386719 194.507812 98.980469 196.957031 99.335938 200.179688 C 99.691406 203.402344 100.214844 206.988281 100.496094 208.152344 C 100.777344 209.316406 100.582031 210.269531 100.0625 210.269531 C 99.539062 210.269531 98.789062 207.625 98.394531 204.390625 Z M 112.960938 210.035156 C 112.253906 207.65625 112.269531 205.097656 112.996094 203.847656 C 113.695312 202.648438 113.917969 203.21875 113.941406 206.273438 C 113.957031 208.46875 113.757812 210.269531 113.5 210.269531 C 113.242188 210.269531 113 210.164062 112.960938 210.035156 Z M 155.339844 202.257812 C 155.339844 201.46875 154.28125 200.34375 152.988281 199.753906 C 150.945312 198.824219 149.734375 197.105469 151.121094 197.105469 C 151.988281 197.105469 155.792969 199.433594 156.5 200.394531 C 157.503906 201.761719 157.375 203.6875 156.28125 203.6875 C 155.765625 203.6875 155.339844 203.042969 155.339844 202.257812 Z M 108.328125 196.164062 C 107.648438 194.890625 107.636719 194.285156 108.296875 194.285156 C 108.832031 194.285156 109.269531 193.625 109.269531 192.820312 C 109.269531 192.011719 109.691406 191.613281 110.210938 191.933594 C 111.414062 192.679688 111.445312 198.046875 110.242188 198.046875 C 109.742188 198.046875 108.882812 197.199219 108.328125 196.164062 Z M 103.640625 193.164062 C 103.648438 192.488281 104.066406 191.300781 104.566406 190.523438 C 105.308594 189.378906 105.480469 189.5 105.492188 191.171875 C 105.5 192.308594 105.085938 193.496094 104.566406 193.816406 C 104.050781 194.132812 103.632812 193.84375 103.640625 193.164062 Z M 97.863281 190.289062 C 97.492188 180.90625 100.816406 159.398438 102.746094 158.710938 C 103.230469 158.539062 103.628906 157.449219 103.628906 156.289062 C 103.628906 153.742188 108.003906 142.601562 109.6875 140.855469 C 110.6875 139.820312 110.992188 139.867188 111.480469 141.136719 C 111.855469 142.113281 111.695312 142.4375 111.039062 142.03125 C 110.355469 141.613281 110.214844 142.046875 110.621094 143.320312 C 111.027344 144.609375 110.617188 145.816406 109.371094 146.976562 C 107.390625 148.820312 105.507812 152.980469 105.507812 155.507812 C 105.507812 156.78125 105.734375 156.734375 106.890625 155.210938 C 107.648438 154.207031 108.28125 152.222656 108.300781 150.800781 C 108.316406 149.375 108.753906 148.214844 109.269531 148.214844 C 110.96875 148.214844 110.25 154.65625 108.09375 158.761719 C 106.28125 162.210938 105.9375 162.484375 105.679688 160.671875 C 105.511719 159.507812 105.035156 158.554688 104.613281 158.554688 C 102.777344 158.554688 101.878906 170.167969 103.628906 171.25 C 105.191406 172.214844 104.777344 175.761719 103.171875 175.144531 C 101.101562 174.351562 100.136719 177.070312 100.058594 183.941406 C 99.949219 193.226562 99.933594 193.34375 98.925781 193.34375 C 98.410156 193.34375 97.933594 191.96875 97.867188 190.289062 Z M 106.664062 190.140625 C 106.953125 188.628906 106.71875 188.019531 105.960938 188.308594 C 104.46875 188.882812 103.175781 181.199219 104.53125 179.839844 C 105.207031 179.167969 105.507812 179.707031 105.507812 181.585938 C 105.507812 183.25 106.476562 185.320312 108.003906 186.914062 C 110.085938 189.085938 110.296875 189.753906 109.296875 190.960938 C 107.503906 193.117188 106.171875 192.703125 106.664062 190.140625 Z M 217.210938 174.351562 C 218.085938 173.472656 218.589844 173.472656 219.464844 174.351562 C 220.34375 175.230469 220.09375 175.480469 218.339844 175.480469 C 216.582031 175.480469 216.332031 175.230469 217.210938 174.351562 Z M 223.039062 174.484375 C 223.039062 173.886719 223.640625 173.628906 224.371094 173.910156 C 225.105469 174.191406 225.949219 173.785156 226.246094 173.011719 C 226.574219 172.15625 227.253906 171.890625 227.96875 172.335938 C 228.621094 172.738281 230.0625 172.953125 231.175781 172.808594 C 232.289062 172.664062 233.480469 172.996094 233.816406 173.542969 C 234.160156 174.097656 233.679688 174.566406 232.734375 174.597656 C 231.796875 174.628906 229.234375 174.863281 227.035156 175.113281 C 224.371094 175.421875 223.039062 175.210938 223.039062 174.484375 Z M 236.015625 174.351562 C 236.890625 173.472656 237.394531 173.472656 238.273438 174.351562 C 239.148438 175.230469 238.898438 175.480469 237.144531 175.480469 C 235.386719 175.480469 235.136719 175.230469 236.015625 174.351562 Z M 214.320312 169.289062 C 212.886719 168.511719 211.234375 168.171875 210.648438 168.53125 C 210 168.933594 209.847656 168.769531 210.257812 168.101562 C 210.683594 167.414062 210.203125 167.019531 208.9375 167.019531 C 207.839844 167.019531 207.148438 167.351562 207.402344 167.757812 C 207.652344 168.164062 207.042969 168.496094 206.046875 168.496094 C 203.546875 168.496094 203.777344 167.1875 206.496094 165.945312 C 208.324219 165.113281 209.867188 165.34375 214.488281 167.136719 C 220.121094 169.320312 221.816406 170.816406 218.574219 170.742188 C 217.667969 170.71875 215.753906 170.066406 214.320312 169.289062 Z M 298.261719 156.730469 C 298.261719 156.183594 298.683594 155.734375 299.199219 155.734375 C 299.71875 155.734375 300.140625 155.921875 300.140625 156.148438 C 300.140625 156.378906 299.71875 156.824219 299.199219 157.144531 C 298.683594 157.464844 298.261719 157.277344 298.261719 156.730469 Z M 300.140625 139.335938 C 300.140625 139.109375 300.5625 138.660156 301.082031 138.339844 C 301.597656 138.019531 302.023438 138.207031 302.023438 138.753906 C 302.023438 139.304688 301.597656 139.75 301.082031 139.75 C 300.5625 139.75 300.140625 139.566406 300.140625 139.335938 Z M 113.972656 134.691406 C 113.972656 133.914062 114.398438 133.019531 114.914062 132.699219 C 115.429688 132.378906 115.855469 132.753906 115.855469 133.527344 C 115.855469 134.304688 115.429688 135.199219 114.914062 135.519531 C 114.398438 135.839844 113.972656 135.464844 113.972656 134.691406 Z M 117.734375 134.636719 C 117.734375 134.40625 118.15625 133.960938 118.675781 133.640625 C 119.191406 133.320312 119.613281 133.507812 119.613281 134.054688 C 119.613281 134.601562 119.191406 135.050781 118.675781 135.050781 C 118.15625 135.050781 117.734375 134.863281 117.734375 134.636719 Z M 123.375 129.464844 C 123.375 128.917969 123.800781 128.46875 124.316406 128.46875 C 124.832031 128.46875 125.257812 128.65625 125.257812 128.882812 C 125.257812 129.109375 124.832031 129.558594 124.316406 129.878906 C 123.800781 130.199219 123.375 130.011719 123.375 129.464844 Z M 124.765625 120.910156 C 124.445312 120.398438 123.6875 120.273438 123.074219 120.640625 C 122.445312 121.019531 122.519531 120.621094 123.257812 119.714844 C 124.597656 118.0625 127.625 117.570312 128.429688 118.878906 C 128.6875 119.292969 128.097656 120.128906 127.121094 120.738281 C 125.972656 121.457031 125.140625 121.515625 124.765625 120.910156 Z M 249.074219 107.675781 C 248.140625 107.132812 246.742188 106.925781 245.972656 107.222656 C 245.179688 107.527344 244.820312 107.355469 245.144531 106.832031 C 245.460938 106.320312 245.199219 105.902344 244.566406 105.902344 C 242.480469 105.902344 244.609375 104.65625 247.15625 104.386719 C 250.085938 104.074219 255.320312 106.519531 254.515625 107.824219 C 253.789062 108.996094 251.222656 108.925781 249.074219 107.675781 Z M 249.074219 107.675781 " clip-rule="nonzero"/></clipPath><radialGradient gradientTransform="matrix(1.003029, 0, 0, 0.996971, -102.269503, -29.491984)" gradientUnits="userSpaceOnUse" r="263.356713" cx="232.102564" id="579b421670" cy="155.847675" fx="232.102564" fy="155.847675"><stop stop-opacity="1" stop-color="rgb(100%, 100%, 100%)" offset="0"/><stop stop-opacity="1" stop-color="rgb(100%, 100%, 100%)" offset="1"/></radialGradient></defs><g clip-path="url(#41a253dab5)"><path fill="#c5ddff" d="M 211.285156 0.00390625 C 105.136719 0.00390625 18.945312 86.195312 18.945312 192.511719 C 18.945312 226.214844 27.5 257.742188 42.757812 285.410156 C 43.09375 285.910156 43.261719 286.414062 43.597656 287.085938 L 62.714844 314.921875 L 62.878906 315.089844 L 213.632812 536.605469 L 362.371094 311.902344 C 388.363281 279.035156 403.957031 237.617188 403.957031 192.511719 C 403.957031 86.195312 317.597656 0.00390625 211.285156 0.00390625 Z M 96.921875 192.511719 C 96.921875 129.292969 148.234375 78.148438 211.285156 78.148438 C 274.503906 78.148438 325.816406 129.292969 325.816406 192.511719 C 325.816406 231.582031 306.195312 265.957031 276.347656 286.582031 C 257.902344 299.328125 235.597656 306.707031 211.453125 306.707031 C 186.96875 306.707031 163.996094 298.992188 145.550781 285.746094 C 116.207031 265.117188 96.921875 231.246094 96.921875 192.511719 Z M 96.921875 192.511719 " fill-opacity="1" fill-rule="nonzero"/></g><g clip-path="url(#3cef6cc6cd)"><g clip-path="url(#65d96ea9a8)"><path fill="url(#579b421670)" d="M 97.300781 79.21875 L 97.300781 306.160156 L 325.570312 306.160156 L 325.570312 79.21875 Z M 97.300781 79.21875 " fill-rule="nonzero"/></g></g><g fill="#ffffff" fill-opacity="1"><g transform="translate(354.900186, 523.618474)"><g><path d="M 28.46875 -16.40625 L 31.796875 -16.40625 L 31.796875 -3.890625 C 30.265625 -2.546875 28.445312 -1.515625 26.34375 -0.796875 C 24.25 -0.078125 22.046875 0.28125 19.734375 0.28125 C 16.453125 0.28125 13.5 -0.4375 10.875 -1.875 C 8.25 -3.3125 6.1875 -5.300781 4.6875 -7.84375 C 3.1875 -10.394531 2.4375 -13.25 2.4375 -16.40625 C 2.4375 -19.5625 3.1875 -22.414062 4.6875 -24.96875 C 6.1875 -27.519531 8.25 -29.515625 10.875 -30.953125 C 13.5 -32.390625 16.46875 -33.109375 19.78125 -33.109375 C 22.289062 -33.109375 24.59375 -32.707031 26.6875 -31.90625 C 28.78125 -31.113281 30.546875 -29.9375 31.984375 -28.375 L 29.828125 -26.171875 C 27.234375 -28.734375 23.929688 -30.015625 19.921875 -30.015625 C 17.265625 -30.015625 14.863281 -29.425781 12.71875 -28.25 C 10.582031 -27.082031 8.90625 -25.457031 7.6875 -23.375 C 6.46875 -21.289062 5.859375 -18.96875 5.859375 -16.40625 C 5.859375 -13.84375 6.46875 -11.53125 7.6875 -9.46875 C 8.90625 -7.40625 10.578125 -5.78125 12.703125 -4.59375 C 14.828125 -3.40625 17.21875 -2.8125 19.875 -2.8125 C 23.257812 -2.8125 26.125 -3.65625 28.46875 -5.34375 Z M 28.46875 -16.40625 "/></g></g></g><g fill="#ffffff" fill-opacity="1"><g transform="translate(403.323889, 523.618474)"><g><path d="M 28.5625 -3 L 28.5625 0 L 5.34375 0 L 5.34375 -32.828125 L 27.859375 -32.828125 L 27.859375 -29.828125 L 8.8125 -29.828125 L 8.8125 -18.140625 L 25.796875 -18.140625 L 25.796875 -15.1875 L 8.8125 -15.1875 L 8.8125 -3 Z M 28.5625 -3 "/></g></g></g><g fill="#ffffff" fill-opacity="1"><g transform="translate(446.872729, 523.618474)"><g><path d="M 19.6875 0.28125 C 16.4375 0.28125 13.488281 -0.441406 10.84375 -1.890625 C 8.207031 -3.347656 6.144531 -5.34375 4.65625 -7.875 C 3.175781 -10.40625 2.4375 -13.25 2.4375 -16.40625 C 2.4375 -19.5625 3.175781 -22.40625 4.65625 -24.9375 C 6.144531 -27.476562 8.207031 -29.472656 10.84375 -30.921875 C 13.488281 -32.378906 16.4375 -33.109375 19.6875 -33.109375 C 22.945312 -33.109375 25.878906 -32.390625 28.484375 -30.953125 C 31.097656 -29.515625 33.15625 -27.519531 34.65625 -24.96875 C 36.15625 -22.414062 36.90625 -19.5625 36.90625 -16.40625 C 36.90625 -13.25 36.15625 -10.394531 34.65625 -7.84375 C 33.15625 -5.300781 31.097656 -3.3125 28.484375 -1.875 C 25.878906 -0.4375 22.945312 0.28125 19.6875 0.28125 Z M 19.6875 -2.8125 C 22.289062 -2.8125 24.640625 -3.394531 26.734375 -4.5625 C 28.828125 -5.738281 30.46875 -7.363281 31.65625 -9.4375 C 32.84375 -11.519531 33.4375 -13.84375 33.4375 -16.40625 C 33.4375 -18.96875 32.84375 -21.289062 31.65625 -23.375 C 30.46875 -25.457031 28.828125 -27.082031 26.734375 -28.25 C 24.640625 -29.425781 22.289062 -30.015625 19.6875 -30.015625 C 17.09375 -30.015625 14.738281 -29.425781 12.625 -28.25 C 10.519531 -27.082031 8.863281 -25.457031 7.65625 -23.375 C 6.457031 -21.289062 5.859375 -18.96875 5.859375 -16.40625 C 5.859375 -13.84375 6.457031 -11.519531 7.65625 -9.4375 C 8.863281 -7.363281 10.519531 -5.738281 12.625 -4.5625 C 14.738281 -3.394531 17.09375 -2.8125 19.6875 -2.8125 Z M 19.6875 -2.8125 "/></g></g></g><g fill="#ffffff" fill-opacity="1"><g transform="translate(498.390122, 523.618474)"><g><path d="M 5.34375 -32.828125 L 8.8125 -32.828125 L 8.8125 -3 L 27.203125 -3 L 27.203125 0 L 5.34375 0 Z M 5.34375 -32.828125 "/></g></g></g><g fill="#ffffff" fill-opacity="1"><g transform="translate(538.189042, 523.618474)"><g><path d="M 19.6875 0.28125 C 16.4375 0.28125 13.488281 -0.441406 10.84375 -1.890625 C 8.207031 -3.347656 6.144531 -5.34375 4.65625 -7.875 C 3.175781 -10.40625 2.4375 -13.25 2.4375 -16.40625 C 2.4375 -19.5625 3.175781 -22.40625 4.65625 -24.9375 C 6.144531 -27.476562 8.207031 -29.472656 10.84375 -30.921875 C 13.488281 -32.378906 16.4375 -33.109375 19.6875 -33.109375 C 22.945312 -33.109375 25.878906 -32.390625 28.484375 -30.953125 C 31.097656 -29.515625 33.15625 -27.519531 34.65625 -24.96875 C 36.15625 -22.414062 36.90625 -19.5625 36.90625 -16.40625 C 36.90625 -13.25 36.15625 -10.394531 34.65625 -7.84375 C 33.15625 -5.300781 31.097656 -3.3125 28.484375 -1.875 C 25.878906 -0.4375 22.945312 0.28125 19.6875 0.28125 Z M 19.6875 -2.8125 C 22.289062 -2.8125 24.640625 -3.394531 26.734375 -4.5625 C 28.828125 -5.738281 30.46875 -7.363281 31.65625 -9.4375 C 32.84375 -11.519531 33.4375 -13.84375 33.4375 -16.40625 C 33.4375 -18.96875 32.84375 -21.289062 31.65625 -23.375 C 30.46875 -25.457031 28.828125 -27.082031 26.734375 -28.25 C 24.640625 -29.425781 22.289062 -30.015625 19.6875 -30.015625 C 17.09375 -30.015625 14.738281 -29.425781 12.625 -28.25 C 10.519531 -27.082031 8.863281 -25.457031 7.65625 -23.375 C 6.457031 -21.289062 5.859375 -18.96875 5.859375 -16.40625 C 5.859375 -13.84375 6.457031 -11.519531 7.65625 -9.4375 C 8.863281 -7.363281 10.519531 -5.738281 12.625 -4.5625 C 14.738281 -3.394531 17.09375 -2.8125 19.6875 -2.8125 Z M 19.6875 -2.8125 "/></g></g></g><g fill="#ffffff" fill-opacity="1"><g transform="translate(589.706423, 523.618474)"><g><path d="M 19.59375 0.28125 C 16.34375 0.28125 13.410156 -0.4375 10.796875 -1.875 C 8.191406 -3.3125 6.144531 -5.300781 4.65625 -7.84375 C 3.175781 -10.394531 2.4375 -13.25 2.4375 -16.40625 C 2.4375 -19.5625 3.175781 -22.414062 4.65625 -24.96875 C 6.144531 -27.519531 8.203125 -29.515625 10.828125 -30.953125 C 13.453125 -32.390625 16.390625 -33.109375 19.640625 -33.109375 C 22.085938 -33.109375 24.34375 -32.703125 26.40625 -31.890625 C 28.46875 -31.078125 30.21875 -29.890625 31.65625 -28.328125 L 29.453125 -26.125 C 26.890625 -28.71875 23.648438 -30.015625 19.734375 -30.015625 C 17.140625 -30.015625 14.78125 -29.421875 12.65625 -28.234375 C 10.53125 -27.046875 8.863281 -25.414062 7.65625 -23.34375 C 6.457031 -21.28125 5.859375 -18.96875 5.859375 -16.40625 C 5.859375 -13.84375 6.457031 -11.53125 7.65625 -9.46875 C 8.863281 -7.40625 10.53125 -5.78125 12.65625 -4.59375 C 14.78125 -3.40625 17.140625 -2.8125 19.734375 -2.8125 C 23.679688 -2.8125 26.921875 -4.125 29.453125 -6.75 L 31.65625 -4.546875 C 30.21875 -2.984375 28.457031 -1.785156 26.375 -0.953125 C 24.289062 -0.128906 22.03125 0.28125 19.59375 0.28125 Z M 19.59375 0.28125 "/></g></g></g><g fill="#ffffff" fill-opacity="1"><g transform="translate(635.598958, 523.618474)"><g><path d="M 25.9375 -8.765625 L 7.640625 -8.765625 L 3.703125 0 L 0.09375 0 L 15.09375 -32.828125 L 18.515625 -32.828125 L 33.53125 0 L 29.875 0 Z M 24.671875 -11.578125 L 16.78125 -29.21875 L 8.90625 -11.578125 Z M 24.671875 -11.578125 "/></g></g></g><g fill="#ffffff" fill-opacity="1"><g transform="translate(681.39774, 523.618474)"><g><path d="M 11.71875 -29.828125 L 0.1875 -29.828125 L 0.1875 -32.828125 L 26.734375 -32.828125 L 26.734375 -29.828125 L 15.1875 -29.828125 L 15.1875 0 L 11.71875 0 Z M 11.71875 -29.828125 "/></g></g></g><g fill="#ffffff" fill-opacity="1"><g transform="translate(720.493532, 523.618474)"><g><path d="M 5.34375 -32.828125 L 8.8125 -32.828125 L 8.8125 0 L 5.34375 0 Z M 5.34375 -32.828125 "/></g></g></g><g fill="#ffffff" fill-opacity="1"><g transform="translate(746.839621, 523.618474)"><g><path d="M 19.6875 0.28125 C 16.4375 0.28125 13.488281 -0.441406 10.84375 -1.890625 C 8.207031 -3.347656 6.144531 -5.34375 4.65625 -7.875 C 3.175781 -10.40625 2.4375 -13.25 2.4375 -16.40625 C 2.4375 -19.5625 3.175781 -22.40625 4.65625 -24.9375 C 6.144531 -27.476562 8.207031 -29.472656 10.84375 -30.921875 C 13.488281 -32.378906 16.4375 -33.109375 19.6875 -33.109375 C 22.945312 -33.109375 25.878906 -32.390625 28.484375 -30.953125 C 31.097656 -29.515625 33.15625 -27.519531 34.65625 -24.96875 C 36.15625 -22.414062 36.90625 -19.5625 36.90625 -16.40625 C 36.90625 -13.25 36.15625 -10.394531 34.65625 -7.84375 C 33.15625 -5.300781 31.097656 -3.3125 28.484375 -1.875 C 25.878906 -0.4375 22.945312 0.28125 19.6875 0.28125 Z M 19.6875 -2.8125 C 22.289062 -2.8125 24.640625 -3.394531 26.734375 -4.5625 C 28.828125 -5.738281 30.46875 -7.363281 31.65625 -9.4375 C 32.84375 -11.519531 33.4375 -13.84375 33.4375 -16.40625 C 33.4375 -18.96875 32.84375 -21.289062 31.65625 -23.375 C 30.46875 -25.457031 28.828125 -27.082031 26.734375 -28.25 C 24.640625 -29.425781 22.289062 -30.015625 19.6875 -30.015625 C 17.09375 -30.015625 14.738281 -29.425781 12.625 -28.25 C 10.519531 -27.082031 8.863281 -25.457031 7.65625 -23.375 C 6.457031 -21.289062 5.859375 -18.96875 5.859375 -16.40625 C 5.859375 -13.84375 6.457031 -11.519531 7.65625 -9.4375 C 8.863281 -7.363281 10.519531 -5.738281 12.625 -4.5625 C 14.738281 -3.394531 17.09375 -2.8125 19.6875 -2.8125 Z M 19.6875 -2.8125 "/></g></g></g><g fill="#ffffff" fill-opacity="1"><g transform="translate(798.357025, 523.618474)"><g><path d="M 32.78125 -32.828125 L 32.78125 0 L 29.921875 0 L 8.8125 -26.640625 L 8.8125 0 L 5.34375 0 L 5.34375 -32.828125 L 8.203125 -32.828125 L 29.359375 -6.1875 L 29.359375 -32.828125 Z M 32.78125 -32.828125 "/></g></g></g><g fill="#ffffff" fill-opacity="1"><g transform="translate(848.655725, 523.618474)"><g/></g></g><g fill="#ffffff" fill-opacity="1"><g transform="translate(873.126902, 523.618474)"><g><path d="M 25.9375 -8.765625 L 7.640625 -8.765625 L 3.703125 0 L 0.09375 0 L 15.09375 -32.828125 L 18.515625 -32.828125 L 33.53125 0 L 29.875 0 Z M 24.671875 -11.578125 L 16.78125 -29.21875 L 8.90625 -11.578125 Z M 24.671875 -11.578125 "/></g></g></g><g fill="#ffffff" fill-opacity="1"><g transform="translate(918.925706, 523.618474)"><g><path d="M 17.625 -32.828125 C 21.820312 -32.828125 25.109375 -31.828125 27.484375 -29.828125 C 29.859375 -27.828125 31.046875 -25.070312 31.046875 -21.5625 C 31.046875 -18.0625 29.859375 -15.316406 27.484375 -13.328125 C 25.109375 -11.347656 21.820312 -10.359375 17.625 -10.359375 L 8.8125 -10.359375 L 8.8125 0 L 5.34375 0 L 5.34375 -32.828125 Z M 17.53125 -13.40625 C 20.78125 -13.40625 23.265625 -14.113281 24.984375 -15.53125 C 26.710938 -16.957031 27.578125 -18.96875 27.578125 -21.5625 C 27.578125 -24.226562 26.710938 -26.269531 24.984375 -27.6875 C 23.265625 -29.113281 20.78125 -29.828125 17.53125 -29.828125 L 8.8125 -29.828125 L 8.8125 -13.40625 Z M 17.53125 -13.40625 "/></g></g></g><g fill="#ffffff" fill-opacity="1"><g transform="translate(964.771364, 523.618474)"><g><path d="M 17.625 -32.828125 C 21.820312 -32.828125 25.109375 -31.828125 27.484375 -29.828125 C 29.859375 -27.828125 31.046875 -25.070312 31.046875 -21.5625 C 31.046875 -18.0625 29.859375 -15.316406 27.484375 -13.328125 C 25.109375 -11.347656 21.820312 -10.359375 17.625 -10.359375 L 8.8125 -10.359375 L 8.8125 0 L 5.34375 0 L 5.34375 -32.828125 Z M 17.53125 -13.40625 C 20.78125 -13.40625 23.265625 -14.113281 24.984375 -15.53125 C 26.710938 -16.957031 27.578125 -18.96875 27.578125 -21.5625 C 27.578125 -24.226562 26.710938 -26.269531 24.984375 -27.6875 C 23.265625 -29.113281 20.78125 -29.828125 17.53125 -29.828125 L 8.8125 -29.828125 L 8.8125 -13.40625 Z M 17.53125 -13.40625 "/></g></g></g><g fill="#ffffff" fill-opacity="1"><g transform="translate(1010.617022, 523.618474)"><g><path d="M 14.390625 0.28125 C 11.953125 0.28125 9.613281 -0.109375 7.375 -0.890625 C 5.144531 -1.671875 3.421875 -2.703125 2.203125 -3.984375 L 3.5625 -6.65625 C 4.75 -5.46875 6.328125 -4.503906 8.296875 -3.765625 C 10.265625 -3.035156 12.296875 -2.671875 14.390625 -2.671875 C 17.328125 -2.671875 19.53125 -3.207031 21 -4.28125 C 22.46875 -5.363281 23.203125 -6.765625 23.203125 -8.484375 C 23.203125 -9.796875 22.800781 -10.84375 22 -11.625 C 21.207031 -12.40625 20.234375 -13.003906 19.078125 -13.421875 C 17.921875 -13.847656 16.3125 -14.3125 14.25 -14.8125 C 11.78125 -15.4375 9.8125 -16.035156 8.34375 -16.609375 C 6.875 -17.191406 5.613281 -18.078125 4.5625 -19.265625 C 3.519531 -20.453125 3 -22.066406 3 -24.109375 C 3 -25.765625 3.4375 -27.269531 4.3125 -28.625 C 5.1875 -29.988281 6.53125 -31.078125 8.34375 -31.890625 C 10.15625 -32.703125 12.40625 -33.109375 15.09375 -33.109375 C 16.96875 -33.109375 18.804688 -32.847656 20.609375 -32.328125 C 22.410156 -31.816406 23.96875 -31.109375 25.28125 -30.203125 L 24.109375 -27.4375 C 22.722656 -28.34375 21.25 -29.019531 19.6875 -29.46875 C 18.125 -29.925781 16.59375 -30.15625 15.09375 -30.15625 C 12.21875 -30.15625 10.050781 -29.597656 8.59375 -28.484375 C 7.144531 -27.378906 6.421875 -25.953125 6.421875 -24.203125 C 6.421875 -22.878906 6.816406 -21.816406 7.609375 -21.015625 C 8.410156 -20.222656 9.410156 -19.613281 10.609375 -19.1875 C 11.816406 -18.769531 13.4375 -18.3125 15.46875 -17.8125 C 17.875 -17.21875 19.820312 -16.628906 21.3125 -16.046875 C 22.800781 -15.472656 24.0625 -14.597656 25.09375 -13.421875 C 26.125 -12.253906 26.640625 -10.671875 26.640625 -8.671875 C 26.640625 -7.015625 26.191406 -5.503906 25.296875 -4.140625 C 24.410156 -2.785156 23.039062 -1.707031 21.1875 -0.90625 C 19.34375 -0.113281 17.078125 0.28125 14.390625 0.28125 Z M 14.390625 0.28125 "/></g></g></g><g fill="#7887ab" fill-opacity="1"><g transform="translate(226.033838, 420.062253)"><g><path d="M 117.4375 -113.390625 L 117.4375 0 L 95.890625 0 L 39.359375 -68.84375 L 39.359375 0 L 13.4375 0 L 13.4375 -113.390625 L 35.15625 -113.390625 L 91.515625 -44.546875 L 91.515625 -113.390625 Z M 117.4375 -113.390625 "/></g></g></g><g fill="#7887ab" fill-opacity="1"><g transform="translate(365.018888, 420.062253)"><g><path d="M 97.03125 -43.25 C 97.03125 -42.925781 96.867188 -40.660156 96.546875 -36.453125 L 30.609375 -36.453125 C 31.796875 -31.046875 34.601562 -26.773438 39.03125 -23.640625 C 43.457031 -20.515625 48.96875 -18.953125 55.5625 -18.953125 C 60.09375 -18.953125 64.113281 -19.625 67.625 -20.96875 C 71.132812 -22.320312 74.398438 -24.457031 77.421875 -27.375 L 90.875 -12.796875 C 82.664062 -3.398438 70.675781 1.296875 54.90625 1.296875 C 45.082031 1.296875 36.390625 -0.617188 28.828125 -4.453125 C 21.273438 -8.285156 15.445312 -13.601562 11.34375 -20.40625 C 7.238281 -27.207031 5.1875 -34.929688 5.1875 -43.578125 C 5.1875 -52.109375 7.207031 -59.800781 11.25 -66.65625 C 15.300781 -73.507812 20.863281 -78.851562 27.9375 -82.6875 C 35.007812 -86.519531 42.921875 -88.4375 51.671875 -88.4375 C 60.203125 -88.4375 67.921875 -86.597656 74.828125 -82.921875 C 81.742188 -79.253906 87.171875 -73.992188 91.109375 -67.140625 C 95.054688 -60.285156 97.03125 -52.320312 97.03125 -43.25 Z M 51.828125 -69.328125 C 46.109375 -69.328125 41.304688 -67.707031 37.421875 -64.46875 C 33.535156 -61.226562 31.160156 -56.800781 30.296875 -51.1875 L 73.21875 -51.1875 C 72.351562 -56.695312 69.976562 -61.097656 66.09375 -64.390625 C 62.207031 -67.679688 57.453125 -69.328125 51.828125 -69.328125 Z M 51.828125 -69.328125 "/></g></g></g><g fill="#7887ab" fill-opacity="1"><g transform="translate(475.332383, 420.062253)"><g><path d="M 98.15625 -87.140625 L 61.390625 0 L 35.3125 0 L -1.296875 -87.140625 L 24.78125 -87.140625 L 48.921875 -27.859375 L 73.859375 -87.140625 Z M 98.15625 -87.140625 "/></g></g></g><g fill="#7887ab" fill-opacity="1"><g transform="translate(580.300356, 420.062253)"><g><path d="M 97.03125 -43.25 C 97.03125 -42.925781 96.867188 -40.660156 96.546875 -36.453125 L 30.609375 -36.453125 C 31.796875 -31.046875 34.601562 -26.773438 39.03125 -23.640625 C 43.457031 -20.515625 48.96875 -18.953125 55.5625 -18.953125 C 60.09375 -18.953125 64.113281 -19.625 67.625 -20.96875 C 71.132812 -22.320312 74.398438 -24.457031 77.421875 -27.375 L 90.875 -12.796875 C 82.664062 -3.398438 70.675781 1.296875 54.90625 1.296875 C 45.082031 1.296875 36.390625 -0.617188 28.828125 -4.453125 C 21.273438 -8.285156 15.445312 -13.601562 11.34375 -20.40625 C 7.238281 -27.207031 5.1875 -34.929688 5.1875 -43.578125 C 5.1875 -52.109375 7.207031 -59.800781 11.25 -66.65625 C 15.300781 -73.507812 20.863281 -78.851562 27.9375 -82.6875 C 35.007812 -86.519531 42.921875 -88.4375 51.671875 -88.4375 C 60.203125 -88.4375 67.921875 -86.597656 74.828125 -82.921875 C 81.742188 -79.253906 87.171875 -73.992188 91.109375 -67.140625 C 95.054688 -60.285156 97.03125 -52.320312 97.03125 -43.25 Z M 51.828125 -69.328125 C 46.109375 -69.328125 41.304688 -67.707031 37.421875 -64.46875 C 33.535156 -61.226562 31.160156 -56.800781 30.296875 -51.1875 L 73.21875 -51.1875 C 72.351562 -56.695312 69.976562 -61.097656 66.09375 -64.390625 C 62.207031 -67.679688 57.453125 -69.328125 51.828125 -69.328125 Z M 51.828125 -69.328125 "/></g></g></g><g fill="#7887ab" fill-opacity="1"><g transform="translate(690.61385, 420.062253)"><g><path d="M 35.796875 -75.640625 C 38.816406 -79.859375 42.890625 -83.046875 48.015625 -85.203125 C 53.148438 -87.359375 59.066406 -88.4375 65.765625 -88.4375 L 65.765625 -65.125 C 62.953125 -65.332031 61.0625 -65.4375 60.09375 -65.4375 C 52.863281 -65.4375 47.195312 -63.410156 43.09375 -59.359375 C 38.988281 -55.316406 36.9375 -49.242188 36.9375 -41.140625 L 36.9375 0 L 11.65625 0 L 11.65625 -87.140625 L 35.796875 -87.140625 Z M 35.796875 -75.640625 "/></g></g></g><g fill="#ffffff" fill-opacity="1"><g transform="translate(760.454338, 420.062253)"><g><path d="M 19.765625 -113.390625 L 28.015625 -113.390625 L 28.015625 -7.453125 L 93.296875 -7.453125 L 93.296875 0 L 19.765625 0 Z M 19.765625 -113.390625 "/></g></g></g><g fill="#ffffff" fill-opacity="1"><g transform="translate(866.556604, 420.062253)"><g><path d="M 50.21875 0.640625 C 42.226562 0.640625 35.019531 -1.191406 28.59375 -4.859375 C 22.164062 -8.523438 17.113281 -13.625 13.4375 -20.15625 C 9.769531 -26.695312 7.9375 -34.070312 7.9375 -42.28125 C 7.9375 -50.488281 9.769531 -57.859375 13.4375 -64.390625 C 17.113281 -70.921875 22.164062 -76.019531 28.59375 -79.6875 C 35.019531 -83.363281 42.226562 -85.203125 50.21875 -85.203125 C 58.207031 -85.203125 65.414062 -83.363281 71.84375 -79.6875 C 78.269531 -76.019531 83.316406 -70.921875 86.984375 -64.390625 C 90.660156 -57.859375 92.5 -50.488281 92.5 -42.28125 C 92.5 -34.070312 90.660156 -26.695312 86.984375 -20.15625 C 83.316406 -13.625 78.269531 -8.523438 71.84375 -4.859375 C 65.414062 -1.191406 58.207031 0.640625 50.21875 0.640625 Z M 50.21875 -6.640625 C 56.695312 -6.640625 62.5 -8.148438 67.625 -11.171875 C 72.757812 -14.203125 76.8125 -18.414062 79.78125 -23.8125 C 82.75 -29.207031 84.234375 -35.363281 84.234375 -42.28125 C 84.234375 -49.1875 82.75 -55.335938 79.78125 -60.734375 C 76.8125 -66.140625 72.757812 -70.351562 67.625 -73.375 C 62.5 -76.40625 56.695312 -77.921875 50.21875 -77.921875 C 43.738281 -77.921875 37.929688 -76.40625 32.796875 -73.375 C 27.671875 -70.351562 23.625 -66.140625 20.65625 -60.734375 C 17.6875 -55.335938 16.203125 -49.1875 16.203125 -42.28125 C 16.203125 -35.363281 17.6875 -29.207031 20.65625 -23.8125 C 23.625 -18.414062 27.671875 -14.203125 32.796875 -11.171875 C 37.929688 -8.148438 43.738281 -6.640625 50.21875 -6.640625 Z M 50.21875 -6.640625 "/></g></g></g><g fill="#ffffff" fill-opacity="1"><g transform="translate(978.328368, 420.062253)"><g><path d="M 38.546875 0.640625 C 31.742188 0.640625 25.265625 -0.378906 19.109375 -2.421875 C 12.953125 -4.472656 8.148438 -7.066406 4.703125 -10.203125 L 8.421875 -16.6875 C 11.878906 -13.769531 16.332031 -11.335938 21.78125 -9.390625 C 27.238281 -7.453125 32.9375 -6.484375 38.875 -6.484375 C 47.40625 -6.484375 53.695312 -7.882812 57.75 -10.6875 C 61.800781 -13.5 63.828125 -17.390625 63.828125 -22.359375 C 63.828125 -25.921875 62.71875 -28.726562 60.5 -30.78125 C 58.289062 -32.832031 55.566406 -34.34375 52.328125 -35.3125 C 49.085938 -36.28125 44.601562 -37.304688 38.875 -38.390625 C 32.175781 -39.578125 26.773438 -40.875 22.671875 -42.28125 C 18.566406 -43.6875 15.054688 -45.953125 12.140625 -49.078125 C 9.234375 -52.210938 7.78125 -56.535156 7.78125 -62.046875 C 7.78125 -68.734375 10.554688 -74.265625 16.109375 -78.640625 C 21.671875 -83.015625 29.582031 -85.203125 39.84375 -85.203125 C 45.25 -85.203125 50.597656 -84.445312 55.890625 -82.9375 C 61.179688 -81.425781 65.5 -79.425781 68.84375 -76.9375 L 65.125 -70.46875 C 61.664062 -72.945312 57.722656 -74.832031 53.296875 -76.125 C 48.867188 -77.425781 44.332031 -78.078125 39.6875 -78.078125 C 31.800781 -78.078125 25.859375 -76.617188 21.859375 -73.703125 C 17.867188 -70.785156 15.875 -66.953125 15.875 -62.203125 C 15.875 -58.421875 17.003906 -55.476562 19.265625 -53.375 C 21.535156 -51.269531 24.316406 -49.703125 27.609375 -48.671875 C 30.910156 -47.648438 35.53125 -46.546875 41.46875 -45.359375 C 48.050781 -44.171875 53.367188 -42.898438 57.421875 -41.546875 C 61.472656 -40.203125 64.898438 -38.015625 67.703125 -34.984375 C 70.515625 -31.960938 71.921875 -27.804688 71.921875 -22.515625 C 71.921875 -15.492188 69.003906 -9.878906 63.171875 -5.671875 C 57.335938 -1.460938 49.128906 0.640625 38.546875 0.640625 Z M 38.546875 0.640625 "/></g></g></g><g fill="#ffffff" fill-opacity="1"><g transform="translate(1067.098107, 420.062253)"><g><path d="M 59.125 -5.34375 C 57.070312 -3.40625 54.503906 -1.921875 51.421875 -0.890625 C 48.347656 0.128906 45.140625 0.640625 41.796875 0.640625 C 34.453125 0.640625 28.78125 -1.378906 24.78125 -5.421875 C 20.789062 -9.472656 18.796875 -15.117188 18.796875 -22.359375 L 18.796875 -77.59375 L 3.234375 -77.59375 L 3.234375 -84.5625 L 18.796875 -84.5625 L 18.796875 -103.015625 L 26.890625 -103.015625 L 26.890625 -84.5625 L 53.78125 -84.5625 L 53.78125 -77.59375 L 26.890625 -77.59375 L 26.890625 -23.15625 C 26.890625 -17.65625 28.210938 -13.472656 30.859375 -10.609375 C 33.503906 -7.742188 37.421875 -6.3125 42.609375 -6.3125 C 47.898438 -6.3125 52.269531 -7.878906 55.71875 -11.015625 Z M 59.125 -5.34375 "/></g></g></g></svg>