<svg xmlns="http://www.w3.org/2000/svg" xmlns:xlink="http://www.w3.org/1999/xlink" width="500" zoomAndPan="magnify" viewBox="0 0 375 374.999991" height="500" preserveAspectRatio="xMidYMid meet" version="1.0"><path fill="#caddff" d="M 12.648438 296.050781 C 22.988281 321.179688 47.160156 333.066406 62.609375 340.660156 C 123.5 370.601562 216.007812 367.085938 282.601562 312.46875 C 298.183594 299.6875 374.996094 232.730469 357.121094 142.0625 C 341.316406 61.910156 261.800781 15.414062 194.832031 9.234375 C 139.351562 4.117188 66.898438 24.347656 41.289062 73.246094 C 25.183594 103.992188 44.53125 113.757812 31.355469 183.425781 C 19.957031 243.730469 -0.00390625 265.316406 12.648438 296.050781 " fill-opacity="1" fill-rule="nonzero"/><path fill="#000000" d="M 128.210938 19.179688 C 127.859375 19.179688 127.574219 18.898438 127.574219 18.546875 L 127.574219 15.265625 C 127.574219 14.914062 127.859375 14.632812 128.210938 14.632812 C 128.5625 14.632812 128.84375 14.914062 128.84375 15.265625 L 128.84375 18.546875 C 128.84375 18.898438 128.5625 19.179688 128.210938 19.179688 " fill-opacity="1" fill-rule="nonzero"/><path fill="#000000" d="M 128.210938 26.820312 C 127.859375 26.820312 127.578125 26.535156 127.578125 26.183594 L 127.578125 22.90625 C 127.578125 22.554688 127.859375 22.273438 128.210938 22.273438 C 128.5625 22.273438 128.847656 22.554688 128.847656 22.90625 L 128.847656 26.183594 C 128.847656 26.535156 128.5625 26.820312 128.210938 26.820312 " fill-opacity="1" fill-rule="nonzero"/><path fill="#000000" d="M 126.03125 21.359375 L 122.746094 21.359375 C 122.394531 21.359375 122.113281 21.074219 122.113281 20.726562 C 122.113281 20.375 122.394531 20.089844 122.746094 20.089844 L 126.03125 20.089844 C 126.378906 20.089844 126.664062 20.375 126.664062 20.726562 C 126.664062 21.074219 126.378906 21.359375 126.03125 21.359375 " fill-opacity="1" fill-rule="nonzero"/><path fill="#000000" d="M 133.675781 21.359375 L 130.394531 21.359375 C 130.042969 21.359375 129.757812 21.074219 129.757812 20.726562 C 129.757812 20.375 130.042969 20.089844 130.394531 20.089844 L 133.675781 20.089844 C 134.027344 20.089844 134.3125 20.375 134.3125 20.726562 C 134.3125 21.074219 134.027344 21.359375 133.675781 21.359375 " fill-opacity="1" fill-rule="nonzero"/><path fill="#000000" d="M 21.8125 272.875 C 21.464844 272.875 21.179688 272.589844 21.179688 272.238281 L 21.179688 268.957031 C 21.179688 268.609375 21.464844 268.324219 21.8125 268.324219 C 22.164062 268.324219 22.449219 268.609375 22.449219 268.957031 L 22.449219 272.238281 C 22.449219 272.589844 22.164062 272.875 21.8125 272.875 " fill-opacity="1" fill-rule="nonzero"/><path fill="#000000" d="M 21.8125 280.511719 C 21.464844 280.511719 21.179688 280.230469 21.179688 279.878906 L 21.179688 276.601562 C 21.179688 276.25 21.464844 275.964844 21.8125 275.964844 C 22.164062 275.964844 22.449219 276.25 22.449219 276.601562 L 22.449219 279.878906 C 22.449219 280.230469 22.164062 280.511719 21.8125 280.511719 " fill-opacity="1" fill-rule="nonzero"/><path fill="#000000" d="M 19.632812 275.054688 L 16.347656 275.054688 C 15.996094 275.054688 15.714844 274.769531 15.714844 274.417969 C 15.714844 274.070312 15.996094 273.785156 16.347656 273.785156 L 19.632812 273.785156 C 19.980469 273.785156 20.265625 274.070312 20.265625 274.417969 C 20.265625 274.769531 19.980469 275.054688 19.632812 275.054688 " fill-opacity="1" fill-rule="nonzero"/><path fill="#000000" d="M 27.277344 275.054688 L 23.996094 275.054688 C 23.644531 275.054688 23.359375 274.769531 23.359375 274.417969 C 23.359375 274.070312 23.644531 273.785156 23.996094 273.785156 L 27.277344 273.785156 C 27.628906 273.785156 27.914062 274.070312 27.914062 274.417969 C 27.914062 274.769531 27.628906 275.054688 27.277344 275.054688 " fill-opacity="1" fill-rule="nonzero"/><path fill="#000000" d="M 148.65625 14.78125 C 146.75 15.636719 145.882812 17.914062 146.726562 19.859375 C 147.132812 20.808594 147.882812 21.535156 148.832031 21.90625 C 149.757812 22.261719 150.769531 22.238281 151.679688 21.828125 C 153.582031 20.976562 154.449219 18.695312 153.609375 16.75 C 153.199219 15.800781 152.449219 15.074219 151.503906 14.707031 C 150.574219 14.347656 149.5625 14.371094 148.65625 14.78125 Z M 150.167969 23.425781 C 149.5625 23.425781 148.953125 23.3125 148.371094 23.085938 C 147.101562 22.59375 146.105469 21.625 145.558594 20.363281 C 144.445312 17.78125 145.601562 14.761719 148.136719 13.621094 C 149.355469 13.074219 150.714844 13.039062 151.960938 13.523438 C 153.230469 14.015625 154.230469 14.984375 154.773438 16.25 C 155.886719 18.828125 154.734375 21.847656 152.199219 22.988281 C 151.546875 23.277344 150.859375 23.425781 150.167969 23.425781 " fill-opacity="1" fill-rule="nonzero"/><path fill="#000000" d="M 233.101562 310.878906 C 232.835938 310.878906 232.585938 310.710938 232.5 310.441406 C 232.390625 310.109375 232.574219 309.75 232.90625 309.644531 C 233.183594 309.554688 260.691406 300.355469 280.992188 271.472656 C 281.191406 271.183594 281.589844 271.117188 281.875 271.316406 C 282.164062 271.519531 282.234375 271.914062 282.03125 272.199219 C 261.476562 301.445312 233.578125 310.757812 233.296875 310.847656 C 233.234375 310.871094 233.167969 310.878906 233.101562 310.878906 " fill-opacity="1" fill-rule="nonzero"/><path fill="#000000" d="M 219.910156 325.316406 C 219.589844 325.316406 219.3125 325.070312 219.277344 324.746094 C 219.242188 324.394531 219.5 324.085938 219.847656 324.050781 C 248.875 321.199219 268.429688 299.152344 268.621094 298.933594 C 268.855469 298.667969 269.253906 298.640625 269.519531 298.871094 C 269.785156 299.101562 269.808594 299.503906 269.582031 299.765625 C 269.382812 299.992188 249.496094 322.414062 219.972656 325.3125 C 219.949219 325.316406 219.929688 325.316406 219.910156 325.316406 " fill-opacity="1" fill-rule="nonzero"/><path fill="#000000" d="M 282.957031 285.652344 L 282.960938 285.652344 Z M 284.726562 285.90625 C 284.210938 285.90625 283.699219 286.015625 283.214844 286.230469 C 281.3125 287.085938 280.445312 289.363281 281.285156 291.3125 C 281.695312 292.257812 282.445312 292.984375 283.390625 293.355469 C 284.320312 293.714844 285.328125 293.6875 286.238281 293.28125 C 288.144531 292.425781 289.007812 290.144531 288.167969 288.199219 C 287.757812 287.25 287.011719 286.527344 286.0625 286.160156 C 285.628906 285.988281 285.175781 285.90625 284.726562 285.90625 Z M 284.730469 294.875 C 284.121094 294.875 283.515625 294.761719 282.929688 294.535156 C 281.664062 294.042969 280.664062 293.078125 280.117188 291.8125 C 279.007812 289.234375 280.160156 286.210938 282.695312 285.074219 C 283.917969 284.527344 285.277344 284.492188 286.523438 284.976562 C 287.789062 285.46875 288.789062 286.433594 289.335938 287.699219 C 290.449219 290.277344 289.292969 293.300781 286.757812 294.4375 C 286.105469 294.730469 285.417969 294.875 284.730469 294.875 " fill-opacity="1" fill-rule="nonzero"/><path fill="#99b9ff" d="M 132.535156 224.984375 L 23.882812 224.984375 L 23.882812 73.800781 L 132.535156 73.800781 L 132.535156 224.984375 " fill-opacity="1" fill-rule="nonzero"/><path fill="#000000" d="M 24.515625 224.351562 L 131.898438 224.351562 L 131.898438 74.433594 L 24.515625 74.433594 Z M 132.535156 225.621094 L 23.882812 225.621094 C 23.53125 225.621094 23.246094 225.335938 23.246094 224.984375 L 23.246094 73.796875 C 23.246094 73.449219 23.53125 73.164062 23.882812 73.164062 L 132.535156 73.164062 C 132.886719 73.164062 133.167969 73.449219 133.167969 73.796875 L 133.167969 224.984375 C 133.167969 225.335938 132.886719 225.621094 132.535156 225.621094 " fill-opacity="1" fill-rule="nonzero"/><path fill="#99b9ff" d="M 347.75 226.683594 L 244.878906 226.683594 L 244.878906 75.496094 L 347.75 75.496094 L 347.75 226.683594 " fill-opacity="1" fill-rule="nonzero"/><path fill="#000000" d="M 245.515625 226.050781 L 347.117188 226.050781 L 347.117188 76.128906 L 245.515625 76.128906 Z M 347.75 227.316406 L 244.878906 227.316406 C 244.527344 227.316406 244.246094 227.035156 244.246094 226.679688 L 244.246094 75.496094 C 244.246094 75.144531 244.527344 74.863281 244.878906 74.863281 L 347.75 74.863281 C 348.101562 74.863281 348.386719 75.144531 348.386719 75.496094 L 348.386719 226.679688 C 348.386719 227.035156 348.101562 227.316406 347.75 227.316406 " fill-opacity="1" fill-rule="nonzero"/><path fill="#5479f7" d="M 349.257812 230.683594 L 22.59375 230.683594 L 22.59375 219.367188 L 349.257812 219.367188 L 349.257812 230.683594 " fill-opacity="1" fill-rule="nonzero"/><path fill="#caddff" d="M 343.0625 209.914062 L 307.164062 209.914062 L 307.164062 80.359375 L 343.0625 80.359375 L 343.0625 209.914062 " fill-opacity="1" fill-rule="nonzero"/><path fill="#5479f7" d="M 307.800781 209.28125 L 342.429688 209.28125 L 342.429688 80.992188 L 307.800781 80.992188 Z M 343.699219 210.550781 L 306.527344 210.550781 L 306.527344 79.722656 L 343.699219 79.722656 L 343.699219 210.550781 " fill-opacity="1" fill-rule="nonzero"/><path fill="#ffffff" d="M 310.597656 204.496094 C 310.441406 204.496094 310.285156 204.4375 310.160156 204.320312 C 309.90625 204.078125 309.898438 203.675781 310.140625 203.421875 L 321.976562 191.074219 C 322.222656 190.820312 322.625 190.808594 322.878906 191.050781 C 323.128906 191.296875 323.140625 191.695312 322.898438 191.949219 L 311.058594 204.300781 C 310.933594 204.429688 310.765625 204.496094 310.597656 204.496094 " fill-opacity="1" fill-rule="nonzero"/><path fill="#ffffff" d="M 310.035156 195.746094 C 309.878906 195.746094 309.722656 195.6875 309.597656 195.570312 C 309.34375 195.332031 309.332031 194.929688 309.574219 194.671875 L 320.144531 183.476562 C 320.386719 183.222656 320.789062 183.210938 321.042969 183.449219 C 321.296875 183.691406 321.308594 184.09375 321.066406 184.347656 L 310.496094 195.546875 C 310.371094 195.675781 310.203125 195.746094 310.035156 195.746094 " fill-opacity="1" fill-rule="nonzero"/><path fill="#ffffff" d="M 328.925781 174.007812 C 328.765625 174.007812 328.609375 173.953125 328.484375 173.832031 C 328.230469 173.589844 328.222656 173.191406 328.464844 172.933594 L 340.304688 160.585938 C 340.546875 160.332031 340.949219 160.324219 341.203125 160.566406 C 341.457031 160.808594 341.464844 161.210938 341.222656 161.464844 L 329.382812 173.8125 C 329.257812 173.945312 329.089844 174.007812 328.925781 174.007812 " fill-opacity="1" fill-rule="nonzero"/><path fill="#ffffff" d="M 328.355469 165.257812 C 328.203125 165.257812 328.042969 165.199219 327.921875 165.085938 C 327.664062 164.847656 327.652344 164.445312 327.894531 164.191406 L 338.46875 152.992188 C 338.707031 152.738281 339.109375 152.726562 339.367188 152.964844 C 339.621094 153.203125 339.632812 153.605469 339.390625 153.863281 L 328.820312 165.058594 C 328.695312 165.191406 328.527344 165.257812 328.355469 165.257812 " fill-opacity="1" fill-rule="nonzero"/><path fill="#5479f7" d="M 325.5625 209.9375 C 325.210938 209.9375 324.929688 209.652344 324.929688 209.304688 L 325.140625 91.761719 C 325.140625 91.410156 325.425781 91.125 325.777344 91.125 C 326.128906 91.128906 326.410156 91.410156 326.410156 91.761719 L 326.199219 209.304688 C 326.199219 209.65625 325.914062 209.9375 325.5625 209.9375 " fill-opacity="1" fill-rule="nonzero"/><path fill="#5479f7" d="M 307.371094 118.996094 C 307.019531 118.996094 306.738281 118.714844 306.734375 118.363281 C 306.734375 118.011719 307.015625 117.730469 307.367188 117.726562 L 343.121094 117.554688 C 343.125 117.554688 343.125 117.554688 343.125 117.554688 C 343.476562 117.554688 343.757812 117.835938 343.757812 118.183594 C 343.761719 118.535156 343.480469 118.820312 343.128906 118.820312 L 307.375 118.996094 C 307.371094 118.996094 307.371094 118.996094 307.371094 118.996094 " fill-opacity="1" fill-rule="nonzero"/><path fill="#5479f7" d="M 307.367188 179.1875 C 307.019531 179.1875 306.734375 178.90625 306.734375 178.558594 C 306.730469 178.210938 307.011719 177.921875 307.363281 177.921875 L 343.117188 177.59375 C 343.480469 177.589844 343.757812 177.871094 343.757812 178.222656 C 343.761719 178.570312 343.480469 178.859375 343.128906 178.863281 L 307.375 179.1875 C 307.371094 179.1875 307.371094 179.1875 307.367188 179.1875 " fill-opacity="1" fill-rule="nonzero"/><path fill="#5479f7" d="M 307.160156 149.875 C 306.808594 149.875 306.523438 149.59375 306.523438 149.246094 C 306.523438 148.894531 306.808594 148.609375 307.152344 148.609375 L 343.121094 148.417969 C 343.125 148.417969 343.125 148.417969 343.125 148.417969 C 343.476562 148.417969 343.757812 148.699219 343.757812 149.050781 C 343.761719 149.398438 343.480469 149.683594 343.128906 149.6875 L 307.160156 149.875 " fill-opacity="1" fill-rule="nonzero"/><path fill="#caddff" d="M 300.578125 209.917969 L 264.679688 209.917969 L 264.679688 80.359375 L 300.578125 80.359375 L 300.578125 209.917969 " fill-opacity="1" fill-rule="nonzero"/><path fill="#5479f7" d="M 265.3125 209.285156 L 299.945312 209.285156 L 299.945312 80.992188 L 265.3125 80.992188 Z M 301.214844 210.550781 L 264.046875 210.550781 L 264.046875 79.722656 L 301.214844 79.722656 L 301.214844 210.550781 " fill-opacity="1" fill-rule="nonzero"/><path fill="#ffffff" d="M 287.863281 146.261719 C 287.707031 146.261719 287.550781 146.203125 287.429688 146.089844 C 287.175781 145.851562 287.160156 145.449219 287.398438 145.191406 L 298.019531 133.824219 C 298.257812 133.566406 298.660156 133.554688 298.917969 133.792969 C 299.171875 134.03125 299.1875 134.433594 298.945312 134.6875 L 288.328125 146.058594 C 288.203125 146.195312 288.035156 146.261719 287.863281 146.261719 " fill-opacity="1" fill-rule="nonzero"/><path fill="#ffffff" d="M 287.300781 137.507812 C 287.144531 137.507812 286.988281 137.449219 286.863281 137.332031 C 286.609375 137.09375 286.597656 136.691406 286.839844 136.4375 L 297.410156 125.242188 C 297.652344 124.984375 298.050781 124.972656 298.308594 125.214844 C 298.5625 125.453125 298.574219 125.855469 298.335938 126.109375 L 287.761719 137.308594 C 287.636719 137.441406 287.46875 137.507812 287.300781 137.507812 " fill-opacity="1" fill-rule="nonzero"/><path fill="#ffffff" d="M 267.84375 206.058594 C 267.6875 206.058594 267.527344 206 267.40625 205.882812 C 267.152344 205.640625 267.144531 205.238281 267.386719 204.984375 L 279.226562 192.636719 C 279.464844 192.378906 279.867188 192.375 280.121094 192.613281 C 280.375 192.859375 280.382812 193.261719 280.140625 193.511719 L 268.300781 205.863281 C 268.179688 205.992188 268.011719 206.058594 267.84375 206.058594 " fill-opacity="1" fill-rule="nonzero"/><path fill="#ffffff" d="M 267.28125 197.304688 C 267.125 197.304688 266.96875 197.25 266.84375 197.132812 C 266.589844 196.894531 266.578125 196.492188 266.820312 196.238281 L 277.390625 185.039062 C 277.628906 184.785156 278.03125 184.773438 278.289062 185.015625 C 278.542969 185.253906 278.554688 185.65625 278.316406 185.910156 L 267.742188 197.105469 C 267.617188 197.238281 267.449219 197.304688 267.28125 197.304688 " fill-opacity="1" fill-rule="nonzero"/><path fill="#5479f7" d="M 283.039062 209.941406 C 282.6875 209.941406 282.40625 209.65625 282.40625 209.308594 L 281.984375 87.957031 C 281.980469 87.605469 282.261719 87.320312 282.613281 87.320312 L 282.617188 87.320312 C 282.964844 87.320312 283.25 87.601562 283.25 87.953125 L 283.675781 209.300781 C 283.675781 209.652344 283.390625 209.9375 283.042969 209.941406 C 283.039062 209.941406 283.039062 209.941406 283.039062 209.941406 " fill-opacity="1" fill-rule="nonzero"/><path fill="#5479f7" d="M 300.597656 119.019531 C 300.597656 119.019531 300.597656 119.019531 300.59375 119.019531 L 264.839844 118.820312 C 264.488281 118.820312 264.207031 118.535156 264.207031 118.183594 C 264.210938 117.835938 264.496094 117.554688 264.84375 117.554688 L 300.601562 117.75 C 300.953125 117.753906 301.234375 118.035156 301.230469 118.386719 C 301.230469 118.734375 300.945312 119.019531 300.597656 119.019531 " fill-opacity="1" fill-rule="nonzero"/><path fill="#5479f7" d="M 300.8125 179.207031 L 300.808594 179.207031 L 264.839844 179.074219 C 264.488281 179.070312 264.207031 178.785156 264.207031 178.4375 C 264.207031 178.085938 264.492188 177.804688 264.84375 177.804688 C 264.847656 177.804688 264.847656 177.804688 264.847656 177.804688 L 300.8125 177.941406 C 301.164062 177.941406 301.445312 178.226562 301.445312 178.574219 C 301.445312 178.925781 301.160156 179.207031 300.8125 179.207031 " fill-opacity="1" fill-rule="nonzero"/><path fill="#5479f7" d="M 300.175781 149.898438 L 265.054688 149.898438 C 264.707031 149.898438 264.421875 149.613281 264.421875 149.261719 C 264.421875 148.914062 264.707031 148.628906 265.054688 148.628906 L 300.175781 148.628906 C 300.527344 148.628906 300.8125 148.914062 300.8125 149.261719 C 300.8125 149.613281 300.527344 149.898438 300.175781 149.898438 " fill-opacity="1" fill-rule="nonzero"/><path fill="#ffffff" d="M 118.222656 85.800781 L 118.222656 236.789062 L 254.476562 236.789062 L 254.476562 87.207031 L 118.222656 85.800781 " fill-opacity="1" fill-rule="nonzero"/><path fill="#99b9ff" d="M 248.789062 151.851562 L 124.40625 151.851562 L 124.40625 101.90625 L 248.789062 101.90625 L 248.789062 151.851562 " fill-opacity="1" fill-rule="nonzero"/><path fill="#caddff" d="M 241.804688 146.863281 L 130.921875 146.863281 L 130.921875 114.59375 L 241.804688 114.59375 L 241.804688 146.863281 " fill-opacity="1" fill-rule="nonzero"/><path fill="#ffffff" d="M 131.554688 146.230469 L 241.167969 146.230469 L 241.167969 115.226562 L 131.554688 115.226562 Z M 242.4375 147.5 L 130.285156 147.5 L 130.285156 113.957031 L 242.4375 113.957031 L 242.4375 147.5 " fill-opacity="1" fill-rule="nonzero"/><path fill="#99b9ff" d="M 249 236.273438 L 124.550781 236.273438 L 124.550781 151.589844 L 249 151.589844 L 249 236.273438 " fill-opacity="1" fill-rule="nonzero"/><path fill="#caddff" d="M 246.160156 236.503906 L 127 236.503906 L 127 153.863281 L 246.160156 153.863281 L 246.160156 236.503906 " fill-opacity="1" fill-rule="nonzero"/><path fill="#5479f7" d="M 127.636719 235.871094 L 245.523438 235.871094 L 245.523438 154.496094 L 127.636719 154.496094 Z M 246.792969 237.140625 L 126.367188 237.140625 L 126.367188 153.230469 L 246.792969 153.230469 L 246.792969 237.140625 " fill-opacity="1" fill-rule="nonzero"/><path fill="#caddff" d="M 186.097656 234.171875 C 186.097656 234.171875 186.09375 234.171875 186.09375 234.171875 C 185.742188 234.171875 185.460938 233.886719 185.460938 233.535156 L 185.589844 207.929688 C 185.589844 207.582031 185.875 207.300781 186.222656 207.300781 C 186.226562 207.300781 186.226562 207.300781 186.226562 207.300781 C 186.574219 207.300781 186.859375 207.589844 186.859375 207.9375 L 186.730469 233.542969 C 186.730469 233.890625 186.445312 234.171875 186.097656 234.171875 " fill-opacity="1" fill-rule="nonzero"/><path fill="#99b9ff" d="M 157.265625 236.910156 C 157.261719 236.910156 157.257812 236.910156 157.253906 236.910156 C 156.902344 236.902344 156.621094 236.613281 156.628906 236.265625 L 157.542969 170.082031 C 157.546875 169.730469 157.84375 169.445312 158.183594 169.457031 C 158.535156 169.460938 158.8125 169.75 158.808594 170.101562 L 157.898438 236.28125 C 157.890625 236.628906 157.609375 236.910156 157.265625 236.910156 " fill-opacity="1" fill-rule="nonzero"/><path fill="#ffffff" d="M 130.949219 205.128906 C 130.769531 205.128906 130.59375 205.054688 130.46875 204.90625 C 130.238281 204.640625 130.269531 204.242188 130.539062 204.011719 L 150.027344 187.363281 C 150.292969 187.136719 150.691406 187.167969 150.917969 187.4375 C 151.148438 187.699219 151.117188 188.101562 150.851562 188.332031 L 131.363281 204.976562 C 131.242188 205.078125 131.097656 205.128906 130.949219 205.128906 " fill-opacity="1" fill-rule="nonzero"/><path fill="#ffffff" d="M 139.808594 219.417969 C 139.628906 219.417969 139.449219 219.34375 139.324219 219.195312 C 139.097656 218.929688 139.128906 218.53125 139.394531 218.300781 L 149.898438 209.332031 C 150.164062 209.101562 150.566406 209.132812 150.792969 209.398438 C 151.019531 209.667969 150.988281 210.066406 150.722656 210.292969 L 140.21875 219.265625 C 140.101562 219.367188 139.953125 219.417969 139.808594 219.417969 " fill-opacity="1" fill-rule="nonzero"/><path fill="#ffffff" d="M 129.785156 215.175781 C 129.605469 215.175781 129.429688 215.101562 129.304688 214.957031 C 129.074219 214.691406 129.101562 214.292969 129.367188 214.0625 L 146.769531 198.964844 C 147.03125 198.738281 147.433594 198.765625 147.664062 199.03125 C 147.894531 199.296875 147.867188 199.695312 147.601562 199.925781 L 130.199219 215.023438 C 130.082031 215.125 129.929688 215.175781 129.785156 215.175781 " fill-opacity="1" fill-rule="nonzero"/><path fill="#ffffff" d="M 221.304688 198.484375 C 221.125 198.484375 220.945312 198.410156 220.824219 198.261719 C 220.59375 197.996094 220.625 197.597656 220.890625 197.367188 L 240.378906 180.722656 C 240.644531 180.492188 241.046875 180.523438 241.277344 180.792969 C 241.503906 181.058594 241.472656 181.457031 241.207031 181.6875 L 221.71875 198.332031 C 221.597656 198.433594 221.449219 198.484375 221.304688 198.484375 " fill-opacity="1" fill-rule="nonzero"/><path fill="#ffffff" d="M 230.164062 212.773438 C 229.980469 212.773438 229.804688 212.699219 229.679688 212.550781 C 229.453125 212.285156 229.484375 211.886719 229.75 211.65625 L 240.253906 202.6875 C 240.519531 202.457031 240.917969 202.488281 241.148438 202.753906 C 241.375 203.023438 241.34375 203.421875 241.078125 203.648438 L 230.574219 212.621094 C 230.453125 212.722656 230.308594 212.773438 230.164062 212.773438 " fill-opacity="1" fill-rule="nonzero"/><path fill="#ffffff" d="M 220.136719 208.53125 C 219.960938 208.53125 219.785156 208.457031 219.65625 208.3125 C 219.429688 208.046875 219.457031 207.648438 219.722656 207.417969 L 237.125 192.324219 C 237.390625 192.09375 237.789062 192.121094 238.019531 192.386719 C 238.25 192.652344 238.21875 193.050781 237.957031 193.28125 L 220.554688 208.375 C 220.433594 208.480469 220.285156 208.53125 220.136719 208.53125 " fill-opacity="1" fill-rule="nonzero"/><path fill="#ffffff" d="M 163.40625 191.273438 C 163.222656 191.273438 163.046875 191.199219 162.921875 191.050781 C 162.695312 190.785156 162.726562 190.382812 162.992188 190.15625 L 183.15625 172.933594 C 183.421875 172.703125 183.820312 172.734375 184.050781 173 C 184.277344 173.269531 184.246094 173.667969 183.980469 173.894531 L 163.816406 191.121094 C 163.695312 191.222656 163.550781 191.273438 163.40625 191.273438 " fill-opacity="1" fill-rule="nonzero"/><path fill="#ffffff" d="M 167.589844 228.992188 C 167.414062 228.992188 167.234375 228.917969 167.109375 228.769531 C 166.882812 228.5 166.910156 228.101562 167.179688 227.875 L 180.8125 216.226562 C 181.082031 216 181.484375 216.03125 181.710938 216.296875 C 181.9375 216.5625 181.90625 216.964844 181.640625 217.191406 L 168.003906 228.839844 C 167.882812 228.941406 167.738281 228.992188 167.589844 228.992188 " fill-opacity="1" fill-rule="nonzero"/><path fill="#ffffff" d="M 171.835938 194.074219 C 171.660156 194.074219 171.484375 194 171.355469 193.855469 C 171.128906 193.589844 171.15625 193.191406 171.417969 192.960938 L 181.425781 184.277344 C 181.691406 184.050781 182.09375 184.078125 182.324219 184.34375 C 182.550781 184.605469 182.523438 185.007812 182.261719 185.238281 L 172.253906 193.917969 C 172.132812 194.023438 171.984375 194.074219 171.835938 194.074219 " fill-opacity="1" fill-rule="nonzero"/><path fill="#ffffff" d="M 199.273438 205.539062 C 199.09375 205.539062 198.917969 205.464844 198.792969 205.316406 C 198.5625 205.050781 198.597656 204.652344 198.859375 204.425781 L 212.5 192.777344 C 212.765625 192.550781 213.164062 192.578125 213.394531 192.847656 C 213.621094 193.113281 213.589844 193.511719 213.320312 193.742188 L 199.6875 205.386719 C 199.566406 205.492188 199.421875 205.539062 199.273438 205.539062 " fill-opacity="1" fill-rule="nonzero"/><path fill="#ffffff" d="M 195.304688 184.300781 C 195.128906 184.300781 194.949219 184.226562 194.824219 184.082031 C 194.59375 183.816406 194.625 183.417969 194.890625 183.1875 L 204.894531 174.507812 C 205.160156 174.277344 205.558594 174.304688 205.789062 174.570312 C 206.019531 174.835938 205.992188 175.234375 205.726562 175.464844 L 195.71875 184.144531 C 195.601562 184.25 195.453125 184.300781 195.304688 184.300781 " fill-opacity="1" fill-rule="nonzero"/><path fill="#5479f7" d="M 186.597656 170.136719 L 127.664062 170.074219 C 127.316406 170.074219 127.03125 169.789062 127.03125 169.4375 C 127.03125 169.089844 127.316406 168.804688 127.667969 168.804688 L 186.597656 168.871094 C 186.949219 168.871094 187.234375 169.15625 187.234375 169.503906 C 187.234375 169.855469 186.949219 170.136719 186.597656 170.136719 " fill-opacity="1" fill-rule="nonzero"/><path fill="#99b9ff" d="M 217.875 236.152344 C 217.523438 236.152344 217.238281 235.871094 217.238281 235.519531 L 217.238281 170.40625 C 217.238281 170.054688 217.523438 169.773438 217.875 169.773438 C 218.226562 169.773438 218.511719 170.054688 218.511719 170.40625 L 218.511719 235.519531 C 218.511719 235.871094 218.226562 236.152344 217.875 236.152344 " fill-opacity="1" fill-rule="nonzero"/><path fill="#5479f7" d="M 245.660156 170.464844 L 181.695312 170.195312 C 181.34375 170.191406 181.058594 169.90625 181.0625 169.554688 C 181.0625 169.207031 181.34375 168.902344 181.699219 168.925781 L 245.664062 169.195312 C 246.015625 169.199219 246.296875 169.480469 246.296875 169.832031 C 246.296875 170.183594 246.011719 170.464844 245.660156 170.464844 " fill-opacity="1" fill-rule="nonzero"/><path fill="#99b9ff" d="M 190.121094 236.535156 L 186.730469 236.535156 L 186.730469 154.445312 L 190.121094 154.445312 L 190.121094 236.535156 " fill-opacity="1" fill-rule="nonzero"/><path fill="#5479f7" d="M 254.476562 237.210938 L 119.070312 237.210938 C 118.71875 237.210938 118.4375 236.929688 118.4375 236.578125 C 118.4375 236.226562 118.71875 235.941406 119.070312 235.941406 L 254.476562 235.941406 C 254.828125 235.941406 255.109375 236.226562 255.109375 236.578125 C 255.109375 236.929688 254.828125 237.210938 254.476562 237.210938 " fill-opacity="1" fill-rule="nonzero"/><path fill="#000000" d="M 254.617188 236.578125 C 254.269531 236.578125 253.984375 236.292969 253.984375 235.941406 L 253.84375 87.835938 L 118.859375 86.441406 L 118.859375 200.003906 C 118.859375 200.351562 118.574219 200.636719 118.222656 200.636719 C 117.875 200.636719 117.589844 200.351562 117.589844 200.003906 L 117.589844 85.800781 C 117.589844 85.632812 117.65625 85.46875 117.777344 85.351562 C 117.898438 85.230469 118.066406 85.167969 118.230469 85.167969 L 254.484375 86.574219 C 254.832031 86.574219 255.113281 86.859375 255.113281 87.207031 L 255.253906 235.941406 C 255.253906 236.292969 254.96875 236.578125 254.621094 236.578125 C 254.617188 236.578125 254.617188 236.578125 254.617188 236.578125 " fill-opacity="1" fill-rule="nonzero"/><path fill="#000000" d="M 349.257812 231.320312 L 255.464844 231.320312 C 255.109375 231.320312 254.828125 231.035156 254.828125 230.683594 C 254.828125 230.335938 255.109375 230.050781 255.464844 230.050781 L 348.625 230.050781 L 348.625 220.003906 L 254.898438 220.003906 C 254.550781 220.003906 254.265625 219.71875 254.265625 219.367188 C 254.265625 219.019531 254.550781 218.734375 254.898438 218.734375 L 349.257812 218.734375 C 349.613281 218.734375 349.894531 219.019531 349.894531 219.367188 L 349.894531 230.683594 C 349.894531 231.035156 349.613281 231.320312 349.257812 231.320312 " fill-opacity="1" fill-rule="nonzero"/><path fill="#000000" d="M 45.582031 231.320312 L 22.59375 231.320312 C 22.242188 231.320312 21.957031 231.035156 21.957031 230.683594 L 21.957031 219.367188 C 21.957031 219.019531 22.242188 218.734375 22.59375 218.734375 C 22.945312 218.734375 23.226562 219.019531 23.226562 219.367188 L 23.226562 230.050781 L 45.582031 230.050781 C 45.933594 230.050781 46.21875 230.335938 46.21875 230.683594 C 46.21875 231.035156 45.933594 231.320312 45.582031 231.320312 " fill-opacity="1" fill-rule="nonzero"/><path fill="#caddff" d="M 108.21875 209.917969 L 72.316406 209.917969 L 72.316406 80.359375 L 108.21875 80.359375 L 108.21875 209.917969 " fill-opacity="1" fill-rule="nonzero"/><path fill="#5479f7" d="M 72.953125 209.285156 L 107.582031 209.285156 L 107.582031 80.992188 L 72.953125 80.992188 Z M 108.851562 210.550781 L 71.683594 210.550781 L 71.683594 79.722656 L 108.851562 79.722656 L 108.851562 210.550781 " fill-opacity="1" fill-rule="nonzero"/><path fill="#ffffff" d="M 75.753906 204.496094 C 75.597656 204.496094 75.4375 204.4375 75.316406 204.320312 C 75.0625 204.078125 75.054688 203.675781 75.296875 203.421875 L 87.132812 191.074219 C 87.375 190.820312 87.777344 190.808594 88.03125 191.054688 C 88.285156 191.296875 88.292969 191.695312 88.050781 191.949219 L 76.210938 204.300781 C 76.085938 204.429688 75.921875 204.496094 75.753906 204.496094 " fill-opacity="1" fill-rule="nonzero"/><path fill="#ffffff" d="M 75.191406 195.746094 C 75.035156 195.746094 74.875 195.6875 74.753906 195.570312 C 74.5 195.328125 74.488281 194.929688 74.726562 194.671875 L 85.300781 183.476562 C 85.539062 183.222656 85.941406 183.210938 86.195312 183.449219 C 86.453125 183.691406 86.464844 184.09375 86.222656 184.347656 L 75.652344 195.546875 C 75.527344 195.675781 75.359375 195.746094 75.191406 195.746094 " fill-opacity="1" fill-rule="nonzero"/><path fill="#ffffff" d="M 94.078125 174.007812 C 93.921875 174.007812 93.761719 173.953125 93.640625 173.832031 C 93.386719 173.589844 93.378906 173.191406 93.621094 172.9375 L 105.457031 160.585938 C 105.699219 160.332031 106.101562 160.324219 106.355469 160.566406 C 106.609375 160.808594 106.617188 161.210938 106.375 161.464844 L 94.535156 173.8125 C 94.410156 173.945312 94.246094 174.007812 94.078125 174.007812 " fill-opacity="1" fill-rule="nonzero"/><path fill="#ffffff" d="M 93.515625 165.257812 C 93.359375 165.257812 93.199219 165.199219 93.078125 165.085938 C 92.824219 164.84375 92.8125 164.445312 93.050781 164.1875 L 103.625 152.992188 C 103.863281 152.734375 104.265625 152.726562 104.519531 152.964844 C 104.777344 153.203125 104.789062 153.605469 104.546875 153.859375 L 93.976562 165.058594 C 93.851562 165.191406 93.683594 165.257812 93.515625 165.257812 " fill-opacity="1" fill-rule="nonzero"/><path fill="#5479f7" d="M 90.71875 209.941406 C 90.367188 209.941406 90.085938 209.652344 90.085938 209.304688 L 90.296875 91.761719 C 90.296875 91.410156 90.582031 91.128906 90.929688 91.128906 C 90.929688 91.128906 90.933594 91.128906 90.933594 91.128906 C 91.28125 91.128906 91.566406 91.414062 91.566406 91.761719 L 91.355469 209.304688 C 91.355469 209.65625 91.070312 209.941406 90.71875 209.941406 " fill-opacity="1" fill-rule="nonzero"/><path fill="#5479f7" d="M 72.523438 118.996094 C 72.175781 118.996094 71.890625 118.714844 71.890625 118.363281 C 71.886719 118.015625 72.171875 117.730469 72.523438 117.726562 L 108.277344 117.550781 C 108.277344 117.550781 108.277344 117.550781 108.28125 117.550781 C 108.628906 117.550781 108.914062 117.835938 108.914062 118.183594 C 108.917969 118.53125 108.632812 118.820312 108.28125 118.820312 L 72.527344 118.996094 C 72.527344 118.996094 72.527344 118.996094 72.523438 118.996094 " fill-opacity="1" fill-rule="nonzero"/><path fill="#5479f7" d="M 72.523438 179.1875 C 72.175781 179.1875 71.894531 178.90625 71.890625 178.558594 C 71.886719 178.207031 72.167969 177.921875 72.519531 177.917969 L 108.273438 177.59375 C 108.625 177.589844 108.910156 177.871094 108.914062 178.222656 C 108.917969 178.570312 108.636719 178.859375 108.285156 178.859375 L 72.53125 179.1875 C 72.527344 179.1875 72.527344 179.1875 72.523438 179.1875 " fill-opacity="1" fill-rule="nonzero"/><path fill="#5479f7" d="M 72.3125 149.875 C 71.964844 149.875 71.679688 149.59375 71.679688 149.246094 C 71.675781 148.894531 71.960938 148.609375 72.308594 148.609375 L 108.277344 148.417969 C 108.277344 148.417969 108.277344 148.417969 108.28125 148.417969 C 108.628906 148.417969 108.914062 148.699219 108.914062 149.050781 C 108.917969 149.402344 108.632812 149.683594 108.285156 149.6875 L 72.316406 149.875 C 72.316406 149.875 72.3125 149.875 72.3125 149.875 " fill-opacity="1" fill-rule="nonzero"/><path fill="#caddff" d="M 65.734375 209.917969 L 29.835938 209.917969 L 29.835938 80.359375 L 65.734375 80.359375 L 65.734375 209.917969 " fill-opacity="1" fill-rule="nonzero"/><path fill="#5479f7" d="M 30.46875 209.285156 L 65.101562 209.285156 L 65.101562 80.992188 L 30.46875 80.992188 Z M 66.371094 210.550781 L 29.199219 210.550781 L 29.199219 79.722656 L 66.371094 79.722656 L 66.371094 210.550781 " fill-opacity="1" fill-rule="nonzero"/><path fill="#ffffff" d="M 53.019531 146.257812 C 52.863281 146.257812 52.707031 146.203125 52.585938 146.089844 C 52.328125 145.851562 52.316406 145.449219 52.554688 145.191406 L 63.175781 133.820312 C 63.414062 133.566406 63.816406 133.550781 64.070312 133.789062 C 64.328125 134.03125 64.339844 134.429688 64.101562 134.6875 L 53.484375 146.058594 C 53.359375 146.191406 53.1875 146.257812 53.019531 146.257812 " fill-opacity="1" fill-rule="nonzero"/><path fill="#ffffff" d="M 52.453125 137.507812 C 52.296875 137.507812 52.140625 137.449219 52.019531 137.335938 C 51.765625 137.09375 51.75 136.691406 51.992188 136.4375 L 62.566406 125.242188 C 62.804688 124.984375 63.207031 124.972656 63.460938 125.214844 C 63.714844 125.453125 63.726562 125.855469 63.488281 126.109375 L 52.917969 137.308594 C 52.789062 137.441406 52.621094 137.507812 52.453125 137.507812 " fill-opacity="1" fill-rule="nonzero"/><path fill="#ffffff" d="M 32.996094 206.058594 C 32.839844 206.058594 32.683594 206 32.558594 205.882812 C 32.304688 205.640625 32.296875 205.238281 32.539062 204.984375 L 44.378906 192.636719 C 44.621094 192.382812 45.023438 192.375 45.277344 192.617188 C 45.527344 192.859375 45.539062 193.261719 45.292969 193.511719 L 33.457031 205.863281 C 33.332031 205.992188 33.164062 206.058594 32.996094 206.058594 " fill-opacity="1" fill-rule="nonzero"/><path fill="#ffffff" d="M 32.433594 197.308594 C 32.277344 197.308594 32.121094 197.25 31.996094 197.132812 C 31.742188 196.894531 31.730469 196.492188 31.972656 196.238281 L 42.542969 185.039062 C 42.785156 184.785156 43.1875 184.773438 43.441406 185.015625 C 43.695312 185.253906 43.707031 185.65625 43.46875 185.910156 L 32.894531 197.105469 C 32.769531 197.238281 32.601562 197.308594 32.433594 197.308594 " fill-opacity="1" fill-rule="nonzero"/><path fill="#5479f7" d="M 48.195312 209.9375 C 47.84375 209.9375 47.5625 209.65625 47.558594 209.308594 L 47.136719 87.957031 C 47.132812 87.605469 47.417969 87.320312 47.769531 87.320312 C 48.121094 87.320312 48.402344 87.601562 48.40625 87.953125 L 48.828125 209.300781 C 48.832031 209.652344 48.546875 209.933594 48.195312 209.9375 " fill-opacity="1" fill-rule="nonzero"/><path fill="#5479f7" d="M 65.753906 119.015625 C 65.753906 119.015625 65.75 119.015625 65.75 119.015625 L 29.996094 118.820312 C 29.644531 118.820312 29.363281 118.53125 29.363281 118.183594 C 29.367188 117.835938 29.648438 117.550781 30 117.550781 C 30 117.550781 30 117.550781 30.003906 117.550781 L 65.757812 117.75 C 66.109375 117.75 66.390625 118.035156 66.386719 118.386719 C 66.386719 118.734375 66.101562 119.015625 65.753906 119.015625 " fill-opacity="1" fill-rule="nonzero"/><path fill="#5479f7" d="M 65.964844 179.207031 L 29.996094 179.074219 C 29.644531 179.074219 29.363281 178.785156 29.363281 178.4375 C 29.363281 178.085938 29.648438 177.804688 30 177.804688 L 65.96875 177.941406 C 66.320312 177.941406 66.601562 178.226562 66.601562 178.574219 C 66.597656 178.925781 66.316406 179.207031 65.964844 179.207031 " fill-opacity="1" fill-rule="nonzero"/><path fill="#5479f7" d="M 65.332031 149.898438 L 30.210938 149.898438 C 29.859375 149.898438 29.574219 149.617188 29.574219 149.265625 C 29.574219 148.914062 29.859375 148.628906 30.210938 148.628906 L 65.332031 148.628906 C 65.679688 148.628906 65.964844 148.914062 65.964844 149.265625 C 65.964844 149.617188 65.679688 149.898438 65.332031 149.898438 " fill-opacity="1" fill-rule="nonzero"/><path fill="#99b9ff" d="M 346.015625 100.527344 L 26.121094 100.527344 L 26.121094 84.113281 L 346.015625 84.113281 L 346.015625 100.527344 " fill-opacity="1" fill-rule="nonzero"/><path fill="#5479f7" d="M 355.183594 97.007812 L 14.886719 97.007812 L 9.476562 44.207031 L 360.3125 43.035156 L 355.183594 97.007812 " fill-opacity="1" fill-rule="nonzero"/><path fill="#5479f7" d="M 278.179688 104.625 L 82.226562 105.277344 L 76.359375 35.359375 L 286.390625 35.359375 L 278.179688 104.625 " fill-opacity="1" fill-rule="nonzero"/><path fill="#000000" d="M 278.179688 104.621094 L 278.183594 104.621094 Z M 77.046875 35.996094 L 82.808594 104.640625 L 277.613281 103.988281 L 285.675781 35.996094 Z M 82.226562 105.910156 C 81.894531 105.910156 81.621094 105.65625 81.59375 105.328125 L 75.726562 35.414062 C 75.710938 35.238281 75.769531 35.058594 75.890625 34.929688 C 76.011719 34.800781 76.179688 34.726562 76.359375 34.726562 L 286.390625 34.726562 C 286.574219 34.726562 286.746094 34.800781 286.867188 34.9375 C 286.988281 35.074219 287.046875 35.253906 287.023438 35.433594 L 278.808594 104.695312 C 278.769531 105.015625 278.5 105.257812 278.179688 105.257812 L 82.226562 105.910156 " fill-opacity="1" fill-rule="nonzero"/><path fill="#ffffff" d="M 65.839844 330.328125 L 70.316406 352.117188 L 78.375 346.300781 L 79.652344 343.011719 C 79.652344 343.011719 76.128906 342.886719 76.101562 335.328125 L 76.480469 326.996094 L 65.839844 330.328125 " fill-opacity="1" fill-rule="nonzero"/><path fill="#000000" d="M 66.574219 330.761719 L 70.742188 351.027344 L 77.851562 345.894531 L 78.804688 343.4375 C 77.597656 342.929688 75.488281 341.210938 75.464844 335.332031 L 75.804688 327.871094 Z M 70.316406 352.75 C 70.242188 352.75 70.164062 352.738281 70.089844 352.707031 C 69.886719 352.628906 69.742188 352.453125 69.695312 352.242188 L 65.21875 330.457031 C 65.152344 330.136719 65.335938 329.820312 65.648438 329.722656 L 76.292969 326.394531 C 76.488281 326.328125 76.703125 326.367188 76.867188 326.496094 C 77.03125 326.621094 77.125 326.820312 77.117188 327.027344 L 76.734375 335.355469 C 76.761719 342.085938 79.644531 342.375 79.671875 342.375 C 79.878906 342.382812 80.066406 342.488281 80.179688 342.660156 C 80.292969 342.832031 80.316406 343.046875 80.242188 343.238281 L 78.96875 346.527344 C 78.925781 346.644531 78.847656 346.742188 78.75 346.8125 L 70.691406 352.632812 C 70.582031 352.710938 70.449219 352.75 70.316406 352.75 " fill-opacity="1" fill-rule="nonzero"/><path fill="#5479f7" d="M 66.941406 345.738281 C 66.933594 347.679688 66.984375 351.261719 67.382812 354.429688 C 67.632812 356.417969 69.394531 357.441406 71.339844 357.875 C 75.3125 358.761719 79.476562 358.484375 84.132812 357.886719 C 88.199219 357.363281 92.648438 356.664062 97.507812 355.257812 C 98.828125 354.871094 101.472656 353.628906 102.285156 351.683594 C 104.738281 345.828125 91.753906 345.292969 79.417969 342.414062 C 78.933594 342.300781 78.429688 342.476562 78.125 342.871094 L 77.027344 344.269531 C 75.933594 345.675781 74.105469 346.28125 72.390625 345.808594 L 68.320312 344.683594 C 67.625 344.496094 66.945312 345.015625 66.941406 345.738281 " fill-opacity="1" fill-rule="nonzero"/><path fill="#000000" d="M 66.941406 345.738281 L 66.945312 345.738281 Z M 68.027344 345.28125 C 67.902344 345.28125 67.808594 345.335938 67.757812 345.371094 C 67.644531 345.460938 67.578125 345.59375 67.578125 345.742188 C 67.570312 347.601562 67.617188 351.199219 68.011719 354.351562 C 68.242188 356.164062 70.023438 356.933594 71.476562 357.257812 C 75.304688 358.109375 79.273438 357.871094 84.050781 357.257812 C 87.867188 356.765625 92.429688 356.070312 97.332031 354.644531 C 98.714844 354.246094 101.023438 353.058594 101.699219 351.441406 C 102.027344 350.664062 102.035156 350.003906 101.726562 349.433594 C 100.484375 347.132812 94.296875 345.976562 87.75 344.75 C 84.988281 344.234375 82.136719 343.699219 79.273438 343.03125 C 79.03125 342.976562 78.777344 343.066406 78.625 343.257812 L 77.527344 344.664062 C 76.273438 346.273438 74.1875 346.960938 72.222656 346.421875 L 68.152344 345.296875 C 68.105469 345.285156 68.066406 345.28125 68.027344 345.28125 Z M 76.953125 359.070312 C 75.011719 359.070312 73.082031 358.914062 71.203125 358.496094 C 68.582031 357.910156 67.003906 356.496094 66.753906 354.507812 C 66.347656 351.285156 66.300781 347.628906 66.308594 345.738281 C 66.308594 345.191406 66.558594 344.691406 66.992188 344.363281 C 67.421875 344.035156 67.96875 343.929688 68.488281 344.074219 L 72.558594 345.195312 C 74.03125 345.601562 75.585938 345.085938 76.527344 343.882812 L 77.625 342.476562 C 78.078125 341.898438 78.839844 341.628906 79.5625 341.796875 C 82.394531 342.460938 85.238281 342.992188 87.984375 343.503906 C 95.429688 344.898438 101.3125 346 102.84375 348.832031 C 103.339844 349.75 103.347656 350.792969 102.871094 351.929688 C 101.957031 354.117188 99.078125 355.460938 97.6875 355.863281 C 92.699219 357.3125 88.078125 358.015625 84.210938 358.515625 C 81.84375 358.820312 79.394531 359.070312 76.953125 359.070312 " fill-opacity="1" fill-rule="nonzero"/><path fill="#ffffff" d="M 67.269531 352.894531 C 67.269531 352.894531 67.363281 354.277344 67.382812 354.429688 C 67.445312 354.925781 67.640625 355.402344 67.898438 355.839844 C 68.726562 357.246094 70.226562 358.128906 71.851562 358.285156 C 72.246094 358.324219 72.761719 358.359375 73.359375 358.386719 C 79.53125 358.691406 85.714844 358.152344 91.753906 356.855469 C 94.820312 356.195312 101.460938 354.546875 102.285156 351.683594 C 102.539062 350.800781 101.894531 349.332031 101.894531 349.332031 C 101.894531 349.332031 101.363281 350.945312 96.613281 352.160156 C 88.589844 354.210938 82.085938 354.359375 74.21875 354.613281 C 72.671875 354.660156 71.460938 354.53125 70.117188 354.285156 C 69.058594 354.09375 68.070312 353.613281 67.269531 352.894531 " fill-opacity="1" fill-rule="nonzero"/><path fill="#000000" d="M 68 354.191406 C 68.003906 354.273438 68.011719 354.328125 68.011719 354.351562 C 68.058594 354.71875 68.203125 355.109375 68.445312 355.519531 C 69.148438 356.714844 70.445312 357.515625 71.914062 357.65625 C 72.273438 357.691406 72.769531 357.722656 73.390625 357.753906 C 79.417969 358.050781 85.554688 357.539062 91.621094 356.234375 C 97.511719 354.972656 101.175781 353.25 101.675781 351.511719 C 101.742188 351.285156 101.710938 350.957031 101.640625 350.625 C 100.875 351.277344 99.441406 352.09375 96.769531 352.773438 C 88.941406 354.777344 82.480469 354.984375 75 355.222656 L 74.242188 355.246094 C 72.808594 355.292969 71.578125 355.195312 70.003906 354.910156 C 69.296875 354.78125 68.621094 354.535156 68 354.191406 Z M 76.714844 359.101562 C 75.582031 359.101562 74.453125 359.074219 73.328125 359.019531 C 72.6875 358.988281 72.171875 358.953125 71.789062 358.917969 C 69.921875 358.734375 68.261719 357.707031 67.351562 356.164062 C 67.023438 355.605469 66.820312 355.050781 66.753906 354.507812 C 66.734375 354.347656 66.660156 353.265625 66.636719 352.9375 C 66.617188 352.679688 66.757812 352.4375 66.992188 352.324219 C 67.222656 352.210938 67.5 352.25 67.691406 352.421875 C 68.40625 353.0625 69.285156 353.488281 70.230469 353.660156 C 71.710938 353.929688 72.863281 354.019531 74.199219 353.976562 L 74.957031 353.953125 C 82.363281 353.71875 88.761719 353.511719 96.457031 351.546875 C 100.65625 350.472656 101.296875 349.117188 101.300781 349.105469 C 101.386719 348.855469 101.609375 348.695312 101.871094 348.683594 C 102.140625 348.671875 102.371094 348.835938 102.476562 349.078125 C 102.550781 349.25 103.203125 350.789062 102.894531 351.859375 C 102.234375 354.160156 98.53125 356.050781 91.890625 357.476562 C 86.84375 358.558594 81.757812 359.101562 76.714844 359.101562 " fill-opacity="1" fill-rule="nonzero"/><path fill="#000000" d="M 83.019531 349.351562 C 82.886719 349.351562 82.75 349.308594 82.636719 349.222656 C 82.359375 349.011719 82.300781 348.613281 82.511719 348.332031 L 86.058594 343.636719 C 86.269531 343.355469 86.667969 343.300781 86.949219 343.511719 C 87.230469 343.722656 87.285156 344.121094 87.074219 344.402344 L 83.527344 349.097656 C 83.402344 349.265625 83.210938 349.351562 83.019531 349.351562 " fill-opacity="1" fill-rule="nonzero"/><path fill="#000000" d="M 87.117188 349.226562 C 86.988281 349.226562 86.859375 349.1875 86.746094 349.109375 C 86.460938 348.898438 86.398438 348.503906 86.605469 348.21875 L 89.421875 344.339844 C 89.625 344.058594 90.023438 343.996094 90.308594 344.199219 C 90.589844 344.40625 90.65625 344.800781 90.449219 345.085938 L 87.632812 348.964844 C 87.507812 349.136719 87.3125 349.226562 87.117188 349.226562 " fill-opacity="1" fill-rule="nonzero"/><path fill="#ffffff" d="M 53.863281 326.429688 C 55.179688 322.644531 57.574219 318.972656 61.402344 317.78125 L 69.015625 316.351562 L 63.113281 307.84375 L 48.839844 313.507812 L 53.863281 326.429688 " fill-opacity="1" fill-rule="nonzero"/><path fill="#000000" d="M 49.660156 313.863281 L 53.863281 324.679688 C 55.5625 320.773438 58.132812 318.132812 61.214844 317.175781 C 61.238281 317.167969 61.261719 317.160156 61.285156 317.15625 L 67.933594 315.910156 L 62.878906 308.617188 Z M 53.863281 327.066406 C 53.601562 327.066406 53.367188 326.902344 53.273438 326.660156 L 48.246094 313.738281 C 48.121094 313.414062 48.28125 313.046875 48.605469 312.917969 L 62.878906 307.253906 C 63.15625 307.144531 63.46875 307.238281 63.636719 307.484375 L 69.535156 315.992188 C 69.660156 316.167969 69.683594 316.394531 69.601562 316.59375 C 69.519531 316.789062 69.34375 316.933594 69.132812 316.976562 L 61.558594 318.398438 C 57.425781 319.703125 55.339844 324.117188 54.460938 326.640625 C 54.375 326.890625 54.140625 327.058594 53.875 327.066406 C 53.871094 327.066406 53.867188 327.066406 53.863281 327.066406 " fill-opacity="1" fill-rule="nonzero"/><path fill="#5479f7" d="M 49.121094 312.589844 C 47.332031 313.335938 44.046875 314.78125 41.28125 316.378906 C 39.546875 317.382812 38.855469 319.53125 39.648438 321.363281 C 41.882812 326.535156 47.679688 337.839844 54.046875 346.621094 C 54.484375 347.21875 55.617188 348.070312 57.402344 347.433594 C 63.390625 345.300781 59.195312 335.25 57.042969 322.777344 C 56.960938 322.289062 56.601562 321.890625 56.121094 321.761719 L 54.402344 321.300781 C 52.679688 320.839844 51.410156 319.390625 51.179688 317.628906 L 50.628906 313.445312 C 50.535156 312.734375 49.789062 312.308594 49.121094 312.589844 " fill-opacity="1" fill-rule="nonzero"/><path fill="#000000" d="M 49.121094 312.589844 L 49.125 312.589844 Z M 49.550781 313.136719 C 49.488281 313.136719 49.425781 313.148438 49.367188 313.171875 C 47.648438 313.890625 44.355469 315.335938 41.601562 316.925781 C 40.148438 317.765625 39.5625 319.566406 40.230469 321.109375 C 42.535156 326.449219 48.257812 337.550781 54.5625 346.246094 C 54.707031 346.449219 55.523438 347.429688 57.1875 346.835938 C 61.246094 345.390625 59.933594 339.441406 58.113281 331.210938 C 57.527344 328.558594 56.925781 325.820312 56.417969 322.882812 C 56.375 322.640625 56.195312 322.441406 55.957031 322.375 L 54.238281 321.914062 C 52.261719 321.382812 50.816406 319.734375 50.550781 317.710938 L 50 313.527344 C 49.972656 313.335938 49.847656 313.238281 49.777344 313.199219 C 49.707031 313.15625 49.628906 313.136719 49.550781 313.136719 Z M 56.1875 348.292969 C 54.949219 348.292969 54.023438 347.664062 53.535156 346.992188 C 47.167969 338.210938 41.394531 327.003906 39.0625 321.613281 C 38.140625 319.476562 38.957031 316.992188 40.964844 315.828125 C 43.78125 314.203125 47.128906 312.734375 48.875 312.003906 C 49.378906 311.792969 49.9375 311.828125 50.410156 312.097656 C 50.878906 312.367188 51.1875 312.828125 51.257812 313.363281 L 51.808594 317.546875 C 52.007812 319.058594 53.089844 320.292969 54.566406 320.6875 L 56.285156 321.148438 C 57 321.339844 57.542969 321.9375 57.667969 322.671875 C 58.171875 325.578125 58.773438 328.300781 59.355469 330.9375 C 61.238281 339.472656 62.726562 346.210938 57.613281 348.03125 C 57.105469 348.214844 56.628906 348.292969 56.1875 348.292969 " fill-opacity="1" fill-rule="nonzero"/><path fill="#ffffff" d="M 41.699219 316.140625 C 41.699219 316.140625 41.417969 316.300781 41.28125 316.378906 C 39.546875 317.382812 38.855469 319.53125 39.648438 321.363281 C 41.882812 326.535156 47.679688 337.839844 54.046875 346.621094 C 54.484375 347.21875 55.617188 348.070312 57.402344 347.433594 C 57.949219 347.238281 58.796875 346.65625 58.796875 346.65625 L 58.371094 346.015625 C 52.328125 336.910156 46.96875 327.375 42.328125 317.480469 L 41.699219 316.140625 " fill-opacity="1" fill-rule="nonzero"/><path fill="#000000" d="M 41.417969 317.039062 C 40.101562 317.917969 39.589844 319.628906 40.230469 321.109375 C 42.535156 326.449219 48.257812 337.550781 54.5625 346.246094 C 54.707031 346.449219 55.523438 347.429688 57.1875 346.835938 C 57.386719 346.765625 57.664062 346.617188 57.910156 346.46875 L 57.84375 346.367188 C 51.804688 337.265625 46.390625 327.640625 41.753906 317.75 Z M 56.1875 348.292969 C 54.949219 348.292969 54.023438 347.664062 53.535156 346.992188 C 47.167969 338.210938 41.394531 327.003906 39.0625 321.613281 C 38.140625 319.476562 38.957031 316.992188 40.964844 315.828125 L 41.386719 315.589844 C 41.539062 315.5 41.722656 315.484375 41.890625 315.535156 C 42.058594 315.589844 42.199219 315.710938 42.273438 315.871094 L 42.902344 317.210938 C 47.511719 327.042969 52.894531 336.617188 58.902344 345.667969 L 59.324219 346.304688 C 59.515625 346.59375 59.441406 346.984375 59.15625 347.179688 C 59.0625 347.242188 58.222656 347.816406 57.613281 348.03125 C 57.105469 348.214844 56.628906 348.292969 56.1875 348.292969 " fill-opacity="1" fill-rule="nonzero"/><path fill="#000000" d="M 58.347656 330.617188 C 58.296875 330.617188 58.246094 330.609375 58.191406 330.597656 L 52.480469 329.160156 C 52.140625 329.074219 51.9375 328.730469 52.019531 328.390625 C 52.105469 328.050781 52.453125 327.84375 52.792969 327.929688 L 58.503906 329.367188 C 58.84375 329.453125 59.046875 329.796875 58.960938 330.136719 C 58.890625 330.421875 58.632812 330.617188 58.347656 330.617188 " fill-opacity="1" fill-rule="nonzero"/><path fill="#000000" d="M 59.019531 333.984375 C 58.972656 333.984375 58.925781 333.980469 58.875 333.96875 L 54.203125 332.886719 C 53.863281 332.808594 53.648438 332.46875 53.726562 332.128906 C 53.808594 331.785156 54.148438 331.574219 54.488281 331.652344 L 59.164062 332.734375 C 59.503906 332.8125 59.71875 333.152344 59.636719 333.496094 C 59.570312 333.789062 59.308594 333.984375 59.019531 333.984375 " fill-opacity="1" fill-rule="nonzero"/><path fill="#000000" d="M 76.929688 228.914062 C 76.929688 228.914062 49.425781 233.925781 50.859375 224.152344 C 51.769531 217.9375 72.625 220.546875 78.75 221.566406 C 79.792969 221.742188 103.015625 215.886719 103.015625 215.886719 L 98.585938 229.765625 L 76.929688 228.914062 " fill-opacity="1" fill-rule="nonzero"/><path fill="#000000" d="M 97.726562 206.632812 C 97.726562 206.632812 118.191406 240.636719 121.480469 266.191406 C 123.261719 279.996094 92.023438 307.359375 63.699219 320.023438 C 61.957031 320.804688 59.917969 320.039062 59.125 318.308594 L 55.867188 311.203125 C 55.167969 309.671875 55.667969 307.855469 57.0625 306.90625 C 64.636719 301.734375 87.8125 285.144531 94.886719 271.179688 C 103.386719 254.402344 72.527344 241.585938 72.527344 241.585938 L 62.707031 216.796875 L 97.726562 206.632812 " fill-opacity="1" fill-rule="nonzero"/><path fill="#000000" d="M 55.378906 212.089844 C 55.378906 212.089844 55.855469 219.167969 57.984375 227.757812 C 60.03125 236.027344 60.390625 244.605469 59.121094 253.027344 C 56.8125 268.347656 58.542969 301.902344 65.757812 337.621094 C 66.132812 339.484375 68.042969 340.613281 69.859375 340.042969 L 75.753906 338.199219 C 76.976562 337.820312 77.851562 336.75 77.980469 335.476562 C 79.378906 321.96875 87.207031 247.21875 90.847656 232.949219 C 94.859375 217.25 96.332031 205.496094 96.332031 205.496094 L 55.378906 212.089844 " fill-opacity="1" fill-rule="nonzero"/><path fill="#caddff" d="M 81.917969 302.179688 C 81.890625 302.179688 81.859375 302.175781 81.832031 302.171875 C 81.484375 302.125 81.242188 301.808594 81.289062 301.460938 L 83.789062 282.515625 C 83.835938 282.167969 84.15625 281.921875 84.503906 281.96875 C 84.851562 282.015625 85.09375 282.332031 85.050781 282.679688 L 82.546875 301.628906 C 82.503906 301.945312 82.230469 302.179688 81.917969 302.179688 " fill-opacity="1" fill-rule="nonzero"/><path fill="#caddff" d="M 88.234375 251.75 C 88.207031 251.75 88.183594 251.75 88.15625 251.746094 C 87.808594 251.703125 87.558594 251.386719 87.605469 251.039062 L 88.578125 243.191406 C 88.621094 242.84375 88.9375 242.597656 89.289062 242.640625 C 89.636719 242.683594 89.882812 243 89.839844 243.347656 L 88.863281 251.195312 C 88.824219 251.515625 88.550781 251.75 88.234375 251.75 " fill-opacity="1" fill-rule="nonzero"/><path fill="#caddff" d="M 58.179688 232.066406 C 57.882812 232.066406 57.617188 231.855469 57.558594 231.554688 L 56.34375 225.363281 C 56.277344 225.019531 56.5 224.683594 56.84375 224.617188 C 57.1875 224.550781 57.523438 224.773438 57.589844 225.117188 L 58.804688 231.308594 C 58.871094 231.652344 58.648438 231.984375 58.304688 232.050781 C 58.261719 232.0625 58.222656 232.066406 58.179688 232.066406 " fill-opacity="1" fill-rule="nonzero"/><path fill="#ffffff" d="M 98.878906 166.980469 C 98.878906 166.980469 96.160156 173.179688 102.136719 186.78125 C 106.847656 197.503906 111.425781 202.808594 117.066406 208.074219 C 117.746094 208.707031 122.089844 213.066406 123.015625 213.039062 C 125.148438 212.980469 129.320312 213.238281 131.484375 215.902344 C 133.222656 218.039062 132.390625 221.285156 130.429688 222.011719 C 128.28125 222.804688 127.453125 222.351562 127.132812 221.125 C 126.722656 219.5625 125.851562 217.902344 123.984375 217.960938 L 119.761719 217.960938 C 118.992188 217.960938 119.210938 217.171875 118.5625 216.757812 C 113.800781 213.710938 88.425781 202.039062 87.75 176.609375 C 87.730469 175.917969 98.878906 166.980469 98.878906 166.980469 " fill-opacity="1" fill-rule="nonzero"/><path fill="#000000" d="M 124.09375 217.324219 C 125.832031 217.324219 127.128906 218.613281 127.746094 220.964844 C 127.878906 221.46875 128.058594 221.613281 128.1875 221.679688 C 128.433594 221.808594 128.988281 221.871094 130.210938 221.417969 C 130.878906 221.167969 131.421875 220.492188 131.664062 219.609375 C 131.980469 218.445312 131.730469 217.210938 130.992188 216.300781 C 129.023438 213.875 125.160156 213.613281 123.035156 213.675781 C 122.371094 213.695312 121.171875 212.933594 117.101562 208.988281 C 116.890625 208.78125 116.726562 208.625 116.632812 208.539062 C 110.742188 203.039062 106.164062 197.523438 101.554688 187.035156 C 97.347656 177.464844 97.375 171.480469 97.808594 168.65625 C 93.417969 172.207031 89.03125 175.914062 88.386719 176.75 C 89.078125 199.132812 109.234375 210.660156 116.832031 215.003906 C 117.710938 215.507812 118.40625 215.902344 118.902344 216.222656 C 119.339844 216.5 119.523438 216.886719 119.640625 217.140625 C 119.671875 217.203125 119.707031 217.28125 119.734375 217.324219 C 119.742188 217.324219 119.75 217.324219 119.761719 217.324219 L 123.984375 217.324219 C 124.023438 217.324219 124.058594 217.324219 124.09375 217.324219 Z M 128.660156 223.042969 C 128.25 223.042969 127.902344 222.964844 127.601562 222.804688 C 127.066406 222.527344 126.710938 222.03125 126.519531 221.285156 C 126.042969 219.460938 125.207031 218.558594 124.003906 218.59375 L 119.761719 218.59375 C 118.921875 218.59375 118.644531 218.003906 118.496094 217.683594 C 118.398438 217.476562 118.34375 217.367188 118.21875 217.289062 C 117.746094 216.988281 117.066406 216.597656 116.203125 216.105469 C 108.414062 211.652344 87.734375 199.828125 87.113281 176.625 C 87.105469 176.25 87.085938 175.621094 98.480469 166.484375 C 98.710938 166.300781 99.035156 166.296875 99.265625 166.472656 C 99.496094 166.652344 99.578125 166.964844 99.460938 167.230469 C 99.425781 167.316406 96.96875 173.441406 102.71875 186.527344 C 107.261719 196.859375 111.578125 202.082031 117.5 207.613281 C 117.597656 207.703125 117.765625 207.863281 117.984375 208.078125 C 121.472656 211.457031 122.660156 212.300781 123.035156 212.40625 C 125.402344 212.34375 129.675781 212.667969 131.976562 215.503906 C 132.972656 216.730469 133.3125 218.390625 132.886719 219.941406 C 132.539062 221.222656 131.699219 222.214844 130.652344 222.605469 C 129.863281 222.898438 129.207031 223.042969 128.660156 223.042969 " fill-opacity="1" fill-rule="nonzero"/><path fill="#ffffff" d="M 55.347656 154.59375 C 55.347656 154.59375 47.660156 163.644531 47.257812 173.710938 C 47.015625 179.75 50.921875 188.539062 52.0625 193.925781 C 55.101562 208.289062 50.789062 224.210938 50.789062 224.210938 C 50.789062 224.210938 51.601562 221.535156 58.601562 223.703125 C 65.121094 225.726562 70.921875 226.925781 81.605469 223.160156 C 91.269531 219.761719 96.695312 216.679688 99.644531 214.558594 C 101.601562 213.152344 102.210938 210.523438 101.0625 208.410156 C 99.402344 205.355469 96.96875 200.523438 95.34375 195.691406 C 93.066406 188.910156 93.246094 177.898438 93.246094 177.898438 C 93.246094 177.898438 102.371094 176.152344 100.371094 167.519531 C 100.371094 167.519531 88.453125 147.308594 77.773438 148.195312 C 63.859375 149.347656 55.347656 154.59375 55.347656 154.59375 " fill-opacity="1" fill-rule="nonzero"/><path fill="#000000" d="M 53.957031 222.21875 C 55.285156 222.21875 56.898438 222.511719 58.789062 223.097656 C 65.144531 225.066406 70.84375 226.277344 81.394531 222.5625 C 91.15625 219.125 96.507812 216.03125 99.273438 214.042969 C 100.964844 212.824219 101.496094 210.535156 100.503906 208.710938 C 98.769531 205.527344 96.363281 200.71875 94.742188 195.890625 C 92.457031 189.085938 92.605469 178.339844 92.609375 177.886719 C 92.617188 177.585938 92.832031 177.328125 93.125 177.273438 C 93.164062 177.265625 97.082031 176.476562 98.984375 173.546875 C 100.011719 171.964844 100.277344 170.015625 99.777344 167.761719 C 98.929688 166.359375 87.65625 148.011719 77.824219 148.824219 C 64.953125 149.890625 56.691406 154.539062 55.769531 155.078125 C 55.027344 155.984375 48.261719 164.496094 47.890625 173.738281 C 47.738281 177.613281 49.375 182.761719 50.820312 187.304688 C 51.574219 189.683594 52.289062 191.933594 52.683594 193.792969 C 55.117188 205.308594 52.847656 217.933594 51.832031 222.554688 C 52.429688 222.332031 53.136719 222.21875 53.957031 222.21875 Z M 69.140625 226.25 C 65.191406 226.25 61.898438 225.390625 58.414062 224.308594 C 52.265625 222.40625 51.398438 224.398438 51.386719 224.417969 C 51.289062 224.75 50.941406 224.929688 50.609375 224.835938 C 50.277344 224.738281 50.085938 224.382812 50.175781 224.046875 C 50.21875 223.886719 54.410156 208.101562 51.441406 194.058594 C 51.058594 192.257812 50.355469 190.039062 49.609375 187.691406 C 48.132812 183.046875 46.460938 177.785156 46.625 173.6875 C 47.027344 163.519531 54.546875 154.558594 54.867188 154.179688 C 54.910156 154.128906 54.960938 154.085938 55.015625 154.050781 C 55.367188 153.835938 63.816406 148.714844 77.71875 147.558594 C 88.679688 146.65625 100.425781 166.359375 100.917969 167.199219 C 100.953125 167.253906 100.976562 167.316406 100.992188 167.378906 C 101.605469 170.027344 101.285156 172.339844 100.042969 174.25 C 98.261719 176.980469 95.113281 178.066406 93.878906 178.398438 C 93.878906 180.597656 94 189.691406 95.945312 195.488281 C 97.539062 200.226562 99.910156 204.964844 101.617188 208.105469 C 102.914062 210.488281 102.226562 213.484375 100.015625 215.074219 C 97.179688 217.113281 91.71875 220.273438 81.816406 223.761719 C 76.675781 225.570312 72.648438 226.25 69.140625 226.25 " fill-opacity="1" fill-rule="nonzero"/><path fill="#ffffff" d="M 69.953125 173.523438 C 69.953125 173.523438 63.292969 181.472656 70.644531 185.628906 L 46.214844 195.394531 L 44.285156 186.914062 C 39.734375 172.046875 47.621094 156.042969 62.339844 151 C 63.761719 150.511719 65.21875 150.117188 66.683594 149.820312 L 69.953125 173.523438 " fill-opacity="1" fill-rule="nonzero"/><path fill="#000000" d="M 46.214844 196.027344 C 46.117188 196.027344 46.019531 196.003906 45.933594 195.960938 C 45.761719 195.878906 45.636719 195.71875 45.59375 195.535156 L 43.671875 187.078125 C 41.519531 180.027344 42.039062 172.460938 45.140625 165.777344 C 48.242188 159.082031 53.660156 153.851562 60.390625 151.058594 C 60.714844 150.925781 61.085938 151.078125 61.222656 151.398438 C 61.355469 151.726562 61.203125 152.09375 60.878906 152.230469 C 47.671875 157.710938 40.648438 172.867188 44.890625 186.726562 C 44.894531 186.742188 44.898438 186.757812 44.902344 186.773438 L 46.660156 194.492188 L 67.460938 185.015625 C 67.78125 184.871094 68.15625 185.011719 68.304688 185.332031 C 68.449219 185.648438 68.308594 186.023438 67.988281 186.167969 L 46.476562 195.972656 C 46.390625 196.007812 46.300781 196.027344 46.214844 196.027344 " fill-opacity="1" fill-rule="nonzero"/><path fill="#ffffff" d="M 60.761719 150.550781 L 59.96875 134.683594 L 70.867188 136.234375 L 71.503906 146.195312 C 71.609375 147.644531 72.675781 148.835938 74.097656 149.101562 L 75.386719 149.34375 C 76.046875 149.46875 76.191406 150.351562 75.601562 150.679688 L 71.0625 153.207031 C 66.714844 155.628906 61.6875 156.558594 56.757812 155.84375 C 56.050781 155.742188 55.832031 154.828125 56.417969 154.417969 C 58.203125 153.167969 60.789062 151.234375 60.761719 150.550781 " fill-opacity="1" fill-rule="nonzero"/><path fill="#000000" d="M 60.644531 135.421875 L 61.394531 150.523438 C 61.394531 150.523438 61.394531 150.527344 61.394531 150.527344 C 61.414062 150.957031 61.441406 151.675781 56.78125 154.9375 C 56.722656 154.976562 56.703125 155.03125 56.71875 155.097656 C 56.734375 155.164062 56.777344 155.207031 56.847656 155.214844 C 61.613281 155.90625 66.550781 154.996094 70.753906 152.652344 L 75.292969 150.125 C 75.3125 150.117188 75.347656 150.097656 75.335938 150.039062 C 75.328125 149.976562 75.289062 149.96875 75.265625 149.964844 L 73.980469 149.726562 C 72.277344 149.40625 70.996094 147.976562 70.871094 146.242188 L 70.265625 136.789062 Z M 59.976562 156.707031 C 58.871094 156.707031 57.765625 156.628906 56.667969 156.472656 C 56.082031 156.386719 55.621094 155.964844 55.484375 155.390625 C 55.347656 154.824219 55.570312 154.234375 56.050781 153.898438 C 59.492188 151.492188 60.039062 150.683594 60.125 150.519531 L 59.335938 134.714844 C 59.328125 134.527344 59.402344 134.34375 59.542969 134.21875 C 59.683594 134.089844 59.871094 134.03125 60.058594 134.054688 L 70.957031 135.601562 C 71.253906 135.644531 71.480469 135.890625 71.5 136.191406 L 72.136719 146.15625 C 72.21875 147.308594 73.074219 148.265625 74.214844 148.480469 L 75.5 148.722656 C 76.070312 148.828125 76.496094 149.265625 76.589844 149.835938 C 76.683594 150.40625 76.414062 150.953125 75.910156 151.234375 L 71.375 153.761719 C 67.894531 155.699219 63.945312 156.707031 59.976562 156.707031 " fill-opacity="1" fill-rule="nonzero"/><path fill="#000000" d="M 77.089844 117.558594 C 74.28125 117.15625 77.597656 120.347656 67.414062 116.433594 C 63.359375 114.875 65.074219 119.882812 64.023438 119.480469 C 60.132812 117.996094 59.070312 117.632812 57.085938 117.976562 C 55.773438 118.207031 52.851562 120.511719 53.136719 122.28125 C 54.078125 128.046875 56.710938 126.765625 58.027344 131.835938 C 58.953125 135.398438 59.839844 136.535156 61.191406 137.15625 C 62.558594 137.785156 63.746094 135.992188 65.289062 136.566406 C 67.285156 137.308594 66.601562 140.800781 68.472656 142.433594 C 69.652344 143.460938 72.535156 144.132812 77.390625 142.261719 C 78.175781 141.957031 78.636719 141.132812 78.476562 140.300781 C 78.273438 139.234375 78.007812 137.890625 77.644531 136.625 C 75.925781 130.59375 73.945312 129.09375 74.824219 127.644531 C 76.164062 125.421875 80.460938 127.125 81.34375 125.28125 C 82.257812 123.367188 80.929688 118.105469 77.089844 117.558594 " fill-opacity="1" fill-rule="nonzero"/><path fill="#ffffff" d="M 66.449219 126.792969 L 67.136719 128.363281 C 67.460938 129.101562 67.734375 129.859375 67.953125 130.636719 C 68.363281 132.09375 69.164062 134.566406 69.597656 135.960938 C 70.996094 140.449219 76.726562 136.132812 76.726562 136.132812 L 77.195312 134.96875 L 77.9375 134.738281 C 78.082031 134.691406 78.21875 134.617188 78.320312 134.507812 C 78.574219 134.230469 78.605469 133.835938 78.433594 133.53125 C 77.484375 131.855469 75.523438 128.109375 74.972656 124.851562 C 74.972656 124.851562 70.476562 123.28125 66.449219 126.792969 " fill-opacity="1" fill-rule="nonzero"/><path fill="#000000" d="M 67.222656 126.972656 L 67.71875 128.105469 C 68.054688 128.871094 68.335938 129.664062 68.5625 130.464844 C 68.859375 131.511719 69.371094 133.128906 69.78125 134.429688 C 69.941406 134.925781 70.085938 135.390625 70.207031 135.773438 C 70.460938 136.585938 70.871094 137.074219 71.46875 137.265625 C 72.9375 137.742188 75.261719 136.398438 76.207031 135.726562 L 76.605469 134.730469 C 76.675781 134.554688 76.824219 134.417969 77.007812 134.363281 L 77.75 134.132812 C 77.804688 134.113281 77.839844 134.09375 77.851562 134.078125 C 77.925781 133.996094 77.914062 133.902344 77.878906 133.84375 C 76.84375 132.011719 75.054688 128.535156 74.421875 125.351562 C 73.386719 125.097656 70.230469 124.597656 67.222656 126.972656 Z M 72.136719 138.632812 C 71.773438 138.632812 71.417969 138.582031 71.082031 138.472656 C 70.074219 138.152344 69.375 137.367188 68.992188 136.148438 C 68.875 135.769531 68.730469 135.308594 68.570312 134.8125 C 68.15625 133.503906 67.644531 131.875 67.339844 130.808594 C 67.132812 130.0625 66.867188 129.324219 66.554688 128.613281 L 65.867188 127.046875 C 65.757812 126.792969 65.824219 126.496094 66.035156 126.3125 C 70.289062 122.601562 74.984375 124.183594 75.183594 124.253906 C 75.402344 124.328125 75.558594 124.519531 75.597656 124.746094 C 76.144531 127.957031 78.148438 131.742188 78.984375 133.21875 C 79.300781 133.773438 79.21875 134.460938 78.785156 134.933594 C 78.617188 135.121094 78.390625 135.261719 78.128906 135.34375 L 77.671875 135.484375 L 77.316406 136.371094 C 77.273438 136.472656 77.203125 136.570312 77.109375 136.636719 C 76.984375 136.730469 74.433594 138.632812 72.136719 138.632812 " fill-opacity="1" fill-rule="nonzero"/><path fill="#ffffff" d="M 67.171875 132.128906 C 67.171875 132.128906 65.527344 128.351562 63.972656 129.460938 C 62.421875 130.566406 64.339844 134.679688 67.171875 132.128906 " fill-opacity="1" fill-rule="nonzero"/><path fill="#000000" d="M 74.265625 132.480469 C 74.546875 132.519531 74.683594 132.4375 74.765625 132.371094 C 74.945312 132.222656 75.257812 131.769531 75.285156 130.425781 C 75.296875 129.816406 75.199219 129.410156 75.011719 129.3125 C 74.648438 129.117188 74.390625 129.28125 74.359375 129.339844 C 73.558594 130.988281 73.996094 132.253906 74.265625 132.480469 Z M 74.285156 132.496094 Z M 74.402344 133.757812 C 74.269531 133.757812 74.132812 133.746094 73.996094 133.722656 C 73.605469 133.652344 73.246094 133.34375 72.996094 132.851562 C 72.5625 132.003906 72.390625 130.492188 73.214844 128.785156 C 73.382812 128.441406 73.710938 128.167969 74.113281 128.039062 C 74.597656 127.878906 75.125 127.9375 75.609375 128.191406 C 76.269531 128.542969 76.578125 129.28125 76.554688 130.453125 C 76.523438 131.886719 76.203125 132.832031 75.570312 133.351562 C 75.242188 133.621094 74.84375 133.757812 74.402344 133.757812 " fill-opacity="1" fill-rule="nonzero"/><path fill="#000000" d="M 65.632812 129.578125 C 65.296875 129.578125 65.015625 129.308594 65 128.96875 C 64.984375 128.617188 65.257812 128.324219 65.609375 128.308594 L 74.507812 127.9375 C 74.855469 127.921875 75.15625 128.191406 75.167969 128.542969 C 75.183594 128.894531 74.914062 129.1875 74.5625 129.203125 L 65.660156 129.574219 C 65.652344 129.578125 65.644531 129.578125 65.632812 129.578125 " fill-opacity="1" fill-rule="nonzero"/><path fill="#000000" d="M 78.195312 133.164062 C 77.9375 133.164062 77.695312 133.003906 77.601562 132.746094 C 77.492188 132.457031 77.613281 132.140625 77.867188 131.988281 C 78.082031 131.714844 78.621094 130.359375 78.125 129.316406 C 78.0625 129.1875 78 129.164062 77.945312 129.148438 C 77.628906 129.058594 77.019531 129.34375 76.761719 129.515625 C 76.46875 129.707031 76.078125 129.628906 75.882812 129.339844 C 75.6875 129.046875 75.769531 128.652344 76.058594 128.460938 C 76.183594 128.375 77.308594 127.65625 78.285156 127.925781 C 78.722656 128.046875 79.0625 128.339844 79.269531 128.769531 C 79.929688 130.15625 79.417969 131.652344 79.242188 132.078125 C 78.886719 132.949219 78.53125 133.082031 78.414062 133.125 C 78.34375 133.148438 78.269531 133.164062 78.195312 133.164062 " fill-opacity="1" fill-rule="nonzero"/><path fill="#5479f7" d="M 196.574219 246.242188 C 196.277344 246.242188 196.011719 246.03125 195.953125 245.726562 L 193.1875 231.359375 C 192.316406 226.847656 188.753906 223.574219 184.714844 223.574219 C 182.511719 223.574219 180.414062 224.519531 178.804688 226.234375 C 176.867188 228.296875 175.871094 231.203125 176.0625 234.210938 L 176.792969 245.566406 C 176.8125 245.914062 176.546875 246.214844 176.199219 246.238281 C 175.847656 246.261719 175.546875 245.996094 175.523438 245.648438 L 174.792969 234.292969 C 174.578125 230.933594 175.703125 227.683594 177.878906 225.367188 C 179.730469 223.394531 182.160156 222.304688 184.714844 222.304688 C 189.363281 222.304688 193.449219 226.011719 194.433594 231.121094 L 197.199219 245.488281 C 197.265625 245.832031 197.039062 246.164062 196.695312 246.230469 C 196.65625 246.238281 196.617188 246.242188 196.574219 246.242188 " fill-opacity="1" fill-rule="nonzero"/><path fill="#ffffff" d="M 200.058594 239.640625 L 205.15625 241.148438 L 213.628906 297.882812 C 213.761719 298.765625 213.160156 299.574219 212.371094 299.582031 L 199.3125 299.675781 L 195.929688 272.828125 L 200.058594 239.640625 " fill-opacity="1" fill-rule="nonzero"/><path fill="#5479f7" d="M 196.566406 272.828125 L 199.875 299.039062 L 212.363281 298.949219 C 212.570312 298.945312 212.714844 298.828125 212.800781 298.726562 C 212.964844 298.535156 213.039062 298.253906 213 297.976562 L 204.585938 241.640625 L 200.59375 240.460938 Z M 198.753906 300.316406 L 195.289062 272.828125 L 195.296875 272.75 L 199.519531 238.820312 L 205.722656 240.65625 L 214.253906 297.789062 C 214.351562 298.433594 214.171875 299.078125 213.765625 299.554688 C 213.402344 299.976562 212.90625 300.210938 212.371094 300.214844 L 198.753906 300.316406 " fill-opacity="1" fill-rule="nonzero"/><path fill="#5479f7" d="M 159.878906 240.382812 L 200.058594 239.640625 L 199.425781 299.386719 L 147.113281 299.242188 L 159.878906 240.382812 " fill-opacity="1" fill-rule="nonzero"/><path fill="#5479f7" d="M 168.761719 244.675781 C 168.722656 244.675781 168.679688 244.671875 168.640625 244.664062 C 168.296875 244.597656 168.070312 244.265625 168.136719 243.921875 L 170.902344 229.554688 C 171.886719 224.445312 175.972656 220.738281 180.621094 220.738281 C 183.179688 220.738281 185.609375 221.828125 187.460938 223.800781 C 189.632812 226.117188 190.757812 229.371094 190.539062 232.726562 L 189.8125 244.082031 C 189.789062 244.429688 189.488281 244.699219 189.136719 244.671875 C 188.789062 244.652344 188.523438 244.347656 188.542969 244 L 189.273438 232.644531 C 189.46875 229.636719 188.46875 226.730469 186.535156 224.667969 C 184.925781 222.953125 182.824219 222.007812 180.621094 222.007812 C 176.582031 222.007812 173.019531 225.28125 172.148438 229.792969 L 169.382812 244.160156 C 169.324219 244.464844 169.058594 244.675781 168.761719 244.675781 " fill-opacity="1" fill-rule="nonzero"/><path fill="#caddff" d="M 212.148438 298.390625 C 211.988281 298.390625 211.832031 298.332031 211.707031 298.214844 L 205.894531 292.582031 C 205.785156 292.472656 205.714844 292.332031 205.703125 292.175781 L 201.957031 244.921875 C 201.925781 244.570312 202.1875 244.265625 202.539062 244.238281 C 202.886719 244.210938 203.191406 244.472656 203.222656 244.820312 L 206.953125 291.835938 L 212.589844 297.300781 C 212.84375 297.546875 212.847656 297.945312 212.605469 298.199219 C 212.480469 298.328125 212.316406 298.390625 212.148438 298.390625 " fill-opacity="1" fill-rule="nonzero"/><path fill="#5479f7" d="M 174.992188 246.703125 C 174.695312 246.703125 174.429688 246.492188 174.371094 246.1875 L 171.605469 231.820312 C 170.734375 227.3125 167.171875 224.035156 163.132812 224.035156 C 160.929688 224.035156 158.832031 224.980469 157.21875 226.695312 C 155.285156 228.753906 154.285156 231.664062 154.480469 234.675781 L 155.210938 246.027344 C 155.230469 246.378906 154.964844 246.679688 154.617188 246.699219 C 154.265625 246.726562 153.964844 246.457031 153.941406 246.109375 L 153.214844 234.753906 C 153 231.398438 154.121094 228.144531 156.292969 225.828125 C 158.148438 223.855469 160.574219 222.765625 163.132812 222.765625 C 167.78125 222.765625 171.867188 226.472656 172.851562 231.582031 L 175.617188 245.949219 C 175.683594 246.292969 175.460938 246.625 175.113281 246.691406 C 175.074219 246.699219 175.03125 246.703125 174.992188 246.703125 " fill-opacity="1" fill-rule="nonzero"/><path fill="#99b9ff" d="M 178.5625 240.058594 L 183.570312 241.609375 L 192.296875 300.03125 L 177.730469 300.140625 L 174.34375 273.289062 L 177.929688 240.542969 C 177.96875 240.195312 178.265625 239.96875 178.5625 240.058594 " fill-opacity="1" fill-rule="nonzero"/><path fill="#5479f7" d="M 178.375 240.664062 Z M 174.984375 273.285156 L 178.289062 299.5 L 191.558594 299.402344 L 183.003906 242.097656 L 178.546875 240.71875 Z M 177.171875 300.777344 L 173.703125 273.292969 L 173.714844 273.21875 L 177.296875 240.472656 C 177.335938 240.105469 177.53125 239.78125 177.828125 239.585938 C 178.105469 239.40625 178.441406 239.359375 178.75 239.453125 L 184.140625 241.121094 L 193.03125 300.660156 L 177.171875 300.777344 " fill-opacity="1" fill-rule="nonzero"/><path fill="#ffffff" d="M 138.296875 240.84375 L 178.472656 240.101562 L 177.84375 299.847656 L 125.53125 299.703125 L 138.296875 240.84375 " fill-opacity="1" fill-rule="nonzero"/><path fill="#5479f7" d="M 126.316406 299.074219 L 177.214844 299.210938 L 177.832031 240.746094 L 138.8125 241.46875 Z M 178.472656 300.484375 L 124.746094 300.335938 L 137.785156 240.21875 L 179.117188 239.457031 L 178.472656 300.484375 " fill-opacity="1" fill-rule="nonzero"/><path fill="#5479f7" d="M 147.179688 245.136719 C 147.136719 245.136719 147.097656 245.132812 147.058594 245.125 C 146.714844 245.058594 146.488281 244.726562 146.554688 244.382812 L 149.320312 230.015625 C 150.304688 224.90625 154.394531 221.203125 159.039062 221.203125 C 161.597656 221.203125 164.023438 222.289062 165.875 224.261719 C 168.050781 226.578125 169.175781 229.832031 168.960938 233.1875 L 168.230469 244.542969 C 168.207031 244.894531 167.90625 245.160156 167.554688 245.132812 C 167.207031 245.113281 166.941406 244.8125 166.964844 244.460938 L 167.691406 233.109375 C 167.886719 230.097656 166.886719 227.191406 164.949219 225.128906 C 163.339844 223.414062 161.242188 222.46875 159.039062 222.46875 C 155 222.46875 151.4375 225.746094 150.570312 230.253906 L 147.800781 244.621094 C 147.742188 244.925781 147.476562 245.136719 147.179688 245.136719 " fill-opacity="1" fill-rule="nonzero"/><path fill="#ffffff" d="M 190.566406 298.851562 C 190.40625 298.851562 190.25 298.792969 190.125 298.671875 L 184.3125 293.042969 C 184.203125 292.933594 184.132812 292.792969 184.121094 292.636719 L 180.371094 245.382812 C 180.34375 245.03125 180.605469 244.726562 180.953125 244.699219 C 181.308594 244.671875 181.609375 244.933594 181.636719 245.28125 L 185.367188 292.300781 L 191.007812 297.765625 C 191.261719 298.007812 191.265625 298.410156 191.023438 298.660156 C 190.898438 298.789062 190.734375 298.851562 190.566406 298.851562 " fill-opacity="1" fill-rule="nonzero"/><path fill="#5479f7" d="M 205.566406 351.152344 C 206.734375 354.039062 205.71875 357.179688 203.296875 358.160156 C 200.871094 359.136719 197.957031 357.59375 196.785156 354.703125 C 195.617188 351.8125 196.632812 348.675781 199.058594 347.695312 C 201.480469 346.714844 204.398438 348.261719 205.566406 351.152344 " fill-opacity="1" fill-rule="nonzero"/><path fill="#ffffff" d="M 202.761719 352.285156 C 203.183594 353.328125 202.816406 354.460938 201.941406 354.8125 C 201.066406 355.167969 200.015625 354.609375 199.59375 353.566406 C 199.171875 352.523438 199.539062 351.394531 200.414062 351.039062 C 201.285156 350.6875 202.335938 351.242188 202.761719 352.285156 " fill-opacity="1" fill-rule="nonzero"/><path fill="#5479f7" d="M 225.625 351.152344 C 226.792969 354.039062 225.777344 357.179688 223.355469 358.160156 C 220.929688 359.136719 218.015625 357.59375 216.84375 354.703125 C 215.675781 351.8125 216.691406 348.675781 219.113281 347.695312 C 221.539062 346.714844 224.453125 348.261719 225.625 351.152344 " fill-opacity="1" fill-rule="nonzero"/><path fill="#ffffff" d="M 222.820312 352.285156 C 223.246094 353.328125 222.878906 354.464844 222 354.820312 C 221.125 355.175781 220.070312 354.613281 219.648438 353.570312 C 219.222656 352.523438 219.589844 351.390625 220.46875 351.035156 C 221.34375 350.679688 222.398438 351.238281 222.820312 352.285156 " fill-opacity="1" fill-rule="nonzero"/><path fill="#5479f7" d="M 160.394531 351.152344 C 161.566406 354.039062 160.546875 357.179688 158.125 358.160156 C 155.699219 359.136719 152.785156 357.59375 151.617188 354.703125 C 150.445312 351.8125 151.460938 348.675781 153.886719 347.695312 C 156.308594 346.714844 159.222656 348.261719 160.394531 351.152344 " fill-opacity="1" fill-rule="nonzero"/><path fill="#ffffff" d="M 157.574219 352.292969 C 157.992188 353.324219 157.628906 354.445312 156.761719 354.796875 C 155.894531 355.148438 154.855469 354.59375 154.433594 353.5625 C 154.019531 352.527344 154.382812 351.410156 155.246094 351.058594 C 156.113281 350.707031 157.15625 351.257812 157.574219 352.292969 " fill-opacity="1" fill-rule="nonzero"/><path fill="#5479f7" d="M 180.042969 351.152344 C 181.214844 354.039062 180.195312 357.179688 177.773438 358.160156 C 175.347656 359.136719 172.433594 357.59375 171.265625 354.703125 C 170.09375 351.8125 171.109375 348.675781 173.535156 347.695312 C 175.957031 346.714844 178.871094 348.261719 180.042969 351.152344 " fill-opacity="1" fill-rule="nonzero"/><path fill="#ffffff" d="M 177.25 352.28125 C 177.675781 353.332031 177.304688 354.472656 176.425781 354.832031 C 175.542969 355.1875 174.480469 354.625 174.058594 353.574219 C 173.628906 352.523438 174 351.382812 174.882812 351.023438 C 175.765625 350.667969 176.824219 351.230469 177.25 352.28125 " fill-opacity="1" fill-rule="nonzero"/><path fill="#000000" d="M 193.40625 345.765625 C 193.167969 345.765625 192.9375 345.628906 192.832031 345.398438 L 133.3125 217.878906 C 133.164062 217.558594 133.304688 217.183594 133.621094 217.03125 C 133.9375 216.886719 134.316406 217.023438 134.464844 217.339844 L 193.980469 344.863281 C 194.128906 345.179688 193.992188 345.558594 193.675781 345.707031 C 193.589844 345.746094 193.496094 345.765625 193.40625 345.765625 " fill-opacity="1" fill-rule="nonzero"/><path fill="#5479f7" d="M 86.664062 220.332031 C 85.308594 220.300781 84.214844 219.292969 84.203125 218.050781 C 84.191406 216.785156 85.308594 215.753906 86.699219 215.746094 L 137.8125 215.558594 C 139.210938 215.550781 140.339844 216.574219 140.355469 217.839844 C 140.367188 219.105469 139.246094 220.136719 137.859375 220.144531 L 86.742188 220.332031 C 86.71875 220.332031 86.691406 220.332031 86.664062 220.332031 " fill-opacity="1" fill-rule="nonzero"/><path fill="#000000" d="M 137.832031 216.191406 C 137.828125 216.191406 137.824219 216.191406 137.816406 216.191406 L 86.703125 216.382812 C 86.164062 216.382812 85.652344 216.589844 85.296875 216.949219 C 84.996094 217.253906 84.832031 217.640625 84.835938 218.042969 C 84.847656 218.933594 85.671875 219.671875 86.679688 219.699219 C 86.679688 219.699219 86.679688 219.699219 86.683594 219.699219 L 86.742188 219.699219 L 137.855469 219.511719 C 138.394531 219.507812 138.90625 219.300781 139.257812 218.941406 C 139.558594 218.640625 139.722656 218.25 139.71875 217.847656 C 139.710938 216.933594 138.863281 216.191406 137.832031 216.191406 Z M 86.746094 220.96875 L 86.648438 220.96875 C 84.9375 220.925781 83.582031 219.644531 83.566406 218.054688 C 83.5625 217.3125 83.855469 216.601562 84.394531 216.058594 C 84.984375 215.460938 85.824219 215.117188 86.699219 215.113281 L 137.8125 214.921875 C 139.550781 214.925781 140.972656 216.21875 140.988281 217.835938 C 140.996094 218.578125 140.703125 219.289062 140.164062 219.832031 C 139.574219 220.433594 138.734375 220.777344 137.859375 220.777344 L 86.746094 220.96875 " fill-opacity="1" fill-rule="nonzero"/><path fill="#000000" d="M 101.363281 247.109375 L 125.691406 299.304688 L 211.898438 299.199219 C 212.703125 299.195312 213.4375 298.753906 213.820312 298.046875 L 237.917969 253.328125 C 238.796875 251.699219 238.515625 249.707031 237.210938 248.371094 C 236.433594 247.570312 235.285156 247.109375 234.0625 247.109375 Z M 125.285156 300.570312 C 125.039062 300.570312 124.816406 300.429688 124.710938 300.203125 L 99.792969 246.746094 C 99.703125 246.546875 99.71875 246.320312 99.835938 246.136719 C 99.949219 245.953125 100.152344 245.84375 100.367188 245.84375 L 234.0625 245.84375 C 235.625 245.84375 237.105469 246.441406 238.121094 247.484375 C 239.8125 249.21875 240.179688 251.808594 239.035156 253.929688 L 214.941406 298.648438 C 214.335938 299.765625 213.171875 300.464844 211.898438 300.464844 L 125.289062 300.570312 C 125.289062 300.570312 125.285156 300.570312 125.285156 300.570312 " fill-opacity="1" fill-rule="nonzero"/><path fill="#000000" d="M 199.402344 300.246094 C 199.335938 300.246094 199.277344 300.238281 199.210938 300.21875 C 198.878906 300.117188 198.691406 299.757812 198.792969 299.425781 L 208.65625 267.527344 C 208.761719 267.191406 209.113281 267.003906 209.449219 267.109375 C 209.785156 267.210938 209.972656 267.566406 209.867188 267.898438 L 200.007812 299.800781 C 199.921875 300.074219 199.671875 300.246094 199.402344 300.246094 " fill-opacity="1" fill-rule="nonzero"/><path fill="#000000" d="M 210.980469 262.800781 C 210.914062 262.800781 210.855469 262.789062 210.789062 262.769531 C 210.457031 262.667969 210.269531 262.3125 210.371094 261.976562 L 213.578125 251.609375 C 213.679688 251.273438 214.035156 251.085938 214.371094 251.191406 C 214.703125 251.292969 214.894531 251.648438 214.789062 251.984375 L 211.582031 262.351562 C 211.5 262.625 211.25 262.800781 210.980469 262.800781 " fill-opacity="1" fill-rule="nonzero"/><path fill="#5479f7" d="M 223.738281 346.546875 L 146.5625 346.546875 C 146.316406 346.546875 146.09375 346.402344 145.988281 346.179688 L 86.496094 218.867188 C 86.347656 218.550781 86.488281 218.171875 86.804688 218.023438 C 87.121094 217.878906 87.5 218.011719 87.648438 218.328125 L 146.96875 345.277344 L 223.738281 345.277344 C 224.089844 345.277344 224.371094 345.5625 224.371094 345.910156 C 224.371094 346.261719 224.089844 346.546875 223.738281 346.546875 " fill-opacity="1" fill-rule="nonzero"/><path fill="#ffffff" d="M 64.945312 187.050781 C 64.945312 187.050781 64.128906 191.933594 65.960938 198.648438 C 67.984375 206.054688 81.71875 208.820312 87.988281 212.824219 C 88.859375 213.378906 89.933594 213.519531 90.90625 213.175781 C 92.691406 212.546875 95.867188 211.941406 98.390625 214.253906 C 100.402344 216.101562 101.117188 218.566406 101.296875 220.707031 C 101.445312 222.429688 99.394531 223.40625 98.144531 222.210938 C 96.578125 220.71875 94.628906 219.347656 92.25 218.792969 C 92.25 218.792969 90.097656 218.382812 89.148438 219.640625 C 88.792969 220.113281 88.164062 220.292969 87.59375 220.140625 C 83.113281 218.96875 59.527344 215.566406 55.578125 204.957031 C 54.203125 201.257812 52.933594 192.546875 52.933594 192.546875 L 64.945312 187.050781 " fill-opacity="1" fill-rule="nonzero"/><path fill="#000000" d="M 91.453125 218.097656 C 91.960938 218.097656 92.328125 218.164062 92.367188 218.171875 C 94.5625 218.679688 96.585938 219.847656 98.582031 221.753906 C 99.042969 222.191406 99.601562 222.160156 99.972656 221.980469 C 100.34375 221.804688 100.71875 221.390625 100.667969 220.757812 C 100.449219 218.199219 99.539062 216.167969 97.960938 214.722656 C 95.65625 212.609375 92.683594 213.222656 91.117188 213.773438 C 89.980469 214.175781 88.683594 214.019531 87.648438 213.359375 C 85.726562 212.132812 83.050781 211.011719 80.222656 209.824219 C 73.941406 207.183594 66.816406 204.191406 65.351562 198.816406 C 64.003906 193.878906 64.054688 189.945312 64.195312 188.09375 L 53.632812 192.921875 C 53.917969 194.777344 55.019531 201.628906 56.175781 204.734375 C 59.46875 213.59375 77.339844 217.320312 84.972656 218.914062 C 86.179688 219.167969 87.136719 219.367188 87.753906 219.527344 C 88.09375 219.617188 88.453125 219.511719 88.640625 219.261719 C 89.375 218.285156 90.609375 218.097656 91.453125 218.097656 Z M 99.4375 223.371094 C 98.808594 223.371094 98.1875 223.132812 97.703125 222.667969 C 95.878906 220.925781 94.046875 219.863281 92.105469 219.414062 C 91.636719 219.328125 90.234375 219.253906 89.65625 220.023438 C 89.152344 220.6875 88.28125 220.976562 87.433594 220.753906 C 86.84375 220.601562 85.902344 220.40625 84.710938 220.15625 C 76.875 218.519531 58.523438 214.691406 54.984375 205.175781 C 53.601562 201.460938 52.355469 192.996094 52.304688 192.636719 C 52.261719 192.355469 52.410156 192.085938 52.667969 191.96875 L 64.679688 186.472656 C 64.894531 186.378906 65.144531 186.40625 65.332031 186.546875 C 65.515625 186.691406 65.609375 186.921875 65.570312 187.15625 C 65.5625 187.203125 64.804688 192 66.574219 198.480469 C 67.878906 203.261719 74.699219 206.125 80.714844 208.652344 C 83.597656 209.863281 86.316406 211.003906 88.332031 212.292969 C 89.039062 212.742188 89.921875 212.851562 90.695312 212.578125 C 92.53125 211.929688 96.023438 211.226562 98.820312 213.789062 C 100.640625 215.457031 101.6875 217.765625 101.929688 220.652344 C 102.019531 221.703125 101.464844 222.671875 100.519531 223.125 C 100.171875 223.292969 99.800781 223.371094 99.4375 223.371094 " fill-opacity="1" fill-rule="nonzero"/></svg>