<svg xmlns="http://www.w3.org/2000/svg" xmlns:xlink="http://www.w3.org/1999/xlink" width="500" zoomAndPan="magnify" viewBox="0 0 375 374.999991" height="500" preserveAspectRatio="xMidYMid meet" version="1.0"><path fill="#caddff" d="M 282.773438 103.28125 C 246.179688 66.421875 256.65625 43.320312 231.621094 26.253906 C 193.097656 -0.00390625 121.195312 22.585938 78.777344 58.707031 C 26.824219 102.941406 0.0195312 183.714844 30.554688 256.785156 C 63.074219 334.601562 148.632812 374.996094 224.976562 362.824219 C 293.15625 351.953125 360.179688 298.171875 366.890625 233.671875 C 367.621094 226.679688 370.832031 188.886719 348.296875 156.304688 C 329.671875 129.375 311.777344 132.496094 282.773438 103.28125 " fill-opacity="1" fill-rule="nonzero"/><path fill="#99b9ff" d="M 17.84375 199.625 C 18.675781 218.664062 22.726562 237.953125 30.554688 256.683594 C 63.070312 334.5 148.632812 374.949219 224.976562 362.773438 C 293.15625 351.902344 360.175781 298.046875 366.890625 233.542969 C 367.292969 229.671875 368.457031 216.550781 365.585938 199.625 L 17.84375 199.625 " fill-opacity="1" fill-rule="nonzero"/><path fill="#99b9ff" d="M 359.96875 158.371094 C 366.808594 151.273438 373.476562 129.039062 362.492188 114.066406 C 354.117188 102.648438 355.03125 99.351562 353.515625 89.414062 C 352 79.476562 348.359375 63.425781 337.75 59.695312 C 327.148438 55.972656 320.234375 76 315.6875 95.875 C 311.144531 115.75 299.230469 124.300781 308.449219 145.742188 C 314.894531 160.726562 338.417969 180.730469 359.96875 158.371094 " fill-opacity="1" fill-rule="nonzero"/><path fill="#5479f7" d="M 334.558594 205.328125 C 334.222656 205.328125 333.9375 205.054688 333.929688 204.707031 L 331.652344 111.269531 C 331.640625 110.914062 331.917969 110.625 332.269531 110.617188 C 332.273438 110.617188 332.28125 110.617188 332.285156 110.617188 C 332.628906 110.617188 332.910156 110.890625 332.921875 111.238281 L 335.199219 204.679688 C 335.203125 205.027344 334.929688 205.320312 334.578125 205.328125 C 334.574219 205.328125 334.566406 205.328125 334.558594 205.328125 " fill-opacity="1" fill-rule="nonzero"/><path fill="#5479f7" d="M 334.234375 66.582031 C 320.902344 66.582031 305.398438 63.101562 288.824219 56.339844 C 268.546875 48.066406 246.476562 34.808594 225 17.992188 C 224.722656 17.777344 224.675781 17.378906 224.890625 17.101562 C 225.105469 16.824219 225.503906 16.777344 225.78125 16.992188 C 247.167969 33.738281 269.132812 46.9375 289.300781 55.164062 C 309.421875 63.371094 327.914062 66.699219 342.773438 64.785156 C 358.535156 62.753906 367.039062 58.441406 366.71875 52.640625 C 366.257812 44.265625 348.390625 34.988281 336.167969 34.773438 C 335.816406 34.769531 335.535156 34.480469 335.539062 34.128906 C 335.546875 33.78125 335.832031 33.503906 336.175781 33.503906 C 336.183594 33.503906 336.183594 33.503906 336.1875 33.503906 C 349.058594 33.730469 367.476562 43.382812 367.988281 52.570312 C 368.242188 57.210938 364.101562 63.316406 342.9375 66.042969 C 340.15625 66.402344 337.25 66.582031 334.234375 66.582031 " fill-opacity="1" fill-rule="nonzero"/><path fill="#99b9ff" d="M 216.804688 14.65625 L 230.019531 25.402344 L 215.289062 31.777344 C 215.289062 31.777344 213.292969 22.898438 216.804688 14.65625 " fill-opacity="1" fill-rule="nonzero"/><path fill="#99b9ff" d="M 241.976562 34.804688 L 260.199219 45.472656 C 260.199219 45.472656 247.441406 58.703125 240.738281 61.667969 C 240.738281 61.667969 236.269531 47.019531 241.976562 34.804688 " fill-opacity="1" fill-rule="nonzero"/><path fill="#99b9ff" d="M 271.804688 53.425781 C 272.210938 52.839844 282.566406 58.957031 293 61.945312 C 293 61.945312 280.839844 79.691406 272.039062 80.566406 C 272.039062 80.566406 267.550781 59.574219 271.804688 53.425781 " fill-opacity="1" fill-rule="nonzero"/><path fill="#caddff" d="M 328.394531 68.933594 C 328.394531 68.933594 308.648438 67.839844 304.585938 64.9375 C 304.585938 64.9375 306.910156 86.269531 305.121094 90.132812 C 305.121094 90.132812 320.417969 80.011719 328.394531 68.933594 " fill-opacity="1" fill-rule="nonzero"/><path fill="#caddff" d="M 355.933594 66.265625 C 355.933594 66.265625 343.671875 68.4375 339.035156 68.660156 C 339.035156 68.660156 342.132812 81.800781 337.894531 86.226562 C 337.894531 86.226562 346.761719 81.878906 355.933594 66.265625 " fill-opacity="1" fill-rule="nonzero"/><path fill="#5479f7" d="M 271.011719 83.9375 C 270.71875 83.9375 270.457031 83.730469 270.390625 83.433594 C 270.382812 83.378906 269.257812 78.09375 268.671875 72.117188 C 268.636719 71.765625 268.890625 71.457031 269.242188 71.421875 C 269.59375 71.390625 269.898438 71.644531 269.933594 71.992188 C 270.402344 76.753906 271.214844 81.066406 271.515625 82.585938 C 274.460938 82.042969 278.246094 79.488281 282.503906 75.15625 C 282.75 74.910156 283.152344 74.902344 283.402344 75.152344 C 283.652344 75.394531 283.65625 75.796875 283.410156 76.046875 C 278.59375 80.945312 274.445312 83.597656 271.078125 83.929688 C 271.054688 83.933594 271.035156 83.9375 271.011719 83.9375 " fill-opacity="1" fill-rule="nonzero"/><path fill="#5479f7" d="M 284.746094 74.347656 C 284.59375 74.347656 284.441406 74.292969 284.320312 74.179688 C 284.058594 73.945312 284.042969 73.542969 284.277344 73.285156 C 287.394531 69.871094 289.910156 66.476562 290.941406 65.035156 C 286.117188 63.578125 281.488281 61.546875 278.355469 60.113281 C 278.039062 59.96875 277.898438 59.59375 278.042969 59.273438 C 278.1875 58.957031 278.5625 58.816406 278.882812 58.960938 C 282.160156 60.460938 287.101562 62.621094 292.148438 64.070312 C 292.34375 64.125 292.5 64.273438 292.570312 64.464844 C 292.636719 64.65625 292.613281 64.871094 292.496094 65.039062 C 292.464844 65.085938 289.363281 69.597656 285.210938 74.140625 C 285.089844 74.277344 284.917969 74.347656 284.746094 74.347656 " fill-opacity="1" fill-rule="nonzero"/><path fill="#5479f7" d="M 304.101562 93.496094 C 303.953125 93.496094 303.804688 93.445312 303.6875 93.339844 C 303.472656 93.15625 303.40625 92.851562 303.523438 92.59375 C 303.78125 92.042969 304.09375 90.671875 304.132812 87.265625 C 304.140625 86.917969 304.421875 86.636719 304.769531 86.636719 C 304.773438 86.636719 304.777344 86.636719 304.777344 86.636719 C 305.128906 86.640625 305.40625 86.933594 305.40625 87.28125 C 305.382812 88.988281 305.292969 90.347656 305.136719 91.375 C 308.933594 88.707031 319.652344 80.789062 326.164062 72.222656 C 324.976562 72.140625 322.976562 71.996094 320.648438 71.777344 C 320.296875 71.742188 320.042969 71.433594 320.074219 71.085938 C 320.105469 70.734375 320.417969 70.476562 320.765625 70.511719 C 324.496094 70.863281 327.378906 71.027344 327.40625 71.027344 C 327.636719 71.039062 327.84375 71.179688 327.945312 71.386719 C 328.042969 71.597656 328.019531 71.84375 327.886719 72.035156 C 319.933594 83.078125 304.601562 93.289062 304.449219 93.390625 C 304.34375 93.460938 304.222656 93.496094 304.101562 93.496094 " fill-opacity="1" fill-rule="nonzero"/><path fill="#5479f7" d="M 304.320312 76.851562 C 303.992188 76.851562 303.714844 76.597656 303.691406 76.265625 C 303.351562 71.617188 302.933594 67.773438 302.929688 67.738281 C 302.902344 67.488281 303.023438 67.246094 303.238281 67.121094 C 303.453125 66.996094 303.726562 67.003906 303.925781 67.152344 C 304.78125 67.761719 307.042969 68.679688 312.957031 69.578125 C 313.300781 69.628906 313.539062 69.953125 313.488281 70.300781 C 313.433594 70.648438 313.113281 70.882812 312.761719 70.832031 C 308.800781 70.230469 306.015625 69.5625 304.316406 68.804688 C 304.464844 70.308594 304.726562 73.0625 304.957031 76.171875 C 304.980469 76.519531 304.71875 76.824219 304.367188 76.851562 C 304.351562 76.851562 304.335938 76.851562 304.320312 76.851562 " fill-opacity="1" fill-rule="nonzero"/><path fill="#5479f7" d="M 336.871094 89.589844 C 336.671875 89.589844 336.484375 89.496094 336.359375 89.328125 C 336.175781 89.078125 336.199219 88.734375 336.414062 88.515625 C 340.367188 84.386719 337.421875 71.667969 337.394531 71.539062 C 337.351562 71.355469 337.390625 71.160156 337.503906 71.011719 C 337.617188 70.859375 337.792969 70.765625 337.980469 70.757812 C 339.558594 70.679688 342.207031 70.367188 345.851562 69.824219 C 346.199219 69.773438 346.523438 70.011719 346.574219 70.359375 C 346.625 70.707031 346.382812 71.03125 346.039062 71.082031 C 342.867188 71.554688 340.433594 71.851562 338.789062 71.980469 C 339.289062 74.402344 340.652344 82.152344 338.796875 86.980469 C 340.589844 85.691406 343.335938 83.414062 346.503906 79.761719 C 346.730469 79.496094 347.132812 79.46875 347.398438 79.699219 C 347.660156 79.929688 347.691406 80.328125 347.460938 80.59375 C 341.683594 87.257812 337.332031 89.4375 337.152344 89.527344 C 337.058594 89.570312 336.964844 89.589844 336.871094 89.589844 " fill-opacity="1" fill-rule="nonzero"/><path fill="#99b9ff" d="M 69.054688 158.25 C 83.199219 143.402344 74.703125 116.878906 73.0625 98.246094 C 71.9375 85.453125 70.726562 71.4375 59.65625 63.90625 C 32.199219 45.230469 21.554688 94.316406 18.476562 114.644531 C 15.789062 132.386719 19.671875 153.402344 35.496094 162.65625 C 44.453125 167.894531 56.019531 167.839844 64.640625 161.976562 C 66.3125 160.839844 67.777344 159.59375 69.054688 158.25 " fill-opacity="1" fill-rule="nonzero"/><path fill="#5479f7" d="M 49.464844 205.429688 C 49.125 205.429688 48.839844 205.15625 48.832031 204.808594 L 46.304688 93.449219 C 46.296875 93.097656 46.574219 92.808594 46.925781 92.800781 C 47.289062 92.796875 47.566406 93.070312 47.570312 93.421875 L 50.101562 204.78125 C 50.109375 205.128906 49.832031 205.421875 49.480469 205.429688 C 49.476562 205.429688 49.472656 205.429688 49.464844 205.429688 " fill-opacity="1" fill-rule="nonzero"/><path fill="#5479f7" d="M 308.875 201.886719 L 248.652344 201.886719 C 248.527344 201.886719 248.425781 201.785156 248.425781 201.660156 L 248.425781 110.359375 C 248.425781 110.238281 248.527344 110.132812 248.652344 110.132812 L 308.875 110.132812 C 309 110.132812 309.101562 110.238281 309.101562 110.359375 L 309.101562 201.660156 C 309.101562 201.785156 309 201.886719 308.875 201.886719 " fill-opacity="1" fill-rule="nonzero"/><path fill="#99b9ff" d="M 279.023438 124.164062 C 273.632812 124.164062 269.25 128.554688 269.25 133.945312 C 269.25 139.339844 273.632812 143.726562 279.023438 143.726562 C 284.410156 143.726562 288.792969 139.339844 288.792969 133.945312 C 288.792969 128.554688 284.410156 124.164062 279.023438 124.164062 Z M 279.023438 144.996094 C 272.933594 144.996094 267.980469 140.039062 267.980469 133.945312 C 267.980469 127.851562 272.933594 122.894531 279.023438 122.894531 C 285.109375 122.894531 290.0625 127.851562 290.0625 133.945312 C 290.0625 140.039062 285.109375 144.996094 279.023438 144.996094 " fill-opacity="1" fill-rule="nonzero"/><path fill="#99b9ff" d="M 279.167969 158.636719 C 271.355469 158.636719 265 164.996094 265 172.820312 C 265 180.636719 271.355469 187 279.167969 187 C 286.980469 187 293.335938 180.636719 293.335938 172.820312 C 293.335938 164.996094 286.980469 158.636719 279.167969 158.636719 Z M 279.167969 188.269531 C 270.65625 188.269531 263.730469 181.339844 263.730469 172.820312 C 263.730469 164.296875 270.65625 157.367188 279.167969 157.367188 C 287.679688 157.367188 294.605469 164.296875 294.605469 172.820312 C 294.605469 181.339844 287.679688 188.269531 279.167969 188.269531 " fill-opacity="1" fill-rule="nonzero"/><path fill="#99b9ff" d="M 288.253906 172.820312 C 288.253906 177.839844 284.183594 181.914062 279.164062 181.914062 C 274.148438 181.914062 270.078125 177.839844 270.078125 172.820312 C 270.078125 167.796875 274.148438 163.722656 279.164062 163.722656 C 284.183594 163.722656 288.253906 167.796875 288.253906 172.820312 " fill-opacity="1" fill-rule="nonzero"/><path fill="#000000" d="M 250.246094 103.816406 C 250.070312 103.816406 249.894531 103.742188 249.765625 103.59375 L 229.570312 79.96875 C 229.339844 79.703125 229.371094 79.300781 229.636719 79.074219 C 229.90625 78.84375 230.304688 78.878906 230.53125 79.144531 L 250.730469 102.769531 C 250.957031 103.035156 250.925781 103.4375 250.660156 103.664062 C 250.542969 103.765625 250.394531 103.816406 250.246094 103.816406 " fill-opacity="1" fill-rule="nonzero"/><path fill="#000000" d="M 244.144531 109.191406 C 244.023438 109.191406 243.898438 109.15625 243.789062 109.082031 L 226.40625 97.316406 C 226.117188 97.121094 226.039062 96.726562 226.234375 96.433594 C 226.433594 96.144531 226.824219 96.070312 227.117188 96.265625 L 244.5 108.03125 C 244.789062 108.230469 244.867188 108.625 244.671875 108.914062 C 244.546875 109.09375 244.347656 109.191406 244.144531 109.191406 " fill-opacity="1" fill-rule="nonzero"/><path fill="#000000" d="M 308.613281 36.140625 C 308.503906 36.140625 308.394531 36.113281 308.292969 36.054688 C 307.992188 35.878906 307.890625 35.488281 308.066406 35.1875 L 309.71875 32.363281 C 309.894531 32.0625 310.285156 31.957031 310.585938 32.132812 C 310.890625 32.3125 310.988281 32.703125 310.8125 33.003906 L 309.160156 35.828125 C 309.042969 36.03125 308.828125 36.140625 308.613281 36.140625 " fill-opacity="1" fill-rule="nonzero"/><path fill="#000000" d="M 304.769531 42.722656 C 304.65625 42.722656 304.546875 42.691406 304.445312 42.632812 C 304.144531 42.457031 304.042969 42.066406 304.21875 41.765625 L 305.871094 38.941406 C 306.046875 38.636719 306.4375 38.539062 306.742188 38.714844 C 307.039062 38.890625 307.140625 39.28125 306.964844 39.582031 L 305.316406 42.40625 C 305.195312 42.609375 304.984375 42.722656 304.769531 42.722656 " fill-opacity="1" fill-rule="nonzero"/><path fill="#000000" d="M 305.636719 36.921875 C 305.527344 36.921875 305.417969 36.894531 305.320312 36.835938 L 302.496094 35.183594 C 302.195312 35.003906 302.09375 34.617188 302.269531 34.3125 C 302.449219 34.011719 302.835938 33.910156 303.136719 34.085938 L 305.960938 35.738281 C 306.261719 35.917969 306.363281 36.304688 306.1875 36.609375 C 306.070312 36.808594 305.855469 36.921875 305.636719 36.921875 " fill-opacity="1" fill-rule="nonzero"/><path fill="#000000" d="M 312.210938 40.773438 C 312.105469 40.773438 311.992188 40.742188 311.890625 40.6875 L 309.066406 39.03125 C 308.765625 38.855469 308.667969 38.464844 308.839844 38.164062 C 309.019531 37.863281 309.410156 37.761719 309.710938 37.9375 L 312.53125 39.589844 C 312.832031 39.769531 312.9375 40.15625 312.757812 40.460938 C 312.640625 40.660156 312.429688 40.773438 312.210938 40.773438 " fill-opacity="1" fill-rule="nonzero"/><path fill="#000000" d="M 72.722656 31.828125 C 72.613281 31.828125 72.503906 31.800781 72.402344 31.742188 C 72.101562 31.566406 72 31.175781 72.175781 30.871094 L 73.828125 28.050781 C 74.003906 27.746094 74.394531 27.644531 74.695312 27.824219 C 75 28 75.101562 28.386719 74.921875 28.691406 L 73.269531 31.515625 C 73.152344 31.714844 72.941406 31.828125 72.722656 31.828125 " fill-opacity="1" fill-rule="nonzero"/><path fill="#000000" d="M 68.878906 38.40625 C 68.769531 38.40625 68.660156 38.378906 68.558594 38.320312 C 68.253906 38.144531 68.152344 37.753906 68.332031 37.453125 L 69.980469 34.628906 C 70.15625 34.324219 70.546875 34.222656 70.847656 34.402344 C 71.152344 34.578125 71.253906 34.96875 71.074219 35.269531 L 69.425781 38.09375 C 69.308594 38.296875 69.09375 38.40625 68.878906 38.40625 " fill-opacity="1" fill-rule="nonzero"/><path fill="#000000" d="M 69.75 32.605469 C 69.640625 32.605469 69.53125 32.578125 69.429688 32.519531 L 66.609375 30.867188 C 66.308594 30.691406 66.207031 30.300781 66.382812 30 C 66.558594 29.695312 66.949219 29.59375 67.25 29.769531 L 70.070312 31.421875 C 70.375 31.601562 70.476562 31.988281 70.296875 32.292969 C 70.179688 32.492188 69.96875 32.605469 69.75 32.605469 " fill-opacity="1" fill-rule="nonzero"/><path fill="#000000" d="M 76.324219 36.460938 C 76.214844 36.460938 76.105469 36.429688 76.003906 36.371094 L 73.183594 34.71875 C 72.878906 34.542969 72.777344 34.152344 72.953125 33.851562 C 73.132812 33.546875 73.519531 33.445312 73.824219 33.625 L 76.644531 35.277344 C 76.945312 35.453125 77.046875 35.84375 76.871094 36.144531 C 76.753906 36.347656 76.539062 36.460938 76.324219 36.460938 " fill-opacity="1" fill-rule="nonzero"/><path fill="#5479f7" d="M 214.667969 46.855469 C 213.472656 47.257812 212.238281 47.617188 210.960938 47.925781 C 202.820312 49.898438 201.160156 47.929688 179.871094 47.1875 C 153.867188 46.28125 145.066406 48.824219 138.9375 51.511719 C 135.445312 53.042969 132.675781 54.683594 127.824219 57.554688 C 111.316406 67.335938 107.089844 73.5 102.796875 72.109375 C 101.808594 71.789062 100.824219 71.070312 99.933594 69.6875 C 93.328125 74.671875 85.800781 73.566406 81.683594 72.359375 C 81.683594 73.292969 81.722656 74.242188 81.808594 75.210938 C 82.054688 78.003906 82.484375 82.902344 85.488281 87.027344 C 91.960938 95.910156 107.917969 97.882812 124.960938 92.070312 C 123.882812 94.410156 115.1875 114.101562 125.4375 132.414062 C 136.023438 151.332031 159.1875 155.132812 174.414062 152.535156 C 199.246094 148.300781 219.097656 124.292969 215.703125 110.007812 C 215.121094 107.546875 212.550781 103.996094 207.433594 96.992188 C 201.378906 88.710938 195.902344 82.253906 192.035156 77.914062 C 196.195312 77.660156 210.558594 76.273438 223.070312 64.734375 C 224.207031 63.6875 225.257812 62.617188 226.230469 61.539062 C 219.109375 59.152344 215.988281 51.800781 214.667969 46.855469 " fill-opacity="1" fill-rule="nonzero"/><path fill="#000000" d="M 124.960938 91.433594 C 125.136719 91.433594 125.308594 91.507812 125.433594 91.644531 C 125.601562 91.832031 125.644531 92.105469 125.539062 92.335938 C 123.894531 95.902344 116.1875 114.585938 125.988281 132.101562 C 135.835938 149.691406 157.9375 154.699219 174.308594 151.910156 C 188.15625 149.546875 202.203125 140.292969 210.105469 128.339844 C 214.515625 121.660156 216.289062 115.203125 215.089844 110.148438 C 214.523438 107.765625 211.824219 104.074219 206.921875 97.363281 C 202.09375 90.761719 196.925781 84.359375 191.566406 78.335938 C 191.402344 78.15625 191.359375 77.898438 191.453125 77.671875 C 191.542969 77.445312 191.757812 77.292969 192 77.28125 C 198.609375 76.875 211.382812 74.648438 222.644531 64.265625 C 223.488281 63.488281 224.320312 62.660156 225.125 61.804688 C 218.8125 59.222656 215.730469 52.878906 214.238281 47.664062 C 213.1875 47.996094 212.140625 48.289062 211.113281 48.542969 C 206.125 49.75 203.460938 49.503906 197.621094 48.96875 C 193.710938 48.609375 188.355469 48.117188 179.847656 47.820312 C 153.429688 46.898438 145.011719 49.542969 139.195312 52.089844 C 135.734375 53.609375 133.039062 55.203125 128.148438 58.101562 C 121.425781 62.085938 116.707031 65.492188 113.265625 67.980469 C 108.058594 71.742188 105.445312 73.628906 102.601562 72.710938 C 101.539062 72.367188 100.59375 71.652344 99.785156 70.582031 C 93.472656 75.011719 86.457031 74.261719 82.328125 73.199219 C 82.347656 73.859375 82.386719 74.515625 82.441406 75.152344 C 82.6875 77.964844 83.101562 82.667969 86.003906 86.652344 C 92.296875 95.292969 107.871094 97.226562 124.757812 91.46875 C 124.824219 91.445312 124.894531 91.433594 124.960938 91.433594 Z M 165.542969 153.898438 C 159.5625 153.898438 153.46875 152.960938 147.988281 151.144531 C 137.710938 147.734375 129.722656 141.367188 124.882812 132.722656 C 115.664062 116.253906 121.445312 98.828125 123.8125 93.117188 C 106.917969 98.496094 91.429688 96.253906 84.980469 87.398438 C 81.871094 83.128906 81.417969 78.011719 81.175781 75.265625 C 81.09375 74.324219 81.050781 73.347656 81.050781 72.363281 C 81.046875 72.160156 81.144531 71.972656 81.300781 71.851562 C 81.460938 71.734375 81.667969 71.695312 81.859375 71.75 C 85.703125 72.875 93.109375 74.039062 99.550781 69.179688 C 99.691406 69.074219 99.871094 69.03125 100.042969 69.0625 C 100.21875 69.09375 100.371094 69.195312 100.464844 69.339844 C 101.191406 70.46875 102.042969 71.195312 102.992188 71.503906 C 105.222656 72.226562 107.664062 70.464844 112.523438 66.953125 C 115.984375 64.449219 120.730469 61.023438 127.503906 57.011719 C 132.4375 54.085938 135.152344 52.476562 138.6875 50.929688 C 144.632812 48.320312 153.210938 45.621094 179.894531 46.550781 C 188.433594 46.851562 193.808594 47.34375 197.734375 47.707031 C 203.605469 48.242188 206.035156 48.464844 210.8125 47.304688 C 212.015625 47.015625 213.25 46.660156 214.46875 46.253906 C 214.636719 46.195312 214.816406 46.210938 214.96875 46.296875 C 215.125 46.378906 215.238281 46.523438 215.28125 46.691406 C 216.6875 51.957031 219.765625 58.699219 226.4375 60.933594 C 226.636719 61.003906 226.792969 61.167969 226.847656 61.375 C 226.902344 61.582031 226.847656 61.804688 226.703125 61.964844 C 225.679688 63.097656 224.601562 64.1875 223.503906 65.199219 C 212.644531 75.210938 200.417969 77.828125 193.359375 78.453125 C 198.449219 84.222656 203.347656 90.328125 207.945312 96.613281 C 213.320312 103.972656 215.722656 107.332031 216.324219 109.855469 C 217.605469 115.253906 215.769531 122.066406 211.164062 129.039062 C 203.078125 141.273438 188.695312 150.742188 174.519531 153.160156 C 171.621094 153.652344 168.59375 153.898438 165.542969 153.898438 " fill-opacity="1" fill-rule="nonzero"/><path fill="#ffffff" d="M 246.417969 29.097656 L 244.195312 30.519531 L 247.59375 24.394531 C 247.761719 24.097656 247.773438 23.738281 247.625 23.429688 C 247.292969 22.726562 246.34375 22.613281 245.855469 23.214844 L 241.335938 28.757812 L 244.445312 20.933594 C 244.703125 20.289062 244.460938 19.554688 243.871094 19.191406 C 243.125 18.730469 242.148438 19.046875 241.808594 19.851562 L 238.835938 26.914062 L 239.863281 20.753906 C 239.984375 20.023438 239.445312 19.308594 238.699219 19.3125 C 238.238281 19.316406 237.789062 19.585938 237.613281 20.492188 C 237.195312 22.664062 234.992188 31.351562 234.992188 31.351562 C 234.992188 31.351562 234.035156 31.007812 232.804688 29.335938 C 231.570312 27.664062 231.066406 28.585938 231.066406 28.585938 C 230.316406 31.140625 232.140625 33.925781 233.472656 35.527344 C 228.964844 39.636719 222.714844 44.171875 214.671875 46.855469 C 215.988281 51.800781 219.109375 59.152344 226.234375 61.539062 C 234.03125 52.914062 236.902344 43.621094 237.976562 38.945312 C 241.121094 37.652344 246.441406 31.832031 247.621094 30.511719 C 247.773438 30.339844 247.859375 30.117188 247.859375 29.886719 C 247.859375 29.148438 247.042969 28.699219 246.417969 29.097656 " fill-opacity="1" fill-rule="nonzero"/><path fill="#000000" d="M 246.417969 29.097656 L 246.421875 29.097656 Z M 215.4375 47.265625 C 216.882812 52.328125 219.875 58.523438 226.042969 60.800781 C 233.011719 52.960938 236.042969 44.527344 237.359375 38.800781 C 237.402344 38.601562 237.546875 38.433594 237.738281 38.355469 C 240.773438 37.105469 246.109375 31.25 247.148438 30.089844 C 247.195312 30.035156 247.222656 29.964844 247.222656 29.890625 C 247.222656 29.726562 247.117188 29.648438 247.066406 29.625 C 247.019531 29.597656 246.894531 29.546875 246.757812 29.632812 L 244.535156 31.054688 C 244.289062 31.210938 243.972656 31.179688 243.757812 30.980469 C 243.546875 30.785156 243.5 30.464844 243.640625 30.214844 L 247.039062 24.085938 C 247.105469 23.96875 247.109375 23.824219 247.050781 23.703125 C 246.964844 23.511719 246.792969 23.472656 246.722656 23.464844 C 246.652344 23.453125 246.476562 23.453125 246.34375 23.617188 L 241.828125 29.160156 C 241.628906 29.402344 241.285156 29.464844 241.015625 29.308594 C 240.746094 29.148438 240.628906 28.816406 240.746094 28.527344 L 243.855469 20.699219 C 244 20.339844 243.863281 19.933594 243.535156 19.730469 C 243.335938 19.605469 243.101562 19.578125 242.878906 19.652344 C 242.65625 19.722656 242.484375 19.882812 242.394531 20.097656 L 239.417969 27.160156 C 239.292969 27.457031 238.96875 27.613281 238.65625 27.523438 C 238.347656 27.433594 238.15625 27.128906 238.210938 26.808594 L 239.238281 20.652344 C 239.269531 20.46875 239.214844 20.277344 239.09375 20.136719 C 239.035156 20.066406 238.90625 19.949219 238.707031 19.949219 C 238.601562 19.949219 238.363281 19.949219 238.234375 20.613281 C 237.816406 22.777344 235.699219 31.152344 235.605469 31.507812 C 235.5625 31.679688 235.449219 31.828125 235.292969 31.914062 C 235.132812 31.996094 234.949219 32.007812 234.78125 31.949219 C 234.660156 31.90625 233.605469 31.488281 232.292969 29.710938 C 231.964844 29.261719 231.734375 29.082031 231.613281 29.015625 C 231.117188 31.269531 232.851562 33.792969 233.960938 35.121094 C 234.175781 35.382812 234.152344 35.769531 233.902344 35.996094 C 228.191406 41.199219 221.984375 44.988281 215.4375 47.265625 Z M 226.230469 62.171875 C 226.164062 62.171875 226.097656 62.164062 226.03125 62.140625 C 218.828125 59.726562 215.542969 52.585938 214.054688 47.019531 C 213.96875 46.695312 214.152344 46.359375 214.46875 46.253906 C 220.882812 44.113281 226.980469 40.484375 232.605469 35.457031 C 231.125 33.558594 229.714844 30.925781 230.460938 28.410156 C 230.472656 28.367188 230.488281 28.324219 230.511719 28.285156 C 230.648438 28.035156 230.96875 27.734375 231.4375 27.699219 C 232.050781 27.664062 232.660156 28.070312 233.316406 28.957031 C 233.8125 29.636719 234.261719 30.070312 234.59375 30.34375 C 235.15625 28.105469 236.65625 22.101562 236.992188 20.371094 C 237.285156 18.855469 238.28125 18.683594 238.691406 18.679688 C 239.21875 18.675781 239.714844 18.90625 240.058594 19.3125 C 240.425781 19.742188 240.582031 20.304688 240.488281 20.863281 L 240.351562 21.671875 L 241.226562 19.605469 C 241.457031 19.050781 241.921875 18.625 242.492188 18.445312 C 243.066406 18.257812 243.6875 18.335938 244.203125 18.652344 C 245.054688 19.175781 245.40625 20.234375 245.035156 21.167969 L 243.445312 25.164062 L 245.363281 22.8125 C 245.730469 22.363281 246.292969 22.132812 246.875 22.203125 C 247.453125 22.273438 247.949219 22.628906 248.199219 23.160156 C 248.433594 23.648438 248.414062 24.226562 248.148438 24.703125 L 245.964844 28.636719 L 246.078125 28.5625 C 246.558594 28.253906 247.171875 28.234375 247.675781 28.511719 C 248.179688 28.785156 248.492188 29.316406 248.492188 29.890625 C 248.492188 30.277344 248.351562 30.648438 248.089844 30.9375 C 246.636719 32.566406 241.742188 37.867188 238.519531 39.394531 C 237.117188 45.339844 233.925781 53.972656 226.703125 61.964844 C 226.582031 62.101562 226.410156 62.171875 226.230469 62.171875 " fill-opacity="1" fill-rule="nonzero"/><path fill="#ffffff" d="M 96.496094 49.996094 C 97.957031 47.605469 97.539062 41.863281 95.902344 39.074219 C 94.25 36.25 88.558594 28.175781 88.558594 28.175781 C 85.746094 30.375 89.9375 36.867188 89.9375 36.867188 C 85.078125 39.984375 87.800781 43.292969 87.800781 43.292969 C 85.839844 47.371094 88.339844 48.765625 89.835938 49.21875 C 86.589844 53.582031 81.65625 61.84375 81.683594 72.359375 C 85.800781 73.566406 93.328125 74.667969 99.933594 69.6875 C 98.078125 66.8125 96.636719 61.054688 96.496094 49.996094 " fill-opacity="1" fill-rule="nonzero"/><path fill="#000000" d="M 82.320312 71.882812 C 86.171875 72.929688 93.007812 73.808594 99.089844 69.519531 C 97.066406 65.941406 95.980469 59.382812 95.859375 50.007812 C 95.859375 49.886719 95.890625 49.769531 95.953125 49.667969 C 97.246094 47.554688 96.929688 42.082031 95.355469 39.398438 C 94.007812 37.097656 89.890625 31.183594 88.503906 29.203125 C 87.464844 31.070312 89.496094 35.015625 90.46875 36.523438 C 90.5625 36.667969 90.59375 36.839844 90.558594 37.003906 C 90.523438 37.167969 90.421875 37.3125 90.28125 37.402344 C 88.753906 38.382812 87.886719 39.457031 87.707031 40.59375 C 87.503906 41.894531 88.28125 42.878906 88.289062 42.886719 C 88.449219 43.078125 88.480469 43.34375 88.375 43.566406 C 87.691406 44.988281 87.539062 46.144531 87.917969 47.007812 C 88.320312 47.929688 89.285156 48.386719 90.019531 48.613281 C 90.21875 48.671875 90.375 48.824219 90.4375 49.019531 C 90.503906 49.21875 90.46875 49.433594 90.34375 49.601562 C 86.726562 54.457031 82.433594 62.238281 82.320312 71.882812 Z M 88.570312 74.011719 C 85.761719 74.011719 83.273438 73.488281 81.503906 72.972656 C 81.234375 72.894531 81.050781 72.644531 81.046875 72.363281 C 81.023438 62.589844 85.15625 54.648438 88.832031 49.515625 C 88.027344 49.144531 87.199219 48.527344 86.753906 47.519531 C 86.253906 46.378906 86.363281 44.980469 87.074219 43.355469 C 86.753906 42.828125 86.246094 41.746094 86.457031 40.398438 C 86.671875 39.03125 87.550781 37.785156 89.078125 36.683594 C 88.050781 34.941406 85.394531 29.847656 88.167969 27.679688 C 88.304688 27.574219 88.480469 27.523438 88.652344 27.550781 C 88.824219 27.574219 88.976562 27.671875 89.078125 27.8125 C 89.308594 28.144531 94.800781 35.941406 96.449219 38.753906 C 98.070312 41.523438 98.6875 47.359375 97.128906 50.167969 C 97.265625 59.671875 98.386719 66.125 100.464844 69.34375 C 100.644531 69.625 100.578125 69.996094 100.3125 70.195312 C 96.425781 73.128906 92.222656 74.011719 88.570312 74.011719 " fill-opacity="1" fill-rule="nonzero"/><path fill="#000000" d="M 92.972656 48.164062 C 92.824219 48.164062 92.675781 48.109375 92.554688 48.007812 C 92.453125 47.917969 90.011719 45.765625 91.15625 43.304688 C 91.929688 41.648438 91.84375 41.507812 91.171875 40.410156 L 91.078125 40.253906 C 90.074219 38.601562 91.054688 37.125 91.097656 37.0625 C 91.203125 36.910156 91.367188 36.808594 91.550781 36.789062 C 91.734375 36.765625 91.917969 36.828125 92.050781 36.957031 L 95.332031 39.988281 C 95.589844 40.230469 95.605469 40.628906 95.367188 40.886719 C 95.128906 41.144531 94.730469 41.160156 94.472656 40.921875 L 91.902344 38.546875 C 91.878906 38.847656 91.929688 39.214844 92.164062 39.59375 L 92.253906 39.75 C 93.101562 41.128906 93.320312 41.671875 92.304688 43.84375 C 91.5625 45.441406 93.367188 47.03125 93.386719 47.050781 C 93.652344 47.277344 93.679688 47.679688 93.453125 47.945312 C 93.324219 48.089844 93.148438 48.164062 92.972656 48.164062 " fill-opacity="1" fill-rule="nonzero"/><path fill="#000000" d="M 89.785156 45.480469 C 89.324219 45.480469 88.863281 45.300781 88.523438 44.949219 L 87.347656 43.734375 C 87.101562 43.480469 87.109375 43.078125 87.359375 42.832031 C 87.613281 42.589844 88.015625 42.597656 88.257812 42.851562 L 89.433594 44.066406 C 89.609375 44.246094 89.894531 44.261719 90.089844 44.105469 C 90.359375 43.882812 90.757812 43.921875 90.980469 44.195312 C 91.203125 44.464844 91.164062 44.867188 90.890625 45.085938 C 90.570312 45.351562 90.175781 45.480469 89.785156 45.480469 " fill-opacity="1" fill-rule="nonzero"/><path fill="#000000" d="M 178.714844 104.316406 L 201.789062 151.761719 L 143.816406 154.777344 C 140.632812 144.605469 139.964844 131.523438 141.710938 115.636719 L 178.714844 104.316406 " fill-opacity="1" fill-rule="nonzero"/><path fill="#ffffff" d="M 131.535156 62.507812 C 132.121094 74.871094 133.867188 105.707031 137.09375 118.097656 C 137.511719 119.6875 139.265625 120.515625 140.765625 119.839844 C 148.136719 116.511719 169.074219 107.621094 185.007812 106.417969 C 187.28125 106.246094 188.785156 103.988281 188.074219 101.820312 C 185.023438 92.484375 178.203125 70.566406 176.28125 55.589844 C 175.734375 51.332031 172.355469 48.050781 168.152344 47.726562 C 160.398438 47.121094 147.871094 47.566406 136.074219 54.195312 C 133.125 55.851562 131.371094 59.085938 131.535156 62.507812 " fill-opacity="1" fill-rule="nonzero"/><path fill="#5479f7" d="M 157.574219 31.109375 C 158.292969 34.957031 160.535156 37.769531 162.582031 37.386719 C 164.628906 37.003906 167.644531 33.257812 166.925781 29.40625 C 166.203125 25.554688 162.019531 23.058594 159.972656 23.441406 C 157.925781 23.824219 156.855469 27.257812 157.574219 31.109375 " fill-opacity="1" fill-rule="nonzero"/><path fill="#000000" d="M 160.429688 24.035156 C 160.3125 24.035156 160.199219 24.046875 160.089844 24.066406 C 158.601562 24.34375 157.484375 27.195312 158.195312 30.992188 C 158.527344 32.753906 159.195312 34.332031 160.074219 35.4375 C 160.859375 36.417969 161.730469 36.902344 162.46875 36.761719 C 164.136719 36.445312 166.972656 33.097656 166.300781 29.523438 C 165.6875 26.238281 162.253906 24.035156 160.429688 24.035156 Z M 162.199219 38.058594 C 161.125 38.058594 160.035156 37.421875 159.085938 36.230469 C 158.074219 34.964844 157.316406 33.1875 156.949219 31.222656 C 156.152344 26.964844 157.429688 23.273438 159.859375 22.816406 C 162.273438 22.367188 166.773438 25.144531 167.550781 29.289062 C 168.328125 33.453125 165.171875 37.546875 162.699219 38.007812 C 162.535156 38.039062 162.367188 38.058594 162.199219 38.058594 " fill-opacity="1" fill-rule="nonzero"/><path fill="#000000" d="M 145.589844 31.832031 C 145.589844 31.832031 143.1875 26.9375 142.335938 26.074219 C 141.488281 25.214844 140.835938 24.300781 143.328125 22.632812 C 145.824219 20.960938 152.34375 16.5 156.335938 16.53125 C 160.332031 16.558594 163.128906 19.085938 161.902344 20.902344 C 160.671875 22.726562 160.105469 23.492188 161.054688 23.613281 C 162.003906 23.726562 162.523438 24.785156 159.839844 26.34375 C 157.152344 27.898438 147.792969 34.65625 145.589844 31.832031 " fill-opacity="1" fill-rule="nonzero"/><path fill="#ffffff" d="M 159.265625 48.839844 L 157.871094 41.417969 C 162.070312 39.308594 160.378906 36.382812 159.75 34.042969 C 159.074219 31.53125 156.996094 26.070312 156.996094 26.070312 C 153.550781 28.097656 146.792969 27.492188 146.792969 27.492188 C 146.792969 27.492188 147.761719 29.039062 147.207031 29.800781 C 146.648438 30.5625 146.996094 33.484375 146.996094 33.484375 C 146.996094 33.484375 145.789062 32.351562 144.5 33.21875 C 143.773438 33.707031 144.601562 35.792969 145.199219 36.960938 C 145.792969 38.132812 147.070312 38.359375 147.070312 38.359375 C 147.070312 38.359375 147.28125 38.234375 147.714844 39.265625 L 145.421875 51.351562 L 140.921875 53.222656 L 150.933594 54.574219 C 154.09375 55.003906 157.292969 54.152344 159.824219 52.210938 L 163.410156 49.464844 L 159.265625 48.839844 " fill-opacity="1" fill-rule="nonzero"/><path fill="#000000" d="M 147.394531 38.90625 C 147.367188 38.925781 147.335938 38.941406 147.304688 38.953125 C 147.332031 38.941406 147.363281 38.925781 147.394531 38.90625 Z M 143.332031 52.90625 L 151.019531 53.945312 C 153.988281 54.347656 157.058594 53.53125 159.441406 51.707031 L 161.839844 49.867188 L 159.171875 49.464844 C 158.90625 49.425781 158.695312 49.222656 158.644531 48.957031 L 157.25 41.535156 C 157.195312 41.253906 157.335938 40.976562 157.589844 40.851562 C 160.738281 39.269531 160.136719 37.386719 159.441406 35.210938 C 159.332031 34.867188 159.226562 34.53125 159.140625 34.210938 C 158.621094 32.269531 157.226562 28.492188 156.652344 26.964844 C 153.863281 28.246094 149.765625 28.265625 147.824219 28.191406 C 148.039062 28.8125 148.148438 29.585938 147.71875 30.175781 C 147.5 30.472656 147.457031 31.984375 147.625 33.410156 C 147.65625 33.675781 147.519531 33.929688 147.28125 34.054688 C 147.042969 34.171875 146.757812 34.128906 146.5625 33.949219 C 146.476562 33.871094 145.6875 33.1875 144.851562 33.746094 C 144.742188 33.957031 144.972656 35.117188 145.761719 36.671875 C 146.140625 37.414062 146.90625 37.664062 147.125 37.722656 C 147.191406 37.722656 147.261719 37.738281 147.328125 37.757812 C 147.6875 37.878906 147.980469 38.253906 148.296875 39.019531 C 148.347656 39.136719 148.359375 39.261719 148.335938 39.382812 L 146.046875 51.472656 C 146.003906 51.683594 145.863281 51.855469 145.664062 51.9375 Z M 152.511719 55.316406 C 151.957031 55.316406 151.402344 55.277344 150.851562 55.203125 L 140.835938 53.851562 C 140.554688 53.8125 140.328125 53.589844 140.292969 53.304688 C 140.253906 53.019531 140.414062 52.746094 140.679688 52.636719 L 144.863281 50.898438 L 147.054688 39.339844 C 146.964844 39.140625 146.894531 39.027344 146.855469 38.960938 C 146.484375 38.871094 145.261719 38.484375 144.632812 37.25 C 143.789062 35.589844 143.015625 33.449219 144.144531 32.691406 C 144.890625 32.1875 145.648438 32.1875 146.269531 32.371094 C 146.21875 31.339844 146.257812 30.023438 146.691406 29.425781 C 146.863281 29.191406 146.597656 28.375 146.257812 27.832031 C 146.128906 27.628906 146.125 27.367188 146.253906 27.164062 C 146.378906 26.957031 146.605469 26.839844 146.851562 26.863281 C 146.914062 26.867188 153.445312 27.425781 156.671875 25.523438 C 156.835938 25.429688 157.027344 25.410156 157.203125 25.472656 C 157.378906 25.535156 157.519531 25.671875 157.589844 25.847656 C 157.671875 26.070312 159.6875 31.363281 160.363281 33.878906 C 160.445312 34.183594 160.546875 34.5 160.652344 34.824219 C 161.3125 36.894531 162.207031 39.707031 158.582031 41.757812 L 159.808594 48.277344 L 163.507812 48.835938 C 163.757812 48.875 163.960938 49.058594 164.027344 49.304688 C 164.089844 49.550781 164 49.8125 163.796875 49.96875 L 160.210938 52.714844 C 158.007812 54.402344 155.273438 55.316406 152.511719 55.316406 " fill-opacity="1" fill-rule="nonzero"/><path fill="#000000" d="M 154 42.933594 C 149.992188 42.933594 148.484375 39.804688 148.464844 39.761719 C 148.320312 39.441406 148.457031 39.066406 148.773438 38.917969 C 149.09375 38.773438 149.46875 38.910156 149.617188 39.226562 C 149.699219 39.398438 151.65625 43.335938 157.625 40.832031 C 157.949219 40.695312 158.320312 40.847656 158.457031 41.171875 C 158.59375 41.496094 158.441406 41.867188 158.117188 42.003906 C 156.519531 42.671875 155.15625 42.933594 154 42.933594 " fill-opacity="1" fill-rule="nonzero"/><path fill="#5479f7" d="M 148.429688 33.132812 C 149.140625 36.984375 148.0625 40.417969 146.015625 40.796875 C 143.96875 41.175781 139.804688 38.769531 139.089844 34.917969 C 138.375 31.066406 141.382812 27.226562 143.429688 26.847656 C 145.476562 26.464844 147.714844 29.28125 148.429688 33.132812 " fill-opacity="1" fill-rule="nonzero"/><path fill="#000000" d="M 143.796875 27.449219 C 143.710938 27.449219 143.625 27.457031 143.542969 27.46875 C 142.828125 27.605469 141.691406 28.410156 140.761719 29.914062 C 140.203125 30.828125 139.320312 32.671875 139.714844 34.800781 C 140.109375 36.925781 141.585938 38.304688 142.433594 38.933594 C 143.824219 39.972656 145.175781 40.304688 145.898438 40.171875 C 146.636719 40.035156 147.277344 39.269531 147.652344 38.074219 C 148.078125 36.726562 148.128906 35.011719 147.804688 33.25 C 147.476562 31.484375 146.8125 29.90625 145.929688 28.796875 C 145.238281 27.925781 144.472656 27.449219 143.796875 27.449219 Z M 145.554688 41.46875 C 144.398438 41.46875 142.96875 40.917969 141.671875 39.953125 C 139.957031 38.667969 138.816406 36.921875 138.46875 35.035156 C 137.996094 32.484375 139.027344 30.316406 139.683594 29.246094 C 140.695312 27.609375 142.082031 26.449219 143.3125 26.222656 C 144.542969 25.992188 145.824219 26.625 146.921875 28.007812 C 147.929688 29.273438 148.6875 31.054688 149.050781 33.019531 C 149.414062 34.980469 149.347656 36.910156 148.863281 38.457031 C 148.332031 40.136719 147.363281 41.191406 146.132812 41.417969 C 145.949219 41.453125 145.757812 41.46875 145.554688 41.46875 " fill-opacity="1" fill-rule="nonzero"/><path fill="#5479f7" d="M 140.921875 34.457031 C 140.679688 34.457031 140.449219 34.316406 140.34375 34.078125 C 140.226562 33.820312 137.542969 27.652344 140.007812 22.066406 C 141.429688 18.839844 144.269531 16.5 148.449219 15.105469 C 148.78125 14.996094 149.140625 15.179688 149.25 15.511719 C 149.359375 15.84375 149.179688 16.203125 148.847656 16.3125 C 145.023438 17.585938 142.4375 19.695312 141.167969 22.578125 C 138.925781 27.65625 141.476562 33.507812 141.5 33.566406 C 141.644531 33.882812 141.5 34.261719 141.179688 34.402344 C 141.097656 34.441406 141.007812 34.457031 140.921875 34.457031 " fill-opacity="1" fill-rule="nonzero"/><path fill="#ffffff" d="M 60.117188 147.1875 L 60.28125 294.414062 L 75.921875 294.414062 L 76.320312 212.265625 C 76.335938 208.773438 79.148438 205.941406 82.636719 205.902344 L 228.113281 204.339844 C 231.386719 204.308594 234.058594 206.945312 234.074219 210.21875 L 233.203125 294.835938 L 248.425781 295.257812 L 250.109375 147.1875 L 60.117188 147.1875 " fill-opacity="1" fill-rule="nonzero"/><path fill="#99b9ff" d="M 237.699219 162.300781 L 70.160156 162.300781 C 69.808594 162.300781 69.527344 162.015625 69.527344 161.664062 C 69.527344 161.3125 69.808594 161.03125 70.160156 161.03125 L 237.699219 161.03125 C 238.050781 161.03125 238.335938 161.3125 238.335938 161.664062 C 238.335938 162.015625 238.050781 162.300781 237.699219 162.300781 " fill-opacity="1" fill-rule="nonzero"/><path fill="#5479f7" d="M 248.039062 297.675781 C 248.035156 297.675781 248.03125 297.675781 248.03125 297.675781 C 247.679688 297.671875 247.398438 297.382812 247.402344 297.035156 L 249.414062 147.996094 L 60.75 147.996094 L 60.664062 233.46875 C 60.664062 233.820312 60.382812 234.101562 60.03125 234.101562 C 59.679688 234.101562 59.394531 233.816406 59.398438 233.46875 L 59.484375 147.363281 C 59.484375 147.011719 59.765625 146.726562 60.117188 146.726562 L 250.058594 146.726562 C 250.226562 146.726562 250.390625 146.792969 250.507812 146.914062 C 250.628906 147.035156 250.691406 147.199219 250.691406 147.371094 L 248.671875 297.050781 C 248.667969 297.398438 248.382812 297.675781 248.039062 297.675781 " fill-opacity="1" fill-rule="nonzero"/><path fill="#000000" d="M 141.710938 146.25 C 141.710938 152.753906 125.695312 158.394531 105.9375 158.394531 C 86.175781 158.394531 70.160156 152.753906 70.160156 146.25 C 70.160156 139.746094 86.175781 134.84375 105.9375 134.84375 C 125.695312 134.84375 141.710938 139.746094 141.710938 146.25 " fill-opacity="1" fill-rule="nonzero"/><path fill="#5479f7" d="M 139.347656 143.4375 C 139.347656 149.511719 124.386719 154.777344 105.9375 154.777344 C 87.484375 154.777344 72.527344 149.511719 72.527344 143.4375 C 72.527344 137.363281 87.484375 132.785156 105.9375 132.785156 C 124.386719 132.785156 139.347656 137.363281 139.347656 143.4375 " fill-opacity="1" fill-rule="nonzero"/><path fill="#000000" d="M 105.9375 133.417969 C 87.863281 133.417969 73.160156 137.914062 73.160156 143.4375 C 73.160156 148.5 86.621094 154.140625 105.9375 154.140625 C 125.25 154.140625 138.710938 148.5 138.710938 143.4375 C 138.710938 137.914062 124.007812 133.417969 105.9375 133.417969 Z M 105.9375 155.414062 C 87.164062 155.414062 71.890625 150.039062 71.890625 143.4375 C 71.890625 137 86.527344 132.148438 105.9375 132.148438 C 125.34375 132.148438 139.980469 137 139.980469 143.4375 C 139.980469 150.039062 124.707031 155.414062 105.9375 155.414062 " fill-opacity="1" fill-rule="nonzero"/><path fill="#99b9ff" d="M 122.039062 141.414062 C 122.039062 143.59375 114.832031 145.359375 105.9375 145.359375 C 97.039062 145.359375 89.832031 143.59375 89.832031 141.414062 C 89.832031 139.238281 97.039062 137.472656 105.9375 137.472656 C 114.832031 137.472656 122.039062 139.238281 122.039062 141.414062 " fill-opacity="1" fill-rule="nonzero"/><path fill="#000000" d="M 107.191406 140.785156 C 107.191406 141.230469 106.628906 141.589844 105.9375 141.589844 C 105.242188 141.589844 104.679688 141.230469 104.679688 140.785156 C 104.679688 140.34375 105.242188 139.988281 105.9375 139.988281 C 106.628906 139.988281 107.191406 140.34375 107.191406 140.785156 " fill-opacity="1" fill-rule="nonzero"/><path fill="#000000" d="M 240.066406 146.25 C 240.066406 152.753906 224.050781 158.394531 204.289062 158.394531 C 184.53125 158.394531 168.515625 152.753906 168.515625 146.25 C 168.515625 139.746094 184.53125 134.84375 204.289062 134.84375 C 224.050781 134.84375 240.066406 139.746094 240.066406 146.25 " fill-opacity="1" fill-rule="nonzero"/><path fill="#5479f7" d="M 237.699219 143.4375 C 237.699219 149.511719 222.742188 154.777344 204.289062 154.777344 C 185.839844 154.777344 170.882812 149.511719 170.882812 143.4375 C 170.882812 137.363281 185.839844 132.785156 204.289062 132.785156 C 222.742188 132.785156 237.699219 137.363281 237.699219 143.4375 " fill-opacity="1" fill-rule="nonzero"/><path fill="#000000" d="M 204.289062 133.417969 C 186.21875 133.417969 171.515625 137.914062 171.515625 143.4375 C 171.515625 148.5 184.976562 154.140625 204.289062 154.140625 C 223.605469 154.140625 237.066406 148.5 237.066406 143.4375 C 237.066406 137.914062 222.363281 133.417969 204.289062 133.417969 Z M 204.289062 155.414062 C 185.519531 155.414062 170.246094 150.039062 170.246094 143.4375 C 170.246094 137 184.882812 132.148438 204.289062 132.148438 C 223.699219 132.148438 238.335938 137 238.335938 143.4375 C 238.335938 150.039062 223.0625 155.414062 204.289062 155.414062 " fill-opacity="1" fill-rule="nonzero"/><path fill="#99b9ff" d="M 220.394531 141.414062 C 220.394531 143.59375 213.183594 145.359375 204.289062 145.359375 C 195.394531 145.359375 188.1875 143.59375 188.1875 141.414062 C 188.1875 139.238281 195.394531 137.472656 204.289062 137.472656 C 213.183594 137.472656 220.394531 139.238281 220.394531 141.414062 " fill-opacity="1" fill-rule="nonzero"/><path fill="#000000" d="M 205.546875 140.785156 C 205.546875 141.230469 204.984375 141.589844 204.289062 141.589844 C 203.597656 141.589844 203.035156 141.230469 203.035156 140.785156 C 203.035156 140.34375 203.597656 139.988281 204.289062 139.988281 C 204.984375 139.988281 205.546875 140.34375 205.546875 140.785156 " fill-opacity="1" fill-rule="nonzero"/><path fill="#5479f7" d="M 149.574219 151.761719 L 144.5625 151.761719 L 144.5625 137.472656 L 149.574219 137.472656 L 149.574219 151.761719 " fill-opacity="1" fill-rule="nonzero"/><path fill="#5479f7" d="M 157.617188 151.761719 L 152.609375 151.761719 L 152.609375 137.472656 L 157.617188 137.472656 L 157.617188 151.761719 " fill-opacity="1" fill-rule="nonzero"/><path fill="#5479f7" d="M 165.664062 151.761719 L 160.652344 151.761719 L 160.652344 137.472656 L 165.664062 137.472656 L 165.664062 151.761719 " fill-opacity="1" fill-rule="nonzero"/><path fill="#99b9ff" d="M 160.535156 186.589844 L 91.074219 186.417969 C 90.726562 186.417969 90.441406 186.132812 90.445312 185.78125 C 90.445312 185.429688 90.726562 185.148438 91.078125 185.148438 L 160.535156 185.324219 C 160.886719 185.324219 161.167969 185.609375 161.167969 185.957031 C 161.167969 186.308594 160.882812 186.589844 160.535156 186.589844 " fill-opacity="1" fill-rule="nonzero"/><path fill="#000000" d="M 99.292969 219.335938 C 93.015625 221.6875 91.625 229.242188 87.195312 233.59375 C 81.671875 239.019531 73.734375 238.023438 67.15625 235.363281 C 59.796875 232.390625 52.992188 226.550781 44.878906 230.296875 C 38.214844 233.375 36.253906 239.582031 35.902344 246.382812 C 35.785156 248.714844 35.546875 251.113281 34.773438 253.332031 C 34.140625 255.140625 33.058594 256.847656 31.464844 257.90625 C 28.929688 259.582031 25.644531 259.355469 22.605469 259.359375 C 6.335938 259.382812 31.566406 294.023438 38.460938 297.078125 C 44.949219 299.953125 52.65625 299.921875 59.121094 297 C 63.101562 295.195312 66.554688 292.398438 70.46875 290.464844 C 81.386719 285.082031 90.707031 287.199219 99.410156 277.390625 C 106.179688 269.765625 110.207031 260.160156 116.410156 252.117188 C 121.394531 245.648438 127.480469 238.535156 129.851562 230.578125 C 131.488281 225.066406 129.898438 208.183594 120.160156 212.214844 C 118.351562 212.964844 116.921875 214.386719 115.324219 215.523438 C 110.03125 219.296875 104.796875 217.273438 99.292969 219.335938 " fill-opacity="1" fill-rule="nonzero"/><path fill="#5479f7" d="M 135.179688 362.351562 C 137.339844 361.554688 138.859375 359.589844 139.160156 357.304688 C 140.199219 349.425781 140.984375 340.582031 141.003906 336.179688 C 141.058594 326.285156 141.691406 311.769531 144.488281 293.601562 C 147.441406 274.402344 130.25 264.304688 130.25 264.304688 C 101.539062 257.910156 70.359375 273.398438 70.359375 273.398438 C 77.429688 309.707031 70.667969 329.59375 68.628906 342.195312 C 68.394531 343.640625 67.472656 348.894531 67.378906 353.71875 C 67.300781 357.726562 70.167969 361.183594 74.121094 361.8125 C 96.609375 365.398438 118.738281 368.410156 135.179688 362.351562 " fill-opacity="1" fill-rule="nonzero"/><path fill="#5479f7" d="M 117.507812 279.980469 L 125.390625 269.664062 C 130.140625 261.878906 140.640625 258.960938 149.125 255.625 C 184.304688 241.804688 187.402344 204.507812 190.222656 189.605469 L 202.003906 193.75 C 202.003906 193.75 218.101562 276.457031 138.332031 300.550781 L 117.507812 279.980469 " fill-opacity="1" fill-rule="nonzero"/><path fill="#5479f7" d="M 28.65625 183.429688 C 40.816406 224.746094 71.898438 269.585938 82.570312 268.636719 C 82.570312 268.636719 87.65625 302.171875 77.589844 303.285156 C 71.167969 304 55.824219 291.554688 34.332031 260.289062 C 15.269531 232.5625 20.175781 186.175781 20.175781 186.175781 L 28.65625 183.429688 " fill-opacity="1" fill-rule="nonzero"/><path fill="#000000" d="M 138.5625 359.910156 C 138.46875 359.910156 138.375 359.890625 138.285156 359.84375 C 137.96875 359.691406 137.839844 359.308594 137.996094 358.996094 C 138.269531 358.4375 138.449219 357.839844 138.53125 357.21875 C 139.578125 349.300781 140.351562 340.449219 140.371094 336.175781 C 140.433594 324.089844 141.355469 311.480469 143.109375 298.691406 C 143.140625 298.457031 143.300781 298.261719 143.523438 298.183594 C 155.667969 293.871094 166.148438 287.8125 174.664062 280.167969 C 174.925781 279.933594 175.324219 279.957031 175.558594 280.21875 C 175.792969 280.480469 175.769531 280.882812 175.511719 281.117188 C 166.957031 288.792969 156.460938 294.890625 144.3125 299.25 C 142.601562 311.847656 141.703125 324.273438 141.640625 336.183594 C 141.617188 340.574219 140.855469 349.292969 139.789062 357.386719 C 139.6875 358.144531 139.46875 358.875 139.132812 359.554688 C 139.023438 359.78125 138.796875 359.910156 138.5625 359.910156 " fill-opacity="1" fill-rule="nonzero"/><path fill="#000000" d="M 67.378906 354.355469 C 67.375 354.355469 67.371094 354.355469 67.367188 354.351562 C 67.015625 354.347656 66.738281 354.058594 66.746094 353.707031 C 66.832031 349.1875 67.640625 344.300781 67.941406 342.460938 L 68.003906 342.089844 C 68.328125 340.078125 68.78125 337.84375 69.261719 335.476562 C 70.925781 327.265625 72.992188 317.0625 72.863281 302.875 C 63.621094 298.707031 49.425781 283.367188 33.808594 260.652344 C 23.882812 246.210938 20.535156 226.703125 19.472656 212.882812 C 18.324219 197.9375 19.53125 186.226562 19.546875 186.109375 C 19.570312 185.859375 19.742188 185.648438 19.980469 185.574219 L 28.460938 182.824219 C 28.625 182.773438 28.800781 182.789062 28.953125 182.867188 C 29.105469 182.949219 29.214844 183.085938 29.265625 183.25 C 41.6875 225.453125 72.105469 267.960938 82.203125 268.007812 C 94.496094 263.890625 112.75 259.820312 130.1875 263.644531 C 134.507812 260.429688 139.929688 258.402344 145.179688 256.445312 C 146.46875 255.964844 147.6875 255.507812 148.890625 255.035156 C 180.628906 242.5625 185.957031 210.933594 188.820312 193.941406 C 189.09375 192.332031 189.351562 190.808594 189.601562 189.488281 C 189.632812 189.304688 189.746094 189.148438 189.90625 189.054688 C 190.066406 188.960938 190.257812 188.945312 190.433594 189.007812 L 202.210938 193.152344 C 202.4375 193.230469 202.597656 193.425781 202.628906 193.660156 C 202.6875 194.0625 208.175781 234.324219 191.402344 261.644531 C 191.214844 261.941406 190.828125 262.035156 190.527344 261.851562 C 190.230469 261.667969 190.136719 261.28125 190.320312 260.980469 C 205.992188 235.457031 201.9375 198.371094 201.421875 194.21875 L 190.710938 190.449219 C 190.507812 191.582031 190.292969 192.835938 190.070312 194.152344 C 187.167969 211.394531 181.761719 243.484375 149.355469 256.21875 C 148.140625 256.695312 146.917969 257.152344 145.621094 257.636719 C 140.355469 259.601562 134.910156 261.636719 130.695312 264.847656 C 130.5 265 130.234375 265.023438 130.015625 264.90625 C 112.785156 261.09375 94.679688 265.160156 82.511719 269.242188 C 82.449219 269.265625 82.386719 269.273438 82.324219 269.277344 C 82.292969 269.277344 82.257812 269.277344 82.226562 269.277344 C 75.597656 269.277344 64.03125 255.132812 55.386719 241.839844 C 43.679688 223.839844 33.804688 202.882812 28.234375 184.234375 L 20.769531 186.652344 C 20.351562 191.296875 17.089844 234.085938 34.855469 259.929688 C 57.152344 292.363281 69.476562 300.066406 73.742188 301.871094 C 73.972656 301.96875 74.125 302.195312 74.128906 302.449219 C 74.304688 316.984375 72.105469 327.820312 70.503906 335.730469 C 70.027344 338.085938 69.578125 340.308594 69.253906 342.292969 L 69.195312 342.671875 C 68.894531 344.484375 68.097656 349.300781 68.011719 353.730469 C 68.007812 354.078125 67.722656 354.355469 67.378906 354.355469 " fill-opacity="1" fill-rule="nonzero"/><path fill="#ffffff" d="M 28.457031 185.902344 C 29.113281 185.492188 29.75 184.980469 30.351562 184.367188 C 33.386719 181.285156 38.328125 173.679688 33.757812 169.890625 C 30.324219 167.042969 24.199219 168.59375 20.734375 170.519531 C 16.402344 172.933594 17.445312 179.425781 19.261719 183.203125 C 21.28125 187.390625 25.121094 187.980469 28.457031 185.902344 " fill-opacity="1" fill-rule="nonzero"/><path fill="#000000" d="M 28.457031 185.902344 L 28.460938 185.902344 Z M 28.757812 168.949219 C 25.988281 168.949219 22.996094 169.988281 21.042969 171.074219 C 17.070312 173.289062 18.191406 179.519531 19.832031 182.925781 C 20.675781 184.671875 21.894531 185.816406 23.363281 186.246094 C 24.835938 186.671875 26.523438 186.359375 28.121094 185.363281 C 28.742188 184.976562 29.339844 184.492188 29.898438 183.921875 C 32.035156 181.75 35.152344 177.222656 34.972656 173.664062 C 34.902344 172.300781 34.371094 171.226562 33.351562 170.378906 C 32.105469 169.347656 30.476562 168.949219 28.757812 168.949219 Z M 24.703125 187.703125 C 24.125 187.703125 23.554688 187.621094 23.011719 187.464844 C 21.1875 186.933594 19.691406 185.558594 18.691406 183.476562 C 16.773438 179.5 15.65625 172.621094 20.425781 169.96875 C 23.894531 168.035156 30.410156 166.292969 34.164062 169.402344 C 35.453125 170.472656 36.152344 171.882812 36.238281 173.601562 C 36.453125 177.878906 32.777344 182.808594 30.804688 184.816406 C 30.175781 185.453125 29.5 186 28.789062 186.441406 C 27.457031 187.273438 26.050781 187.703125 24.703125 187.703125 " fill-opacity="1" fill-rule="nonzero"/><path fill="#ffffff" d="M 197.507812 194.488281 C 198.230469 194.394531 198.984375 194.210938 199.769531 193.925781 C 203.574219 192.539062 209.148438 186.941406 208.089844 182.464844 C 206.574219 176.054688 192.671875 174.890625 189.179688 179.726562 C 184.945312 185.589844 190.199219 195.425781 197.507812 194.488281 " fill-opacity="1" fill-rule="nonzero"/><path fill="#000000" d="M 197.246094 177.382812 C 193.898438 177.382812 190.929688 178.386719 189.695312 180.097656 C 187.820312 182.695312 187.835938 186.4375 189.734375 189.636719 C 191.507812 192.621094 194.460938 194.238281 197.425781 193.859375 C 198.117188 193.769531 198.832031 193.59375 199.554688 193.328125 C 203.355469 191.941406 208.414062 186.589844 207.472656 182.609375 C 206.925781 180.292969 204.359375 178.464844 200.609375 177.714844 C 199.480469 177.488281 198.34375 177.382812 197.246094 177.382812 Z M 196.558594 195.183594 C 193.445312 195.183594 190.480469 193.375 188.644531 190.285156 C 186.488281 186.652344 186.496094 182.363281 188.664062 179.355469 C 190.867188 176.304688 196.46875 175.59375 200.859375 176.46875 C 205.105469 177.316406 208.042969 179.503906 208.707031 182.320312 C 209.828125 187.058594 204.191406 192.988281 199.988281 194.519531 C 199.175781 194.816406 198.367188 195.015625 197.585938 195.117188 C 197.242188 195.164062 196.898438 195.183594 196.558594 195.183594 " fill-opacity="1" fill-rule="nonzero"/><path fill="#ffffff" d="M 90.203125 268.5625 L 119.300781 276.945312 L 122.761719 263.574219 L 113.414062 262.1875 L 113.542969 258.617188 C 118.722656 258.707031 122.101562 256.601562 123.542969 255.453125 C 124.046875 255.054688 124.308594 254.421875 124.234375 253.777344 L 123.324219 245.664062 C 124.34375 245.070312 125.757812 243.21875 124.011719 241.671875 C 122.261719 240.125 119.140625 231.539062 119.140625 231.539062 C 114.738281 224.417969 111.789062 233.007812 107.648438 233.109375 C 104.785156 233.179688 103.003906 234.640625 103.480469 238.453125 C 103.960938 242.265625 102.246094 240.121094 100.359375 238.757812 C 98.476562 237.394531 96.953125 237.984375 97.558594 241.472656 C 98.160156 244.964844 101.945312 247.605469 101.945312 247.605469 L 102.3125 248.742188 C 101.078125 253.511719 98.121094 265.90625 98.121094 265.90625 L 90.203125 268.5625 " fill-opacity="1" fill-rule="nonzero"/><path fill="#000000" d="M 92.335938 268.515625 L 118.847656 276.15625 L 121.96875 264.097656 L 113.320312 262.816406 C 113 262.765625 112.765625 262.488281 112.777344 262.164062 L 112.910156 258.59375 C 112.921875 258.25 113.210938 257.996094 113.554688 257.980469 C 118.488281 258.0625 121.683594 256.125 123.148438 254.957031 C 123.484375 254.691406 123.652344 254.277344 123.605469 253.847656 L 122.695312 245.734375 C 122.667969 245.484375 122.789062 245.242188 123.007812 245.113281 C 123.53125 244.808594 124.128906 244.113281 124.195312 243.429688 C 124.242188 242.96875 124.042969 242.546875 123.589844 242.148438 C 121.808594 240.570312 118.984375 232.964844 118.566406 231.816406 C 117.636719 230.332031 116.730469 229.511719 115.867188 229.375 C 114.695312 229.191406 113.476562 230.222656 112.183594 231.320312 C 110.804688 232.492188 109.375 233.703125 107.664062 233.746094 C 106.328125 233.777344 105.355469 234.136719 104.777344 234.8125 C 104.132812 235.558594 103.910156 236.757812 104.113281 238.375 C 104.285156 239.742188 104.257812 240.730469 103.570312 241.113281 C 102.8125 241.53125 101.996094 240.867188 100.957031 240.023438 C 100.640625 239.769531 100.316406 239.507812 99.988281 239.273438 C 99.332031 238.796875 98.722656 238.601562 98.441406 238.777344 C 98.132812 238.96875 97.902344 239.753906 98.179688 241.367188 C 98.730469 244.550781 102.273438 247.058594 102.308594 247.085938 C 102.421875 247.164062 102.503906 247.277344 102.546875 247.410156 L 102.917969 248.546875 C 102.953125 248.664062 102.957031 248.785156 102.929688 248.902344 C 101.710938 253.609375 98.769531 265.929688 98.738281 266.054688 C 98.6875 266.265625 98.53125 266.4375 98.324219 266.507812 Z M 119.300781 277.582031 C 119.238281 277.582031 119.179688 277.574219 119.125 277.558594 L 90.027344 269.171875 C 89.761719 269.09375 89.578125 268.855469 89.570312 268.574219 C 89.566406 268.296875 89.738281 268.046875 90.003906 267.960938 L 97.585938 265.417969 C 98.066406 263.410156 100.523438 253.144531 101.65625 248.765625 L 101.40625 247.996094 C 100.613281 247.40625 97.5 244.886719 96.933594 241.582031 C 96.585938 239.570312 96.867188 238.265625 97.769531 237.703125 C 98.535156 237.222656 99.585938 237.414062 100.734375 238.242188 C 101.085938 238.5 101.425781 238.773438 101.753906 239.039062 C 102.109375 239.328125 102.609375 239.734375 102.910156 239.898438 C 102.9375 239.695312 102.949219 239.296875 102.851562 238.53125 C 102.605469 236.542969 102.925781 235.015625 103.816406 233.984375 C 104.640625 233.027344 105.921875 232.519531 107.632812 232.476562 C 108.898438 232.445312 110.152344 231.378906 111.363281 230.351562 C 112.816406 229.117188 114.316406 227.84375 116.066406 228.121094 C 117.335938 228.324219 118.519531 229.332031 119.679688 231.203125 C 119.699219 231.238281 119.71875 231.28125 119.734375 231.320312 C 120.589844 233.667969 123.09375 240.015625 124.429688 241.195312 C 125.386719 242.042969 125.519531 242.945312 125.457031 243.554688 C 125.359375 244.550781 124.6875 245.441406 124 245.972656 L 124.867188 253.707031 C 124.964844 254.574219 124.617188 255.414062 123.9375 255.953125 C 122.402344 257.171875 119.132812 259.175781 114.152344 259.25 L 114.066406 261.640625 L 122.855469 262.945312 C 123.03125 262.972656 123.191406 263.074219 123.289062 263.222656 C 123.390625 263.371094 123.421875 263.558594 123.375 263.730469 L 119.914062 277.105469 C 119.871094 277.273438 119.761719 277.414062 119.613281 277.5 C 119.515625 277.554688 119.40625 277.582031 119.300781 277.582031 " fill-opacity="1" fill-rule="nonzero"/><path fill="#000000" d="M 113.03125 259.277344 C 108.742188 259.277344 106.492188 254.15625 106.394531 253.929688 C 106.253906 253.609375 106.402344 253.238281 106.726562 253.097656 C 107.046875 252.957031 107.421875 253.109375 107.558594 253.429688 C 107.578125 253.476562 109.742188 258.378906 113.476562 257.984375 C 113.824219 257.945312 114.136719 258.199219 114.171875 258.550781 C 114.210938 258.898438 113.957031 259.210938 113.609375 259.246094 C 113.410156 259.265625 113.21875 259.277344 113.03125 259.277344 " fill-opacity="1" fill-rule="nonzero"/><path fill="#ffffff" d="M 274.902344 262.070312 C 272.664062 259.824219 273.125 258.410156 273.539062 258.308594 C 273.921875 258.214844 276.199219 257.089844 276.914062 256.46875 C 278.609375 254.976562 279.160156 252.824219 278.144531 251.660156 C 277.59375 251.039062 276.710938 250.828125 275.742188 250.992188 C 276.011719 247.878906 275.113281 246.394531 274.367188 244.253906 C 271.800781 236.882812 265.367188 238.417969 263.039062 241.066406 C 261.011719 243.375 261.160156 245.363281 256.757812 247.59375 C 256.332031 247.804688 256.34375 248.441406 256.574219 248.855469 L 257.726562 251.199219 C 257.984375 251.660156 257.886719 252.792969 257.722656 253.304688 C 257.21875 254.878906 256.019531 258.171875 256.355469 258.8125 C 257.015625 260.054688 262.175781 261.914062 262.175781 261.914062 L 271.324219 275.726562 C 270.949219 278.636719 269.285156 280.273438 268.042969 281.109375 C 267.273438 281.625 267.269531 282.757812 268.054688 283.246094 C 269.53125 284.171875 272.507812 285.617188 278.492188 287.730469 C 286.414062 290.527344 294.996094 280.132812 294.996094 280.132812 C 294.996094 280.132812 292.585938 279.78125 274.902344 262.070312 " fill-opacity="1" fill-rule="nonzero"/><path fill="#000000" d="M 256.9375 258.566406 Z M 256.933594 258.546875 C 257.332031 259.1875 260.054688 260.476562 262.394531 261.320312 C 262.519531 261.363281 262.628906 261.453125 262.707031 261.566406 L 271.855469 275.378906 C 271.9375 275.507812 271.972656 275.660156 271.953125 275.8125 C 271.546875 278.921875 269.792969 280.695312 268.394531 281.636719 C 268.203125 281.765625 268.09375 281.96875 268.097656 282.195312 C 268.101562 282.410156 268.207031 282.597656 268.386719 282.710938 C 269.6875 283.523438 272.535156 284.953125 278.703125 287.132812 C 285.050781 289.375 292.042969 282.4375 293.984375 280.320312 C 292.207031 279.222656 287.355469 275.441406 274.453125 262.519531 C 272.378906 260.441406 272.488281 259.035156 272.628906 258.527344 C 272.75 258.089844 273.03125 257.78125 273.386719 257.695312 C 273.71875 257.601562 275.863281 256.542969 276.492188 255.988281 C 277.902344 254.753906 278.4375 252.960938 277.664062 252.078125 C 277.289062 251.652344 276.628906 251.484375 275.851562 251.621094 C 275.65625 251.65625 275.457031 251.59375 275.3125 251.460938 C 275.171875 251.328125 275.09375 251.136719 275.113281 250.941406 C 275.3125 248.546875 274.796875 247.183594 274.191406 245.609375 C 274.050781 245.242188 273.90625 244.863281 273.769531 244.464844 C 272.804688 241.703125 271.183594 240.023438 269.078125 239.609375 C 266.886719 239.179688 264.621094 240.226562 263.515625 241.488281 C 262.921875 242.160156 262.53125 242.796875 262.121094 243.472656 C 261.195312 244.980469 260.238281 246.539062 257.042969 248.160156 C 257.039062 248.1875 257.035156 248.386719 257.125 248.546875 L 258.296875 250.917969 C 258.671875 251.589844 258.5 252.957031 258.328125 253.5 C 258.246094 253.746094 258.152344 254.03125 258.046875 254.34375 C 257.683594 255.433594 256.839844 257.96875 256.933594 258.546875 Z M 281.347656 288.847656 C 280.332031 288.847656 279.304688 288.691406 278.28125 288.332031 C 273.242188 286.550781 269.683594 285.019531 267.714844 283.785156 C 267.171875 283.445312 266.839844 282.859375 266.828125 282.21875 C 266.820312 281.5625 267.140625 280.949219 267.6875 280.582031 C 268.832031 279.8125 270.265625 278.375 270.664062 275.878906 L 261.765625 262.441406 C 260.308594 261.90625 256.480469 260.402344 255.796875 259.109375 C 255.441406 258.4375 255.816406 257.035156 256.84375 253.941406 C 256.949219 253.632812 257.042969 253.351562 257.121094 253.109375 C 257.28125 252.609375 257.289062 251.714844 257.175781 251.507812 L 256.003906 249.136719 C 255.78125 248.742188 255.71875 248.210938 255.847656 247.78125 C 255.953125 247.445312 256.171875 247.175781 256.46875 247.027344 C 259.34375 245.570312 260.128906 244.289062 261.039062 242.808594 C 261.460938 242.117188 261.898438 241.40625 262.566406 240.648438 C 263.867188 239.164062 266.535156 237.820312 269.320312 238.363281 C 271.117188 238.714844 273.554688 239.984375 274.96875 244.046875 C 275.101562 244.433594 275.242188 244.800781 275.378906 245.15625 C 275.949219 246.648438 276.488281 248.0625 276.417969 250.304688 C 277.316406 250.320312 278.09375 250.644531 278.617188 251.242188 C 279.886719 252.6875 279.324219 255.195312 277.332031 256.945312 C 276.59375 257.589844 274.546875 258.621094 273.847656 258.875 C 273.773438 259.148438 273.855469 260.121094 275.351562 261.621094 C 292.132812 278.429688 295.066406 279.503906 295.089844 279.503906 C 295.316406 279.539062 295.503906 279.691406 295.589844 279.90625 C 295.671875 280.121094 295.628906 280.363281 295.484375 280.539062 C 295.167969 280.921875 288.527344 288.847656 281.347656 288.847656 " fill-opacity="1" fill-rule="nonzero"/><path fill="#000000" d="M 265.617188 243.121094 C 265.617188 243.121094 257.523438 236.675781 259.785156 231.488281 C 259.984375 231.035156 260.589844 229.605469 261.980469 228.976562 C 264.839844 227.679688 268.535156 230.800781 269.363281 231.492188 C 276.539062 237.472656 281.320312 238.058594 284.367188 241.195312 C 285.46875 242.332031 286.703125 244.4375 286.554688 248.640625 C 285.964844 251.636719 284.730469 253.222656 283.710938 254.117188 C 281.617188 255.949219 279.808594 255.421875 278.320312 257.351562 C 276.652344 259.519531 277.699219 261.800781 276.539062 262.480469 C 275.636719 263.007812 273.671875 262.421875 269.050781 257.839844 C 271.8125 254.746094 273.179688 251.695312 272.203125 250.164062 C 271.925781 249.734375 271.144531 248.996094 270.324219 249.003906 C 269.238281 249.007812 268.523438 250.164062 268.523438 250.164062 L 265.617188 243.121094 " fill-opacity="1" fill-rule="nonzero"/><path fill="#ffffff" d="M 253.863281 315.410156 L 260.082031 362.578125 C 260.082031 362.578125 281.007812 363.425781 297.546875 362.039062 C 297.546875 362.039062 271.839844 314.011719 253.863281 315.410156 " fill-opacity="1" fill-rule="nonzero"/><path fill="#000000" d="M 259.84375 361.425781 C 259.527344 361.425781 259.257812 361.191406 259.214844 360.875 L 253.230469 315.492188 C 253.207031 315.320312 253.257812 315.144531 253.367188 315.011719 C 253.476562 314.875 253.640625 314.789062 253.8125 314.777344 C 269.617188 313.550781 290.714844 348.617188 296.804688 359.394531 C 296.980469 359.699219 296.871094 360.089844 296.566406 360.257812 C 296.261719 360.433594 295.875 360.324219 295.703125 360.019531 C 291.5 352.582031 270.03125 316.015625 254.640625 316.015625 C 254.617188 316.015625 254.601562 316.015625 254.578125 316.015625 L 260.472656 360.707031 C 260.515625 361.054688 260.273438 361.375 259.925781 361.417969 C 259.898438 361.421875 259.871094 361.425781 259.84375 361.425781 " fill-opacity="1" fill-rule="nonzero"/><path fill="#000000" d="M 262.394531 323.941406 C 276.257812 333.601562 271.375 348.425781 281.398438 363.601562 C 311.40625 365.878906 339.292969 366.757812 362.304688 364.40625 C 366.289062 364 369.148438 360.382812 368.613281 356.414062 C 368.609375 356.390625 368.609375 356.371094 368.601562 356.351562 C 367.648438 349.269531 364.347656 344.054688 352.101562 328.824219 C 343.171875 317.714844 341.941406 316.847656 339.214844 313.226562 C 333.289062 305.359375 326.511719 292.765625 324.101562 272.589844 C 328.128906 264.972656 336.132812 247.269531 334.484375 223.984375 C 332.230469 192.15625 313.503906 171.882812 308.082031 166.398438 C 305.179688 168.53125 302.277344 170.667969 299.375 172.796875 C 302.613281 178.304688 311.902344 195.734375 309.078125 218.996094 C 306.328125 241.632812 293.808594 255.804688 289.816406 260.191406 C 284.355469 266.203125 263.214844 287.519531 231.367188 285.652344 C 207.097656 284.226562 191.082031 270.1875 186.191406 265.535156 C 182.722656 267.984375 179.25 270.4375 175.78125 272.886719 C 188.847656 303.199219 204.371094 313.671875 215.929688 317.710938 C 235.824219 324.667969 248.15625 314.023438 262.394531 323.941406 " fill-opacity="1" fill-rule="nonzero"/><path fill="#ffffff" d="M 177.78125 265.785156 L 167.703125 259.785156 C 166.761719 259.226562 165.996094 258.414062 165.488281 257.441406 L 162.972656 252.613281 C 162.605469 251.898438 163.472656 251.1875 164.097656 251.691406 L 169.703125 256.25 C 170.492188 256.890625 171.417969 257.34375 172.40625 257.578125 L 180.5 259.570312 L 182.355469 255.792969 C 182.902344 254.683594 184.058594 254 185.296875 254.058594 L 183.195312 263.183594 L 185.664062 271.734375 L 179.414062 273.742188 L 177.78125 265.785156 " fill-opacity="1" fill-rule="nonzero"/><path fill="#000000" d="M 163.632812 252.15625 C 163.613281 252.15625 163.589844 252.167969 163.5625 252.1875 C 163.5 252.242188 163.519531 252.289062 163.535156 252.316406 L 166.050781 257.148438 C 166.503906 258.019531 167.183594 258.742188 168.027344 259.242188 L 178.105469 265.238281 C 178.257812 265.328125 178.367188 265.480469 178.402344 265.65625 L 179.890625 272.921875 L 184.886719 271.316406 L 182.585938 263.359375 C 182.554688 263.253906 182.554688 263.144531 182.578125 263.039062 L 184.476562 254.78125 C 183.8125 254.96875 183.242188 255.429688 182.925781 256.074219 L 181.070312 259.851562 C 180.9375 260.117188 180.640625 260.257812 180.351562 260.1875 L 172.257812 258.191406 C 171.1875 257.941406 170.160156 257.441406 169.300781 256.746094 L 163.699219 252.1875 C 163.683594 252.171875 163.660156 252.15625 163.632812 252.15625 Z M 179.414062 274.378906 C 179.300781 274.378906 179.191406 274.347656 179.09375 274.289062 C 178.9375 274.199219 178.828125 274.046875 178.789062 273.871094 L 177.214844 266.1875 L 167.378906 260.332031 C 166.335938 259.710938 165.488281 258.8125 164.925781 257.734375 L 162.410156 252.902344 C 162.109375 252.320312 162.25 251.621094 162.761719 251.203125 C 163.269531 250.785156 163.984375 250.785156 164.496094 251.203125 L 170.101562 255.757812 C 170.8125 256.335938 171.660156 256.75 172.550781 256.957031 L 180.15625 258.832031 L 181.789062 255.515625 C 182.445312 254.175781 183.835938 253.359375 185.324219 253.421875 C 185.511719 253.433594 185.6875 253.523438 185.800781 253.675781 C 185.914062 253.824219 185.957031 254.015625 185.914062 254.199219 L 183.851562 263.164062 L 186.273438 271.554688 C 186.371094 271.886719 186.183594 272.230469 185.859375 272.335938 L 179.605469 274.347656 C 179.542969 274.367188 179.476562 274.378906 179.414062 274.378906 " fill-opacity="1" fill-rule="nonzero"/><path fill="#ffffff" d="M 302.222656 172.796875 C 302.222656 172.796875 299.269531 169.277344 296.078125 169.59375 C 292.882812 169.90625 290.222656 169.742188 290.222656 169.742188 C 290.222656 169.742188 290.386719 167.152344 292.140625 167.25 C 293.898438 167.34375 293.898438 167.34375 293.898438 167.34375 L 295.609375 166.71875 L 288.921875 153.125 L 293.308594 153.871094 C 294.195312 154.019531 294.992188 154.5 295.539062 155.214844 L 306.636719 169.625 L 302.222656 172.796875 " fill-opacity="1" fill-rule="nonzero"/><path fill="#000000" d="M 296.488281 168.933594 C 299.101562 168.933594 301.410156 171.023438 302.3125 171.953125 L 305.738281 169.492188 L 295.039062 155.597656 C 294.585938 155.011719 293.933594 154.617188 293.203125 154.496094 L 290.042969 153.957031 L 296.179688 166.4375 C 296.261719 166.597656 296.269531 166.785156 296.203125 166.953125 C 296.132812 167.121094 296 167.25 295.828125 167.3125 L 294.117188 167.941406 C 294.035156 167.96875 293.949219 167.980469 293.863281 167.980469 L 292.109375 167.882812 C 291.441406 167.847656 291.113281 168.570312 290.96875 169.136719 C 291.957031 169.160156 293.875 169.167969 296.015625 168.960938 C 296.175781 168.945312 296.332031 168.933594 296.488281 168.933594 Z M 302.222656 173.433594 C 302.042969 173.433594 301.863281 173.351562 301.738281 173.207031 C 301.710938 173.171875 298.972656 169.945312 296.140625 170.222656 C 292.933594 170.539062 290.292969 170.386719 290.183594 170.375 C 290.015625 170.367188 289.859375 170.292969 289.746094 170.164062 C 289.636719 170.035156 289.578125 169.871094 289.589844 169.703125 C 289.660156 168.589844 290.300781 166.507812 292.179688 166.613281 L 293.804688 166.703125 L 294.730469 166.363281 L 288.355469 153.402344 C 288.25 153.191406 288.273438 152.9375 288.414062 152.746094 C 288.554688 152.554688 288.796875 152.457031 289.03125 152.5 L 293.414062 153.242188 C 294.460938 153.421875 295.394531 153.980469 296.042969 154.824219 L 307.140625 169.238281 C 307.246094 169.375 307.292969 169.546875 307.265625 169.71875 C 307.242188 169.890625 307.148438 170.042969 307.011719 170.140625 L 302.597656 173.3125 C 302.484375 173.390625 302.351562 173.433594 302.222656 173.433594 " fill-opacity="1" fill-rule="nonzero"/><path fill="#ffffff" d="M 256.0625 282.300781 C 256.0625 282.300781 253.710938 277.445312 256.0625 276.476562 C 258.417969 275.511719 284.542969 262.421875 288.75 256.660156 C 292.960938 250.894531 312.695312 253.199219 316.777344 256.660156 C 320.855469 260.121094 315.152344 274.40625 306.046875 280.101562 C 296.941406 285.796875 277.59375 275.222656 256.0625 282.300781 " fill-opacity="1" fill-rule="nonzero"/><path fill="#000000" d="M 300.644531 253.785156 C 299.269531 253.785156 297.914062 253.851562 296.628906 254.007812 C 292.9375 254.445312 290.390625 255.492188 289.265625 257.035156 C 284.894531 263.019531 258.789062 276.046875 256.308594 277.066406 C 256.050781 277.171875 255.882812 277.347656 255.773438 277.621094 C 255.390625 278.628906 255.980469 280.472656 256.414062 281.519531 C 268.074219 277.839844 279.148438 279.21875 288.074219 280.332031 C 295.71875 281.285156 301.757812 282.035156 305.714844 279.5625 C 312.238281 275.480469 317.050781 266.746094 317.457031 261.144531 C 317.550781 259.820312 317.441406 258.054688 316.367188 257.144531 C 314.296875 255.386719 307.238281 253.785156 300.644531 253.785156 Z M 256.066406 282.933594 C 255.828125 282.933594 255.605469 282.796875 255.492188 282.574219 C 255.324219 282.222656 253.855469 279.09375 254.589844 277.167969 C 254.820312 276.570312 255.246094 276.128906 255.824219 275.890625 C 258.089844 274.964844 284.1875 261.835938 288.242188 256.285156 C 289.582031 254.449219 292.429688 253.226562 296.480469 252.746094 C 303.855469 251.867188 314.113281 253.566406 317.1875 256.175781 C 318.359375 257.167969 318.886719 258.917969 318.71875 261.238281 C 318.296875 267.125 313.460938 276.214844 306.386719 280.636719 C 302.046875 283.351562 295.8125 282.574219 287.917969 281.589844 C 278.976562 280.480469 267.855469 279.09375 256.261719 282.898438 C 256.199219 282.921875 256.132812 282.933594 256.066406 282.933594 " fill-opacity="1" fill-rule="nonzero"/></svg>