<svg xmlns="http://www.w3.org/2000/svg" xmlns:xlink="http://www.w3.org/1999/xlink" width="500" zoomAndPan="magnify" viewBox="0 0 375 374.999991" height="500" preserveAspectRatio="xMidYMid meet" version="1.0"><path fill="#caddff" d="M 84.757812 53.304688 C 37.359375 80.550781 9.972656 140.039062 15.589844 206.78125 C 18.011719 235.53125 30.675781 255.820312 40.097656 270.90625 C 46.296875 280.835938 107.070312 375.003906 200.5 369.984375 C 257.789062 366.90625 314.28125 322.992188 341.476562 273.5 C 352.121094 254.125 361.316406 225.851562 356.226562 203.972656 C 350.910156 181.128906 330.816406 164.671875 341.625 140.449219 C 350.351562 120.886719 364.714844 99.109375 356.253906 76.78125 C 340.269531 28.167969 177.492188 0.00390625 84.757812 53.304688 " fill-opacity="1" fill-rule="nonzero"/><path fill="#99b9ff" d="M 147.863281 348.132812 L 94.910156 348.132812 C 94.066406 348.132812 93.378906 347.445312 93.378906 346.597656 L 93.378906 53.96875 C 93.378906 53.164062 94.03125 52.515625 94.835938 52.515625 L 147.863281 52.515625 L 147.863281 348.132812 " fill-opacity="1" fill-rule="nonzero"/><path fill="#000000" d="M 284.390625 336.867188 L 131.710938 336.867188 L 131.710938 75.523438 L 284.390625 75.523438 L 284.390625 336.867188 " fill-opacity="1" fill-rule="nonzero"/><path fill="#5479f7" d="M 291.765625 98.535156 L 124.332031 98.535156 L 124.332031 52.515625 L 291.765625 52.515625 L 291.765625 98.535156 " fill-opacity="1" fill-rule="nonzero"/><path fill="#99b9ff" d="M 288.332031 62.535156 C 288.332031 58.898438 285.390625 55.949219 281.757812 55.949219 L 134.34375 55.949219 C 130.710938 55.949219 127.765625 58.898438 127.765625 62.535156 L 127.765625 88.515625 C 127.765625 92.152344 130.710938 95.097656 134.34375 95.097656 L 281.757812 95.097656 C 285.390625 95.097656 288.332031 92.152344 288.332031 88.515625 L 288.332031 62.535156 " fill-opacity="1" fill-rule="nonzero"/><path fill="#ffffff" d="M 150.847656 75.523438 C 150.847656 77.78125 149.023438 79.609375 146.769531 79.609375 C 144.515625 79.609375 142.6875 77.78125 142.6875 75.523438 C 142.6875 73.269531 144.515625 71.441406 146.769531 71.441406 C 149.023438 71.441406 150.847656 73.269531 150.847656 75.523438 " fill-opacity="1" fill-rule="nonzero"/><path fill="#ffffff" d="M 163.886719 75.523438 C 163.886719 77.78125 162.058594 79.609375 159.808594 79.609375 C 157.554688 79.609375 155.726562 77.78125 155.726562 75.523438 C 155.726562 73.269531 157.554688 71.441406 159.808594 71.441406 C 162.058594 71.441406 163.886719 73.269531 163.886719 75.523438 " fill-opacity="1" fill-rule="nonzero"/><path fill="#ffffff" d="M 176.925781 75.523438 C 176.925781 77.78125 175.097656 79.609375 172.84375 79.609375 C 170.589844 79.609375 168.765625 77.78125 168.765625 75.523438 C 168.765625 73.269531 170.589844 71.441406 172.84375 71.441406 C 175.097656 71.441406 176.925781 73.269531 176.925781 75.523438 " fill-opacity="1" fill-rule="nonzero"/><path fill="#caddff" d="M 195.292969 88.984375 L 188.605469 88.984375 L 188.605469 62.0625 L 195.292969 62.0625 L 195.292969 88.984375 " fill-opacity="1" fill-rule="nonzero"/><path fill="#caddff" d="M 205.074219 88.984375 L 198.382812 88.984375 L 198.382812 62.0625 L 205.074219 62.0625 L 205.074219 88.984375 " fill-opacity="1" fill-rule="nonzero"/><path fill="#caddff" d="M 214.851562 88.984375 L 208.160156 88.984375 L 208.160156 62.0625 L 214.851562 62.0625 L 214.851562 88.984375 " fill-opacity="1" fill-rule="nonzero"/><path fill="#caddff" d="M 224.628906 88.984375 L 217.9375 88.984375 L 217.9375 62.0625 L 224.628906 62.0625 L 224.628906 88.984375 " fill-opacity="1" fill-rule="nonzero"/><path fill="#caddff" d="M 234.40625 88.984375 L 227.714844 88.984375 L 227.714844 62.0625 L 234.40625 62.0625 L 234.40625 88.984375 " fill-opacity="1" fill-rule="nonzero"/><path fill="#caddff" d="M 244.183594 88.984375 L 237.492188 88.984375 L 237.492188 62.0625 L 244.183594 62.0625 L 244.183594 88.984375 " fill-opacity="1" fill-rule="nonzero"/><path fill="#caddff" d="M 253.960938 88.984375 L 247.269531 88.984375 L 247.269531 62.0625 L 253.960938 62.0625 L 253.960938 88.984375 " fill-opacity="1" fill-rule="nonzero"/><path fill="#caddff" d="M 263.738281 88.984375 L 257.050781 88.984375 L 257.050781 62.0625 L 263.738281 62.0625 L 263.738281 88.984375 " fill-opacity="1" fill-rule="nonzero"/><path fill="#caddff" d="M 273.515625 88.984375 L 266.828125 88.984375 L 266.828125 62.0625 L 273.515625 62.0625 L 273.515625 88.984375 " fill-opacity="1" fill-rule="nonzero"/><path fill="#5479f7" d="M 291.765625 148.394531 L 124.332031 148.394531 L 124.332031 102.378906 L 291.765625 102.378906 L 291.765625 148.394531 " fill-opacity="1" fill-rule="nonzero"/><path fill="#99b9ff" d="M 281.757812 105.808594 L 134.34375 105.808594 C 130.710938 105.808594 127.765625 108.757812 127.765625 112.394531 L 127.765625 138.375 C 127.765625 142.011719 130.710938 144.960938 134.34375 144.960938 L 281.757812 144.960938 C 285.390625 144.960938 288.335938 142.011719 288.335938 138.375 L 288.335938 112.394531 C 288.335938 108.757812 285.390625 105.808594 281.757812 105.808594 " fill-opacity="1" fill-rule="nonzero"/><path fill="#ffffff" d="M 150.847656 125.386719 C 150.847656 127.640625 149.019531 129.472656 146.769531 129.472656 C 144.515625 129.472656 142.6875 127.640625 142.6875 125.386719 C 142.6875 123.132812 144.515625 121.304688 146.769531 121.304688 C 149.019531 121.304688 150.847656 123.132812 150.847656 125.386719 " fill-opacity="1" fill-rule="nonzero"/><path fill="#ffffff" d="M 163.886719 125.386719 C 163.886719 127.640625 162.058594 129.472656 159.804688 129.472656 C 157.550781 129.472656 155.726562 127.640625 155.726562 125.386719 C 155.726562 123.132812 157.550781 121.304688 159.804688 121.304688 C 162.058594 121.304688 163.886719 123.132812 163.886719 125.386719 " fill-opacity="1" fill-rule="nonzero"/><path fill="#ffffff" d="M 176.921875 125.386719 C 176.921875 127.640625 175.097656 129.472656 172.84375 129.472656 C 170.589844 129.472656 168.765625 127.640625 168.765625 125.386719 C 168.765625 123.132812 170.589844 121.304688 172.84375 121.304688 C 175.097656 121.304688 176.921875 123.132812 176.921875 125.386719 " fill-opacity="1" fill-rule="nonzero"/><path fill="#caddff" d="M 195.296875 138.847656 L 188.609375 138.847656 L 188.609375 111.921875 L 195.296875 111.921875 L 195.296875 138.847656 " fill-opacity="1" fill-rule="nonzero"/><path fill="#caddff" d="M 205.074219 138.847656 L 198.382812 138.847656 L 198.382812 111.921875 L 205.074219 111.921875 L 205.074219 138.847656 " fill-opacity="1" fill-rule="nonzero"/><path fill="#caddff" d="M 214.851562 138.847656 L 208.160156 138.847656 L 208.160156 111.921875 L 214.851562 111.921875 L 214.851562 138.847656 " fill-opacity="1" fill-rule="nonzero"/><path fill="#caddff" d="M 224.628906 138.847656 L 217.9375 138.847656 L 217.9375 111.921875 L 224.628906 111.921875 L 224.628906 138.847656 " fill-opacity="1" fill-rule="nonzero"/><path fill="#caddff" d="M 234.40625 138.847656 L 227.71875 138.847656 L 227.71875 111.921875 L 234.40625 111.921875 L 234.40625 138.847656 " fill-opacity="1" fill-rule="nonzero"/><path fill="#caddff" d="M 244.183594 138.847656 L 237.496094 138.847656 L 237.496094 111.921875 L 244.183594 111.921875 L 244.183594 138.847656 " fill-opacity="1" fill-rule="nonzero"/><path fill="#caddff" d="M 253.964844 138.847656 L 247.273438 138.847656 L 247.273438 111.921875 L 253.964844 111.921875 L 253.964844 138.847656 " fill-opacity="1" fill-rule="nonzero"/><path fill="#caddff" d="M 263.742188 138.847656 L 257.050781 138.847656 L 257.050781 111.921875 L 263.742188 111.921875 L 263.742188 138.847656 " fill-opacity="1" fill-rule="nonzero"/><path fill="#caddff" d="M 273.515625 138.847656 L 266.824219 138.847656 L 266.824219 111.925781 L 273.515625 111.925781 L 273.515625 138.847656 " fill-opacity="1" fill-rule="nonzero"/><path fill="#5479f7" d="M 291.765625 198.257812 L 124.332031 198.257812 L 124.332031 152.238281 L 291.765625 152.238281 L 291.765625 198.257812 " fill-opacity="1" fill-rule="nonzero"/><path fill="#99b9ff" d="M 281.757812 155.671875 L 134.34375 155.671875 C 130.710938 155.671875 127.765625 158.617188 127.765625 162.253906 L 127.765625 188.238281 C 127.765625 191.875 130.710938 194.820312 134.34375 194.820312 L 281.757812 194.820312 C 285.390625 194.820312 288.335938 191.875 288.335938 188.238281 L 288.335938 162.253906 C 288.335938 158.617188 285.390625 155.671875 281.757812 155.671875 " fill-opacity="1" fill-rule="nonzero"/><path fill="#caddff" d="M 150.847656 175.246094 C 150.847656 177.503906 149.023438 179.332031 146.769531 179.332031 C 144.515625 179.332031 142.6875 177.503906 142.6875 175.246094 C 142.6875 172.992188 144.515625 171.164062 146.769531 171.164062 C 149.023438 171.164062 150.847656 172.992188 150.847656 175.246094 " fill-opacity="1" fill-rule="nonzero"/><path fill="#caddff" d="M 163.886719 175.246094 C 163.886719 177.503906 162.058594 179.332031 159.808594 179.332031 C 157.554688 179.332031 155.726562 177.503906 155.726562 175.246094 C 155.726562 172.992188 157.554688 171.164062 159.808594 171.164062 C 162.058594 171.164062 163.886719 172.992188 163.886719 175.246094 " fill-opacity="1" fill-rule="nonzero"/><path fill="#caddff" d="M 176.925781 175.246094 C 176.925781 177.503906 175.097656 179.332031 172.84375 179.332031 C 170.589844 179.332031 168.765625 177.503906 168.765625 175.246094 C 168.765625 172.992188 170.589844 171.164062 172.84375 171.164062 C 175.097656 171.164062 176.925781 172.992188 176.925781 175.246094 " fill-opacity="1" fill-rule="nonzero"/><path fill="#caddff" d="M 195.292969 188.707031 L 188.605469 188.707031 L 188.605469 161.785156 L 195.292969 161.785156 L 195.292969 188.707031 " fill-opacity="1" fill-rule="nonzero"/><path fill="#caddff" d="M 205.074219 188.707031 L 198.382812 188.707031 L 198.382812 161.785156 L 205.074219 161.785156 L 205.074219 188.707031 " fill-opacity="1" fill-rule="nonzero"/><path fill="#caddff" d="M 214.851562 188.707031 L 208.160156 188.707031 L 208.160156 161.785156 L 214.851562 161.785156 L 214.851562 188.707031 " fill-opacity="1" fill-rule="nonzero"/><path fill="#caddff" d="M 224.628906 188.707031 L 217.9375 188.707031 L 217.9375 161.785156 L 224.628906 161.785156 L 224.628906 188.707031 " fill-opacity="1" fill-rule="nonzero"/><path fill="#caddff" d="M 234.40625 188.707031 L 227.714844 188.707031 L 227.714844 161.785156 L 234.40625 161.785156 L 234.40625 188.707031 " fill-opacity="1" fill-rule="nonzero"/><path fill="#caddff" d="M 244.183594 188.707031 L 237.496094 188.707031 L 237.496094 161.785156 L 244.183594 161.785156 L 244.183594 188.707031 " fill-opacity="1" fill-rule="nonzero"/><path fill="#caddff" d="M 253.960938 188.707031 L 247.273438 188.707031 L 247.273438 161.785156 L 253.960938 161.785156 L 253.960938 188.707031 " fill-opacity="1" fill-rule="nonzero"/><path fill="#caddff" d="M 263.738281 188.710938 L 257.050781 188.710938 L 257.050781 161.785156 L 263.738281 161.785156 L 263.738281 188.710938 " fill-opacity="1" fill-rule="nonzero"/><path fill="#caddff" d="M 273.515625 188.710938 L 266.824219 188.710938 L 266.824219 161.785156 L 273.515625 161.785156 L 273.515625 188.710938 " fill-opacity="1" fill-rule="nonzero"/><path fill="#5479f7" d="M 291.765625 248.117188 L 124.332031 248.117188 L 124.332031 202.101562 L 291.765625 202.101562 L 291.765625 248.117188 " fill-opacity="1" fill-rule="nonzero"/><path fill="#99b9ff" d="M 281.757812 205.535156 L 134.34375 205.535156 C 130.710938 205.535156 127.765625 208.480469 127.765625 212.117188 L 127.765625 238.097656 C 127.765625 241.734375 130.710938 244.679688 134.34375 244.679688 L 281.757812 244.679688 C 285.390625 244.679688 288.335938 241.734375 288.335938 238.097656 L 288.335938 212.117188 C 288.335938 208.480469 285.390625 205.535156 281.757812 205.535156 " fill-opacity="1" fill-rule="nonzero"/><path fill="#caddff" d="M 150.847656 225.109375 C 150.847656 227.363281 149.023438 229.191406 146.769531 229.191406 C 144.515625 229.191406 142.6875 227.363281 142.6875 225.109375 C 142.6875 222.851562 144.515625 221.027344 146.769531 221.027344 C 149.023438 221.027344 150.847656 222.851562 150.847656 225.109375 " fill-opacity="1" fill-rule="nonzero"/><path fill="#caddff" d="M 163.886719 225.109375 C 163.886719 227.363281 162.058594 229.191406 159.808594 229.191406 C 157.554688 229.191406 155.726562 227.363281 155.726562 225.109375 C 155.726562 222.851562 157.554688 221.027344 159.808594 221.027344 C 162.058594 221.027344 163.886719 222.851562 163.886719 225.109375 " fill-opacity="1" fill-rule="nonzero"/><path fill="#caddff" d="M 176.925781 225.109375 C 176.925781 227.363281 175.097656 229.191406 172.84375 229.191406 C 170.589844 229.191406 168.765625 227.363281 168.765625 225.109375 C 168.765625 222.851562 170.589844 221.027344 172.84375 221.027344 C 175.097656 221.027344 176.925781 222.851562 176.925781 225.109375 " fill-opacity="1" fill-rule="nonzero"/><path fill="#caddff" d="M 195.292969 238.570312 L 188.605469 238.570312 L 188.605469 211.648438 L 195.292969 211.648438 L 195.292969 238.570312 " fill-opacity="1" fill-rule="nonzero"/><path fill="#caddff" d="M 205.074219 238.570312 L 198.382812 238.570312 L 198.382812 211.648438 L 205.074219 211.648438 L 205.074219 238.570312 " fill-opacity="1" fill-rule="nonzero"/><path fill="#caddff" d="M 214.851562 238.570312 L 208.160156 238.570312 L 208.160156 211.648438 L 214.851562 211.648438 L 214.851562 238.570312 " fill-opacity="1" fill-rule="nonzero"/><path fill="#caddff" d="M 224.628906 238.570312 L 217.9375 238.570312 L 217.9375 211.648438 L 224.628906 211.648438 L 224.628906 238.570312 " fill-opacity="1" fill-rule="nonzero"/><path fill="#caddff" d="M 234.40625 238.570312 L 227.714844 238.570312 L 227.714844 211.648438 L 234.40625 211.648438 L 234.40625 238.570312 " fill-opacity="1" fill-rule="nonzero"/><path fill="#caddff" d="M 244.183594 238.570312 L 237.496094 238.570312 L 237.496094 211.648438 L 244.183594 211.648438 L 244.183594 238.570312 " fill-opacity="1" fill-rule="nonzero"/><path fill="#caddff" d="M 253.960938 238.570312 L 247.273438 238.570312 L 247.273438 211.648438 L 253.960938 211.648438 L 253.960938 238.570312 " fill-opacity="1" fill-rule="nonzero"/><path fill="#caddff" d="M 263.738281 238.570312 L 257.050781 238.570312 L 257.050781 211.648438 L 263.738281 211.648438 L 263.738281 238.570312 " fill-opacity="1" fill-rule="nonzero"/><path fill="#caddff" d="M 273.515625 238.570312 L 266.824219 238.570312 L 266.824219 211.648438 L 273.515625 211.648438 L 273.515625 238.570312 " fill-opacity="1" fill-rule="nonzero"/><path fill="#5479f7" d="M 291.96875 297.96875 L 124.535156 297.96875 L 124.535156 251.953125 L 291.96875 251.953125 L 291.96875 297.96875 " fill-opacity="1" fill-rule="nonzero"/><path fill="#99b9ff" d="M 281.957031 255.386719 L 134.546875 255.386719 C 130.914062 255.386719 127.96875 258.335938 127.96875 261.96875 L 127.96875 287.953125 C 127.96875 291.585938 130.914062 294.535156 134.546875 294.535156 L 281.957031 294.535156 C 285.59375 294.535156 288.539062 291.585938 288.539062 287.953125 L 288.539062 261.96875 C 288.539062 258.335938 285.59375 255.386719 281.957031 255.386719 " fill-opacity="1" fill-rule="nonzero"/><path fill="#caddff" d="M 151.050781 274.960938 C 151.050781 277.214844 149.226562 279.042969 146.972656 279.042969 C 144.71875 279.042969 142.894531 277.214844 142.894531 274.960938 C 142.894531 272.703125 144.71875 270.878906 146.972656 270.878906 C 149.226562 270.878906 151.050781 272.703125 151.050781 274.960938 " fill-opacity="1" fill-rule="nonzero"/><path fill="#caddff" d="M 164.089844 274.960938 C 164.089844 277.214844 162.265625 279.042969 160.011719 279.042969 C 157.757812 279.042969 155.933594 277.214844 155.933594 274.960938 C 155.933594 272.703125 157.757812 270.878906 160.011719 270.878906 C 162.265625 270.878906 164.089844 272.703125 164.089844 274.960938 " fill-opacity="1" fill-rule="nonzero"/><path fill="#caddff" d="M 177.125 274.960938 C 177.125 277.214844 175.300781 279.042969 173.050781 279.042969 C 170.796875 279.042969 168.96875 277.214844 168.96875 274.960938 C 168.96875 272.703125 170.796875 270.878906 173.050781 270.878906 C 175.300781 270.878906 177.125 272.703125 177.125 274.960938 " fill-opacity="1" fill-rule="nonzero"/><path fill="#caddff" d="M 195.5 288.421875 L 188.808594 288.421875 L 188.808594 261.5 L 195.5 261.5 L 195.5 288.421875 " fill-opacity="1" fill-rule="nonzero"/><path fill="#caddff" d="M 205.277344 288.421875 L 198.585938 288.421875 L 198.585938 261.5 L 205.277344 261.5 L 205.277344 288.421875 " fill-opacity="1" fill-rule="nonzero"/><path fill="#caddff" d="M 215.054688 288.421875 L 208.363281 288.421875 L 208.363281 261.5 L 215.054688 261.5 L 215.054688 288.421875 " fill-opacity="1" fill-rule="nonzero"/><path fill="#caddff" d="M 224.832031 288.421875 L 218.144531 288.421875 L 218.144531 261.5 L 224.832031 261.5 L 224.832031 288.421875 " fill-opacity="1" fill-rule="nonzero"/><path fill="#caddff" d="M 234.609375 288.421875 L 227.921875 288.421875 L 227.921875 261.5 L 234.609375 261.5 L 234.609375 288.421875 " fill-opacity="1" fill-rule="nonzero"/><path fill="#caddff" d="M 244.386719 288.421875 L 237.699219 288.421875 L 237.699219 261.5 L 244.386719 261.5 L 244.386719 288.421875 " fill-opacity="1" fill-rule="nonzero"/><path fill="#caddff" d="M 254.164062 288.421875 L 247.476562 288.421875 L 247.476562 261.5 L 254.164062 261.5 L 254.164062 288.421875 " fill-opacity="1" fill-rule="nonzero"/><path fill="#caddff" d="M 263.941406 288.421875 L 257.253906 288.421875 L 257.253906 261.5 L 263.941406 261.5 L 263.941406 288.421875 " fill-opacity="1" fill-rule="nonzero"/><path fill="#caddff" d="M 273.722656 288.421875 L 267.03125 288.421875 L 267.03125 261.5 L 273.722656 261.5 L 273.722656 288.421875 " fill-opacity="1" fill-rule="nonzero"/><path fill="#5479f7" d="M 291.96875 347.832031 L 124.535156 347.832031 L 124.535156 301.8125 L 291.96875 301.8125 L 291.96875 347.832031 " fill-opacity="1" fill-rule="nonzero"/><path fill="#99b9ff" d="M 281.957031 305.246094 L 134.546875 305.246094 C 130.914062 305.246094 127.96875 308.195312 127.96875 311.832031 L 127.96875 337.8125 C 127.96875 341.449219 130.914062 344.394531 134.546875 344.394531 L 281.957031 344.394531 C 285.59375 344.394531 288.539062 341.449219 288.539062 337.8125 L 288.539062 311.832031 C 288.539062 308.195312 285.59375 305.246094 281.957031 305.246094 " fill-opacity="1" fill-rule="nonzero"/><path fill="#caddff" d="M 151.050781 324.820312 C 151.050781 327.078125 149.226562 328.90625 146.972656 328.90625 C 144.71875 328.90625 142.894531 327.078125 142.894531 324.820312 C 142.894531 322.566406 144.71875 320.738281 146.972656 320.738281 C 149.226562 320.738281 151.050781 322.566406 151.050781 324.820312 " fill-opacity="1" fill-rule="nonzero"/><path fill="#caddff" d="M 164.089844 324.820312 C 164.089844 327.078125 162.265625 328.90625 160.011719 328.90625 C 157.757812 328.90625 155.933594 327.078125 155.933594 324.820312 C 155.933594 322.566406 157.757812 320.738281 160.011719 320.738281 C 162.265625 320.738281 164.089844 322.566406 164.089844 324.820312 " fill-opacity="1" fill-rule="nonzero"/><path fill="#caddff" d="M 177.125 324.820312 C 177.125 327.078125 175.300781 328.90625 173.050781 328.90625 C 170.796875 328.90625 168.96875 327.078125 168.96875 324.820312 C 168.96875 322.566406 170.796875 320.738281 173.050781 320.738281 C 175.300781 320.738281 177.125 322.566406 177.125 324.820312 " fill-opacity="1" fill-rule="nonzero"/><path fill="#caddff" d="M 195.5 338.285156 L 188.808594 338.285156 L 188.808594 311.359375 L 195.5 311.359375 L 195.5 338.285156 " fill-opacity="1" fill-rule="nonzero"/><path fill="#caddff" d="M 205.277344 338.285156 L 198.585938 338.285156 L 198.585938 311.359375 L 205.277344 311.359375 L 205.277344 338.285156 " fill-opacity="1" fill-rule="nonzero"/><path fill="#caddff" d="M 215.054688 338.285156 L 208.363281 338.285156 L 208.363281 311.359375 L 215.054688 311.359375 L 215.054688 338.285156 " fill-opacity="1" fill-rule="nonzero"/><path fill="#caddff" d="M 224.832031 338.285156 L 218.144531 338.285156 L 218.144531 311.359375 L 224.832031 311.359375 L 224.832031 338.285156 " fill-opacity="1" fill-rule="nonzero"/><path fill="#caddff" d="M 234.609375 338.285156 L 227.921875 338.285156 L 227.921875 311.359375 L 234.609375 311.359375 L 234.609375 338.285156 " fill-opacity="1" fill-rule="nonzero"/><path fill="#caddff" d="M 244.386719 338.285156 L 237.699219 338.285156 L 237.699219 311.359375 L 244.386719 311.359375 L 244.386719 338.285156 " fill-opacity="1" fill-rule="nonzero"/><path fill="#caddff" d="M 254.164062 338.285156 L 247.476562 338.285156 L 247.476562 311.359375 L 254.164062 311.359375 L 254.164062 338.285156 " fill-opacity="1" fill-rule="nonzero"/><path fill="#caddff" d="M 263.941406 338.285156 L 257.253906 338.285156 L 257.253906 311.359375 L 263.941406 311.359375 L 263.941406 338.285156 " fill-opacity="1" fill-rule="nonzero"/><path fill="#caddff" d="M 273.722656 338.285156 L 267.03125 338.285156 L 267.03125 311.359375 L 273.722656 311.359375 L 273.722656 338.285156 " fill-opacity="1" fill-rule="nonzero"/><path fill="#000000" d="M 335.257812 127.191406 C 335 127.191406 334.753906 127.023438 334.667969 126.761719 C 334.558594 126.433594 334.734375 126.082031 335.0625 125.972656 L 337.757812 125.082031 C 338.082031 124.972656 338.4375 125.148438 338.546875 125.472656 C 338.65625 125.800781 338.480469 126.15625 338.152344 126.265625 L 335.457031 127.160156 C 335.390625 127.179688 335.324219 127.191406 335.257812 127.191406 " fill-opacity="1" fill-rule="nonzero"/><path fill="#000000" d="M 325.824219 130.320312 C 325.5625 130.320312 325.320312 130.15625 325.234375 129.894531 C 325.125 129.5625 325.304688 129.210938 325.628906 129.105469 L 328.328125 128.210938 C 328.652344 128.101562 329.007812 128.277344 329.117188 128.605469 C 329.222656 128.933594 329.046875 129.285156 328.71875 129.394531 L 326.023438 130.289062 C 325.957031 130.308594 325.890625 130.320312 325.824219 130.320312 " fill-opacity="1" fill-rule="nonzero"/><path fill="#000000" d="M 330.839844 124.972656 C 330.574219 124.972656 330.324219 124.800781 330.242188 124.535156 L 329.402344 121.863281 C 329.300781 121.535156 329.480469 121.183594 329.808594 121.082031 C 330.140625 120.976562 330.488281 121.160156 330.589844 121.488281 L 331.433594 124.15625 C 331.535156 124.488281 331.355469 124.839844 331.023438 124.941406 C 330.964844 124.960938 330.898438 124.972656 330.839844 124.972656 " fill-opacity="1" fill-rule="nonzero"/><path fill="#000000" d="M 333.78125 134.320312 C 333.515625 134.320312 333.269531 134.148438 333.1875 133.882812 L 332.34375 131.210938 C 332.242188 130.882812 332.421875 130.53125 332.753906 130.429688 C 333.082031 130.324219 333.429688 130.507812 333.53125 130.835938 L 334.375 133.507812 C 334.476562 133.835938 334.296875 134.1875 333.964844 134.289062 C 333.90625 134.3125 333.84375 134.320312 333.78125 134.320312 " fill-opacity="1" fill-rule="nonzero"/><path fill="#000000" d="M 341.496094 100.207031 C 341.242188 100.207031 340.988281 100.238281 340.734375 100.304688 C 339.976562 100.507812 339.347656 100.992188 338.957031 101.671875 C 338.148438 103.070312 338.628906 104.867188 340.027344 105.675781 C 340.707031 106.066406 341.492188 106.171875 342.25 105.96875 C 343.003906 105.765625 343.636719 105.28125 344.027344 104.601562 C 344.835938 103.207031 344.355469 101.410156 342.957031 100.601562 C 342.503906 100.339844 342.003906 100.207031 341.496094 100.207031 Z M 341.488281 107.320312 C 340.761719 107.320312 340.046875 107.128906 339.402344 106.757812 C 337.410156 105.601562 336.722656 103.042969 337.878906 101.046875 C 338.433594 100.082031 339.335938 99.386719 340.414062 99.101562 C 341.488281 98.8125 342.617188 98.960938 343.582031 99.519531 C 345.574219 100.671875 346.257812 103.234375 345.109375 105.226562 C 344.550781 106.195312 343.652344 106.886719 342.574219 107.175781 C 342.214844 107.269531 341.851562 107.320312 341.488281 107.320312 " fill-opacity="1" fill-rule="nonzero"/><path fill="#000000" d="M 342.503906 245.699219 C 342.4375 245.699219 342.367188 245.691406 342.300781 245.664062 C 341.976562 245.554688 341.800781 245.199219 341.914062 244.875 C 346.453125 231.640625 347.269531 217.566406 344.34375 203.050781 C 344.273438 202.710938 344.496094 202.382812 344.832031 202.316406 C 345.171875 202.246094 345.496094 202.464844 345.570312 202.800781 C 348.539062 217.542969 347.707031 231.832031 343.09375 245.277344 C 343.003906 245.539062 342.765625 245.699219 342.503906 245.699219 " fill-opacity="1" fill-rule="nonzero"/><path fill="#000000" d="M 347.246094 249.652344 C 347.160156 249.652344 347.074219 249.632812 346.992188 249.597656 C 346.675781 249.453125 346.535156 249.085938 346.679688 248.773438 C 346.785156 248.527344 357.53125 224.203125 349.554688 197.4375 C 349.457031 197.105469 349.644531 196.757812 349.976562 196.660156 C 350.304688 196.5625 350.652344 196.75 350.753906 197.082031 C 358.863281 224.304688 347.925781 249.039062 347.8125 249.285156 C 347.710938 249.515625 347.484375 249.652344 347.246094 249.652344 " fill-opacity="1" fill-rule="nonzero"/><path fill="#000000" d="M 39.101562 130.648438 C 39.019531 130.648438 38.9375 130.632812 38.855469 130.597656 C 38.539062 130.460938 38.390625 130.09375 38.527344 129.777344 C 41.800781 122.078125 45.832031 114.613281 50.511719 107.589844 C 57.996094 96.355469 67.039062 86.371094 77.382812 77.902344 C 77.648438 77.6875 78.042969 77.726562 78.261719 77.992188 C 78.480469 78.257812 78.4375 78.652344 78.171875 78.871094 C 67.921875 87.257812 58.96875 97.152344 51.550781 108.28125 C 46.914062 115.242188 42.917969 122.636719 39.675781 130.269531 C 39.574219 130.503906 39.34375 130.648438 39.101562 130.648438 " fill-opacity="1" fill-rule="nonzero"/><path fill="#000000" d="M 81.800781 64.734375 C 81.605469 64.734375 81.414062 64.640625 81.289062 64.46875 C 81.09375 64.1875 81.160156 63.796875 81.441406 63.597656 C 83.039062 62.480469 84.679688 61.378906 86.320312 60.324219 C 86.609375 60.136719 86.996094 60.21875 87.183594 60.511719 C 87.367188 60.800781 87.285156 61.1875 86.996094 61.371094 C 85.367188 62.417969 83.742188 63.511719 82.160156 64.621094 C 82.050781 64.699219 81.925781 64.734375 81.800781 64.734375 " fill-opacity="1" fill-rule="nonzero"/><path fill="#000000" d="M 42.441406 106.695312 C 42.332031 106.695312 42.21875 106.667969 42.117188 106.605469 C 41.824219 106.425781 41.730469 106.042969 41.910156 105.746094 C 42.863281 104.191406 43.859375 102.632812 44.878906 101.105469 C 54.707031 86.351562 67.011719 73.734375 81.441406 63.601562 C 81.726562 63.402344 82.113281 63.472656 82.3125 63.753906 C 82.507812 64.035156 82.441406 64.425781 82.160156 64.625 C 67.855469 74.667969 55.660156 87.175781 45.917969 101.796875 C 44.90625 103.3125 43.917969 104.859375 42.976562 106.398438 C 42.859375 106.59375 42.652344 106.695312 42.441406 106.695312 " fill-opacity="1" fill-rule="nonzero"/><path fill="#000000" d="M 35.261719 132.515625 L 35.605469 136.269531 L 39.402344 134.425781 Z M 34.523438 138.179688 L 33.824219 130.476562 L 42.324219 134.398438 L 34.523438 138.179688 " fill-opacity="1" fill-rule="nonzero"/><path fill="#000000" d="M 28.664062 207.953125 C 27.648438 207.953125 26.664062 208.476562 26.121094 209.417969 C 25.316406 210.816406 25.796875 212.613281 27.195312 213.421875 C 27.871094 213.8125 28.660156 213.917969 29.417969 213.714844 C 30.171875 213.511719 30.804688 213.027344 31.195312 212.351562 C 32 210.949219 31.519531 209.15625 30.121094 208.347656 C 29.664062 208.078125 29.160156 207.953125 28.664062 207.953125 Z M 28.652344 215.066406 C 27.929688 215.066406 27.214844 214.875 26.570312 214.503906 C 24.574219 213.347656 23.890625 210.789062 25.042969 208.792969 C 26.195312 206.796875 28.753906 206.113281 30.746094 207.265625 C 32.742188 208.417969 33.425781 210.976562 32.273438 212.976562 C 31.71875 213.941406 30.816406 214.632812 29.738281 214.921875 C 29.378906 215.015625 29.015625 215.066406 28.652344 215.066406 " fill-opacity="1" fill-rule="nonzero"/><path fill="#5479f7" d="M 201.726562 177.878906 L 329.175781 177.878906 C 333.195312 177.878906 336.410156 181.214844 336.355469 185.324219 L 334.015625 361.738281 C 333.960938 365.851562 330.660156 369.183594 326.636719 369.183594 L 199.1875 369.183594 C 195.167969 369.183594 191.953125 365.851562 192.007812 361.738281 L 194.347656 185.324219 C 194.402344 181.214844 197.703125 177.878906 201.726562 177.878906 " fill-opacity="1" fill-rule="nonzero"/><path fill="#ffffff" d="M 197.003906 177.878906 L 324.453125 177.878906 C 328.476562 177.878906 331.6875 181.210938 331.636719 185.324219 L 329.296875 361.738281 C 329.242188 365.851562 325.9375 369.183594 321.917969 369.183594 L 194.46875 369.183594 C 190.445312 369.183594 187.230469 365.851562 187.289062 361.738281 L 189.628906 185.324219 C 189.679688 181.210938 192.984375 177.878906 197.003906 177.878906 " fill-opacity="1" fill-rule="nonzero"/><path fill="#000000" d="M 197.003906 178.503906 C 193.332031 178.503906 190.300781 181.566406 190.253906 185.332031 L 187.910156 361.746094 C 187.886719 363.597656 188.574219 365.328125 189.847656 366.621094 C 191.082031 367.871094 192.722656 368.558594 194.46875 368.558594 L 321.917969 368.558594 C 325.59375 368.558594 328.621094 365.496094 328.671875 361.734375 L 331.011719 185.316406 C 331.035156 183.464844 330.347656 181.734375 329.074219 180.441406 C 327.84375 179.191406 326.203125 178.503906 324.453125 178.503906 Z M 321.917969 369.808594 L 194.46875 369.808594 C 192.386719 369.808594 190.429688 368.988281 188.960938 367.5 C 187.449219 365.964844 186.636719 363.917969 186.664062 361.734375 L 189.003906 185.316406 C 189.0625 180.871094 192.652344 177.253906 197.003906 177.253906 L 324.453125 177.253906 C 326.539062 177.253906 328.496094 178.074219 329.964844 179.566406 C 331.472656 181.097656 332.289062 183.148438 332.257812 185.332031 L 329.921875 361.746094 C 329.863281 366.191406 326.269531 369.808594 321.917969 369.808594 " fill-opacity="1" fill-rule="nonzero"/><path fill="#caddff" d="M 204.070312 350.089844 L 315.363281 350.089844 L 317.488281 189.691406 L 206.199219 189.691406 L 204.070312 350.089844 " fill-opacity="1" fill-rule="nonzero"/><path fill="#ffffff" d="M 221.066406 217.300781 L 301.886719 217.300781 L 301.980469 210.039062 L 221.160156 210.039062 L 221.066406 217.300781 " fill-opacity="1" fill-rule="nonzero"/><path fill="#99b9ff" d="M 216.234375 259.890625 L 252.273438 259.890625 L 252.761719 223.039062 L 216.726562 223.039062 L 216.234375 259.890625 " fill-opacity="1" fill-rule="nonzero"/><path fill="#99b9ff" d="M 262.261719 228.300781 L 308.699219 228.300781 L 308.773438 223.042969 L 262.332031 223.042969 L 262.261719 228.300781 " fill-opacity="1" fill-rule="nonzero"/><path fill="#99b9ff" d="M 262.152344 236.726562 L 308.589844 236.726562 L 308.660156 231.46875 L 262.222656 231.46875 L 262.152344 236.726562 " fill-opacity="1" fill-rule="nonzero"/><path fill="#99b9ff" d="M 262.039062 245.148438 L 308.480469 245.148438 L 308.550781 239.890625 L 262.109375 239.890625 L 262.039062 245.148438 " fill-opacity="1" fill-rule="nonzero"/><path fill="#99b9ff" d="M 261.707031 254.027344 L 308.148438 254.027344 L 308.21875 248.769531 L 261.777344 248.769531 L 261.707031 254.027344 " fill-opacity="1" fill-rule="nonzero"/><path fill="#99b9ff" d="M 261.140625 263.28125 L 307.578125 263.28125 L 307.648438 258.019531 L 261.210938 258.019531 L 261.140625 263.28125 " fill-opacity="1" fill-rule="nonzero"/><path fill="#99b9ff" d="M 262.640625 287.265625 L 304.136719 287.265625 L 304.171875 284.511719 L 262.679688 284.511719 L 262.640625 287.265625 " fill-opacity="1" fill-rule="nonzero"/><path fill="#99b9ff" d="M 262.582031 291.675781 L 304.078125 291.675781 L 304.117188 288.921875 L 262.617188 288.921875 L 262.582031 291.675781 " fill-opacity="1" fill-rule="nonzero"/><path fill="#99b9ff" d="M 262.523438 296.089844 L 304.019531 296.089844 L 304.058594 293.335938 L 262.558594 293.335938 L 262.523438 296.089844 " fill-opacity="1" fill-rule="nonzero"/><path fill="#99b9ff" d="M 262.371094 307.394531 L 303.867188 307.394531 L 303.90625 304.636719 L 262.40625 304.636719 L 262.371094 307.394531 " fill-opacity="1" fill-rule="nonzero"/><path fill="#99b9ff" d="M 262.3125 311.804688 L 303.808594 311.804688 L 303.847656 309.050781 L 262.351562 309.050781 L 262.3125 311.804688 " fill-opacity="1" fill-rule="nonzero"/><path fill="#99b9ff" d="M 262.253906 316.214844 L 303.75 316.214844 L 303.789062 313.460938 L 262.289062 313.460938 L 262.253906 316.214844 " fill-opacity="1" fill-rule="nonzero"/><path fill="#99b9ff" d="M 262.105469 327.515625 L 303.601562 327.515625 L 303.636719 324.765625 L 262.140625 324.765625 L 262.105469 327.515625 " fill-opacity="1" fill-rule="nonzero"/><path fill="#99b9ff" d="M 262.046875 331.929688 L 303.542969 331.929688 L 303.578125 329.175781 L 262.082031 329.175781 L 262.046875 331.929688 " fill-opacity="1" fill-rule="nonzero"/><path fill="#99b9ff" d="M 261.988281 336.339844 L 303.484375 336.339844 L 303.519531 333.589844 L 262.023438 333.589844 L 261.988281 336.339844 " fill-opacity="1" fill-rule="nonzero"/><path fill="#99b9ff" d="M 216.929688 287.265625 L 258.429688 287.265625 L 258.464844 284.511719 L 216.96875 284.511719 L 216.929688 287.265625 " fill-opacity="1" fill-rule="nonzero"/><path fill="#99b9ff" d="M 216.875 291.675781 L 258.371094 291.675781 L 258.40625 288.921875 L 216.910156 288.921875 L 216.875 291.675781 " fill-opacity="1" fill-rule="nonzero"/><path fill="#99b9ff" d="M 216.816406 296.085938 L 258.3125 296.085938 L 258.351562 293.335938 L 216.851562 293.335938 L 216.816406 296.085938 " fill-opacity="1" fill-rule="nonzero"/><path fill="#99b9ff" d="M 216.664062 307.390625 L 258.164062 307.390625 L 258.199219 304.636719 L 216.703125 304.636719 L 216.664062 307.390625 " fill-opacity="1" fill-rule="nonzero"/><path fill="#99b9ff" d="M 216.605469 311.804688 L 258.101562 311.804688 L 258.140625 309.046875 L 216.644531 309.046875 L 216.605469 311.804688 " fill-opacity="1" fill-rule="nonzero"/><path fill="#99b9ff" d="M 216.546875 316.214844 L 258.042969 316.214844 L 258.082031 313.460938 L 216.582031 313.460938 L 216.546875 316.214844 " fill-opacity="1" fill-rule="nonzero"/><path fill="#99b9ff" d="M 216.398438 327.515625 L 257.894531 327.515625 L 257.929688 324.765625 L 216.433594 324.765625 L 216.398438 327.515625 " fill-opacity="1" fill-rule="nonzero"/><path fill="#99b9ff" d="M 216.339844 331.929688 L 257.835938 331.929688 L 257.875 329.175781 L 216.375 329.175781 L 216.339844 331.929688 " fill-opacity="1" fill-rule="nonzero"/><path fill="#99b9ff" d="M 216.28125 336.339844 L 257.777344 336.339844 L 257.816406 333.585938 L 216.316406 333.585938 L 216.28125 336.339844 " fill-opacity="1" fill-rule="nonzero"/><path fill="#99b9ff" d="M 239.34375 279.609375 L 280.839844 279.609375 L 281.167969 274.792969 L 239.671875 274.792969 L 239.34375 279.609375 " fill-opacity="1" fill-rule="nonzero"/><path fill="#5479f7" d="M 204.703125 349.464844 L 314.746094 349.464844 L 316.855469 190.316406 L 206.8125 190.316406 Z M 315.363281 350.714844 L 204.070312 350.714844 C 203.90625 350.714844 203.742188 350.648438 203.628906 350.527344 C 203.507812 350.410156 203.445312 350.25 203.445312 350.082031 L 205.574219 189.683594 C 205.578125 189.339844 205.859375 189.066406 206.199219 189.066406 L 317.488281 189.066406 C 317.65625 189.066406 317.816406 189.132812 317.933594 189.253906 C 318.050781 189.371094 318.117188 189.535156 318.113281 189.699219 L 315.984375 350.097656 C 315.980469 350.441406 315.703125 350.714844 315.363281 350.714844 " fill-opacity="1" fill-rule="nonzero"/><path fill="#5479f7" d="M 222.402344 199.015625 L 295.589844 199.015625 C 298.296875 199.015625 300.519531 196.769531 300.554688 194 L 300.679688 184.636719 C 300.765625 178.328125 295.832031 173.214844 289.664062 173.214844 L 229.007812 173.214844 C 222.839844 173.214844 217.773438 178.328125 217.6875 184.636719 L 217.5625 194 C 217.527344 196.769531 219.691406 199.015625 222.402344 199.015625 " fill-opacity="1" fill-rule="nonzero"/><path fill="#5479f7" d="M 255.296875 156.742188 C 255.328125 154.339844 257.261719 152.390625 259.609375 152.390625 C 261.960938 152.390625 263.839844 154.339844 263.808594 156.742188 C 263.777344 159.144531 261.84375 161.09375 259.496094 161.09375 C 257.144531 161.09375 255.265625 159.144531 255.296875 156.742188 Z M 245.828125 159.851562 L 245.539062 181.664062 C 245.507812 184.125 247.433594 186.117188 249.839844 186.117188 L 268.488281 186.117188 C 270.894531 186.117188 272.871094 184.125 272.902344 181.664062 L 273.191406 159.851562 C 273.292969 152.125 267.253906 145.863281 259.695312 145.863281 C 252.140625 145.863281 245.933594 152.125 245.828125 159.851562 " fill-opacity="1" fill-rule="nonzero"/><path fill="#ffffff" d="M 223.855469 199.019531 L 297.042969 199.019531 C 299.75 199.019531 301.976562 196.773438 302.015625 194.003906 L 302.140625 184.640625 C 302.21875 178.332031 297.289062 173.214844 291.121094 173.214844 L 230.464844 173.214844 C 224.296875 173.214844 219.226562 178.332031 219.144531 184.640625 L 219.019531 194.003906 C 218.980469 196.773438 221.148438 199.019531 223.855469 199.019531 " fill-opacity="1" fill-rule="nonzero"/><path fill="#000000" d="M 230.464844 173.839844 C 224.644531 173.839844 219.847656 178.6875 219.765625 184.644531 L 219.644531 194.011719 C 219.625 195.203125 220.070312 196.316406 220.890625 197.148438 C 221.679688 197.953125 222.734375 198.394531 223.855469 198.394531 L 297.042969 198.394531 C 299.40625 198.394531 301.359375 196.421875 301.390625 193.996094 L 301.515625 184.628906 C 301.554688 181.699219 300.460938 178.960938 298.445312 176.914062 C 296.492188 174.933594 293.890625 173.839844 291.121094 173.839844 Z M 297.042969 199.640625 L 223.855469 199.640625 C 222.398438 199.640625 221.03125 199.070312 220.003906 198.027344 C 218.945312 196.953125 218.375 195.523438 218.394531 193.996094 L 218.519531 184.628906 C 218.609375 177.992188 223.964844 172.589844 230.464844 172.589844 L 291.121094 172.589844 C 294.226562 172.589844 297.144531 173.816406 299.332031 176.035156 C 301.585938 178.324219 302.804688 181.382812 302.761719 184.644531 L 302.636719 194.011719 C 302.597656 197.117188 300.085938 199.640625 297.042969 199.640625 " fill-opacity="1" fill-rule="nonzero"/><path fill="#ffffff" d="M 256.753906 156.742188 C 256.785156 154.339844 258.714844 152.390625 261.066406 152.390625 C 263.417969 152.390625 265.296875 154.339844 265.265625 156.742188 C 265.234375 159.144531 263.300781 161.09375 260.953125 161.09375 C 258.601562 161.09375 256.71875 159.144531 256.753906 156.742188 Z M 247.289062 159.851562 L 247 181.664062 C 246.96875 184.125 248.890625 186.121094 251.296875 186.121094 L 269.945312 186.121094 C 272.351562 186.121094 274.324219 184.125 274.359375 181.664062 L 274.648438 159.851562 C 274.75 152.125 268.710938 145.863281 261.152344 145.863281 C 253.597656 145.863281 247.390625 152.125 247.289062 159.851562 " fill-opacity="1" fill-rule="nonzero"/><path fill="#000000" d="M 257.375 156.75 C 257.363281 157.761719 257.738281 158.710938 258.4375 159.414062 C 259.105469 160.09375 260 160.46875 260.949219 160.46875 C 262.957031 160.46875 264.617188 158.792969 264.640625 156.734375 C 264.65625 155.722656 264.28125 154.777344 263.585938 154.070312 C 262.914062 153.390625 262.019531 153.015625 261.066406 153.015625 C 259.058594 153.015625 257.40625 154.691406 257.375 156.75 Z M 260.949219 161.71875 C 259.664062 161.71875 258.453125 161.210938 257.550781 160.289062 C 256.617188 159.347656 256.113281 158.082031 256.128906 156.734375 C 256.167969 153.996094 258.382812 151.765625 261.066406 151.765625 C 262.355469 151.765625 263.5625 152.273438 264.472656 153.191406 C 265.40625 154.140625 265.910156 155.402344 265.890625 156.75 C 265.851562 159.488281 263.640625 161.71875 260.949219 161.71875 Z M 247.289062 159.851562 L 247.292969 159.851562 Z M 261.15625 146.488281 C 253.949219 146.488281 248.011719 152.484375 247.910156 159.859375 L 247.621094 181.671875 C 247.609375 182.710938 247.996094 183.683594 248.710938 184.40625 C 249.398438 185.109375 250.316406 185.492188 251.296875 185.492188 L 269.945312 185.492188 C 272.007812 185.492188 273.707031 183.773438 273.738281 181.65625 L 274.023438 159.84375 C 274.074219 156.214844 272.726562 152.824219 270.226562 150.292969 C 267.804688 147.839844 264.585938 146.488281 261.15625 146.488281 Z M 269.945312 186.742188 L 251.296875 186.742188 C 249.980469 186.742188 248.75 186.222656 247.820312 185.285156 C 246.871094 184.320312 246.355469 183.03125 246.375 181.65625 L 246.664062 159.84375 C 246.769531 151.789062 253.273438 145.238281 261.15625 145.238281 C 264.921875 145.238281 268.457031 146.722656 271.113281 149.414062 C 273.847656 152.1875 275.328125 155.898438 275.273438 159.859375 L 274.984375 181.671875 C 274.949219 184.46875 272.6875 186.742188 269.945312 186.742188 " fill-opacity="1" fill-rule="nonzero"/><path fill="#ffffff" d="M 314.855469 79.621094 C 314.855469 100.679688 297.796875 117.75 276.757812 117.75 C 255.71875 117.75 238.664062 100.679688 238.664062 79.621094 C 238.664062 58.5625 255.71875 41.492188 276.757812 41.492188 C 297.796875 41.492188 314.855469 58.5625 314.855469 79.621094 " fill-opacity="1" fill-rule="nonzero"/><path fill="#000000" d="M 276.757812 42.117188 C 256.09375 42.117188 239.285156 58.945312 239.285156 79.625 C 239.285156 100.304688 256.09375 117.128906 276.757812 117.128906 C 297.417969 117.128906 314.226562 100.304688 314.226562 79.625 C 314.226562 58.945312 297.417969 42.117188 276.757812 42.117188 Z M 276.757812 118.378906 C 255.410156 118.378906 238.039062 100.992188 238.039062 79.625 C 238.039062 58.253906 255.410156 40.871094 276.757812 40.871094 C 298.105469 40.871094 315.472656 58.253906 315.472656 79.625 C 315.472656 100.992188 298.105469 118.378906 276.757812 118.378906 " fill-opacity="1" fill-rule="nonzero"/><path fill="#5479f7" d="M 283.484375 104.375 L 271.328125 104.375 C 269.511719 104.375 268.039062 102.902344 268.039062 101.082031 L 268.039062 59.730469 C 268.039062 57.914062 269.511719 56.441406 271.328125 56.441406 L 283.484375 56.441406 C 285.296875 56.441406 286.769531 57.914062 286.769531 59.730469 L 286.769531 101.082031 C 286.769531 102.902344 285.296875 104.375 283.484375 104.375 " fill-opacity="1" fill-rule="nonzero"/><path fill="#5479f7" d="M 253.566406 86.53125 L 253.566406 74.277344 C 253.566406 72.464844 255.039062 70.992188 256.855469 70.992188 L 297.957031 70.992188 C 299.773438 70.992188 301.246094 72.464844 301.246094 74.277344 L 301.246094 86.53125 C 301.246094 88.347656 299.773438 89.820312 297.957031 89.820312 L 256.855469 89.820312 C 255.039062 89.820312 253.566406 88.347656 253.566406 86.53125 " fill-opacity="1" fill-rule="nonzero"/><path fill="#ffffff" d="M 123.652344 342.46875 L 123.273438 355.019531 L 115.921875 354.878906 L 114.636719 341.558594 L 123.652344 342.46875 " fill-opacity="1" fill-rule="nonzero"/><path fill="#000000" d="M 116.488281 354.265625 L 122.671875 354.382812 L 123.011719 343.03125 L 115.332031 342.257812 Z M 123.273438 355.644531 C 123.269531 355.644531 123.265625 355.644531 123.261719 355.644531 L 115.910156 355.5 C 115.59375 355.496094 115.332031 355.253906 115.300781 354.9375 L 114.015625 341.617188 C 113.996094 341.429688 114.0625 341.246094 114.195312 341.117188 C 114.328125 340.984375 114.511719 340.917969 114.699219 340.9375 L 123.714844 341.847656 C 124.042969 341.882812 124.285156 342.164062 124.277344 342.488281 L 123.898438 355.039062 C 123.886719 355.375 123.609375 355.644531 123.273438 355.644531 " fill-opacity="1" fill-rule="nonzero"/><path fill="#5479f7" d="M 113.429688 360.046875 C 112.957031 359.660156 112.707031 359.058594 112.753906 358.449219 C 112.890625 356.617188 113.277344 352.722656 114.160156 351.332031 C 115.335938 349.492188 119.09375 352.605469 119.09375 352.605469 C 119.09375 352.605469 121.785156 349.570312 123.238281 349.019531 C 123.988281 348.738281 127.890625 351.949219 131.726562 356.179688 C 135.929688 360.8125 137.882812 362.351562 138.515625 366.046875 C 138.8125 367.777344 137.40625 369.347656 135.648438 369.296875 C 131.371094 369.171875 122.851562 367.796875 113.429688 360.046875 " fill-opacity="1" fill-rule="nonzero"/><path fill="#000000" d="M 113.824219 359.566406 C 123.117188 367.207031 131.5 368.550781 135.667969 368.671875 C 136.324219 368.691406 136.964844 368.414062 137.402344 367.90625 C 137.828125 367.417969 138.007812 366.777344 137.902344 366.152344 C 137.398438 363.226562 136.050781 361.769531 133.09375 358.585938 C 132.539062 357.988281 131.929688 357.332031 131.265625 356.597656 C 127.320312 352.25 124.105469 349.808594 123.382812 349.636719 C 122.289062 350.109375 120.265625 352.226562 119.5625 353.019531 C 119.335938 353.273438 118.957031 353.300781 118.695312 353.085938 C 117.808594 352.351562 116.046875 351.242188 115.121094 351.386719 C 114.925781 351.417969 114.792969 351.503906 114.6875 351.671875 C 114.117188 352.5625 113.628906 355.117188 113.375 358.496094 C 113.34375 358.910156 113.511719 359.308594 113.824219 359.566406 Z M 135.734375 369.925781 C 135.699219 369.925781 135.667969 369.921875 135.632812 369.921875 C 131.304688 369.792969 122.613281 368.40625 113.035156 360.527344 C 112.40625 360.015625 112.070312 359.21875 112.132812 358.402344 C 112.289062 356.269531 112.699219 352.472656 113.636719 351 C 113.933594 350.53125 114.378906 350.242188 114.929688 350.15625 C 116.324219 349.933594 118.152344 351.117188 119.019531 351.757812 C 119.859375 350.859375 121.761719 348.910156 123.015625 348.4375 C 124.886719 347.730469 132.117188 355.679688 132.1875 355.757812 C 132.851562 356.488281 133.457031 357.140625 134.007812 357.738281 C 137.042969 361.007812 138.566406 362.648438 139.132812 365.941406 C 139.300781 366.9375 139.015625 367.953125 138.34375 368.726562 C 137.683594 369.492188 136.734375 369.925781 135.734375 369.925781 " fill-opacity="1" fill-rule="nonzero"/><path fill="#000000" d="M 134.71875 366.671875 C 131.558594 366.671875 123.125 365.910156 115.003906 358.601562 C 114.746094 358.371094 114.726562 357.976562 114.957031 357.71875 C 115.1875 357.464844 115.582031 357.445312 115.835938 357.671875 C 125.445312 366.320312 135.769531 365.386719 135.875 365.378906 C 136.21875 365.34375 136.523438 365.59375 136.558594 365.9375 C 136.589844 366.277344 136.34375 366.585938 136 366.621094 C 135.914062 366.628906 135.464844 366.671875 134.71875 366.671875 " fill-opacity="1" fill-rule="nonzero"/><path fill="#ffffff" d="M 92.851562 334.164062 L 90.851562 349.765625 L 85.273438 349.804688 L 84.242188 332.695312 L 92.851562 334.164062 " fill-opacity="1" fill-rule="nonzero"/><path fill="#000000" d="M 84.914062 333.441406 L 85.859375 349.175781 L 90.304688 349.144531 L 92.15625 334.679688 Z M 85.273438 350.425781 C 84.941406 350.425781 84.671875 350.171875 84.648438 349.839844 L 83.621094 332.730469 C 83.609375 332.539062 83.683594 332.355469 83.824219 332.230469 C 83.96875 332.101562 84.160156 332.046875 84.347656 332.078125 L 92.957031 333.550781 C 93.285156 333.605469 93.511719 333.914062 93.472656 334.246094 L 91.472656 349.84375 C 91.429688 350.15625 91.167969 350.386719 90.855469 350.386719 L 85.277344 350.425781 C 85.273438 350.425781 85.273438 350.425781 85.273438 350.425781 " fill-opacity="1" fill-rule="nonzero"/><path fill="#5479f7" d="M 93.066406 353.832031 L 93.851562 345.257812 C 93.851562 345.257812 92.398438 342.488281 89.835938 344.359375 C 89.835938 344.359375 88.539062 342.089844 85.546875 343.296875 C 84.417969 343.753906 83.480469 344.578125 82.808594 345.59375 C 80.96875 348.367188 76.160156 355.730469 73.644531 360.558594 C 72.800781 362.175781 73.242188 365.023438 75.667969 365.371094 C 79.195312 365.875 81.613281 364.898438 83.183594 364.054688 C 85.632812 362.734375 90.058594 358.234375 91.992188 356.199219 C 92.609375 355.554688 92.988281 354.722656 93.066406 353.832031 " fill-opacity="1" fill-rule="nonzero"/><path fill="#000000" d="M 87.21875 343.566406 C 86.808594 343.566406 86.332031 343.652344 85.78125 343.875 C 84.8125 344.269531 83.960938 344.980469 83.328125 345.941406 C 81.410156 348.832031 76.683594 356.078125 74.199219 360.84375 C 73.769531 361.667969 73.765625 362.820312 74.1875 363.644531 C 74.511719 364.277344 75.039062 364.648438 75.757812 364.75 C 79.167969 365.242188 81.460938 364.273438 82.886719 363.503906 C 85.277344 362.214844 89.738281 357.667969 91.542969 355.769531 C 92.058594 355.230469 92.378906 354.519531 92.445312 353.773438 L 93.210938 345.40625 C 93.027344 345.128906 92.5625 344.527344 91.886719 344.371094 C 91.378906 344.253906 90.808594 344.421875 90.203125 344.867188 C 90.058594 344.96875 89.878906 345.007812 89.703125 344.972656 C 89.53125 344.933594 89.378906 344.824219 89.292969 344.671875 C 89.210938 344.535156 88.589844 343.566406 87.21875 343.566406 Z M 77.574219 366.132812 C 76.953125 366.132812 76.289062 366.089844 75.582031 365.988281 C 74.472656 365.828125 73.582031 365.199219 73.078125 364.214844 C 72.472656 363.03125 72.476562 361.445312 73.09375 360.265625 C 75.601562 355.449219 80.359375 348.15625 82.289062 345.25 C 83.0625 344.082031 84.109375 343.203125 85.3125 342.71875 C 87.597656 341.792969 89.195312 342.660156 89.984375 343.523438 C 90.726562 343.113281 91.460938 342.992188 92.175781 343.15625 C 93.617188 343.492188 94.375 344.910156 94.40625 344.96875 C 94.460938 345.074219 94.484375 345.195312 94.472656 345.316406 L 93.6875 353.886719 C 93.59375 354.914062 93.152344 355.890625 92.445312 356.632812 C 90.152344 359.042969 85.9375 363.28125 83.476562 364.601562 C 82.191406 365.296875 80.273438 366.132812 77.574219 366.132812 " fill-opacity="1" fill-rule="nonzero"/><path fill="#000000" d="M 78.457031 362.972656 C 77.265625 362.972656 76.109375 362.621094 75.195312 361.628906 C 74.960938 361.375 74.976562 360.976562 75.230469 360.746094 C 75.484375 360.511719 75.878906 360.527344 76.113281 360.78125 C 78.046875 362.886719 81.992188 360.863281 83.152344 360.191406 C 84.566406 359.375 87.035156 357.113281 90.101562 353.824219 C 90.335938 353.574219 90.730469 353.558594 90.984375 353.792969 C 91.234375 354.03125 91.25 354.425781 91.015625 354.675781 C 88.785156 357.066406 85.722656 360.148438 83.777344 361.273438 C 82.667969 361.914062 80.515625 362.972656 78.457031 362.972656 " fill-opacity="1" fill-rule="nonzero"/><path fill="#000000" d="M 89.371094 349.601562 C 89.351562 349.601562 89.328125 349.601562 89.308594 349.597656 C 88.964844 349.5625 88.714844 349.257812 88.75 348.914062 L 89.214844 344.296875 C 89.246094 343.957031 89.550781 343.707031 89.894531 343.738281 C 90.238281 343.773438 90.488281 344.082031 90.453125 344.425781 L 89.992188 349.039062 C 89.957031 349.363281 89.6875 349.601562 89.371094 349.601562 " fill-opacity="1" fill-rule="nonzero"/><path fill="#5479f7" d="M 122.882812 343.761719 C 124.558594 343.699219 125.953125 342.457031 126.207031 340.796875 C 127.433594 332.726562 130.957031 307.234375 130.496094 283.53125 C 129.941406 254.898438 121.320312 213.214844 121.320312 213.214844 C 121.320312 213.214844 107.714844 211.210938 97.632812 211.542969 C 87.550781 211.875 83.75 210.101562 83.75 210.101562 C 83.75 210.101562 75.464844 217.859375 74.457031 233.921875 C 73.492188 249.25 81.929688 332.523438 81.929688 332.523438 C 81.929688 332.523438 82.246094 335.597656 84.359375 336.292969 C 86.179688 336.890625 88.722656 337.753906 91.820312 337.898438 C 93.539062 337.984375 95.003906 336.648438 95.117188 334.925781 L 100.839844 248.757812 C 100.863281 248.382812 101.398438 248.335938 101.484375 248.703125 C 102.714844 254.105469 105.917969 268.582031 107.308594 279.074219 C 108.097656 285.023438 109.566406 289.886719 110.714844 293.039062 C 111.738281 295.855469 112.144531 298.855469 111.933594 301.84375 C 111.390625 309.597656 110.734375 325.378906 112.90625 339.902344 C 113.105469 341.257812 114.070312 342.371094 115.382812 342.753906 C 117.1875 343.277344 119.933594 343.871094 122.882812 343.761719 " fill-opacity="1" fill-rule="nonzero"/><path fill="#000000" d="M 122.859375 343.136719 L 122.882812 343.761719 L 122.859375 343.136719 C 124.234375 343.085938 125.382812 342.0625 125.589844 340.707031 C 126.710938 333.324219 130.339844 307.382812 129.875 283.542969 C 129.355469 256.84375 121.707031 218.273438 120.796875 213.773438 C 118.398438 213.4375 106.5625 211.875 97.652344 212.167969 C 89.261719 212.441406 85.15625 211.28125 83.90625 210.832031 C 82.488281 212.339844 75.957031 219.996094 75.078125 233.960938 C 74.128906 249.0625 82.464844 331.625 82.550781 332.457031 C 82.550781 332.480469 82.855469 335.144531 84.554688 335.699219 L 84.71875 335.753906 C 86.496094 336.339844 88.929688 337.136719 91.851562 337.277344 C 93.207031 337.34375 94.402344 336.269531 94.496094 334.886719 L 100.21875 248.71875 C 100.25 248.238281 100.617188 247.867188 101.089844 247.828125 C 101.566406 247.792969 101.984375 248.101562 102.089844 248.566406 C 103.382812 254.230469 106.542969 268.539062 107.929688 278.988281 C 108.71875 284.945312 110.195312 289.800781 111.300781 292.824219 C 112.351562 295.71875 112.777344 298.765625 112.558594 301.886719 C 111.996094 309.886719 111.375 325.445312 113.519531 339.8125 C 113.6875 340.921875 114.488281 341.839844 115.558594 342.152344 C 117.304688 342.660156 119.992188 343.246094 122.859375 343.136719 Z M 122.164062 344.398438 C 119.414062 344.398438 116.894531 343.839844 115.210938 343.351562 C 113.671875 342.902344 112.523438 341.585938 112.289062 339.996094 C 110.125 325.511719 110.75 309.847656 111.3125 301.800781 C 111.519531 298.855469 111.121094 295.980469 110.128906 293.253906 C 109.003906 290.167969 107.496094 285.222656 106.691406 279.15625 C 105.453125 269.824219 102.792969 257.378906 101.328125 250.84375 L 95.738281 334.96875 C 95.601562 337.027344 93.832031 338.621094 91.789062 338.523438 C 88.703125 338.375 86.175781 337.542969 84.328125 336.941406 L 84.164062 336.886719 C 81.695312 336.074219 81.324219 332.726562 81.308594 332.585938 C 81.222656 331.75 72.875 249.085938 73.832031 233.882812 C 74.847656 217.757812 82.980469 209.96875 83.324219 209.644531 C 83.511719 209.46875 83.785156 209.425781 84.015625 209.535156 C 84.050781 209.550781 87.859375 211.238281 97.613281 210.921875 C 107.636719 210.589844 121.273438 212.578125 121.410156 212.597656 C 121.667969 212.636719 121.878906 212.832031 121.929688 213.089844 C 122.015625 213.507812 130.570312 255.15625 131.121094 283.519531 C 131.585938 307.457031 127.949219 333.484375 126.824219 340.890625 C 126.527344 342.839844 124.878906 344.3125 122.90625 344.386719 C 122.65625 344.394531 122.40625 344.398438 122.164062 344.398438 " fill-opacity="1" fill-rule="nonzero"/><path fill="#000000" d="M 89.652344 294.078125 C 87.886719 294.078125 84.96875 293.734375 82.820312 291.773438 C 82.566406 291.539062 82.546875 291.144531 82.777344 290.890625 C 83.011719 290.636719 83.40625 290.617188 83.660156 290.851562 C 86.449219 293.394531 90.972656 292.753906 91.015625 292.746094 C 91.359375 292.695312 91.675781 292.929688 91.726562 293.269531 C 91.777344 293.613281 91.542969 293.929688 91.199219 293.980469 C 91.132812 293.988281 90.535156 294.078125 89.652344 294.078125 " fill-opacity="1" fill-rule="nonzero"/><path fill="#000000" d="M 106.933594 122.332031 C 102.796875 117.570312 96.46875 116.402344 91.652344 117.5625 C 85.554688 119.027344 82.347656 124.171875 80.082031 127.796875 C 76.082031 134.207031 77.84375 136.628906 74.742188 140.328125 C 69.246094 146.882812 61.078125 142.429688 54.480469 147.136719 C 44.414062 154.320312 42.300781 179.679688 55.316406 189.753906 C 63.996094 196.476562 76.183594 193.117188 79.5 192.203125 C 89.566406 189.429688 102.234375 181.214844 104.371094 169.617188 C 106.136719 160.027344 100.039062 151.816406 105.59375 143.902344 C 107.011719 141.886719 108.148438 141.363281 109.230469 138.824219 C 110.988281 134.699219 111.570312 127.675781 106.933594 122.332031 " fill-opacity="1" fill-rule="nonzero"/><path fill="#000000" d="M 93.609375 123.675781 C 95.917969 121.914062 94.65625 116.480469 93.304688 113.523438 C 92.796875 112.417969 90.53125 107.460938 87.34375 107.554688 C 84.070312 107.648438 80.777344 113.039062 81.808594 117.421875 C 83.101562 122.902344 90.902344 125.738281 93.609375 123.675781 " fill-opacity="1" fill-rule="nonzero"/><path fill="#99b9ff" d="M 74.984375 156.457031 C 74.984375 156.457031 84.128906 153.21875 95 152.113281 C 100.375 151.570312 106.167969 151.882812 111.488281 152.695312 C 127.488281 155.148438 110.664062 215.234375 110.664062 215.234375 L 90.789062 216.449219 C 90.789062 216.449219 77.09375 179.457031 74.984375 156.457031 " fill-opacity="1" fill-rule="nonzero"/><path fill="#000000" d="M 75.652344 156.890625 C 77.746094 178.234375 89.691406 211.609375 91.214844 215.800781 L 110.179688 214.636719 C 111.464844 209.902344 122.671875 167.496094 115.253906 155.984375 C 114.253906 154.429688 112.992188 153.558594 111.394531 153.3125 C 105.652344 152.433594 100.003906 152.234375 95.066406 152.738281 C 85.753906 153.683594 77.632812 156.234375 75.652344 156.890625 Z M 90.789062 217.078125 C 90.527344 217.078125 90.292969 216.914062 90.203125 216.667969 C 90.066406 216.300781 76.457031 179.332031 74.363281 156.515625 C 74.339844 156.230469 74.507812 155.964844 74.777344 155.871094 C 74.871094 155.835938 84.117188 152.59375 94.9375 151.496094 C 99.980469 150.980469 105.738281 151.183594 111.582031 152.078125 C 113.527344 152.378906 115.113281 153.464844 116.300781 155.308594 C 124.425781 167.914062 111.804688 213.46875 111.261719 215.402344 C 111.191406 215.660156 110.964844 215.84375 110.699219 215.855469 L 90.824219 217.074219 C 90.8125 217.074219 90.800781 217.078125 90.789062 217.078125 " fill-opacity="1" fill-rule="nonzero"/><path fill="#ffffff" d="M 94.894531 183.054688 C 92.539062 175.097656 83.261719 162.457031 77.761719 155.414062 C 74.695312 156.484375 72.699219 157.371094 72.699219 157.371094 L 74.28125 179.328125 C 74.28125 179.328125 65.46875 274.691406 68.496094 278.085938 C 70.125 279.910156 74.273438 281.292969 80.808594 280.574219 C 88.214844 279.753906 91.167969 278.316406 94.75 277.339844 C 95.574219 255.84375 97.710938 192.578125 94.894531 183.054688 " fill-opacity="1" fill-rule="nonzero"/><path fill="#ffffff" d="M 124.75 195.371094 C 123.519531 189.515625 122.308594 183.59375 121.121094 177.613281 C 119.492188 169.386719 116.488281 153.203125 116.488281 153.203125 C 116.488281 153.203125 113.765625 152.523438 109.449219 152.035156 C 107.453125 159.046875 102.847656 177.875 103.835938 199.671875 C 104.386719 211.90625 109.195312 260.054688 110.902344 276.90625 C 121.117188 278.085938 131.917969 280.570312 134.914062 278.511719 C 137.472656 276.75 128.546875 210.839844 124.75 195.371094 " fill-opacity="1" fill-rule="nonzero"/><path fill="#ffffff" d="M 157.992188 141.21875 C 157.992188 141.21875 161.246094 133.398438 162.242188 131.328125 C 163.378906 128.972656 158.96875 130.382812 155.851562 137.746094 L 157.992188 141.21875 " fill-opacity="1" fill-rule="nonzero"/><path fill="#000000" d="M 156.550781 137.695312 L 157.882812 139.855469 C 158.824219 137.609375 160.90625 132.664062 161.683594 131.054688 C 161.695312 131.027344 161.707031 131 161.71875 130.976562 C 160.832031 131.34375 158.527344 133.183594 156.550781 137.695312 Z M 158.101562 142.585938 L 155.152344 137.800781 L 155.277344 137.503906 C 157.582031 132.0625 160.527344 129.808594 161.84375 129.664062 C 162.277344 129.621094 162.652344 129.765625 162.863281 130.070312 C 163.132812 130.449219 163.109375 130.964844 162.804688 131.597656 C 161.828125 133.628906 158.597656 141.382812 158.566406 141.460938 L 158.101562 142.585938 " fill-opacity="1" fill-rule="nonzero"/><path fill="#ffffff" d="M 157.980469 139.941406 C 158.144531 140.21875 158.3125 140.492188 158.496094 140.753906 C 158.804688 141.199219 159.460938 142.320312 159.097656 143.390625 C 158.742188 144.429688 156.246094 147.757812 155.0625 149.308594 C 154.65625 149.839844 154.273438 161.410156 154.273438 161.410156 L 145.941406 161.019531 C 145.941406 161.019531 149.457031 151.507812 149.109375 150.359375 C 148.464844 148.234375 147.953125 146.125 147.785156 144.628906 C 147.277344 140.207031 149.75 136.871094 150.65625 136.597656 C 151.566406 136.324219 152.578125 137.847656 152.578125 137.847656 C 152.578125 137.847656 153.773438 135.570312 155.25 135.824219 C 156.019531 135.953125 156.042969 136.765625 156.433594 137.378906 L 157.980469 139.941406 " fill-opacity="1" fill-rule="nonzero"/><path fill="#000000" d="M 146.820312 160.4375 L 153.671875 160.757812 C 154.050781 149.601562 154.425781 149.113281 154.566406 148.929688 C 156.773438 146.046875 158.28125 143.851562 158.503906 143.191406 C 158.785156 142.363281 158.175781 141.390625 157.984375 141.109375 C 157.785156 140.824219 157.609375 140.535156 157.445312 140.265625 L 155.902344 137.699219 C 155.761719 137.484375 155.660156 137.242188 155.574219 137.03125 C 155.378906 136.558594 155.308594 136.464844 155.144531 136.4375 C 154.3125 136.292969 153.386719 137.652344 153.128906 138.136719 L 152.636719 139.0625 L 152.058594 138.191406 C 151.707031 137.667969 151.097656 137.117188 150.835938 137.195312 C 150.238281 137.40625 147.925781 140.386719 148.402344 144.5625 C 148.5625 145.933594 149.023438 147.929688 149.707031 150.179688 C 150.042969 151.296875 147.996094 157.210938 146.820312 160.4375 Z M 154.875 162.066406 L 145.058594 161.605469 L 145.355469 160.804688 C 147 156.355469 148.628906 151.292969 148.507812 150.519531 C 147.808594 148.222656 147.332031 146.148438 147.164062 144.703125 C 146.632812 140.058594 149.207031 136.378906 150.480469 136 C 151.28125 135.761719 152.023438 136.28125 152.515625 136.785156 C 153.082031 136.015625 154.09375 134.992188 155.355469 135.207031 C 156.230469 135.355469 156.515625 136.046875 156.726562 136.550781 C 156.800781 136.730469 156.875 136.902344 156.960938 137.042969 L 158.511719 139.621094 C 158.664062 139.871094 158.828125 140.140625 159.007812 140.398438 C 159.363281 140.910156 160.140625 142.25 159.6875 143.589844 C 159.335938 144.628906 157.28125 147.433594 155.601562 149.628906 C 155.367188 150.457031 155.066406 156.277344 154.894531 161.429688 L 154.875 162.066406 " fill-opacity="1" fill-rule="nonzero"/><path fill="#000000" d="M 153.9375 146.417969 C 153.097656 146.417969 152.015625 145.855469 151.207031 144.246094 C 149.878906 141.609375 152.011719 137.578125 152.105469 137.40625 C 152.269531 137.101562 152.648438 136.988281 152.949219 137.152344 C 153.253906 137.316406 153.367188 137.691406 153.203125 137.996094 C 152.667969 139 151.460938 141.976562 152.320312 143.683594 C 152.882812 144.804688 153.582031 145.234375 154.019531 145.164062 C 154.332031 145.113281 154.425781 144.796875 154.457031 144.609375 C 154.640625 143.386719 154.078125 142.488281 154.074219 142.476562 C 153.882812 142.191406 153.964844 141.800781 154.25 141.613281 C 154.539062 141.425781 154.925781 141.503906 155.113281 141.792969 C 155.148438 141.847656 155.945312 143.085938 155.6875 144.796875 C 155.554688 145.660156 154.992188 146.273438 154.21875 146.394531 C 154.125 146.410156 154.03125 146.417969 153.9375 146.417969 " fill-opacity="1" fill-rule="nonzero"/><path fill="#ffffff" d="M 146.496094 154.703125 C 149.742188 155.421875 153.339844 156.546875 156.019531 158.035156 C 156.816406 162.003906 156.582031 169.007812 153.34375 177.761719 C 152 181.394531 150.417969 185.667969 146.898438 187.945312 C 140.164062 192.296875 126.339844 189.886719 115.289062 179.601562 C 115.183594 171.3125 116.59375 161.488281 116.488281 153.203125 C 119.371094 154.183594 121.941406 155.917969 123.9375 158.222656 L 127.425781 162.257812 C 130.554688 167.914062 134.757812 171.800781 137.980469 171.089844 C 140.613281 170.507812 142.054688 166.734375 144.9375 159.191406 C 146.425781 155.304688 145.855469 157.117188 146.496094 154.703125 " fill-opacity="1" fill-rule="nonzero"/><path fill="#000000" d="M 111.472656 276.34375 C 114.007812 276.644531 116.558594 277.023438 119.03125 277.386719 C 125.925781 278.398438 132.441406 279.359375 134.507812 278.03125 C 136.414062 274.476562 128.058594 211.46875 124.144531 195.519531 C 123.488281 192.390625 122.792969 189.03125 122.019531 185.230469 C 121.972656 184.988281 122.070312 184.742188 122.269531 184.597656 C 122.472656 184.457031 122.738281 184.445312 122.949219 184.570312 C 131.554688 189.667969 141.265625 190.84375 146.5625 187.417969 C 149.90625 185.257812 151.421875 181.160156 152.757812 177.546875 C 156.515625 167.386719 155.855469 160.648438 155.460938 158.441406 C 153.296875 157.28125 150.304688 156.230469 146.945312 155.445312 C 146.910156 155.578125 146.882812 155.691406 146.859375 155.785156 C 146.695312 156.433594 146.683594 156.457031 146.429688 157.089844 C 146.269531 157.488281 146.003906 158.152344 145.519531 159.417969 C 142.5625 167.160156 141.078125 171.046875 138.117188 171.699219 C 134.78125 172.433594 130.386719 168.871094 126.910156 162.617188 L 123.464844 158.632812 C 121.550781 156.417969 119.078125 154.75 116.3125 153.800781 C 116.042969 153.738281 113.617188 153.164062 109.90625 152.714844 C 107.832031 160.125 103.5 178.480469 104.457031 199.644531 C 105.011719 211.863281 109.898438 260.78125 111.472656 276.34375 Z M 130.816406 279.929688 C 127.753906 279.929688 123.605469 279.320312 118.851562 278.621094 C 116.226562 278.234375 113.511719 277.835938 110.828125 277.527344 C 110.539062 277.492188 110.308594 277.257812 110.28125 276.96875 C 108.335938 257.75 103.757812 211.75 103.210938 199.703125 C 102.222656 177.847656 106.824219 158.96875 108.851562 151.863281 C 108.933594 151.570312 109.21875 151.378906 109.519531 151.414062 C 113.828125 151.902344 116.527344 152.566406 116.636719 152.597656 C 116.65625 152.601562 116.671875 152.605469 116.6875 152.613281 C 119.675781 153.628906 122.34375 155.429688 124.410156 157.816406 L 127.898438 161.851562 C 127.925781 161.882812 127.949219 161.917969 127.972656 161.957031 C 131.128906 167.660156 135.097656 171.085938 137.847656 170.480469 C 140.152344 169.96875 141.644531 166.0625 144.355469 158.972656 C 144.84375 157.695312 145.109375 157.027344 145.273438 156.625 C 145.5 156.054688 145.5 156.054688 145.648438 155.480469 C 145.703125 155.261719 145.78125 154.964844 145.890625 154.542969 C 145.980469 154.21875 146.304688 154.019531 146.628906 154.09375 C 148.859375 154.585938 153.078125 155.683594 156.324219 157.488281 C 156.480469 157.578125 156.59375 157.730469 156.632812 157.910156 C 157.019531 159.851562 157.976562 167.03125 153.929688 177.980469 C 152.59375 181.585938 150.933594 186.082031 147.238281 188.46875 C 141.722656 192.03125 132.324219 191.152344 123.515625 186.332031 C 124.179688 189.582031 124.785156 192.507812 125.363281 195.238281 C 127.160156 202.5625 130.300781 222.234375 132.835938 242 C 137.386719 277.566406 135.792969 278.664062 135.265625 279.027344 C 134.320312 279.675781 132.792969 279.929688 130.816406 279.929688 " fill-opacity="1" fill-rule="nonzero"/><path fill="#000000" d="M 117.742188 265.667969 C 117.648438 265.667969 117.550781 265.648438 117.460938 265.605469 C 113.113281 263.425781 112.15625 249.492188 112.0625 247.910156 C 112.050781 247.714844 112.132812 247.523438 112.285156 247.394531 C 112.433594 247.265625 112.636719 247.21875 112.828125 247.265625 C 119.191406 248.773438 125.5 249.875 128.566406 247.765625 C 128.851562 247.570312 129.238281 247.640625 129.433594 247.925781 C 129.628906 248.210938 129.558594 248.597656 129.273438 248.792969 C 126.117188 250.964844 120.632812 250.347656 113.367188 248.671875 C 113.726562 253.257812 115.074219 263.011719 118.019531 264.488281 C 118.328125 264.640625 118.453125 265.015625 118.300781 265.324219 C 118.191406 265.542969 117.96875 265.667969 117.742188 265.667969 " fill-opacity="1" fill-rule="nonzero"/><path fill="#000000" d="M 85.484375 267.265625 C 85.230469 267.265625 84.988281 267.109375 84.898438 266.855469 C 84.78125 266.53125 84.949219 266.175781 85.273438 266.054688 C 87.773438 265.15625 88.589844 255.367188 88.542969 248.886719 C 81.148438 250.628906 77.058594 251.375 73.957031 249.238281 C 73.671875 249.042969 73.601562 248.65625 73.796875 248.371094 C 73.992188 248.085938 74.378906 248.015625 74.664062 248.210938 C 77.4375 250.121094 81.28125 249.324219 89.015625 247.496094 C 89.195312 247.453125 89.390625 247.492188 89.539062 247.609375 C 89.6875 247.722656 89.777344 247.902344 89.78125 248.089844 C 89.816406 249.886719 89.984375 265.683594 85.695312 267.230469 C 85.625 267.257812 85.554688 267.265625 85.484375 267.265625 " fill-opacity="1" fill-rule="nonzero"/><path fill="#ffffff" d="M 64.960938 215.3125 L 70.570312 207.585938 C 71.003906 206.988281 70.996094 206.183594 70.558594 205.589844 C 67.75 201.773438 59.363281 187.261719 83.023438 174.933594 L 77.761719 155.414062 C 77.761719 155.414062 46.738281 164.625 47.167969 189.761719 C 47.191406 190.992188 48.25 196.417969 50.570312 201.214844 C 54.785156 209.933594 60.054688 213.839844 62.609375 215.691406 C 63.363281 216.234375 64.414062 216.0625 64.960938 215.3125 " fill-opacity="1" fill-rule="nonzero"/><path fill="#000000" d="M 74.144531 180.195312 C 74.238281 180.195312 74.335938 180.214844 74.425781 180.261719 C 74.652344 180.378906 74.789062 180.621094 74.765625 180.875 C 74.632812 182.316406 74.527344 184.941406 74.394531 188.261719 C 74.167969 194.007812 73.851562 201.875 73.152344 210.375 C 72.757812 215.214844 72.320312 220.324219 71.882812 225.480469 C 69.976562 247.859375 67.601562 275.710938 68.96875 277.675781 C 70.367188 279.246094 74.199219 280.671875 80.738281 279.953125 C 86.265625 279.34375 89.289062 278.382812 91.960938 277.53125 C 92.703125 277.296875 93.414062 277.074219 94.144531 276.863281 C 94.914062 256.671875 97.089844 192.667969 94.296875 183.230469 C 91.996094 175.46875 82.929688 163.074219 77.539062 156.140625 C 75.855469 156.691406 69.183594 159.054688 62.636719 163.691406 C 52.613281 170.785156 47.617188 179.554688 47.792969 189.75 C 47.8125 190.972656 48.871094 196.265625 51.132812 200.945312 C 55.355469 209.675781 60.695312 213.535156 62.976562 215.183594 C 63.449219 215.523438 64.113281 215.417969 64.457031 214.945312 L 70.066406 207.21875 C 70.339844 206.84375 70.335938 206.335938 70.058594 205.957031 C 67.699219 202.753906 61 191.441406 73.734375 180.347656 C 73.851562 180.246094 73.996094 180.195312 74.144531 180.195312 Z M 77.429688 281.390625 C 73.097656 281.390625 69.699219 280.371094 68.03125 278.5 C 66.398438 276.671875 67.925781 257.210938 70.640625 225.375 C 71.078125 220.222656 71.511719 215.113281 71.910156 210.273438 C 72.605469 201.800781 72.921875 193.945312 73.148438 188.210938 C 73.242188 185.847656 73.324219 183.835938 73.410156 182.335938 C 63.039062 192.382812 68.9375 202.332031 71.0625 205.21875 C 71.664062 206.035156 71.667969 207.132812 71.074219 207.949219 L 65.464844 215.679688 C 64.71875 216.707031 63.273438 216.9375 62.246094 216.195312 C 59.886719 214.492188 54.367188 210.503906 50.007812 201.488281 C 47.667969 196.640625 46.566406 191.070312 46.542969 189.769531 C 46.363281 179.277344 51.691406 169.902344 61.945312 162.652344 C 69.640625 157.210938 77.507812 154.835938 77.585938 154.816406 C 77.832031 154.742188 78.097656 154.828125 78.253906 155.027344 C 83.664062 161.957031 93.097656 174.785156 95.492188 182.878906 C 98.28125 192.304688 96.339844 252.09375 95.375 277.367188 C 95.363281 277.636719 95.179688 277.875 94.914062 277.945312 C 94.046875 278.179688 93.214844 278.445312 92.335938 278.722656 C 89.613281 279.589844 86.523438 280.570312 80.875 281.191406 C 79.675781 281.324219 78.523438 281.390625 77.429688 281.390625 " fill-opacity="1" fill-rule="nonzero"/><path fill="#ffffff" d="M 69.882812 208.625 L 72.597656 212.382812 C 73.363281 213.441406 74.902344 213.550781 75.808594 212.605469 L 77.15625 211.195312 C 78.066406 210.238281 79.488281 208.867188 80.804688 208.820312 C 80.804688 208.820312 91.21875 208.945312 89.726562 214.703125 C 89.351562 215.304688 88.707031 215.679688 88 215.707031 C 86.824219 215.75 84.996094 215.851562 83.875 216.074219 C 82.117188 216.425781 82.117188 216.425781 82.117188 216.425781 C 82.117188 216.425781 80.269531 217.09375 78.933594 218.097656 C 77.601562 219.101562 75.585938 220.101562 73.175781 220.019531 C 71.824219 219.972656 65.136719 215.1875 65.136719 215.1875 L 69.882812 208.625 " fill-opacity="1" fill-rule="nonzero"/><path fill="#000000" d="M 66.011719 215.042969 C 69.039062 217.179688 72.511719 219.367188 73.199219 219.394531 C 75.664062 219.476562 77.617188 218.304688 78.558594 217.597656 C 79.953125 216.546875 81.828125 215.867188 81.90625 215.839844 C 81.9375 215.828125 81.964844 215.820312 81.996094 215.816406 L 83.753906 215.460938 C 84.886719 215.234375 86.675781 215.128906 87.976562 215.082031 C 88.445312 215.066406 88.878906 214.832031 89.148438 214.449219 C 89.371094 213.496094 89.230469 212.703125 88.710938 212.023438 C 86.824219 209.550781 80.859375 209.445312 80.796875 209.445312 C 79.652344 209.484375 78.164062 211.039062 77.605469 211.625 L 76.257812 213.035156 C 75.699219 213.621094 74.914062 213.925781 74.105469 213.867188 C 73.300781 213.8125 72.566406 213.40625 72.089844 212.746094 L 69.882812 209.691406 Z M 73.453125 220.648438 C 73.355469 220.648438 73.253906 220.644531 73.15625 220.640625 C 71.726562 220.59375 66.378906 216.84375 64.773438 215.695312 C 64.636719 215.601562 64.546875 215.453125 64.519531 215.289062 C 64.492188 215.125 64.535156 214.957031 64.632812 214.820312 L 69.378906 208.257812 C 69.496094 208.097656 69.683594 208 69.882812 208 C 70.085938 208 70.273438 208.097656 70.390625 208.257812 L 73.101562 212.015625 C 73.359375 212.371094 73.757812 212.59375 74.191406 212.625 C 74.628906 212.652344 75.054688 212.488281 75.355469 212.171875 L 76.703125 210.761719 C 77.820312 209.59375 79.292969 208.25 80.785156 208.199219 C 81.082031 208.203125 87.445312 208.308594 89.699219 211.265625 C 90.472656 212.277344 90.6875 213.488281 90.332031 214.859375 C 90.316406 214.921875 90.292969 214.980469 90.257812 215.035156 C 89.769531 215.8125 88.9375 216.296875 88.023438 216.332031 C 86.996094 216.367188 85.105469 216.464844 83.996094 216.6875 L 82.289062 217.03125 C 82.015625 217.132812 80.445312 217.742188 79.308594 218.597656 C 78.273438 219.375 76.167969 220.648438 73.453125 220.648438 " fill-opacity="1" fill-rule="nonzero"/><path fill="#ffffff" d="M 90.789062 131.464844 C 91.160156 131.628906 91.585938 131.417969 91.691406 131.019531 C 92.195312 129.125 94.03125 126.066406 96.363281 125.203125 C 99.355469 124.097656 103.015625 124.605469 104.089844 126.871094 C 105.03125 128.84375 104.535156 130.171875 107.121094 132.558594 C 107.371094 132.785156 107.238281 133.21875 106.996094 133.457031 L 105.734375 134.832031 C 105.464844 135.09375 105.308594 135.890625 105.316406 136.269531 C 105.351562 137.445312 105.523438 139.929688 105.164062 140.300781 C 104.460938 141.019531 100.535156 141.277344 100.535156 141.277344 L 98.78125 152.429688 C 98.714844 152.855469 99.011719 153.25 99.433594 153.300781 L 100.394531 153.496094 C 101.777344 153.777344 102.160156 155.585938 101 156.386719 C 99.222656 157.617188 96.238281 158.9375 91.453125 159.222656 C 88.644531 159.390625 86.167969 158.917969 84.324219 158.371094 C 82.972656 157.96875 82.691406 156.179688 83.839844 155.363281 C 87.078125 153.070312 91.859375 148.109375 91.734375 138.890625 C 91.730469 138.582031 91.5625 138.300781 91.296875 138.148438 C 90.285156 137.574219 87.53125 135.84375 87.703125 133.710938 C 87.882812 131.441406 89.496094 130.898438 90.789062 131.464844 " fill-opacity="1" fill-rule="nonzero"/><path fill="#000000" d="M 104.660156 139.9375 Z M 89.828125 131.878906 C 89.582031 131.878906 89.347656 131.941406 89.144531 132.0625 C 88.675781 132.34375 88.390625 132.929688 88.324219 133.761719 C 88.1875 135.46875 90.574219 137.019531 91.605469 137.605469 C 92.0625 137.867188 92.351562 138.355469 92.359375 138.878906 C 92.488281 148.542969 87.300781 153.671875 84.199219 155.875 C 83.855469 156.117188 83.695312 156.511719 83.761719 156.929688 C 83.828125 157.339844 84.105469 157.652344 84.503906 157.773438 C 86.804688 158.457031 89.128906 158.738281 91.414062 158.601562 C 96.199219 158.3125 99.074219 156.960938 100.644531 155.871094 C 100.972656 155.644531 101.121094 155.273438 101.042969 154.878906 C 100.960938 154.476562 100.671875 154.191406 100.269531 154.109375 L 99.328125 153.917969 C 98.96875 153.863281 98.648438 153.675781 98.429688 153.386719 C 98.203125 153.085938 98.109375 152.703125 98.167969 152.335938 L 99.917969 141.179688 C 99.964844 140.890625 100.203125 140.671875 100.496094 140.652344 C 102.367188 140.53125 104.269531 140.183594 104.675781 139.894531 C 104.820312 139.445312 104.75 137.683594 104.71875 136.917969 C 104.707031 136.683594 104.699219 136.472656 104.695312 136.289062 C 104.683594 135.84375 104.84375 134.828125 105.296875 134.382812 L 106.539062 133.03125 C 106.574219 132.996094 106.597656 132.964844 106.613281 132.933594 C 104.773438 131.210938 104.421875 129.953125 104.085938 128.738281 C 103.9375 128.203125 103.796875 127.699219 103.527344 127.136719 C 102.582031 125.144531 99.171875 124.832031 96.582031 125.789062 C 94.515625 126.550781 92.761719 129.410156 92.292969 131.179688 C 92.195312 131.546875 91.945312 131.851562 91.605469 132.019531 C 91.269531 132.179688 90.878906 132.183594 90.535156 132.035156 C 90.300781 131.929688 90.058594 131.878906 89.828125 131.878906 Z M 90.285156 159.882812 C 88.242188 159.882812 86.183594 159.574219 84.148438 158.96875 C 83.296875 158.714844 82.675781 158.011719 82.53125 157.132812 C 82.386719 156.246094 82.75 155.375 83.480469 154.855469 C 86.382812 152.796875 91.234375 147.988281 91.109375 138.898438 C 91.109375 138.8125 91.0625 138.734375 90.988281 138.691406 C 89.449219 137.816406 86.894531 135.996094 87.082031 133.660156 C 87.207031 132.082031 87.925781 131.335938 88.503906 130.988281 C 89.246094 130.546875 90.167969 130.511719 91.039062 130.890625 C 91.046875 130.898438 91.054688 130.898438 91.0625 130.894531 C 91.621094 128.847656 93.542969 125.582031 96.148438 124.617188 C 99.242188 123.472656 103.375 123.90625 104.65625 126.601562 C 104.96875 127.261719 105.128906 127.84375 105.285156 128.402344 C 105.609375 129.570312 105.890625 130.574219 107.542969 132.097656 C 107.753906 132.292969 107.875 132.5625 107.878906 132.863281 C 107.882812 133.226562 107.714844 133.628906 107.433594 133.902344 L 106.195312 135.253906 C 106.078125 135.394531 105.933594 135.941406 105.941406 136.25 C 105.949219 136.429688 105.957031 136.640625 105.964844 136.867188 C 106.066406 139.347656 106.027344 140.304688 105.609375 140.734375 C 104.917969 141.445312 102.492188 141.746094 101.074219 141.863281 L 99.398438 152.527344 C 99.390625 152.574219 99.410156 152.609375 99.425781 152.632812 C 99.4375 152.652344 99.464844 152.675781 99.507812 152.679688 C 99.523438 152.683594 99.542969 152.6875 99.558594 152.6875 L 100.519531 152.886719 C 101.414062 153.066406 102.082031 153.734375 102.261719 154.632812 C 102.445312 155.515625 102.097656 156.386719 101.355469 156.898438 C 99.652344 158.078125 96.558594 159.542969 91.492188 159.847656 C 91.089844 159.871094 90.6875 159.882812 90.285156 159.882812 " fill-opacity="1" fill-rule="nonzero"/></svg>