<svg xmlns="http://www.w3.org/2000/svg" xmlns:xlink="http://www.w3.org/1999/xlink" width="500" zoomAndPan="magnify" viewBox="0 0 375 374.999991" height="500" preserveAspectRatio="xMidYMid meet" version="1.0"><defs><clipPath id="c6a768d3c8"><path d="M 33 25.699219 L 368 25.699219 L 368 361 L 33 361 Z M 33 25.699219 " clip-rule="nonzero"/></clipPath></defs><g clip-path="url(#c6a768d3c8)"><path fill="#caddff" d="M 230.269531 25.726562 C 219.332031 25.707031 119.550781 27.230469 65.027344 109.53125 C 36.003906 153.335938 0.0859375 251.375 91.550781 315.617188 C 150.582031 357.078125 256.265625 380.464844 308.636719 339.683594 C 349.6875 307.714844 356.523438 256.949219 362.703125 205.21875 C 368.765625 154.449219 374.914062 103.011719 342.65625 65.125 C 309.21875 25.847656 255.46875 25.765625 230.269531 25.726562 " fill-opacity="1" fill-rule="nonzero"/></g><path fill="#99b9ff" d="M 252.582031 327.503906 C 246.519531 327.503906 240.703125 325.097656 236.417969 320.808594 L 229.261719 313.648438 C 224.972656 309.359375 219.15625 306.949219 213.09375 306.949219 L 80.214844 306.949219 C 83.753906 309.898438 87.527344 312.792969 91.550781 315.617188 C 150.582031 357.078125 256.269531 380.464844 308.636719 339.679688 C 313.519531 335.878906 317.914062 331.808594 321.882812 327.503906 L 252.582031 327.503906 " fill-opacity="1" fill-rule="nonzero"/><path fill="#5479f7" d="M 358.085938 278.78125 L 42.023438 278.78125 C 36.738281 278.78125 32.453125 274.496094 32.453125 269.203125 L 32.453125 35.671875 C 32.453125 30.378906 36.738281 26.09375 42.023438 26.09375 L 358.085938 26.09375 C 363.375 26.09375 367.660156 30.378906 367.660156 35.671875 L 367.660156 269.203125 C 367.660156 274.496094 363.375 278.78125 358.085938 278.78125 " fill-opacity="1" fill-rule="nonzero"/><path fill="#ffffff" d="M 358.042969 271.976562 L 42.066406 271.976562 C 40.449219 271.976562 39.136719 270.664062 39.136719 269.046875 L 39.136719 35.832031 C 39.136719 34.210938 40.449219 32.902344 42.066406 32.902344 L 358.042969 32.902344 C 359.660156 32.902344 360.972656 34.210938 360.972656 35.832031 L 360.972656 269.046875 C 360.972656 270.664062 359.660156 271.976562 358.042969 271.976562 " fill-opacity="1" fill-rule="nonzero"/><path fill="#caddff" d="M 268.273438 100.996094 L 67.121094 100.996094 C 66.449219 100.996094 65.90625 100.453125 65.90625 99.785156 C 65.90625 99.113281 66.449219 98.570312 67.121094 98.570312 L 268.273438 98.570312 C 268.945312 98.570312 269.488281 99.113281 269.488281 99.785156 C 269.488281 100.453125 268.945312 100.996094 268.273438 100.996094 " fill-opacity="1" fill-rule="nonzero"/><path fill="#caddff" d="M 269.066406 94.675781 L 104.886719 94.675781 C 100.171875 94.675781 96.335938 90.835938 96.335938 86.121094 L 96.335938 39.296875 C 96.335938 38.628906 96.878906 38.082031 97.550781 38.082031 C 98.21875 38.082031 98.761719 38.628906 98.761719 39.296875 L 98.761719 86.121094 C 98.761719 89.5 101.511719 92.246094 104.886719 92.246094 L 269.066406 92.246094 C 269.734375 92.246094 270.277344 92.789062 270.277344 93.460938 C 270.277344 94.128906 269.734375 94.675781 269.066406 94.675781 " fill-opacity="1" fill-rule="nonzero"/><path fill="#5479f7" d="M 214.246094 247.054688 C 213.578125 247.054688 213.035156 246.511719 213.035156 245.84375 L 213.035156 211.378906 C 213.035156 207.375 211.476562 203.609375 208.644531 200.777344 L 193.074219 185.199219 C 189.785156 181.910156 187.972656 177.535156 187.972656 172.878906 L 187.972656 84.167969 C 187.972656 80.214844 191.1875 77 195.140625 77 L 207.335938 77 C 210.578125 77 213.21875 74.355469 213.21875 71.113281 L 213.21875 43.441406 C 213.21875 42.769531 213.757812 42.226562 214.429688 42.226562 C 215.101562 42.226562 215.644531 42.769531 215.644531 43.441406 L 215.644531 71.113281 C 215.644531 75.695312 211.917969 79.425781 207.335938 79.425781 L 195.140625 79.425781 C 192.527344 79.425781 190.398438 81.554688 190.398438 84.167969 L 190.398438 172.878906 C 190.398438 176.886719 191.960938 180.652344 194.789062 183.484375 L 210.359375 199.058594 C 213.648438 202.351562 215.460938 206.726562 215.460938 211.378906 L 215.460938 245.84375 C 215.460938 246.511719 214.917969 247.054688 214.246094 247.054688 " fill-opacity="1" fill-rule="nonzero"/><path fill="#99b9ff" d="M 150.40625 245.140625 C 149.734375 245.140625 149.191406 244.597656 149.191406 243.925781 L 149.191406 202.25 C 149.191406 197.386719 151.085938 192.816406 154.523438 189.375 L 180.765625 163.121094 C 181.71875 162.171875 182.242188 160.90625 182.242188 159.558594 L 182.242188 78.605469 C 182.242188 74.488281 185.589844 71.140625 189.703125 71.140625 L 271.433594 71.140625 C 272.101562 71.140625 272.648438 71.683594 272.648438 72.355469 C 272.648438 73.027344 272.101562 73.570312 271.433594 73.570312 L 189.703125 73.570312 C 186.925781 73.570312 184.667969 75.828125 184.667969 78.605469 L 184.667969 159.558594 C 184.667969 161.554688 183.890625 163.425781 182.480469 164.839844 L 156.238281 191.089844 C 153.257812 194.070312 151.617188 198.035156 151.617188 202.25 L 151.617188 243.925781 C 151.617188 244.597656 151.074219 245.140625 150.40625 245.140625 " fill-opacity="1" fill-rule="nonzero"/><path fill="#000000" d="M 191.519531 119.929688 L 67.121094 119.929688 C 66.449219 119.929688 65.90625 119.386719 65.90625 118.714844 C 65.90625 118.046875 66.449219 117.5 67.121094 117.5 L 191.519531 117.5 C 192.859375 117.5 193.949219 116.414062 193.949219 115.070312 L 193.949219 89.417969 C 193.949219 86.742188 196.128906 84.5625 198.804688 84.5625 L 223.714844 84.5625 C 226.394531 84.5625 228.570312 86.742188 228.570312 89.417969 L 228.570312 114.828125 C 228.570312 116.167969 229.660156 117.257812 231 117.257812 L 271.4375 117.257812 C 272.105469 117.257812 272.648438 117.800781 272.648438 118.472656 C 272.648438 119.140625 272.105469 119.683594 271.4375 119.683594 L 231 119.683594 C 228.324219 119.683594 226.144531 117.507812 226.144531 114.828125 L 226.144531 89.417969 C 226.144531 88.078125 225.054688 86.988281 223.714844 86.988281 L 198.804688 86.988281 C 197.464844 86.988281 196.375 88.078125 196.375 89.417969 L 196.375 115.070312 C 196.375 117.75 194.199219 119.929688 191.519531 119.929688 " fill-opacity="1" fill-rule="nonzero"/><path fill="#5479f7" d="M 141.257812 245.035156 C 140.589844 245.035156 140.046875 244.496094 140.046875 243.824219 L 140.046875 143.128906 C 140.046875 139.226562 141.390625 135.402344 143.835938 132.359375 L 166.878906 103.683594 C 168.921875 101.144531 170.046875 97.949219 170.046875 94.6875 L 170.046875 44.539062 C 170.046875 43.867188 170.589844 43.324219 171.257812 43.324219 C 171.929688 43.324219 172.472656 43.867188 172.472656 44.539062 L 172.472656 94.6875 C 172.472656 98.5 171.15625 102.234375 168.769531 105.207031 L 145.726562 133.878906 C 143.628906 136.492188 142.472656 139.777344 142.472656 143.128906 L 142.472656 243.824219 C 142.472656 244.496094 141.929688 245.035156 141.257812 245.035156 " fill-opacity="1" fill-rule="nonzero"/><path fill="#000000" d="M 247.722656 194.601562 C 245.082031 194.601562 242.441406 193.59375 240.429688 191.582031 L 200.535156 151.671875 C 198.316406 149.457031 195.371094 148.234375 192.242188 148.234375 L 134.828125 148.234375 C 134.160156 148.234375 133.617188 147.691406 133.617188 147.019531 C 133.617188 146.351562 134.160156 145.804688 134.828125 145.804688 L 192.242188 145.804688 C 196.023438 145.804688 199.574219 147.28125 202.25 149.953125 L 242.144531 189.867188 C 245.222656 192.945312 250.226562 192.945312 253.300781 189.867188 L 275.578125 167.582031 C 276.054688 167.109375 276.820312 167.109375 277.292969 167.582031 C 277.769531 168.058594 277.769531 168.824219 277.292969 169.300781 L 255.019531 191.582031 C 253.007812 193.59375 250.367188 194.601562 247.722656 194.601562 " fill-opacity="1" fill-rule="nonzero"/><path fill="#99b9ff" d="M 272.621094 188.769531 C 272.308594 188.769531 272 188.648438 271.761719 188.410156 L 240.082031 156.722656 C 235.820312 152.453125 233.46875 146.777344 233.46875 140.742188 L 233.46875 63.824219 C 233.46875 62.523438 232.410156 61.464844 231.109375 61.464844 L 154.765625 61.464844 C 154.09375 61.464844 153.550781 60.921875 153.550781 60.253906 C 153.550781 59.582031 154.09375 59.039062 154.765625 59.039062 L 231.109375 59.039062 C 233.746094 59.039062 235.894531 61.1875 235.894531 63.824219 L 235.894531 140.742188 C 235.894531 146.132812 237.992188 151.195312 241.800781 155.007812 L 273.476562 186.695312 C 273.953125 187.167969 273.953125 187.9375 273.476562 188.410156 C 273.242188 188.648438 272.929688 188.769531 272.621094 188.769531 " fill-opacity="1" fill-rule="nonzero"/><path fill="#99b9ff" d="M 117.003906 61.464844 L 67.121094 61.464844 C 66.449219 61.464844 65.90625 60.921875 65.90625 60.253906 C 65.90625 59.582031 66.449219 59.039062 67.121094 59.039062 L 117.003906 59.039062 C 117.671875 59.039062 118.214844 59.582031 118.214844 60.253906 C 118.214844 60.921875 117.671875 61.464844 117.003906 61.464844 " fill-opacity="1" fill-rule="nonzero"/><path fill="#5479f7" d="M 241.53125 249.652344 C 240.859375 249.652344 240.316406 249.105469 240.316406 248.4375 L 240.316406 43.386719 C 240.316406 42.714844 240.859375 42.171875 241.53125 42.171875 C 242.199219 42.171875 242.742188 42.714844 242.742188 43.386719 L 242.742188 248.4375 C 242.742188 249.105469 242.199219 249.652344 241.53125 249.652344 " fill-opacity="1" fill-rule="nonzero"/><path fill="#99b9ff" d="M 271.433594 126.421875 L 127.453125 126.421875 C 126.78125 126.421875 126.238281 125.878906 126.238281 125.210938 C 126.238281 124.542969 126.78125 123.996094 127.453125 123.996094 L 271.433594 123.996094 C 272.105469 123.996094 272.648438 124.542969 272.648438 125.210938 C 272.648438 125.878906 272.105469 126.421875 271.433594 126.421875 " fill-opacity="1" fill-rule="nonzero"/><path fill="#ffffff" d="M 238.171875 118.148438 C 238.171875 116.292969 239.675781 114.789062 241.53125 114.789062 C 243.386719 114.789062 244.890625 116.292969 244.890625 118.148438 C 244.890625 120.003906 243.386719 121.507812 241.53125 121.507812 C 239.675781 121.507812 238.171875 120.003906 238.171875 118.148438 " fill-opacity="1" fill-rule="nonzero"/><path fill="#000000" d="M 241.53125 116 C 240.347656 116 239.386719 116.960938 239.386719 118.148438 C 239.386719 119.332031 240.347656 120.292969 241.53125 120.292969 C 242.714844 120.292969 243.679688 119.332031 243.679688 118.148438 C 243.679688 116.960938 242.714844 116 241.53125 116 Z M 241.53125 122.722656 C 239.011719 122.722656 236.957031 120.667969 236.957031 118.148438 C 236.957031 115.625 239.011719 113.574219 241.53125 113.574219 C 244.054688 113.574219 246.105469 115.625 246.105469 118.148438 C 246.105469 120.667969 244.054688 122.722656 241.53125 122.722656 " fill-opacity="1" fill-rule="nonzero"/><path fill="#ffffff" d="M 231.320312 118.148438 C 231.320312 116.292969 232.824219 114.789062 234.679688 114.789062 C 236.535156 114.789062 238.039062 116.292969 238.039062 118.148438 C 238.039062 120.003906 236.535156 121.507812 234.679688 121.507812 C 232.824219 121.507812 231.320312 120.003906 231.320312 118.148438 " fill-opacity="1" fill-rule="nonzero"/><path fill="#000000" d="M 234.683594 116 C 233.496094 116 232.535156 116.960938 232.535156 118.148438 C 232.535156 119.332031 233.496094 120.292969 234.683594 120.292969 C 235.863281 120.292969 236.828125 119.332031 236.828125 118.148438 C 236.828125 116.960938 235.863281 116 234.683594 116 Z M 234.683594 122.722656 C 232.160156 122.722656 230.109375 120.667969 230.109375 118.148438 C 230.109375 115.625 232.160156 113.574219 234.683594 113.574219 C 237.203125 113.574219 239.253906 115.625 239.253906 118.148438 C 239.253906 120.667969 237.203125 122.722656 234.683594 122.722656 " fill-opacity="1" fill-rule="nonzero"/><path fill="#ffffff" d="M 238.171875 72.460938 C 238.171875 70.605469 239.679688 69.101562 241.53125 69.101562 C 243.386719 69.101562 244.890625 70.605469 244.890625 72.460938 C 244.890625 74.316406 243.386719 75.824219 241.53125 75.824219 C 239.679688 75.824219 238.171875 74.316406 238.171875 72.460938 " fill-opacity="1" fill-rule="nonzero"/><path fill="#000000" d="M 241.53125 70.316406 C 240.347656 70.316406 239.382812 71.277344 239.382812 72.460938 C 239.382812 73.644531 240.347656 74.609375 241.53125 74.609375 C 242.714844 74.609375 243.675781 73.644531 243.675781 72.460938 C 243.675781 71.277344 242.714844 70.316406 241.53125 70.316406 Z M 241.53125 77.039062 C 239.011719 77.039062 236.957031 74.984375 236.957031 72.460938 C 236.957031 69.941406 239.011719 67.886719 241.53125 67.886719 C 244.050781 67.886719 246.105469 69.941406 246.105469 72.460938 C 246.105469 74.984375 244.050781 77.039062 241.53125 77.039062 " fill-opacity="1" fill-rule="nonzero"/><path fill="#ffffff" d="M 211.125 72.460938 C 211.125 70.605469 212.628906 69.101562 214.484375 69.101562 C 216.339844 69.101562 217.84375 70.605469 217.84375 72.460938 C 217.84375 74.316406 216.339844 75.824219 214.484375 75.824219 C 212.628906 75.824219 211.125 74.316406 211.125 72.460938 " fill-opacity="1" fill-rule="nonzero"/><path fill="#000000" d="M 214.484375 70.316406 C 213.300781 70.316406 212.335938 71.277344 212.335938 72.460938 C 212.335938 73.644531 213.300781 74.609375 214.484375 74.609375 C 215.664062 74.609375 216.628906 73.644531 216.628906 72.460938 C 216.628906 71.277344 215.664062 70.316406 214.484375 70.316406 Z M 214.484375 77.039062 C 211.960938 77.039062 209.910156 74.984375 209.910156 72.460938 C 209.910156 69.941406 211.960938 67.886719 214.484375 67.886719 C 217.003906 67.886719 219.058594 69.941406 219.058594 72.460938 C 219.058594 74.984375 217.003906 77.039062 214.484375 77.039062 " fill-opacity="1" fill-rule="nonzero"/><path fill="#ffffff" d="M 261.355469 179.644531 C 261.355469 177.789062 262.859375 176.285156 264.71875 176.285156 C 266.570312 176.285156 268.078125 177.789062 268.078125 179.644531 C 268.078125 181.503906 266.570312 183.007812 264.71875 183.007812 C 262.859375 183.007812 261.355469 181.503906 261.355469 179.644531 " fill-opacity="1" fill-rule="nonzero"/><path fill="#000000" d="M 264.71875 177.5 C 263.53125 177.5 262.570312 178.460938 262.570312 179.644531 C 262.570312 180.832031 263.53125 181.792969 264.71875 181.792969 C 265.898438 181.792969 266.863281 180.832031 266.863281 179.644531 C 266.863281 178.460938 265.898438 177.5 264.71875 177.5 Z M 264.71875 184.21875 C 262.195312 184.21875 260.144531 182.167969 260.144531 179.644531 C 260.144531 177.125 262.195312 175.074219 264.71875 175.074219 C 267.238281 175.074219 269.289062 177.125 269.289062 179.644531 C 269.289062 182.167969 267.238281 184.21875 264.71875 184.21875 " fill-opacity="1" fill-rule="nonzero"/><path fill="#ffffff" d="M 211.125 60.339844 C 211.125 58.484375 212.625 56.976562 214.484375 56.976562 C 216.335938 56.976562 217.84375 58.484375 217.84375 60.339844 C 217.84375 62.195312 216.335938 63.699219 214.484375 63.699219 C 212.625 63.699219 211.125 62.195312 211.125 60.339844 " fill-opacity="1" fill-rule="nonzero"/><path fill="#000000" d="M 214.484375 58.191406 C 213.300781 58.191406 212.339844 59.152344 212.339844 60.339844 C 212.339844 61.519531 213.300781 62.484375 214.484375 62.484375 C 215.667969 62.484375 216.628906 61.519531 216.628906 60.339844 C 216.628906 59.152344 215.667969 58.191406 214.484375 58.191406 Z M 214.484375 64.914062 C 211.960938 64.914062 209.910156 62.859375 209.910156 60.339844 C 209.910156 57.816406 211.960938 55.765625 214.484375 55.765625 C 217.003906 55.765625 219.058594 57.816406 219.058594 60.339844 C 219.058594 62.859375 217.003906 64.914062 214.484375 64.914062 " fill-opacity="1" fill-rule="nonzero"/><path fill="#ffffff" d="M 167.894531 60.339844 C 167.894531 58.484375 169.398438 56.976562 171.25 56.976562 C 173.109375 56.976562 174.613281 58.484375 174.613281 60.339844 C 174.613281 62.195312 173.109375 63.699219 171.25 63.699219 C 169.398438 63.699219 167.894531 62.195312 167.894531 60.339844 " fill-opacity="1" fill-rule="nonzero"/><path fill="#000000" d="M 171.253906 58.191406 C 170.070312 58.191406 169.105469 59.152344 169.105469 60.339844 C 169.105469 61.519531 170.070312 62.484375 171.253906 62.484375 C 172.4375 62.484375 173.398438 61.519531 173.398438 60.339844 C 173.398438 59.152344 172.4375 58.191406 171.253906 58.191406 Z M 171.253906 64.914062 C 168.730469 64.914062 166.679688 62.859375 166.679688 60.339844 C 166.679688 57.816406 168.730469 55.765625 171.253906 55.765625 C 173.773438 55.765625 175.824219 57.816406 175.824219 60.339844 C 175.824219 62.859375 173.773438 64.914062 171.253906 64.914062 " fill-opacity="1" fill-rule="nonzero"/><path fill="#ffffff" d="M 94.585938 60.339844 C 94.585938 58.484375 96.089844 56.976562 97.945312 56.976562 C 99.800781 56.976562 101.304688 58.484375 101.304688 60.339844 C 101.304688 62.195312 99.800781 63.699219 97.945312 63.699219 C 96.089844 63.699219 94.585938 62.195312 94.585938 60.339844 " fill-opacity="1" fill-rule="nonzero"/><path fill="#000000" d="M 97.945312 58.191406 C 96.761719 58.191406 95.800781 59.152344 95.800781 60.339844 C 95.800781 61.519531 96.761719 62.484375 97.945312 62.484375 C 99.128906 62.484375 100.09375 61.519531 100.09375 60.339844 C 100.09375 59.152344 99.128906 58.191406 97.945312 58.191406 Z M 97.945312 64.914062 C 95.425781 64.914062 93.371094 62.859375 93.371094 60.339844 C 93.371094 57.816406 95.425781 55.765625 97.945312 55.765625 C 100.464844 55.765625 102.515625 57.816406 102.515625 60.339844 C 102.515625 62.859375 100.464844 64.914062 97.945312 64.914062 " fill-opacity="1" fill-rule="nonzero"/><path fill="#ffffff" d="M 132.964844 92.929688 C 132.964844 91.074219 134.46875 89.570312 136.324219 89.570312 C 138.179688 89.570312 139.683594 91.074219 139.683594 92.929688 C 139.683594 94.785156 138.179688 96.292969 136.324219 96.292969 C 134.46875 96.292969 132.964844 94.785156 132.964844 92.929688 " fill-opacity="1" fill-rule="nonzero"/><path fill="#000000" d="M 136.320312 90.785156 C 135.140625 90.785156 134.175781 91.75 134.175781 92.933594 C 134.175781 94.117188 135.140625 95.082031 136.320312 95.082031 C 137.503906 95.082031 138.46875 94.117188 138.46875 92.933594 C 138.46875 91.75 137.503906 90.785156 136.320312 90.785156 Z M 136.320312 97.507812 C 133.800781 97.507812 131.75 95.457031 131.75 92.933594 C 131.75 90.410156 133.800781 88.359375 136.320312 88.359375 C 138.84375 88.359375 140.894531 90.410156 140.894531 92.933594 C 140.894531 95.457031 138.84375 97.507812 136.320312 97.507812 " fill-opacity="1" fill-rule="nonzero"/><path fill="#ffffff" d="M 231.324219 72.460938 C 231.324219 70.605469 232.828125 69.101562 234.683594 69.101562 C 236.539062 69.101562 238.042969 70.605469 238.042969 72.460938 C 238.042969 74.316406 236.539062 75.824219 234.683594 75.824219 C 232.828125 75.824219 231.324219 74.316406 231.324219 72.460938 " fill-opacity="1" fill-rule="nonzero"/><path fill="#000000" d="M 234.683594 70.316406 C 233.496094 70.316406 232.535156 71.277344 232.535156 72.460938 C 232.535156 73.644531 233.496094 74.609375 234.683594 74.609375 C 235.863281 74.609375 236.828125 73.644531 236.828125 72.460938 C 236.828125 71.277344 235.863281 70.316406 234.683594 70.316406 Z M 234.683594 77.039062 C 232.160156 77.039062 230.109375 74.984375 230.109375 72.460938 C 230.109375 69.941406 232.160156 67.886719 234.683594 67.886719 C 237.203125 67.886719 239.253906 69.941406 239.253906 72.460938 C 239.253906 74.984375 237.203125 77.039062 234.683594 77.039062 " fill-opacity="1" fill-rule="nonzero"/><path fill="#ffffff" d="M 186.402344 118.148438 C 186.402344 116.292969 187.90625 114.789062 189.761719 114.789062 C 191.617188 114.789062 193.121094 116.292969 193.121094 118.148438 C 193.121094 120.003906 191.617188 121.507812 189.761719 121.507812 C 187.90625 121.507812 186.402344 120.003906 186.402344 118.148438 " fill-opacity="1" fill-rule="nonzero"/><path fill="#000000" d="M 189.761719 116 C 188.578125 116 187.613281 116.960938 187.613281 118.148438 C 187.613281 119.332031 188.578125 120.292969 189.761719 120.292969 C 190.945312 120.292969 191.90625 119.332031 191.90625 118.148438 C 191.90625 116.960938 190.945312 116 189.761719 116 Z M 189.761719 122.722656 C 187.238281 122.722656 185.191406 120.667969 185.191406 118.148438 C 185.191406 115.625 187.238281 113.574219 189.761719 113.574219 C 192.285156 113.574219 194.332031 115.625 194.332031 118.148438 C 194.332031 120.667969 192.285156 122.722656 189.761719 122.722656 " fill-opacity="1" fill-rule="nonzero"/><path fill="#ffffff" d="M 210.773438 217.996094 C 210.773438 216.136719 212.277344 214.632812 214.132812 214.632812 C 215.988281 214.632812 217.492188 216.136719 217.492188 217.996094 C 217.492188 219.851562 215.988281 221.355469 214.132812 221.355469 C 212.277344 221.355469 210.773438 219.851562 210.773438 217.996094 " fill-opacity="1" fill-rule="nonzero"/><path fill="#000000" d="M 214.132812 215.847656 C 212.949219 215.847656 211.984375 216.808594 211.984375 217.996094 C 211.984375 219.179688 212.949219 220.140625 214.132812 220.140625 C 215.316406 220.140625 216.277344 219.179688 216.277344 217.996094 C 216.277344 216.808594 215.316406 215.847656 214.132812 215.847656 Z M 214.132812 222.570312 C 211.609375 222.570312 209.558594 220.515625 209.558594 217.996094 C 209.558594 215.472656 211.609375 213.421875 214.132812 213.421875 C 216.652344 213.421875 218.703125 215.472656 218.703125 217.996094 C 218.703125 220.515625 216.652344 222.570312 214.132812 222.570312 " fill-opacity="1" fill-rule="nonzero"/><path fill="#ffffff" d="M 179.550781 118.148438 C 179.550781 116.292969 181.054688 114.789062 182.910156 114.789062 C 184.765625 114.789062 186.269531 116.292969 186.269531 118.148438 C 186.269531 120.003906 184.765625 121.507812 182.910156 121.507812 C 181.054688 121.507812 179.550781 120.003906 179.550781 118.148438 " fill-opacity="1" fill-rule="nonzero"/><path fill="#000000" d="M 182.910156 116 C 181.726562 116 180.765625 116.960938 180.765625 118.148438 C 180.765625 119.332031 181.726562 120.292969 182.910156 120.292969 C 184.097656 120.292969 185.058594 119.332031 185.058594 118.148438 C 185.058594 116.960938 184.097656 116 182.910156 116 Z M 182.910156 122.722656 C 180.390625 122.722656 178.339844 120.667969 178.339844 118.148438 C 178.339844 115.625 180.390625 113.574219 182.910156 113.574219 C 185.433594 113.574219 187.484375 115.625 187.484375 118.148438 C 187.484375 120.667969 185.433594 122.722656 182.910156 122.722656 " fill-opacity="1" fill-rule="nonzero"/><path fill="#ffffff" d="M 186.402344 146.878906 C 186.402344 145.019531 187.90625 143.515625 189.761719 143.515625 C 191.617188 143.515625 193.121094 145.019531 193.121094 146.878906 C 193.121094 148.730469 191.617188 150.238281 189.761719 150.238281 C 187.90625 150.238281 186.402344 148.730469 186.402344 146.878906 " fill-opacity="1" fill-rule="nonzero"/><path fill="#000000" d="M 189.761719 144.730469 C 188.578125 144.730469 187.617188 145.691406 187.617188 146.878906 C 187.617188 148.058594 188.578125 149.023438 189.761719 149.023438 C 190.945312 149.023438 191.90625 148.058594 191.90625 146.878906 C 191.90625 145.691406 190.945312 144.730469 189.761719 144.730469 Z M 189.761719 151.449219 C 187.238281 151.449219 185.191406 149.398438 185.191406 146.878906 C 185.191406 144.351562 187.238281 142.300781 189.761719 142.300781 C 192.285156 142.300781 194.332031 144.351562 194.332031 146.878906 C 194.332031 149.398438 192.285156 151.449219 189.761719 151.449219 " fill-opacity="1" fill-rule="nonzero"/><path fill="#ffffff" d="M 179.550781 146.878906 C 179.550781 145.019531 181.054688 143.515625 182.910156 143.515625 C 184.765625 143.515625 186.273438 145.019531 186.273438 146.878906 C 186.273438 148.730469 184.765625 150.238281 182.910156 150.238281 C 181.054688 150.238281 179.550781 148.730469 179.550781 146.878906 " fill-opacity="1" fill-rule="nonzero"/><path fill="#000000" d="M 182.910156 144.730469 C 181.726562 144.730469 180.765625 145.691406 180.765625 146.878906 C 180.765625 148.058594 181.726562 149.023438 182.910156 149.023438 C 184.09375 149.023438 185.058594 148.058594 185.058594 146.878906 C 185.058594 145.691406 184.09375 144.730469 182.910156 144.730469 Z M 182.910156 151.449219 C 180.390625 151.449219 178.339844 149.398438 178.339844 146.878906 C 178.339844 144.351562 180.390625 142.300781 182.910156 142.300781 C 185.433594 142.300781 187.484375 144.351562 187.484375 146.878906 C 187.484375 149.398438 185.433594 151.449219 182.910156 151.449219 " fill-opacity="1" fill-rule="nonzero"/><path fill="#5479f7" d="M 136.324219 43.695312 C 128.605469 43.695312 122.351562 49.933594 122.351562 57.632812 C 122.351562 59.558594 123.222656 62.25 124.535156 65.203125 C 127.835938 72.648438 133.910156 81.769531 135.769531 84.496094 C 136.035156 84.886719 136.609375 84.886719 136.875 84.496094 C 139.46875 80.691406 150.296875 64.410156 150.296875 57.632812 C 150.296875 49.933594 144.039062 43.695312 136.324219 43.695312 " fill-opacity="1" fill-rule="nonzero"/><path fill="#ffffff" d="M 143.886719 57.910156 C 143.886719 62.078125 140.5 65.457031 136.320312 65.457031 C 132.144531 65.457031 128.757812 62.078125 128.757812 57.910156 C 128.757812 53.742188 132.144531 50.363281 136.320312 50.363281 C 140.5 50.363281 143.886719 53.742188 143.886719 57.910156 " fill-opacity="1" fill-rule="nonzero"/><path fill="#caddff" d="M 283.585938 148.109375 C 283.585938 130.414062 297.925781 116.0625 315.621094 116.0625 C 333.3125 116.0625 347.652344 130.414062 347.652344 148.109375 C 347.652344 165.8125 333.3125 180.160156 315.621094 180.160156 C 297.925781 180.160156 283.585938 165.8125 283.585938 148.109375 " fill-opacity="1" fill-rule="nonzero"/><path fill="#ffffff" d="M 307.464844 167.648438 L 304.496094 167.648438 C 304.136719 167.648438 303.847656 167.359375 303.847656 167 L 303.847656 159.949219 C 303.847656 159.589844 304.136719 159.300781 304.496094 159.300781 L 307.464844 159.300781 C 307.824219 159.300781 308.117188 159.589844 308.117188 159.949219 L 308.117188 167 C 308.117188 167.359375 307.824219 167.648438 307.464844 167.648438 " fill-opacity="1" fill-rule="nonzero"/><path fill="#000000" d="M 305.28125 159.902344 C 304.828125 159.902344 304.457031 160.277344 304.457031 160.734375 L 304.457031 166.210938 C 304.457031 166.671875 304.828125 167.042969 305.28125 167.042969 L 306.683594 167.042969 C 307.140625 167.042969 307.511719 166.671875 307.511719 166.210938 L 307.511719 160.734375 C 307.511719 160.277344 307.140625 159.902344 306.683594 159.902344 Z M 306.683594 168.253906 L 305.28125 168.253906 C 304.160156 168.253906 303.242188 167.339844 303.242188 166.210938 L 303.242188 160.734375 C 303.242188 159.609375 304.160156 158.691406 305.28125 158.691406 L 306.683594 158.691406 C 307.808594 158.691406 308.726562 159.609375 308.726562 160.734375 L 308.726562 166.210938 C 308.726562 167.339844 307.808594 168.253906 306.683594 168.253906 " fill-opacity="1" fill-rule="nonzero"/><path fill="#ffffff" d="M 326.738281 167.648438 L 323.769531 167.648438 C 323.410156 167.648438 323.117188 167.355469 323.117188 167 L 323.117188 159.949219 C 323.117188 159.589844 323.410156 159.296875 323.769531 159.296875 L 326.738281 159.296875 C 327.097656 159.296875 327.386719 159.589844 327.386719 159.949219 L 327.386719 167 C 327.386719 167.355469 327.097656 167.648438 326.738281 167.648438 " fill-opacity="1" fill-rule="nonzero"/><path fill="#000000" d="M 324.554688 159.90625 C 324.09375 159.90625 323.726562 160.277344 323.726562 160.734375 L 323.726562 166.210938 C 323.726562 166.671875 324.09375 167.042969 324.554688 167.042969 L 325.953125 167.042969 C 326.410156 167.042969 326.78125 166.671875 326.78125 166.210938 L 326.78125 160.734375 C 326.78125 160.277344 326.410156 159.90625 325.953125 159.90625 Z M 325.953125 168.253906 L 324.554688 168.253906 C 323.429688 168.253906 322.511719 167.339844 322.511719 166.210938 L 322.511719 160.734375 C 322.511719 159.609375 323.429688 158.691406 324.554688 158.691406 L 325.953125 158.691406 C 327.078125 158.691406 327.992188 159.609375 327.992188 160.734375 L 327.992188 166.210938 C 327.992188 167.339844 327.078125 168.253906 325.953125 168.253906 " fill-opacity="1" fill-rule="nonzero"/><path fill="#ffffff" d="M 327.980469 161.808594 L 303.257812 161.808594 C 302.167969 161.808594 301.28125 160.921875 301.28125 159.828125 L 301.28125 133.179688 C 301.28125 130.503906 303.445312 128.339844 306.121094 128.339844 L 325.445312 128.339844 C 327.9375 128.339844 329.957031 130.359375 329.957031 132.851562 L 329.957031 159.828125 C 329.957031 160.921875 329.070312 161.808594 327.980469 161.808594 " fill-opacity="1" fill-rule="nonzero"/><path fill="#000000" d="M 306.117188 128.945312 C 303.785156 128.945312 301.886719 130.84375 301.886719 133.179688 L 301.886719 159.828125 C 301.886719 160.585938 302.503906 161.203125 303.257812 161.203125 L 327.976562 161.203125 C 328.734375 161.203125 329.347656 160.585938 329.347656 159.828125 L 329.347656 132.851562 C 329.347656 130.695312 327.597656 128.945312 325.445312 128.945312 Z M 327.976562 162.414062 L 303.257812 162.414062 C 301.832031 162.414062 300.671875 161.253906 300.671875 159.828125 L 300.671875 133.179688 C 300.671875 130.175781 303.117188 127.730469 306.117188 127.730469 L 325.445312 127.730469 C 328.269531 127.730469 330.5625 130.027344 330.5625 132.851562 L 330.5625 159.828125 C 330.5625 161.253906 329.40625 162.414062 327.976562 162.414062 " fill-opacity="1" fill-rule="nonzero"/><path fill="#ffffff" d="M 324.5 151.644531 L 306.734375 151.644531 C 305.554688 151.644531 304.601562 150.691406 304.601562 149.511719 L 304.601562 139.882812 C 304.601562 138.703125 305.554688 137.75 306.734375 137.75 L 324.5 137.75 C 325.679688 137.75 326.632812 138.703125 326.632812 139.882812 L 326.632812 149.511719 C 326.632812 150.691406 325.679688 151.644531 324.5 151.644531 " fill-opacity="1" fill-rule="nonzero"/><path fill="#000000" d="M 306.734375 138.355469 C 305.894531 138.355469 305.207031 139.039062 305.207031 139.882812 L 305.207031 149.511719 C 305.207031 150.351562 305.894531 151.039062 306.734375 151.039062 L 324.5 151.039062 C 325.34375 151.039062 326.027344 150.351562 326.027344 149.511719 L 326.027344 139.882812 C 326.027344 139.039062 325.34375 138.355469 324.5 138.355469 Z M 324.5 152.25 L 306.734375 152.25 C 305.222656 152.25 303.992188 151.019531 303.992188 149.511719 L 303.992188 139.882812 C 303.992188 138.371094 305.222656 137.140625 306.734375 137.140625 L 324.5 137.140625 C 326.011719 137.140625 327.242188 138.371094 327.242188 139.882812 L 327.242188 149.511719 C 327.242188 151.019531 326.011719 152.25 324.5 152.25 " fill-opacity="1" fill-rule="nonzero"/><path fill="#99b9ff" d="M 308.929688 156.875 C 308.929688 158.070312 307.957031 159.042969 306.757812 159.042969 C 305.5625 159.042969 304.589844 158.070312 304.589844 156.875 C 304.589844 155.675781 305.5625 154.707031 306.757812 154.707031 C 307.957031 154.707031 308.929688 155.675781 308.929688 156.875 " fill-opacity="1" fill-rule="nonzero"/><path fill="#99b9ff" d="M 326.644531 156.875 C 326.644531 158.070312 325.675781 159.042969 324.476562 159.042969 C 323.28125 159.042969 322.308594 158.070312 322.308594 156.875 C 322.308594 155.675781 323.28125 154.703125 324.476562 154.703125 C 325.675781 154.703125 326.644531 155.675781 326.644531 156.875 " fill-opacity="1" fill-rule="nonzero"/><path fill="#5479f7" d="M 322.109375 133.71875 L 309.460938 133.71875 C 309.125 133.71875 308.855469 133.449219 308.855469 133.113281 C 308.855469 132.777344 309.125 132.507812 309.460938 132.507812 L 322.109375 132.507812 C 322.441406 132.507812 322.710938 132.777344 322.710938 133.113281 C 322.710938 133.449219 322.441406 133.71875 322.109375 133.71875 " fill-opacity="1" fill-rule="nonzero"/><path fill="#caddff" d="M 282.84375 78.53125 C 282.84375 60.832031 297.191406 46.484375 314.882812 46.484375 C 332.574219 46.484375 346.917969 60.832031 346.917969 78.53125 C 346.917969 96.230469 332.574219 110.578125 314.882812 110.578125 C 297.191406 110.578125 282.84375 96.230469 282.84375 78.53125 " fill-opacity="1" fill-rule="nonzero"/><path fill="#ffffff" d="M 334.0625 62.039062 L 334.027344 61.996094 C 332.28125 59.972656 328.117188 62.84375 328.117188 62.84375 L 320.59375 67.65625 L 313.371094 65.625 C 314.582031 64.191406 315.054688 62.699219 314.417969 61.921875 C 313.589844 60.914062 311.222656 61.496094 309.125 63.214844 C 308.761719 63.515625 308.425781 63.832031 308.128906 64.152344 L 307.359375 63.9375 C 304.339844 63.085938 301.089844 63.632812 298.507812 65.429688 L 313.140625 73.976562 L 302.144531 84.878906 L 298.25 83.742188 C 296.929688 83.359375 295.5 83.648438 294.4375 84.523438 L 294.433594 84.523438 L 301.378906 89.132812 L 304.234375 96.472656 C 305.300781 95.601562 305.863281 94.257812 305.742188 92.886719 L 305.394531 88.84375 L 318.230469 80.1875 L 323.75 96.210938 C 326.011719 94.03125 327.183594 90.953125 326.945312 87.816406 L 326.882812 87.023438 C 327.257812 86.792969 327.628906 86.53125 328 86.226562 C 330.09375 84.507812 331.125 82.296875 330.296875 81.292969 C 329.660156 80.515625 328.101562 80.683594 326.464844 81.589844 L 325.882812 74.109375 L 332.070312 67.671875 C 332.070312 67.671875 335.703125 64.144531 334.0625 62.039062 " fill-opacity="1" fill-rule="nonzero"/><path fill="#000000" d="M 295.546875 84.53125 L 301.714844 88.625 C 301.820312 88.695312 301.898438 88.792969 301.941406 88.910156 L 304.453125 95.367188 C 304.964844 94.675781 305.214844 93.8125 305.140625 92.9375 L 304.789062 88.894531 C 304.769531 88.675781 304.871094 88.464844 305.054688 88.339844 L 317.890625 79.683594 C 318.050781 79.578125 318.246094 79.554688 318.425781 79.613281 C 318.601562 79.671875 318.742188 79.8125 318.804688 79.988281 L 323.996094 95.066406 C 325.695312 93.078125 326.542969 90.503906 326.339844 87.863281 L 326.277344 87.070312 C 326.257812 86.84375 326.371094 86.625 326.5625 86.503906 C 326.925781 86.285156 327.277344 86.035156 327.613281 85.757812 C 328.554688 84.984375 329.296875 84.085938 329.695312 83.238281 C 330.015625 82.546875 330.066406 81.964844 329.832031 81.675781 C 329.484375 81.257812 328.292969 81.273438 326.757812 82.125 C 326.574219 82.222656 326.355469 82.222656 326.175781 82.125 C 325.992188 82.027344 325.871094 81.84375 325.855469 81.636719 L 325.28125 74.160156 C 325.269531 73.984375 325.328125 73.816406 325.449219 73.691406 L 331.636719 67.25 C 331.679688 67.203125 334.84375 64.042969 333.585938 62.414062 L 333.558594 62.378906 C 332.21875 60.824219 328.5 63.320312 328.460938 63.347656 L 320.921875 68.167969 C 320.773438 68.261719 320.59375 68.285156 320.429688 68.238281 L 313.210938 66.210938 C 313.007812 66.15625 312.851562 66.003906 312.792969 65.804688 C 312.730469 65.605469 312.777344 65.394531 312.90625 65.234375 C 314.042969 63.894531 314.289062 62.726562 313.949219 62.308594 C 313.484375 61.742188 311.574219 61.992188 309.511719 63.683594 C 309.179688 63.957031 308.863281 64.253906 308.574219 64.5625 C 308.417969 64.734375 308.183594 64.800781 307.964844 64.738281 L 307.199219 64.523438 C 304.652344 63.804688 301.960938 64.132812 299.679688 65.410156 L 313.445312 73.453125 C 313.609375 73.546875 313.71875 73.710938 313.738281 73.898438 C 313.761719 74.085938 313.699219 74.273438 313.566406 74.40625 L 302.570312 85.308594 C 302.414062 85.46875 302.183594 85.523438 301.972656 85.460938 L 298.082031 84.328125 C 297.230469 84.078125 296.328125 84.160156 295.546875 84.53125 Z M 304.234375 97.082031 C 304.183594 97.082031 304.132812 97.074219 304.082031 97.058594 C 303.894531 97.011719 303.742188 96.875 303.667969 96.691406 L 300.882812 89.53125 L 294.097656 85.027344 C 293.941406 84.921875 293.839844 84.746094 293.828125 84.554688 C 293.820312 84.359375 293.902344 84.175781 294.050781 84.054688 C 295.273438 83.054688 296.90625 82.71875 298.417969 83.164062 L 301.96875 84.199219 L 312.152344 74.101562 L 298.203125 65.953125 C 298.023438 65.847656 297.914062 65.660156 297.902344 65.453125 C 297.894531 65.246094 297.992188 65.046875 298.164062 64.929688 C 300.902344 63.027344 304.3125 62.449219 307.527344 63.351562 L 307.945312 63.472656 C 308.199219 63.21875 308.464844 62.972656 308.742188 62.746094 C 311.171875 60.75 313.8125 60.230469 314.886719 61.539062 C 315.601562 62.40625 315.402344 63.796875 314.394531 65.285156 L 320.496094 67 L 327.792969 62.335938 C 327.960938 62.21875 332.410156 59.191406 334.488281 61.597656 L 334.53125 61.652344 C 334.535156 61.65625 334.539062 61.660156 334.539062 61.664062 C 336.496094 64.171875 332.65625 67.945312 332.496094 68.105469 L 326.511719 74.335938 L 327 80.65625 C 328.652344 79.957031 330.050781 80.035156 330.765625 80.90625 C 331.324219 81.582031 331.332031 82.59375 330.792969 83.75 C 330.320312 84.761719 329.464844 85.808594 328.382812 86.695312 C 328.101562 86.925781 327.8125 87.140625 327.515625 87.339844 L 327.546875 87.769531 C 327.800781 91.097656 326.574219 94.332031 324.171875 96.648438 C 324.023438 96.792969 323.808594 96.851562 323.609375 96.800781 C 323.40625 96.753906 323.242188 96.605469 323.179688 96.410156 L 317.917969 81.132812 L 306.027344 89.144531 L 306.347656 92.832031 C 306.484375 94.40625 305.839844 95.941406 304.621094 96.945312 C 304.511719 97.035156 304.375 97.082031 304.234375 97.082031 " fill-opacity="1" fill-rule="nonzero"/><path fill="#99b9ff" d="M 331.128906 66.445312 L 331.4375 66.117188 C 331.4375 66.117188 333.246094 64.3125 332.390625 63.28125 L 332.371094 63.257812 C 331.515625 62.226562 329.417969 63.722656 329.417969 63.722656 L 329.0625 63.957031 L 331.128906 66.445312 " fill-opacity="1" fill-rule="nonzero"/><path fill="#caddff" d="M 282.847656 217.691406 C 282.847656 199.992188 297.191406 185.644531 314.882812 185.644531 C 332.574219 185.644531 346.917969 199.992188 346.917969 217.691406 C 346.917969 235.390625 332.574219 249.738281 314.882812 249.738281 C 297.191406 249.738281 282.847656 235.390625 282.847656 217.691406 " fill-opacity="1" fill-rule="nonzero"/><path fill="#000000" d="M 304.09375 239.621094 C 303.972656 239.621094 303.847656 239.585938 303.742188 239.507812 C 303.46875 239.3125 303.40625 238.933594 303.601562 238.660156 L 315.109375 222.558594 C 315.335938 222.238281 315.867188 222.238281 316.097656 222.558594 L 327.507812 238.527344 C 327.703125 238.800781 327.640625 239.179688 327.367188 239.375 C 327.097656 239.570312 326.714844 239.503906 326.523438 239.234375 L 315.601562 223.953125 L 304.589844 239.367188 C 304.46875 239.535156 304.285156 239.621094 304.09375 239.621094 " fill-opacity="1" fill-rule="nonzero"/><path fill="#000000" d="M 324.523438 234.808594 L 323.9375 234.808594 C 323.605469 234.808594 323.332031 234.539062 323.332031 234.203125 C 323.332031 233.867188 323.605469 233.597656 323.9375 233.597656 L 324.523438 233.597656 C 324.683594 233.597656 324.820312 233.464844 324.820312 233.300781 L 324.820312 228.523438 C 324.820312 228.359375 324.683594 228.226562 324.523438 228.226562 L 324.179688 228.226562 C 324.015625 228.226562 323.882812 228.359375 323.882812 228.523438 C 323.882812 228.859375 323.609375 229.132812 323.277344 229.132812 C 322.941406 229.132812 322.667969 228.859375 322.667969 228.523438 C 322.667969 227.691406 323.347656 227.011719 324.179688 227.011719 L 324.523438 227.011719 C 325.359375 227.011719 326.035156 227.691406 326.035156 228.523438 L 326.035156 233.300781 C 326.035156 234.132812 325.359375 234.808594 324.523438 234.808594 " fill-opacity="1" fill-rule="nonzero"/><path fill="#000000" d="M 307.046875 234.808594 L 306.707031 234.808594 C 305.871094 234.808594 305.191406 234.132812 305.191406 233.296875 L 305.191406 228.523438 C 305.191406 227.6875 305.871094 227.011719 306.707031 227.011719 L 307.046875 227.011719 C 307.878906 227.011719 308.558594 227.6875 308.558594 228.523438 L 308.558594 229.0625 C 308.558594 229.398438 308.285156 229.671875 307.949219 229.671875 C 307.617188 229.671875 307.34375 229.398438 307.34375 229.0625 L 307.34375 228.523438 C 307.34375 228.359375 307.210938 228.226562 307.046875 228.226562 L 306.707031 228.226562 C 306.539062 228.226562 306.40625 228.359375 306.40625 228.523438 L 306.40625 233.296875 C 306.40625 233.464844 306.539062 233.597656 306.707031 233.597656 L 307.046875 233.597656 C 307.09375 233.597656 307.140625 233.585938 307.179688 233.566406 C 307.476562 233.414062 307.84375 233.539062 307.992188 233.835938 C 308.140625 234.136719 308.019531 234.5 307.722656 234.652344 C 307.511719 234.753906 307.28125 234.808594 307.046875 234.808594 " fill-opacity="1" fill-rule="nonzero"/><path fill="#ffffff" d="M 326.867188 230.183594 L 303.738281 230.183594 C 302.714844 230.183594 301.886719 229.355469 301.886719 228.332031 L 301.886719 202.101562 C 301.886719 200.316406 303.332031 198.867188 305.121094 198.867188 L 325.484375 198.867188 C 327.269531 198.867188 328.71875 200.316406 328.71875 202.101562 L 328.71875 228.332031 C 328.71875 229.355469 327.890625 230.183594 326.867188 230.183594 " fill-opacity="1" fill-rule="nonzero"/><path fill="#000000" d="M 305.121094 199.472656 C 303.671875 199.472656 302.492188 200.652344 302.492188 202.101562 L 302.492188 228.332031 C 302.492188 229.019531 303.050781 229.578125 303.738281 229.578125 L 326.867188 229.578125 C 327.554688 229.578125 328.113281 229.019531 328.113281 228.332031 L 328.113281 202.101562 C 328.113281 200.652344 326.933594 199.472656 325.484375 199.472656 Z M 326.867188 230.792969 L 303.738281 230.792969 C 302.378906 230.792969 301.277344 229.6875 301.277344 228.332031 L 301.277344 202.101562 C 301.277344 199.984375 303.003906 198.261719 305.121094 198.261719 L 325.484375 198.261719 C 327.601562 198.261719 329.324219 199.984375 329.324219 202.101562 L 329.324219 228.332031 C 329.324219 229.6875 328.222656 230.792969 326.867188 230.792969 " fill-opacity="1" fill-rule="nonzero"/><path fill="#5479f7" d="M 309.039062 225.566406 C 309.039062 226.6875 308.132812 227.597656 307.011719 227.597656 C 305.890625 227.597656 304.984375 226.6875 304.984375 225.566406 C 304.984375 224.445312 305.890625 223.539062 307.011719 223.539062 C 308.132812 223.539062 309.039062 224.445312 309.039062 225.566406 " fill-opacity="1" fill-rule="nonzero"/><path fill="#5479f7" d="M 325.617188 225.566406 C 325.617188 226.6875 324.710938 227.597656 323.589844 227.597656 C 322.46875 227.597656 321.5625 226.6875 321.5625 225.566406 C 321.5625 224.445312 322.46875 223.539062 323.589844 223.539062 C 324.710938 223.539062 325.617188 224.445312 325.617188 225.566406 " fill-opacity="1" fill-rule="nonzero"/><path fill="#ffffff" d="M 323.8125 219.164062 L 306.175781 219.164062 C 305.832031 219.164062 305.554688 218.886719 305.554688 218.542969 L 305.554688 203.128906 C 305.554688 202.78125 305.832031 202.503906 306.175781 202.503906 L 323.8125 202.503906 C 324.15625 202.503906 324.433594 202.78125 324.433594 203.128906 L 324.433594 218.542969 C 324.433594 218.886719 324.15625 219.164062 323.8125 219.164062 " fill-opacity="1" fill-rule="nonzero"/><path fill="#99b9ff" d="M 306.929688 203.113281 C 306.507812 203.113281 306.160156 203.457031 306.160156 203.882812 L 306.160156 217.785156 C 306.160156 218.210938 306.507812 218.558594 306.929688 218.558594 L 323.054688 218.558594 C 323.484375 218.558594 323.828125 218.210938 323.828125 217.785156 L 323.828125 203.882812 C 323.828125 203.457031 323.484375 203.113281 323.054688 203.113281 Z M 323.054688 219.773438 L 306.929688 219.773438 C 305.839844 219.773438 304.945312 218.882812 304.945312 217.785156 L 304.945312 203.882812 C 304.945312 202.789062 305.839844 201.898438 306.929688 201.898438 L 323.054688 201.898438 C 324.152344 201.898438 325.039062 202.789062 325.039062 203.882812 L 325.039062 217.785156 C 325.039062 218.882812 324.152344 219.773438 323.054688 219.773438 " fill-opacity="1" fill-rule="nonzero"/><path fill="#ffffff" d="M 319.867188 209.339844 L 313.71875 215.492188 L 319.867188 209.339844 " fill-opacity="1" fill-rule="nonzero"/><path fill="#99b9ff" d="M 313.722656 216.097656 C 313.566406 216.097656 313.410156 216.035156 313.292969 215.917969 C 313.054688 215.683594 313.054688 215.300781 313.292969 215.0625 L 319.441406 208.910156 C 319.679688 208.675781 320.0625 208.675781 320.300781 208.910156 C 320.535156 209.148438 320.535156 209.53125 320.300781 209.769531 L 314.148438 215.917969 C 314.03125 216.035156 313.878906 216.097656 313.722656 216.097656 " fill-opacity="1" fill-rule="nonzero"/><path fill="#ffffff" d="M 315.828125 208.199219 L 314.070312 209.957031 L 315.828125 208.199219 " fill-opacity="1" fill-rule="nonzero"/><path fill="#99b9ff" d="M 314.070312 210.5625 C 313.917969 210.5625 313.761719 210.503906 313.644531 210.382812 C 313.40625 210.148438 313.40625 209.761719 313.644531 209.527344 L 315.398438 207.769531 C 315.636719 207.53125 316.019531 207.53125 316.257812 207.769531 C 316.496094 208.007812 316.496094 208.390625 316.257812 208.625 L 314.5 210.382812 C 314.382812 210.503906 314.226562 210.5625 314.070312 210.5625 " fill-opacity="1" fill-rule="nonzero"/><path fill="#5479f7" d="M 130.050781 325.347656 C 130.050781 325.347656 132.914062 329.3125 133.308594 333.941406 C 133.308594 333.941406 139.5625 336.410156 142.605469 333.058594 C 145.644531 329.710938 144.277344 325.480469 144.277344 325.480469 L 139.078125 322.570312 L 136.347656 319.488281 L 130.050781 325.347656 " fill-opacity="1" fill-rule="nonzero"/><path fill="#5479f7" d="M 81.816406 348.132812 L 85.867188 337.023438 L 94.8125 339.691406 C 94.195312 342.195312 93.84375 344.757812 93.761719 347.335938 L 93.621094 351.742188 L 85.339844 352.539062 L 81.816406 348.132812 " fill-opacity="1" fill-rule="nonzero"/><path fill="#ffffff" d="M 96.382812 345.394531 C 97.179688 346.058594 98.019531 346.824219 98.691406 347.5625 C 100.945312 350.042969 106.878906 352.582031 108.046875 352.882812 C 108.925781 353.109375 109.96875 353.46875 110.8125 354.027344 C 111.769531 354.652344 112.296875 355.757812 112.261719 356.898438 L 112.242188 357.453125 C 112.21875 358.144531 111.859375 358.777344 111.277344 359.144531 C 110.058594 359.902344 107.570312 361.03125 103.3125 361.261719 C 96.792969 361.613281 90.710938 361.085938 86.570312 361.175781 C 82.429688 361.261719 79.875 360.820312 78.644531 359.324219 C 77.527344 357.96875 78.933594 350.28125 80.449219 347.96875 C 80.6875 347.605469 81.132812 347.433594 81.558594 347.527344 C 82.355469 347.699219 83.765625 348.144531 84.898438 349.277344 C 85.96875 350.347656 88.332031 351.09375 90.429688 351.191406 C 92.058594 351.273438 93.433594 349.980469 93.480469 348.34375 C 93.496094 347.804688 93.519531 347.21875 93.550781 346.632812 C 93.625 345.207031 95.285156 344.476562 96.382812 345.394531 " fill-opacity="1" fill-rule="nonzero"/><path fill="#000000" d="M 87.578125 360.558594 C 88.957031 360.558594 90.507812 360.605469 92.132812 360.65625 C 95.488281 360.753906 99.289062 360.871094 103.277344 360.65625 C 107.488281 360.429688 109.894531 359.289062 110.957031 358.628906 C 111.367188 358.371094 111.621094 357.925781 111.636719 357.433594 L 111.65625 356.878906 C 111.6875 355.925781 111.238281 355.03125 110.480469 354.53125 C 109.832031 354.105469 108.9375 353.742188 107.898438 353.472656 C 106.738281 353.171875 100.628906 350.59375 98.242188 347.96875 C 97.667969 347.339844 96.890625 346.613281 95.992188 345.859375 C 95.660156 345.578125 95.222656 345.515625 94.828125 345.691406 C 94.429688 345.863281 94.179688 346.226562 94.15625 346.664062 C 94.125 347.242188 94.101562 347.828125 94.085938 348.363281 C 94.0625 349.324219 93.65625 350.210938 92.953125 350.867188 C 92.253906 351.511719 91.347656 351.84375 90.398438 351.800781 C 88.457031 351.707031 85.773438 351.011719 84.46875 349.707031 C 83.4375 348.671875 82.121094 348.269531 81.429688 348.121094 C 81.242188 348.078125 81.050781 348.152344 80.957031 348.300781 C 79.390625 350.691406 78.304688 357.960938 79.109375 358.9375 C 80.125 360.167969 82.351562 360.660156 86.558594 360.566406 C 86.886719 360.5625 87.226562 360.558594 87.578125 360.558594 Z M 98.425781 361.992188 C 96.195312 361.992188 94.070312 361.929688 92.097656 361.867188 C 89.984375 361.804688 88.160156 361.75 86.585938 361.78125 C 81.90625 361.878906 79.46875 361.28125 78.175781 359.710938 C 76.777344 358.011719 78.394531 349.992188 79.941406 347.636719 C 80.3125 347.070312 81.011719 346.789062 81.683594 346.933594 C 82.507812 347.109375 84.074219 347.59375 85.328125 348.847656 C 86.234375 349.753906 88.394531 350.488281 90.457031 350.585938 C 91.078125 350.617188 91.667969 350.398438 92.128906 349.976562 C 92.59375 349.546875 92.855469 348.960938 92.875 348.328125 C 92.890625 347.78125 92.914062 347.191406 92.945312 346.597656 C 92.992188 345.707031 93.527344 344.933594 94.34375 344.578125 C 95.15625 344.222656 96.085938 344.355469 96.769531 344.929688 C 97.425781 345.476562 98.371094 346.308594 99.140625 347.152344 C 101.261719 349.488281 106.972656 351.980469 108.199219 352.296875 C 109.386719 352.601562 110.378906 353.011719 111.148438 353.519531 C 112.253906 354.246094 112.914062 355.546875 112.867188 356.917969 L 112.847656 357.472656 C 112.820312 358.371094 112.351562 359.1875 111.597656 359.65625 C 110.183594 360.539062 107.601562 361.636719 103.34375 361.871094 C 101.664062 361.957031 100.015625 361.992188 98.425781 361.992188 " fill-opacity="1" fill-rule="nonzero"/><path fill="#000000" d="M 96.050781 359.0625 C 88.023438 359.0625 80.707031 358.054688 80.230469 357.984375 C 79.902344 357.9375 79.667969 357.632812 79.714844 357.300781 C 79.761719 356.96875 80.070312 356.734375 80.402344 356.785156 C 80.582031 356.808594 98.554688 359.289062 109.058594 356.53125 C 109.382812 356.449219 109.714844 356.640625 109.800781 356.96875 C 109.886719 357.292969 109.691406 357.621094 109.367188 357.707031 C 105.460938 358.730469 100.640625 359.0625 96.050781 359.0625 " fill-opacity="1" fill-rule="nonzero"/><path fill="#ffffff" d="M 141.214844 322.898438 C 140.511719 322.917969 140.097656 323.707031 140.503906 324.28125 C 140.558594 324.355469 140.613281 324.433594 140.664062 324.511719 C 141.414062 325.613281 141.835938 325.5 142.382812 327.417969 C 142.480469 327.75 142.457031 328.027344 142.289062 328.785156 C 142.15625 329.402344 141.9375 330.058594 141.589844 330.546875 C 140.707031 331.78125 138.769531 333.410156 137.625 333.324219 C 136.480469 333.234375 135.683594 332.714844 133.082031 333.488281 C 132.550781 333.648438 132.117188 334 132.214844 334.546875 C 132.535156 336.351562 133.214844 339.933594 133.707031 340.816406 C 134.367188 342.003906 135.296875 343.851562 137.871094 343.71875 C 140.515625 343.585938 142.550781 342.839844 144.042969 339.445312 C 145.214844 336.78125 145.78125 335.472656 146.484375 334.765625 C 147.1875 334.0625 150.582031 331.363281 151.550781 328.589844 C 152.519531 325.8125 152.957031 322.746094 150.664062 320.898438 C 148.910156 319.480469 145.816406 321.160156 144.460938 322.027344 C 143.875 322.402344 143.226562 322.652344 142.542969 322.765625 C 142.148438 322.832031 141.691406 322.886719 141.214844 322.898438 " fill-opacity="1" fill-rule="nonzero"/><path fill="#000000" d="M 135.53125 333.679688 C 134.96875 333.679688 134.261719 333.773438 133.257812 334.074219 C 133.140625 334.105469 132.773438 334.230469 132.808594 334.441406 C 133.386719 337.679688 133.921875 339.953125 134.234375 340.519531 L 134.304688 340.640625 C 134.9375 341.792969 135.726562 343.226562 137.84375 343.113281 C 140.386719 342.984375 142.125 342.300781 143.488281 339.203125 L 143.589844 338.972656 C 144.722656 336.394531 145.289062 335.101562 146.054688 334.335938 C 146.171875 334.21875 146.363281 334.046875 146.601562 333.832031 C 147.773438 332.773438 150.214844 330.574219 150.976562 328.386719 C 152.175781 324.949219 151.957031 322.722656 150.285156 321.371094 C 148.78125 320.15625 145.695312 321.957031 144.789062 322.539062 C 144.128906 322.957031 143.410156 323.238281 142.644531 323.367188 C 142.152344 323.445312 141.679688 323.492188 141.234375 323.507812 C 141.074219 323.507812 141.003906 323.617188 140.980469 323.664062 C 140.949219 323.726562 140.925781 323.824219 141 323.929688 C 141.054688 324.007812 141.113281 324.085938 141.167969 324.167969 C 141.375 324.476562 141.558594 324.679688 141.730469 324.875 C 142.171875 325.367188 142.550781 325.792969 142.96875 327.25 C 143.105469 327.730469 143.054688 328.132812 142.882812 328.914062 C 142.699219 329.742188 142.433594 330.410156 142.082031 330.902344 C 141.285156 332.015625 139.152344 334.046875 137.578125 333.929688 C 137.28125 333.90625 137.007812 333.855469 136.746094 333.8125 C 136.378906 333.746094 136.003906 333.679688 135.53125 333.679688 Z M 137.613281 344.332031 C 134.957031 344.332031 133.890625 342.398438 133.242188 341.230469 L 133.175781 341.109375 C 132.679688 340.214844 132.050781 337.101562 131.617188 334.652344 C 131.476562 333.871094 131.984375 333.183594 132.910156 332.90625 C 135.039062 332.273438 136.058594 332.457031 136.957031 332.617188 C 137.203125 332.660156 137.433594 332.699219 137.671875 332.71875 C 138.429688 332.78125 140.179688 331.476562 141.097656 330.195312 C 141.34375 329.847656 141.554688 329.3125 141.699219 328.652344 C 141.859375 327.921875 141.851562 327.765625 141.800781 327.585938 C 141.460938 326.394531 141.207031 326.113281 140.828125 325.683594 C 140.636719 325.46875 140.417969 325.222656 140.164062 324.851562 C 140.113281 324.777344 140.0625 324.703125 140.011719 324.632812 C 139.691406 324.183594 139.648438 323.621094 139.894531 323.125 C 140.140625 322.628906 140.640625 322.308594 141.199219 322.292969 C 141.589844 322.28125 142.007812 322.238281 142.445312 322.167969 C 143.046875 322.066406 143.617188 321.847656 144.132812 321.515625 C 145.855469 320.414062 149.046875 318.808594 151.046875 320.425781 C 153.144531 322.121094 153.496094 324.855469 152.121094 328.789062 C 151.257812 331.265625 148.664062 333.605469 147.414062 334.730469 C 147.195312 334.929688 147.019531 335.085938 146.914062 335.195312 C 146.308594 335.800781 145.769531 337.023438 144.699219 339.460938 L 144.597656 339.691406 C 142.996094 343.335938 140.761719 344.179688 137.902344 344.324219 C 137.804688 344.332031 137.707031 344.332031 137.613281 344.332031 " fill-opacity="1" fill-rule="nonzero"/><path fill="#000000" d="M 136.527344 341.652344 C 134.773438 341.652344 133.449219 340.949219 133.371094 340.910156 C 133.078125 340.746094 132.96875 340.378906 133.128906 340.085938 C 133.289062 339.792969 133.65625 339.683594 133.949219 339.839844 C 133.96875 339.851562 136.070312 340.953125 138.242188 340.132812 C 139.894531 339.511719 141.199219 337.957031 142.121094 335.503906 C 142.988281 333.191406 144.105469 331.570312 145.738281 330.25 C 148.632812 327.902344 149.578125 325.871094 148.902344 323.457031 C 148.8125 323.132812 149 322.796875 149.324219 322.707031 C 149.648438 322.617188 149.980469 322.804688 150.070312 323.128906 C 150.886719 326.042969 149.785156 328.527344 146.5 331.191406 C 145.519531 331.984375 144.265625 333.242188 143.253906 335.929688 C 142.203125 338.730469 140.65625 340.53125 138.65625 341.273438 C 137.914062 341.550781 137.1875 341.652344 136.527344 341.652344 " fill-opacity="1" fill-rule="nonzero"/><path fill="#000000" d="M 92.296875 232.851562 C 92.296875 232.851562 91.066406 241.3125 96.703125 250.300781 C 102.34375 259.289062 111.417969 286.082031 111.417969 286.082031 C 111.417969 286.082031 109.898438 297.457031 126.136719 324.40625 C 126.886719 325.648438 128.367188 326.257812 129.765625 325.878906 C 131.777344 325.332031 134.589844 324.039062 136.597656 320.953125 C 137.265625 319.925781 137.425781 318.644531 137.058594 317.46875 C 135.324219 311.9375 129.875 294.230469 129.652344 289.785156 C 129.390625 284.496094 128.859375 277.355469 127.539062 273.921875 C 126.21875 270.480469 115.117188 235.054688 115.117188 235.054688 L 92.296875 232.851562 " fill-opacity="1" fill-rule="nonzero"/><path fill="#000000" d="M 92.296875 232.851562 C 92.296875 232.851562 115.027344 222.097656 132.824219 227.738281 C 132.824219 227.738281 137.582031 237.257812 124.894531 270.574219 C 124.894531 270.574219 115.203125 293.839844 113.617188 295.777344 C 112.035156 297.71875 110.625 298.949219 109.917969 302.300781 C 109.261719 305.417969 103.417969 330.359375 99.769531 339.917969 C 99.320312 341.09375 98.207031 341.878906 96.945312 341.90625 C 93.679688 341.976562 87.410156 341.570312 85.042969 337.6875 C 84.699219 337.125 84.589844 336.449219 84.71875 335.800781 C 85.472656 331.960938 88.464844 316.59375 88.773438 313.054688 C 89.125 309 93.882812 297.011719 95.648438 292.605469 C 97.410156 288.199219 101.902344 247.480469 101.902344 247.480469 L 92.296875 232.851562 " fill-opacity="1" fill-rule="nonzero"/><path fill="#caddff" d="M 99.875 260.25 C 99.847656 260.25 99.816406 260.246094 99.785156 260.242188 C 99.453125 260.191406 99.226562 259.886719 99.277344 259.554688 L 101.832031 242.457031 C 101.878906 242.125 102.1875 241.894531 102.519531 241.945312 C 102.851562 241.992188 103.078125 242.304688 103.03125 242.636719 L 100.476562 259.734375 C 100.429688 260.035156 100.171875 260.25 99.875 260.25 " fill-opacity="1" fill-rule="nonzero"/><path fill="#caddff" d="M 112.207031 299.03125 C 112.105469 299.03125 112.003906 299.003906 111.90625 298.949219 C 111.617188 298.78125 111.515625 298.410156 111.683594 298.121094 C 111.742188 298.015625 117.585938 287.78125 119.832031 281.730469 C 119.949219 281.414062 120.300781 281.253906 120.613281 281.375 C 120.929688 281.488281 121.089844 281.839844 120.972656 282.152344 C 118.691406 288.296875 112.792969 298.621094 112.734375 298.722656 C 112.625 298.921875 112.417969 299.03125 112.207031 299.03125 " fill-opacity="1" fill-rule="nonzero"/><path fill="#ffffff" d="M 61.378906 232.011719 C 61.378906 232.011719 60.816406 233.9375 59.175781 235.523438 C 57.53125 237.105469 55.199219 240.734375 55.4375 243.558594 C 55.617188 245.632812 57.929688 249.109375 60.980469 251.113281 C 61.417969 251.402344 62.007812 251.410156 62.40625 251.066406 C 62.722656 250.796875 62.9375 250.328125 62.683594 249.503906 C 62.21875 248.003906 61.296875 247.925781 61.015625 246.84375 C 60.667969 245.496094 61.609375 241.195312 63.359375 241.636719 C 64.953125 242.03125 62.898438 244.910156 63.214844 246.21875 C 63.460938 247.265625 64.382812 247.859375 65.402344 247.574219 C 66.878906 247.15625 67.71875 240.277344 67.378906 238.070312 C 67.039062 235.859375 66.472656 232.011719 66.472656 232.011719 L 61.378906 232.011719 " fill-opacity="1" fill-rule="nonzero"/><path fill="#000000" d="M 61.808594 232.621094 C 61.535156 233.316406 60.867188 234.726562 59.59375 235.957031 C 58.03125 237.464844 55.824219 240.910156 56.042969 243.507812 C 56.203125 245.367188 58.355469 248.664062 61.3125 250.605469 C 61.542969 250.757812 61.835938 250.757812 62.011719 250.609375 C 62.085938 250.542969 62.308594 250.351562 62.101562 249.679688 C 61.898438 249.023438 61.597656 248.707031 61.28125 248.371094 C 60.960938 248.035156 60.601562 247.652344 60.429688 246.996094 C 60.113281 245.773438 60.632812 242.800781 61.839844 241.578125 C 62.464844 240.949219 63.089844 240.941406 63.507812 241.042969 C 64.011719 241.171875 64.269531 241.46875 64.394531 241.695312 C 64.789062 242.40625 64.484375 243.359375 64.15625 244.367188 C 63.960938 244.972656 63.71875 245.726562 63.804688 246.078125 C 63.890625 246.445312 64.089844 246.734375 64.367188 246.898438 C 64.621094 247.046875 64.921875 247.078125 65.238281 246.988281 C 66.101562 246.644531 67.15625 240.617188 66.777344 238.160156 C 66.515625 236.445312 66.113281 233.742188 65.949219 232.621094 Z M 61.683594 251.933594 C 61.328125 251.933594 60.964844 251.828125 60.644531 251.621094 C 57.648438 249.652344 55.042969 246.058594 54.835938 243.609375 C 54.578125 240.585938 56.972656 236.804688 58.753906 235.085938 C 60.25 233.640625 60.792969 231.859375 60.800781 231.839844 L 60.929688 231.40625 L 66.996094 231.40625 L 67.074219 231.921875 C 67.074219 231.921875 67.636719 235.769531 67.976562 237.976562 C 68.261719 239.816406 67.710938 247.550781 65.566406 248.15625 C 64.933594 248.335938 64.292969 248.261719 63.753906 247.945312 C 63.191406 247.613281 62.789062 247.050781 62.625 246.359375 C 62.460938 245.679688 62.738281 244.824219 63.003906 243.996094 C 63.191406 243.414062 63.472656 242.535156 63.335938 242.28125 C 63.320312 242.253906 63.261719 242.234375 63.214844 242.222656 C 63.140625 242.203125 62.972656 242.164062 62.703125 242.433594 C 61.855469 243.289062 61.378906 245.816406 61.605469 246.691406 C 61.695312 247.046875 61.878906 247.242188 62.160156 247.535156 C 62.523438 247.917969 62.972656 248.390625 63.261719 249.324219 C 63.644531 250.566406 63.140625 251.238281 62.804688 251.527344 C 62.492188 251.796875 62.089844 251.933594 61.683594 251.933594 " fill-opacity="1" fill-rule="nonzero"/><path fill="#ffffff" d="M 163.019531 215.617188 C 163.019531 215.617188 167.144531 217.582031 168.21875 218.4375 C 170.746094 220.453125 169.960938 223.644531 169.628906 224.699219 C 169.253906 225.875 167.425781 228.929688 165.574219 229.71875 C 163.726562 230.515625 161.480469 230.066406 160.90625 228.398438 C 160.605469 227.519531 161.433594 226.902344 162.292969 225.964844 C 163.058594 225.128906 163.03125 223.839844 162.21875 223.050781 L 160.113281 220.996094 L 163.019531 215.617188 " fill-opacity="1" fill-rule="nonzero"/><path fill="#000000" d="M 160.867188 220.882812 L 162.640625 222.617188 C 163.691406 223.640625 163.734375 225.292969 162.738281 226.375 C 162.589844 226.539062 162.441406 226.691406 162.300781 226.839844 C 161.625 227.535156 161.363281 227.855469 161.480469 228.199219 C 161.679688 228.785156 162.140625 229.09375 162.492188 229.25 C 163.292969 229.605469 164.382812 229.574219 165.339844 229.164062 C 166.949219 228.472656 168.707031 225.59375 169.050781 224.515625 C 169.402344 223.402344 169.992188 220.628906 167.839844 218.914062 C 167.109375 218.332031 164.644531 217.082031 163.277344 216.417969 Z M 163.742188 230.710938 C 163.125 230.710938 162.527344 230.59375 162 230.359375 C 161.179688 229.996094 160.605469 229.386719 160.332031 228.597656 C 159.960938 227.511719 160.707031 226.742188 161.429688 225.996094 C 161.5625 225.855469 161.703125 225.710938 161.84375 225.554688 C 162.394531 224.957031 162.371094 224.046875 161.796875 223.484375 L 159.363281 221.109375 L 162.761719 214.824219 L 163.28125 215.070312 C 163.453125 215.152344 167.480469 217.074219 168.597656 217.964844 C 171.335938 220.148438 170.636719 223.527344 170.207031 224.878906 C 169.851562 226 167.964844 229.355469 165.816406 230.277344 C 165.144531 230.566406 164.429688 230.710938 163.742188 230.710938 " fill-opacity="1" fill-rule="nonzero"/><path fill="#5479f7" d="M 133.882812 159.960938 C 132.042969 158.0625 129.253906 156.617188 126.378906 155.535156 C 121.011719 153.511719 115.253906 152.726562 109.527344 153.058594 L 105.039062 153.316406 C 97.347656 154.636719 90.148438 158.085938 84.46875 163.433594 C 82.300781 165.472656 80.390625 167.804688 79.082031 170.273438 C 61.859375 202.796875 58.820312 231.617188 58.820312 231.617188 C 58.820312 231.617188 60.40625 234.789062 68.335938 233.203125 C 68.335938 233.203125 85.515625 204.910156 87.363281 196.714844 C 87.363281 196.714844 95.117188 208.964844 92.296875 232.851562 C 92.296875 232.851562 108.773438 239.195312 132.824219 227.738281 L 130.515625 197.441406 C 137.289062 209.453125 147.226562 217.398438 152.722656 221.160156 C 156.464844 223.71875 161.628906 222.164062 163.320312 217.957031 C 164.179688 215.816406 164.542969 213.902344 164.542969 213.902344 C 141.019531 198.566406 146.039062 172.523438 133.882812 159.960938 " fill-opacity="1" fill-rule="nonzero"/><path fill="#000000" d="M 130.445312 198.113281 C 130.234375 198.113281 130.03125 198.003906 129.917969 197.804688 C 122.015625 183.84375 120.605469 170.464844 120.589844 170.332031 C 120.558594 170 120.800781 169.703125 121.136719 169.671875 C 121.464844 169.636719 121.765625 169.878906 121.796875 170.210938 C 121.8125 170.34375 123.207031 183.476562 130.972656 197.207031 C 131.140625 197.5 131.035156 197.871094 130.746094 198.035156 C 130.648438 198.089844 130.546875 198.113281 130.445312 198.113281 " fill-opacity="1" fill-rule="nonzero"/><path fill="#000000" d="M 87.367188 197.320312 C 87.144531 197.320312 86.929688 197.199219 86.820312 196.984375 C 86.789062 196.921875 83.59375 190.460938 82.222656 182.410156 C 82.167969 182.082031 82.390625 181.765625 82.71875 181.710938 C 83.050781 181.65625 83.363281 181.878906 83.417969 182.207031 C 84.757812 190.082031 87.875 196.378906 87.90625 196.441406 C 88.058594 196.742188 87.933594 197.105469 87.636719 197.257812 C 87.550781 197.300781 87.457031 197.320312 87.367188 197.320312 " fill-opacity="1" fill-rule="nonzero"/><path fill="#000000" d="M 101.636719 212.921875 C 101.421875 212.921875 101.210938 212.804688 101.101562 212.597656 C 100.945312 212.300781 101.058594 211.9375 101.351562 211.777344 C 101.488281 211.707031 114.675781 204.589844 119.035156 191.757812 C 119.144531 191.441406 119.488281 191.273438 119.804688 191.378906 C 120.121094 191.488281 120.292969 191.832031 120.183594 192.152344 C 115.664062 205.445312 102.058594 212.777344 101.921875 212.847656 C 101.832031 212.898438 101.734375 212.921875 101.636719 212.921875 " fill-opacity="1" fill-rule="nonzero"/><path fill="#000000" d="M 100.84375 205.253906 C 100.699219 205.253906 100.558594 205.203125 100.441406 205.097656 C 100.191406 204.875 100.167969 204.492188 100.390625 204.242188 C 100.457031 204.167969 106.921875 196.789062 109.5 183.902344 C 109.566406 183.574219 109.886719 183.363281 110.214844 183.425781 C 110.542969 183.492188 110.753906 183.8125 110.691406 184.140625 C 108.042969 197.371094 101.570312 204.742188 101.296875 205.050781 C 101.175781 205.183594 101.011719 205.253906 100.84375 205.253906 " fill-opacity="1" fill-rule="nonzero"/><path fill="#ffffff" d="M 98.902344 156.617188 C 99.003906 156.246094 102.71875 153.210938 101.800781 146.320312 C 101.800781 146.320312 96.855469 139.492188 98.394531 136.507812 C 99.933594 133.523438 99.839844 129.09375 104.9375 129.09375 C 110.039062 129.09375 113.023438 131.40625 114.179688 134.390625 C 115.332031 137.375 115.621094 140.359375 115.71875 142.09375 C 115.789062 143.375 115.597656 146.242188 115.492188 147.640625 C 115.457031 148.125 115.121094 148.53125 114.652344 148.65625 L 113.109375 149.078125 C 112.605469 149.21875 112.257812 149.679688 112.265625 150.199219 L 112.304688 152.957031 C 112.324219 154.59375 111.195312 156.023438 109.59375 156.378906 C 105.503906 157.277344 98.351562 158.589844 98.902344 156.617188 " fill-opacity="1" fill-rule="nonzero"/><path fill="#000000" d="M 99.496094 156.8125 C 99.921875 157.144531 102.457031 157.324219 109.460938 155.785156 C 110.777344 155.496094 111.714844 154.308594 111.695312 152.964844 L 111.660156 150.207031 C 111.648438 149.410156 112.179688 148.707031 112.949219 148.496094 L 114.492188 148.074219 C 114.710938 148.011719 114.871094 147.824219 114.886719 147.597656 C 114.980469 146.378906 115.183594 143.398438 115.113281 142.125 C 114.957031 139.308594 114.449219 136.777344 113.613281 134.609375 C 112.386719 131.445312 109.308594 129.703125 104.9375 129.703125 C 101.5 129.703125 100.753906 131.871094 99.890625 134.378906 C 99.613281 135.191406 99.324219 136.027344 98.933594 136.785156 C 97.8125 138.960938 100.976562 144.148438 102.289062 145.964844 L 102.378906 146.085938 L 102.402344 146.238281 C 103.21875 152.363281 100.515625 155.59375 99.628906 156.65625 C 99.578125 156.71875 99.53125 156.769531 99.496094 156.8125 Z M 101.046875 158.253906 C 99.1875 158.253906 98.792969 157.835938 98.582031 157.613281 C 98.289062 157.304688 98.195312 156.890625 98.316406 156.453125 C 98.367188 156.273438 98.476562 156.140625 98.699219 155.878906 C 99.492188 154.925781 101.902344 152.042969 101.21875 146.546875 C 100.394531 145.390625 96.265625 139.3125 97.855469 136.230469 C 98.207031 135.550781 98.46875 134.789062 98.746094 133.984375 C 99.628906 131.40625 100.632812 128.488281 104.9375 128.488281 C 109.773438 128.488281 113.347656 130.558594 114.742188 134.171875 C 115.628906 136.457031 116.160156 139.109375 116.324219 142.058594 C 116.394531 143.355469 116.210938 146.140625 116.097656 147.6875 C 116.042969 148.425781 115.527344 149.050781 114.8125 149.246094 L 113.269531 149.664062 C 113.03125 149.730469 112.871094 149.945312 112.871094 150.191406 L 112.910156 152.949219 C 112.9375 154.867188 111.597656 156.558594 109.722656 156.96875 C 105.257812 157.953125 102.625 158.253906 101.046875 158.253906 " fill-opacity="1" fill-rule="nonzero"/><path fill="#000000" d="M 112.414062 138.980469 C 113.035156 138.722656 113.441406 138.128906 113.457031 137.457031 C 113.480469 136.65625 113.003906 134.808594 114.179688 134.390625 C 117.328125 133.269531 116.136719 129.480469 114.273438 128.070312 C 112.414062 126.65625 105.097656 124.28125 101.378906 126.269531 C 101.378906 126.269531 99.902344 127.492188 100.222656 128.710938 C 100.222656 128.710938 97.273438 128.773438 96.566406 130.957031 C 95.859375 133.136719 94.640625 141.164062 101.957031 147.292969 C 101.957031 147.292969 103.851562 147.527344 105.96875 146.984375 C 107.199219 146.667969 108.109375 145.621094 108.289062 144.363281 C 108.5625 142.433594 109.367188 139.480469 109.910156 138.605469 C 109.910156 138.605469 109.578125 137.234375 110.347656 136.890625 C 110.847656 136.664062 111.449219 137.246094 111.714844 137.722656 L 112.414062 138.980469 " fill-opacity="1" fill-rule="nonzero"/><path fill="#000000" d="M 115.285156 148.765625 C 115.25 148.765625 115.214844 148.761719 115.179688 148.753906 C 115.054688 148.734375 112.132812 148.1875 111.457031 144.925781 C 111.386719 144.597656 111.597656 144.273438 111.925781 144.207031 C 112.25 144.140625 112.574219 144.351562 112.640625 144.675781 C 113.15625 147.144531 115.367188 147.554688 115.390625 147.558594 C 115.71875 147.617188 115.941406 147.929688 115.882812 148.261719 C 115.832031 148.558594 115.574219 148.765625 115.285156 148.765625 " fill-opacity="1" fill-rule="nonzero"/><path fill="#000000" d="M 111.867188 142.445312 C 111.863281 142.445312 111.855469 142.445312 111.851562 142.445312 C 111.742188 142.441406 109.183594 142.3125 108.574219 138.039062 C 108.527344 137.707031 108.757812 137.398438 109.089844 137.351562 C 109.417969 137.304688 109.726562 137.535156 109.773438 137.867188 C 110.230469 141.070312 111.832031 141.226562 111.898438 141.230469 C 112.226562 141.253906 112.484375 141.535156 112.46875 141.867188 C 112.449219 142.191406 112.191406 142.445312 111.867188 142.445312 " fill-opacity="1" fill-rule="nonzero"/></svg>